<?xml version="1.0" encoding="UTF-8"?>
<svg width="85px" height="64px" viewBox="0 0 85 64" version="1.1" xmlns="http://www.w3.org/2000/svg" xmlns:xlink="http://www.w3.org/1999/xlink">
    <title>编组 9</title>
    <defs>
        <linearGradient x1="82.3832049%" y1="23.6640138%" x2="0%" y2="64.8661332%" id="linearGradient-1">
            <stop stop-color="#A1AFE9" offset="0%"></stop>
            <stop stop-color="#4162EB" offset="100%"></stop>
        </linearGradient>
        <filter id="filter-2">
            <feColorMatrix in="SourceGraphic" type="matrix" values="0 0 0 0 1.000000 0 0 0 0 1.000000 0 0 0 0 1.000000 0 0 0 1.000000 0"></feColorMatrix>
        </filter>
    </defs>
    <g id="页面-1" stroke="none" stroke-width="1" fill="none" fill-rule="evenodd">
        <g id="东云官网-解决方案-混合云" transform="translate(-460.000000, -1698.000000)">
            <g id="需求备份" transform="translate(360.000000, 1586.000000)">
                <g id="编组-19" transform="translate(0.000000, 75.000000)">
                    <g id="编组-9" transform="translate(100.000000, 37.000000)">
                        <path d="M42.5,0 C54.2360509,0 63.75,9.55125867 63.75,21.3333333 C63.75,21.3336671 63.75,21.3340009 63.75,21.3343346 L63.6666667,21.3333333 C75.4487413,21.3333333 85,30.884592 85,42.6666667 C85,54.4487413 75.4487413,64 63.6666667,64 L21.3333333,64 C9.55125867,64 1.442888e-15,54.4487413 0,42.6666667 C-1.43949538e-15,30.9122949 9.50639621,21.3782609 21.2502617,21.3334917 C21.25,9.55125867 30.7639491,0 42.5,0 Z" id="形状结合备份" fill="url(#linearGradient-1)"></path>
                        <g filter="url(#filter-2)" id="组织架构">
                            <g transform="translate(25.000000, 17.000000)">
                                <rect id="矩形" fill="#000000" fill-rule="nonzero" opacity="0" x="0" y="0" width="35" height="35"></rect>
                                <path d="M29.3347727,22.6147727 L29.3347727,17.8706818 C29.3347727,17.2117057 28.800567,16.6775 28.1415909,16.6775 L18.7854545,16.6775 L18.7854545,12.4440909 C21.2698863,11.8842641 23.0367117,9.68035402 23.0427273,7.13363636 C23.0392206,4.12488715 20.6010219,1.68668851 17.5922727,1.68318182 C14.5829023,1.68581189 12.1437356,4.12426679 12.1402273,7.13363636 C12.145226,9.68124806 13.9133617,11.8859686 16.3990909,12.4440909 L16.3990909,16.6775 L7.04295454,16.6775 C6.72650304,16.6775 6.42301258,16.8032099 6.19924758,17.0269749 C5.97548258,17.2507399 5.84977271,17.5542303 5.84977271,17.8706818 L5.84977271,22.5590909 C3.3642902,23.1165478 1.5960569,25.3207296 1.59090911,27.8679545 C1.59090911,30.8731818 4.03613639,33.3184091 7.04136364,33.3184091 C10.0465909,33.3184091 12.4918182,30.8731818 12.4918182,27.8679545 C12.4862453,25.3214151 10.719063,23.1177202 8.23454546,22.5590909 L8.23454546,19.0638636 L26.9484091,19.0638636 L26.9484091,22.5193182 C24.3768453,23.0049943 22.5131211,25.2493429 22.5081818,27.8663636 C22.5081818,30.8715909 24.9534091,33.3168182 27.9586364,33.3168182 C30.9638636,33.3168182 33.4090909,30.8715909 33.4090909,27.8679545 C33.4090909,25.3415909 31.6718182,23.2304545 29.3347727,22.6147727 Z M14.5281818,7.13363636 C14.5281818,5.44409089 15.9027273,4.06954546 17.5938636,4.06954546 C19.2834091,4.06954546 20.6579545,5.44409093 20.6579545,7.13363636 C20.6570778,8.82578132 19.2860079,10.1975631 17.5938636,10.1993182 C15.9018241,10.1966901 14.5308099,8.8256759 14.5281818,7.13363636 L14.5281818,7.13363636 Z M10.1070455,27.8679545 C10.1070455,29.5575 8.7325,30.9320455 7.04295454,30.9320455 C5.35340907,30.9320455 3.97727271,29.5559091 3.97727271,27.8679545 C3.97727271,26.18 5.35181818,24.8038636 7.04136364,24.8038636 C8.73090911,24.8038636 10.1070455,26.1784091 10.1070455,27.8679545 L10.1070455,27.8679545 Z M27.9586364,30.9304545 C26.2690909,30.9304545 24.8945455,29.5559091 24.8945455,27.8663636 C24.8945455,26.1768182 26.2690909,24.8022727 27.9586364,24.8022727 C29.6481818,24.8022727 31.0227273,26.1768182 31.0227273,27.8663636 C31.0227273,29.5559091 29.6481818,30.9304545 27.9586364,30.9304545 Z" id="形状" fill="#000000" fill-rule="nonzero"></path>
                            </g>
                        </g>
                    </g>
                </g>
            </g>
        </g>
    </g>
</svg>