<?xml version="1.0" encoding="UTF-8"?>
<svg width="85px" height="64px" viewBox="0 0 85 64" version="1.1" xmlns="http://www.w3.org/2000/svg" xmlns:xlink="http://www.w3.org/1999/xlink">
    <title>编组 9备份 2</title>
    <defs>
        <linearGradient x1="82.3832049%" y1="23.6640138%" x2="0%" y2="64.8661332%" id="linearGradient-1">
            <stop stop-color="#A1AFE9" offset="0%"></stop>
            <stop stop-color="#4162EB" offset="100%"></stop>
        </linearGradient>
        <filter id="filter-2">
            <feColorMatrix in="SourceGraphic" type="matrix" values="0 0 0 0 1.000000 0 0 0 0 1.000000 0 0 0 0 1.000000 0 0 0 1.000000 0"></feColorMatrix>
        </filter>
    </defs>
    <g id="页面-1" stroke="none" stroke-width="1" fill="none" fill-rule="evenodd">
        <g id="东云官网-解决方案-混合云" transform="translate(-1071.000000, -1698.000000)">
            <g id="需求备份" transform="translate(360.000000, 1586.000000)">
                <g id="编组-19备份-2" transform="translate(610.666667, 75.000000)">
                    <g id="编组-9备份-2" transform="translate(100.333333, 37.000000)">
                        <path d="M42.5,0 C54.2360509,0 63.75,9.55125867 63.75,21.3333333 C63.75,21.3336671 63.75,21.3340009 63.75,21.3343346 L63.6666667,21.3333333 C75.4487413,21.3333333 85,30.884592 85,42.6666667 C85,54.4487413 75.4487413,64 63.6666667,64 L21.3333333,64 C9.55125867,64 1.442888e-15,54.4487413 0,42.6666667 C-1.43949538e-15,30.9122949 9.50639621,21.3782609 21.2502617,21.3334917 C21.25,9.55125867 30.7639491,0 42.5,0 Z" id="形状结合备份" fill="url(#linearGradient-1)"></path>
                        <g filter="url(#filter-2)" id="降低成本">
                            <g transform="translate(30.000000, 23.000000)">
                                <rect id="矩形" opacity="0" fill-rule="nonzero" x="0" y="1.71428571" width="25.7142857" height="25.7142857"></rect>
                                <path d="M27.7192383,14.7386719 C26.2485178,13.1070923 24.2238851,12.0803665 22.0385742,11.8579102 L20.925293,11.7788086 L21.6758789,10.894043 C21.9287109,10.4296875 21.9852539,9.92402344 22.0447266,9.38935547 L22.0526367,9.31904297 L22.0819336,6.09111328 C22.0819336,5.63789062 21.9761719,5.24414062 21.7391602,4.81523437 L21.7338867,4.80556641 L21.665625,4.60048828 L21.6817383,4.56005859 C21.7860352,4.2984375 21.8264648,4.10917969 21.8264648,3.88623047 C21.8264648,3.29707031 21.5182617,2.74599609 20.9103516,2.24853516 C20.334668,1.77773437 19.5041016,1.36289062 18.4420898,1.01601562 C16.4695312,0.369726562 13.78125,0 11.0668945,0 C8.35253906,0 5.66455078,0.369726562 3.69169922,1.01425781 C2.62939453,1.36113281 1.79912109,1.77597656 1.2234375,2.24677734 C0.615527344,2.74482422 0.307324219,3.29501953 0.307324219,3.88447266 C0.307324219,4.13115234 0.357421875,4.36757812 0.447949219,4.54980469 L0.469042969,4.59404297 L0.399316406,4.8046875 L0.394042969,4.81435547 C0.15703125,5.24414062 0.0512695313,5.63759766 0.0512695313,6.09199219 L0.0512695313,9.32607422 C0.0512695313,9.8578125 0.241992188,10.396875 0.587988281,10.8442383 L0.637792969,10.9086914 L0.443847656,11.2335937 C0.180175781,11.7123047 0.0509765625,12.1461914 0.0509765625,12.5598633 L0.0509765625,15.7942383 C0.0509765625,16.2738281 0.208007813,16.7610352 0.544921875,17.3244141 L0.5859375,17.3932617 L0.389648438,17.6569336 C0.125976563,18.1333008 0,18.5651367 0,18.9779297 L0,22.2114258 C0,23.5523437 1.12265625,24.8080078 3.16113281,25.7475586 C5.22861328,26.7005859 8.01796875,27.225293 11.015625,27.225293 C12.2712891,27.225293 14.6689453,26.9545898 14.6929687,26.9519531 L14.7515625,26.9452148 L14.7925781,26.9876953 C15.5999477,27.8256301 16.5647741,28.495961 17.6317383,28.9602539 C18.7345919,29.4425203 19.9255113,29.69072 21.1291992,29.6891675 C26.0203125,29.6891675 29.9994141,25.6898437 29.9994141,20.7738281 C30.0278393,18.5465086 29.21336,16.3907495 27.7192383,14.7386719 Z M4.35966797,2.4609375 C6.15263672,1.91162109 8.55146484,1.60869141 11.1181641,1.60869141 C16.6069336,1.60869141 20.4319336,2.97041016 20.4319336,4.19238281 C20.4319336,4.79443359 19.5005859,5.42578125 17.8763672,5.92382812 C16.0842773,6.47460938 13.6845703,6.77636719 11.1181641,6.77636719 C5.62939453,6.77636719 1.80439446,5.41464844 1.80439446,4.19267578 C1.80410156,3.59033203 2.73574219,2.95898438 4.35966797,2.4609375 Z M1.59990234,6.33398437 L1.80029297,6.51708984 C2.58017578,7.22958984 3.90615234,7.81904297 5.63496094,8.22158203 C7.24892578,8.59746094 9.12744141,8.79609375 11.0668945,8.79609375 C13.0063477,8.79609375 14.8848633,8.59746094 16.4988281,8.22158203 C18.2273437,7.81904297 19.5539062,7.22958984 20.3334961,6.51708984 L20.5338867,6.33398437 L20.5338867,9.27480469 C20.5338867,10.255957 19.5585937,11.259375 17.8584961,12.0287109 C16.0485352,12.8466797 13.6365234,13.2969727 11.0668945,13.2969727 C8.49726562,13.2969727 6.08642578,12.8466797 4.27529297,12.0287109 C2.57607422,11.2605469 1.59990234,10.2571289 1.59990234,9.27480469 L1.59990234,6.33398437 Z M14.2854492,15.1833984 L14.1249023,15.403125 C13.4071884,16.381212 12.9094848,17.502944 12.665918,18.6914062 C12.6509766,18.7792969 12.6325195,18.8712891 12.6131836,18.9673828 C12.5648437,19.2049805 12.5147461,19.4510742 12.5147461,19.6959961 L12.5147461,19.8155273 L12.3952148,19.8155273 C12.2194336,19.8155273 12.027832,19.828418 11.8412109,19.8410156 C11.6545898,19.8536133 11.4541992,19.8670898 11.2713867,19.8670898 C8.69941406,19.8670898 6.27832031,19.4167969 4.45458984,18.5988281 C2.73779297,17.8291992 1.75341797,16.8257812 1.75341797,15.8449219 L1.69746094,12.4757813 L1.90546875,12.6788086 C2.75039062,13.5032227 4.04707031,14.1919922 5.65546875,14.6709961 C7.29316406,15.1587891 9.21767578,15.4168945 11.221875,15.4168945 C12.1854492,15.4168945 13.1167969,15.3128906 14.0170898,15.2118164 L14.2854492,15.1833984 Z M13.8902344,25.3075195 C12.9871313,25.413665 12.0784549,25.465321 11.1691406,25.462207 C8.56787109,25.462207 6.13359375,25.0880859 4.31367188,24.4075195 C2.58837891,23.7629883 1.59902344,22.9060547 1.59902344,22.0558594 L1.59902344,19.2931641 L1.79326172,19.4481445 C3.55839844,20.8570313 7.15078125,21.7333008 11.1682617,21.7333008 C11.5754883,21.7333008 11.9270508,21.7333008 12.328125,21.6829102 L12.4423828,21.6685547 L12.4611328,21.7819336 C12.6152344,22.7103516 12.9193359,23.5599609 13.3652344,24.3070313 L13.3696289,24.3152344 C13.5049805,24.5871094 13.687207,24.8308594 13.9602539,25.10625 L14.1336914,25.2820312 L13.8902344,25.3075195 Z M26.3616211,25.9201172 C24.9861328,27.3131836 23.1448242,28.0804687 21.1819336,28.0804687 C19.1311523,28.0804687 17.2335938,27.2469727 15.834375,25.7334961 C15.5217773,25.4188477 15.2595703,25.05 15.0061523,24.693457 L15.0026367,24.6881836 C14.2533395,23.5014432 13.8570606,22.1260507 13.8600417,20.7225586 L13.8600417,20.6712891 C13.8600417,20.2529297 13.9125,19.8319336 13.9631836,19.4244141 C14.015625,19.0549805 14.1205078,18.6858398 14.222168,18.3287109 L14.2239258,18.3228516 C15.1134085,15.6821285 17.429536,13.7787954 20.1925781,13.4179688 C20.5081055,13.3652344 20.8239258,13.3652344 21.1300781,13.3652344 L21.3902344,13.3652344 C23.2810547,13.4411133 25.0523438,14.240332 26.381543,15.6155273 C27.7106654,16.9833667 28.4534998,18.8159087 28.4519531,20.7231445 C28.4768555,22.6833984 27.7341797,24.5299805 26.3616211,25.9201172 L26.3616211,25.9201172 Z" id="形状" stroke="#979797" fill="#000000" fill-rule="nonzero"></path>
                                <path d="M24.797168,20.0625 C24.6479837,19.9506118 24.4604622,19.9025695 24.2758561,19.9289418 C24.09125,19.9553141 23.9246812,20.0539407 23.812793,20.203125 L22.265918,22.265625 L22.265918,15.9375 C22.265918,15.5491748 21.9511182,15.234375 21.562793,15.234375 C21.1744678,15.234375 20.859668,15.5491748 20.859668,15.9375 L20.859668,22.265625 L19.312793,20.203125 C19.0797978,19.8924648 18.6390781,19.8295049 18.328418,20.0625 C18.0177578,20.2954951 17.9547979,20.7362148 18.187793,21.046875 L21.000293,24.796875 C21.1330812,24.973926 21.3414792,25.078125 21.562793,25.078125 C21.7841067,25.078125 21.9925047,24.973926 22.125293,24.796875 L24.937793,21.046875 C25.0496812,20.8976907 25.0977235,20.7101692 25.0713512,20.5255631 C25.0449789,20.340957 24.9463522,20.1743882 24.797168,20.0625 L24.797168,20.0625 Z" id="路径" stroke="#979797" fill="#000000" fill-rule="nonzero"></path>
                            </g>
                        </g>
                    </g>
                </g>
            </g>
        </g>
    </g>
</svg>