<?xml version="1.0" encoding="UTF-8"?>
<svg width="85px" height="64px" viewBox="0 0 85 64" version="1.1" xmlns="http://www.w3.org/2000/svg" xmlns:xlink="http://www.w3.org/1999/xlink">
    <title>编组 9备份 3</title>
    <defs>
        <linearGradient x1="82.3832049%" y1="23.6640138%" x2="0%" y2="64.8661332%" id="linearGradient-1">
            <stop stop-color="#A1AFE9" offset="0%"></stop>
            <stop stop-color="#4162EB" offset="100%"></stop>
        </linearGradient>
        <filter id="filter-2">
            <feColorMatrix in="SourceGraphic" type="matrix" values="0 0 0 0 1.000000 0 0 0 0 1.000000 0 0 0 0 1.000000 0 0 0 1.000000 0"></feColorMatrix>
        </filter>
    </defs>
    <g id="页面-1" stroke="none" stroke-width="1" fill="none" fill-rule="evenodd">
        <g id="东云官网-解决方案-混合云" transform="translate(-1376.000000, -1698.000000)">
            <g id="需求备份" transform="translate(360.000000, 1586.000000)">
                <g id="编组-19备份-3" transform="translate(916.000000, 75.000000)">
                    <g id="编组-9备份-3" transform="translate(100.000000, 37.000000)">
                        <path d="M42.5,0 C54.2360509,0 63.75,9.55125867 63.75,21.3333333 C63.75,21.3336671 63.75,21.3340009 63.75,21.3343346 L63.6666667,21.3333333 C75.4487413,21.3333333 85,30.884592 85,42.6666667 C85,54.4487413 75.4487413,64 63.6666667,64 L21.3333333,64 C9.55125867,64 1.442888e-15,54.4487413 0,42.6666667 C-1.43949538e-15,30.9122949 9.50639621,21.3782609 21.2502617,21.3334917 C21.25,9.55125867 30.7639491,0 42.5,0 Z" id="形状结合备份" fill="url(#linearGradient-1)"></path>
                        <g filter="url(#filter-2)" id="服务管理">
                            <g transform="translate(22.000000, 16.000000)">
                                <rect id="矩形" fill="#000000" fill-rule="nonzero" opacity="0" x="0" y="0" width="42" height="42"></rect>
                                <path d="M26.425,21.525 C25.55,22.4 24.5,23.1 23.275,23.45 L22.75,24.5 L19.25,24.5 L18.725,23.275 C17.5,22.925 16.45,22.225 15.575,21.35 L14.35,21.525 L12.6,18.55 L13.475,17.5 C13.125,16.975 13.125,16.45 13.125,15.75 C13.125,15.05 13.125,14.525 13.3,13.825 L12.6,12.95 L14.35,9.975 L15.575,10.15 C16.45,9.27500003 17.5,8.57500001 18.725,8.22499999 L19.25,7.00000001 L22.75,7.00000001 L23.275,8.22499999 C24.5,8.57499997 25.55,9.27499999 26.425,10.15 L27.65,9.975 L29.4,12.95 L28.525,14 C28.7,14.525 28.7,15.225 28.7,15.925 C28.6999999,16.625 28.7,17.15 28.525,17.85 L29.4,18.9 L27.65,21.875 L26.425,21.525 L26.425,21.525 Z M26.25,30.45 L26.25,35 L22.75,35 L22.75,27.825 C27.65,26.95 31.5,22.75 31.5,17.5 L35,17.5 C35,23.45 31.325,28.35 26.25,30.45 L26.25,30.45 Z M15.75,30.45 C10.675,28.35 7.00000001,23.275 7.00000001,17.5 L10.5,17.5 C10.5,22.75 14.35,26.95 19.25,27.825 L19.25,35 L15.75,35 L15.75,30.45 L15.75,30.45 Z M21,21 C23.975,21 26.25,18.725 26.25,15.75 C26.25,12.775 23.975,10.5 21,10.5 C18.025,10.5 15.75,12.775 15.75,15.75 C15.75,18.725 18.025,21 21,21 Z M21,17.5 C19.95,17.5 19.25,16.8 19.25,15.75 C19.25,14.7 19.95,14 21,14 C22.05,14 22.75,14.7 22.75,15.75 C22.75,16.8 22.05,17.5 21,17.5 L21,17.5 Z" id="形状" fill="#444444" fill-rule="nonzero"></path>
                            </g>
                        </g>
                    </g>
                </g>
            </g>
        </g>
    </g>
</svg>