<?xml version="1.0" encoding="UTF-8"?>
<svg width="80px" height="80px" viewBox="0 0 80 80" version="1.1" xmlns="http://www.w3.org/2000/svg" xmlns:xlink="http://www.w3.org/1999/xlink">
    <title>云下载</title>
    <defs>
        <linearGradient x1="21.8208313%" y1="22.6007758%" x2="67.5860596%" y2="77.3992242%" id="linearGradient-1">
            <stop stop-color="#FFC4DF" offset="0%"></stop>
            <stop stop-color="#4969EB" offset="100%"></stop>
        </linearGradient>
    </defs>
    <g id="页面-1" stroke="none" stroke-width="1" fill="none" fill-rule="evenodd">
        <g id="东云官网-解决方案-Tiktok" transform="translate(-462.000000, -735.000000)" fill-rule="nonzero">
            <g id="需求" transform="translate(361.000000, 600.000000)">
                <g id="编组-19" transform="translate(0.000000, 75.000000)">
                    <g id="云下载" transform="translate(101.000000, 60.000000)">
                        <rect id="矩形" fill="#000000" opacity="0" x="0" y="0" width="80" height="80"></rect>
                        <path d="M80,58.7034248 C80,60.0499637 79.7733333,61.3157102 79.32,62.5006644 C78.8666667,63.6856186 78.24,64.7628497 77.44,65.7323577 C76.64,66.7018657 75.6933333,67.4963236 74.6,68.1157315 C73.5066667,68.7351393 72.32,69.1525664 71.04,69.3680126 L71.04,69.5295973 L69.36,69.5295973 L69.28,69.5295973 L17.36,69.5295973 C17.2533333,69.5295973 17.1866667,69.5430627 17.16,69.5699934 C17.1333333,69.5969242 17.0666667,69.6103896 16.96,69.6103896 C16.8533333,69.6103896 16.7733333,69.5969242 16.72,69.5699934 C16.6666667,69.5430627 16.5866667,69.5295973 16.48,69.5295973 L16,69.5295973 L16,69.4488049 C13.76,69.3410818 11.6666667,68.8293971 9.72,67.9137506 C7.77333333,66.9981042 6.08,65.7727538 4.64,64.2376995 C3.2,62.7026452 2.06666667,60.9252139 1.24,58.9054056 C0.413333333,56.8855973 0,54.7446006 0,52.4824153 C0,50.22023 0.413333333,48.0926986 1.24,46.0998211 C2.06666667,44.1069435 3.18666667,42.356443 4.6,40.8483195 C6.01333333,39.340196 7.66666667,38.1013802 9.56,37.1318722 C11.4533333,36.1623642 13.4933333,35.5968179 15.68,35.4352333 C16.0533333,31.9342322 17.0133333,28.6621428 18.56,25.6189649 C20.1066667,22.5757871 22.0933333,19.9231055 24.52,17.6609203 C26.9466667,15.398735 29.7333333,13.6213037 32.88,12.3286264 C36.0266667,11.035949 39.3866667,10.3896104 42.96,10.3896104 C46.7466667,10.3896104 50.32,11.1167414 53.68,12.5710033 C57.04,14.0252653 59.96,16.0181428 62.44,18.5496359 C64.92,21.081129 66.88,24.0300491 68.32,27.3963962 C69.76,30.7627434 70.48,34.3580022 70.48,38.1821725 C70.48,39.9057423 70.32,41.5889159 70,43.2316933 C69.68,44.8744707 69.2266667,46.4499212 68.64,47.9580447 C68.7466667,47.9580447 68.8666667,47.9445793 69,47.9176485 C69.1333333,47.8907177 69.2533333,47.8772524 69.36,47.8772524 C70.8533333,47.8772524 72.24,48.1600255 73.52,48.7255718 C74.8,49.2911182 75.92,50.0586453 76.88,51.0281533 C77.84,51.9976613 78.6,53.1422193 79.16,54.4618274 C79.72,55.7814355 80,57.1953013 80,58.7034248 Z M53.68,46.7461597 C54.32,45.6689286 54.5066667,45.0495207 54.24,44.8879361 C53.9733333,44.7263514 53.3066667,44.6455591 52.24,44.6455591 C51.6,44.6455591 50.7066667,44.6320937 49.56,44.6051629 C48.4133333,44.5782321 47.5466667,44.5647667 46.96,44.5647667 C46.1066667,44.5647667 45.56,44.2146666 45.32,43.5144664 C45.08,42.8142662 44.96,41.8447582 44.96,40.6059425 C44.96,38.8823727 44.9466667,37.4954377 44.92,36.4451374 C44.8933333,35.3948371 44.88,34.2502791 44.88,33.0114633 C44.88,31.6110629 44.7866667,30.5876933 44.6,29.9413547 C44.4133333,29.295016 43.6533333,28.9718467 42.32,28.9718467 C41.36,28.9718467 40.64,28.9853121 40.16,29.0122429 C39.68,29.0391737 39.0133333,29.052639 38.16,29.052639 C36.72,29.052639 35.8266667,29.4700661 35.48,30.3049202 C35.1333333,31.1397743 34.96,31.961163 34.96,32.7690863 L34.96,35.3544409 C34.96,36.0546411 34.9733333,36.7279106 35,37.3742492 C35.0266667,38.0205879 35.04,38.6938573 35.04,39.3940575 L35.04,41.7370351 C35.04,42.59882 34.9333333,43.258624 34.72,43.7164473 C34.5066667,44.1742705 34,44.4031821 33.2,44.4031821 C32.88,44.4570436 32.44,44.4974398 31.88,44.5243706 C31.32,44.5513014 30.7466667,44.5782321 30.16,44.6051629 C29.5733333,44.6320937 29.0133333,44.6455591 28.48,44.6455591 L27.2,44.6455591 C26.08,44.6455591 25.4133333,44.9956592 25.2,45.6958594 C24.9866667,46.3960596 25.3333333,47.2847753 26.24,48.3620063 C27.1466667,49.493099 28.12,50.7184494 29.16,52.0380574 C30.2,53.3576655 31.2266667,54.690739 32.24,56.0372779 C33.2533333,57.3838167 34.2266667,58.6899594 35.16,59.955706 C36.0933333,61.2214525 36.96,62.312149 37.76,63.2277954 C39.2,64.843642 40.5866667,64.8167113 41.92,63.1470031 C42.72,62.2313566 43.6533333,61.0464024 44.72,59.5921405 C45.7866667,58.1378785 46.88,56.6162896 48,55.0273737 C49.12,53.4384579 50.1866667,51.9034036 51.2,50.4222108 C52.2133333,48.9410181 53.04,47.7156677 53.68,46.7461597 L53.68,46.7461597 Z" id="形状" fill="url(#linearGradient-1)"></path>
                    </g>
                </g>
            </g>
        </g>
    </g>
</svg>