<?xml version="1.0" encoding="UTF-8"?>
<svg width="80px" height="80px" viewBox="0 0 80 80" version="1.1" xmlns="http://www.w3.org/2000/svg" xmlns:xlink="http://www.w3.org/1999/xlink">
    <title>网络</title>
    <defs>
        <linearGradient x1="24.9640319%" y1="0%" x2="84.1052801%" y2="100%" id="linearGradient-1">
            <stop stop-color="#FCC3E0" offset="0%"></stop>
            <stop stop-color="#4C6BEB" offset="100%"></stop>
        </linearGradient>
        <path d="M42.3153693,-4.4408921e-15 C47.4783766,-4.4408921e-15 52.3353294,0.984697266 56.8862276,2.9540918 C61.4371258,4.92348633 65.4025283,7.59813703 68.7824352,10.9780439 C72.162342,14.3579508 74.8369927,18.3233533 76.8063873,22.8742515 C78.7757818,27.4251497 79.7604791,32.2821024 79.7604791,37.4451098 C79.7604791,42.661344 78.7757818,47.5449102 76.8063873,52.0958084 C74.8369927,56.6467065 72.162342,60.6121091 68.7824352,63.9920159 C65.4025283,67.3719228 61.4371258,70.0465735 56.8862276,72.015968 C52.3353294,73.9853626 47.4783766,74.9700598 42.3153693,74.9700598 C37.152362,74.9700598 32.2954092,73.9853626 27.744511,72.015968 C23.1936128,70.0465735 19.2282103,67.3719228 15.8483034,63.9920159 C12.4683966,60.6121091 9.79374586,56.6467065 7.82435133,52.0958084 C5.8549568,47.5449102 4.87025953,42.661344 4.87025953,37.4451098 C4.87025953,32.2821024 5.8549568,27.4251497 7.82435133,22.8742515 C9.79374586,18.3233533 12.4683966,14.3579508 15.8483034,10.9780439 C19.2282103,7.59813703 23.1936128,4.92348633 27.744511,2.9540918 C32.2954092,0.984697266 37.152362,-4.4408921e-15 42.3153693,-4.4408921e-15 Z M52.5349302,47.8243513 C52.6946108,47.6114438 52.6147705,47.3453094 52.2954092,47.0259481 C51.976048,46.7065868 51.6034598,46.3473054 51.1776448,45.9481038 C50.7518297,45.5489023 50.3792416,45.136394 50.0598803,44.7105789 C49.7405191,44.2847639 49.6340653,43.8855623 49.7405191,43.5129741 C50.0066534,42.6613441 50.0998005,42.0359283 50.0199602,41.6367266 C49.9401198,41.237525 49.6872922,40.9713906 49.2614771,40.8383234 C48.8356621,40.7052562 48.2235529,40.6520294 47.4251498,40.6786428 C46.6267466,40.7052562 45.6686628,40.718563 44.5508983,40.718563 C43.9654026,40.718563 43.4863607,40.7451764 43.1137725,40.7984033 C42.7411843,40.8516302 42.3952096,40.8915503 42.0758484,40.9181638 C41.7564871,40.9447772 41.4105124,40.9713906 41.0379242,40.9980041 C40.665336,41.0246175 40.239521,41.0113108 39.7604791,40.9580839 C39.0153028,40.904857 38.4431139,40.7717898 38.0439123,40.5588823 C37.6447107,40.3459748 37.2721225,40.1330673 36.9261478,39.9201598 C36.5801731,39.7072522 36.1410514,39.5209581 35.6087826,39.3612775 C35.0765138,39.2015969 34.304724,39.0951431 33.2934133,39.0419162 C31.8562876,38.9886894 30.8316701,38.9221558 30.219561,38.8423155 C29.6074519,38.7624752 29.1683302,38.6826348 28.9021958,38.6027945 C28.6360614,38.5229542 28.4231539,38.4697273 28.2634732,38.4431139 C28.1037925,38.4165005 27.7844312,38.4031937 27.3053894,38.4031937 C26.8263474,38.4564206 26.0944779,38.6959416 25.1097806,39.1217566 C24.1250834,39.5475717 23.1270794,40.0399203 22.1157687,40.5988026 C21.1044579,41.1576848 20.2262144,41.7298738 19.4810381,42.3153695 C18.7358618,42.9008651 18.3632737,43.3799071 18.3632737,43.7524952 C18.3632737,44.8170328 18.4298073,45.6686629 18.5628745,46.3073855 C18.6959416,46.946108 18.8822357,47.4384567 19.1217567,47.7844314 C19.3612777,48.1304061 19.6141054,48.4098473 19.8802398,48.6227548 C20.1463741,48.8356623 20.4125085,49.0751832 20.678643,49.3413177 C20.9447774,49.6074521 21.3040588,49.7937462 21.7564873,49.9001999 C22.2089157,50.0066537 22.7012643,50.0731873 23.2335332,50.0998007 C23.7658021,50.1264141 24.2581507,50.1929477 24.7105791,50.2994015 C25.1630076,50.4058552 25.522289,50.5921493 25.7884234,50.8582837 C26.3206922,51.4970063 26.8795745,51.7631407 27.4650702,51.656687 C28.0505658,51.5502332 28.5695279,51.3772458 29.0219564,51.1377248 C29.4743849,50.8982039 29.846973,50.8050568 30.1397209,50.8582837 C30.4324687,50.9115107 30.605456,51.417166 30.658683,52.3752498 C30.658683,52.8010649 30.7385233,53.1204262 30.8982039,53.3333337 C31.0578845,53.5462412 31.2707921,53.7059218 31.5369265,53.8123756 L32.4950103,54.2914176 C32.8675985,54.5043251 33.2668001,54.7970729 33.6926151,55.1696611 C34.1184301,55.5954761 34.264804,55.9946777 34.1317368,56.3672659 C33.9986696,56.739854 33.7990687,57.0991354 33.5329344,57.4451102 C33.2668,57.7910849 33.0139723,58.163673 32.7744513,58.5628746 C32.5349303,58.9620762 32.5482371,59.347971 32.8143715,59.7205592 C33.1869597,60.3060549 33.5861612,60.7318699 34.0119762,60.9980043 C34.4377912,61.2641387 34.8502996,61.4903529 35.2495012,61.676647 C35.6487028,61.8629411 36.0079842,62.0758487 36.3273455,62.3153696 C36.6467067,62.5548905 36.8596142,62.9407854 36.966068,63.4730542 C36.966068,63.6327348 37.1523621,63.9387894 37.5249503,64.3912179 C37.8975385,64.8436464 38.2568199,65.3093816 38.6027946,65.7884235 C38.9487693,66.2674654 39.2282104,66.666667 39.441118,66.9860283 C39.6540255,67.3053895 39.6007986,67.4384567 39.2814373,67.3852298 C39.9201599,67.4916836 40.5988026,67.5449105 41.3173655,67.5449105 C42.0359283,67.5449105 42.5016635,67.4118433 42.7145711,67.1457089 L42.8742517,66.9860283 L42.8742517,66.906188 L43.1137727,66.8263477 C43.2202264,66.7731208 43.3666003,66.7065872 43.5528944,66.6267469 C43.7391884,66.5469066 43.9920161,66.3739192 44.3113774,66.1077848 C44.9501,65.6819697 45.5622091,65.1230875 46.1477048,64.431138 C46.7332004,63.7391886 47.2388558,62.9807056 47.6646709,62.1556889 C48.0904859,61.3306722 48.4497673,60.4923489 48.7425152,59.6407188 C49.035263,58.7890888 49.2348638,57.9906856 49.3413176,57.2455092 C49.4477713,56.5535598 49.6207587,56.0479044 49.8602797,55.7285431 C50.0998007,55.4091818 50.3127082,55.1297407 50.4990023,54.8902198 C50.6852963,54.6506988 50.844977,54.3313376 50.9780442,53.9321359 C51.1111115,53.5329343 51.0978047,52.8542916 50.9381241,51.8962078 C50.7784434,50.6719896 50.9248173,49.7804393 51.3772458,49.2215571 C51.8296742,48.6626749 52.2155691,48.1969397 52.5349304,47.8243515 L52.5349302,47.8243513 Z M60.4391217,60.3592814 C61.184298,59.4544245 61.5701929,58.7092482 61.5968063,58.1237525 C61.6234198,57.5382568 60.9980039,57.0858284 59.7205588,56.7664671 C58.3898868,56.4471058 57.4451097,56.2741184 56.8862275,56.247505 C56.3273453,56.2208916 55.8083832,56.5003327 55.3293412,57.0858284 C54.8502993,57.671324 54.5043246,58.2701264 54.2914171,58.8822355 C54.0785096,59.4943447 54.1317365,60.332668 54.4510977,61.3972056 C54.6107784,61.8762476 54.7438455,62.2621424 54.8502993,62.5548902 C54.956753,62.847638 55.0898202,63.0339321 55.2495009,63.1137725 C55.4091815,63.1936129 55.6487024,63.2202263 55.9680637,63.1936128 C56.2874251,63.1669993 56.7398535,63.0738523 57.3253491,62.9141717 C57.9640717,62.7544911 58.5761808,62.3819029 59.1616765,61.7964073 C59.7471722,61.2109116 60.1729872,60.7318697 60.4391216,60.3592815 L60.4391217,60.3592814 Z M62.5948104,37.0459082 C62.9673986,36.67332 63.5928144,36.3938789 64.4710579,36.2075848 C65.3493014,36.0212908 66.2408516,35.7817698 67.1457086,35.489022 C68.0505656,35.1962741 68.8489688,34.7837658 69.5409182,34.251497 C70.2328676,33.7192283 70.6054558,32.974052 70.6586827,32.0159681 C70.7119095,31.0578843 70.7119095,30.1796408 70.6586827,29.3812376 C70.6054558,28.5828344 70.4457751,27.7844312 70.1796407,26.986028 C69.9135063,26.1876247 69.5542248,25.3493014 69.1017964,24.4710579 C68.649368,23.5928144 68.077179,22.5948104 67.3852295,21.4770459 C66.6400532,20.3060546 65.9614105,19.3213573 65.3493014,18.5229541 C64.7371923,17.724551 64.1383899,17.0459083 63.5528942,16.487026 C62.9673985,15.9281438 62.3552894,15.4224884 61.7165669,14.9700599 C61.0778443,14.5176314 60.3592815,14.0518962 59.5608783,13.5728543 C58.7092482,13.0938124 57.8709249,12.5748503 57.0459082,12.015968 C56.2208915,11.4570858 55.3293413,11.0844977 54.3712575,10.8982036 C53.4131737,10.7119095 52.3752496,10.83167 51.2574851,11.257485 C50.1397206,11.6833 48.8622755,12.6147704 47.4251498,14.0518962 L46.0678644,15.489022 C45.4823687,16.0212908 44.8702596,16.5269461 44.231537,17.005988 C43.5928145,17.48503 42.9807054,17.8975383 42.3952097,18.243513 C41.809714,18.5894877 41.2774452,18.762475 40.7984033,18.7624751 C40.3725882,18.7624751 39.7072522,18.815702 38.8023953,18.9221557 C37.8975384,19.0286095 36.9793747,19.2947439 36.0479043,19.7205589 C35.1164339,20.146374 34.3180307,20.7451764 33.6526947,21.5169661 C32.9873587,22.2887558 32.7079176,23.3133733 32.8143713,24.5908184 C32.8675982,26.0279441 33.1204259,26.9594145 33.5728544,27.3852295 C34.0252829,27.8110446 34.6107785,28.0505655 35.3293414,28.1037924 C36.0479043,28.1570193 36.8995343,28.2102462 37.8842316,28.263473 C38.8689289,28.3166999 39.9201598,28.6626746 41.0379242,29.3013972 C42.3685962,29.6207585 43.6194279,29.9401198 44.7904192,30.259481 C45.8017299,30.5256154 46.8263474,30.8582834 47.8642715,31.257485 C48.9021956,31.6566866 49.7671324,32.0691949 50.4590819,32.4950099 C51.2574851,32.9740518 51.5768463,33.5994677 51.4171657,34.3712574 C51.2574851,35.1430472 50.978044,35.9281436 50.5788423,36.7265469 C50.1796407,37.5249501 49.8469727,38.2967399 49.5808384,39.0419162 C49.314704,39.7870925 49.4743846,40.3725882 50.0598803,40.7984032 C50.8582835,41.3838989 51.4437792,41.756487 51.8163673,41.9161677 C52.1889555,42.0758483 52.5881571,42.1157684 53.0139721,42.0359281 C53.4397871,41.9560878 54.0252828,41.8363273 54.7704591,41.6766467 C55.5156355,41.5169661 56.6600134,41.4371258 58.2035929,41.4371258 C57.7777778,41.4371258 57.6979375,41.2774451 57.964072,40.9580838 C58.2302064,40.6387225 58.6427147,40.2395209 59.2015969,39.7604791 C59.7604791,39.2814372 60.3592815,38.7890885 60.9980041,38.2834331 C61.6367267,37.7777777 62.1689955,37.3652694 62.5948105,37.0459082 L62.5948104,37.0459082 Z" id="path-2"></path>
    </defs>
    <g id="页面-1" stroke="none" stroke-width="1" fill="none" fill-rule="evenodd">
        <g id="东云官网-解决方案-Tiktok" transform="translate(-842.000000, -735.000000)" fill-rule="nonzero">
            <g id="需求" transform="translate(361.000000, 600.000000)">
                <g id="编组-14" transform="translate(408.000000, 75.000000)">
                    <g id="网络" transform="translate(73.000000, 60.000000)">
                        <rect id="矩形" fill="#000000" opacity="0" x="0" y="0" width="80" height="80"></rect>
                        <g id="形状">
                            <use fill="#000000" xlink:href="#path-2"></use>
                            <use fill="url(#linearGradient-1)" xlink:href="#path-2"></use>
                        </g>
                    </g>
                </g>
            </g>
        </g>
    </g>
</svg>