<?xml version="1.0" encoding="UTF-8"?>
<svg width="80px" height="80px" viewBox="0 0 80 80" version="1.1" xmlns="http://www.w3.org/2000/svg" xmlns:xlink="http://www.w3.org/1999/xlink">
    <title>团队、组织架构、社群-09</title>
    <defs>
        <linearGradient x1="0%" y1="11.7009323%" x2="82.3811439%" y2="88.2990677%" id="linearGradient-1">
            <stop stop-color="#F3C3E4" offset="0%"></stop>
            <stop stop-color="#6075EA" offset="100%"></stop>
        </linearGradient>
        <linearGradient x1="34.7291127%" y1="32.5380111%" x2="66.0688703%" y2="56.8321581%" id="linearGradient-2">
            <stop stop-color="#EFBDE1" offset="0%"></stop>
            <stop stop-color="#5D73E9" offset="100%"></stop>
        </linearGradient>
        <path d="M40,72.6666666 C19.0666666,72.6666666 2.66666664,63.7333333 2.66666664,52.4 C2.66666664,50.4 3.2,48.2666666 4.26666664,46.4 C4.93333328,45.0666666 6.53333328,44.6666666 7.86666664,45.3333334 C9.2,46 9.6,47.6 8.93333336,48.9333334 C8.26666672,50.1333334 8,51.2 8,52.4 C8,59.7333334 20.9333334,67.4666666 40.1333334,67.4666666 C59.3333334,67.4666666 72.2666667,59.7333333 72.2666666,52.4 C72.2666666,51.4666666 72,50.4 71.6,49.4666666 C71.0666666,48.1333333 71.6,46.5333333 72.9333334,46 C74.2666667,45.4666666 75.8666667,46 76.4,47.3333334 C77.2,48.9333334 77.4666666,50.6666667 77.4666666,52.4 C77.3333334,63.7333334 60.9333334,72.6666666 40,72.6666666 Z" id="path-3"></path>
    </defs>
    <g id="页面-1" stroke="none" stroke-width="1" fill="none" fill-rule="evenodd">
        <g id="东云官网-解决方案-Tiktok" transform="translate(-1272.000000, -735.000000)" fill-rule="nonzero">
            <g id="需求" transform="translate(361.000000, 600.000000)">
                <g id="编组-16" transform="translate(816.000000, 75.000000)">
                    <g id="团队、组织架构、社群-09" transform="translate(95.000000, 60.000000)">
                        <rect id="矩形" fill="#000000" opacity="0" x="0" y="0" width="80" height="80"></rect>
                        <path d="M42.9333334,27.8666666 L36.9333334,27.8666666 C32,27.8666666 27.8666666,32 27.8666666,36.9333334 L27.8666666,46.6666666 C27.8666666,48.1333333 28.9333333,49.4666666 30.4,49.7333334 L31.8666666,50 L32.4,59.6 C32.5333334,61.2 33.8666666,62.5333334 35.4666666,62.5333334 L44.4,62.5333334 C46,62.5333334 47.3333334,61.2 47.4666666,59.6 L48,50 L49.3333334,49.7333334 C50.9333334,49.3333334 52,48 52,46.5333334 L52,36.8 C52,31.8666666 48,27.8666666 42.9333334,27.8666666 L42.9333334,27.8666666 Z M40,25.4666666 C44.9333334,25.4666666 49.0666666,21.4666666 49.0666666,16.4 C49.0666666,11.4666666 45.0666666,7.33333336 40,7.33333336 C35.0666666,7.33333336 30.9333334,11.3333334 30.9333334,16.4 C30.9333334,21.3333334 35.0666667,25.3333334 40,25.4666666 L40,25.4666666 Z M64.9333334,27.7333334 L60.9333334,27.7333334 C57.2,27.7333334 54.2666666,30.8 54.2666666,34.4 L54.2666666,40.8 C54.2666666,42.1333334 55.2,43.2 56.4,43.4666666 L56.8,43.6 L57.2,49.4666666 C57.3333334,50.9333333 58.5333334,52 59.8666666,52 L65.8666666,52 C67.3333333,52 68.5333333,50.9333334 68.5333334,49.4666666 L68.9333334,43.6 L69.3333334,43.4666666 C70.5333334,43.2 71.4666667,42.1333333 71.4666666,40.8 L71.4666666,34.4 C71.6,30.8 68.6666666,27.7333334 64.9333334,27.7333334 L64.9333334,27.7333334 Z M62.9333334,27.2 C66.6666667,27.2 69.6,24.1333334 69.6,20.5333334 C69.6,16.8 66.5333334,13.8666666 62.9333334,13.8666666 C59.2,13.8666666 56.2666666,16.9333333 56.2666666,20.5333334 C56.2666666,24.2666667 59.3333333,27.2 62.9333334,27.2 Z M19.0666666,27.7333334 L15.0666666,27.7333334 C11.3333333,27.7333334 8.4,30.8 8.4,34.4 L8.4,40.8 C8.4,42.1333334 9.33333336,43.2 10.5333334,43.4666666 L10.9333334,43.6 L11.3333334,49.4666666 C11.4666667,50.9333333 12.6666667,52 14,52 L20,52 C21.4666666,52 22.6666666,50.9333334 22.6666666,49.4666666 L23.0666666,43.6 L23.4666666,43.4666666 C24.6666666,43.2 25.6,42.1333333 25.6,40.8 L25.6,34.4 C25.7333334,30.8 22.6666666,27.7333334 19.0666666,27.7333334 Z M17.0666666,27.2 C20.8,27.2 23.7333334,24.1333334 23.7333334,20.5333334 C23.7333334,16.8 20.6666667,13.8666666 17.0666666,13.8666666 C13.3333333,13.8666666 10.4,16.9333333 10.4,20.5333334 C10.4,24.2666667 13.3333334,27.2 17.0666666,27.2 Z" id="形状" fill="url(#linearGradient-1)"></path>
                        <g id="路径">
                            <use fill="#4162EB" xlink:href="#path-3"></use>
                            <use fill="url(#linearGradient-2)" xlink:href="#path-3"></use>
                        </g>
                    </g>
                </g>
            </g>
        </g>
    </g>
</svg>