<?xml version="1.0" encoding="UTF-8"?>
<svg width="140px" height="167px" viewBox="0 0 140 167" version="1.1" xmlns="http://www.w3.org/2000/svg" xmlns:xlink="http://www.w3.org/1999/xlink">
    <title>2.人物组件/7.设计师/站立/打电话</title>
    <defs>
        <polygon id="path-1" points="0.394649707 0.0856789892 53.3469727 0.0856789892 53.3469727 42.278307 0.394649707 42.278307"></polygon>
        <polygon id="path-3" points="0 0.927396799 37.1860534 0.927396799 37.1860534 67.3251255 0 67.3251255"></polygon>
    </defs>
    <g id="页面-1" stroke="none" stroke-width="1" fill="none" fill-rule="evenodd">
        <g id="东云官网-联系我们" transform="translate(-451.000000, -633.000000)">
            <g id="联系" transform="translate(360.000000, 525.000000)">
                <g id="编组-19" transform="translate(0.000000, 75.000000)">
                    <g id="2.人物组件/7.设计师/站立/打电话" transform="translate(0.000000, -115.000000)">
                        <path d="M117.123381,180.238462 C117.123381,180.238462 107.156789,178.792292 104.522929,189.32773 C94.8657596,192.838913 97.4996189,203.374351 97.4996189,203.374351 C97.4996189,203.374351 92.6498084,211.649499 102.285281,215.8899 C103.055062,224.368814 112.690535,222.827365 112.690535,222.827365 C112.690535,222.827365 115.003652,229.378996 122.326008,226.680988 C130.227586,232.826031 145.11757,231.59306 150.405099,224.080146 C160.887709,231.906255 179.130392,222.353798 176.841803,215.209738 C189.085664,214.468257 195.021281,201.482915 187.847033,190.452214 C193.358138,181.727083 187.076308,176.577285 187.076308,176.577285 C187.076308,176.577285 188.810203,156.535615 174.935273,153.837607 C167.805363,143.045576 152.388984,151.717878 152.388984,151.717878 C152.388984,151.717878 142.175232,149.59815 138.514054,158.462898 C127.101293,160.21849 127.637121,166.491829 126.758853,171.759548 C116.545101,172.337828 117.123381,180.238462 117.123381,180.238462" id="Fill-1" fill="#253368"></path>
                        <path d="M93.6821266,248.627866 L93.4859078,248.299577 C90.751109,243.733718 92.2350133,237.815081 96.8008727,235.080282 L141.296304,208.429437 C145.862164,205.694638 151.7808,207.179485 154.515599,211.745345 L154.711818,212.073634 C157.446617,216.639493 155.962713,222.55813 151.396853,225.292929 L106.901421,251.943774 C102.335562,254.678573 96.4169254,253.193726 93.6821266,248.627866" id="Fill-3" fill="#FFC999"></path>
                        <path d="M128.721418,237.848287 L150.452645,225.293117 C154.999637,222.569639 156.447694,216.546289 153.6695,211.909678 C150.89225,207.272123 144.899088,205.706147 140.352096,208.429625 L119.257637,220.376328 L128.721418,237.848287 Z" id="Fill-5" fill="#597EF7"></path>
                        <path d="M119.482743,220.859457 C119.601208,220.792499 119.747543,220.820664 119.833541,220.919452 L119.866446,220.966042 L129.190551,237.462422 L150.458527,225.292104 C150.576633,225.224513 150.723116,225.251896 150.809641,225.350223 L150.842794,225.396637 C150.910385,225.514743 150.883002,225.661227 150.784675,225.747751 L150.738261,225.780905 L129.22495,238.092688 C129.104516,238.161611 128.954673,238.131755 128.868912,238.028822 L128.839939,237.986847 L119.376157,221.243161 C119.299633,221.107772 119.347353,220.935981 119.482743,220.859457 Z" id="Stroke-7" fill="#1D39C4" fill-rule="nonzero"></path>
                        <path d="M142.428241,502.134001 L142.428241,502.134001 C138.223688,502.23211 134.691751,498.994501 134.425724,494.797495 L128.73821,405.027417 C128.328792,398.560688 133.379538,393.05147 139.857587,392.898646 C146.335636,392.745821 151.640146,398.011653 151.535433,404.491589 L150.076056,494.429585 C150.008134,498.634138 146.632794,502.034948 142.428241,502.134001" id="Fill-9" fill="#FFC999"></path>
                        <path d="M137.884173,309.049846 L137.884173,309.049846 C130.251453,309.229084 124.263007,315.657135 124.623371,323.284195 L128.506238,405.279105 C128.804339,411.594896 134.089039,416.517346 140.409546,416.368295 C146.730054,416.219244 151.77797,411.053408 151.778914,404.731957 L151.798725,322.644597 C151.800611,315.009047 145.516894,308.870607 137.884173,309.049846" id="Fill-11" fill="#FFC999"></path>
                        <polygon id="Fill-13" fill="#597EF7" points="134.604113 506.364402 149.374291 506.555904 150.508209 483.204929 133.551324 482.985126"></polygon>
                        <path d="M133.679393,487.163494 L149.333499,487.366317 C149.601272,487.369786 149.815532,487.589672 149.812105,487.857445 C149.808883,488.102903 149.623853,488.303396 149.386783,488.332435 L149.320935,488.336009 L133.66683,488.133186 C133.399057,488.129717 133.184796,487.909832 133.188224,487.642059 C133.191446,487.3966 133.376476,487.196107 133.613545,487.167068 L133.679393,487.163494 Z" id="Stroke-15" fill="#DFE5F1" fill-rule="nonzero"></path>
                        <path d="M133.144359,505.424721 L149.38146,505.636034 L149.817292,535.390532 L113.229099,534.916022 L113.198891,530.348276 C113.193251,528.669096 114.392261,527.227643 116.044083,526.926712 L125.793702,524.19663 L130.820864,521.421266 C132.334956,520.584507 133.266052,518.988343 133.242468,517.258221 C133.19247,513.541386 133.116058,507.235028 133.144359,505.424721" id="Fill-17" fill="#4E5C93"></path>
                        <path d="M149.451363,536.355683 L112.974486,535.88306 C112.628273,535.878343 112.351869,535.594392 112.356526,535.248179 L112.409414,531.157773 C112.414131,530.81156 112.698082,530.535156 113.044295,530.538891 L149.521172,531.012496 C149.866441,531.017212 150.142846,531.301163 150.13911,531.647376 L150.085301,535.737783 C150.081527,536.083052 149.797576,536.3604 149.451363,536.355683" id="Fill-19" fill="#E4EBF7"></path>
                        <path d="M113.044106,530.539401 L113.044106,530.539401 C113.077124,527.9612 114.976106,525.7877 117.52695,525.410356 L125.794551,524.183045 L126.256797,530.62053 L113.044106,530.539401 Z" id="Fill-21" fill="#E4EBF7"></path>
                        <path d="M113.047327,530.291318 L149.524204,530.779666 C149.661216,530.7815 149.770844,530.897525 149.769087,531.038813 C149.767509,531.162441 149.681172,531.264449 149.567825,531.28679 L149.517762,531.291318 L113.040885,530.80297 C112.903873,530.801136 112.794245,530.685112 112.796002,530.543823 C112.79758,530.420195 112.883917,530.318188 112.997264,530.295846 L113.047327,530.291318 Z" id="Stroke-23" fill="#96A7CA" fill-rule="nonzero"></path>
                        <path d="M132.923189,516.130326 C132.983165,515.862922 133.248559,515.694768 133.515963,515.754744 L133.670567,515.792817 C133.846342,515.839289 134.083804,515.911309 134.366527,516.01203 C134.992138,516.234906 135.617969,516.52393 136.205331,516.888201 C136.849752,517.287859 137.408878,517.755208 137.856121,518.297717 C138.124898,518.623747 137.889205,519.115091 137.466705,519.109521 C137.05102,519.104041 136.42261,519.179067 135.6447,519.319024 L135.447144,519.355357 C135.150145,519.411126 134.838748,519.4746 134.517258,519.544337 L134.073989,519.642955 L133.673395,519.735672 L133.780118,519.825902 C134.165792,520.160028 134.54843,520.538199 134.915368,520.960648 L135.133544,521.219432 C135.262237,521.376719 135.387193,521.538115 135.508047,521.703628 C135.764367,522.054666 135.477495,522.542234 135.04615,522.488669 C134.501128,522.420986 133.853407,522.413084 133.126117,522.458238 C132.483654,522.498125 131.801766,522.577625 131.104935,522.686861 L130.655902,522.760711 L130.773056,522.836133 L130.923717,522.939668 L131.074806,523.051023 C131.514289,523.386322 131.899424,523.793417 132.213507,524.278239 C132.362508,524.50824 132.296846,524.815483 132.066844,524.964485 C131.836843,525.113487 131.529601,525.047824 131.380599,524.817823 C131.130653,524.432003 130.824248,524.108127 130.472843,523.840026 C130.117274,523.568748 129.73477,523.368151 129.352873,523.228596 C129.192075,523.169837 129.059602,523.131256 128.966046,523.108842 L128.873135,523.08945 C128.341171,523.000789 128.312622,522.246738 128.836359,522.118108 L129.10841,522.055013 C129.168741,522.041547 129.236269,522.026734 129.310549,522.010767 C129.680171,521.931314 130.086297,521.851937 130.516985,521.777845 C131.392007,521.627315 132.254108,521.518051 133.064621,521.467731 C133.358612,521.449478 133.64174,521.439283 133.913143,521.437684 L134.011117,521.438121 L133.963688,521.385106 C133.691484,521.089501 133.411641,520.819766 133.130528,520.576189 L132.919554,520.398416 C132.791111,520.293197 132.669946,520.199462 132.557882,520.117273 L132.363075,519.979555 C132.326621,519.954853 132.300074,519.937639 132.284371,519.927939 C131.913977,519.699151 131.996745,519.138319 132.417439,519.026281 L132.973541,518.884615 C133.400583,518.77891 133.851677,518.673218 134.30688,518.574478 C134.637,518.502869 134.957369,518.437567 135.263992,518.37999 C135.573834,518.321808 135.864085,518.272434 136.133123,518.232721 L136.347504,518.202398 L136.274538,518.143121 C136.151035,518.04669 136.021944,517.953588 135.887628,517.863795 L135.682278,517.731588 C135.159949,517.407649 134.596825,517.147585 134.03348,516.946892 C133.88571,516.894248 133.746137,516.848692 133.616895,516.809913 L133.298771,516.7231 C133.031367,516.663124 132.863213,516.39773 132.923189,516.130326 Z" id="Stroke-25" fill="#E4EBF7" fill-rule="nonzero"></path>
                        <path d="M133.46761,511.374459 C133.410597,511.374043 133.353931,511.383411 133.3001,511.402196 C132.380227,511.723202 132.107375,512.399722 132.494428,513.083237 C132.662136,513.379401 132.912962,513.628317 133.170933,513.826501 L133.294571,513.917358 L133.373406,513.988989 L133.851225,514.396417 C134.008595,514.52891 134.176522,514.668877 134.353876,514.81508 C135.198463,515.511326 136.084475,516.207634 136.970406,516.858329 C137.493678,517.242659 138.002171,517.599964 138.491279,517.925053 L138.931917,518.212614 C140.375857,519.136737 141.569933,519.714033 142.474303,519.863105 C143.905019,520.098937 144.655899,519.240038 144.39328,517.529225 C143.988312,514.888258 141.940475,513.178444 138.841982,512.211195 C137.750478,511.870463 136.588743,511.642921 135.416846,511.507126 C134.72886,511.427405 134.133449,511.389156 133.675187,511.377804 L133.46761,511.374459 Z M133.491107,512.387206 L133.545727,512.367406 L133.801956,512.374513 C134.208623,512.389227 134.719969,512.425429 135.302614,512.492944 C136.417059,512.622082 137.519552,512.83802 138.546257,513.158524 C141.321571,514.024887 143.076605,515.490229 143.412344,517.679723 C143.577744,518.757207 143.362278,519.003669 142.63571,518.883905 C141.820729,518.749567 140.572229,518.116542 139.040621,517.098549 C138.565174,516.78254 138.06923,516.434053 137.557877,516.058477 C136.688266,515.419769 135.816397,514.734575 134.98514,514.049319 L134.490611,513.637423 L133.907032,513.138336 L133.854141,513.097643 C133.672108,512.968312 133.458137,512.771066 133.357998,512.594225 L133.327061,512.536119 C133.298026,512.470846 133.324819,512.447743 133.491107,512.387206 Z" id="Stroke-27" fill="#E4EBF7" fill-rule="nonzero"></path>
                        <path d="M196.451697,500.824901 L196.451697,500.824901 C200.625119,500.30794 203.645755,497.531634 203.295769,493.341231 L195.800779,402.760807 C195.261177,396.303513 189.458574,391.591432 183.028636,392.386684 C176.597755,393.183823 172.119629,399.168495 173.170531,405.562585 L188.702943,495.264741 C189.384992,499.413636 192.278275,501.341862 196.451697,500.824901" id="Fill-29" fill="#FFC999"></path>
                        <path d="M172.724416,309.150219 L172.724416,309.150219 C180.301479,308.21252 187.165362,313.696268 187.922879,321.294084 L196.067844,402.974856 C196.695178,409.266119 192.186863,414.908352 185.911637,415.68568 C179.638297,416.462065 173.889465,412.089594 172.964029,405.835121 L160.945631,324.633576 C159.82775,317.080098 165.147354,310.087918 172.724416,309.150219" id="Fill-31" fill="#FFC999"></path>
                        <polygon id="Fill-33" fill="#597EF7" points="205.429271 503.420083 189.718564 503.751202 185.553632 480.412491 202.506743 480.032317"></polygon>
                        <path d="M202.39799,484.210485 C202.665717,484.20445 202.887646,484.416594 202.893806,484.684321 C202.899213,484.929738 202.721414,485.136671 202.485524,485.174104 L202.419844,485.180012 L186.767625,485.532828 C186.499898,485.538863 186.27797,485.326719 186.271809,485.058992 C186.266403,484.813575 186.444201,484.606642 186.680091,484.569209 L186.745771,484.563301 L202.39799,484.210485 Z" id="Stroke-35" fill="#DFE5F1" fill-rule="nonzero"></path>
                        <path d="M205.65313,502.466629 L189.418858,502.83171 L192.380063,532.589038 L228.961653,531.766428 L228.948446,527.199626 C228.938069,525.520446 227.725853,524.090313 226.0712,523.805419 L216.29611,521.167786 L211.242534,518.43959 C209.720896,517.617924 208.382269,515.942518 207.837007,514.301073 C206.829499,511.263456 205.698411,504.275993 205.65313,502.466629" id="Fill-37" fill="#4E5C93"></path>
                        <path d="M192.754671,533.550887 L229.225888,532.731108 C229.571158,532.723561 229.844732,532.436779 229.837338,532.090567 L229.744736,528.001104 C229.738132,527.654891 229.450408,527.380373 229.105138,527.388863 L192.634865,528.208643 C192.288652,528.21619 192.015078,528.502971 192.022472,528.849184 L192.11413,532.93959 C192.122621,533.28486 192.408459,533.558434 192.754671,533.550887" id="Fill-39" fill="#E4EBF7"></path>
                        <path d="M229.105327,527.388675 L229.105327,527.388675 C229.046839,524.811417 227.127102,522.655841 224.573429,522.301138 L216.29545,521.154013 L215.893579,527.595271 L229.105327,527.388675 Z" id="Fill-41" fill="#E4EBF7"></path>
                        <path d="M229.099745,527.140634 C229.236734,527.137551 229.350285,527.246104 229.353432,527.383093 C229.356065,527.502959 229.273292,527.604879 229.160784,527.630551 L229.110909,527.636716 L192.639692,528.457438 C192.502703,528.460521 192.389152,528.351968 192.386005,528.214979 C192.383372,528.095114 192.466145,527.993193 192.578653,527.967521 L192.628528,527.961357 L229.099745,527.140634 Z" id="Stroke-43" fill="#96A7CA" fill-rule="nonzero"></path>
                        <path d="M208.493977,512.799403 C208.7608,512.736891 209.027778,512.902517 209.09029,513.169339 C209.152803,513.436162 208.987176,513.703141 208.720354,513.765653 L208.529874,513.817341 C208.368631,513.864243 208.187945,513.923095 207.992819,513.994579 C207.434857,514.198987 206.877091,514.462251 206.359686,514.788462 C206.149643,514.920889 205.951161,515.060763 205.765495,515.20813 L205.685047,515.274211 L205.703838,515.276454 C205.962875,515.308909 206.243681,515.351051 206.544617,515.402036 L206.774068,515.441921 C207.088149,515.497844 207.416581,515.561677 207.755053,515.631936 C208.055626,515.694329 208.354073,515.759651 208.644609,515.825953 L209.441945,516.014904 C209.516505,516.033297 209.577261,516.048566 209.622664,516.060191 C210.044475,516.168193 210.132578,516.728319 209.764289,516.960596 L209.686949,517.012348 L209.602552,517.071875 C209.46382,517.171448 209.308106,517.291551 209.139656,517.432005 C208.793694,517.720467 208.447226,518.049585 208.112486,518.418705 L208.051621,518.486664 L208.156113,518.48583 C208.338016,518.485237 208.525209,518.488446 208.717431,518.495299 L209.009504,518.50829 C209.833745,518.551996 210.710841,518.655812 211.599672,518.801443 C211.914341,518.853001 212.215128,518.907319 212.497229,518.962359 L213.12331,519.092196 C213.167421,519.102018 213.204105,519.110411 213.232938,519.117197 C213.757756,519.240723 213.736706,519.994751 213.205814,520.088804 L213.114135,520.108894 C213.0218,520.13197 212.891017,520.171392 212.732243,520.231001 C212.355044,520.372613 211.977206,520.574396 211.625941,520.845563 C211.271849,521.118912 210.964093,521.448845 210.714654,521.841617 C210.567737,522.072955 210.2611,522.141392 210.029762,521.994475 C209.798424,521.847558 209.729986,521.540922 209.876903,521.309583 C210.190243,520.816193 210.576906,520.401667 211.019503,520.059994 C211.119011,519.983177 211.218504,519.911627 211.317455,519.845085 L211.420672,519.777809 L211.012693,519.714157 C210.446035,519.630017 209.888603,519.565178 209.353699,519.524866 L208.956954,519.499312 C208.225089,519.460504 207.573886,519.474431 207.026881,519.547702 C206.596042,519.605412 206.304503,519.12056 206.557501,518.767084 C206.682204,518.592855 206.81141,518.423102 206.944702,518.257819 C207.369858,517.730624 207.820867,517.26649 208.276195,516.865196 L208.372992,516.781699 L207.992214,516.69712 L207.55335,516.603637 C207.223663,516.535201 206.904368,516.473144 206.600104,516.418969 L206.209892,516.352552 C205.51776,516.24057 204.956502,516.183098 204.575145,516.191721 C204.152734,516.201273 203.912414,515.71221 204.17807,515.383654 C204.623668,514.83255 205.183559,514.35679 205.830407,513.948969 C206.412053,513.582255 207.031843,513.289716 207.651438,513.062729 C208.024817,512.925942 208.318521,512.840509 208.493977,512.799403 Z" id="Stroke-45" fill="#E4EBF7" fill-rule="nonzero"></path>
                        <path d="M208.723171,510.941412 C209.035125,510.710944 209.331048,510.424823 209.509501,510.081328 C209.862236,509.402365 209.568534,508.749695 208.668072,508.444863 C208.632556,508.432839 208.595848,508.4249 208.55866,508.421156 L208.486835,508.418905 L208.249935,508.425222 C207.865933,508.43941 207.355665,508.475649 206.755213,508.545325 C205.586002,508.681001 204.415981,508.908742 203.309913,509.250772 C200.124134,510.23591 198.020836,511.978484 197.633293,514.677124 C197.387431,516.387225 198.14318,517.239725 199.567864,516.993931 C200.558582,516.823007 201.894061,516.131527 203.523044,515.027809 C204.010024,514.697855 204.516293,514.335219 205.037271,513.945167 C205.919498,513.284649 206.801804,512.577837 207.642862,511.871092 L208.143408,511.446118 L208.723171,510.941412 Z M208.427078,509.412805 L208.486521,509.43711 C208.58232,509.478906 208.634516,509.515458 208.655313,509.539945 L208.664121,509.553135 C208.661675,509.547701 208.659608,509.564588 208.628841,509.623808 C208.55224,509.771254 208.38851,509.940044 208.220836,510.07574 L208.117724,510.154567 L207.790774,510.439186 C207.558036,510.641843 207.294154,510.867839 207.004412,511.11131 C206.176637,511.806894 205.308428,512.502413 204.442487,513.150738 C203.933417,513.531875 203.439691,513.885526 202.966376,514.20622 C201.448362,515.234752 200.209642,515.876133 199.399141,516.015965 C198.677731,516.140426 198.460725,515.895639 198.615619,514.818273 C198.937033,512.580113 200.744077,511.082985 203.6031,510.198889 C204.645241,509.876628 205.756945,509.660238 206.869606,509.531125 C207.498219,509.45818 208.020021,509.423916 208.385811,509.413729 L208.427078,509.412805 Z" id="Stroke-47" fill="#E4EBF7" fill-rule="nonzero"></path>
                        <path d="M148.791295,170.452429 C156.792869,171.857092 159.225793,165.801668 159.225793,165.801668 C159.225793,165.801668 162.52755,157.273699 163.3728,162.509344 C163.822783,165.29131 168.124502,161.599945 170.101783,164.565867 C171.432863,166.562015 168.105634,169.134556 172.429994,174.45699 C174.935556,177.540832 165.05198,180.001113 171.149855,185.68391 C171.149855,185.68391 166.814175,192.621375 174.261054,194.883551 L175.049703,203.018138 C175.509119,207.752859 171.784736,211.849869 167.028318,211.842332 C162.492646,211.835719 158.859769,208.083978 158.9975,203.551137 L159.298431,193.632656 C147.735675,193.632656 147.171546,177.741767 148.791295,170.452429" id="Fill-49" fill="#FFC999"></path>
                        <path d="M162.829389,178.923949 C163.02317,178.730168 163.337351,178.730168 163.531132,178.923949 C163.724913,179.11773 163.724913,179.431911 163.531132,179.625692 C163.271796,179.885028 162.801733,180.256333 162.140507,180.624103 C160.836796,181.34922 159.341359,181.726396 157.694851,181.566755 C157.422082,181.540308 157.222399,181.297746 157.248846,181.024977 C157.275293,180.752209 157.517855,180.552526 157.790624,180.578973 C159.22062,180.717622 160.519792,180.389947 161.658124,179.756813 C161.993944,179.570032 162.289332,179.370277 162.540886,179.171574 L162.671319,179.065484 C162.747014,179.001902 162.800025,178.953313 162.829389,178.923949 Z" id="Stroke-51" fill="#F5222D" fill-rule="nonzero"></path>
                        <path d="M157.232584,170.926462 C157.4171,170.91334 157.579747,171.037076 157.62106,171.211413 L157.631105,171.287129 L157.631798,171.303149 C157.644491,171.65572 157.581186,172.193072 157.379038,172.89221 C157.108675,173.827277 156.640462,174.850116 155.934473,175.94585 L155.810895,176.132113 L156.008058,176.253907 C156.686169,176.670852 157.282949,177.020324 157.799954,177.307587 L157.990095,177.412405 C158.18048,177.516503 158.347767,177.605271 158.492214,177.679585 L158.78745,177.826456 C158.974087,177.912545 159.055597,178.133634 158.969507,178.320272 C158.883417,178.506909 158.662329,178.588419 158.475691,178.502329 L158.371462,178.452248 L158.035469,178.281108 C157.914194,178.217637 157.78008,178.14588 157.633016,178.065469 L157.238064,177.846017 C156.623248,177.49924 155.907519,177.072717 155.088636,176.558961 C154.908467,176.445926 154.85951,176.205148 154.981233,176.030731 C155.835124,174.807176 156.374921,173.685322 156.664016,172.68547 C156.828861,172.115345 156.887993,171.68251 156.889077,171.402494 L156.887695,171.323631 L156.888341,171.263519 C156.904568,171.085091 157.048068,170.939583 157.232584,170.926462 Z" id="Stroke-53" fill="#DD936F" fill-rule="nonzero"></path>
                        <path d="M168.042524,170.836565 C168.315269,170.836565 168.536372,171.057669 168.536372,171.330414 C168.536372,173.227486 167.106907,174.782638 165.322819,174.782638 C163.539499,174.782638 162.110208,173.227303 162.110208,171.330414 C162.110208,171.057669 162.331312,170.836565 162.604057,170.836565 C162.876802,170.836565 163.097905,171.057669 163.097905,171.330414 C163.097905,172.699578 164.1045,173.79494 165.322819,173.79494 C166.541963,173.79494 167.548675,172.699713 167.548675,171.330414 C167.548675,171.057669 167.769779,170.836565 168.042524,170.836565 Z" id="Stroke-55" fill="#373A65" fill-rule="nonzero"></path>
                        <path d="M155.037843,171.175703 C155.296521,171.175703 155.506221,171.385403 155.506221,171.644081 C155.506221,173.519035 154.223081,175.070834 152.591712,175.070834 C150.959578,175.070834 149.67626,173.519232 149.67626,171.644081 C149.67626,171.385403 149.88596,171.175703 150.144638,171.175703 C150.403316,171.175703 150.613016,171.385403 150.613016,171.644081 C150.613016,173.036998 151.520403,174.134078 152.591712,174.134078 C153.662192,174.134078 154.569465,173.036843 154.569465,171.644081 C154.569465,171.385403 154.779165,171.175703 155.037843,171.175703 Z" id="Stroke-57" fill="#373A65" fill-rule="nonzero"></path>
                        <path d="M162.415696,165.407545 C164.302272,164.801716 166.297953,164.721714 168.182812,165.516349 C168.529839,165.662651 168.867777,165.837699 169.195647,166.04252 C169.426966,166.187025 169.497342,166.49169 169.352837,166.723008 C169.208333,166.954327 168.903668,167.024703 168.672349,166.880198 C168.389224,166.70333 168.097982,166.55247 167.799115,166.426471 C166.164155,165.737191 164.399274,165.807941 162.717683,166.347944 C162.434568,166.43886 162.179321,166.536034 161.956823,166.632699 L161.768643,166.718072 C161.737391,166.73303 161.713337,166.745092 161.696789,166.753822 C161.455553,166.881081 161.156828,166.788685 161.029569,166.547449 C160.902309,166.306212 160.994706,166.007488 161.235942,165.880228 C161.468119,165.757748 161.873249,165.581739 162.415696,165.407545 Z" id="Stroke-59" fill="#373A65" fill-rule="nonzero"></path>
                        <path d="M166.205576,191.512334 C166.386119,191.414103 166.612109,191.480831 166.710339,191.661374 C166.80857,191.841917 166.741842,192.067907 166.561299,192.166137 C164.212685,193.443978 161.768745,194.088504 159.314212,194.12166 C159.108695,194.124436 158.93984,193.960082 158.93703,193.754565 C158.934288,193.549048 159.098642,193.380193 159.304159,193.377417 C161.637331,193.345901 163.962697,192.732645 166.205576,191.512334 Z" id="Stroke-61" fill="#DD936F" fill-rule="nonzero"></path>
                        <path d="M176.432007,274.3662 C184.508107,274.998251 203.675283,326.032107 210.916509,344.281394 C209.952396,347.955779 204.063003,354.440431 204.063003,354.440431 C204.063003,354.440431 204.693167,357.365788 205.080888,359.123267 C198.189648,364.79097 184.861867,367.870095 184.861867,367.870095 L184.832622,370.384148 C163.523078,380.196029 134.9874,370.792622 134.9874,370.792622 C134.9874,370.792622 134.454402,370.247361 134.837406,368.275739 C125.161369,368.16348 104.444253,355.888487 104.444253,355.888487 L107.389421,349.81514 L98.8680561,341.094726 C98.8680561,341.094726 121.878478,298.764304 128.96122,286.9242 C135.178902,276.529323 141.010749,273.536988 141.010749,273.536988 C141.010749,273.536988 162.103322,273.243603 176.432007,274.3662" id="Fill-63" fill="#4E5C93"></path>
                        <path d="M139.653017,283.532363 C139.740175,283.354308 139.955172,283.280622 140.133226,283.36778 C140.293474,283.446222 140.369185,283.628214 140.319186,283.793629 L140.297808,283.847989 L105.260039,355.425109 L105.588543,355.666663 L105.862706,355.863051 C106.554763,356.354295 107.370527,356.902173 108.304786,357.492552 C110.976717,359.181004 114.060319,360.870059 117.51384,362.446734 C122.882969,364.897964 128.643969,366.845628 134.727482,368.102319 C134.921624,368.142424 135.046497,368.332319 135.006392,368.526462 C134.966287,368.720604 134.776392,368.845477 134.58225,368.805372 C128.443497,367.53727 122.631778,365.572458 117.215692,363.099791 C113.731497,361.509112 110.619628,359.804573 107.921285,358.099431 C107.080986,357.568428 106.33464,357.070878 105.685873,356.616716 L105.447166,356.448458 C105.250052,356.308541 105.074033,356.181059 104.919437,356.066917 L104.586775,355.816332 C104.469884,355.724904 104.422942,355.572806 104.462986,355.434162 L104.485523,355.375782 L139.653017,283.532363 Z" id="Stroke-65" fill="#253368" fill-rule="nonzero"></path>
                        <path d="M182.223157,298.079123 C182.390049,298.016037 182.574529,298.085463 182.660856,298.235162 L182.685838,298.287963 L205.771729,359.360105 C205.831175,359.517367 205.773505,359.69482 205.632964,359.787087 L205.248513,360.030667 L204.99377,360.187479 C204.476212,360.503313 203.875003,360.854942 203.196517,361.23341 C201.25955,362.313875 199.090217,363.394038 196.739363,364.402222 C192.90502,366.046613 188.968104,367.335444 185.023939,368.132871 C184.829629,368.172157 184.640262,368.046484 184.600977,367.852174 C184.561692,367.657864 184.687364,367.468498 184.881674,367.429212 C188.773848,366.642296 192.664715,365.368541 196.45641,363.74244 C198.783255,362.744552 200.930566,361.675354 202.846794,360.606458 L203.40219,360.292846 C203.759685,360.088441 204.091443,359.893653 204.396265,359.710154 L204.748942,359.495532 L204.997023,359.34068 L182.014318,298.541804 C181.951231,298.374913 182.020658,298.190432 182.170356,298.104105 L182.223157,298.079123 Z" id="Stroke-67" fill="#253368" fill-rule="nonzero"></path>
                        <path d="M167.223139,275.730752 C167.398096,275.69578 167.568754,275.794415 167.629463,275.956207 L167.648511,276.027535 L169.285441,284.298371 C169.770263,286.762562 170.285431,289.39229 170.825562,292.162659 L171.847243,297.417904 C173.718624,307.071698 175.575988,316.809354 177.342225,326.274315 L177.821608,328.848639 C178.161769,330.679216 178.496023,332.486621 178.824015,334.2692 L179.79582,339.579035 C181.985835,351.611954 183.810049,362.112616 185.183092,370.68643 C185.210759,370.859188 185.109841,371.026726 184.944191,371.083038 C183.898184,371.438627 182.839319,371.767808 181.768128,372.071077 C168.863938,375.724431 155.098145,375.51763 142.098209,372.976759 C140.207242,372.607165 138.485365,372.21328 136.956306,371.817224 L136.544089,371.709171 C136.054635,371.579332 135.616307,371.457371 135.23153,371.345549 L134.561949,371.144258 C134.545397,371.139017 134.530569,371.134276 134.517476,371.130048 C134.36332,371.080262 134.264075,370.934816 134.268969,370.777586 L134.275781,370.718237 L150.343078,290.190251 C150.381868,289.995841 150.570913,289.869686 150.765323,289.908475 C150.940291,289.943386 151.059974,290.100004 151.053883,290.272703 L151.047098,290.33072 L135.043152,370.540871 L135.247012,370.602013 C135.608444,370.70879 136.023755,370.826128 136.490509,370.951772 L136.728161,371.015275 C138.342849,371.44361 140.189086,371.872136 142.235918,372.272194 C155.134636,374.793282 168.792774,374.998466 181.572568,371.38033 C182.367081,371.155392 183.154663,370.916063 183.935092,370.662139 L184.4255,370.498734 L184.002915,367.88931 C182.697278,359.909535 181.04349,350.445065 179.101347,339.772534 L178.362725,335.731037 C177.956775,333.518992 177.540899,331.267501 177.115794,328.979794 C175.208126,318.713647 173.183634,308.084187 171.142452,297.554452 L168.848436,285.797137 L166.941511,276.153094 C166.902654,275.958698 167.028743,275.769609 167.223139,275.730752 Z" id="Stroke-69" fill="#253368" fill-rule="nonzero"></path>
                        <path d="M158.668852,277.106744 C158.846987,277.117367 158.987438,277.255665 159.005611,277.427513 L159.007024,277.485909 L155.230757,344.459708 C155.219597,344.657635 155.050098,344.80904 154.852171,344.798459 C154.674036,344.787836 154.533585,344.649537 154.515412,344.477689 L154.513999,344.419294 L158.290266,277.445495 C158.301426,277.247568 158.470925,277.096163 158.668852,277.106744 Z" id="Stroke-71" fill="#253368" fill-rule="nonzero"></path>
                        <path d="M148.623588,275.630524 C148.682391,275.441204 148.883534,275.335399 149.072854,275.394202 C149.243242,275.447125 149.345982,275.615343 149.32196,275.786471 L149.309176,275.843468 L135.131428,321.489798 C135.072625,321.679118 134.871482,321.784923 134.682162,321.72612 C134.511774,321.673197 134.409034,321.504979 134.433056,321.333851 L134.44584,321.276854 L148.623588,275.630524 Z" id="Stroke-73" fill="#253368" fill-rule="nonzero"></path>
                        <path d="M139.468263,274.364785 L140.076729,269.748928 C140.076729,269.748928 158.302432,269.858358 176.179093,268.962166 C176.630962,271.012086 177.148866,274.698735 177.148866,274.698735 C175.647038,273.464821 159.408993,277.07034 139.468263,274.364785" id="Fill-75" fill="#4E5C93"></path>
                        <path d="M175.230854,274.34065 C175.428879,274.33139 175.596917,274.484415 175.606176,274.68244 C175.615435,274.880466 175.462411,275.048503 175.264385,275.057763 C166.908881,275.448459 158.807102,275.616615 151.652955,275.602858 L149.604135,275.593685 C147.330103,275.577377 145.320625,275.541629 143.763042,275.493239 L142.623855,275.451781 C142.40533,275.44234 142.211233,275.432817 142.044246,275.423356 L141.702931,275.401284 C141.604931,275.393864 141.525913,275.386554 141.466251,275.379348 C141.402052,275.371594 141.35613,275.363872 141.314532,275.351532 L141.286553,275.348129 C141.252871,275.339918 141.22354,275.308467 141.076883,275.151209 L141.131262,274.857695 C141.171868,274.666059 141.197401,274.663568 141.293149,274.654229 C141.368107,274.628357 141.445777,274.62875 141.516135,274.65053 L141.55925,274.667258 L141.71899,274.682473 L141.96818,274.69973 C142.306133,274.720506 142.785884,274.741927 143.375955,274.762289 L144.648064,274.799999 C146.353575,274.843562 148.478222,274.873359 150.834529,274.882574 C158.175328,274.911284 166.566517,274.745787 175.230854,274.34065 Z" id="Stroke-77" fill="#253368" fill-rule="nonzero"></path>
                        <path d="M140.318135,220.395667 C138.332363,224.722857 134.654205,232.170679 134.196676,237.091241 C133.454252,245.068288 138.648389,251.004849 138.648389,251.004849 C138.648389,251.004849 138.700274,248.657771 139.204971,269.326775 C162.996494,273.500196 178.16477,269.062634 178.16477,269.062634 L177.70158,263.583603 L182.688178,250.513359 C182.688178,250.513359 183.912658,245.809769 188.736055,235.050755 C192.088754,227.570859 191.855744,218.297636 191.401988,213.339339 C191.207656,211.215837 189.726582,209.429114 187.673832,208.851779 C180.499584,206.834876 177.782709,206.771671 177.782709,206.771671 L177.107264,202.038837 C176.991231,201.228491 176.296918,200.625685 175.478082,200.625685 L157.989143,200.625685 C157.238229,200.625685 156.582594,201.135099 156.395809,201.862429 L155.114727,206.860347 L141.429412,207.661259 C139.730422,207.994265 141.310549,210.720573 141.134141,212.443148 L140.318135,220.395667 Z" id="Fill-79" fill="#597EF7"></path>
                        <path d="M172.884316,206.718749 C173.049995,206.718749 173.184304,206.932309 173.184304,207.195749 C173.184304,207.429917 173.078183,207.624675 172.938239,207.665064 L172.884316,207.672749 L157.137761,207.672749 C156.972082,207.672749 156.837773,207.459188 156.837773,207.195749 C156.837773,206.96158 156.943894,206.766822 157.083838,206.726434 L157.137761,206.718749 L172.884316,206.718749 Z" id="Stroke-81" fill="#1D39C4" fill-rule="nonzero"></path>
                        <path d="M177.671239,205.510557 C177.80333,205.344011 178.045424,205.316081 178.211969,205.448172 C178.36186,205.567055 178.399473,205.775039 178.309202,205.936858 L178.274354,205.988903 L161.207096,227.507874 C161.029453,227.731851 160.685917,227.68782 160.562877,227.444466 L160.540027,227.389293 L153.86576,207.159895 C153.799158,206.958029 153.908812,206.740393 154.110678,206.673791 C154.292357,206.61385 154.486811,206.696675 154.572437,206.861 L154.596782,206.918709 L161.047168,226.470398 L177.671239,205.510557 Z" id="Stroke-83" fill="#C9D4EA" fill-rule="nonzero"></path>
                        <path d="M156.141007,228.89609 C154.394849,231.841258 155.181611,235.53451 157.898486,237.145768 C160.615361,238.757025 164.234088,237.674992 165.980246,234.730768 C167.726404,231.7856 166.939642,228.091404 164.222767,226.480146 C161.505892,224.869832 157.887166,225.950922 156.141007,228.89609" id="Fill-85" fill="#C9D4EA"></path>
                        <path d="M155.513673,228.881751 C153.767515,231.826919 154.554277,235.520171 157.271152,237.131429 C159.988027,238.742686 163.606754,237.660653 165.352912,234.715485 C167.09907,231.770317 166.312308,228.077065 163.595433,226.465807 C160.878558,224.85455 157.259832,225.936583 155.513673,228.881751" id="Fill-87" fill="#F0F0F5"></path>
                        <path d="M156.622404,229.394938 C155.266796,231.681641 155.87715,234.549454 157.987445,235.800348 C160.096796,237.051243 162.906121,236.211653 164.261728,233.92495 C165.618279,231.638247 165.006982,228.770434 162.896687,227.51954 C160.788279,226.268645 157.978011,227.108235 156.622404,229.394938" id="Fill-89" fill="#FAAD14"></path>
                        <path d="M140.515496,216.014637 C140.662661,216.0202 140.78105,216.130871 140.801147,216.271675 L140.80394,216.325742 L140.618098,221.242531 L140.581175,221.375777 L138.007164,226.030287 C137.880523,226.262017 137.776148,226.454363 137.703927,226.589659 L137.383051,227.19767 C136.664548,228.576199 136.152766,229.684886 135.748212,230.761015 C134.882631,233.063493 134.496853,235.295597 134.496853,238.204122 C134.496853,239.366155 134.690915,240.691333 135.055229,242.147985 C135.432051,243.654648 135.979457,245.258879 136.652789,246.907072 C137.126382,248.066338 137.633974,249.178907 138.141485,250.2047 L138.34813,250.617415 C138.414788,250.748918 138.479133,250.874244 138.54089,250.993076 L138.815806,251.510285 L138.853079,251.644322 L139.401632,267.191692 L139.449898,269.001441 L139.932221,269.089716 C151.271431,271.111562 162.285602,271.147182 172.06391,269.966651 L172.68637,269.889654 L173.540083,269.777569 C174.513136,269.645215 175.405366,269.507734 176.21143,269.369655 L176.551594,269.310454 C176.78569,269.269061 177.001719,269.229458 177.19926,269.192003 L177.654695,269.102695 L177.123991,263.709887 L177.142736,263.572294 L187.985708,235.530936 C188.045461,235.376408 188.219171,235.299577 188.373699,235.359329 C188.511058,235.412443 188.587026,235.555596 188.560246,235.695283 L188.545306,235.74732 L177.727648,263.721773 L178.278604,269.312184 C178.291633,269.444477 178.216325,269.567018 178.097905,269.617498 L178.044646,269.634539 L177.686879,269.708459 L177.31147,269.781394 C177.178068,269.806689 177.036441,269.832932 176.886714,269.860018 L176.656063,269.901266 C175.5304,270.100309 174.227123,270.299253 172.761768,270.484874 C162.565384,271.776481 151.001411,271.756686 139.09854,269.547862 C138.956397,269.521485 138.853287,269.397479 138.853287,269.25291 L138.824797,267.976502 C138.786283,266.629479 138.710094,264.349326 138.60465,261.353848 L138.41739,256.128085 L138.255605,251.737336 L138.100663,251.445925 L137.912712,251.084232 C137.814925,250.89369 137.711623,250.688842 137.603726,250.470757 C137.090198,249.432804 136.576751,248.307401 136.097373,247.133975 C135.413981,245.461157 134.857624,243.830694 134.47318,242.293558 C134.097822,240.792749 133.896876,239.42056 133.896876,238.204122 C133.896876,235.225159 134.295006,232.921586 135.186609,230.549889 C135.6005,229.448922 136.121391,228.320358 136.849575,226.923103 L137.277337,226.116228 L140.020945,221.147965 L140.204391,216.303081 C140.209954,216.155916 140.320625,216.037527 140.461429,216.01743 L140.515496,216.014637 Z" id="Stroke-91" fill="#1D39C4" fill-rule="nonzero"></path>
                        <g id="分组" transform="translate(176.722656, 239.197574)">
                            <mask id="mask-2" fill="white">
                                <use xlink:href="#path-1"></use>
                            </mask>
                            <g id="Clip-94"></g>
                            <path d="M1.47352734,39.5251541 L1.47352734,39.5251541 C3.12912305,42.0231697 6.13655273,42.9901131 8.29873242,41.7203514 L50.0452148,17.1996111 C53.7903516,14.7968748 54.4497598,9.20841387 51.510252,4.7746248 C48.5443301,0.301214648 43.0794492,-1.24966816 39.4126113,1.34174004 L1.94237695,32.5159939 C0.0745253906,34.0687635 -0.128296875,37.1082674 1.47352734,39.5251541" id="Fill-93" fill="#FFC999" mask="url(#mask-2)"></path>
                        </g>
                        <g id="分组" transform="translate(91.820312, 185.426090)">
                            <mask id="mask-4" fill="white">
                                <use xlink:href="#path-3"></use>
                            </mask>
                            <g id="Clip-96"></g>
                            <path d="M33.2805867,1.35504141 L33.2805867,1.35504141 C36.2314148,2.48990273 37.8407859,5.55110391 36.9332742,8.30665664 L19.4150906,61.4809945 C17.6302547,66.3091078 11.8899129,68.609018 6.65143828,66.5958891 C1.36768242,64.563893 -1.33975898,58.9405277 0.658276172,54.1473187 L26.010116,3.8445668 C27.2732742,1.33711758 30.4259813,0.257914453 33.2805867,1.35504141" id="Fill-95" fill="#FFC999" mask="url(#mask-4)"></path>
                        </g>
                        <path d="M116.671983,184.53471 C116.671983,184.53471 114.699419,193.827743 119.427536,196.904038 C123.710387,199.690721 127.002712,195.794647 127.002712,195.794647 C127.002712,195.794647 130.895013,192.438174 133.445856,187.33743 C135.125979,183.977184 137.668333,177.261409 136.007077,176.136924 C133.842067,174.671887 131.41103,182.440452 129.58563,181.897077 C127.714005,181.337665 128.096065,179.695276 127.728155,175.669962 C127.497975,173.154022 128.266813,170.589028 127.66212,168.490997 C126.481034,164.390213 118.461536,170.345641 116.671983,184.53471" id="Fill-97" fill="#FFC999"></path>
                        <path d="M125.266809,168.74479 C125.331085,168.579722 125.517005,168.498013 125.682073,168.562288 C125.847142,168.626563 125.928851,168.812483 125.864575,168.977552 C124.473991,172.548777 124.306075,175.832992 124.850902,178.561874 C124.898919,178.802377 124.949556,179.019247 125.000574,179.211279 L125.038874,179.350627 C125.076488,179.482865 125.105068,179.57115 125.120226,179.613126 C125.180393,179.779736 125.094103,179.963575 124.927493,180.023742 C124.760883,180.083908 124.577044,179.997619 124.516878,179.831009 L124.486768,179.741902 C124.474835,179.704827 124.4611,179.660428 124.445847,179.608854 L124.421864,179.52613 C124.353425,179.285521 124.285267,179.005196 124.221833,178.687469 C123.654399,175.845355 123.828593,172.43834 125.266809,168.74479 Z" id="Stroke-99" fill="#DD936F" fill-rule="nonzero"></path>
                        <path d="M122.271845,171.19072 C122.341129,171.02769 122.529456,170.951694 122.692486,171.020978 C122.855515,171.090262 122.931511,171.27859 122.862227,171.441619 L122.822758,171.538404 C122.784067,171.636257 122.731364,171.776686 122.668313,171.956525 C122.520113,172.379232 122.371664,172.861935 122.232995,173.395911 C121.642078,175.671361 121.413689,178.09131 121.757171,180.46997 C121.782488,180.645292 121.660884,180.807943 121.485562,180.83326 C121.310239,180.858576 121.147589,180.736973 121.122272,180.56165 C120.765198,178.088868 121.001373,175.586423 121.612105,173.234671 C121.755398,172.682891 121.909052,172.183262 122.062955,171.744288 L122.200895,171.36747 C122.229541,171.293131 122.253456,171.23399 122.271845,171.19072 Z" id="Stroke-101" fill="#DD936F" fill-rule="nonzero"></path>
                        <path d="M126.350567,201.319431 L115.361374,194.346119 C114.451976,193.768783 114.183118,192.56317 114.759511,191.653771 L129.767415,168.005638 C130.343808,167.095296 131.549421,166.826439 132.459763,167.402832 L143.448013,174.376144 C144.357411,174.95348 144.627212,176.159093 144.049876,177.068492 L129.042915,200.717568 C128.465579,201.62791 127.259966,201.896767 126.350567,201.319431" id="Fill-103" fill="#597EF7"></path>
                        <path d="M172.846015,268.702365 C172.846015,268.702365 177.34867,261.505476 179.387269,261.226242 C182.544693,260.79324 181.914529,267.276006 181.914529,267.276006 C181.914529,267.276006 184.969127,268.367472 183.974826,271.827715 C185.799283,274.503082 184.517257,276.314332 184.517257,276.314332 C184.517257,276.314332 186.779433,278.133129 184.782341,280.546242 C182.78525,282.958412 175.073287,282.740496 176.99491,279.732123 C174.249734,278.136902 175.56572,275.565304 175.56572,275.565304 C175.56572,275.565304 173.455425,273.925746 174.794996,271.456031 C172.950728,270.932467 172.383769,269.457996 172.846015,268.702365" id="Fill-105" fill="#FFC999"></path>
                        <path d="M179.624079,266.351556 C179.756859,266.223925 179.967964,266.228099 180.095595,266.360879 C180.209045,266.478906 180.218353,266.658819 180.125765,266.786982 L180.086272,266.832395 L175.026092,271.696356 C174.893312,271.823987 174.682207,271.819814 174.554576,271.687033 C174.441126,271.569007 174.431819,271.389094 174.524406,271.260931 L174.563899,271.215517 L179.624079,266.351556 Z" id="Stroke-107" fill="#DD936F" fill-rule="nonzero"></path>
                        <path d="M179.329498,260.896986 C181.000379,260.605061 181.880122,261.934023 182.180862,264.19072 C182.287382,264.99002 182.312298,265.828399 182.285548,266.616773 L182.268363,266.99991 L182.262063,267.094598 L182.380581,267.171765 L182.463593,267.228311 C182.74814,267.425383 183.032415,267.657327 183.298619,267.923774 C184.341795,268.967902 184.818252,270.221235 184.395138,271.632615 L184.350031,271.772402 L184.36469,271.792301 C185.490883,273.345852 185.630609,274.743669 185.147587,275.885183 L185.093468,276.006503 C185.026496,276.149216 184.958503,276.268228 184.896093,276.362811 L184.878941,276.387316 L185.529845,278.969723 C185.569847,279.128471 185.488724,279.289327 185.344772,279.354719 L185.287959,279.374575 C185.129211,279.414577 184.968355,279.333455 184.902963,279.189503 L184.883106,279.132689 L184.193511,276.396004 C184.166764,276.289857 184.193814,276.177342 184.265888,276.094953 L184.316271,276.029718 C184.364395,275.961364 184.426246,275.858358 184.489691,275.723162 C184.950446,274.741331 184.839102,273.505485 183.710549,272.030549 C183.639811,271.9381 183.6224,271.815455 183.664614,271.706971 C184.15465,270.447653 183.777761,269.347 182.826796,268.395167 C182.590919,268.159075 182.337251,267.952104 182.083854,267.776606 L181.945828,267.683988 C181.862607,267.630052 181.797873,267.591822 181.757004,267.569817 C181.639397,267.506496 181.570919,267.379109 181.58298,267.246084 L181.600002,267.005297 C181.601645,266.977387 181.603314,266.947614 181.604986,266.916051 C181.649734,266.071156 181.635183,265.144998 181.519752,264.278823 C181.262813,262.350798 180.601503,261.351807 179.444285,261.553989 C179.262859,261.585686 179.090088,261.464307 179.05839,261.282881 C179.026693,261.101455 179.148072,260.928683 179.329498,260.896986 Z" id="Stroke-109" fill="#DD936F" fill-rule="nonzero"></path>
                        <path d="M180.697985,272.287142 C180.858395,272.19665 181.061791,272.253331 181.152283,272.413741 C181.23272,272.556329 181.196873,272.73288 181.075253,272.833908 L181.025684,272.86804 L175.729664,275.855659 C175.569254,275.946151 175.365857,275.88947 175.275366,275.72906 C175.194929,275.586473 175.230776,275.409921 175.352396,275.308893 L175.401965,275.274761 L180.697985,272.287142 Z" id="Stroke-111" fill="#DD936F" fill-rule="nonzero"></path>
                        <path d="M182.098535,277.097416 C182.266819,277.022576 182.463909,277.098327 182.538749,277.26661 C182.605273,277.416195 182.552812,277.588542 182.422142,277.677556 L182.369554,277.706823 L177.130136,280.036921 C176.961853,280.111761 176.764763,280.03601 176.689923,279.867727 C176.623399,279.718141 176.67586,279.545795 176.80653,279.45678 L176.859117,279.427513 L182.098535,277.097416 Z" id="Stroke-113" fill="#DD936F" fill-rule="nonzero"></path>
                        <path d="M119.822747,219.877493 C119.880988,219.702769 120.069843,219.608342 120.244567,219.666583 C120.399876,219.718353 120.491742,219.873324 120.469335,220.029836 L120.455476,220.088402 L113.375564,241.328139 C113.317323,241.502862 113.128468,241.597289 112.953745,241.539048 C112.798435,241.487278 112.706569,241.332308 112.728977,241.175795 L112.742835,241.117229 L119.822747,219.877493 Z" id="Stroke-115" fill="#DD936F" fill-rule="nonzero"></path>
                        <path d="M227.165214,255.754663 L227.444448,255.443355 C230.973556,251.504829 230.767904,245.639964 226.985976,242.342923 L191.220392,211.169613 C187.438464,207.872571 181.511337,208.393306 177.98223,212.331831 L177.703939,212.642196 C174.174831,216.581665 174.37954,222.44653 178.161468,225.743571 L213.927052,256.916882 C217.709923,260.213923 223.636107,259.693189 227.165214,255.754663" id="Fill-117" fill="#FFC999"></path>
                        <path d="M196.8547,241.467014 L178.786538,226.960977 C174.431048,223.463944 173.835788,217.021742 177.462061,212.646442 C181.090221,208.271141 187.621098,207.552301 191.976589,211.049334 L209.873059,225.418584 L196.8547,241.467014 Z" id="Fill-119" fill="#597EF7"></path>
                        <path d="M187.326195,211.74012 C187.469543,211.661287 187.649656,211.713586 187.728489,211.856934 C187.807322,212.000282 187.755023,212.180396 187.611675,212.259229 C184.391292,214.030254 182.466032,216.466663 181.62003,219.408654 C180.846459,222.098764 181.019403,224.988121 181.778377,227.757905 C181.92136,228.279702 182.074445,228.752656 182.227295,229.167831 L182.361061,229.516426 L182.400422,229.611785 L196.620621,241.277996 L209.452174,225.461588 C209.542353,225.35042 209.696447,225.321635 209.818674,225.38522 L209.868827,225.418154 C209.979996,225.508333 210.00878,225.662427 209.945196,225.784654 L209.912261,225.834807 L196.893902,241.883237 C196.801934,241.996612 196.643579,242.024238 196.520348,241.955817 L196.475981,241.925637 L181.969,230.024215 L181.8862,229.915526 L181.841078,229.809999 C181.79755,229.705095 181.73971,229.558203 181.671346,229.372509 C181.51286,228.942026 181.354608,228.453111 181.207011,227.914471 C180.421765,225.048813 180.242575,222.055107 181.050673,219.244929 C181.939939,216.152488 183.966673,213.587663 187.326195,211.74012 Z" id="Stroke-121" fill="#1D39C4" fill-rule="nonzero"></path>
                        <path d="M213.095698,241.76846 C213.231031,241.643539 213.442008,241.65198 213.566929,241.787313 C213.67797,241.907609 213.683638,242.087674 213.588478,242.213939 L213.548076,242.258544 L204.339945,250.758212 C204.204612,250.883133 203.993634,250.874692 203.868714,250.739359 C203.757673,250.619063 203.752004,250.438998 203.847164,250.312733 L203.887567,250.268128 L213.095698,241.76846 Z" id="Stroke-123" fill="#DD936F" fill-rule="nonzero"></path>
                    </g>
                </g>
            </g>
        </g>
    </g>
</svg>