<?xml version="1.0" encoding="UTF-8"?>
<svg width="157px" height="171px" viewBox="0 0 157 171" version="1.1" xmlns="http://www.w3.org/2000/svg" xmlns:xlink="http://www.w3.org/1999/xlink">
    <title>2.人物组件/2.保安/站立/讲解</title>
    <defs>
        <polygon id="path-1" points="0.395789063 0.432930762 27.3191297 0.432930762 27.3191297 30.8085938 0.395789063 30.8085938"></polygon>
        <polygon id="path-3" points="3.66158009e-05 0.574230176 35.2090547 0.574230176 35.2090547 30.8085937 3.66158009e-05 30.8085937"></polygon>
        <polygon id="path-5" points="0.106694465 0.203056641 32.3676341 0.203056641 32.3676341 30.9786012 0.106694465 30.9786012"></polygon>
    </defs>
    <g id="页面-1" stroke="none" stroke-width="1" fill="none" fill-rule="evenodd">
        <g id="东云官网-联系我们" transform="translate(-1040.000000, -629.000000)">
            <g id="联系" transform="translate(360.000000, 525.000000)">
                <g id="编组-19备份-4" transform="translate(609.000000, 75.000000)">
                    <g id="2.人物组件/2.保安/站立/讲解" transform="translate(26.000000, -39.000000)">
                        <path d="M125.40607,128.922902 C125.40607,128.922902 135.076852,147.02155 130.974117,169.878726 C141.121617,184.390274 154.135758,193.098603 159.87818,194.419171 C165.819586,195.784552 181.625133,192.960664 179.943961,179.139509 C178.437164,166.744652 150.814898,142.496888 146.554664,137.946319 C140.194195,131.153024 128.599664,128.226908 125.40607,128.922902" id="Fill-1" fill="#FFC2BD"></path>
                        <path d="M162.346289,153.741185 C154.445273,145.146287 150.094336,141.137669 147.922383,138.726196 C138.501211,128.261777 132.183633,128.374509 122.030508,126.603015 C122.030508,126.603015 124.946367,140.539002 120.84293,163.396178 C124.956211,168.023769 142.066055,181.583051 145.749023,184.91318 L162.346289,153.741185 Z" id="Fill-3" fill="#597EF7"></path>
                        <path d="M179.346586,128.003195 C173.75393,137.801728 164.174555,152.68438 153.507445,173.780564 C153.507445,173.780564 148.516664,189.00141 162.598852,193.168272 C176.329477,197.231506 180.634711,181.452604 180.634711,181.452604 C187.92682,163.952623 192.349477,146.582878 194.35268,134.193622 C194.557992,132.922767 194.861742,131.654014 194.553773,130.402064 C194.132602,128.686586 192.919008,126.575497 189.750727,124.993056 C182.231508,121.236508 179.346586,128.003195 179.346586,128.003195" id="Fill-5" fill="#FFC2BD"></path>
                        <path d="M138.992414,237.619332 C138.992414,237.619332 124.206398,231.739091 107.713195,252.602111 C106.297102,350.023085 104.766398,357.335225 104.766398,357.335225 C104.766398,357.335225 100.654523,365.968633 106.44968,370.407872 L125.76382,370.407872 C125.76382,370.407872 130.766555,364.73629 128.537648,358.521356 C141.764133,270.34576 138.992414,237.619332 138.992414,237.619332" id="Fill-7" fill="#4E5C93"></path>
                        <g id="分组" transform="translate(104.765625, 369.500068)">
                            <mask id="mask-2" fill="white">
                                <use xlink:href="#path-1"></use>
                            </mask>
                            <g id="Clip-10"></g>
                            <path d="M1.77250781,0.432930762 L20.2063359,0.521155371 L17.2342266,19.5629669 L26.8072734,28.1396593 C27.8542266,29.0786212 27.1876641,30.8088038 25.7793047,30.8088038 L0.395789063,30.8088038 L1.77250781,0.432930762 Z" id="Fill-9" fill="#253368" mask="url(#mask-2)"></path>
                        </g>
                        <path d="M83.8390078,196.903324 C83.8390078,196.903324 58.7437734,137.727718 61.3221328,132.591785 C63.9011953,127.455152 81.0701016,120.919529 109.841977,122.891979 C138.737602,124.872832 144.994711,136.986211 144.994711,136.986211 C144.994711,136.986211 143.083617,168.660946 135.181898,193.168482 C138.463383,199.00461 132.497367,203.147666 132.497367,203.147666 C132.497367,203.147666 95.0461172,201.423785 86.1382266,201.890815 C81.9778359,200.11442 83.8390078,196.903324 83.8390078,196.903324" id="Fill-11" fill="#597EF7"></path>
                        <path d="M142.534345,144.209954 C142.682781,144.197971 142.812867,144.308086 142.8249,144.455904 L142.841722,144.700581 L142.86394,145.101133 C142.868794,145.199057 142.873566,145.302897 142.878204,145.412607 L142.897833,145.93267 C142.997845,148.93364 142.904597,152.849358 142.488538,157.561534 C141.866871,164.602355 140.614486,172.219585 138.591475,180.281748 L138.405438,181.015895 L135.466875,193.134873 L135.539204,193.282211 L135.62358,193.462726 C135.77394,193.791582 135.924138,194.156894 136.06434,194.549431 C136.445178,195.615697 136.682848,196.680756 136.706545,197.682657 C136.764601,200.137207 135.533589,201.831114 132.692247,202.328238 C132.54557,202.3539 132.405775,202.256295 132.380005,202.11023 C132.354235,201.964165 132.452249,201.824952 132.598925,201.79929 C135.163083,201.350663 136.219474,199.897039 136.167398,197.695303 C136.145233,196.758196 135.919418,195.746265 135.556227,194.729404 C135.421449,194.352053 135.277026,194.000788 135.132765,193.68527 L135.006342,193.417921 C134.980473,193.365364 134.959252,193.323851 134.943452,193.294134 C134.920366,193.250714 134.909831,193.202115 134.91252,193.153665 L134.91964,193.105463 L137.882022,180.88657 C140.008022,172.578015 141.313294,164.740522 141.951313,157.514495 L142.021075,156.695195 C142.386711,152.234748 142.456806,148.530598 142.349615,145.690961 L142.325317,145.127984 L142.287366,144.499298 C142.275333,144.35148 142.385909,144.221937 142.534345,144.209954 Z" id="Stroke-13" fill="#1D39C4" fill-rule="nonzero"></path>
                        <path d="M136.954828,220.016631 C135.635766,214.499793 133.091156,208.475312 133.091156,208.475312 L132.497016,203.148226 C116.449594,197.524958 87.0294375,201.964196 87.0294375,201.964196 C87.0294375,201.964196 86.5463906,204.405777 85.3581094,207.660985 C77.3586563,216.076632 74.0933438,244.124356 74.0933438,244.124356 L106.721156,256.951234 L139.388344,245.811127 C139.388344,245.811127 139.183734,229.338332 136.954828,220.016631" id="Fill-15" fill="#4E5C93"></path>
                        <path d="M74.8264219,240.082969 C74.8264219,240.082969 97.82775,205.88543 108.971578,249.831788 C81.9026719,344.162101 77.4476719,359.049653 77.4476719,359.049653 C77.4476719,359.049653 77.6473594,367.039582 72.2979844,370.147049 L53.575875,370.147049 C53.575875,370.147049 46.443375,365.707811 55.8047813,355.498263 C71.8522031,256.063526 74.8264219,240.082969 74.8264219,240.082969" id="Fill-17" fill="#4E5C93"></path>
                        <g id="分组" transform="translate(37.968750, 369.500068)">
                            <mask id="mask-4" fill="white">
                                <use xlink:href="#path-3"></use>
                            </mask>
                            <g id="Clip-20"></g>
                            <path d="M1.16444531,30.8086638 L26.0965547,30.8086638 L35.2090547,0.574230176 L15.7282734,0.574230176 L12.3849141,20.7440563 L0.516164062,28.6905729 C-0.436570312,29.3284509 0.0169453125,30.8086638 1.16444531,30.8086638" id="Fill-19" fill="#253368" mask="url(#mask-4)"></path>
                        </g>
                        <polygon id="Fill-21" fill="#FFC2BD" points="90.3336328 118.929364 92.9520703 93.2469003 117.44543 94.3188993 116.19457 122.134858 108.581836 135.131183"></polygon>
                        <path d="M101.552063,79.2565078 C101.552063,79.2565078 115.365656,76.306585 118.796203,82.8254033 C122.132531,89.1649717 121.396359,111.524309 114.121125,114.61287 C108.190969,117.129372 96.391125,115.317967 94.0469063,104.403322 C94.0469063,104.403322 92.037375,96.020584 93.2537812,88.6685332 C94.4708906,81.3164824 101.552063,79.2565078 101.552063,79.2565078" id="Fill-23" fill="#FFC2BD"></path>
                        <path d="M94.3339922,97.8988579 C94.3339922,97.8988579 90.9357891,90.6406333 87.9461016,94.360771 C84.9557109,98.0809087 89.3931328,105.383946 93.5626641,105.270514 C97.7321953,105.157083 94.3339922,97.8988579 94.3339922,97.8988579" id="Fill-25" fill="#FFC2BD"></path>
                        <g id="分组" transform="translate(89.296875, 68.416084)">
                            <mask id="mask-6" fill="white">
                                <use xlink:href="#path-5"></use>
                            </mask>
                            <g id="Clip-28"></g>
                            <path d="M31.3068516,27.3739957 C31.3068516,27.3739957 33.4661484,18.8778258 31.6232578,13.465316 C29.7796641,8.05280625 27.3426328,2.61438926 25.2888047,5.33814902 C25.0511484,3.99447422 23.3868516,1.25601035 22.0902891,0.31074668 C20.7930234,-0.634516992 16.3823203,4.94884043 16.3823203,4.94884043 C16.3823203,4.94884043 16.7964609,2.30070176 15.0920859,3.85513535 C13.3870078,5.40956895 3.21982031,10.0007496 1.46903906,12.5900719 C-0.281039062,15.1793941 0.154898438,24.9996334 0.154898438,24.9996334 C0.154898438,24.9996334 3.35974219,24.8434898 4.79903906,30.9786012 C4.56911719,26.0814352 6.72067969,23.6202486 7.81052344,22.6959908 C8.22396094,22.3458932 8.47357031,21.8445533 8.53825781,21.3082037 C8.66271094,20.2782164 8.85677344,18.548734 8.97489844,16.8556617 C9.02692969,16.1099537 9.60278906,15.5154879 10.3473984,15.4209615 C17.9313047,14.4525914 26.1529453,15.9811178 29.0772422,16.6161949 C29.7388828,16.759735 30.2247422,17.3149898 30.2852109,17.9864771 L30.7823203,23.5628326 C30.7823203,23.5628326 31.1338828,24.5522086 31.3068516,27.3739957" id="Fill-27" fill="#253368" mask="url(#mask-6)"></path>
                        </g>
                        <path d="M102.511566,92.3000674 L107.2893,92.6487647 C107.616364,92.672635 107.862069,92.9560183 107.838099,93.281719 C107.815627,93.5870634 107.564113,93.8211998 107.26327,93.8296056 L107.202497,93.8282312 L102.510937,93.4854102 L100.055655,94.0219483 C99.7553449,94.0875226 99.4582974,93.9141744 99.3644647,93.6294053 L99.3484669,93.5710037 C99.2826183,93.2719451 99.4566918,92.9761353 99.7426524,92.8826936 L99.8012984,92.8667625 L102.340986,92.3122078 C102.378302,92.3040596 102.416276,92.2995262 102.45438,92.2986451 L102.511566,92.3000674 Z" id="Stroke-29" fill="#253368" fill-rule="nonzero"></path>
                        <path d="M117.08271,93.1223584 C117.140599,93.1181582 117.198687,93.12244 117.255134,93.1349789 L117.310967,93.1502618 L119.143311,93.7489288 C119.454909,93.8507349 119.624634,94.1848131 119.522402,94.4951133 C119.42656,94.7860198 119.125718,94.9527523 118.831737,94.8885719 L118.773096,94.8726253 L117.052031,94.3102402 L112.363149,94.650559 C112.056518,94.6728071 111.787336,94.459039 111.73525,94.1638536 L111.727781,94.1037768 C111.70544,93.7984229 111.920102,93.5303627 112.216523,93.4784939 L112.276851,93.4710557 L117.08271,93.1223584 Z" id="Stroke-31" fill="#253368" fill-rule="nonzero"></path>
                        <path d="M94.4311641,100.754394 C94.4311641,100.754394 98.1359297,103.904573 100.002727,107.096063 C102.938273,103.781339 105.934992,102.431362 105.934992,102.431362 C105.934992,102.431362 108.107648,103.699416 110.366789,103.403933 C110.952492,102.763255 111.559289,103.047534 111.559289,103.047534 C111.559289,103.047534 114.516633,104.28758 116.494523,107.484672 C117.48382,105.306364 120.119836,102.544794 120.119836,102.544794 C120.119836,102.544794 120.014367,117.043738 109.31632,116.79797 C98.5177266,116.325338 95.1799922,110.217534 94.1759297,105.174727 C93.9621797,103.598588 93.7006172,99.6116757 94.4311641,100.754394" id="Fill-33" fill="#EFADAB"></path>
                        <g id="分组" transform="translate(103.359375, 104.826240)">
                            <path d="M0.373429688,0.322439941 C0.373429688,0.322439941 4.08944531,0.747458496 9.15967969,0.65433252 C9.15967969,0.65433252 8.11483594,3.77090186 4.94725781,3.57344678 C3.59866406,3.48942334 1.78249219,2.86554932 0.373429688,0.322439941" id="Fill-35" fill="#FFFFFF"></path>
                            <path d="M0.373429688,0.322439941 C0.373429688,0.322439941 4.08944531,0.747458496 9.15967969,0.65433252 C9.15967969,0.65433252 8.11483594,3.77090186 4.94725781,3.57344678 C3.59866406,3.48942334 1.78249219,2.86554932 0.373429688,0.322439941" id="Stroke-37" stroke="#D18682" stroke-width="2.0265" stroke-linecap="round" stroke-linejoin="round"></path>
                        </g>
                        <path d="M111.077961,94.8152737 C111.20783,94.8328305 111.302705,94.941752 111.306101,95.0681159 L111.303767,95.1107818 L111.090469,96.6759668 L111.178597,96.9895458 C111.198749,97.0627525 111.219804,97.1401316 111.241634,97.2213646 C111.36632,97.6853357 111.490989,98.1802612 111.6074,98.6858371 C111.717163,99.1625446 111.813982,99.624941 111.894333,100.064472 L111.954076,100.403727 C112.253009,102.172921 112.232837,103.297158 111.706188,103.669581 C111.237836,104.000331 110.403711,104.007819 109.274071,103.796764 C108.892732,103.725517 108.489883,103.630583 108.075815,103.517753 C107.825291,103.449488 107.581248,103.377603 107.348658,103.304797 L107.120071,103.231784 C106.940094,103.173139 106.807382,103.127333 106.733835,103.100767 C106.59694,103.05132 106.526218,102.900722 106.575872,102.764398 C106.625526,102.628073 106.776755,102.557645 106.913649,102.607093 L107.146353,102.687259 L107.284066,102.732677 C107.575484,102.827633 107.889849,102.922628 108.214996,103.011227 C108.616074,103.120517 109.005269,103.212234 109.371312,103.280623 C110.361906,103.465699 111.09255,103.45914 111.401002,103.241312 C111.697033,103.031972 111.685486,101.854105 111.375516,100.158528 C111.296691,99.7273446 111.201473,99.2725926 111.093395,98.8032038 C111.007227,98.4289732 110.916412,98.0604087 110.824442,97.7062112 L110.700506,97.2398209 L110.56861,96.7686147 C110.561702,96.7450574 110.558162,96.7207112 110.558042,96.6962898 L110.560436,96.6596906 L110.781217,95.0401389 C110.798847,94.9108114 110.908224,94.8163315 111.035117,94.8129498 L111.077961,94.8152737 Z" id="Stroke-38" fill="#965C56" fill-rule="nonzero"></path>
                        <path d="M102.174495,97.2347128 C102.368469,97.2432348 102.518779,97.406735 102.510221,97.5999007 C102.479915,98.2839729 102.828861,98.8184526 103.219498,98.8353663 C103.610008,98.8526993 104.004244,98.3510251 104.034576,97.6663669 C104.043134,97.4732012 104.207318,97.3235179 104.401292,97.3320399 C104.595266,97.3405619 104.745575,97.5040621 104.737018,97.6972278 C104.691377,98.727434 104.027585,99.5721243 103.188573,99.5348839 C102.349586,99.4985582 101.762159,98.5987982 101.807779,97.5690397 C101.816337,97.375874 101.980521,97.2261908 102.174495,97.2347128 Z" id="Stroke-40" fill="#253368" fill-rule="nonzero"></path>
                        <path d="M113.864013,97.7464731 C114.057994,97.7548376 114.208438,97.9182156 114.200038,98.1113882 C114.170278,98.7958112 114.51884,99.3297882 114.909303,99.347139 C115.299813,99.3644721 115.694049,98.8627979 115.724381,98.1781396 C115.732938,97.9849739 115.897123,97.8352907 116.091097,97.8438127 C116.285071,97.8523347 116.43538,98.0158349 116.426822,98.2090006 C116.381182,99.2392068 115.71739,100.083897 114.877976,100.046639 C114.039392,100.009375 113.4528,99.1107492 113.497571,98.0810977 C113.505971,97.8879251 113.670032,97.7381086 113.864013,97.7464731 Z" id="Stroke-42" fill="#253368" fill-rule="nonzero"></path>
                        <path d="M94.2157776,105.365782 C94.3585806,105.337387 94.4974604,105.429651 94.5259741,105.571859 L94.5532605,105.694713 C94.5735116,105.780169 94.6024227,105.893766 94.6408613,106.032833 C94.7441674,106.406587 94.8789739,106.823807 95.0487977,107.273558 C95.5344217,108.559655 96.2023282,109.845908 97.0799909,111.045276 C100.133867,115.218545 104.871372,117.320661 111.675992,116.243759 L111.901234,116.17509 C112.083976,116.116731 112.287971,116.046503 112.507838,115.964419 C113.135877,115.729951 113.763732,115.448104 114.348027,115.119576 C115.489829,114.477583 116.318547,113.739586 116.704487,112.920502 C116.766345,112.789221 116.92336,112.732733 117.055191,112.794333 C117.187022,112.855933 117.243746,113.012295 117.181888,113.143576 C116.740432,114.080483 115.835667,114.886202 114.607301,115.576867 C113.996971,115.920033 113.344871,116.212764 112.692956,116.456146 C112.521868,116.520019 112.359851,116.577039 112.209136,116.627233 L111.937854,116.713942 C111.881791,116.730863 111.833773,116.744385 111.788544,116.755914 C104.752764,117.871221 99.8212452,115.683017 96.6538029,111.354555 C95.7461049,110.114142 95.0566251,108.786343 94.5551963,107.458389 C94.3795516,106.993222 94.2398576,106.560876 94.1324261,106.172197 L94.0807282,105.978623 L94.0199592,105.726806 C94.014996,105.704433 94.0113081,105.687003 94.0088384,105.674686 C93.9803247,105.532478 94.0729745,105.394177 94.2157776,105.365782 Z" id="Stroke-44" fill="#965C56" fill-rule="nonzero"></path>
                        <path d="M107.951141,112.792484 C108.079648,112.724273 108.23935,112.772719 108.307846,112.90069 C108.365274,113.007982 108.447594,113.191748 108.529154,113.433193 C108.737053,114.048649 108.815106,114.684078 108.683455,115.288606 C108.53085,115.989355 108.105366,116.57467 107.371436,116.992581 C107.245021,117.064564 107.083944,117.020865 107.01166,116.894977 C106.939376,116.769088 106.983258,116.608682 107.109673,116.536699 C107.712862,116.193234 108.046928,115.733677 108.168092,115.177306 C108.276516,114.67943 108.209526,114.134068 108.029332,113.600627 C107.957832,113.388963 107.887094,113.231052 107.842482,113.147704 C107.773986,113.019732 107.822634,112.860695 107.951141,112.792484 Z" id="Stroke-46" fill="#965C56" fill-rule="nonzero"></path>
                        <path d="M88.9112109,97.2427749 C88.9112109,97.2427749 88.7213672,95.6421284 90.1444922,96.2597007 C91.5669141,96.8779731 91.2469922,98.2335513 90.8982422,99.4028774 C90.5361328,100.616316 90.9973828,101.370426 92.1005859,101.640702" id="Fill-48" fill="#EFADAB"></path>
                        <path d="M105.353648,108.441139 C105.322008,108.59098 105.174352,108.686907 105.02318,108.655398 C104.872711,108.62389 104.777086,108.476148 104.808727,108.326307 C104.840367,108.176465 104.988023,108.080538 105.138492,108.112047 C105.288961,108.144256 105.385289,108.291297 105.353648,108.441139" id="Fill-50" fill="#D18682"></path>
                        <path d="M101.129063,109.301329 C101.097422,109.45117 100.949062,109.547097 100.798594,109.515588 C100.648125,109.484079 100.551797,109.336338 100.584141,109.186496 C100.615781,109.036655 100.763438,108.940728 100.913906,108.972937 C101.064375,109.004446 101.160703,109.151487 101.129063,109.301329" id="Fill-52" fill="#D18682"></path>
                        <path d="M114.550594,110.796736 C114.597703,110.942376 114.517547,111.09922 114.371297,111.146133 C114.225047,111.193046 114.067547,111.113224 114.020437,110.966883 C113.973328,110.821242 114.053484,110.665099 114.199734,110.618186 C114.345984,110.570573 114.503484,110.651095 114.550594,110.796736" id="Fill-54" fill="#D18682"></path>
                        <path d="M117.221273,109.585818 C117.268383,109.731458 117.188227,109.888302 117.041977,109.935215 C116.895727,109.982128 116.738227,109.902306 116.691117,109.756666 C116.644008,109.610325 116.724164,109.454181 116.870414,109.407268 C117.016664,109.359655 117.174164,109.440177 117.221273,109.585818" id="Fill-56" fill="#D18682"></path>
                        <path d="M112.24793,111.504843 C112.295039,111.650484 112.214883,111.807328 112.068633,111.854241 C111.922383,111.901154 111.764883,111.821331 111.717773,111.675691 C111.670664,111.52935 111.75082,111.373206 111.89707,111.326293 C112.04332,111.27868 112.20082,111.359203 112.24793,111.504843" id="Fill-58" fill="#D18682"></path>
                        <path d="M109.027898,110.726646 C109.075008,110.872287 108.994852,111.02913 108.848602,111.076044 C108.702352,111.122957 108.544852,111.043134 108.497742,110.897494 C108.450633,110.751853 108.530789,110.595009 108.677039,110.548096 C108.823289,110.501183 108.980789,110.581005 109.027898,110.726646" id="Fill-60" fill="#D18682"></path>
                        <path d="M97.936875,108.019551 C97.9839844,108.165192 97.9038281,108.322035 97.7575781,108.368948 C97.6113281,108.415862 97.4538281,108.336039 97.4067187,108.190399 C97.3596094,108.044758 97.4397656,107.887914 97.5860156,107.841001 C97.7322656,107.794088 97.8897656,107.87391 97.936875,108.019551" id="Fill-62" fill="#D18682"></path>
                        <path d="M103.082203,112.239558 C103.050563,112.3894 102.902203,112.485327 102.751734,112.453818 C102.601266,112.421609 102.504938,112.274568 102.537281,112.124726 C102.568922,111.974884 102.716578,111.878958 102.867047,111.910466 C103.017516,111.942675 103.113844,112.089716 103.082203,112.239558" id="Fill-64" fill="#D18682"></path>
                        <path d="M105.260625,111.904165 C105.228984,112.054006 105.081328,112.149933 104.930156,112.118424 C104.779688,112.086215 104.683359,111.939174 104.715703,111.789333 C104.747344,111.639491 104.895,111.543564 105.045469,111.575073 C105.195937,111.607282 105.292266,111.754323 105.260625,111.904165" id="Fill-66" fill="#D18682"></path>
                        <path d="M113.949422,113.032039 C113.917781,113.181881 113.770125,113.277808 113.618953,113.246299 C113.468484,113.21479 113.372859,113.067049 113.4045,112.917207 C113.436141,112.767365 113.583797,112.671439 113.734266,112.703648 C113.885438,112.735156 113.981063,112.882197 113.949422,113.032039" id="Fill-68" fill="#D18682"></path>
                        <path d="M112.712414,109.697219 C112.680773,109.847061 112.533117,109.942987 112.381945,109.911479 C112.231477,109.87997 112.135148,109.732229 112.167492,109.582387 C112.199133,109.432545 112.346789,109.336618 112.497258,109.368827 C112.647727,109.400336 112.744055,109.547377 112.712414,109.697219" id="Fill-70" fill="#D18682"></path>
                        <path d="M113.836781,106.969608 C113.805141,107.11945 113.657484,107.215377 113.506313,107.183868 C113.355844,107.151659 113.259516,107.004618 113.291859,106.854776 C113.3235,106.704934 113.471156,106.609008 113.621625,106.640516 C113.772094,106.672725 113.868422,106.819766 113.836781,106.969608" id="Fill-72" fill="#D18682"></path>
                        <path d="M100.778906,111.017297 C100.747266,111.167139 100.598906,111.263066 100.448437,111.231557 C100.297969,111.199348 100.201641,111.052307 100.233984,110.902465 C100.265625,110.752623 100.413281,110.656697 100.56375,110.688205 C100.714219,110.720414 100.810547,110.867455 100.778906,111.017297" id="Fill-74" fill="#D18682"></path>
                        <path d="M119.390414,124.500118 L117.093305,118.647886 L112.157367,119.567942 L108.831586,129.757184 L102.46057,119.407598 L89.2987734,117.402938 L85.6031484,124.500118 C85.6031484,124.500118 97.7222109,139.646743 113.055258,135.803371 C120.630023,133.904441 119.390414,124.500118 119.390414,124.500118" id="Fill-76" fill="#597EF7"></path>
                        <path d="M133.165898,208.548903 C110.543555,205.663398 85.2465234,207.316559 85.2465234,207.316559 L86.1380859,200.990994 C86.1380859,200.990994 114.88957,197.328973 132.645586,202.063694 C133.054102,205.09694 133.165898,208.548903 133.165898,208.548903" id="Fill-78" fill="#253368"></path>
                        <path d="M111.400921,207.48897 C111.602725,207.490587 111.768087,207.642254 111.791,207.836813 L111.793629,207.89526 L111.773109,209.492383 L111.745884,211.035745 C111.717604,212.486365 111.679726,214.055449 111.630827,215.719322 L111.615825,216.221304 C111.437118,222.103722 111.158336,227.986313 110.758565,233.522597 L110.682185,234.556508 C110.032555,243.15346 109.138918,250.089922 107.961812,254.778496 C107.908785,254.989711 107.693858,255.118126 107.481759,255.06532 C107.26966,255.012514 107.140707,254.798482 107.193735,254.587267 C108.357299,249.95263 109.246186,243.053031 109.892698,234.497346 C110.306742,229.018053 110.598882,223.16918 110.789844,217.298405 L110.853763,215.200797 C110.895734,213.722986 110.928905,212.323801 110.954313,211.02052 L110.990651,208.856768 L111.002004,207.88017 C111.003699,207.66246 111.182301,207.487341 111.400921,207.48897 Z" id="Stroke-80" fill="#253368" fill-rule="nonzero"></path>
                        <path d="M120.016313,207.784777 C120.23494,207.785193 120.411836,207.962021 120.411425,208.179737 L120.404635,209.304941 L120.387004,210.930947 C120.378699,211.561379 120.368329,212.224257 120.355652,212.914514 C120.295884,216.16888 120.196825,219.423366 120.049785,222.496281 L120.008487,223.32971 C119.553475,232.201239 118.811347,237.638854 117.531141,238.630794 C116.747117,239.237913 115.745021,239.858605 114.574469,240.483576 C113.552966,241.028969 112.460301,241.547708 111.367856,242.023254 L110.922821,242.214509 C110.779212,242.275414 110.640528,242.333427 110.507347,242.388412 L109.907773,242.62996 C109.703924,242.708646 109.474617,242.60787 109.395602,242.40487 C109.316587,242.20187 109.417785,241.973519 109.621634,241.894833 L109.80188,241.823723 L110.012163,241.738818 C110.325335,241.611316 110.674554,241.464597 111.050748,241.300838 C112.125201,240.833124 113.199435,240.323135 114.200369,239.788725 C115.33487,239.183002 116.301314,238.584391 117.04505,238.00847 C118.027327,237.247375 118.787634,231.676554 119.217798,223.289494 C119.38731,219.984469 119.49901,216.442355 119.564066,212.900097 L119.590131,211.301994 C119.597428,210.788524 119.603375,210.295152 119.608094,209.824473 L119.619388,208.283925 L119.619704,208.178242 C119.620118,207.960526 119.797686,207.784367 120.016313,207.784777 Z" id="Stroke-82" fill="#253368" fill-rule="nonzero"></path>
                        <path d="M105.602906,206.513925 L105.602906,200.195362 C105.602906,199.369832 106.235016,198.694144 107.035172,198.670337 C109.688766,198.591215 115.585875,198.520495 120.93525,199.196184 C121.681266,199.29001 122.244469,199.937691 122.244469,200.712807 L122.244469,206.653264 C122.244469,207.503301 121.575797,208.188792 120.751031,208.178989 C117.718453,208.141879 110.810953,208.059956 107.070328,208.03895 C106.256109,208.034749 105.602906,207.352759 105.602906,206.513925" id="Fill-84" fill="#E1E7F3"></path>
                        <path d="M107.319164,205.423301 L107.32057,201.240334 C107.321273,200.694882 107.836664,200.247457 108.489867,200.232053 C110.654789,200.180238 115.46557,200.136126 119.829867,200.584251 C120.438773,200.647269 120.897914,201.076488 120.897914,201.589031 L120.896508,205.521328 C120.896508,206.083585 120.35018,206.537312 119.677992,206.53031 C117.203695,206.505103 111.567445,206.448387 108.516586,206.432982 C107.85143,206.430182 107.319164,205.978556 107.319164,205.423301" id="Fill-86" fill="#253368"></path>
                        <polygon id="Fill-88" fill="#E1E7F3" points="120.851227 199.777276 106.802789 206.020917 107.382867 207.292472 121.548023 200.933298"></polygon>
                        <polygon id="Fill-90" fill="#E1E7F3" points="121.454789 205.820592 107.374008 199.64977 106.817836 200.932528 121.062445 207.111052"></polygon>
                        <path d="M92.4396389,207.789317 C92.4917212,207.577868 92.706072,207.448501 92.9184049,207.500366 C93.1307377,207.552232 93.2606465,207.765689 93.2085642,207.977137 L93.1720017,208.117813 C93.1422305,208.22914 93.1063074,208.357864 93.0641255,208.502547 C92.9440469,208.914412 92.7976697,209.372722 92.6241132,209.865973 C92.1281792,211.275429 91.5131063,212.68517 90.7708581,214.00364 C88.3587483,218.288319 85.1839547,220.662718 81.1731241,220.035952 C80.9571401,220.002201 80.8095259,219.80048 80.8434185,219.585396 C80.8773112,219.370312 81.0798762,219.223313 81.2958603,219.257064 C84.9055158,219.821138 87.8118474,217.64752 90.0802602,213.618093 C90.7979644,212.343221 91.3951917,210.974381 91.8769352,209.605256 C92.0174607,209.205879 92.1395206,208.830476 92.2435477,208.485791 L92.3715541,208.045215 C92.4035512,207.930193 92.4261828,207.843947 92.4396389,207.789317 Z" id="Stroke-92" fill="#253368" fill-rule="nonzero"></path>
                        <path d="M112.554338,246.727729 C112.665731,246.561825 112.881591,246.507147 113.056783,246.592398 L113.103445,246.619138 L123.833836,253.763931 C124.015579,253.884945 124.0644,254.129764 123.942881,254.31075 C123.831488,254.476655 123.615628,254.531332 123.440436,254.446082 L123.393774,254.419341 L112.663383,247.274548 C112.481639,247.153535 112.432818,246.908716 112.554338,246.727729 Z" id="Stroke-94" fill="#253368" fill-rule="nonzero"></path>
                        <path d="M108.747619,245.881526 C108.91238,245.767908 109.133328,245.795934 109.264879,245.939262 L109.298431,245.981191 L113.209212,251.605159 C113.333678,251.784149 113.28887,252.029728 113.109131,252.153676 C112.94437,252.267294 112.723422,252.239268 112.591871,252.09594 L112.558319,252.054011 L108.647538,246.430043 C108.523072,246.251053 108.56788,246.005473 108.747619,245.881526 Z" id="Stroke-96" fill="#253368" fill-rule="nonzero"></path>
                        <path d="M87.9999834,124.646892 C88.0579578,124.526552 88.1942196,124.46884 88.3187754,124.505265 L88.359737,124.520936 L96.9526276,128.626181 C97.0868981,128.690329 97.1435264,128.850725 97.0791104,128.984436 C97.021136,129.104776 96.8848741,129.162488 96.7603183,129.126063 L96.7193567,129.110392 L88.1264661,125.005147 C87.9921956,124.940999 87.9355674,124.780603 87.9999834,124.646892 Z" id="Stroke-98" fill="#1D39C4" fill-rule="nonzero"></path>
                        <path d="M129.98796,209.179592 C130.206069,209.164614 130.395075,209.328546 130.410117,209.545747 L130.436347,209.85441 C130.442288,209.917915 130.448901,209.985693 130.456217,210.057559 C130.498138,210.469361 130.554096,210.928692 130.625945,211.423548 C130.83109,212.836469 131.121966,214.248869 131.512574,215.563728 C132.556607,219.078138 134.100746,221.21591 136.168393,221.374423 C136.386375,221.391134 136.549481,221.580654 136.532699,221.797728 C136.515918,222.014802 136.325605,222.177228 136.107623,222.160517 C133.602182,221.968441 131.88221,219.587238 130.75338,215.787388 C130.350827,214.43232 130.052571,212.984084 129.842375,211.53637 C129.781108,211.114397 129.731102,210.717419 129.691243,210.352283 L129.639289,209.831771 L129.620274,209.59999 C129.605232,209.38279 129.769851,209.194571 129.98796,209.179592 Z" id="Stroke-100" fill="#253368" fill-rule="nonzero"></path>
                        <path d="M106.326846,111.120967 L108.83208,111.293289 C108.977563,111.303296 109.090336,111.496691 109.083966,111.725248 C109.078234,111.930949 108.977949,112.095026 108.851892,112.11849 L108.809013,112.120967 L106.303779,111.948645 C106.158297,111.938638 106.045523,111.745244 106.051893,111.516687 C106.057626,111.310986 106.15791,111.146908 106.283967,111.123445 L106.326846,111.120967 Z" id="Stroke-102" fill="#965C56" fill-rule="nonzero"></path>
                        <path d="M86.743125,151.629676 C87.8217188,146.649186 89.235,133.288059 75.943125,129.364165 C65.3132813,126.22659 60.721875,132.870043 57.4474219,139.195607 C51.8175,150.073842 48.954375,163.733252 45.8001563,182.263221 C45.8001563,182.263221 42.9321094,197.983305 58.1385937,200.684659 C71.0078906,202.970096 74.4180469,190.167725 74.4180469,190.167725 C74.4180469,190.167725 85.5098438,157.321563 86.743125,151.629676" id="Fill-104" fill="#FFC2BD"></path>
                        <path d="M79.7960391,174.092641 C81.4863516,169.070841 88.3488516,151.579962 88.7369766,149.786762 C89.8162734,144.806272 90.3499453,132.176149 77.0573672,128.252255 C66.4282266,125.113979 60.2210391,131.188874 57.0654141,137.573955 C54.8906484,141.976083 49.3387734,161.113121 48.9126797,165.155348 L79.7960391,174.092641 Z" id="Fill-106" fill="#597EF7"></path>
                        <path d="M70.8512364,128.89395 C70.9008444,128.754117 71.0548904,128.680809 71.1953077,128.73021 L71.3560092,128.792397 C71.4814704,128.843423 71.6263104,128.906718 71.7889131,128.983052 C72.2507129,129.199844 72.7641025,129.478019 73.3161241,129.823746 C74.8890513,130.808859 76.4604251,132.13804 77.9258804,133.860304 C80.0640782,136.373203 81.7907286,139.510291 82.9587213,143.338461 C83.0020148,143.480359 82.9215994,143.630339 82.7791085,143.673452 C82.6366177,143.716565 82.4860097,143.636485 82.4427162,143.494588 C81.2962497,139.736971 79.6053347,136.664809 77.51443,134.207491 C76.0859668,132.528702 74.5567136,131.235149 73.0290139,130.278362 C72.495816,129.944424 72.0015019,129.676585 71.5589522,129.46883 L71.3415984,129.369918 C71.3076607,129.354996 71.2748837,129.340848 71.2432928,129.327462 L71.0316367,129.242365 C71.0253515,129.240045 71.020022,129.238122 71.015661,129.236587 C70.8752437,129.187186 70.8016283,129.033782 70.8512364,128.89395 Z" id="Stroke-108" fill="#1D39C4" fill-rule="nonzero"></path>
                        <path d="M120.974133,203.27041 C108.397336,202.8762 76.9121016,205.905945 60.0033516,202.459584 C60.0033516,202.459584 42.4723359,198.434161 46.0512422,183.065574 C49.5415547,168.080694 67.2455391,173.056282 67.2455391,173.056282 C87.1763203,178.199217 113.719289,184.223697 124.93343,186.710091 C124.93343,186.710091 128.455383,186.422311 128.101008,194.070544 C127.681242,203.145075 120.974133,203.27041 120.974133,203.27041" id="Fill-110" fill="#FFC2BD"></path>
                        <path d="M109.042328,131.862668 C109.18535,131.821337 109.334938,131.903291 109.376442,132.045718 L109.466148,132.366385 L109.554889,132.6964 C109.585669,132.812699 109.617607,132.935215 109.650574,133.063707 L109.700779,133.260899 C109.94319,134.220262 110.185538,135.281336 110.411726,136.414401 C110.945619,139.088887 111.306242,141.738244 111.413847,144.216965 C111.485477,145.866983 111.441515,147.395086 111.268011,148.7772 C111.249538,148.924357 111.114769,149.028738 110.966996,149.010342 C110.819224,148.991945 110.714406,148.857738 110.73288,148.710581 C110.902344,147.360644 110.945459,145.861978 110.875053,144.24016 C110.768773,141.791955 110.411706,139.168717 109.882779,136.519113 C109.683367,135.520175 109.471296,134.577681 109.257864,133.712661 L109.177785,133.391951 C109.110552,133.125873 109.047186,132.883175 108.988716,132.66577 L108.858511,132.19539 C108.817008,132.052963 108.899305,131.903998 109.042328,131.862668 Z" id="Stroke-112" fill="#1D39C4" fill-rule="nonzero"></path>
                        <path d="M85.132416,153.852399 C85.2779863,153.883689 85.3705226,154.026571 85.3391017,154.171534 L85.2348008,154.641284 C84.3133512,158.71057 81.3542042,170.046064 80.0514151,173.914951 C80.0107691,174.035657 79.8919208,174.10924 79.7687917,174.096796 L79.722562,174.088021 L48.8392026,165.414001 C48.6958715,165.373745 48.6124496,165.225401 48.6528746,165.082668 C48.689257,164.954207 48.8135559,164.874071 48.9425402,164.888675 L48.9855943,164.897116 L79.6204688,173.50093 L79.7742799,173.025203 C81.1821792,168.581186 83.9190267,158.054143 84.7441334,154.365826 L84.8119451,154.058223 C84.840224,153.927756 84.9592704,153.840067 85.0889176,153.846644 L85.132416,153.852399 Z" id="Stroke-114" fill="#1D39C4" fill-rule="nonzero"></path>
                        <path d="M123.092789,205.950478 L133.266305,174.258238 C133.434352,173.735892 133.918102,173.378792 134.469352,173.37179 L162.997242,172.986562 C163.88318,172.97478 164.51318,173.841621 164.225602,174.675554 L153.605602,205.526159 C153.434742,206.022598 152.976305,206.363593 152.450367,206.3867 L124.368258,207.612742 C123.478102,207.651952 122.821383,206.795614 123.092789,205.950478" id="Fill-116" fill="#7B8DAF"></path>
                        <path d="M124.596563,205.56383 L134.592891,174.424044 C134.796094,173.791767 135.3825,173.359047 136.049063,173.349944 L164.929219,172.960563 C165.549375,172.952933 165.990234,173.558602 165.789141,174.142565 L155.021484,205.41889 C154.832344,205.968543 154.324688,206.346648 153.7425,206.371855 L126.142031,207.576892 C125.063438,207.624505 124.2675,206.587516 124.596563,205.56383" id="Fill-118" fill="#253368"></path>
                        <path d="M138.50318,176.350841 C138.825914,176.708641 138.709898,177.336716 138.243727,177.754733 C137.777555,178.172049 137.137711,178.220363 136.814977,177.863263 C136.491539,177.505463 136.607555,176.876688 137.07443,176.459372 C137.540602,176.042055 138.180445,175.993042 138.50318,176.350841" id="Fill-120" fill="#4E5C93"></path>
                        <path d="M138.120047,176.724886 C138.287391,176.910437 138.227625,177.236728 137.98575,177.453789 C137.743172,177.670149 137.411297,177.695356 137.24325,177.509805 C137.075906,177.324253 137.136375,176.997962 137.37825,176.781601 C137.620125,176.564541 137.952,176.539334 138.120047,176.724886" id="Fill-122" fill="#E1E7F3"></path>
                        <path d="M143.302852,198.847697 C145.353867,198.314848 145.608398,196.572762 145.133789,194.875489 C147.513867,193.690758 146.894414,191.620981 146.894414,191.620981 C146.894414,191.620981 151.707305,190.780046 152.190352,188.597537 C152.377383,187.749601 151.628555,186.99409 150.760195,187.072512 C140.312461,188.019876 132.066211,183.738182 132.066211,183.738182 C132.066211,183.738182 135.176133,177.148644 134.306367,174.474598 C134.049023,173.684077 132.942305,173.591652 132.549961,174.324756 C129.186914,180.603408 120.710742,185.747042 120.710742,185.747042 C120.710742,185.747042 106.246758,199.737645 118.070508,202.307362 C118.070508,202.307362 134.844961,205.150855 141.298945,201.518942 C143.771133,200.128354 143.302852,198.847697 143.302852,198.847697" id="Fill-124" fill="#FFC2BD"></path>
                        <path d="M147.713052,191.330863 C147.851854,191.287005 148.000078,191.363503 148.04412,191.501727 C148.088163,191.639951 148.011344,191.787558 147.872542,191.831416 L147.672464,191.890684 C147.60676,191.909314 147.529583,191.930595 147.44159,191.954057 C147.101131,192.044835 146.718573,192.13551 146.302227,192.220102 C144.741876,192.537131 143.154404,192.684732 141.667016,192.56812 C140.776251,192.498283 139.953556,192.333972 139.213196,192.063628 C139.076475,192.013705 139.006282,191.862861 139.056415,191.726711 C139.106547,191.59056 139.258021,191.520659 139.394742,191.570583 C140.086835,191.823302 140.862944,191.978309 141.708405,192.044593 C143.140022,192.156833 144.680814,192.013572 146.196806,191.705556 C146.602347,191.623159 146.974638,191.534918 147.305198,191.446779 L147.635312,191.354562 C147.666561,191.34529 147.69254,191.337344 147.713052,191.330863 Z" id="Stroke-126" fill="#965C56" fill-rule="nonzero"></path>
                        <path d="M145.119868,194.630373 C145.243537,194.553805 145.40612,194.591571 145.483008,194.714724 C145.559896,194.837878 145.521973,194.999784 145.398304,195.076352 L145.279487,195.145971 C145.213152,195.183323 145.129052,195.228771 145.028281,195.280506 C144.73701,195.430043 144.406592,195.579286 144.042824,195.718492 C142.316557,196.379097 140.504574,196.588214 138.768631,196.069007 C138.629164,196.027294 138.55006,195.880888 138.591949,195.742002 C138.633837,195.603116 138.780854,195.524342 138.920322,195.566056 C140.52794,196.046881 142.226946,195.850803 143.853662,195.228294 C144.198748,195.096237 144.511794,194.954841 144.786637,194.813738 L144.968473,194.71744 C145.036566,194.680094 145.08741,194.650469 145.119868,194.630373 Z" id="Stroke-128" fill="#965C56" fill-rule="nonzero"></path>
                        <path d="M142.853199,198.775372 C142.89331,198.914777 142.812343,199.060169 142.672354,199.100113 L142.305047,199.200812 L142.175038,199.235324 C141.791654,199.336366 141.384898,199.437398 140.972243,199.531749 C140.635184,199.608816 140.30828,199.678124 139.996461,199.737762 L139.66909,199.797852 C138.660297,199.974688 137.918215,200.022208 137.495899,199.896014 C137.356421,199.854336 137.27728,199.707951 137.319132,199.569054 C137.360985,199.430157 137.507982,199.351346 137.64746,199.393024 C138.000715,199.498581 138.810091,199.429923 139.896997,199.222041 C140.202222,199.163664 140.523028,199.095649 140.854235,199.01992 C141.159161,198.950201 141.461081,198.876713 141.752491,198.802288 L142.16818,198.693661 L142.527099,198.595281 C142.667088,198.555337 142.813088,198.635966 142.853199,198.775372 Z" id="Stroke-130" fill="#965C56" fill-rule="nonzero"></path>
                        <path d="M178.60943,129.172801 C178.60943,129.172801 186.794508,104.148521 196.964508,97.3642763 C200.082164,97.3475241 197.33857,101.369446 195.314977,104.651261 C194.279977,106.328929 193.642242,108.421813 193.642242,108.421813 C193.642242,108.421813 197.891227,107.825247 197.226773,111.307318 C200.639742,111.011135 199.564664,114.705366 199.564664,114.705366 C199.564664,114.705366 202.193648,114.604538 201.499664,118.024292 C201.282398,119.09419 197.528414,135.138466 189.052242,138.296346 C184.465758,140.004823 180.03818,134.110579 178.60943,129.172801" id="Fill-132" fill="#FFC2BD"></path>
                        <path d="M187.679745,110.79544 C188.352905,107.734163 189.613344,106.441765 190.751994,107.392767 C191.732779,108.211919 192.000745,110.424446 191.233823,112.478051 L191.081993,112.88945 C189.73741,116.577966 189.684076,118.022031 190.379467,119.553253 L190.509174,119.825372 C190.795785,120.415462 190.920891,120.763433 190.983438,121.273662 C191.395288,124.637032 190.143195,127.764386 186.296203,128.93377 C186.169367,128.972325 186.035161,128.901188 185.996445,128.77488 C185.957729,128.648573 186.029164,128.514926 186.156,128.476372 C189.733697,127.388846 190.893682,124.49155 190.506738,121.331581 C190.456584,120.922441 190.360275,120.632098 190.140048,120.165464 L190.026043,119.929173 C189.159157,118.146346 189.197638,116.559542 190.7837,112.311372 C191.48679,110.428691 191.244515,108.428286 190.443393,107.759188 C189.740613,107.172225 188.829534,108.057063 188.206853,110.630356 L188.134957,110.940899 L184.720582,118.862909 C184.668278,118.984264 184.527088,119.040418 184.405225,118.988332 C184.296903,118.942033 184.240313,118.825796 184.265809,118.715306 L184.279278,118.674289 L187.679745,110.79544 Z" id="Stroke-134" fill="#965C56" fill-rule="nonzero"></path>
                        <path d="M197.008548,111.207929 C197.063785,111.08787 197.206298,111.035135 197.32686,111.090142 C197.447421,111.145149 197.500377,111.287068 197.44514,111.407127 L197.33269,111.644639 L197.187833,111.941242 C197.136447,112.044991 197.082028,112.153402 197.024782,112.265812 C196.697564,112.908356 196.345006,113.551014 195.980008,114.151738 C195.537485,114.880055 195.10665,115.496668 194.696469,115.967461 C194.036903,116.724489 193.444267,117.096095 192.900161,116.961174 C191.476013,116.608081 191.029329,115.631196 191.362027,114.311795 C191.482094,113.835636 191.698122,113.333671 191.982476,112.823435 C192.138245,112.543927 192.304889,112.27932 192.471629,112.037517 L192.564459,111.905199 C192.620981,111.826115 192.666242,111.765687 192.697043,111.72632 C192.77855,111.622148 192.929426,111.603498 193.034034,111.684665 C193.138642,111.765832 193.15737,111.916079 193.075863,112.020252 L192.992,112.132169 C192.956821,112.180516 192.91487,112.239555 192.867511,112.308234 C192.708927,112.538211 192.550247,112.790171 192.40238,113.0555 C192.136686,113.532253 191.936369,113.997712 191.827801,114.428267 C191.554675,115.51142 191.876139,116.214453 193.016191,116.497109 C193.323897,116.573411 193.784213,116.284775 194.333733,115.654053 C194.7233,115.206921 195.139559,114.611169 195.569132,113.904167 C195.927287,113.314705 196.274293,112.682165 196.596477,112.049509 L196.757068,111.729838 L196.995017,111.237124 C197.000233,111.225934 197.004748,111.216188 197.008548,111.207929 Z" id="Stroke-136" fill="#965C56" fill-rule="nonzero"></path>
                        <path d="M199.182777,114.819092 C199.221485,114.692782 199.355687,114.621636 199.482525,114.660183 C199.609363,114.69873 199.680806,114.832373 199.642098,114.958682 L199.577381,115.155117 C199.524771,115.308542 199.46242,115.479211 199.390517,115.662867 C199.185009,116.187782 198.94371,116.712863 198.667661,117.204395 C197.839368,118.679249 196.874926,119.563693 195.752119,119.524388 C194.626895,119.485689 194.083105,118.802263 194.018714,117.751575 C193.994941,117.363668 194.037546,116.953593 194.122798,116.549452 C194.138856,116.473325 194.155694,116.401167 194.17282,116.333637 L194.219746,116.16193 C194.225825,116.141406 194.230886,116.125109 194.234723,116.113319 C194.275613,115.987693 194.411028,115.918863 194.537179,115.959583 C194.663331,116.000303 194.732448,116.135153 194.691558,116.260779 L194.668116,116.338376 C194.64635,116.414954 194.619643,116.520394 194.592774,116.647766 C194.515644,117.013408 194.477251,117.382948 194.498056,117.722442 C194.548718,118.54909 194.921259,119.017294 195.768842,119.046444 C196.656183,119.077507 197.500109,118.303583 198.248523,116.970961 C198.512726,116.500522 198.745074,115.994919 198.943086,115.489151 C198.995082,115.356339 199.041846,115.230716 199.083271,115.114108 L199.154148,114.908032 C199.167347,114.868203 199.176907,114.838246 199.182777,114.819092 Z" id="Stroke-138" fill="#965C56" fill-rule="nonzero"></path>
                        <path d="M201.618091,117.283665 C201.747886,117.310746 201.83106,117.43748 201.803866,117.566734 L201.783761,117.65582 L201.762094,117.745352 C201.727674,117.884345 201.685854,118.038908 201.636409,118.205214 C201.495047,118.68068 201.32054,119.156373 201.110542,119.602084 C200.359633,121.195854 199.345231,122.037513 198.041116,121.62099 C197.067374,121.31022 196.692694,120.665418 196.839105,119.840491 C196.905134,119.468465 197.072466,119.080883 197.309434,118.691029 C197.416075,118.515585 197.530049,118.351131 197.644142,118.20189 L197.750957,118.066745 C197.770492,118.042987 197.786993,118.023555 197.8,118.008733 C197.887265,117.909294 198.038956,117.899129 198.138811,117.98603 C198.238667,118.072931 198.248874,118.22399 198.161609,118.323429 L198.093298,118.405757 C198.073581,118.430391 198.051074,118.459099 198.026247,118.491575 C197.921923,118.628038 197.817481,118.778738 197.720267,118.938672 C197.511383,119.282322 197.36614,119.618741 197.31201,119.923726 C197.206769,120.516688 197.446338,120.928973 198.187731,121.165589 C199.190202,121.48577 200.015004,120.801423 200.675783,119.39895 C200.874502,118.977179 201.04096,118.523426 201.175933,118.069447 C201.211388,117.950198 201.242701,117.837413 201.269943,117.732745 L201.323484,117.515374 C201.328007,117.495643 201.331455,117.479991 201.333837,117.468666 C201.35801,117.353774 201.46125,117.275564 201.575053,117.278622 L201.618091,117.283665 Z" id="Stroke-140" fill="#965C56" fill-rule="nonzero"></path>
                        <path d="M197.381493,121.167474 C197.506764,121.124141 197.643591,121.190143 197.687104,121.314892 C197.730618,121.439641 197.66434,121.575897 197.539069,121.619229 L197.422534,121.662669 C197.387625,121.676255 197.34689,121.69248 197.300697,121.711376 C197.106226,121.790927 196.889011,121.888224 196.654785,122.003761 C195.984903,122.334195 195.314924,122.743662 194.690636,123.235601 C193.012157,124.558243 191.972912,126.218465 191.871194,128.248974 C191.864587,128.380871 191.75186,128.48246 191.619411,128.47588 C191.486963,128.4693 191.384949,128.357043 191.391556,128.225147 C191.500995,126.040505 192.614378,124.261847 194.392638,122.860577 C195.045257,122.346313 195.743393,121.919638 196.441625,121.57522 C196.637317,121.47869 196.822005,121.394188 196.992788,121.321405 L197.118224,121.26901 C197.24216,121.218312 197.331808,121.18466 197.381493,121.167474 Z" id="Stroke-142" fill="#965C56" fill-rule="nonzero"></path>
                        <path d="M70.0778589,173.832042 L120.769656,185.490994 C120.911543,185.523627 120.999999,185.664625 120.967229,185.80592 C120.937736,185.933087 120.820101,186.017154 120.693433,186.008907 L120.650985,186.002671 L69.959188,174.343718 C69.8173011,174.311085 69.7288445,174.170088 69.7616146,174.028792 C69.7911076,173.901626 69.9087427,173.817558 70.0354103,173.825806 L70.0778589,173.832042 Z" id="Stroke-144" fill="#965C56" fill-rule="nonzero"></path>
                    </g>
                </g>
            </g>
        </g>
    </g>
</svg>