<?xml version="1.0" encoding="UTF-8"?>
<svg width="20px" height="20px" viewBox="0 0 20 20" version="1.1" xmlns="http://www.w3.org/2000/svg" xmlns:xlink="http://www.w3.org/1999/xlink">
    <title>sc 实时计算（流计算）</title>
    <defs>
        <filter id="filter-1">
            <feColorMatrix in="SourceGraphic" type="matrix" values="0 0 0 0 0.254902 0 0 0 0 0.384314 0 0 0 0 0.921569 0 0 0 1.000000 0"></feColorMatrix>
        </filter>
    </defs>
    <g id="页面-1" stroke="none" stroke-width="1" fill="none" fill-rule="evenodd">
        <g id="东云官网-合作伙伴" transform="translate(-564.000000, -942.000000)">
            <g id="金融行业" transform="translate(360.000000, 524.000000)">
                <g id="中国银行" transform="translate(0.000000, 75.000000)">
                    <g id="sc-实时计算（流计算）" transform="translate(192.000000, 331.000000)" filter="url(#filter-1)">
                        <g transform="translate(12.000000, 12.000000)">
                            <rect id="矩形" fill="#000000" fill-rule="nonzero" opacity="0" x="0" y="0" width="20" height="20"></rect>
                            <path d="M17.4166667,1.29166666 C18.125,1.29166666 18.7083333,1.875 18.7083333,2.58333334 C18.7083333,3.29166666 18.125,3.875 17.4166667,3.875 C16.7083333,3.875 16.125,3.29166666 16.125,2.58333334 C16.0833333,1.875 16.6666667,1.29166666 17.4166667,1.29166666 M5.45833334,8.58333334 L0.66666666,8.58333334 C0.5,8.58333334 0.33333332,8.66666668 0.20833334,8.79166666 C0.0833333398,8.91666666 0,9.08333332 0,9.25 C0,9.625 0.29166666,9.875 0.66666666,9.875 L5.45833334,9.875 C7.04166668,9.875 8.375,8.625 8.45833334,7.04166666 L11.25,7.04166666 C11.5416667,7.75 12.25,8.29166666 13.0833333,8.29166666 C14.1666667,8.29166666 15.0416667,7.41666666 15.0416667,6.375 C15.0416667,5.29166666 14.1666667,4.45833334 13.0833333,4.45833334 C12.2083333,4.45833334 11.5,5 11.25,5.79166666 L8.5,5.79166666 L8.5,4.875 C8.5,3.95833334 9.25,3.20833334 10.1666667,3.20833334 L14.9166667,3.20833334 C15.2083333,4.33333334 16.2083333,5.125 17.4166667,5.125 C18.8333333,5.125 20,3.95833334 20,2.54166666 C20,1.16666666 18.8333333,0 17.4166667,0 C16.2083333,0 15.2083333,0.83333334 14.9166667,1.91666666 L10.125,1.91666666 C8.45833334,1.91666666 7.125,3.25 7.125,4.875 L7.125,5.79166666 L0.66666666,5.79166666 C0.5,5.79166666 0.33333332,5.875 0.20833334,6 C0.0833333594,6.125 0,6.25 0,6.41666666 C0,6.79166666 0.29166666,7.04166666 0.66666666,7.04166666 L7.16666666,7.04166666 C7.08333332,7.91666666 6.33333332,8.58333332 5.45833334,8.58333334 M0.66666666,12.9583333 L8.875,12.9583333 C9.16666666,13.6666667 9.875,14.2083333 10.7083333,14.2083333 C11.7916667,14.2083333 12.6666667,13.3333333 12.6666667,12.2916667 C12.6666667,11.25 11.7916667,10.375 10.7083333,10.375 C9.83333334,10.375 9.125,10.9166667 8.875,11.7083333 L0.66666666,11.7083333 C0.5,11.7083333 0.33333332,11.7916667 0.20833334,11.9166667 C0.0833333594,12.0416666 0,12.125 0,12.2916667 C0,12.6666667 0.29166666,12.9583333 0.66666666,12.9583333 M17.4166667,18.7083333 C16.7083333,18.7083333 16.125,18.125 16.125,17.4166667 C16.125,16.7083333 16.7083333,16.125 17.4166667,16.125 C18.125,16.125 18.7083333,16.7083333 18.7083333,17.4166667 C18.7083333,18.125 18.125,18.7083333 17.4166667,18.7083333 M17.4166667,14.875 C16.2083333,14.875 15.2083333,15.7083333 14.9166667,16.7916667 L13.5,16.7916667 C12.625,16.7916667 11.75,16.5833333 10.9583333,16.2083333 L8.75,15.1666667 C7.79166666,14.7083333 6.70833334,14.4583333 5.66666666,14.4583333 L0.66666666,14.4583333 C0.5,14.4583333 0.33333332,14.5416667 0.20833334,14.6666667 C0.0833333398,14.7916667 0,14.9583333 0,15.125 C0,15.5 0.29166666,15.75 0.66666666,15.75 L5.66666666,15.75 C6.54166666,15.75 7.41666666,15.9583333 8.20833334,16.3333333 L10.375,17.375 C11.3333333,17.8333333 12.4166667,18.0833333 13.4583333,18.0833333 L14.875,18.0833333 C15.1666667,19.2083333 16.1666667,20 17.375,20 C18.7916667,20 19.9583333,18.8333333 19.9583333,17.4166667 C20,16 18.8333333,14.875 17.4166667,14.875" id="形状" fill="#4D3CFF" fill-rule="nonzero"></path>
                        </g>
                    </g>
                </g>
            </g>
        </g>
    </g>
</svg>