<?xml version="1.0" encoding="UTF-8"?>
<svg width="20px" height="20px" viewBox="0 0 20 20" version="1.1" xmlns="http://www.w3.org/2000/svg" xmlns:xlink="http://www.w3.org/1999/xlink">
    <title>云端,云服务</title>
    <defs>
        <filter id="filter-1">
            <feColorMatrix in="SourceGraphic" type="matrix" values="0 0 0 0 0.254902 0 0 0 0 0.384314 0 0 0 0 0.921569 0 0 0 1.000000 0"></feColorMatrix>
        </filter>
    </defs>
    <g id="页面-1" stroke="none" stroke-width="1" fill="none" fill-rule="evenodd">
        <g id="东云官网-合作伙伴" transform="translate(-398.000000, -943.000000)">
            <g id="金融行业" transform="translate(360.000000, 524.000000)">
                <g id="中国银行" transform="translate(0.000000, 75.000000)">
                    <g id="云端,云服务" transform="translate(25.000000, 331.000000)" filter="url(#filter-1)">
                        <g transform="translate(13.000000, 13.000000)">
                            <rect id="矩形" fill="#000000" fill-rule="nonzero" opacity="0" x="0" y="0" width="20" height="20"></rect>
                            <path d="M17.8253733,12.1867479 C16.9016022,12.1808888 16.1106354,12.7472601 15.7844836,13.551898 C15.7356585,13.6710312 15.6223843,13.7491514 15.493486,13.7491514 L14.9993758,13.7491514 C14.3099653,13.7491514 13.749453,13.1886391 13.749453,12.4992286 L13.749453,11.2688357 C15.9915021,11.0833003 17.7570181,9.16154393 17.7570181,6.81793857 C17.7570181,4.44113215 15.8411208,2.50375172 13.4272072,2.3650884 C12.7143606,0.964784199 11.2339832,0 9.5153393,0 C7.21274705,0 5.33200375,1.73036195 5.16795137,3.92358596 C3.4746965,4.39230703 2.24235068,5.8258123 2.24235068,7.52297318 C2.24235068,9.52480275 3.95708859,11.1692325 6.12101756,11.2844598 L6.24991584,11.2844598 L6.24991584,12.4992286 C6.24991584,13.1886391 5.68940355,13.7491514 4.99999299,13.7491514 L4.50588285,13.7491514 C4.37698455,13.7491514 4.26371029,13.6710312 4.2148852,13.551898 C3.88873346,12.7472601 3.09581363,12.1808888 2.17399553,12.1867479 C0.94750873,12.1945599 -0.0407115234,13.2237932 0.00225457031,14.45028 C0.0413146484,15.6220827 1.00414586,16.5614779 2.18766656,16.5614779 C3.10753166,16.5614779 3.89263945,15.9951066 4.2168382,15.1924217 C4.26371031,15.0752414 4.37893758,14.9990743 4.50588285,14.9990743 L4.99999299,14.9990743 C6.38076715,14.9990743 7.49983869,13.8800027 7.49983869,12.4992286 L7.49983869,11.4407001 C7.49983869,11.3547679 7.57014686,11.2844598 7.65607906,11.2844598 L9.21848264,11.2844598 C9.30441482,11.2844598 9.37472299,11.3547679 9.37472299,11.4407001 L9.37472299,15.4951374 C9.37472299,15.6240357 9.29660281,15.73731 9.17746953,15.7861351 C8.3728317,16.1122868 7.80646039,16.9052066 7.81231941,17.8270247 C7.82013143,19.0535115 8.85131779,20.0397788 10.0758516,19.9987657 C11.2496073,19.9597056 12.1870494,18.9949214 12.1870494,17.8133537 C12.1870494,16.8934886 11.6206781,16.1083808 10.8179933,15.7841821 C10.700813,15.73731 10.6246458,15.6220827 10.6246458,15.4951374 L10.6246458,11.4407001 C10.6246458,11.3547679 10.694954,11.2844598 10.7808862,11.2844598 L12.3432898,11.2844598 C12.429222,11.2844598 12.4995301,11.3547679 12.4995301,11.4407001 L12.4995301,12.4992286 C12.4995301,13.8800027 13.6186017,14.9990743 14.9993758,14.9990743 L15.493486,14.9990743 C15.6204313,14.9990743 15.7356585,15.0752414 15.7825306,15.1924217 C16.1067294,15.9951065 16.8918372,16.5614779 17.8117023,16.5614779 C18.995223,16.5614779 19.9580542,15.6220827 19.9971143,14.45028 C20.0400804,13.2237932 19.0518601,12.1945599 17.8253733,12.1867479 Z M2.18766656,15.311555 C1.67012037,15.311555 1.25022441,14.891659 1.25022441,14.3741129 C1.25022441,13.8565667 1.67012037,13.4366707 2.18766656,13.4366707 C2.70521275,13.4366707 3.12510871,13.8565667 3.12510871,14.3741129 C3.12510871,14.891659 2.70521275,15.311555 2.18766656,15.311555 Z M10.9371266,17.8114007 C10.9371266,18.3289469 10.5172306,18.7488429 9.99968441,18.7488429 C9.48213822,18.7488429 9.06224227,18.3289469 9.06224227,17.8114007 C9.06224227,17.2938545 9.48213822,16.8739586 9.99968441,16.8739586 C10.5172306,16.8739586 10.9371266,17.2938545 10.9371266,17.8114007 Z M17.8117023,15.311555 C17.2941561,15.311555 16.8742601,14.891659 16.8742601,14.3741129 C16.8742601,13.8565667 17.2941561,13.4366707 17.8117023,13.4366707 C18.3292485,13.4366707 18.7491444,13.8565667 18.7491444,14.3741129 C18.7491444,14.891659 18.3292485,15.311555 17.8117023,15.311555 Z" id="形状" fill="#000000" fill-rule="nonzero"></path>
                        </g>
                    </g>
                </g>
            </g>
        </g>
    </g>
</svg>