<?xml version="1.0" encoding="UTF-8"?>
<svg width="232px" height="60px" viewBox="0 0 232 60" version="1.1" xmlns="http://www.w3.org/2000/svg" xmlns:xlink="http://www.w3.org/1999/xlink">
    <!-- Generator: Sketch 53.2 (72643) - https://sketchapp.com -->
    <title>02.中国银行</title>
    <desc>Created with Sketch.</desc>
    <defs>
        <polygon id="path-1" points="0.000194599242 0.792 45.717975 0.792 45.717975 46.4999635 0.000194599242 46.4999635"></polygon>
    </defs>
    <g id="02.中国银行" stroke="none" stroke-width="1" fill="none" fill-rule="evenodd">
        <g transform="translate(0.000000, -25.000000)">
            <rect id="矩形复制" x="0" y="0" width="232" height="110"></rect>
            <g id="编组" transform="translate(39.000000, 32.000000)">
                <g transform="translate(0.000000, 0.708300)">
                    <mask id="mask-2" fill="white">
                        <use xlink:href="#path-1"></use>
                    </mask>
                    <g id="Clip-2"></g>
                    <path d="M25.66065,41.0919 L25.66065,34.9959 C25.66065,34.1964 25.27065,32.9334 26.28765,32.8689 C27.53265,32.7894 28.80015,33.0219 30.02265,32.6859 C32.59965,31.9809 33.73815,29.6664 33.73815,27.1704 L33.73815,24.2514 L33.73815,21.2259 C33.73815,19.6944 33.88815,18.1569 33.04665,16.7904 C31.71615,14.6274 29.56665,14.2794 27.25365,14.2794 C26.94165,14.2794 26.00265,14.4354 25.77165,14.2404 C25.50315,14.0019 25.66065,13.3254 25.66065,13.0194 L25.66065,5.9979 C34.16715,7.3554 40.54215,15.0849 40.54215,23.6499 C40.54215,32.2209 34.12515,39.7404 25.66065,41.0919 M17.69565,27.8754 C16.85415,27.8754 17.19015,25.9314 17.19015,25.4004 L17.19015,22.4019 L17.19015,20.7774 C17.19015,20.3769 17.04465,19.7244 17.27565,19.3794 C17.65065,18.8394 19.60215,19.1559 20.21265,19.1559 L25.98315,19.1559 C26.56965,19.1559 28.56465,18.8124 28.71465,19.5609 C28.91265,20.4639 28.72515,21.6264 28.72515,22.5534 L28.72515,26.5569 C28.72515,27.2454 28.83765,27.8754 27.97965,27.8754 L25.70265,27.8754 L17.69565,27.8754 M5.16765,23.6499 C5.16765,15.0894 11.54115,7.3524 20.04615,5.9979 L20.04615,12.1239 C20.04615,12.6834 20.24565,13.6224 20.00415,14.1309 C19.80615,14.5254 17.91015,14.2794 17.47515,14.2794 C15.02865,14.2794 12.66465,15.7284 12.07215,18.2304 C11.81415,19.3239 11.97015,20.5944 11.97015,21.7179 C11.97015,23.7429 11.90415,25.7814 11.97015,27.8064 C11.97015,29.5884 12.93915,31.2744 14.47515,32.1789 C15.56865,32.8194 16.73415,32.8689 17.95815,32.8689 C18.53715,32.8689 19.83315,32.5779 20.04615,33.2319 C20.21115,33.7314 20.04615,34.6659 20.04615,35.1954 L20.04615,37.1619 L20.04615,41.0904 C11.58315,39.7389 5.16765,32.2194 5.16765,23.6499 M22.85415,0.7914 C10.95465,0.7914 0.78615,10.3179 0.04365,22.2024 C-0.69885,34.0854 8.16015,44.8449 19.98765,46.3269 C31.80315,47.8074 43.10415,39.6294 45.31365,27.9114 C46.39065,22.1919 45.30615,16.0179 42.17865,11.0949 C39.14415,6.3204 34.29015,2.9109 28.81815,1.5264 C26.87265,1.0329 24.86415,0.7914 22.85415,0.7914" id="Fill-1" fill="#9A1F24" mask="url(#mask-2)"></path>
                </g>
                <g transform="translate(54.000000, 3.708300)">
                    <path d="M6.8667,11.53875 C6.4662,11.79075 6.0762,12.06525 5.7102,12.36375 C5.5137,12.52275 4.8717,12.90825 4.8237,13.11525 C4.7292,13.50675 4.8657,13.93575 5.0712,14.26725 C5.3382,14.69475 5.8812,14.84325 6.0597,15.27075 C6.5097,16.34925 6.9582,15.04725 7.0452,14.43975 C7.1607,13.64775 7.5927,12.13725 6.8667,11.53875 M12.6117,4.58925 C11.9772,3.79275 11.3442,2.99625 10.7097,2.19825 C10.3797,1.78275 10.1352,1.25775 9.5757,1.16475 C8.8062,1.03575 8.5107,1.68975 8.1402,2.21475 C7.7727,2.73375 8.2887,3.43125 8.0937,4.10475 C7.8267,5.03475 7.7277,6.03075 7.6362,6.99225 C7.5762,7.63425 7.5327,8.28075 7.4997,8.92725 C7.3527,9.17325 6.8592,9.41475 6.6357,9.57825 C6.2952,9.83025 3.6147,11.88975 3.3822,11.63025 C3.0222,11.22525 2.6442,10.82025 2.2137,10.48575 C1.8822,10.22625 1.4247,10.11675 1.1802,9.75075 C0.6972,9.02925 0.4002,8.76225 0.4527,9.94575 C0.4287,11.85825 1.1337,13.66575 2.1777,15.25125 C2.7972,16.19175 3.4092,17.15775 4.5207,17.51325 C4.7412,17.58375 6.0462,17.93775 6.0942,17.71125 C6.1422,17.48925 6.1587,17.10525 6.2697,16.90875 C6.8742,15.83025 6.8832,17.82375 6.9117,18.17925 C7.0017,19.24575 6.9447,20.63625 7.3662,21.61875 C7.9392,22.95525 7.8207,24.36975 7.8612,25.78875 C7.8732,26.24175 8.8632,27.67575 9.3027,26.97075 C9.3417,26.78325 8.7222,26.10225 8.6487,25.91175 C8.6547,25.94025 8.6547,25.96725 8.6502,25.99575 C8.3487,25.43625 8.3892,24.41025 8.2992,23.80425 C8.2647,23.57475 7.8477,20.60475 8.2287,20.66625 C8.2887,20.67525 8.3577,21.48825 8.2467,21.44475 C8.3052,22.16475 8.4072,22.88325 8.5032,23.60025 C8.6142,24.42525 8.8977,25.07475 9.1137,25.86075 C9.1917,26.05275 9.1197,26.50125 9.5007,26.42025 C9.8802,26.34225 9.5922,26.23275 9.7722,25.92225 C9.8277,25.83075 10.5477,25.63125 10.5132,25.61775 C10.9692,25.79325 11.0022,25.08225 11.0022,24.82575 C10.9467,23.92275 10.6512,23.39625 11.1117,22.51725 C11.4777,21.83325 11.6592,20.68875 11.8092,19.93575 C12.0102,18.93225 12.4272,17.97075 12.6087,16.97775 C12.7287,16.32675 12.7962,15.75225 13.0002,15.12225 C13.0527,14.95875 13.0767,14.60625 13.2627,14.59425 C13.5912,14.57325 14.4312,14.55675 14.5782,14.15775 C14.7072,13.87275 14.4792,13.63275 14.7732,13.29375 C14.8527,13.20225 15.4812,12.81825 15.1242,12.69825 C14.9067,12.62925 14.2842,12.75675 14.2272,12.57975 C14.0832,12.10875 14.1672,11.59275 14.5092,11.22975 C15.1827,10.51125 15.7752,10.00725 16.2792,9.10875 C16.7487,8.26725 17.6217,7.55925 17.8977,6.65625 C18.2637,5.46675 17.5152,5.34375 16.4682,5.30325 C15.5022,5.26575 14.7567,5.56425 13.9032,5.99325 C13.7067,6.09225 12.9117,6.56775 12.9117,6.00825 C12.6852,5.67075 12.6117,4.98225 12.6117,4.58925 M12.4497,8.12025 C13.2777,7.33125 14.6292,6.50775 15.8232,6.78825 C16.6812,7.34475 15.3432,9.17175 14.9937,9.68775 C14.6427,10.20675 12.8787,12.47625 12.6027,10.80975 C12.4512,9.88875 12.2967,9.04425 12.4497,8.12025 M9.4377,21.07575 C9.4092,20.77725 9.6342,19.87575 9.9762,20.50725 C10.2267,20.96775 10.1502,21.56625 10.1847,22.07025 C10.2297,22.75125 10.1607,23.36175 9.9792,24.00825 C9.9117,24.25275 9.8847,24.55575 10.0557,24.76425 C10.1532,24.88275 10.5432,24.92775 10.4652,25.13625 C10.3647,25.40175 9.6087,25.02075 9.4932,24.91275 C9.0807,24.53175 9.2517,23.84325 9.2442,23.33775 C9.2337,22.80225 9.1947,22.24725 9.5082,21.90525 C9.7092,21.68925 9.4077,21.34125 9.4377,21.07575" id="Fill-3" fill="#040000"></path>
                    <path d="M6.8667,11.53875 C6.4662,11.79075 6.0762,12.06525 5.7102,12.36375 C5.5137,12.52275 4.8717,12.90825 4.8237,13.11525 C4.7292,13.50675 4.8657,13.93575 5.0712,14.26725 C5.3382,14.69475 5.8812,14.84325 6.0597,15.27075 C6.5097,16.34925 6.9582,15.04725 7.0452,14.43975 C7.1607,13.64775 7.5927,12.13725 6.8667,11.53875 M12.6117,4.58925 C11.9772,3.79275 11.3442,2.99625 10.7097,2.19825 C10.3797,1.78275 10.1352,1.25775 9.5757,1.16475 C8.8062,1.03575 8.5107,1.68975 8.1402,2.21475 C7.7727,2.73375 8.2887,3.43125 8.0937,4.10475 C7.8267,5.03475 7.7277,6.03075 7.6362,6.99225 C7.5762,7.63425 7.5327,8.28075 7.4997,8.92725 C7.3527,9.17325 6.8592,9.41475 6.6357,9.57825 C6.2952,9.83025 3.6147,11.88975 3.3822,11.63025 C3.0222,11.22525 2.6442,10.82025 2.2137,10.48575 C1.8822,10.22625 1.4247,10.11675 1.1802,9.75075 C0.6972,9.02925 0.4002,8.76225 0.4527,9.94575 C0.4287,11.85825 1.1337,13.66575 2.1777,15.25125 C2.7972,16.19175 3.4092,17.15775 4.5207,17.51325 C4.7412,17.58375 6.0462,17.93775 6.0942,17.71125 C6.1422,17.48925 6.1587,17.10525 6.2697,16.90875 C6.8742,15.83025 6.8832,17.82375 6.9117,18.17925 C7.0017,19.24575 6.9447,20.63625 7.3662,21.61875 C7.9392,22.95525 7.8207,24.36975 7.8612,25.78875 C7.8732,26.24175 8.8632,27.67575 9.3027,26.97075 C9.3417,26.78325 8.7222,26.10225 8.6487,25.91175 C8.6547,25.94025 8.6547,25.96725 8.6502,25.99575 C8.3487,25.43625 8.3892,24.41025 8.2992,23.80425 C8.2647,23.57475 7.8477,20.60475 8.2287,20.66625 C8.2887,20.67525 8.3577,21.48825 8.2467,21.44475 C8.3052,22.16475 8.4072,22.88325 8.5032,23.60025 C8.6142,24.42525 8.8977,25.07475 9.1137,25.86075 C9.1917,26.05275 9.1197,26.50125 9.5007,26.42025 C9.8802,26.34225 9.5922,26.23275 9.7722,25.92225 C9.8277,25.83075 10.5477,25.63125 10.5132,25.61775 C10.9692,25.79325 11.0022,25.08225 11.0022,24.82575 C10.9467,23.92275 10.6512,23.39625 11.1117,22.51725 C11.4777,21.83325 11.6592,20.68875 11.8092,19.93575 C12.0102,18.93225 12.4272,17.97075 12.6087,16.97775 C12.7287,16.32675 12.7962,15.75225 13.0002,15.12225 C13.0527,14.95875 13.0767,14.60625 13.2627,14.59425 C13.5912,14.57325 14.4312,14.55675 14.5782,14.15775 C14.7072,13.87275 14.4792,13.63275 14.7732,13.29375 C14.8527,13.20225 15.4812,12.81825 15.1242,12.69825 C14.9067,12.62925 14.2842,12.75675 14.2272,12.57975 C14.0832,12.10875 14.1672,11.59275 14.5092,11.22975 C15.1827,10.51125 15.7752,10.00725 16.2792,9.10875 C16.7487,8.26725 17.6217,7.55925 17.8977,6.65625 C18.2637,5.46675 17.5152,5.34375 16.4682,5.30325 C15.5022,5.26575 14.7567,5.56425 13.9032,5.99325 C13.7067,6.09225 12.9117,6.56775 12.9117,6.00825 C12.6852,5.67075 12.6117,4.98225 12.6117,4.58925 M12.4497,8.12025 C13.2777,7.33125 14.6292,6.50775 15.8232,6.78825 C16.6812,7.34475 15.3432,9.17175 14.9937,9.68775 C14.6427,10.20675 12.8787,12.47625 12.6027,10.80975 C12.4512,9.88875 12.2967,9.04425 12.4497,8.12025 M9.4377,21.07575 C9.4092,20.77725 9.6342,19.87575 9.9762,20.50725 C10.2267,20.96775 10.1502,21.56625 10.1847,22.07025 C10.2297,22.75125 10.1607,23.36175 9.9792,24.00825 C9.9117,24.25275 9.8847,24.55575 10.0557,24.76425 C10.1532,24.88275 10.5432,24.92775 10.4652,25.13625 C10.3647,25.40175 9.6087,25.02075 9.4932,24.91275 C9.0807,24.53175 9.2517,23.84325 9.2442,23.33775 C9.2337,22.80225 9.1947,22.24725 9.5082,21.90525 C9.7092,21.68925 9.4077,21.34125 9.4377,21.07575" id="Stroke-5" stroke="#040000" stroke-width="0.584766"></path>
                </g>
                <g transform="translate(76.500000, 3.708300)">
                    <path d="M9.87615,13.8048 C9.72015,13.5213 9.58515,12.1263 10.07265,12.8193 C10.19865,12.9978 10.43415,13.3578 10.33965,13.5933 C10.25715,13.8078 10.09065,14.1963 9.87615,13.8048 M9.38265,14.8578 C9.07365,15.3198 7.92015,15.7938 7.40715,15.9303 C6.45015,16.1853 6.95865,15.6153 7.24965,15.1323 C7.65465,14.4423 8.25015,13.8903 8.81715,13.3353 C9.00615,13.1493 9.48015,14.0178 9.54465,14.1453 C9.65415,14.3628 9.51315,14.6628 9.38265,14.8578 M8.86215,8.2368 C9.02565,8.1573 9.19365,8.0883 9.36615,8.0343 C9.25965,8.2653 9.02415,8.9823 8.71065,8.9283 C8.36415,8.8683 8.67465,8.3313 8.86215,8.2368 M15.45465,2.2023 C13.83315,0.2478 10.14315,1.6818 8.25165,2.4588 C7.03215,2.9598 6.01815,3.9318 5.24415,4.9788 C4.82715,5.5428 4.17315,6.7878 5.15865,7.2708 C5.51715,7.4508 6.15615,7.1433 6.08265,6.7368 C5.97465,6.1638 5.92515,5.6973 6.20865,5.1678 C6.88065,3.9123 7.89015,3.2463 9.20865,2.8143 C10.26765,2.4648 11.70465,1.8903 12.82815,2.0808 C14.15115,2.3043 15.25065,3.3843 15.81465,4.5498 C17.00415,7.0128 17.06415,10.0098 17.20065,12.6873 C17.33415,15.3168 17.13315,17.8428 16.70865,20.4408 C16.60215,21.0888 15.63015,21.9048 15.06165,22.1733 C14.11815,22.6143 12.69615,21.6813 11.71515,21.5808 C11.23065,21.5313 10.61415,21.6438 10.15215,21.4893 C9.53115,21.2838 10.58415,20.8218 10.70865,20.7693 C11.68665,20.3553 13.64865,21.4593 14.34315,20.4888 C14.61765,20.1063 14.97765,19.3983 14.88315,18.9168 C14.76615,18.2343 14.06715,18.5358 13.63815,18.6798 C12.36765,19.1058 11.09415,19.5243 9.80415,19.8933 C8.92815,20.1453 7.45665,20.6913 6.54165,20.4993 C6.46815,20.4843 7.95915,18.9963 8.11065,18.8463 C8.91465,18.0528 9.71265,17.2278 10.56615,16.4868 C10.96965,16.1298 11.67315,17.4753 11.93115,17.6883 C12.22515,17.9283 12.98865,18.5493 13.39665,18.2598 C13.76865,17.9973 13.97865,17.2323 14.12865,16.8333 C14.37315,16.1868 15.16815,14.5308 14.51115,13.9038 C14.79465,14.1843 13.76115,16.4373 13.56765,16.7748 C13.34565,17.1618 12.96915,17.4693 12.49515,17.3553 C11.89665,17.2113 11.73165,16.5753 11.38515,16.1538 C11.09115,15.7983 12.04665,14.9058 12.21465,14.6823 C12.77415,13.9263 14.21865,12.8088 14.16315,11.8038 C14.12415,11.0703 13.83165,10.6878 13.38765,11.4033 C13.04865,11.9523 12.67665,12.4638 12.36315,13.0293 C12.11265,13.4823 11.89965,14.0538 11.55765,14.4483 C11.18565,14.8878 10.56165,14.9328 11.02815,14.3058 C11.34165,13.8843 11.32815,13.4463 11.41815,12.9558 C11.52465,12.3948 10.85715,12.0588 10.49115,11.7903 C10.06365,11.4798 9.75615,10.9593 9.45315,10.5348 C9.06315,9.9918 9.04365,9.8178 9.39915,9.2823 C9.67965,8.8578 11.22315,6.6198 9.93765,6.6198 C9.39015,6.6198 8.86965,6.9093 8.38365,7.1253 C7.77315,7.3953 7.82565,7.1718 7.58565,6.6888 C7.39815,6.3123 7.10715,5.6883 6.76365,5.4333 C6.24315,5.0493 6.64665,6.0918 6.67365,6.1908 C6.82515,6.7038 6.99915,7.2528 7.07715,7.7793 C7.13865,8.2023 6.44265,8.7243 6.23865,9.0813 C5.66265,10.0893 7.53165,9.0258 7.68915,9.4038 C8.23965,10.7208 7.25565,11.0643 6.88665,12.1998 C6.81765,12.4083 6.43815,13.4238 6.87465,13.4733 C7.24215,13.5183 7.39965,12.8463 7.81665,12.9573 C8.01015,13.0068 6.44415,14.9613 6.29265,15.1833 C5.66115,16.1013 5.24565,16.8183 5.13015,17.9388 C5.02965,18.8868 6.72015,17.6703 7.06065,17.4828 C7.93815,17.0028 9.11715,16.4028 9.73515,15.5838 C10.01415,15.2073 10.38615,15.5433 10.26465,15.9213 C10.19715,16.1313 9.67965,16.3608 9.50865,16.4988 C8.70915,17.1438 8.02965,17.9058 7.30215,18.6288 C6.69165,19.2348 6.04665,19.9968 5.37015,20.5143 C5.05215,20.7573 4.29765,20.6808 3.91065,20.7303 C3.66915,20.7603 3.29565,21.3243 3.24015,20.9073 C3.12315,19.9833 3.06915,18.9903 3.07665,18.0543 C2.94615,18.2628 2.81865,18.5088 2.60415,18.6603 C2.65215,17.8038 2.49015,16.9338 2.52165,16.0668 C2.57415,14.5818 2.64615,13.0908 2.75415,11.6103 C2.83365,10.5153 2.96865,9.4293 3.16365,8.3493 C3.31515,7.5138 3.26865,6.3933 2.58315,7.7028 C1.40565,9.9468 1.48365,13.0053 1.39665,15.4773 C1.32165,17.5878 1.37565,19.7523 1.72965,21.8358 C1.86615,22.6323 2.13915,23.9448 3.14715,24.0213 C5.15715,24.1803 2.72415,22.3473 3.38265,21.7878 C3.56115,21.6378 4.47165,21.7788 4.71615,21.7773 C5.19615,21.7743 5.67765,21.7698 6.15765,21.7848 C7.64865,21.8343 9.15165,22.0353 10.57815,22.4823 C11.71515,22.8408 12.83115,23.3748 13.67115,24.2373 C14.10165,24.6798 14.34015,24.8943 14.85465,24.3693 C15.35415,23.8638 15.83565,23.3643 16.36515,22.8888 C17.03115,22.2888 17.79015,21.7908 17.92665,20.8563 C18.06765,19.8978 18.10515,18.9183 18.16515,17.9553 C18.32865,15.3813 18.47115,12.8643 18.21465,10.2933 C17.94465,7.5933 17.24265,4.3533 15.45465,2.2023" id="Fill-6" fill="#040000"></path>
                    <path d="M9.87615,13.8048 C9.72015,13.5213 9.58515,12.1263 10.07265,12.8193 C10.19865,12.9978 10.43415,13.3578 10.33965,13.5933 C10.25715,13.8078 10.09065,14.1963 9.87615,13.8048 M9.38265,14.8578 C9.07365,15.3198 7.92015,15.7938 7.40715,15.9303 C6.45015,16.1853 6.95865,15.6153 7.24965,15.1323 C7.65465,14.4423 8.25015,13.8903 8.81715,13.3353 C9.00615,13.1493 9.48015,14.0178 9.54465,14.1453 C9.65415,14.3628 9.51315,14.6628 9.38265,14.8578 M8.86215,8.2368 C9.02565,8.1573 9.19365,8.0883 9.36615,8.0343 C9.25965,8.2653 9.02415,8.9823 8.71065,8.9283 C8.36415,8.8683 8.67465,8.3313 8.86215,8.2368 M15.45465,2.2023 C13.83315,0.2478 10.14315,1.6818 8.25165,2.4588 C7.03215,2.9598 6.01815,3.9318 5.24415,4.9788 C4.82715,5.5428 4.17315,6.7878 5.15865,7.2708 C5.51715,7.4508 6.15615,7.1433 6.08265,6.7368 C5.97465,6.1638 5.92515,5.6973 6.20865,5.1678 C6.88065,3.9123 7.89015,3.2463 9.20865,2.8143 C10.26765,2.4648 11.70465,1.8903 12.82815,2.0808 C14.15115,2.3043 15.25065,3.3843 15.81465,4.5498 C17.00415,7.0128 17.06415,10.0098 17.20065,12.6873 C17.33415,15.3168 17.13315,17.8428 16.70865,20.4408 C16.60215,21.0888 15.63015,21.9048 15.06165,22.1733 C14.11815,22.6143 12.69615,21.6813 11.71515,21.5808 C11.23065,21.5313 10.61415,21.6438 10.15215,21.4893 C9.53115,21.2838 10.58415,20.8218 10.70865,20.7693 C11.68665,20.3553 13.64865,21.4593 14.34315,20.4888 C14.61765,20.1063 14.97765,19.3983 14.88315,18.9168 C14.76615,18.2343 14.06715,18.5358 13.63815,18.6798 C12.36765,19.1058 11.09415,19.5243 9.80415,19.8933 C8.92815,20.1453 7.45665,20.6913 6.54165,20.4993 C6.46815,20.4843 7.95915,18.9963 8.11065,18.8463 C8.91465,18.0528 9.71265,17.2278 10.56615,16.4868 C10.96965,16.1298 11.67315,17.4753 11.93115,17.6883 C12.22515,17.9283 12.98865,18.5493 13.39665,18.2598 C13.76865,17.9973 13.97865,17.2323 14.12865,16.8333 C14.37315,16.1868 15.16815,14.5308 14.51115,13.9038 C14.79465,14.1843 13.76115,16.4373 13.56765,16.7748 C13.34565,17.1618 12.96915,17.4693 12.49515,17.3553 C11.89665,17.2113 11.73165,16.5753 11.38515,16.1538 C11.09115,15.7983 12.04665,14.9058 12.21465,14.6823 C12.77415,13.9263 14.21865,12.8088 14.16315,11.8038 C14.12415,11.0703 13.83165,10.6878 13.38765,11.4033 C13.04865,11.9523 12.67665,12.4638 12.36315,13.0293 C12.11265,13.4823 11.89965,14.0538 11.55765,14.4483 C11.18565,14.8878 10.56165,14.9328 11.02815,14.3058 C11.34165,13.8843 11.32815,13.4463 11.41815,12.9558 C11.52465,12.3948 10.85715,12.0588 10.49115,11.7903 C10.06365,11.4798 9.75615,10.9593 9.45315,10.5348 C9.06315,9.9918 9.04365,9.8178 9.39915,9.2823 C9.67965,8.8578 11.22315,6.6198 9.93765,6.6198 C9.39015,6.6198 8.86965,6.9093 8.38365,7.1253 C7.77315,7.3953 7.82565,7.1718 7.58565,6.6888 C7.39815,6.3123 7.10715,5.6883 6.76365,5.4333 C6.24315,5.0493 6.64665,6.0918 6.67365,6.1908 C6.82515,6.7038 6.99915,7.2528 7.07715,7.7793 C7.13865,8.2023 6.44265,8.7243 6.23865,9.0813 C5.66265,10.0893 7.53165,9.0258 7.68915,9.4038 C8.23965,10.7208 7.25565,11.0643 6.88665,12.1998 C6.81765,12.4083 6.43815,13.4238 6.87465,13.4733 C7.24215,13.5183 7.39965,12.8463 7.81665,12.9573 C8.01015,13.0068 6.44415,14.9613 6.29265,15.1833 C5.66115,16.1013 5.24565,16.8183 5.13015,17.9388 C5.02965,18.8868 6.72015,17.6703 7.06065,17.4828 C7.93815,17.0028 9.11715,16.4028 9.73515,15.5838 C10.01415,15.2073 10.38615,15.5433 10.26465,15.9213 C10.19715,16.1313 9.67965,16.3608 9.50865,16.4988 C8.70915,17.1438 8.02965,17.9058 7.30215,18.6288 C6.69165,19.2348 6.04665,19.9968 5.37015,20.5143 C5.05215,20.7573 4.29765,20.6808 3.91065,20.7303 C3.66915,20.7603 3.29565,21.3243 3.24015,20.9073 C3.12315,19.9833 3.06915,18.9903 3.07665,18.0543 C2.94615,18.2628 2.81865,18.5088 2.60415,18.6603 C2.65215,17.8038 2.49015,16.9338 2.52165,16.0668 C2.57415,14.5818 2.64615,13.0908 2.75415,11.6103 C2.83365,10.5153 2.96865,9.4293 3.16365,8.3493 C3.31515,7.5138 3.26865,6.3933 2.58315,7.7028 C1.40565,9.9468 1.48365,13.0053 1.39665,15.4773 C1.32165,17.5878 1.37565,19.7523 1.72965,21.8358 C1.86615,22.6323 2.13915,23.9448 3.14715,24.0213 C5.15715,24.1803 2.72415,22.3473 3.38265,21.7878 C3.56115,21.6378 4.47165,21.7788 4.71615,21.7773 C5.19615,21.7743 5.67765,21.7698 6.15765,21.7848 C7.64865,21.8343 9.15165,22.0353 10.57815,22.4823 C11.71515,22.8408 12.83115,23.3748 13.67115,24.2373 C14.10165,24.6798 14.34015,24.8943 14.85465,24.3693 C15.35415,23.8638 15.83565,23.3643 16.36515,22.8888 C17.03115,22.2888 17.79015,21.7908 17.92665,20.8563 C18.06765,19.8978 18.10515,18.9183 18.16515,17.9553 C18.32865,15.3813 18.47115,12.8643 18.21465,10.2933 C17.94465,7.5933 17.24265,4.3533 15.45465,2.2023" id="Stroke-8" stroke="#040000" stroke-width="0.584766"></path>
                </g>
                <g transform="translate(87.000000, 9.708300)">
                    <path d="M2.0283,3.16425 C2.8578,3.16425 3.2403,2.31675 3.3828,1.61775 C3.5688,0.74475 2.8353,0.59025 2.1303,0.25425 C1.7343,0.06675 1.2738,0.02625 0.8418,0.03675 C0.3618,0.04725 0.3738,0.63225 0.3753,1.03275 C0.3813,2.12625 0.8073,3.16425 2.0283,3.16425" id="Fill-9" fill="#040000"></path>
                    <path d="M2.0283,3.16425 C2.8578,3.16425 3.2403,2.31675 3.3828,1.61775 C3.5688,0.74475 2.8353,0.59025 2.1303,0.25425 C1.7343,0.06675 1.2738,0.02625 0.8418,0.03675 C0.3618,0.04725 0.3738,0.63225 0.3753,1.03275 C0.3813,2.12625 0.8073,3.16425 2.0283,3.16425" id="Stroke-11" stroke="#040000" stroke-width="0.584766"></path>
                </g>
                <g transform="translate(100.500000, 5.208300)">
                    <path d="M3.69315,11.1549 C4.51965,9.4149 5.42265,7.6854 6.44415,6.0519 C6.81765,5.4519 7.23465,4.8639 7.75515,4.3794 C7.98465,4.1679 8.28015,3.9084 8.60565,3.8739 C9.01665,3.8304 9.40365,3.8844 9.73965,3.5979 C10.43715,2.9994 9.98265,2.4429 9.45465,1.8939 C9.19365,1.6224 8.89515,1.3794 8.56515,1.1919 C8.18415,0.9789 8.18115,1.2264 7.95465,1.5519 C6.84315,3.1599 5.92665,4.8474 5.09265,6.6144 C4.29165,8.3079 3.55215,10.0284 2.76465,11.7294 C2.42865,12.4569 2.08965,13.1859 1.73265,13.9029 C1.60665,14.1609 1.48365,14.4354 1.28565,14.6454 C1.04265,14.9019 0.67665,14.9064 0.46065,15.1944 C0.00315,15.8004 0.18465,16.6194 0.80265,17.0229 C1.57665,17.5284 1.45815,16.1349 1.57515,15.7239 C2.03715,14.1759 3.00165,12.6159 3.69315,11.1549" id="Fill-12" fill="#040000"></path>
                    <path d="M3.69315,11.1549 C4.51965,9.4149 5.42265,7.6854 6.44415,6.0519 C6.81765,5.4519 7.23465,4.8639 7.75515,4.3794 C7.98465,4.1679 8.28015,3.9084 8.60565,3.8739 C9.01665,3.8304 9.40365,3.8844 9.73965,3.5979 C10.43715,2.9994 9.98265,2.4429 9.45465,1.8939 C9.19365,1.6224 8.89515,1.3794 8.56515,1.1919 C8.18415,0.9789 8.18115,1.2264 7.95465,1.5519 C6.84315,3.1599 5.92665,4.8474 5.09265,6.6144 C4.29165,8.3079 3.55215,10.0284 2.76465,11.7294 C2.42865,12.4569 2.08965,13.1859 1.73265,13.9029 C1.60665,14.1609 1.48365,14.4354 1.28565,14.6454 C1.04265,14.9019 0.67665,14.9064 0.46065,15.1944 C0.00315,15.8004 0.18465,16.6194 0.80265,17.0229 C1.57665,17.5284 1.45815,16.1349 1.57515,15.7239 C2.03715,14.1759 3.00165,12.6159 3.69315,11.1549" id="Stroke-14" stroke="#040000" stroke-width="0.584766"></path>
                </g>
                <g transform="translate(108.000000, 9.708300)">
                    <path d="M1.2483,0.4893 C1.1538,0.7713 1.0548,1.0833 1.0548,1.3848 C1.0548,1.8603 1.2783,2.1633 1.0323,2.6328 C0.9498,2.7903 0.7218,2.9688 0.6948,3.1518 C0.6168,3.6813 1.3638,3.0123 1.4013,2.9793 C1.7538,2.6628 2.1393,2.5023 2.5983,2.3988 C2.9688,2.3178 3.2568,2.4363 3.2043,2.0268 C3.0573,0.8718 2.3538,0.3993 1.2483,0.4893" id="Fill-15" fill="#040000"></path>
                    <path d="M1.2483,0.4893 C1.1538,0.7713 1.0548,1.0833 1.0548,1.3848 C1.0548,1.8603 1.2783,2.1633 1.0323,2.6328 C0.9498,2.7903 0.7218,2.9688 0.6948,3.1518 C0.6168,3.6813 1.3638,3.0123 1.4013,2.9793 C1.7538,2.6628 2.1393,2.5023 2.5983,2.3988 C2.9688,2.3178 3.2568,2.4363 3.2043,2.0268 C3.0573,0.8718 2.3538,0.3993 1.2483,0.4893" id="Stroke-17" stroke="#040000" stroke-width="0.584766"></path>
                </g>
                <g transform="translate(102.000000, 6.708300)">
                    <path d="M17.0115,15.4791 C16.65,15.9741 16.14,15.5991 15.8415,15.2616 C16.281,15.1446 16.6215,14.9631 16.9905,14.7051 C17.586,14.2896 17.154,15.2796 17.0115,15.4791 M15.2295,17.9376 C14.877,18.3801 14.193,18.7041 13.725,19.0011 C13.158,19.3596 12.504,19.8111 11.847,19.9671 C10.44,20.2986 10.6995,17.0721 10.812,16.3416 C10.848,16.1211 10.785,15.3456 11.0955,15.4041 C11.3145,15.4461 11.382,15.6621 11.55,15.7761 C11.877,16.0026 12.2295,15.9516 12.597,16.0266 C13.0785,16.1271 15.774,17.2491 15.2295,17.9376 M3.6885,18.1326 C2.0025,18.0546 3.5655,17.2191 3.984,16.5411 C4.2795,16.4991 4.23,16.9101 4.2645,17.1231 C4.347,17.6376 4.08,17.8506 3.6885,18.1326 M4.2495,13.2486 C4.3995,13.3971 4.143,13.8381 4.0335,13.7001 C3.8985,13.5411 4.0965,13.0971 4.2495,13.2486 M5.3205,15.7446 C5.5635,15.5901 7.0185,14.6121 7.2945,15.0666 C7.4775,15.3651 5.637,16.8726 5.3565,17.0856 C5.157,16.7886 5.1225,16.0581 5.3205,15.7446 M12.744,6.8691 C12.744,5.7486 13.407,4.2501 14.124,3.4116 C14.577,2.8806 15.1575,2.4471 15.7455,2.0736 C16.6785,1.4826 16.521,2.2326 16.293,2.9316 C16.068,3.6381 15.867,4.3521 15.6615,5.0676 C15.474,5.7231 15.4215,5.8371 14.8905,6.2766 C14.397,6.6891 13.8945,7.0776 13.3725,7.4526 C12.7425,7.9086 12.744,7.4901 12.744,6.8691 M14.787,10.8666 C14.5275,11.1891 14.3055,11.4621 13.8945,11.5686 C13.569,11.6526 12.8295,11.9601 13.059,11.3241 C13.1715,11.0136 13.4025,10.5051 13.611,10.2531 C13.8405,9.9756 14.211,10.6881 14.3205,10.1406 C14.595,10.2741 14.7285,10.5726 14.787,10.8666 M22.5105,18.0261 C21.3495,17.6706 20.2215,17.2116 19.062,16.8486 C18.6375,16.7136 18.0915,16.6806 17.73,16.3941 C17.148,15.9456 17.667,15.7461 17.8965,15.2976 C18.045,15.0066 18.0495,14.7246 18.255,14.4321 C18.6195,13.9116 19.032,13.4781 19.5225,13.0776 C19.7835,12.8676 20.52,12.6921 20.4705,12.2571 C20.373,11.4666 19.224,12.2841 19.017,12.4866 C17.019,14.4336 14.574,14.5191 11.9265,14.1816 C11.7525,14.1606 11.244,14.4486 11.1975,14.3766 C11.043,14.1426 11.2515,13.4436 11.2815,13.1976 C11.358,12.5916 11.4645,11.9946 11.622,11.4021 C11.751,10.9116 11.895,9.8691 12.3795,9.5766 C12.6945,9.3891 12.93,9.4761 13.1835,9.2001 C13.557,8.7921 13.5585,9.3486 13.3455,9.6246 C12.681,10.4811 11.8095,11.8551 11.8095,12.9711 C11.8095,13.7496 11.9055,13.9056 12.6195,13.4481 C13.1595,13.1016 13.6635,12.7176 14.2485,12.4446 C14.6625,12.2481 15.1575,12.1356 15.5505,11.9121 C15.978,11.6691 15.48,10.6071 15.261,10.3326 C15.0195,10.0356 14.655,9.9666 14.6505,9.4971 C14.6475,9.1041 15.147,8.4006 15.33,8.0586 C15.978,6.8541 16.0635,5.5896 16.5045,4.3146 C16.7055,3.7341 16.881,3.1641 17.031,2.5701 C17.151,2.1006 17.565,1.5831 17.4405,1.1091 C17.3655,0.8466 17.607,-0.0939 16.8765,0.3786 C16.2615,0.7761 15.636,1.2336 15.0645,1.6941 C14.8965,1.8276 12.942,3.6861 13.0155,3.7116 C12.666,3.5811 12.258,2.8521 12.0915,3.6711 C11.9865,4.1871 11.7135,4.6071 11.5095,5.0886 C10.9665,6.3741 10.5825,7.7421 10.2795,9.0996 C9.9885,10.4016 9.843,11.7426 9.678,13.0656 C9.597,13.7136 9.5385,14.3631 9.4785,15.0141 C9.3975,15.8826 9.3495,15.9546 8.724,16.5636 C7.617,17.6436 6.5775,18.9726 5.136,19.6221 C4.7265,19.8066 3.834,20.1471 4.3215,19.4166 C4.539,19.0881 4.6335,19.2336 4.9995,19.1811 C5.2575,19.1451 5.1525,18.6951 5.2125,18.5196 C5.3505,18.1101 6.15,17.6976 6.4575,17.4216 C7.074,16.8636 7.638,16.2501 8.1975,15.6351 C8.556,15.2391 8.8305,14.4381 7.9995,14.2776 C7.6755,14.2176 7.326,14.2131 7.0005,14.2611 C6.7965,14.2896 6.2475,14.5671 6.06,14.4156 C6.147,14.4861 6.9255,13.3236 6.987,13.1166 C7.053,12.8991 6.705,11.4741 6.567,11.5641 C6.4065,11.6691 6.2475,12.1026 6.0915,12.2511 C6.0465,12.2961 5.505,12.6966 5.4675,12.7056 C5.1795,12.7956 5.2395,11.6826 5.3205,11.5521 C5.514,11.2311 5.67,10.9581 6.021,10.7841 C6.924,10.3431 7.002,9.9141 6.264,9.2121 C5.991,8.9526 6.132,8.6781 5.721,8.5896 C5.3625,8.5116 5.2215,8.6511 4.938,8.8296 C4.3395,9.2061 3.2175,9.6591 3.681,10.4796 C4.0245,11.0871 4.137,11.2026 3.6645,11.8041 C3.033,12.5991 2.334,13.4241 2.727,14.4501 C2.9235,14.9631 2.8245,15.6336 3.4815,15.6441 C3.012,16.3566 2.3625,16.9266 1.734,17.4951 C1.3845,17.8131 -0.39,18.8856 0.8925,19.3056 C1.7895,19.5981 1.9905,18.2316 2.6445,18.0906 C2.826,18.0516 3.2025,18.2901 3.3735,18.3486 C3.8265,18.5076 4.221,18.2781 3.756,18.8691 C3.498,19.1976 2.556,19.8561 2.5215,20.2671 C2.4165,21.5001 2.82,21.4116 3.837,21.1941 C5.9535,20.7426 7.2345,19.4796 8.691,18.0066 C9.426,17.2611 9.261,18.9561 9.291,19.3596 C9.3765,20.5266 10.161,21.3426 11.373,21.3486 C12.522,21.3531 13.4715,20.4576 14.253,19.7196 C14.586,19.4046 14.9565,19.1031 15.2415,18.7446 C15.4245,18.5136 15.5265,18.1206 15.738,17.9361 C16.338,17.4066 17.3895,18.4866 17.943,18.7626 C18.8295,19.2081 19.7985,19.2711 20.7675,19.1571 C21.5625,19.0626 22.3605,18.9261 23.145,18.7731 C23.3805,18.7266 23.946,18.6381 23.5815,18.2796 C23.403,18.0951 22.7505,18.0981 22.5105,18.0261" id="Fill-18" fill="#040000"></path>
                    <path d="M17.0115,15.4791 C16.65,15.9741 16.14,15.5991 15.8415,15.2616 C16.281,15.1446 16.6215,14.9631 16.9905,14.7051 C17.586,14.2896 17.154,15.2796 17.0115,15.4791 M15.2295,17.9376 C14.877,18.3801 14.193,18.7041 13.725,19.0011 C13.158,19.3596 12.504,19.8111 11.847,19.9671 C10.44,20.2986 10.6995,17.0721 10.812,16.3416 C10.848,16.1211 10.785,15.3456 11.0955,15.4041 C11.3145,15.4461 11.382,15.6621 11.55,15.7761 C11.877,16.0026 12.2295,15.9516 12.597,16.0266 C13.0785,16.1271 15.774,17.2491 15.2295,17.9376 M3.6885,18.1326 C2.0025,18.0546 3.5655,17.2191 3.984,16.5411 C4.2795,16.4991 4.23,16.9101 4.2645,17.1231 C4.347,17.6376 4.08,17.8506 3.6885,18.1326 M4.2495,13.2486 C4.3995,13.3971 4.143,13.8381 4.0335,13.7001 C3.8985,13.5411 4.0965,13.0971 4.2495,13.2486 M5.3205,15.7446 C5.5635,15.5901 7.0185,14.6121 7.2945,15.0666 C7.4775,15.3651 5.637,16.8726 5.3565,17.0856 C5.157,16.7886 5.1225,16.0581 5.3205,15.7446 M12.744,6.8691 C12.744,5.7486 13.407,4.2501 14.124,3.4116 C14.577,2.8806 15.1575,2.4471 15.7455,2.0736 C16.6785,1.4826 16.521,2.2326 16.293,2.9316 C16.068,3.6381 15.867,4.3521 15.6615,5.0676 C15.474,5.7231 15.4215,5.8371 14.8905,6.2766 C14.397,6.6891 13.8945,7.0776 13.3725,7.4526 C12.7425,7.9086 12.744,7.4901 12.744,6.8691 M14.787,10.8666 C14.5275,11.1891 14.3055,11.4621 13.8945,11.5686 C13.569,11.6526 12.8295,11.9601 13.059,11.3241 C13.1715,11.0136 13.4025,10.5051 13.611,10.2531 C13.8405,9.9756 14.211,10.6881 14.3205,10.1406 C14.595,10.2741 14.7285,10.5726 14.787,10.8666 M22.5105,18.0261 C21.3495,17.6706 20.2215,17.2116 19.062,16.8486 C18.6375,16.7136 18.0915,16.6806 17.73,16.3941 C17.148,15.9456 17.667,15.7461 17.8965,15.2976 C18.045,15.0066 18.0495,14.7246 18.255,14.4321 C18.6195,13.9116 19.032,13.4781 19.5225,13.0776 C19.7835,12.8676 20.52,12.6921 20.4705,12.2571 C20.373,11.4666 19.224,12.2841 19.017,12.4866 C17.019,14.4336 14.574,14.5191 11.9265,14.1816 C11.7525,14.1606 11.244,14.4486 11.1975,14.3766 C11.043,14.1426 11.2515,13.4436 11.2815,13.1976 C11.358,12.5916 11.4645,11.9946 11.622,11.4021 C11.751,10.9116 11.895,9.8691 12.3795,9.5766 C12.6945,9.3891 12.93,9.4761 13.1835,9.2001 C13.557,8.7921 13.5585,9.3486 13.3455,9.6246 C12.681,10.4811 11.8095,11.8551 11.8095,12.9711 C11.8095,13.7496 11.9055,13.9056 12.6195,13.4481 C13.1595,13.1016 13.6635,12.7176 14.2485,12.4446 C14.6625,12.2481 15.1575,12.1356 15.5505,11.9121 C15.978,11.6691 15.48,10.6071 15.261,10.3326 C15.0195,10.0356 14.655,9.9666 14.6505,9.4971 C14.6475,9.1041 15.147,8.4006 15.33,8.0586 C15.978,6.8541 16.0635,5.5896 16.5045,4.3146 C16.7055,3.7341 16.881,3.1641 17.031,2.5701 C17.151,2.1006 17.565,1.5831 17.4405,1.1091 C17.3655,0.8466 17.607,-0.0939 16.8765,0.3786 C16.2615,0.7761 15.636,1.2336 15.0645,1.6941 C14.8965,1.8276 12.942,3.6861 13.0155,3.7116 C12.666,3.5811 12.258,2.8521 12.0915,3.6711 C11.9865,4.1871 11.7135,4.6071 11.5095,5.0886 C10.9665,6.3741 10.5825,7.7421 10.2795,9.0996 C9.9885,10.4016 9.843,11.7426 9.678,13.0656 C9.597,13.7136 9.5385,14.3631 9.4785,15.0141 C9.3975,15.8826 9.3495,15.9546 8.724,16.5636 C7.617,17.6436 6.5775,18.9726 5.136,19.6221 C4.7265,19.8066 3.834,20.1471 4.3215,19.4166 C4.539,19.0881 4.6335,19.2336 4.9995,19.1811 C5.2575,19.1451 5.1525,18.6951 5.2125,18.5196 C5.3505,18.1101 6.15,17.6976 6.4575,17.4216 C7.074,16.8636 7.638,16.2501 8.1975,15.6351 C8.556,15.2391 8.8305,14.4381 7.9995,14.2776 C7.6755,14.2176 7.326,14.2131 7.0005,14.2611 C6.7965,14.2896 6.2475,14.5671 6.06,14.4156 C6.147,14.4861 6.9255,13.3236 6.987,13.1166 C7.053,12.8991 6.705,11.4741 6.567,11.5641 C6.4065,11.6691 6.2475,12.1026 6.0915,12.2511 C6.0465,12.2961 5.505,12.6966 5.4675,12.7056 C5.1795,12.7956 5.2395,11.6826 5.3205,11.5521 C5.514,11.2311 5.67,10.9581 6.021,10.7841 C6.924,10.3431 7.002,9.9141 6.264,9.2121 C5.991,8.9526 6.132,8.6781 5.721,8.5896 C5.3625,8.5116 5.2215,8.6511 4.938,8.8296 C4.3395,9.2061 3.2175,9.6591 3.681,10.4796 C4.0245,11.0871 4.137,11.2026 3.6645,11.8041 C3.033,12.5991 2.334,13.4241 2.727,14.4501 C2.9235,14.9631 2.8245,15.6336 3.4815,15.6441 C3.012,16.3566 2.3625,16.9266 1.734,17.4951 C1.3845,17.8131 -0.39,18.8856 0.8925,19.3056 C1.7895,19.5981 1.9905,18.2316 2.6445,18.0906 C2.826,18.0516 3.2025,18.2901 3.3735,18.3486 C3.8265,18.5076 4.221,18.2781 3.756,18.8691 C3.498,19.1976 2.556,19.8561 2.5215,20.2671 C2.4165,21.5001 2.82,21.4116 3.837,21.1941 C5.9535,20.7426 7.2345,19.4796 8.691,18.0066 C9.426,17.2611 9.261,18.9561 9.291,19.3596 C9.3765,20.5266 10.161,21.3426 11.373,21.3486 C12.522,21.3531 13.4715,20.4576 14.253,19.7196 C14.586,19.4046 14.9565,19.1031 15.2415,18.7446 C15.4245,18.5136 15.5265,18.1206 15.738,17.9361 C16.338,17.4066 17.3895,18.4866 17.943,18.7626 C18.8295,19.2081 19.7985,19.2711 20.7675,19.1571 C21.5625,19.0626 22.3605,18.9261 23.145,18.7731 C23.3805,18.7266 23.946,18.6381 23.5815,18.2796 C23.403,18.0951 22.7505,18.0981 22.5105,18.0261" id="Stroke-20" stroke="#040000" stroke-width="0.584766"></path>
                </g>
                <g transform="translate(129.000000, 5.208300)">
                    <path d="M8.74095,11.0451 C8.18595,10.6806 5.97345,10.4691 6.70095,9.5526 C7.34145,8.7471 8.51895,8.0256 9.44145,7.6311 C9.98445,7.3986 10.66395,7.3581 11.15295,7.0206 C11.53545,6.7581 11.74095,6.2286 11.98995,5.8476 C12.75795,4.6746 12.46395,3.4161 12.04245,2.1636 C11.86395,1.6326 11.64795,1.1286 11.35095,0.6501 C10.98495,0.0726 10.72395,0.0456 10.05495,0.0966 C8.99595,0.1761 8.49345,1.5606 7.93845,2.3166 C6.46995,4.3236 4.92495,6.6711 3.00795,8.2836 C2.54745,8.6721 1.89195,8.9976 1.74645,9.6396 C1.62945,10.1646 1.80945,10.8126 2.32995,11.0346 C2.73945,11.2071 4.91295,11.5491 4.97895,11.8956 C5.07195,12.3906 3.81495,13.4151 3.51345,13.7571 C2.60595,14.7831 1.66845,15.8151 0.83445,16.8996 C0.20295,17.7201 0.77145,18.8481 1.64145,19.2756 C2.04945,19.4781 2.77395,19.6491 3.20895,19.4136 C3.36645,19.3266 3.36345,19.1556 3.36345,19.0011 C3.36345,18.7236 3.67095,18.5196 3.85395,18.3576 C4.21245,18.0336 6.03495,16.6926 5.98695,17.8266 C5.94195,18.8106 5.24145,20.3196 5.83245,21.2271 C6.17895,21.7521 7.01445,22.3386 7.57395,22.5936 C8.12595,22.8441 8.24445,21.6936 8.35095,21.3651 C8.86995,19.7886 8.36595,18.0771 7.05645,17.0736 C6.62295,16.7421 6.20895,16.6311 6.23595,16.0611 C6.26145,15.5526 7.19445,14.9571 7.50795,14.5731 C8.02095,13.9431 8.66295,13.4361 9.21645,12.8436 C9.89895,12.1161 9.47295,11.5296 8.74095,11.0451" id="Fill-21" fill="#040000"></path>
                    <path d="M8.74095,11.0451 C8.18595,10.6806 5.97345,10.4691 6.70095,9.5526 C7.34145,8.7471 8.51895,8.0256 9.44145,7.6311 C9.98445,7.3986 10.66395,7.3581 11.15295,7.0206 C11.53545,6.7581 11.74095,6.2286 11.98995,5.8476 C12.75795,4.6746 12.46395,3.4161 12.04245,2.1636 C11.86395,1.6326 11.64795,1.1286 11.35095,0.6501 C10.98495,0.0726 10.72395,0.0456 10.05495,0.0966 C8.99595,0.1761 8.49345,1.5606 7.93845,2.3166 C6.46995,4.3236 4.92495,6.6711 3.00795,8.2836 C2.54745,8.6721 1.89195,8.9976 1.74645,9.6396 C1.62945,10.1646 1.80945,10.8126 2.32995,11.0346 C2.73945,11.2071 4.91295,11.5491 4.97895,11.8956 C5.07195,12.3906 3.81495,13.4151 3.51345,13.7571 C2.60595,14.7831 1.66845,15.8151 0.83445,16.8996 C0.20295,17.7201 0.77145,18.8481 1.64145,19.2756 C2.04945,19.4781 2.77395,19.6491 3.20895,19.4136 C3.36645,19.3266 3.36345,19.1556 3.36345,19.0011 C3.36345,18.7236 3.67095,18.5196 3.85395,18.3576 C4.21245,18.0336 6.03495,16.6926 5.98695,17.8266 C5.94195,18.8106 5.24145,20.3196 5.83245,21.2271 C6.17895,21.7521 7.01445,22.3386 7.57395,22.5936 C8.12595,22.8441 8.24445,21.6936 8.35095,21.3651 C8.86995,19.7886 8.36595,18.0771 7.05645,17.0736 C6.62295,16.7421 6.20895,16.6311 6.23595,16.0611 C6.26145,15.5526 7.19445,14.9571 7.50795,14.5731 C8.02095,13.9431 8.66295,13.4361 9.21645,12.8436 C9.89895,12.1161 9.47295,11.5296 8.74095,11.0451" id="Stroke-23" stroke="#040000" stroke-width="0.584766"></path>
                </g>
                <g transform="translate(141.000000, 9.708300)">
                    <path d="M0.6975,3.6051 C0.366,4.1541 0.6555,5.1756 1.2705,5.4171 C1.6215,5.5566 1.77,5.1201 1.9635,4.9236 C2.322,4.5501 2.7735,4.2351 3.2415,4.0116 C4.0125,3.6486 5.0535,3.2301 5.9175,3.1746 C6.3015,3.1491 6.5475,3.3351 6.945,3.1776 C7.236,3.0591 8.259,2.9841 8.424,2.7996 C8.625,2.5791 8.508,2.1606 8.709,1.9026 C8.868,1.7121 9.3795,1.3056 8.835,1.3056 C7.932,1.3056 6.894,1.5996 6.033,1.8531 C4.905,2.1816 3.8565,2.7321 2.7675,3.1626 C2.328,3.3366 1.836,3.5046 1.3695,3.3336 C0.8145,3.1356 1.008,3.1101 0.6975,3.6051" id="Fill-24" fill="#040000"></path>
                    <path d="M0.6975,3.6051 C0.366,4.1541 0.6555,5.1756 1.2705,5.4171 C1.6215,5.5566 1.77,5.1201 1.9635,4.9236 C2.322,4.5501 2.7735,4.2351 3.2415,4.0116 C4.0125,3.6486 5.0535,3.2301 5.9175,3.1746 C6.3015,3.1491 6.5475,3.3351 6.945,3.1776 C7.236,3.0591 8.259,2.9841 8.424,2.7996 C8.625,2.5791 8.508,2.1606 8.709,1.9026 C8.868,1.7121 9.3795,1.3056 8.835,1.3056 C7.932,1.3056 6.894,1.5996 6.033,1.8531 C4.905,2.1816 3.8565,2.7321 2.7675,3.1626 C2.328,3.3366 1.836,3.5046 1.3695,3.3336 C0.8145,3.1356 1.008,3.1101 0.6975,3.6051" id="Stroke-26" stroke="#040000" stroke-width="0.584766"></path>
                </g>
                <g transform="translate(138.000000, 14.208300)">
                    <path d="M13.65765,1.1325 C12.98115,0.981 12.10515,1.2705 11.44515,1.4235 C10.47615,1.647 9.49665,1.8645 8.54265,2.1465 C6.62865,2.7165 4.94115,3.7995 3.09465,4.5345 C2.62665,4.722 1.68915,4.8075 1.41015,5.2905 C0.97215,6.054 1.75215,6.7725 2.45865,6.2025 C3.01515,5.7555 3.75915,5.4585 4.38315,5.115 C5.11365,4.713 5.85615,4.3095 6.66315,4.0845 C6.65865,6.0495 6.66615,8.01 6.68715,9.975 C6.69315,10.6485 6.91065,11.9805 6.16815,12.3615 C5.33865,12.783 4.27065,11.997 3.50115,11.7285 C3.05415,11.5755 2.67465,11.55 2.30865,11.2215 C2.19765,11.124 1.62915,10.4925 1.41915,10.857 C1.09965,11.412 2.48265,12.036 2.76015,12.2055 C3.50715,12.66 4.44165,13.104 5.05065,13.7445 C5.68365,14.4255 5.65965,15.8085 6.83265,15.924 C7.65165,16.014 8.80215,14.568 8.98065,13.8735 C9.18765,13.0755 8.91765,12.1065 8.78865,11.304 C8.47065,9.33 7.93065,7.2225 8.41215,5.2395 C8.61315,4.4145 7.33965,4.3755 7.57515,3.7275 C7.61715,3.6135 8.18865,3.6015 8.35065,3.5205 C8.77665,3.3015 9.24315,3.1695 9.69915,3.033 C10.27365,2.856 10.83915,2.6895 11.43915,2.6205 C11.89215,2.568 12.53865,2.709 12.95715,2.5275 C13.19715,2.421 13.44915,2.04 13.61565,1.8435 C13.88715,1.5315 14.36265,1.302 13.65765,1.1325" id="Fill-27" fill="#040000"></path>
                    <path d="M13.65765,1.1325 C12.98115,0.981 12.10515,1.2705 11.44515,1.4235 C10.47615,1.647 9.49665,1.8645 8.54265,2.1465 C6.62865,2.7165 4.94115,3.7995 3.09465,4.5345 C2.62665,4.722 1.68915,4.8075 1.41015,5.2905 C0.97215,6.054 1.75215,6.7725 2.45865,6.2025 C3.01515,5.7555 3.75915,5.4585 4.38315,5.115 C5.11365,4.713 5.85615,4.3095 6.66315,4.0845 C6.65865,6.0495 6.66615,8.01 6.68715,9.975 C6.69315,10.6485 6.91065,11.9805 6.16815,12.3615 C5.33865,12.783 4.27065,11.997 3.50115,11.7285 C3.05415,11.5755 2.67465,11.55 2.30865,11.2215 C2.19765,11.124 1.62915,10.4925 1.41915,10.857 C1.09965,11.412 2.48265,12.036 2.76015,12.2055 C3.50715,12.66 4.44165,13.104 5.05065,13.7445 C5.68365,14.4255 5.65965,15.8085 6.83265,15.924 C7.65165,16.014 8.80215,14.568 8.98065,13.8735 C9.18765,13.0755 8.91765,12.1065 8.78865,11.304 C8.47065,9.33 7.93065,7.2225 8.41215,5.2395 C8.61315,4.4145 7.33965,4.3755 7.57515,3.7275 C7.61715,3.6135 8.18865,3.6015 8.35065,3.5205 C8.77665,3.3015 9.24315,3.1695 9.69915,3.033 C10.27365,2.856 10.83915,2.6895 11.43915,2.6205 C11.89215,2.568 12.53865,2.709 12.95715,2.5275 C13.19715,2.421 13.44915,2.04 13.61565,1.8435 C13.88715,1.5315 14.36265,1.302 13.65765,1.1325" id="Stroke-29" stroke="#040000" stroke-width="0.584766"></path>
                </g>
                <g transform="translate(111.000000, 38.208300)">
                    <path d="M7.0761,1.3551 C7.3206,1.6701 7.8876,2.7381 8.1606,2.8491 C8.1246,2.8281 8.2896,2.8791 8.3601,2.8821 C8.3421,2.5326 8.4816,0.8751 8.2206,0.6936 C8.0976,0.6066 7.8486,0.8826 7.6461,0.8826 C7.2651,0.8061 6.9231,0.5481 6.5436,0.4476 C5.5656,0.0786 4.4526,0.1686 3.5166,0.6141 C0.8601,2.0286 0.5286,6.3036 3.3861,7.7331 C4.2546,8.1786 5.6106,8.3031 6.5331,7.9206 C7.4091,7.6086 7.9476,6.8556 8.5296,6.1716 C8.3106,6.0696 8.1621,6.1026 8.0421,6.2781 C7.7061,6.7731 7.2126,7.1856 6.6336,7.3581 C5.3796,7.7301 3.7311,7.2006 3.1176,6.0036 C2.3601,4.5186 2.3001,2.5251 3.5451,1.3086 C4.5141,0.3636 6.1611,0.2421 7.0761,1.3551" id="Fill-30" fill="#040000"></path>
                    <path d="M7.0761,1.3551 C7.3206,1.6701 7.8876,2.7381 8.1606,2.8491 C8.1246,2.8281 8.2896,2.8791 8.3601,2.8821 C8.3421,2.5326 8.4816,0.8751 8.2206,0.6936 C8.0976,0.6066 7.8486,0.8826 7.6461,0.8826 C7.2651,0.8061 6.9231,0.5481 6.5436,0.4476 C5.5656,0.0786 4.4526,0.1686 3.5166,0.6141 C0.8601,2.0286 0.5286,6.3036 3.3861,7.7331 C4.2546,8.1786 5.6106,8.3031 6.5331,7.9206 C7.4091,7.6086 7.9476,6.8556 8.5296,6.1716 C8.3106,6.0696 8.1621,6.1026 8.0421,6.2781 C7.7061,6.7731 7.2126,7.1856 6.6336,7.3581 C5.3796,7.7301 3.7311,7.2006 3.1176,6.0036 C2.3601,4.5186 2.3001,2.5251 3.5451,1.3086 C4.5141,0.3636 6.1611,0.2421 7.0761,1.3551" id="Stroke-32" stroke="#040000" stroke-width="0.5355"></path>
                </g>
                <g transform="translate(55.500000, 38.208300)">
                    <path d="M5.05605,6.882 C4.52205,7.407 2.54055,7.692 2.54055,6.534 L2.54055,4.983 C2.54055,4.6755 2.43105,4.0845 2.84355,3.9765 C3.38505,3.84 4.13805,3.9255 4.63905,4.167 C5.56155,4.6125 5.79555,6.162 5.05605,6.882 M2.51655,3.114 C2.38755,1.857 2.24955,-0.3645 4.29855,0.8355 C5.19705,1.398 5.35605,3.06 4.17255,3.3645 C3.86655,3.432 2.63205,3.7275 2.51655,3.114 M6.75855,5.3025 C6.68355,4.3005 6.02355,3.6675 5.03205,3.549 C5.77755,3.3945 6.16755,2.5845 6.19155,1.881 C6.23805,0.615 5.11605,0.1605 4.02555,0.1035 C2.71005,0.045 1.35255,0.141 0.02955,0.141 C-0.07395,0.6105 0.84405,0.5115 1.04655,0.936 C1.41405,1.614 1.12455,3.108 1.12455,3.876 C1.12455,4.8345 1.26555,5.9205 1.09305,6.864 C0.97305,7.371 0.19155,7.3515 0.24555,7.749 C2.33655,7.5015 7.04505,8.6535 6.75855,5.3025" id="Fill-33" fill="#040000"></path>
                    <path d="M5.05605,6.882 C4.52205,7.407 2.54055,7.692 2.54055,6.534 L2.54055,4.983 C2.54055,4.6755 2.43105,4.0845 2.84355,3.9765 C3.38505,3.84 4.13805,3.9255 4.63905,4.167 C5.56155,4.6125 5.79555,6.162 5.05605,6.882 M2.51655,3.114 C2.38755,1.857 2.24955,-0.3645 4.29855,0.8355 C5.19705,1.398 5.35605,3.06 4.17255,3.3645 C3.86655,3.432 2.63205,3.7275 2.51655,3.114 M6.75855,5.3025 C6.68355,4.3005 6.02355,3.6675 5.03205,3.549 C5.77755,3.3945 6.16755,2.5845 6.19155,1.881 C6.23805,0.615 5.11605,0.1605 4.02555,0.1035 C2.71005,0.045 1.35255,0.141 0.02955,0.141 C-0.07395,0.6105 0.84405,0.5115 1.04655,0.936 C1.41405,1.614 1.12455,3.108 1.12455,3.876 C1.12455,4.8345 1.26555,5.9205 1.09305,6.864 C0.97305,7.371 0.19155,7.3515 0.24555,7.749 C2.33655,7.5015 7.04505,8.6535 6.75855,5.3025" id="Stroke-35" stroke="#040000" stroke-width="0.5355"></path>
                </g>
                <g transform="translate(61.500000, 38.208300)">
                    <path d="M6.13575,4.5675 C5.40375,4.5675 4.65975,4.6005 3.92775,4.557 C4.31025,3.7125 4.69275,2.865 5.07525,2.022 C5.38125,2.892 5.87025,3.735 6.27225,4.5675 L6.13575,4.5675 M2.58375,6.204 C2.38575,6.5985 2.20725,6.993 1.83525,7.2525 C1.66575,7.35 1.36875,7.356 1.38975,7.581 C1.41525,7.854 3.59325,7.719 3.97425,7.71 C4.14825,7.7025 4.18875,7.7145 4.16025,7.548 C4.12725,7.3605 3.74925,7.416 3.55275,7.347 C2.57325,7.0515 3.00825,6.33 3.32775,5.7075 C3.60525,5.1675 3.59775,5.0565 4.17975,5.0565 C4.79775,5.058 5.41575,5.0805 6.03225,5.0805 C6.57225,5.0805 6.58575,5.4165 6.79425,5.874 C6.90675,6.12 7.11825,6.4155 7.15575,6.6885 C7.29075,7.284 6.60375,7.257 6.42075,7.6095 C7.45275,7.8345 8.62275,7.698 9.67575,7.707 C9.58875,7.5225 9.36825,7.485 9.15675,7.362 C8.68125,7.089 8.49375,6.6855 8.28375,6.2025 C8.03475,5.6295 7.78575,5.0565 7.53675,4.482 C6.90225,3.018 6.37725,1.4115 5.58375,0.024 C4.58475,2.085 3.58425,4.143 2.58375,6.204" id="Fill-36" fill="#040000"></path>
                    <path d="M6.13575,4.5675 C5.40375,4.5675 4.65975,4.6005 3.92775,4.557 C4.31025,3.7125 4.69275,2.865 5.07525,2.022 C5.38125,2.892 5.87025,3.735 6.27225,4.5675 L6.13575,4.5675 M2.58375,6.204 C2.38575,6.5985 2.20725,6.993 1.83525,7.2525 C1.66575,7.35 1.36875,7.356 1.38975,7.581 C1.41525,7.854 3.59325,7.719 3.97425,7.71 C4.14825,7.7025 4.18875,7.7145 4.16025,7.548 C4.12725,7.3605 3.74925,7.416 3.55275,7.347 C2.57325,7.0515 3.00825,6.33 3.32775,5.7075 C3.60525,5.1675 3.59775,5.0565 4.17975,5.0565 C4.79775,5.058 5.41575,5.0805 6.03225,5.0805 C6.57225,5.0805 6.58575,5.4165 6.79425,5.874 C6.90675,6.12 7.11825,6.4155 7.15575,6.6885 C7.29075,7.284 6.60375,7.257 6.42075,7.6095 C7.45275,7.8345 8.62275,7.698 9.67575,7.707 C9.58875,7.5225 9.36825,7.485 9.15675,7.362 C8.68125,7.089 8.49375,6.6855 8.28375,6.2025 C8.03475,5.6295 7.78575,5.0565 7.53675,4.482 C6.90225,3.018 6.37725,1.4115 5.58375,0.024 C4.58475,2.085 3.58425,4.143 2.58375,6.204" id="Stroke-38" stroke="#040000" stroke-width="0.5355"></path>
                </g>
                <g transform="translate(135.000000, 38.208300)">
                    <path d="M7.33905,5.44935 C7.33905,5.05635 7.34805,4.66335 7.34805,4.26735 C7.34805,3.47835 7.35255,2.68485 7.31805,1.89435 C7.29855,1.59135 7.36155,1.15785 7.11255,0.92535 C6.87255,0.70335 5.48655,0.38235 6.41655,0.39735 C7.05555,0.40935 8.18505,0.25035 8.73855,0.55035 C7.40055,0.65235 7.91205,3.38235 7.90155,4.33035 C7.89405,5.11035 7.88805,5.89335 7.88205,6.67335 C7.87755,7.05135 8.04705,7.87635 7.68405,7.94985 C7.29105,8.02935 6.94755,7.46085 6.70455,7.21785 C6.16905,6.68385 5.63205,6.15435 5.09355,5.62335 C4.04505,4.58685 2.99205,3.55485 1.94805,2.51235 C1.94805,3.46635 1.95555,4.41885 1.95555,5.37435 C1.95555,6.07935 1.72005,7.64385 2.82855,7.64385 C3.17355,8.10585 1.67955,7.95435 1.51155,7.95435 C1.26555,7.95735 0.40005,8.05335 0.35055,7.84485 C0.30105,7.63635 0.41805,7.62885 0.60105,7.57785 C1.49955,7.26135 1.27605,6.15285 1.28655,5.37885 C1.29855,4.56885 1.31205,3.75885 1.32255,2.94735 C1.32855,2.55885 1.39455,2.11785 1.33905,1.73235 C1.33905,1.07685 0.16605,0.67935 0.19455,0.43485 C0.20055,0.39735 0.18705,0.35685 0.19455,0.32085 C0.44955,0.34635 2.19855,0.22635 2.23455,0.36135 C2.40555,0.99585 3.37005,1.66785 3.80805,2.10585 C4.57755,2.87385 5.34555,3.64485 6.11655,4.41435 C6.17655,4.47435 7.33455,5.54985 7.33905,5.44935" id="Fill-39" fill="#040000"></path>
                    <path d="M7.33905,5.44935 C7.33905,5.05635 7.34805,4.66335 7.34805,4.26735 C7.34805,3.47835 7.35255,2.68485 7.31805,1.89435 C7.29855,1.59135 7.36155,1.15785 7.11255,0.92535 C6.87255,0.70335 5.48655,0.38235 6.41655,0.39735 C7.05555,0.40935 8.18505,0.25035 8.73855,0.55035 C7.40055,0.65235 7.91205,3.38235 7.90155,4.33035 C7.89405,5.11035 7.88805,5.89335 7.88205,6.67335 C7.87755,7.05135 8.04705,7.87635 7.68405,7.94985 C7.29105,8.02935 6.94755,7.46085 6.70455,7.21785 C6.16905,6.68385 5.63205,6.15435 5.09355,5.62335 C4.04505,4.58685 2.99205,3.55485 1.94805,2.51235 C1.94805,3.46635 1.95555,4.41885 1.95555,5.37435 C1.95555,6.07935 1.72005,7.64385 2.82855,7.64385 C3.17355,8.10585 1.67955,7.95435 1.51155,7.95435 C1.26555,7.95735 0.40005,8.05335 0.35055,7.84485 C0.30105,7.63635 0.41805,7.62885 0.60105,7.57785 C1.49955,7.26135 1.27605,6.15285 1.28655,5.37885 C1.29855,4.56885 1.31205,3.75885 1.32255,2.94735 C1.32855,2.55885 1.39455,2.11785 1.33905,1.73235 C1.33905,1.07685 0.16605,0.67935 0.19455,0.43485 C0.20055,0.39735 0.18705,0.35685 0.19455,0.32085 C0.44955,0.34635 2.19855,0.22635 2.23455,0.36135 C2.40555,0.99585 3.37005,1.66785 3.80805,2.10585 C4.57755,2.87385 5.34555,3.64485 6.11655,4.41435 C6.17655,4.47435 7.33455,5.54985 7.33905,5.44935" id="Stroke-41" stroke="#040000" stroke-width="0.5355"></path>
                </g>
                <g transform="translate(70.500000, 38.208300)">
                    <path d="M7.0248,0.18315 C6.9483,0.18015 6.8733,0.17865 6.7968,0.17715 C6.7998,0.58815 7.7973,0.48015 7.9878,0.95715 C8.1948,1.38615 8.0868,2.19465 8.0913,2.63715 C8.1033,3.43365 8.1033,4.23165 8.1033,5.02815 C8.1033,5.63715 7.1478,4.47915 6.9948,4.32615 C5.9133,3.25665 4.8228,2.19615 3.7503,1.11615 C3.3813,0.74565 3.1773,0.11565 2.6343,0.15165 C2.3028,0.15165 1.1253,-0.02535 0.9078,0.21315 C0.8088,0.32115 1.5708,0.65865 1.7298,0.83865 C1.9008,1.03515 2.0118,1.26465 2.0118,1.52715 C2.1873,2.85015 1.9698,4.34865 1.9488,5.68515 C1.9413,6.12465 2.0283,6.70965 1.7478,7.08315 C1.5603,7.34715 1.0323,7.29915 1.0083,7.57515 C0.9783,7.92765 1.7673,7.75815 2.0298,7.75815 C2.3058,7.77315 3.4488,7.85415 3.5178,7.64865 C3.6018,7.39515 3.3468,7.45665 3.1803,7.39065 C2.7858,7.25415 2.7018,6.86415 2.6733,6.49215 C2.5848,5.09715 2.6283,3.69015 2.6283,2.29365 C3.7698,3.41565 4.9143,4.53015 6.0558,5.65215 C6.3828,5.97165 8.1123,8.09715 8.5758,7.75365 C8.7918,7.59165 8.6463,6.11565 8.6493,5.78865 C8.6568,5.02515 8.6613,4.26015 8.6688,3.49665 C8.6763,2.80515 8.6808,2.11365 8.6928,1.42215 C8.7018,1.12815 8.7048,0.72315 8.9913,0.54615 C9.1908,0.41415 9.4998,0.52665 9.5208,0.27615 C8.6913,0.24315 7.8558,0.18315 7.0248,0.18315" id="Fill-42" fill="#040000"></path>
                    <path d="M7.0248,0.18315 C6.9483,0.18015 6.8733,0.17865 6.7968,0.17715 C6.7998,0.58815 7.7973,0.48015 7.9878,0.95715 C8.1948,1.38615 8.0868,2.19465 8.0913,2.63715 C8.1033,3.43365 8.1033,4.23165 8.1033,5.02815 C8.1033,5.63715 7.1478,4.47915 6.9948,4.32615 C5.9133,3.25665 4.8228,2.19615 3.7503,1.11615 C3.3813,0.74565 3.1773,0.11565 2.6343,0.15165 C2.3028,0.15165 1.1253,-0.02535 0.9078,0.21315 C0.8088,0.32115 1.5708,0.65865 1.7298,0.83865 C1.9008,1.03515 2.0118,1.26465 2.0118,1.52715 C2.1873,2.85015 1.9698,4.34865 1.9488,5.68515 C1.9413,6.12465 2.0283,6.70965 1.7478,7.08315 C1.5603,7.34715 1.0323,7.29915 1.0083,7.57515 C0.9783,7.92765 1.7673,7.75815 2.0298,7.75815 C2.3058,7.77315 3.4488,7.85415 3.5178,7.64865 C3.6018,7.39515 3.3468,7.45665 3.1803,7.39065 C2.7858,7.25415 2.7018,6.86415 2.6733,6.49215 C2.5848,5.09715 2.6283,3.69015 2.6283,2.29365 C3.7698,3.41565 4.9143,4.53015 6.0558,5.65215 C6.3828,5.97165 8.1123,8.09715 8.5758,7.75365 C8.7918,7.59165 8.6463,6.11565 8.6493,5.78865 C8.6568,5.02515 8.6613,4.26015 8.6688,3.49665 C8.6763,2.80515 8.6808,2.11365 8.6928,1.42215 C8.7018,1.12815 8.7048,0.72315 8.9913,0.54615 C9.1908,0.41415 9.4998,0.52665 9.5208,0.27615 C8.6913,0.24315 7.8558,0.18315 7.0248,0.18315" id="Stroke-44" stroke="#040000" stroke-width="0.5355"></path>
                </g>
                <g transform="translate(81.000000, 38.208300)">
                    <path d="M7.73895,7.6539 C7.57695,7.3509 6.94245,7.1424 6.66945,6.8319 C6.21945,6.3204 5.81445,5.7609 5.39295,5.2254 C5.01495,4.7469 4.63845,4.2654 4.26195,3.7869 C3.89295,3.3159 4.51845,2.9829 4.86495,2.6589 C5.52645,2.0469 6.17445,1.2669 6.93195,0.7779 C7.04145,0.6909 8.10045,0.1839 7.58295,0.1839 C6.76845,0.1839 5.95245,0.2019 5.13945,0.1719 C5.07495,0.5214 5.52495,0.3339 5.69445,0.6039 C5.86695,0.8664 5.58045,1.1184 5.42445,1.2819 C4.65495,2.0829 3.89595,2.9064 3.06645,3.6429 C2.28195,4.3419 2.51295,3.5574 2.51295,2.8869 L2.51295,1.8189 C2.51295,1.6119 2.51145,1.4049 2.51445,1.1964 C2.54295,0.9894 2.48445,0.8064 2.67495,0.6444 C2.74545,0.5859 3.34695,0.3444 3.33045,0.2484 C3.27045,-0.1056 0.14745,0.3294 0.13095,0.2319 C0.21045,0.6864 1.34745,0.5529 1.22445,1.2939 C1.17195,1.6164 1.21545,1.9854 1.21545,2.3124 L1.21545,4.2219 L1.21545,6.1314 C1.21545,6.4599 1.28295,7.0629 1.00095,7.2984 C0.99495,7.3044 0.06795,7.7994 0.48945,7.7994 C0.64695,7.7994 0.80295,7.7949 0.96195,7.7919 C1.50795,7.7829 2.05545,7.7724 2.60295,7.7619 C2.67795,7.7604 3.54345,7.8309 3.33795,7.5624 C3.21495,7.4019 2.91945,7.3899 2.76345,7.2594 C2.52945,7.0599 2.52495,6.7599 2.51445,6.4779 C2.50995,6.2889 2.51295,6.0999 2.51295,5.9124 C2.51295,5.6319 2.44695,5.2554 2.51295,4.9839 C2.59845,4.6374 2.87895,4.4589 3.16095,4.2039 C3.84495,5.0514 4.50195,5.9199 5.19795,6.7554 C5.39595,6.9969 5.63295,7.2174 5.74995,7.5114 C5.88345,7.8639 7.06095,7.6839 7.46595,7.6839 L7.36245,7.6839 C7.47495,7.6914 7.67745,7.6629 7.73895,7.6539" id="Fill-45" fill="#040000"></path>
                    <path d="M7.73895,7.6539 C7.57695,7.3509 6.94245,7.1424 6.66945,6.8319 C6.21945,6.3204 5.81445,5.7609 5.39295,5.2254 C5.01495,4.7469 4.63845,4.2654 4.26195,3.7869 C3.89295,3.3159 4.51845,2.9829 4.86495,2.6589 C5.52645,2.0469 6.17445,1.2669 6.93195,0.7779 C7.04145,0.6909 8.10045,0.1839 7.58295,0.1839 C6.76845,0.1839 5.95245,0.2019 5.13945,0.1719 C5.07495,0.5214 5.52495,0.3339 5.69445,0.6039 C5.86695,0.8664 5.58045,1.1184 5.42445,1.2819 C4.65495,2.0829 3.89595,2.9064 3.06645,3.6429 C2.28195,4.3419 2.51295,3.5574 2.51295,2.8869 L2.51295,1.8189 C2.51295,1.6119 2.51145,1.4049 2.51445,1.1964 C2.54295,0.9894 2.48445,0.8064 2.67495,0.6444 C2.74545,0.5859 3.34695,0.3444 3.33045,0.2484 C3.27045,-0.1056 0.14745,0.3294 0.13095,0.2319 C0.21045,0.6864 1.34745,0.5529 1.22445,1.2939 C1.17195,1.6164 1.21545,1.9854 1.21545,2.3124 L1.21545,4.2219 L1.21545,6.1314 C1.21545,6.4599 1.28295,7.0629 1.00095,7.2984 C0.99495,7.3044 0.06795,7.7994 0.48945,7.7994 C0.64695,7.7994 0.80295,7.7949 0.96195,7.7919 C1.50795,7.7829 2.05545,7.7724 2.60295,7.7619 C2.67795,7.7604 3.54345,7.8309 3.33795,7.5624 C3.21495,7.4019 2.91945,7.3899 2.76345,7.2594 C2.52945,7.0599 2.52495,6.7599 2.51445,6.4779 C2.50995,6.2889 2.51295,6.0999 2.51295,5.9124 C2.51295,5.6319 2.44695,5.2554 2.51295,4.9839 C2.59845,4.6374 2.87895,4.4589 3.16095,4.2039 C3.84495,5.0514 4.50195,5.9199 5.19795,6.7554 C5.39595,6.9969 5.63295,7.2174 5.74995,7.5114 C5.88345,7.8639 7.06095,7.6839 7.46595,7.6839 L7.36245,7.6839 C7.47495,7.6914 7.67745,7.6629 7.73895,7.6539" id="Stroke-47" stroke="#040000" stroke-width="0.5355"></path>
                </g>
                <g transform="translate(120.000000, 38.208300)">
                    <path d="M9.132,7.64655 C8.226,7.36905 8.4315,6.38205 8.4315,5.62455 L8.4315,3.16155 C8.4315,2.54355 8.2275,1.49505 8.508,0.93255 C8.6565,0.57405 9.189,0.77505 9.1275,0.39855 C8.088,0.42705 7.0365,0.42705 5.9955,0.39855 C5.913,0.78555 6.432,0.62805 6.6735,0.83805 C7.299,1.41855 6.9945,2.93055 7.002,3.68205 L4.6815,3.68205 L3.5175,3.68205 C3.114,3.68205 3.168,3.62655 3.168,3.26205 C3.168,2.42055 2.826,0.64455 4.056,0.62655 C4.053,0.61755 4.0515,0.55005 4.056,0.54105 C3.633,0.52155 0.6675,0.24705 0.654,0.51105 C0.648,0.67905 1.3965,0.80355 1.5915,1.02105 C1.9905,1.49205 1.8375,2.30805 1.8375,2.88405 C1.8375,4.01655 1.881,5.15805 1.8375,6.28905 C1.815,6.87555 1.7295,7.39005 1.137,7.63905 C0.963,7.72455 0.8985,7.75155 0.9375,7.95405 C2.0115,7.94355 3.09,7.98255 4.164,7.95405 C4.332,7.75755 3.945,7.70205 3.894,7.69455 C2.8395,7.51305 3.168,5.46105 3.168,4.73505 C3.168,4.34355 3.102,4.33005 3.402,4.20405 C3.6525,4.10055 4.176,4.20405 4.449,4.20405 L6.5475,4.20405 C6.9945,4.20405 7.02,4.14555 7.02,4.59255 L7.02,5.26005 L7.02,6.60705 C7.02,6.71505 6.816,7.81455 6.522,7.63455 C7.122,8.00205 8.5605,7.84455 9.2655,7.86555 C9.306,7.71855 9.2595,7.68555 9.132,7.64655" id="Fill-48" fill="#040000"></path>
                    <path d="M9.132,7.64655 C8.226,7.36905 8.4315,6.38205 8.4315,5.62455 L8.4315,3.16155 C8.4315,2.54355 8.2275,1.49505 8.508,0.93255 C8.6565,0.57405 9.189,0.77505 9.1275,0.39855 C8.088,0.42705 7.0365,0.42705 5.9955,0.39855 C5.913,0.78555 6.432,0.62805 6.6735,0.83805 C7.299,1.41855 6.9945,2.93055 7.002,3.68205 L4.6815,3.68205 L3.5175,3.68205 C3.114,3.68205 3.168,3.62655 3.168,3.26205 C3.168,2.42055 2.826,0.64455 4.056,0.62655 C4.053,0.61755 4.0515,0.55005 4.056,0.54105 C3.633,0.52155 0.6675,0.24705 0.654,0.51105 C0.648,0.67905 1.3965,0.80355 1.5915,1.02105 C1.9905,1.49205 1.8375,2.30805 1.8375,2.88405 C1.8375,4.01655 1.881,5.15805 1.8375,6.28905 C1.815,6.87555 1.7295,7.39005 1.137,7.63905 C0.963,7.72455 0.8985,7.75155 0.9375,7.95405 C2.0115,7.94355 3.09,7.98255 4.164,7.95405 C4.332,7.75755 3.945,7.70205 3.894,7.69455 C2.8395,7.51305 3.168,5.46105 3.168,4.73505 C3.168,4.34355 3.102,4.33005 3.402,4.20405 C3.6525,4.10055 4.176,4.20405 4.449,4.20405 L6.5475,4.20405 C6.9945,4.20405 7.02,4.14555 7.02,4.59255 L7.02,5.26005 L7.02,6.60705 C7.02,6.71505 6.816,7.81455 6.522,7.63455 C7.122,8.00205 8.5605,7.84455 9.2655,7.86555 C9.306,7.71855 9.2595,7.68555 9.132,7.64655" id="Stroke-50" stroke="#040000" stroke-width="0.5355"></path>
                </g>
                <g transform="translate(130.500000, 38.208300)">
                    <path d="M3.3174,7.63785 C2.3334,7.46235 2.5944,6.13785 2.5944,5.41035 L2.5944,2.84385 C2.5944,2.28585 2.3169,0.90435 2.9499,0.62685 C3.8274,0.34785 2.7024,0.33735 2.3424,0.33735 C2.0799,0.33735 0.1119,0.26385 0.2814,0.51885 C0.4239,0.73185 0.9759,0.59535 1.1559,0.97785 C1.3494,1.36335 1.2729,1.87485 1.2729,2.29335 L1.2729,4.91385 C1.2729,5.63085 1.4769,6.73635 1.0599,7.36185 C0.8994,7.56585 0.4809,7.57185 0.4494,7.76685 C0.3999,8.04735 1.5699,7.90035 1.8054,7.90035 C2.0169,7.90035 3.5664,7.94385 3.5784,7.84485 C3.6039,7.63335 3.5289,7.67385 3.3174,7.63785" id="Fill-51" fill="#040000"></path>
                    <path d="M3.3174,7.63785 C2.3334,7.46235 2.5944,6.13785 2.5944,5.41035 L2.5944,2.84385 C2.5944,2.28585 2.3169,0.90435 2.9499,0.62685 C3.8274,0.34785 2.7024,0.33735 2.3424,0.33735 C2.0799,0.33735 0.1119,0.26385 0.2814,0.51885 C0.4239,0.73185 0.9759,0.59535 1.1559,0.97785 C1.3494,1.36335 1.2729,1.87485 1.2729,2.29335 L1.2729,4.91385 C1.2729,5.63085 1.4769,6.73635 1.0599,7.36185 C0.8994,7.56585 0.4809,7.57185 0.4494,7.76685 C0.3999,8.04735 1.5699,7.90035 1.8054,7.90035 C2.0169,7.90035 3.5664,7.94385 3.5784,7.84485 C3.6039,7.63335 3.5289,7.67385 3.3174,7.63785" id="Stroke-53" stroke="#040000" stroke-width="0.5355"></path>
                </g>
                <g transform="translate(100.500000, 38.208300)">
                    <path d="M6.2265,0.3414 C4.56,0.3414 2.8935,0.3729 1.227,0.3534 C1.134,0.7764 1.857,0.6309 2.097,0.9294 C2.553,1.4004 2.2995,2.7639 2.2995,3.3774 L2.2995,5.8449 C2.2995,6.2289 2.37,6.6924 2.2365,7.0599 C2.124,7.3434 1.6875,7.3704 1.617,7.5594 C1.536,7.7844 3.9,7.7244 4.26,7.7169 C4.47,7.7169 4.8915,7.8564 4.848,7.5549 C4.812,7.3044 4.398,7.4049 4.164,7.2669 C3.5325,6.9519 3.735,5.8884 3.735,5.3064 L3.735,4.4244 C3.735,3.9984 3.819,4.0464 4.2255,4.0464 C4.851,4.0014 5.7,4.0194 5.85,4.7709 C5.949,5.2104 6.123,4.6464 6.1335,4.4409 C6.162,3.8574 6.1905,3.2709 6.2205,2.6859 C5.796,2.5944 5.856,2.8884 5.6925,3.1704 C5.4615,3.5604 4.935,3.5319 4.542,3.5919 C4.401,3.5919 3.759,3.6699 3.759,3.4524 C3.759,2.8899 3.393,0.9594 4.0815,0.7674 C4.605,0.6039 5.568,0.6819 6.0195,0.8589 C6.378,0.9864 6.84,2.0574 6.978,1.9749 C7.1475,1.8759 7.1505,0.3579 6.804,0.3504 C6.6105,0.3489 6.4185,0.3459 6.2265,0.3414" id="Fill-54" fill="#040000"></path>
                    <path d="M6.2265,0.3414 C4.56,0.3414 2.8935,0.3729 1.227,0.3534 C1.134,0.7764 1.857,0.6309 2.097,0.9294 C2.553,1.4004 2.2995,2.7639 2.2995,3.3774 L2.2995,5.8449 C2.2995,6.2289 2.37,6.6924 2.2365,7.0599 C2.124,7.3434 1.6875,7.3704 1.617,7.5594 C1.536,7.7844 3.9,7.7244 4.26,7.7169 C4.47,7.7169 4.8915,7.8564 4.848,7.5549 C4.812,7.3044 4.398,7.4049 4.164,7.2669 C3.5325,6.9519 3.735,5.8884 3.735,5.3064 L3.735,4.4244 C3.735,3.9984 3.819,4.0464 4.2255,4.0464 C4.851,4.0014 5.7,4.0194 5.85,4.7709 C5.949,5.2104 6.123,4.6464 6.1335,4.4409 C6.162,3.8574 6.1905,3.2709 6.2205,2.6859 C5.796,2.5944 5.856,2.8884 5.6925,3.1704 C5.4615,3.5604 4.935,3.5319 4.542,3.5919 C4.401,3.5919 3.759,3.6699 3.759,3.4524 C3.759,2.8899 3.393,0.9594 4.0815,0.7674 C4.605,0.6039 5.568,0.6819 6.0195,0.8589 C6.378,0.9864 6.84,2.0574 6.978,1.9749 C7.1475,1.8759 7.1505,0.3579 6.804,0.3504 C6.6105,0.3489 6.4185,0.3459 6.2265,0.3414" id="Stroke-56" stroke="#040000" stroke-width="0.5355"></path>
                </g>
                <g transform="translate(144.000000, 38.208300)">
                    <path d="M4.7778,4.6569 C4.0608,4.6569 3.3393,4.6824 2.6223,4.6494 C2.9958,3.8034 3.3693,2.9559 3.7413,2.1114 C4.0518,2.9814 4.5198,3.8169 4.9098,4.6569 L4.7778,4.6569 M7.4658,7.2804 C7.0578,6.9744 6.9018,6.3564 6.7008,5.8959 C6.3828,5.1654 6.0663,4.4334 5.7468,3.6999 C5.2353,2.5164 4.8183,1.1919 4.1433,0.0864 C3.3768,1.6014 2.7093,3.1764 2.0178,4.7274 C1.6728,5.5014 1.3713,6.6369 0.7398,7.2159 C0.3498,7.5624 -0.3612,7.8039 0.6828,7.8039 C0.9753,7.8039 3.0048,7.9209 2.8488,7.6074 C2.7843,7.4754 2.3013,7.4724 2.1123,7.3704 C1.1553,6.9759 1.9578,5.9364 2.2668,5.3454 C2.4798,4.9419 3.6783,5.1564 4.1253,5.1624 C4.3218,5.1654 4.9158,5.0679 5.0688,5.1744 C5.1783,5.2479 5.2728,5.6214 5.3253,5.7444 C5.4378,6.0114 5.7603,6.4464 5.7603,6.7389 C6.0723,7.2069 5.1633,7.4889 5.0568,7.6989 C6.0603,7.9269 7.2108,7.7889 8.2368,7.7994 C8.1273,7.5609 7.7028,7.4574 7.4658,7.2804" id="Fill-57" fill="#040000"></path>
                    <path d="M4.7778,4.6569 C4.0608,4.6569 3.3393,4.6824 2.6223,4.6494 C2.9958,3.8034 3.3693,2.9559 3.7413,2.1114 C4.0518,2.9814 4.5198,3.8169 4.9098,4.6569 L4.7778,4.6569 M7.4658,7.2804 C7.0578,6.9744 6.9018,6.3564 6.7008,5.8959 C6.3828,5.1654 6.0663,4.4334 5.7468,3.6999 C5.2353,2.5164 4.8183,1.1919 4.1433,0.0864 C3.3768,1.6014 2.7093,3.1764 2.0178,4.7274 C1.6728,5.5014 1.3713,6.6369 0.7398,7.2159 C0.3498,7.5624 -0.3612,7.8039 0.6828,7.8039 C0.9753,7.8039 3.0048,7.9209 2.8488,7.6074 C2.7843,7.4754 2.3013,7.4724 2.1123,7.3704 C1.1553,6.9759 1.9578,5.9364 2.2668,5.3454 C2.4798,4.9419 3.6783,5.1564 4.1253,5.1624 C4.3218,5.1654 4.9158,5.0679 5.0688,5.1744 C5.1783,5.2479 5.2728,5.6214 5.3253,5.7444 C5.4378,6.0114 5.7603,6.4464 5.7603,6.7389 C6.0723,7.2069 5.1633,7.4889 5.0568,7.6989 C6.0603,7.9269 7.2108,7.7889 8.2368,7.7994 C8.1273,7.5609 7.7028,7.4574 7.4658,7.2804" id="Stroke-59" stroke="#040000" stroke-width="0.5355"></path>
                </g>
                <g transform="translate(91.500000, 38.208300)">
                    <path d="M7.6797,5.73345 C7.3707,6.40545 7.0332,7.14945 6.2817,7.41045 C5.3892,7.72095 4.4097,7.42245 3.7482,6.77745 C2.6847,5.73795 2.5647,3.71445 2.9667,2.37345 C3.4272,0.83595 5.1102,0.04995 6.5037,0.89745 C7.8492,1.71495 8.3082,4.36995 7.6797,5.73345 M9.1677,3.55995 C9.0207,1.38195 7.0392,-0.10305 4.9197,0.11445 C2.7522,0.19845 1.2417,2.35245 1.4937,4.42245 C1.6137,6.59895 3.6597,8.04345 5.7387,7.84845 C7.9812,7.68945 9.3192,5.68995 9.1677,3.55995" id="Fill-60" fill="#040000"></path>
                    <path d="M7.6797,5.73345 C7.3707,6.40545 7.0332,7.14945 6.2817,7.41045 C5.3892,7.72095 4.4097,7.42245 3.7482,6.77745 C2.6847,5.73795 2.5647,3.71445 2.9667,2.37345 C3.4272,0.83595 5.1102,0.04995 6.5037,0.89745 C7.8492,1.71495 8.3082,4.36995 7.6797,5.73345 M9.1677,3.55995 C9.0207,1.38195 7.0392,-0.10305 4.9197,0.11445 C2.7522,0.19845 1.2417,2.35245 1.4937,4.42245 C1.6137,6.59895 3.6597,8.04345 5.7387,7.84845 C7.9812,7.68945 9.3192,5.68995 9.1677,3.55995" id="Stroke-62" stroke="#040000" stroke-width="0.5355"></path>
                </g>
            </g>
        </g>
    </g>
</svg>