<?xml version="1.0" encoding="UTF-8"?>
<svg width="232px" height="60px" viewBox="0 0 232 60" version="1.1" xmlns="http://www.w3.org/2000/svg" xmlns:xlink="http://www.w3.org/1999/xlink">
    <!-- Generator: Sketch 53.2 (72643) - https://sketchapp.com -->
    <title>05.昆明航空</title>
    <desc>Created with Sketch.</desc>
    <defs>
        <polygon id="path-1" points="0 0.646472749 43.1203171 0.646472749 43.1203171 34.9992535 0 34.9992535"></polygon>
        <polygon id="path-3" points="0.312996267 0.4125 1.97065392 0.4125 1.97065392 1.66666667 0.312996267 1.66666667"></polygon>
        <polygon id="path-5" points="1.4419964 1.24166667 3.09965405 1.24166667 3.09965405 2.1155 1.4419964 2.1155"></polygon>
    </defs>
    <g id="05.昆明航空" stroke="none" stroke-width="1" fill="none" fill-rule="evenodd">
        <g id="05" transform="translate(0.000000, -25.000000)">
            <rect id="矩形复制-10" x="0" y="0" width="232" height="110"></rect>
            <g id="编组" transform="translate(24.000000, 24.000000)">
                <polygon id="Fill-1" fill="#B21F25" points="76.0339387 49.1451667 72.8479207 49.1451667 71.2714883 45.6585 70.3432 46.6101667 69.9884613 49.1451667 67.4853982 49.1451667 68.7982631 39.7618333 71.3013261 39.7618333 70.8471279 42.9818333 74.0066234 39.7618333 76.9406775 39.7618333 73.3435604 43.5951667"></polygon>
                <g transform="translate(0.000000, 0.425000)">
                    <path d="M81.6592,41.8598333 L84.0793802,41.8598333 L83.1212541,48.7198333 L80.7010739,48.7198333 L80.7939027,48.0648333 C80.4723171,48.2831667 80.1938306,48.4515 79.9518126,48.5648333 C79.7114523,48.6765 79.383236,48.7515 78.967164,48.7898333 C78.5428036,48.8331667 78.1731459,48.8015 77.863164,48.6898333 C77.5515243,48.5765 77.3177946,48.3881667 77.1536865,48.1315 C76.9879207,47.8665 76.8917766,47.6015 76.870227,47.3265 C76.8486775,47.0548333 76.8602811,46.7431667 76.9066955,46.3948333 L77.5415784,41.8598333 L79.8556685,41.8598333 L79.3517405,45.4581667 C79.3036685,45.8065 79.3318486,46.0698333 79.4362811,46.2515 C79.5456865,46.4315 79.7694703,46.5015 80.1126054,46.4681667 C80.4540829,46.4315 80.6828396,46.3165 80.8055063,46.1231667 L81.1270919,45.6681667 L81.6592,41.8598333 Z" id="Fill-2" fill="#B21F25"></path>
                    <path d="M91.2507387,48.7316667 L88.8852613,48.7316667 L89.3809009,45.195 C89.4173694,44.93 89.4140541,44.705 89.3676396,44.5216667 C89.3195676,44.3366667 89.2167928,44.1866667 89.0526847,44.0733333 C88.8902342,43.9616667 88.6813694,43.945 88.4244324,44.025 C88.203964,44.0983333 88.0232793,44.2316667 87.8956396,44.42 C87.7613694,44.6116667 87.6735135,44.8716667 87.6287568,45.195 L87.1347748,48.7316667 L84.7941622,48.7316667 L85.748973,41.905 L88.0862703,41.905 L87.9752072,42.7233333 C88.2338018,42.475 88.4642162,42.285 88.6714234,42.1533333 C88.8753153,42.025 89.1289369,41.9283333 89.4356036,41.8733333 C89.738955,41.8183333 90.0588829,41.8133333 90.3904144,41.86 C90.765045,41.915 91.0683964,42.0266667 91.2971532,42.195 C91.5292252,42.365 91.699964,42.61 91.8143423,42.94 C91.9287207,43.27 91.9618739,43.6066667 91.9171171,43.9616667 L91.2507387,48.7316667 Z" id="Fill-4" fill="#B21F25"></path>
                    <path d="M100.951351,48.7268333 L101.476829,44.9768333 C101.51827,44.6685 101.478486,44.4101667 101.35582,44.2001667 C101.233153,43.9901667 101.029261,43.8868333 100.750775,43.8901667 C100.522018,43.8951667 100.298234,44.0018333 100.086054,44.2051667 C99.8705586,44.4118333 99.7362883,44.6985 99.6849009,45.0601667 L99.1726847,48.7268333 L96.8983784,48.7268333 L97.4072793,45.0851667 C97.457009,44.7401667 97.4304865,44.4585 97.3376577,44.2435 C97.2431712,44.0251667 97.0475676,43.9168333 96.7508468,43.9168333 C96.4756757,43.9201667 96.2402883,44.0318333 96.0446847,44.2485 L95.6667387,44.6318333 L95.0915315,48.7268333 L92.8288288,48.7268333 L93.781982,41.9051667 L96.0496577,41.9051667 L95.8971532,42.9968333 C96.1955315,42.6951667 96.4624144,42.4568333 96.6944865,42.2818333 C96.9265586,42.1068333 97.1917838,41.9785 97.4918198,41.8901667 C97.7935135,41.8068333 98.0819459,41.7918333 98.3587748,41.8485 C98.6372613,41.9035 98.8859099,42.0251667 99.1096937,42.2118333 C99.3285045,42.4001667 99.4677477,42.6068333 99.5257658,42.8385 L99.6086486,43.1485 C99.8755315,42.8501667 100.114234,42.6135 100.318126,42.4435 C100.523676,42.2785 100.777297,42.1385 101.075676,42.0351667 C101.374054,41.9268333 101.67409,41.8701667 101.974126,41.8668333 C102.393514,41.8601667 102.771459,41.9568333 103.111279,42.1485 C103.447784,42.3368333 103.681514,42.5985 103.814126,42.9268333 C103.946739,43.2551667 103.989838,43.5918333 103.940108,43.9368333 L103.270414,48.7268333 L100.951351,48.7268333 Z" id="Fill-6" fill="#B21F25"></path>
                    <path d="M106.019142,41.2348333 L106.289341,39.3131667 L108.671395,39.3131667 L108.401196,41.2348333 L106.019142,41.2348333 Z M105.931286,41.8731667 L108.311683,41.8731667 L107.355214,48.7265 L104.97316,48.7265 L105.931286,41.8731667 Z" id="Fill-8" fill="#B21F25"></path>
                    <path d="M115.644497,48.7316667 L113.283993,48.7316667 L113.777975,45.195 C113.812786,44.93 113.80947,44.705 113.764714,44.5216667 C113.716641,44.3366667 113.612209,44.1866667 113.448101,44.0733333 C113.28565,43.9616667 113.075128,43.945 112.818191,44.025 C112.597723,44.0983333 112.423668,44.2316667 112.289398,44.42 C112.156786,44.6116667 112.067272,44.8716667 112.022515,45.195 L111.528533,48.7316667 L109.189578,48.7316667 L110.144389,41.905 L112.483344,41.905 L112.367308,42.7233333 C112.62756,42.475 112.86129,42.285 113.061867,42.1533333 C113.270732,42.025 113.526011,41.9283333 113.829362,41.8733333 C114.134371,41.8183333 114.452641,41.8133333 114.787488,41.86 C115.160461,41.915 115.462155,42.0266667 115.694227,42.195 C115.921326,42.365 116.09538,42.61 116.209759,42.94 C116.320822,43.27 116.355632,43.6066667 116.310876,43.9616667 L115.644497,48.7316667 Z" id="Fill-10" fill="#B21F25"></path>
                    <path d="M121.808166,44.7733333 C121.789932,44.54 121.740202,44.3466667 121.66395,44.2 C121.582724,44.0533333 121.407013,43.9583333 121.136814,43.9166667 C120.967733,43.895 120.787049,43.9216667 120.598076,43.995 C120.407445,44.07 120.233391,44.2233333 120.074256,44.4516667 C119.915121,44.6816667 119.795769,45.0116667 119.717859,45.4366667 C119.636634,45.8616667 119.630004,46.1866667 119.692995,46.4066667 C119.754328,46.6516667 119.881968,46.835 120.077571,46.96 C120.266544,47.0866667 120.48867,47.1183333 120.737319,47.06 C121.123553,46.9716667 121.348995,46.8133333 121.407013,46.5816667 L121.635769,45.9883333 L121.808166,44.7733333 Z M122.209319,41.905 L124.571481,41.905 L123.590148,48.9233333 C123.523841,49.3833333 123.440959,49.765 123.334868,50.07 C123.227121,50.37 123.061355,50.6266667 122.832598,50.84 C122.602184,51.0566667 122.30049,51.235 121.915914,51.3866667 C121.531337,51.5383333 121.075481,51.6266667 120.546688,51.6566667 C119.850472,51.6916667 119.303445,51.6316667 118.91058,51.4766667 C118.516058,51.32 118.237571,51.1683333 118.075121,51.0166667 C117.914328,50.8633333 117.793319,50.695 117.703805,50.5033333 C117.620923,50.315 117.564562,50.135 117.541355,49.9633333 L117.473391,49.555 L119.938328,49.555 C119.984742,49.6466667 120.041103,49.7233333 120.104094,49.7833333 C120.167085,49.8433333 120.27649,49.875 120.43231,49.875 C120.558292,49.88 120.687589,49.8483333 120.820202,49.7783333 C120.949499,49.7066667 121.042328,49.6266667 121.087085,49.5333333 C121.135157,49.4433333 121.174941,49.3016667 121.201463,49.1116667 L121.319157,48.275 C121.020778,48.4883333 120.753895,48.645 120.511877,48.7516667 C120.271517,48.8566667 119.916778,48.9 119.452634,48.8816667 C118.978544,48.8633333 118.575733,48.76 118.242544,48.565 C117.91267,48.375 117.670652,48.095 117.518148,47.7233333 C117.367301,47.3533333 117.302652,46.8883333 117.324202,46.33 C117.347409,45.7683333 117.436923,45.17 117.597715,44.535 C117.698832,44.1283333 117.82813,43.7683333 117.977319,43.4666667 C118.129823,43.1633333 118.340346,42.875 118.605571,42.6016667 C118.874112,42.335 119.217247,42.13 119.626688,41.99 C120.039445,41.8533333 120.448886,41.8083333 120.859986,41.8666667 C121.320814,41.9283333 121.629139,42.0533333 121.773355,42.235 L122.111517,42.5916667 L122.209319,41.905 Z" id="Fill-12" fill="#B21F25"></path>
                    <path d="M136.888043,42.8641667 L135.95644,45.0808333 L137.22289,45.0808333 L136.888043,42.8641667 Z M135.895106,39.3258333 L138.817557,39.3258333 L140.621088,48.7458333 L137.675431,48.7458333 L137.46325,47.3458333 L135.125953,47.3458333 L134.542458,48.7458333 L131.620007,48.7458333 L135.895106,39.3258333 Z" id="Fill-14" fill="#B21F25"></path>
                    <path d="M142.774054,41.2348333 L143.044252,39.3131667 L145.426306,39.3131667 L145.156108,41.2348333 L142.774054,41.2348333 Z M142.686198,41.8731667 L145.068252,41.8731667 L144.108468,48.7265 L141.728072,48.7265 L142.686198,41.8731667 Z" id="Fill-16" fill="#B21F25"></path>
                    <path d="M146.866479,41.8795 L149.163993,41.8795 L149.05293,42.7511667 L150.07902,42.1528333 C150.216605,42.0711667 150.345903,42.0128333 150.465254,41.9728333 C150.584605,41.9328333 150.703957,41.9111667 150.826623,41.9111667 L151.405146,41.9111667 L151.116714,43.9678333 L150.476858,43.9678333 C150.362479,43.9678333 150.228209,43.9961667 150.072389,44.0511667 C149.918227,44.1045 149.775668,44.1761667 149.641398,44.2545 L148.776101,44.7728333 L148.224101,48.7261667 L145.910011,48.7261667 L146.866479,41.8795 Z" id="Fill-18" fill="#B21F25"></path>
                    <polygon id="Fill-20" fill="#B21F25" points="154.558177 48.7641667 152.176123 48.7641667 153.495618 39.3125 155.877672 39.3125"></polygon>
                    <path d="M157.673578,41.2348333 L157.943777,39.3131667 L160.325831,39.3131667 L160.055632,41.2348333 L157.673578,41.2348333 Z M157.585723,41.8731667 L159.966119,41.8731667 L159.007993,48.7265 L156.627596,48.7265 L157.585723,41.8731667 Z" id="Fill-22" fill="#B21F25"></path>
                    <path d="M167.299762,48.7316667 L164.9376,48.7316667 L165.429924,45.195 C165.46805,44.93 165.463077,44.705 165.416663,44.5216667 C165.368591,44.3366667 165.265816,44.1866667 165.10005,44.0733333 C164.939258,43.9616667 164.727077,43.945 164.473456,44.025 C164.252987,44.0983333 164.07396,44.2316667 163.943005,44.42 C163.810393,44.6116667 163.722537,44.8716667 163.67778,45.195 L163.182141,48.7316667 L160.844843,48.7316667 L161.799654,41.905 L164.136951,41.905 L164.022573,42.7233333 C164.282825,42.475 164.51324,42.285 164.720447,42.1533333 C164.925996,42.025 165.17796,41.9283333 165.484627,41.8733333 C165.786321,41.8183333 166.107906,41.8133333 166.439438,41.86 C166.810753,41.915 167.11742,42.0266667 167.347834,42.195 C167.576591,42.365 167.748987,42.61 167.863366,42.94 C167.977744,43.27 168.010897,43.6066667 167.964483,43.9616667 L167.299762,48.7316667 Z" id="Fill-24" fill="#B21F25"></path>
                    <path d="M173.601016,44.3583333 C173.596043,44.2333333 173.571178,44.115 173.53471,44.0016667 C173.498241,43.8833333 173.390494,43.78 173.211467,43.69 C173.035755,43.6 172.850097,43.5616667 172.657809,43.58 C172.467178,43.6 172.288151,43.6666667 172.11907,43.78 C171.951647,43.8916667 171.840584,44.015 171.789196,44.1516667 L171.69471,44.3583333 L173.601016,44.3583333 Z M171.451034,46.2416667 C171.507395,46.4 171.56044,46.5216667 171.610169,46.605 C171.664872,46.6866667 171.742782,46.7616667 171.848872,46.83 C171.954962,46.9 172.114097,46.94 172.321305,46.945 C172.606422,46.9583333 172.821917,46.9133333 172.967791,46.8133333 L173.267827,46.625 L175.688007,46.625 C175.545449,46.905 175.401232,47.1566667 175.257016,47.3783333 C175.111142,47.6016667 174.87907,47.8316667 174.564115,48.0733333 C174.245845,48.315 173.844692,48.5033333 173.363971,48.645 C172.878277,48.785 172.414133,48.8383333 171.969881,48.81 C171.520656,48.785 171.104584,48.6833333 170.713377,48.51 C170.330458,48.3333333 170.008872,48.105 169.750277,47.82 C169.494998,47.535 169.30271,47.1183333 169.173413,46.5733333 C169.042458,46.0283333 169.087214,45.3766667 169.30271,44.625 C169.476764,44.01 169.750277,43.48 170.124908,43.0316667 C170.497881,42.5883333 170.90898,42.2766667 171.358205,42.095 C171.807431,41.9133333 172.337881,41.8133333 172.947899,41.7916667 C173.491611,41.79 173.920944,41.8366667 174.230926,41.9433333 C174.540908,42.0483333 174.834314,42.2233333 175.102854,42.4633333 C175.373052,42.705 175.565341,42.97 175.679719,43.255 C175.797413,43.5433333 175.87035,43.8216667 175.895214,44.085 C175.920079,44.3533333 175.930025,44.6316667 175.918422,44.9333333 C175.910133,45.2316667 175.895214,45.4583333 175.872007,45.6083333 L175.784151,46.2416667 L171.451034,46.2416667 Z" id="Fill-26" fill="#B21F25"></path>
                    <path d="M181.351892,43.756 C181.308793,43.5843333 181.244144,43.446 181.156288,43.3376667 C181.073405,43.226 180.894378,43.1776667 180.622523,43.1926667 C180.350667,43.211 180.160036,43.2776667 180.053946,43.3926667 C179.946198,43.506 179.908072,43.636 179.939568,43.7776667 C179.961117,43.8943333 180.060577,43.9926667 180.237946,44.066 C180.418631,44.141 180.718667,44.2076667 181.134739,44.266 C181.554126,44.3276667 181.938703,44.4276667 182.293441,44.5693333 C182.64155,44.7093333 182.908432,44.9193333 183.092432,45.1976667 C183.27809,45.4776667 183.367604,45.8243333 183.369261,46.241 C183.369261,46.6576667 183.271459,47.0443333 183.069225,47.391 C182.873622,47.7276667 182.59182,48.0176667 182.227135,48.2576667 C181.860793,48.4993333 181.449694,48.671 180.990523,48.7726667 C180.529694,48.881 180.068865,48.9093333 179.606378,48.861 C179.114054,48.8176667 178.716216,48.7143333 178.406234,48.5443333 C178.09791,48.3776667 177.832685,48.1643333 177.620505,47.901 C177.403351,47.6426667 177.287315,47.4026667 177.272396,47.1876667 L177.166306,46.4526667 L179.306342,46.4526667 C179.36436,46.5976667 179.429009,46.7176667 179.496973,46.8126667 C179.563279,46.906 179.682631,46.991 179.845081,47.066 C180.009189,47.1493333 180.186559,47.1743333 180.375532,47.1393333 C180.564505,47.1143333 180.705405,47.0526667 180.799892,46.9576667 C180.897694,46.8626667 180.952396,46.7643333 180.960685,46.6543333 C180.970631,46.5143333 180.909297,46.3943333 180.770054,46.291 C180.632468,46.191 180.438523,46.111 180.186559,46.0576667 L179.395856,45.896 C179.155495,45.8426667 178.898559,45.761 178.626703,45.6626667 C178.358162,45.5576667 178.132721,45.4126667 177.950378,45.2243333 C177.768036,45.0343333 177.645369,44.791 177.587351,44.4943333 C177.527676,44.1993333 177.564144,43.8626667 177.695099,43.4893333 C177.794559,43.1926667 177.938775,42.9376667 178.131063,42.7143333 C178.325009,42.4926667 178.595207,42.2993333 178.946631,42.1293333 C179.301369,41.9593333 179.667712,41.8443333 180.053946,41.7843333 C180.438523,41.7243333 180.826414,41.706 181.212649,41.726 C181.661874,41.756 182.043135,41.8326667 182.351459,41.9576667 C182.664757,42.0793333 182.929982,42.2693333 183.147135,42.5293333 C183.367604,42.786 183.481982,43.0293333 183.493586,43.2626667 L183.530054,43.756 L181.351892,43.756 Z" id="Fill-28" fill="#B21F25"></path>
                    <path d="M111.484937,24.8173333 L111.839676,22.3123333 L113.469153,22.3123333 L113.112757,24.8173333 L111.484937,24.8173333 Z M112.955279,25.964 L112.569045,28.6973333 L110.932937,28.6973333 L111.324144,25.964 L112.955279,25.964 Z M112.240829,30.954 L113.880252,30.964 L115.242847,20.974 L110.445586,20.9656667 L108.907279,31.8073333 L110.483712,31.844 L110.777117,29.949 L112.368468,29.949 L112.240829,30.954 Z" id="Fill-30" fill="#B21F25"></path>
                    <path d="M120.21035,22.2163333 L119.910314,24.338 L117.324368,24.338 L117.624404,22.2163333 L120.21035,22.2163333 Z M119.744548,25.5046667 L119.4528,27.5546667 L116.84862,27.5546667 L117.125449,25.5046667 L119.744548,25.5046667 Z M117.19507,33.1113333 C117.19507,33.1113333 119.076512,33.2063333 119.656692,32.918 C120.109232,32.6913333 120.468944,32.1663333 120.551827,31.5746667 L122.171359,20.813 L116.03471,20.813 L115.056692,28.2596667 C114.715214,31.7046667 111.900512,32.648 111.900512,32.648 L113.031034,33.3846667 C113.031034,33.3846667 114.872692,32.428 115.615323,31.4246667 C116.105989,30.7613333 116.392764,29.8513333 116.648043,28.7946667 L119.278746,28.7946667 L118.940584,31.1696667 C118.864332,31.6246667 118.700223,31.8596667 118.390241,31.8696667 C117.763647,31.9163333 116.830386,31.8063333 116.830386,31.8063333 C116.830386,31.8063333 117.08235,32.5163333 117.19507,33.1113333 L117.19507,33.1113333 Z" id="Fill-32" fill="#B21F25"></path>
                    <path d="M137.722674,24.0523333 L136.428043,31.7256667 C136.353449,32.1606667 137.089449,32.1606667 137.160728,31.734 L137.44916,29.9823333 L138.831647,30.5256667 L138.422205,32.064 C138.205052,32.6956667 137.792295,33.0823333 137.07453,33.1523333 L135.753377,33.1523333 C134.97262,33.1006667 134.612908,32.5773333 134.667611,31.8806667 L135.78653,25.2373333 L134.601305,25.2373333 L133.891827,29.4306667 C133.610025,31.0656667 132.816007,32.779 131.121881,33.4156667 L130.311286,32.7206667 C131.478277,31.9973333 131.789917,31.2523333 132.048512,29.7573333 L133.018241,24.0523333 L137.722674,24.0523333 Z M128.862494,27.6973333 L128.366854,30.619 L127.161737,30.6056667 L127.629196,27.8623333 L127.092115,27.9223333 L126.981052,28.5973333 C126.594818,30.8423333 125.6168,32.354 124.177953,33.354 L123.272872,32.734 C124.240944,32.039 124.981917,30.8706667 125.194097,29.6223333 L125.446061,28.1506667 L124.204476,28.3106667 L124.469701,26.7923333 L125.689737,26.694 L126.485413,22.0106667 L127.557917,22.0106667 L128.282314,20.0573333 L130.080872,20.5956667 L129.164187,22.0106667 L131.907611,22.0106667 L131.181557,26.274 L132.096584,26.209 L131.914241,27.2923333 L130.987611,27.4123333 L130.306314,31.4656667 C130.128944,32.4606667 129.543791,33.1923333 128.290602,33.1923333 L126.677701,33.1923333 L126.468836,31.8156667 C127.082169,31.8923333 128.58898,32.4073333 128.741485,31.529 L129.404548,27.6306667 L128.862494,27.6973333 Z M128.343647,23.654 L129.553737,23.654 L129.071359,26.4473333 L129.613413,26.4006667 L130.16044,23.1706667 L127.899395,23.1706667 L127.32253,26.5673333 L127.848007,26.5256667 L128.343647,23.654 Z M132.048512,23.369 L132.239142,22.2356667 L134.876476,22.2356667 L135.077052,20.2656667 L136.933629,20.539 L136.441305,22.2356667 L139.342205,22.2356667 L139.143286,23.369 L132.048512,23.369 Z M148.262061,23.4206667 L147.920584,25.0973333 C147.458097,27.3606667 144.338386,27.4323333 142.546458,27.514 L142.151935,26.5056667 C143.98862,26.369 145.770602,25.8723333 146.01262,24.684 L146.27453,23.4206667 L148.262061,23.4206667 Z M151.860836,23.4373333 L151.472944,25.5556667 C151.413268,25.8906667 151.580692,26.1723333 151.976872,26.1723333 L152.6648,26.1723333 C153.014566,26.1723333 153.301341,25.909 153.45053,25.5556667 L153.811899,24.684 L155.325341,25.4873333 C154.847935,26.5256667 154.231286,27.314 152.981413,27.314 L150.730314,27.314 C149.744007,27.314 149.379323,26.6456667 149.535142,25.799 L149.964476,23.4373333 L151.860836,23.4373333 Z M142.655863,24.4506667 L143.144872,21.6156667 L148.59525,21.6156667 L148.701341,19.899 L150.708764,20.184 L150.330818,21.6156667 L156.076259,21.6156667 L155.622061,24.2323333 L153.773773,24.2323333 L154.007503,22.7023333 L144.810818,22.7023333 L144.505809,24.4506667 L142.655863,24.4506667 Z M143.181341,27.9356667 L153.891467,27.9356667 L153.677629,29.279 L149.326277,29.279 L148.895286,31.8023333 L154.877773,31.8023333 L154.653989,33.139 L141.047935,33.139 L141.265088,31.8023333 L146.796692,31.8023333 L147.221052,29.279 L142.964187,29.279 L143.181341,27.9356667 Z" id="Fill-34" fill="#B21F25"></path>
                    <path d="M101.932353,29.9978333 L105.320605,28.7045 L105.456533,27.4628333 C105.456533,27.4628333 103.805506,27.9611667 102.131272,28.4795 L102.39484,26.8295 L100.778623,26.8295 L100.166948,31.5745 C100.142083,31.7428333 100.130479,31.8995 100.130479,32.0378333 C100.130479,32.3411667 100.18684,32.5778333 100.334371,32.7395 C100.55484,32.9645 100.95102,33.0361667 101.537831,33.0411667 L103.982876,33.0411667 C104.523272,33.0411667 104.954263,32.9078333 105.265903,32.6361667 C105.728389,32.2311667 106.096389,30.6011667 106.096389,30.6011667 L104.859777,30.0195 L104.798443,30.3378333 C104.664173,31.0761667 104.52493,31.3628333 104.389002,31.5195 C104.266335,31.6745 104.006083,31.8511667 103.553542,31.8495 L102.141218,31.8611667 C101.718515,31.8728333 101.670443,31.6261667 101.688677,31.5411667 C101.700281,31.4678333 101.932353,29.9978333 101.932353,29.9978333" id="Fill-36" fill="#B21F25"></path>
                    <path d="M95.1261766,31.8468333 L95.7991856,26.8268333 L97.4518703,26.8168333 L97.2446631,28.1668333 L100.195294,28.1985 L100.046105,29.2901667 L97.0623207,29.4518333 L96.8086991,31.3268333 C98.0519423,30.8985 99.7991135,30.2101667 99.7991135,30.2101667 L99.6383207,31.5285 L95.0781045,33.4885 L94.5692036,32.0635 L95.1261766,31.8468333 Z" id="Fill-38" fill="#B21F25"></path>
                    <path d="M103.967294,23.0268333 L98.0991856,23.0268333 L98.2384288,22.0185 L104.108195,22.0185 L103.967294,23.0268333 Z M103.649023,25.2718333 L97.8090955,25.2718333 L97.966573,24.1568333 L103.803186,24.1585 L103.649023,25.2718333 Z M96.7117261,20.7435 C96.6404468,21.2685 95.9210234,26.5318333 95.9210234,26.5318333 L105.149204,26.5535 C105.149204,26.5535 105.933276,20.8285 105.944879,20.7435 L96.7117261,20.7435 Z" id="Fill-40" fill="#B21F25"></path>
                    <path d="M3.90792793,17.3611667 C3.90792793,17.3611667 9.0649009,17.5878333 9.75117117,15.0595 C9.75117117,15.0595 10.8021261,16.6545 8.69855856,17.5978333 C7.10389189,18.2561667 3.90792793,17.3611667 3.90792793,17.3611667" id="Fill-42" fill="#B21F25"></path>
                    <path d="M3.00964324,17.0861667 C3.00964324,17.0861667 6.00503063,16.6745 6.18737297,15.2061667 C6.18737297,15.2061667 6.8869045,16.0178333 5.80611171,16.7045 C4.9805982,17.1945 3.00964324,17.0861667 3.00964324,17.0861667" id="Fill-44" fill="#B21F25"></path>
                    <path d="M6.73125045,18.1083333 C6.73125045,18.1083333 10.0382775,18.8983333 10.7460973,17.4066667 C10.7460973,17.4066667 11.1969802,18.5216667 9.81615135,18.86 C8.77348468,19.0833333 6.73125045,18.1083333 6.73125045,18.1083333" id="Fill-46" fill="#B21F25"></path>
                    <path d="M54.0731243,38.761 C54.0731243,38.761 50.7379171,38.9326667 46.341809,40.2026667 C44.0094847,40.8776667 42.1263856,41.691 39.9415928,41.921 C39.5420973,42.111 38.3402955,43.091 36.5102414,43.296 C33.8082595,43.5993333 33.224764,42.3543333 33.1435387,42.241 C32.2566919,42.486 30.8460252,42.4076667 30.2476108,41.4993333 C29.0889081,39.731 30.1050523,38.5543333 30.096764,38.5193333 C30.0188541,38.2226667 29.2182054,36.681 30.7150703,35.2726667 C32.115791,34.3126667 33.1087279,34.7993333 33.5049081,34.826 C33.5049081,34.826 34.2458811,33.656 35.9300613,33.5726667 C36.8434306,33.4926667 38.1065658,33.626 38.986782,35.2676667 C38.986782,35.2676667 41.0373045,35.721 40.9080072,37.6843333 C40.7969441,39.3343333 38.8210162,40.046 37.4650523,40.026 C36.1952865,40.011 34.5525477,38.6043333 35.6847279,37.3776667 C35.6847279,37.3776667 35.7725838,38.5493333 36.6677189,38.5426667 C37.6788901,38.5376667 38.1065658,36.4043333 35.6681514,36.1776667 C33.103755,35.9426667 32.1854126,37.7993333 32.3495207,38.6093333 C32.4937369,39.3343333 33.0838631,41.261 37.6158991,40.9843333 C42.1479351,40.7076667 45.8494847,36.906 54.0731243,38.761" id="Fill-48" fill="#B21F25"></path>
                    <path d="M19.7432,34.8775 C21.2964252,30.1875 25.268173,27.2025 28.4177225,25.2008333 C31.8391279,23.0308333 37.3110559,19.9725 57.0736505,19.2425 C61.1415423,19.0941667 67.1008216,17.4725 67.1008216,17.4725 L67.3793081,17.1741667 L67.8169297,17.0908333 L68.3755604,17.0041667 L68.7733982,16.7525 L69.0104432,16.4991667 L69.3303712,16.3708333 L69.7265514,16.1175 L70.0083532,15.6941667 C70.0083532,15.6941667 70.164173,15.6541667 70.4045333,15.5691667 C70.643236,15.4825 70.7625874,15.3575 70.7625874,15.3575 L71.0012901,15.1875 L71.2399928,15.0191667 L71.5184793,14.8091667 L72.3423351,14.4408333 L72.5826955,14.3591667 L72.8197405,14.3158333 C72.8197405,14.3158333 72.977218,13.9375 73.1794523,13.8525 C73.2324973,13.8275 73.3369297,13.7925 73.4198126,13.7358333 C73.6469117,13.5825 73.8955604,13.3458333 73.8955604,13.3458333 C73.8955604,13.3458333 73.8143351,13.5075 73.7828396,13.5741667 C73.7513441,13.6425 73.6319928,13.6941667 73.5690018,13.7441667 C73.5060108,13.7958333 73.4363892,13.9575 73.4363892,13.9575 L73.2324973,14.2241667 L73.1214342,14.3908333 C73.1214342,14.3908333 72.9175423,14.4608333 72.8545514,14.4758333 C72.7915604,14.4941667 72.8064793,14.4941667 72.7584072,14.5608333 C72.7103351,14.6275 72.6490018,14.6108333 72.6490018,14.6108333 L72.6357405,14.7258333 L72.7269117,14.7941667 L72.8694703,14.8591667 L72.8363171,14.9941667 L72.4915243,14.9941667 L72.3489658,14.9941667 L72.1765694,15.0608333 L72.1765694,15.2775 C72.1765694,15.3441667 72.2229838,15.3791667 72.2229838,15.3791667 L72.3489658,15.4291667 L72.3970378,15.5458333 L72.3340468,15.6125 L72.0058306,15.7541667 L71.8019387,15.7908333 L71.694191,15.9075 L71.694191,16.1091667 C71.694191,16.1741667 71.7704432,16.2091667 71.7704432,16.2091667 L71.9279207,16.1741667 L72.0688216,16.1591667 L71.9279207,16.3425 L71.7372901,16.4591667 L71.3278486,16.7275 L71.1703712,16.8441667 C71.1703712,16.8441667 71.1073802,16.7791667 71.0460468,16.7108333 C70.9830559,16.6441667 70.8885694,16.9108333 70.8239207,16.9458333 C70.7625874,16.9775 70.5089658,17.1291667 70.5089658,17.1291667 L70.3216505,17.2275 L70.0696865,17.3941667 L69.8956324,17.4791667 L69.7066595,17.6291667 L69.5160288,17.6791667 L69.4712721,17.7975 L69.3121369,17.9291667 C69.3121369,17.9291667 69.2491459,17.8625 69.0286775,17.9125 C68.808209,17.9658333 68.9010378,18.0141667 68.8397045,18.1141667 C68.7767135,18.2158333 68.5098306,18.4158333 68.5098306,18.4158333 C68.5098306,18.4158333 68.2744432,18.5308333 68.1948757,18.5675 C68.1153081,18.5975 67.6577946,18.9175 67.5168937,18.9675 C67.3759928,19.0175 66.1924252,19.5858333 66.1924252,19.5858333 C66.1924252,19.5858333 65.990191,19.6691667 65.9255423,19.6691667 C65.864209,19.6691667 65.8327135,19.7708333 65.8327135,19.7708333 C65.8327135,19.7708333 65.864209,19.9041667 65.9421189,19.9208333 C66.0216865,19.9375 66.1493261,19.7708333 66.1493261,19.7708333 L66.3051459,19.6358333 C66.3051459,19.6358333 66.3996324,19.5691667 66.5090378,19.5191667 C66.6184432,19.4691667 66.6980108,19.4691667 66.6980108,19.4691667 C66.6980108,19.4691667 66.9184793,19.4025 66.7444252,19.4691667 C66.5720288,19.5341667 67.0610378,19.4691667 67.0610378,19.4691667 L67.1870198,19.3858333 C67.1870198,19.3858333 67.2334342,19.3341667 67.3130018,19.3341667 C67.3925694,19.3341667 67.5334703,19.2508333 67.5334703,19.2508333 L67.7705153,19.1325 L67.9909838,19.0508333 C67.9909838,19.0508333 68.0059027,18.9341667 68.1003892,18.8308333 C68.1948757,18.7325 68.3374342,18.8508333 68.3374342,18.8508333 L68.5396685,18.7325 C68.5396685,18.7325 68.6988036,18.6808333 68.808209,18.6325 C68.9192721,18.5841667 69.6287495,18.2991667 69.8508757,18.1808333 C70.0696865,18.0641667 70.4476324,17.9958333 70.4476324,17.9958333 C70.4476324,17.9958333 69.7398126,18.4641667 69.5641009,18.5841667 C69.3933622,18.6975 68.445182,19.1991667 68.1484613,19.3341667 C67.8500829,19.4691667 67.2815063,19.8025 67.2815063,19.8025 C67.2815063,19.8025 67.0610378,19.8375 66.9499748,19.8858333 C66.8405694,19.9375 66.1924252,20.4575 66.1924252,20.4575 C66.1924252,20.4575 64.6027315,21.1091667 62.0084973,21.6941667 C55.8386955,23.3008333 45.6540468,23.9191667 45.6540468,23.9191667 C51.8105874,23.9525 56.0773982,23.2158333 59.2601009,22.7941667 C62.4461189,22.3708333 68.813182,20.2158333 68.813182,20.2158333 C64.9127135,23.5525 58.2340108,24.3975 56.0392721,24.6941667 C54.020245,24.9675 50.8043892,24.9458333 44.5765694,25.6241667 C37.465218,26.3958333 22.6905153,30.8875 22.3308036,38.8041667 C22.1434883,42.9441667 26.1500468,44.7191667 26.1500468,44.7191667 C22.0125333,43.4108333 18.1899748,39.5658333 19.7432,34.8775" id="Fill-50" fill="#B21F25"></path>
                    <path d="M73.2479135,14.7261667 L73.2959856,14.6261667 L73.405391,14.5761667 L73.4833009,14.5095 L73.579445,14.3911667 L73.6722739,14.3261667 L73.6556973,14.4928333 L73.5628685,14.5445 L73.4915892,14.5795 C73.4915892,14.5795 73.4468324,14.6278333 73.4269405,14.6445 C73.4070486,14.6595 73.3772108,14.6911667 73.3772108,14.6911667 L73.347373,14.7745 L73.2678054,14.8128333 L73.2180757,14.8545 C73.2180757,14.8545 73.2064721,14.9278333 73.1882378,14.9395 C73.1683459,14.9495 73.163373,14.9561667 73.1335351,14.9561667 C73.1036973,14.9561667 73.0738595,14.9395 73.0738595,14.9395 L73.042364,14.8778333 L73.1517694,14.8095 L73.2479135,14.7261667 Z" id="Fill-52" fill="#B21F25"></path>
                    <path d="M69.3239063,22.5451667 C69.3239063,22.5451667 66.6003748,25.0668333 59.8918342,26.3535 C53.4684108,27.5901667 45.6741045,26.2401667 36.6034018,29.4085 C28.8505369,31.9901667 27.5227532,34.3485 27.5227532,34.3485 C27.5227532,34.3485 31.474609,31.8501667 39.2175279,30.2385 C46.1216721,28.8001667 52.8849153,29.0401667 53.9126631,29.0401667 C54.9370955,29.0401667 60.7107171,29.0768333 63.2403027,27.8068333 C63.2403027,27.8068333 63.4458523,27.8801667 63.5834378,27.7351667 C63.7177081,27.5901667 63.7873297,27.5168333 63.7873297,27.5168333 C63.7873297,27.5168333 65.461564,26.5385 65.5958342,26.4268333 C65.7334198,26.3201667 66.0782126,26.1735 66.0782126,26.1735 L66.6915459,25.7018333 C66.6915459,25.7018333 66.1726991,25.8235 66.1644108,25.8568333 C66.1577802,25.8918333 66.1080505,25.9018333 66.0682667,25.9251667 C66.0301405,25.9501667 65.9025009,26.0018333 65.8710054,26.0085 C65.8378523,26.0168333 65.6952937,26.0668333 65.6952937,26.0668333 L65.5527351,26.0351667 L65.5295279,25.9601667 L65.6074378,25.8568333 L65.7433658,25.6985 C65.7433658,25.6985 65.8859243,25.5801667 66.0119063,25.5301667 C66.1395459,25.4801667 66.5373838,25.2685 66.618609,25.2435 C66.6948613,25.2185 66.8772036,25.1185 66.9252757,25.0918333 C66.9733477,25.0668333 67.3048793,24.8801667 67.4623568,24.7368333 C67.6248072,24.5935 67.901636,24.2668333 67.9414198,24.2335 C67.9812036,24.2001667 68.1071856,24.1585 68.1701766,24.0468333 C68.2348252,23.9368333 68.3442306,23.8535 68.3840144,23.7601667 C68.4254559,23.6701667 68.4503207,23.5518333 68.463582,23.4918333 C68.4801586,23.4318333 68.5116541,23.3568333 68.5116541,23.3568333 C68.5116541,23.3568333 68.5282306,23.2401667 68.6227171,23.1985 C68.7188613,23.1551667 68.8614198,23.1551667 68.8614198,23.1551667 C68.8614198,23.1551667 68.9409874,23.1135 68.9492757,23.0718333 C68.9559063,23.0301667 68.9956901,23.0035 68.9956901,22.9635 C68.9956901,22.9201667 69.1150414,22.8535 69.1150414,22.8535 C69.1150414,22.8535 69.2642306,22.7335 69.2973838,22.7018333 C69.3305369,22.6668333 69.4001586,22.5768333 69.4001586,22.5768333 L69.4266811,22.4901667 L69.3239063,22.5451667 Z" id="Fill-54" fill="#B21F25"></path>
                    <g transform="translate(0.000000, 16.666667)">
                        <mask id="mask-2" fill="white">
                            <use xlink:href="#path-1"></use>
                        </mask>
                        <g id="Clip-57"></g>
                        <path d="M28.2710198,33.7511667 C28.2710198,33.7511667 28.2925694,33.7695 28.3456144,33.7861667 C28.3986595,33.7995 28.4003171,33.7778333 28.4318126,33.7728333 C28.4633081,33.7695 28.4699387,33.7795 28.4699387,33.7795 C28.4699387,33.7795 28.5113802,33.8461667 28.5379027,33.8795 C28.5644252,33.9128333 28.5776865,33.8778333 28.604209,33.8695 C28.6290739,33.8628333 28.6539387,33.8461667 28.6804613,33.8395 C28.7069838,33.8311667 28.798155,33.7828333 28.798155,33.7828333 C28.798155,33.7828333 28.7848937,33.7161667 28.7766054,33.6978333 C28.7683171,33.6778333 28.7467676,33.6695 28.7467676,33.6695 L28.7169297,33.6545 L28.6705153,33.6545 L28.6290739,33.6678333 C28.6290739,33.6678333 28.5810018,33.6745 28.5677405,33.6578333 C28.5544793,33.6411667 28.5577946,33.6328333 28.5577946,33.6328333 C28.5577946,33.6328333 28.5478486,33.6145 28.5329297,33.5928333 C28.5163532,33.5728333 28.4931459,33.5695 28.4931459,33.5695 C28.4931459,33.5695 28.4666234,33.5611667 28.4434162,33.5645 C28.4235243,33.5678333 28.3472721,33.6311667 28.3025153,33.6528333 C28.2561009,33.6745 28.2726775,33.6778333 28.2660468,33.7128333 C28.2594162,33.7461667 28.2710198,33.7511667 28.2710198,33.7511667 M30.6530739,32.3878333 C30.7094342,32.3828333 30.7077766,32.4128333 30.7077766,32.4128333 L30.7376144,32.4328333 L30.7873441,32.4511667 C30.8088937,32.4511667 30.8271279,32.4428333 30.8602811,32.4378333 C30.8917766,32.4328333 30.9232721,32.3978333 30.9232721,32.3978333 L30.9000649,32.3461667 L30.8254703,32.3128333 L30.7425874,32.3428333 L30.6912,32.3561667 C30.6912,32.3561667 30.6762811,32.3278333 30.5834523,32.2711667 C30.4889658,32.2195 30.5502991,32.3011667 30.5337225,32.3561667 C30.5188036,32.4078333 30.5967135,32.3895 30.6530739,32.3878333 M-0.000331531532,0.652833333 C-0.000331531532,0.652833333 7.53538018,0.181166667 13.216173,7.36116667 C14.5737946,9.07616667 16.1900108,11.8228333 15.8385874,19.2045 C15.6363532,23.4011667 18.736173,27.6761667 23.8417586,28.7928333 C33.5407135,30.9145 43.1203171,27.4061667 43.1203171,27.4061667 C41.2173261,29.0661667 34.2336144,30.3311667 32.8229477,30.5411667 C31.0044973,30.8161667 28.0721009,30.8061667 27.2266955,30.7828333 C26.3779748,30.7561667 23.6478126,30.3795 23.4538667,30.3795 C23.263236,30.3745 23.0610018,30.3978333 23.0610018,30.3978333 L23.3544072,30.5728333 C23.3544072,30.5728333 23.8334703,30.7828333 23.9279568,30.8311667 C24.0257586,30.8828333 24.1583712,30.9145 24.3125333,30.9395 C24.4666955,30.9595 24.5247135,30.9328333 24.6606414,30.9145 C24.7949117,30.8961667 24.8330378,30.9278333 24.9474162,31.0195 C25.0617946,31.1111667 25.8508396,31.1145 25.9453261,31.1661667 C26.0414703,31.2161667 26.3597405,31.1845 26.3597405,31.1845 L27.0725333,31.3245 L27.2731099,31.3495 C27.2731099,31.3495 27.3808577,31.3195 27.6129297,31.3045 C27.8416865,31.2878333 28.1483532,31.4828333 28.7235604,31.4945 C29.3020829,31.5011667 31.616173,31.4961667 32.1549117,31.5245 C32.6936505,31.5545 32.8693622,31.4195 33.0417586,31.3811667 C33.2158126,31.3445 33.2837766,31.3378333 33.2837766,31.3378333 L33.6318847,31.3128333 L33.8987676,31.4761667 L34.3612541,31.4428333 C34.3612541,31.4428333 34.5651459,31.4195 34.6994162,31.4011667 C34.8353441,31.3828333 35.6956685,31.2311667 36.3521009,31.1511667 C37.0085333,31.0761667 38.9877766,30.4878333 38.9877766,30.4878333 L39.0822631,30.5911667 L38.7026595,30.7511667 L38.5136865,30.8695 L38.114191,30.9411667 L37.5157766,31.1378333 C37.5157766,31.1378333 37.1776144,31.3378333 37.0698667,31.3628333 C36.9637766,31.3911667 35.959236,31.5411667 35.5829477,31.6061667 C35.2066595,31.6678333 34.4806054,31.8028333 34.0860829,31.8761667 C33.6899027,31.9495 32.289182,32.1211667 32.1350198,32.1495 C31.9808577,32.1761667 31.3426595,32.2461667 31.3426595,32.2461667 L31.1387676,32.3211667 L31.3476324,32.4645 L31.7056865,32.4078333 C31.7056865,32.4078333 31.8598486,32.3828333 32.2460829,32.3395 C32.6323171,32.2978333 33.7595243,32.3061667 33.7595243,32.3061667 L34.4010378,32.0428333 L34.5336505,32.1211667 L34.3297586,32.2478333 L34.3944072,32.3895 C34.3944072,32.3895 34.4308757,32.4678333 34.4507676,32.5578333 C34.4673441,32.6495 34.3231279,32.6445 34.3231279,32.6445 L34.0993441,32.7811667 L33.7794162,32.8645 L33.4942991,32.7095 C33.4942991,32.7095 33.1760288,32.7445 33.0384432,32.8111667 C32.9025153,32.8795 32.8246054,32.9161667 32.7284613,32.9145 C32.6323171,32.9128333 32.4300829,32.8895 32.4300829,32.8895 L32.1333622,32.8145 C32.1333622,32.8145 31.8996324,32.8795 31.8233802,32.9178333 C31.7454703,32.9578333 31.7139748,33.0928333 31.7139748,33.0928333 L31.5747315,33.3611667 C31.5747315,33.3611667 31.4388036,33.4278333 31.3327135,33.4545 C31.2249658,33.4845 31.1603171,33.4428333 31.1603171,33.4428333 L31.1288216,33.4528333 L31.0923532,33.5178333 L31.0890378,33.5495 L31.1304793,33.5845 L31.1619748,33.6628333 L31.2299387,33.7528333 C31.2299387,33.7528333 31.5200288,33.7578333 31.6924252,33.7711667 C31.8664793,33.7845 31.926155,33.6545 32.2145874,33.6111667 L32.2295063,33.5545 L32.2560288,33.5145 L32.2974703,33.5145 L32.3372541,33.5345 L32.3820108,33.5545 L32.6488937,33.6178333 C32.6488937,33.6178333 32.957218,33.6145 33.2274162,33.5795 C33.4976144,33.5445 34.061218,33.3861667 34.061218,33.3861667 C34.061218,33.3861667 33.9136865,33.4678333 33.6799568,33.5345 C33.4495423,33.5995 32.8577586,33.7611667 32.6256865,33.8261667 C32.3936144,33.8911667 31.4769297,34.0245 31.4769297,34.0245 C31.4769297,34.0245 31.0708036,34.0261667 30.8403892,34.0911667 C30.6066595,34.1578333 29.7877766,34.2878333 29.7877766,34.2878333 L29.4695063,34.2728333 L28.7848937,34.2895 C28.7848937,34.2895 28.4682811,34.3261667 28.4086054,34.3528333 C28.3489297,34.3828333 28.5213261,34.4928333 28.5213261,34.4928333 L28.798155,34.6261667 C28.798155,34.6261667 28.7003532,34.6761667 28.5644252,34.6928333 C28.430155,34.7095 28.3936865,34.6295 28.3936865,34.6295 L28.2030559,34.5278333 C28.2030559,34.5278333 28.1052541,34.5745 28.0091099,34.6211667 C27.9113081,34.6728333 27.7107315,34.6478333 27.7107315,34.6478333 L27.442191,34.4845 C27.442191,34.4845 27.3046054,34.4845 27.0824793,34.5711667 C26.8586955,34.6561667 26.6746955,34.7228333 26.3763171,34.6945 C26.1608216,34.6795 23.8533622,34.9161667 21.6785153,34.9811667 C13.6968937,35.2495 10.1810018,32.4961667 8.9675964,29.1145 C6.48276757,22.1961667 12.0044252,17.4161667 11.3695423,12.6011667 C10.0036324,2.26783333 -0.000331531532,0.652833333 -0.000331531532,0.652833333" id="Fill-56" fill="#B21F25" mask="url(#mask-2)"></path>
                    </g>
                    <path d="M34.8643532,49.3795 L34.8975063,49.4645 C34.8975063,49.4645 34.9770739,49.5095 35.0268036,49.5278333 C35.0748757,49.5445 35.0715604,49.5461667 35.0997405,49.5528333 C35.1279207,49.5611667 35.4611099,49.5295 35.514155,49.5195 C35.5655423,49.5078333 35.7992721,49.3578333 35.7992721,49.3578333 L35.9517766,49.2761667 L36.2020829,49.1445 L36.3462991,49.1928333 L36.5485333,49.1595 L36.797182,49.0245 L36.9894703,48.9261667 L37.2016505,48.9595 C37.2016505,48.9595 37.3839928,48.9361667 37.4784793,48.8861667 C37.5746234,48.8345 37.6425874,48.8245 37.6425874,48.8245 L37.5762811,48.9861667 C37.5762811,48.9861667 37.4055423,49.0745 37.3193441,49.0978333 C37.2944793,49.1045 37.2679568,49.1095 37.2430919,49.1111667 C37.1834162,49.1178333 37.1370018,49.1211667 37.1370018,49.1211667 C37.1370018,49.1211667 36.9165333,49.2111667 36.8104432,49.2428333 C36.7043532,49.2761667 36.6977225,49.3045 36.5999207,49.3561667 C36.5054342,49.4078333 36.3976865,49.3895 36.3976865,49.3895 L36.2236324,49.3811667 L35.9086775,49.4778333 L35.6666595,49.5311667 L35.388173,49.6061667 L35.1113441,49.6278333 L34.8195964,49.5828333 L34.6571459,49.5961667 L34.579236,49.4878333 L34.7897586,49.3728333 L34.8643532,49.3795 Z" id="Fill-58" fill="#B21F25"></path>
                    <path d="M35.7394306,48.8065 C35.7576649,48.8198333 35.7742414,48.7798333 35.7725838,48.8365 C35.7676108,48.8931667 35.6780973,49.0331667 35.6548901,49.0448333 C35.6316829,49.0548333 35.616764,49.0981667 35.5852685,49.0765 C35.5521153,49.0581667 35.553773,49.0748333 35.5322234,49.0448333 C35.5139892,49.0131667 35.5090162,49.0048333 35.4891243,48.9798333 C35.4659171,48.9548333 35.3482234,48.8315 35.3482234,48.8315 C35.3482234,48.8315 35.3382775,48.8098333 35.3250162,48.7865 C35.306782,48.7665 35.2537369,48.7365 35.2537369,48.7365 C35.2537369,48.7365 35.1609081,48.7248333 35.1327279,48.7381667 C35.1062054,48.7531667 35.1161514,48.6998333 35.0150342,48.7915 C34.9139171,48.8815 34.9106018,48.8848333 34.9106018,48.8848333 C34.9106018,48.8848333 35.001773,48.9865 34.9454126,49.0031667 C34.8890523,49.0181667 34.8774486,49.0181667 34.8774486,49.0181667 C34.8774486,49.0181667 34.870818,49.0415 34.875791,49.0598333 C34.8791063,49.0815 34.8857369,49.0798333 34.8857369,49.1048333 C34.8857369,49.1265 34.8873946,49.1615 34.8873946,49.1615 L34.8011964,49.1248333 C34.8011964,49.1248333 34.7829622,49.1965 34.7796468,49.1715 C34.7730162,49.1448333 34.7813045,49.0298333 34.7813045,49.0298333 L34.7945658,48.9248333 L34.8360072,48.7715 C34.8360072,48.7715 34.7879351,48.7248333 34.8360072,48.7031667 C34.880764,48.6798333 34.9304937,48.6548333 34.9719351,48.6348333 C35.0117189,48.6131667 35.0365838,48.6031667 35.0796829,48.5815 C35.1194667,48.5615 35.2156108,48.5281667 35.2156108,48.5281667 C35.2156108,48.5281667 35.2189261,48.5081667 35.243791,48.5365 C35.2669982,48.5665 35.2769441,48.5898333 35.2935207,48.6248333 C35.3100973,48.6565 35.3465658,48.7531667 35.3465658,48.7531667 L35.3797189,48.7948333 C35.3797189,48.7948333 35.369773,48.8015 35.4294486,48.7831667 C35.4924396,48.7665 35.5454847,48.7198333 35.553773,48.7398333 C35.5637189,48.7581667 35.5935568,48.8248333 35.5935568,48.8248333 C35.5935568,48.8248333 35.5604036,48.8648333 35.6051604,48.8665 C35.6532324,48.8681667 35.7228541,48.7915 35.7394306,48.8065" id="Fill-60" fill="#B21F25"></path>
                    <g transform="translate(28.180180, 50.000000)">
                        <mask id="mask-4" fill="white">
                            <use xlink:href="#path-3"></use>
                        </mask>
                        <g id="Clip-63"></g>
                        <path d="M1.05642523,1.16 C1.05642523,1.16 1.14262342,1.14 1.17246126,1.14666667 C1.20064144,1.15166667 1.2022991,1.14333333 1.27689369,1.14333333 C1.35148829,1.14666667 1.45592072,1.16333333 1.45592072,1.16333333 L1.51062342,1.18 C1.51062342,1.18 1.54709189,1.18 1.53714595,1.19833333 C1.52554234,1.22 1.54874955,1.20166667 1.48907387,1.25166667 C1.42608288,1.3 1.44265946,1.30833333 1.41116396,1.30333333 C1.37801081,1.30166667 1.31833514,1.30333333 1.28352432,1.28166667 C1.25202883,1.25833333 1.18738018,1.27666667 1.1475964,1.27166667 C1.10781261,1.265 1.08129009,1.265 1.05476757,1.27166667 C1.02658739,1.27666667 1.01166847,1.28166667 1.01166847,1.28166667 L0.910551351,1.31833333 L0.844245045,1.34833333 L0.789542342,1.32333333 L0.744785586,1.26333333 C0.744785586,1.26333333 0.771308108,1.21666667 0.787884685,1.20166667 C0.802803604,1.19166667 1.05642523,1.16 1.05642523,1.16" id="Fill-62" fill="#B21F25" mask="url(#mask-4)"></path>
                    </g>
                    <path d="M24.3640865,24.202 C27.1290595,21.6436667 33.5723748,16.9286667 42.7922667,15.0453333 C52.0121586,13.162 62.236591,14.0303333 68.3848432,9.61533333 C68.3848432,9.61533333 68.4959063,9.66866667 68.5738162,9.66866667 C68.6533838,9.66866667 68.7528432,9.56033333 68.7528432,9.56033333 L68.9268973,9.522 C69.1158703,9.39866667 69.2948973,9.27533333 69.470609,9.15366667 C69.4523748,9.14866667 69.4357982,9.14533333 69.4357982,9.14533333 C69.4357982,9.14533333 69.4225369,9.117 69.3728072,9.117 C69.3230775,9.117 69.2932396,9.11033333 69.2932396,9.11033333 C69.2932396,9.11033333 69.2750054,9.06866667 69.2617441,9.03866667 C69.2501405,9.01366667 69.2435099,9.03366667 69.2551135,9.007 C69.2683748,8.977 69.3081586,8.96366667 69.3081586,8.96366667 L69.5070775,8.76866667 L69.6413477,8.672 L69.8535279,8.652 L69.9761946,8.64366667 C69.9761946,8.64366667 70.0458162,8.66533333 70.1170955,8.63033333 C70.1883748,8.597 70.2132396,8.61533333 70.2265009,8.552 C70.2397622,8.48866667 70.2463928,8.34533333 70.2463928,8.34533333 C70.2463928,8.34533333 70.506645,8.187 70.506645,8.15866667 C70.506645,8.12866667 70.4966991,8.07866667 70.4966991,8.07866667 L70.6011315,7.99533333 C70.6011315,7.99533333 70.8547532,7.84866667 70.9757622,7.737 C71.0984288,7.627 71.4249874,7.61033333 71.4249874,7.61033333 L71.504555,7.63033333 C72.1328072,7.12866667 72.3250955,6.832 72.3250955,6.832 L72.8025009,6.472 L73.034573,6.18033333 L73.5152937,5.902 L73.7937802,5.522 L73.9263928,5.19866667 L74.1733838,4.96533333 L74.2297441,4.897 L74.3374919,4.402 C74.3374919,4.402 74.4701045,4.30533333 74.6590775,4.142 C74.8497081,3.977 74.9176721,3.81533333 74.9176721,3.81533333 L75.0436541,3.50033333 L75.2376,3.32866667 L75.4216,3.03033333 L75.9338162,2.377 L76.1244468,2.21366667 L76.3283387,2.08866667 C76.3283387,2.08866667 76.1924108,1.962 76.3449153,1.81033333 C76.3863568,1.772 76.472555,1.70033333 76.5272577,1.61866667 C76.6134559,1.49033333 76.7278342,1.38866667 76.8090595,1.322 C76.8074018,1.327 76.8057441,1.33033333 76.8057441,1.337 C76.7991135,1.40866667 76.7062847,1.50366667 76.6665009,1.572 C76.6267171,1.642 76.7692757,1.53366667 76.7692757,1.53366667 L76.6747892,1.857 L76.6300324,2.05366667 C76.6300324,2.05366667 76.4642667,2.18866667 76.4128793,2.227 C76.3631495,2.26533333 76.3747532,2.26033333 76.3548613,2.34033333 C76.3349694,2.42033333 76.2703207,2.42533333 76.2703207,2.42533333 L76.2968432,2.54033333 L76.4079063,2.57033333 L76.6035099,2.51533333 L76.5405189,2.68533333 C76.5405189,2.68533333 76.3316541,2.812 76.2603748,2.842 C76.1874378,2.86866667 76.1294198,2.89033333 76.1294198,2.89033333 L75.9934919,3.017 C75.9934919,3.017 76.0448793,3.15866667 76.0664288,3.222 C76.089636,3.28366667 76.1443387,3.297 76.1443387,3.297 L76.278609,3.29866667 L76.3598342,3.392 L76.3250234,3.477 L76.1924108,3.74366667 L76.0150414,3.847 L75.9537081,3.997 C75.9537081,3.997 76.0017802,4.122 76.0233297,4.18366667 C76.0481946,4.24533333 76.1294198,4.24866667 76.1294198,4.24866667 L76.2636901,4.162 L76.3896721,4.04366667 L76.3217081,4.31866667 L76.1874378,4.497 L75.9039784,4.892 L75.7912577,4.98366667 C75.7912577,4.98366667 75.7779964,5.06533333 75.7232937,5.03866667 C75.7382126,5.022 75.7067171,5.087 75.7150054,5.07866667 C75.7597622,5.02366667 75.6470414,5.07866667 75.6719063,5.05533333 C75.6884829,5.03533333 75.6835099,5.00033333 75.7034018,5.01033333 C75.6337802,5.09533333 75.5111135,5.252 75.5111135,5.252 L75.3751856,5.412 L75.1994739,5.66033333 L75.0701766,5.79866667 L74.9508252,6.00866667 L74.7916901,6.12366667 L74.7900324,6.25033333 L74.690573,6.43033333 C74.690573,6.43033333 74.6110054,6.39033333 74.4253477,6.517 C74.2396901,6.642 74.3441225,6.65533333 74.322573,6.772 C74.2977081,6.88866667 74.1219964,7.17033333 74.1219964,7.17033333 C74.1219964,7.17033333 73.9462847,7.36366667 73.8849514,7.42533333 C73.8219604,7.48366667 73.513636,7.94366667 73.4009153,8.04366667 C73.2881946,8.14033333 72.3996901,9.097 72.3996901,9.097 C72.3996901,9.097 72.3383568,9.15366667 72.2786811,9.20033333 L71.872555,9.75866667 C71.9007351,9.70033333 72.419582,9.28533333 72.419582,9.28533333 L72.5173838,9.102 C72.5173838,9.102 72.5820324,9.007 72.666573,8.92033333 C72.7494559,8.83366667 72.8223928,8.807 72.8223928,8.807 C72.8223928,8.807 72.9997622,8.66533333 72.8638342,8.78866667 C72.729564,8.91366667 73.1522667,8.677 73.1522667,8.677 L73.2417802,8.55033333 C73.2417802,8.55033333 73.266645,8.487 73.339582,8.462 C73.4108613,8.43366667 73.5119784,8.30366667 73.5119784,8.30366667 L73.6893477,8.11033333 L73.8634018,7.952 C73.8634018,7.952 73.8368793,7.83866667 73.8882667,7.70866667 C73.9413117,7.58033333 74.1120505,7.64033333 74.1120505,7.64033333 L74.259582,7.45533333 C74.259582,7.45533333 74.385564,7.35533333 74.4701045,7.267 C74.5529874,7.18033333 75.1049874,6.662 75.2674378,6.47366667 C75.4298883,6.28533333 75.5492396,6.32033333 75.5492396,6.32033333 C75.5492396,6.32033333 75.3934198,6.662 75.2740685,6.83366667 C75.1547171,7.00533333 74.3325189,7.92866667 74.1037622,8.162 C73.8750054,8.39366667 73.4688793,8.91033333 73.4688793,8.91033333 C73.4688793,8.91033333 73.2799063,9.02033333 73.1953658,9.10533333 C73.1588973,9.14533333 73.0561225,9.30533333 72.9566631,9.472 C72.9881586,9.447 73.0992216,9.36366667 73.3362667,9.19533333 C73.6180685,8.99366667 74.506573,8.51366667 74.506573,8.51366667 L74.8961225,8.022 L75.0337081,8.032 L74.9243027,8.21866667 L75.0370234,8.30366667 C75.0370234,8.30366667 75.0983568,8.35533333 75.1497441,8.417 C75.1994739,8.48033333 75.0867532,8.542 75.0867532,8.542 L74.9674018,8.74866667 L74.7502486,8.95366667 L74.4618162,8.95366667 C74.4618162,8.95366667 74.2314018,9.11866667 74.1534919,9.232 C74.0722667,9.34533333 74.0291676,9.41033333 73.9529153,9.44866667 C73.8750054,9.49033333 73.7092396,9.55866667 73.7092396,9.55866667 L73.4406991,9.627 C73.4406991,9.627 73.2881946,9.78033333 73.2434378,9.84366667 C73.1986811,9.90866667 73.2334919,10.032 73.2334919,10.032 L73.2351495,10.3053333 C73.2351495,10.3053333 73.155582,10.4186667 73.082645,10.487 C73.0113658,10.5553333 72.9434018,10.5536667 72.9434018,10.5536667 L72.9268252,10.572 L72.9748973,10.6786667 L72.9798703,10.6786667 L73.0362306,10.7286667 L73.1274018,10.7686667 C73.1274018,10.7686667 73.3561586,10.6486667 73.4970595,10.5853333 C73.6379604,10.5203333 73.6296721,10.3903333 73.8385369,10.2303333 L73.8252757,10.1786667 L73.8319063,10.137 L73.8650595,10.1186667 L73.9031856,10.117 L73.9462847,10.1136667 L74.1833297,10.0486667 C74.1833297,10.0486667 74.4220324,9.912 74.617636,9.767 C74.8148973,9.622 75.1895279,9.252 75.1895279,9.252 C75.1895279,9.252 75.1083027,9.382 74.9541405,9.53533333 C74.7999784,9.68866667 74.4054559,10.072 74.249636,10.2253333 C74.0954739,10.3786667 73.4340685,10.8853333 73.4340685,10.8853333 C73.4340685,10.8853333 73.1191135,11.0603333 72.9649514,11.2136667 C72.9052757,11.2703333 72.7859243,11.3603333 72.6516541,11.4586667 C72.3267532,11.7203333 71.9421766,12.027 71.3305009,12.4453333 L71.3636541,12.512 L71.5310775,12.4853333 C71.5310775,12.4853333 71.4597982,12.5786667 71.3619964,12.652 C71.2641946,12.7236667 71.1995459,12.677 71.1995459,12.677 L71.0089153,12.677 L70.8978523,12.837 C70.8398342,12.917 70.6724108,12.987 70.6724108,12.987 L70.5149333,12.9786667 C70.3872937,13.0586667 70.2563387,13.1386667 70.1204108,13.2186667 C70.1071495,13.2303333 70.0922306,13.2403333 70.0789694,13.247 C69.0628252,13.847 67.8543928,14.452 66.5348973,14.882 C62.8151135,16.0903333 57.7808072,16.9186667 55.5181045,17.0386667 C45.3384288,17.567 36.7501045,18.2786667 28.7502486,22.7753333 C23.0246991,25.9886667 19.9414559,30.8786667 19.7392216,31.192 C19.7392216,31.192 21.3256,27.0186667 24.3640865,24.202" id="Fill-64" fill="#B21F25"></path>
                    <g transform="translate(74.594595, 0.000000)">
                        <mask id="mask-6" fill="white">
                            <use xlink:href="#path-5"></use>
                        </mask>
                        <g id="Clip-67"></g>
                        <path d="M2.32718559,1.24133333 C2.32718559,1.24133333 2.28077117,1.273 2.21446486,1.323 C2.23435676,1.263 2.32718559,1.24133333 2.32718559,1.24133333" id="Fill-66" fill="#B21F25" mask="url(#mask-6)"></path>
                    </g>
                    <path d="M76.7535279,2.856 L76.7137441,2.90933333 C76.7137441,2.90933333 76.7187171,2.98266667 76.7021405,2.99766667 C76.6839063,3.01266667 76.680591,3.021 76.6524108,3.02766667 C76.622573,3.031 76.5910775,3.02433333 76.5910775,3.02433333 L76.5479784,2.96933333 L76.6424649,2.88266667 L76.7154018,2.77766667 L76.7419243,2.671 L76.8364108,2.59766667 L76.8994018,2.51433333 L76.9657081,2.37933333 L77.043618,2.29433333 L77.0618523,2.461 L76.980627,2.531 L76.9192937,2.58266667 C76.9192937,2.58266667 76.8894559,2.63766667 76.869564,2.656 C76.854645,2.67933333 76.8330955,2.71433333 76.8330955,2.71433333 L76.8214919,2.80433333 L76.7535279,2.856 Z" id="Fill-68" fill="#B21F25"></path>
                    <path d="M75.2739027,8.77716667 L75.3319207,8.74383333 L75.3965694,8.79383333 C75.3965694,8.79383333 75.4794523,8.79216667 75.5258667,8.7805 C75.5656505,8.76883333 75.5639928,8.7705 75.5905153,8.7655 C75.6170378,8.75716667 75.8524252,8.5705 75.887236,8.53716667 C75.9220468,8.50383333 76.0297946,8.2755 76.0297946,8.2755 L76.1060468,8.13716667 L76.2320288,7.91383333 L76.3629838,7.8805 L76.4989117,7.75883333 L76.3944793,7.60216667 L76.4939387,7.42883333 L76.6713081,7.35383333 C76.6713081,7.35383333 76.7972901,7.2505 76.8453622,7.1655 C76.8950919,7.07883333 76.9398486,7.03716667 76.9398486,7.03716667 L76.9663712,7.19383333 C76.9663712,7.19383333 76.880173,7.34883333 76.8238126,7.40716667 C76.8055784,7.42383333 76.7890018,7.43883333 76.7724252,7.45383333 C76.7326414,7.4905 76.696173,7.51216667 76.696173,7.51216667 C76.696173,7.51216667 76.5718486,7.6905 76.5105153,7.7655 C76.444209,7.8405 76.6795964,7.8005 76.6298667,7.8855 C76.5817946,7.97383333 76.4939387,8.00883333 76.4939387,8.00883333 L76.3596685,8.08883333 L76.1640649,8.31383333 L76.008245,8.4705 L75.834191,8.6655 L75.6352721,8.81716667 L75.3949117,8.92383333 L75.2788757,9.01216667 L75.1694703,8.9655 L75.2739027,8.77716667 Z" id="Fill-70" fill="#B21F25"></path>
                    <path d="M71.9335568,12.1415 C71.9335568,12.1415 71.9915748,12.0865 72.019755,12.0815 C72.0446198,12.0731667 72.0413045,12.0648333 72.1026378,12.0348333 C72.1623135,12.0015 72.2501694,11.9715 72.2501694,11.9715 L72.2998991,11.9615 C72.2998991,11.9615 72.3297369,11.9448333 72.3297369,11.9681667 C72.3280793,11.9881667 72.3429982,11.9631667 72.3131604,12.0281667 C72.2849802,12.0931667 72.3015568,12.0915 72.2750342,12.1048333 C72.2451964,12.1148333 72.2004396,12.1431667 72.1639712,12.1415 C72.1291604,12.1381667 72.0827459,12.1765 72.0529081,12.1915 C72.0164396,12.2065 71.9982054,12.2148333 71.9799712,12.2315 C71.9600793,12.2465 71.9484757,12.2581667 71.9484757,12.2581667 L71.8854847,12.3298333 L71.8440432,12.3848333 L71.7893405,12.3881667 L71.7296649,12.3598333 C71.7296649,12.3598333 71.7296649,12.3098333 71.7379532,12.2915 C71.7462414,12.2748333 71.9335568,12.1415 71.9335568,12.1415" id="Fill-72" fill="#B21F25"></path>
                </g>
            </g>
        </g>
    </g>
</svg>