<?xml version="1.0" encoding="UTF-8"?>
<svg width="232px" height="60px" viewBox="0 0 232 60" version="1.1" xmlns="http://www.w3.org/2000/svg" xmlns:xlink="http://www.w3.org/1999/xlink">
    <!-- Generator: Sketch 53.2 (72643) - https://sketchapp.com -->
    <title>07.招商银行</title>
    <desc>Created with Sketch.</desc>
    <defs>
        <polygon id="path-1" points="3.99429121e-05 39 38.3662056 39 38.3662056 0.181097409 3.99429121e-05 0.181097409"></polygon>
    </defs>
    <g id="07.招商银行" stroke="none" stroke-width="1" fill="none" fill-rule="evenodd">
        <g id="07" transform="translate(0.000000, -25.000000)">
            <rect id="矩形复制-12" x="0" y="0" width="232" height="110"></rect>
            <g id="Page-1" transform="translate(36.000000, 34.000000)">
                <g id="Group-3">
                    <mask id="mask-2" fill="white">
                        <use xlink:href="#path-1"></use>
                    </mask>
                    <g id="Clip-2"></g>
                    <path d="M12.1103315,14.0212477 L6.63016392,27.5805171 L28.4118328,27.5805171 L22.9424498,13.9618383 L17.5209983,27.401885 L12.1103315,14.0212477 Z M33.4376497,24.3360404 L37.7884314,24.3360404 C37.7065484,24.6656207 37.6154786,24.9931803 37.5170193,25.3169005 L33.8266936,25.3169005 L33.4376497,24.3360404 Z M32.7062949,22.4897036 L38.1537093,22.4897036 C38.1047792,22.8190819 38.0478606,23.1468435 37.9825539,23.4705637 L33.0955386,23.4705637 L32.7062949,22.4897036 Z M31.9741414,20.6413461 L38.338645,20.6413461 C38.3208704,20.972543 38.2953069,21.3001026 38.2621543,21.6240249 L32.3631853,21.6240249 L31.9741414,20.6413461 Z M31.2429864,18.7946052 L38.3496293,18.7946052 C38.3606136,19.0591181 38.3662056,19.323429 38.3662056,19.5915793 L38.365207,19.777486 L31.6312315,19.777486 L31.2429864,18.7946052 Z M30.5108328,16.9492788 L38.1894582,16.9492788 C38.2335951,17.2740093 38.2695437,17.601771 38.2971044,17.9311492 L30.8998767,17.9311492 L30.5108328,16.9492788 Z M29.7784795,15.1027399 L37.8499435,15.1027399 C37.9264341,15.4266622 37.9945368,15.7542218 38.0534526,16.0846104 L30.1675235,16.0846104 L29.7784795,15.1027399 Z M3.99429121e-05,19.5915793 C3.99429121e-05,8.8708228 8.58836519,0.181097409 19.1830229,0.181097409 C27.9427032,0.181097409 35.330744,6.12162591 37.6264629,14.2382736 L29.4365682,14.2382736 L24.6577982,2.17919067 L19.2952625,15.6677347 L13.8258795,2.29841347 L3.68936702,27.5805171 L7.82685357,33.4737606 L30.7159396,33.4737606 L34.6766788,27.4614964 L34.170003,26.1825793 L37.231028,26.1825793 C34.5644392,33.6578487 27.4899503,39.0000404 19.1830229,39.0000404 C8.58836519,39.0000404 3.99429121e-05,30.3091026 3.99429121e-05,19.5915793 L3.99429121e-05,19.5915793 Z" id="Fill-1" fill="#C8243A" mask="url(#mask-2)"></path>
                </g>
                <path d="M56.0760629,4.46344347 C56.2291124,4.49995912 56.4424602,4.37521378 56.5298026,4.56608205 C56.6914662,6.08829104 56.3759518,7.67622819 56.5298026,9.19073929 C56.7928314,9.65359978 57.4230589,9.48444352 57.8705885,9.47714039 C58.0975585,9.3518029 58.2728443,9.17633041 58.3974474,8.94795959 C58.4491317,8.44799131 58.1704774,8.08796678 58.1113811,7.63892302 C57.9869782,7.16165365 57.7820441,6.72721616 57.7968683,6.19073223 C57.9509195,6.09539679 57.7820441,5.86702596 57.9360953,5.77169052 C59.5913939,6.15421658 61.4079555,6.16171709 63.106725,6.44081506 C63.3409068,6.49983224 63.5530527,6.60977394 63.809671,6.61707707 C63.8972138,6.65457963 63.9120379,6.54365102 63.9859584,6.61707707 C65.5238657,6.70530677 66.6513038,5.77899365 68.2412959,5.97716504 C68.9949246,6.12441192 70.1886708,5.73537225 70.3787807,6.72011041 C70.4158411,7.02901304 70.1886708,7.21277556 70.1740469,7.49996618 C70.07168,7.71984959 70.0199958,7.95532616 69.9987612,8.20521161 C69.5514319,9.85256071 68.8851456,11.4108906 68.5558087,13.1089668 C68.3214266,13.6898617 68.0281484,14.2417414 67.8528627,14.8370451 C67.3840984,15.2706931 66.9521943,15.7779645 66.585797,16.2854333 C66.3295793,16.4316932 65.890263,16.2552338 65.7794824,16.601639 C65.7656599,16.9097521 65.7584481,17.2044433 66.0581367,17.3809027 C66.7759069,17.468935 67.6691632,17.5569673 68.2697423,17.1671381 C68.5483966,17.1452287 68.8705218,17.1742438 68.9728887,17.4170235 C69.0097488,18.366233 68.3508746,19.0716758 68.5926688,20.0643092 C68.5335724,21.9605568 68.4818882,24.0263555 68.9073819,25.813451 C68.8554973,26.0716264 69.0245729,26.4170447 68.7679546,26.5915303 C68.6213155,26.9006303 68.9440416,27.4971183 68.4818882,27.5772554 C68.2623302,27.5843611 68.0281484,27.7916121 67.8158023,27.6133762 C66.724423,27.0624834 65.3329545,27.4606027 64.1612442,27.5405423 C63.2756003,27.1443969 62.0077333,27.4315875 61.1000535,27.2971705 C61.0563823,27.3135532 60.93839,27.2823668 60.858059,27.2971705 L59.0635334,27.400796 C58.9537544,27.5117246 58.7784686,27.4679058 58.6761017,27.5772554 C58.2876685,27.6806835 58.2876685,27.1661089 58.0458743,26.9734642 L57.8990349,26.8352969 L57.8335281,21.4751948 C57.9212711,20.8571922 57.7968683,20.1588551 57.9360953,19.5643409 C57.8335281,18.8498185 57.240361,18.4100517 56.6692299,18.0133142 C56.3905756,17.9096887 56.2078778,18.180694 56.1119213,18.366233 C56.0464145,18.5045977 56.0540269,18.6824387 56.0021424,18.8279092 C55.7677602,19.8426494 56.0095544,20.924302 55.9366356,22.0043756 C56.1413693,22.2698542 56.0972975,22.644485 56.2142882,22.9533876 C56.3176567,23.8571992 56.1341576,24.7260742 56.1413693,25.6369916 C56.1784298,25.7408144 56.2661728,25.8787844 56.1784298,25.9899104 C56.200666,26.1953849 56.1638059,26.4608635 56.0760629,26.6590349 C55.9875185,26.8499032 55.9811081,27.0788661 55.7899965,27.2243366 C55.2040412,27.2389428 54.5083069,27.1951241 53.893104,27.2606548 L53.8570452,27.2243366 C53.1096267,27.2606548 52.0911663,27.5190277 51.5420711,26.8716152 C51.3153014,26.5915303 50.9266678,26.409939 50.868573,26.0262286 C51.1251914,25.3644072 51.7037346,24.9007572 52.2746654,24.5044144 C52.4435407,24.482505 52.6484748,24.5624447 52.7728777,24.4388836 C52.8900687,24.4973086 52.9259272,24.3425613 53.0146719,24.3281524 C53.0653545,23.5627055 53.0653545,22.7335042 53.0146719,21.9680573 L53.0507306,21.9315417 C52.9998477,21.3443306 52.9629876,20.74804 52.6262386,20.2697837 C52.5893785,20.1371431 52.4435407,20.2480717 52.3846447,20.1661582 C51.9158805,20.5261828 51.512623,21.1880042 50.868573,21.1880042 C50.6193668,21.3299218 50.3631491,21.4607859 50.1359787,21.6516542 C49.9090087,21.8571287 49.7190991,22.078986 49.5722597,22.3205814 L49.4993408,22.3205814 C49.2132744,20.59349 47.8294183,19.315245 47.9540214,17.4170235 C48.0998592,17.0933173 48.5832473,17.292673 48.9059734,17.2407615 C49.850914,16.5572281 51.395432,17.3070818 52.2746654,16.4616953 C52.8752445,16.0641682 53.6006271,15.4761676 53.4023038,14.6234779 C53.336797,14.1752237 53.1677214,13.7417731 52.7728777,13.4616882 C52.2524292,13.2044996 51.9962114,13.9024419 51.5054113,13.7115737 C51.3519611,13.6971648 51.0807189,13.7417731 50.9054331,13.6752554 C50.6638393,13.5426148 50.3122661,13.57992 50.1654267,13.2854262 C50.187663,12.9398106 50.1506025,12.5353751 50.0630598,12.1899568 C49.8140539,11.3226609 49.2567453,10.5799129 49.3232537,9.57977896 C49.6525906,9.43351899 49.8943848,9.70531383 50.2383456,9.61708413 C51.1904979,9.54365808 52.2019469,9.63188777 53.0875907,9.40351695 C53.3882809,9.25627007 53.4906478,9.01447728 53.6154513,8.7343924 C53.6080392,7.01460416 52.5893785,5.53641133 53.1530975,3.75721114 C53.3882809,3.69168036 53.5783909,3.69898349 53.7907371,3.79431893 C54.4716472,4.20546537 55.2631375,4.35271224 56.0760629,4.46344347 L56.0760629,4.46344347 Z M90.3146824,4.4261383 C90.5416524,4.61720395 91.0030045,4.4707466 91.0915489,4.77905709 C91.0915489,5.07355084 90.7686224,5.2427071 90.7389741,5.52180507 C90.4032267,6.15421658 89.6187478,6.59536507 89.5099704,7.32251988 C89.4658986,8.10987616 90.3956143,7.57280009 90.8054825,7.77906415 C91.7798711,8.08796678 92.7540593,7.65372666 93.7210358,7.74156159 C94.5772316,7.63161989 95.5219719,7.73425846 96.2545662,7.32251988 C96.8545444,7.16895678 97.6089743,7.27889849 98.1867162,7.49996618 C98.5188577,7.86729384 98.4229013,8.41897617 98.541094,8.87433615 C98.541094,9.71992009 98.0134337,10.3371332 97.9098649,11.1317926 C97.8728044,11.329964 97.8507685,11.5281354 97.6608589,11.660776 C96.9428884,11.7709151 96.3931922,11.1462015 95.6918488,11.5208323 C95.5444084,11.5944557 95.3615103,11.5944557 95.2010487,11.6244578 C95.1641886,11.6244578 95.1197161,11.6171546 95.0976801,11.660776 C95.0532076,11.5725463 95.0165479,11.7053843 94.9500394,11.660776 C94.2414843,11.5508343 93.5217108,11.4399057 92.7392351,11.4843166 C92.4387452,11.8080229 92.3518035,12.2116688 92.248435,12.6163017 C92.3075313,12.8517782 92.3738394,13.167984 92.6653146,13.2116054 C93.0106777,13.2489106 93.2524719,13.0497523 93.5439471,12.9698126 C94.3504619,12.9327048 95.1269278,12.9471137 95.6918488,13.4989934 C95.8302745,13.8444117 95.7118815,14.2924685 95.8006262,14.6607831 C95.9098041,15.2408884 96.0203844,15.858891 95.9759119,16.4616953 C95.8228624,16.5134093 95.983324,16.6969745 95.8302745,16.7407932 C95.6031041,18.4970971 95.953876,20.2697837 95.9390518,22.0716828 C95.8873676,23.6152091 96.370956,25.2824937 95.8006262,26.6951558 C95.6622005,27.0042558 95.7934144,27.4534969 95.5518205,27.6806835 C94.3576737,27.8717491 93.1048312,27.5843611 91.8610034,27.5772554 C91.1135848,27.7171991 90.3884026,27.3861897 89.750162,27.0480746 C89.384566,27.2026246 89.2515491,26.7843724 88.9454501,26.7987813 C89.1798322,26.4898786 89.7002807,26.3643438 89.750162,25.9153 C89.7129013,25.6879161 89.7203134,25.4317144 89.4733107,25.2824937 C88.3292455,25.0934019 87.0557693,25.2096598 85.8469987,25.1806447 C85.6719132,25.0333978 85.430119,24.9826707 85.3211414,24.7552868 C85.2474212,24.1078742 85.4948245,23.4533559 85.2179732,22.8860804 C85.232597,22.4463136 85.5022366,21.9897694 85.2546329,21.5788203 C85.144253,21.0861551 85.3065175,20.615202 85.2546329,20.0937191 C84.9687669,19.8499525 84.6386287,19.7115878 84.2658209,19.6752695 C84.2732329,19.9989758 84.1770762,20.3736066 84.1624523,20.7334337 C84.3247169,22.3205814 84.2804447,23.9969456 84.3397414,25.6369916 C84.3543652,26.0935358 84.0885318,26.5333026 83.7083119,26.7336452 C83.3062565,26.5771214 83.1660279,27.0551803 82.8302805,27.0480746 C82.1988511,26.9896495 81.6435457,26.7697661 81.0732159,26.5915303 C80.9257756,26.1079447 81.05118,25.5114567 80.9626357,25.0043827 L80.9257756,24.9680644 L80.9626357,24.9297723 C80.792959,24.4098685 80.9920837,23.8716081 80.9257756,23.3061091 C80.9035393,20.7916614 80.9848719,18.2770164 80.8594675,15.7552656 C80.8001708,15.064429 80.6545333,14.4172139 80.8594675,13.7417731 C80.9774598,13.5135997 80.8813031,13.1533777 81.2120423,13.0353434 C82.1489697,12.9617199 83.0572505,13.146272 83.9505068,13.2854262 C84.2139363,13.2044996 84.5867441,13.3371403 84.7269727,13.0353434 C84.8231294,12.528072 84.2435846,12.3006881 84.2359722,11.837038 C84.1698644,11.7126875 84.0460626,11.7490057 83.9505068,11.6970943 C83.6271797,11.7561115 83.3431166,11.9988912 83.0055663,11.9106615 C81.8482795,12.116136 80.5972399,12.0581057 79.4900349,12.3662188 C79.0066468,12.4106298 78.9992347,11.8297349 78.6773099,11.5944557 C78.5378826,11.3153578 78.6624857,10.9326343 78.574943,10.6389301 C77.8054885,9.85986383 77.8940329,8.514509 78.149249,7.53608706 C78.1282147,7.43344849 78.1790976,7.35982505 78.2233698,7.286399 C78.7870888,7.41903961 79.1679097,8.01434334 79.8406064,7.88900585 C81.1673694,8.08796678 82.6253464,8.07257099 83.9505068,8.16889334 C84.0017904,8.10987616 84.1105678,8.12428504 84.1624523,8.16889334 C85.0188485,8.11698191 85.8914712,8.13178555 86.727434,8.02914698 C86.8730715,7.94091728 87.0928298,7.99164442 87.1517258,7.77906415 C86.967225,7.41903961 86.5575571,7.24988335 86.3454112,6.89617504 C86.1995735,6.69800364 85.9930368,6.52174163 85.8175507,6.33067598 C85.7973177,5.99275821 85.8840591,5.59523112 85.6422649,5.34534567 C85.5022366,5.0881571 85.3487864,4.78636022 85.4649759,4.46344347 C86.0076606,3.7718174 86.8510356,4.30178772 87.6425259,4.14723772 C87.8530692,4.08802315 88.0449821,3.99249033 88.2793642,3.97077832 C89.0488186,3.91156376 89.7425496,4.00709659 90.3146824,4.4261383 L90.3146824,4.4261383 Z M114.111478,5.06624771 C114.226065,5.38265085 114.506723,5.63983943 114.746313,5.91183165 C114.834858,6.48542336 115.626549,6.55174367 115.661606,7.18336566 C115.919827,7.36712818 115.919827,7.65372666 115.905203,7.95532616 C115.78701,8.11698191 115.626549,8.26442617 115.661606,8.48430957 C115.905203,8.66076897 115.978923,8.99177836 116.329695,8.9108518 C116.534629,9.01447728 116.739162,9.00717415 116.958921,8.94795959 C117.551286,8.53622101 116.981157,7.83808133 117.311495,7.286399 C117.252199,6.9117682 117.244987,6.46272445 117.449521,6.15421658 C118.189727,6.44811819 118.848601,6.93367759 119.455791,7.53608706 C120.04996,7.58819588 120.511112,7.42634274 121.038772,7.53608706 L121.075833,7.49996618 C121.719682,7.60990788 122.496749,7.40443336 123.074291,7.67622819 C123.601951,7.77906415 123.858369,7.22718444 124.379018,7.32251988 C124.714765,6.94078334 125.183529,6.89617504 125.644681,6.83084164 C125.873454,6.78623333 126.076786,6.87446303 126.172341,7.07342396 C126.20199,8.08796678 126.283322,9.21264868 126.098822,10.1835701 C125.762674,10.6464306 125.89569,11.308252 125.71119,11.837038 C125.570761,12.4327365 125.417711,13.0570554 125.432736,13.6752554 L125.397478,13.7115737 C125.48422,14.4399128 125.36783,15.2562842 125.506255,15.9688328 C125.461983,16.5789401 125.015455,17.0281813 125.117021,17.6961215 C125.052315,17.8360653 125.102197,17.9771933 125.183529,18.0861481 C125.556137,18.1224663 125.799734,17.858172 126.061561,17.623485 C126.032313,17.3070818 126.414136,17.2478673 126.450996,16.9543604 C126.495268,16.7998104 126.641106,16.9543604 126.737062,16.9543604 C126.991878,17.2478673 127.548986,17.3507032 127.403348,17.8735678 C127.395936,18.1299669 127.161754,18.4244606 127.403348,18.6534236 C127.381112,18.931732 127.139518,19.2116195 127.329628,19.4970337 C127.351664,19.7190883 127.489889,19.8499525 127.645143,19.953578 C127.534362,20.0937191 127.3737,20.1154311 127.228063,20.1661582 C126.91976,20.4898645 126.567586,20.7044186 126.172341,20.7989645 C125.48422,20.74804 124.766449,20.6298083 124.100163,20.6225051 C123.910254,20.7699494 123.799473,20.9462114 123.850957,21.1880042 C124.583752,22.0933948 125.836594,21.8790381 126.737062,22.4607225 C127.294371,22.4753288 127.879324,22.7481105 128.420006,22.4970408 C128.515962,23.151559 128.135943,23.6971225 128.069434,24.3281524 C127.835052,24.9370755 127.272134,25.4317144 126.912348,25.9533947 C126.384888,26.1807786 126.150305,26.68805 125.71119,27.0861693 C125.506255,27.0334683 125.461983,26.6590349 125.183529,26.6951558 C124.899266,26.7480541 124.899266,26.3353286 124.62602,26.3424344 C124.401054,25.9079969 123.836333,26.0716264 123.639011,25.5625786 C123.485761,25.1806447 123.074291,24.8569384 122.832296,24.5407327 C122.832296,24.1807081 122.58349,23.9298358 122.371144,23.6590278 C121.82866,23.7117288 121.894968,24.4388836 121.352684,24.615343 C120.57762,25.1806447 120.234261,26.3716469 119.17894,26.4825755 C118.942555,26.68805 118.584371,26.5988334 118.330156,26.7697661 C117.750611,27.1517 116.951509,27.018862 116.366555,27.400796 C116.189266,27.4169813 116.036216,27.3861897 115.905203,27.2971705 C115.794422,26.740751 115.406991,26.3061161 115.488123,25.6735072 C115.318446,25.3717103 115.012147,24.9680644 114.637536,24.9297723 C114.052582,24.9753675 113.978662,25.8061478 113.377282,25.813451 C113.048546,25.9153 112.718407,26.0116224 112.461989,26.2680214 C112.015261,26.3353286 111.716374,26.7697661 111.297491,26.9079334 C110.742185,26.6444286 110.631405,25.9751067 110.103544,25.6369916 C109.979943,25.1151139 109.232725,25.0716899 109.225112,24.4752019 C109.136768,24.0425408 108.896777,23.6807398 108.837881,23.2389992 C108.859917,23.0426043 108.638556,22.9225961 108.808032,22.7408074 C109.430046,22.8136413 110.273421,23.0935288 110.808494,22.6371819 C111.312315,22.3807828 112.059734,22.4970408 112.286704,21.791598 C112.330976,21.5044073 112.380657,21.1299739 112.074357,20.9462114 C111.919305,20.90259 111.679514,20.8571922 111.546497,20.9752265 C111.218362,21.5261193 110.660853,21.9826636 110.037036,22.0351672 C109.965319,21.7771891 109.891599,21.5190136 109.826693,21.2626145 L109.790033,20.4462431 C109.56086,20.108128 109.649604,19.622766 109.575884,19.2116195 C109.511179,19.1881311 109.553648,19.1226003 109.539024,19.0716758 C110.345339,19.0497664 111.277458,19.1299034 112.074357,19.0063424 C112.301327,18.7696815 112.214586,18.4171575 112.286704,18.1224663 C112.11863,17.7772455 111.627829,18.0208147 111.334551,18.0498298 C111.085345,18.1078601 110.786257,18.1516789 110.528036,18.0861481 C110.206913,17.8216564 110.125781,17.4245241 109.790033,17.2044433 C109.365541,17.3587959 109.459494,17.858172 109.299233,18.1879971 C109.158604,18.3299147 109.013167,18.4607789 108.983318,18.6534236 C108.896777,18.6972424 108.91721,18.7844851 108.911601,18.8571217 C108.889365,19.2481352 108.221476,19.3661695 108.420601,19.8499525 C108.413389,19.9606837 108.287984,20.0860212 108.169792,20.0937191 C107.81922,20.1371431 107.599462,19.7771186 107.32842,19.7115878 C107.130898,19.5789472 107.108862,19.3734726 106.977648,19.2116195 C106.501672,19.1662217 106.047532,19.0789789 105.710182,18.6824387 C105.672921,18.4171575 105.818759,17.9916022 105.571355,17.7699423 C105.534696,17.3362944 106.062156,17.3955089 106.309759,17.2044433 C107.130898,16.9616636 108.023754,16.8142193 108.594083,16.0351531 C109.834105,13.7188768 111.290279,11.4918171 111.723786,8.83722836 C112.059734,7.25718648 112.747855,5.82360195 112.777504,4.11012992 C112.849421,3.9263674 113.078194,4.00709659 113.201996,4.03729601 C113.51731,4.34540911 113.956826,4.66181225 114.111478,5.06624771 L114.111478,5.06624771 Z M144.518451,5.77169052 C144.957567,5.96986192 144.69574,6.52174163 145.120032,6.7572182 C145.134656,7.13895474 144.84879,7.38903757 144.804518,7.74156159 C144.569935,8.08086103 144.789894,8.4916127 144.841177,8.83722836 C144.673504,9.59438522 145.156892,10.2935118 144.841177,11.0281671 C144.782281,11.3589791 144.665892,11.660776 144.665892,12.0134974 C144.249012,12.1899568 143.67708,12.0654089 143.398225,12.5061626 C143.479558,12.8227631 143.186279,13.4107637 143.67708,13.5645242 C144.212352,13.557221 144.629232,14.0644925 144.804518,14.4837316 C145.223401,14.4616248 145.097996,15.395241 145.573972,14.909879 C145.633269,14.7044045 145.662516,14.4326096 145.647893,14.2417414 C145.64048,14.0942971 145.633269,13.8300028 145.786118,13.7417731 L145.998264,13.6752554 C147.858497,13.8300028 149.637397,13.4835976 151.484408,13.601632 C152.678555,13.4916903 153.87771,13.4034606 155.102907,13.3588523 C155.498152,13.146272 156.010988,13.2262116 156.332111,12.8298689 C156.573905,12.7635485 156.793463,12.7045314 156.896631,12.4771474 L157,12.4771474 C156.756603,13.4107637 156.882008,14.5425513 156.896631,15.5426853 C156.896631,15.9688328 156.581117,16.4316932 156.896631,16.8142193 C156.882008,16.9172526 156.926079,17.0498933 156.859972,17.1308198 C156.625389,16.8880401 156.317287,17.005285 156.018199,17.0281813 C155.520187,16.9543604 155.145577,17.3070818 154.649167,17.1308198 C153.95163,16.8880401 153.176567,16.9689667 152.501266,17.2044433 C152.348016,17.3507032 152.355228,17.5569673 152.36264,17.7699423 C152.508678,18.4607789 152.392488,19.2260284 152.32598,19.9172597 C152.597022,20.5551979 152.392488,21.4025583 152.501266,22.1080011 C152.486642,23.9535216 152.839016,25.7335113 152.604434,27.5772554 C152.464406,27.8062183 152.231826,27.8279303 152.010466,27.8571429 C150.517431,27.731608 148.928641,27.864446 147.544785,27.4754063 C147.367696,27.4244818 147.170375,27.4315875 147.016925,27.3279621 C146.906344,26.9079334 146.430168,26.9079334 146.312176,26.4825755 C146.232846,26.1807786 146.153317,25.8280572 146.385896,25.5625786 C146.467028,25.4390176 146.341624,25.2025541 146.600045,25.2461755 C147.024337,25.2988764 147.367696,25.6735072 147.829049,25.5335635 C148.25334,25.1516295 148.655596,24.791605 148.884369,24.2991372 C148.613327,23.151559 149.397405,22.3590708 149.022795,21.2626145 C148.899193,20.571778 149.089303,19.9172597 149.125963,19.2481352 C149.022795,18.622632 149.190668,17.8879767 148.987738,17.3070818 C147.87312,17.0425901 146.825012,17.6817126 145.719609,17.3070818 L145.120032,17.2407615 C144.891259,16.7998104 145.573972,16.4763015 145.083172,16.1825973 C144.473979,15.837179 144.518451,16.6381547 143.990591,16.601639 C143.926286,16.9316615 143.33372,17.1452287 143.49979,17.5569673 C143.617783,17.9242949 143.391013,18.3080053 143.7508,18.5788132 C143.983179,19.0716758 143.588535,19.5643409 143.817108,20.0643092 C143.67708,20.540789 143.802484,21.0062155 143.71394,21.5044073 L143.7508,21.5407256 C143.647431,21.9605568 143.817108,22.4753288 143.610571,22.8497622 C143.420461,23.9898399 143.866989,25.2607817 143.361565,26.2680214 C143.259799,26.6444286 143.060675,27.0861693 142.621358,27.1517 C142.453485,27.2898674 142.453485,27.5261335 142.234127,27.6133762 C141.466476,27.8717491 140.77615,27.4898152 140.161748,27.1517 C140.015911,27.2243366 139.971639,27.0334683 139.846034,27.0480746 C139.707808,26.7626604 139.347822,26.8716152 139.106428,26.7697661 C138.930942,26.5554094 138.336773,26.6444286 138.54331,26.2024906 C138.930942,26.0641259 139.332997,25.8207541 139.569383,25.4607296 C139.685572,25.4169108 139.787138,25.2390697 139.846034,25.1080082 C139.883094,24.7406805 139.890506,24.3660497 140.05838,24.0498439 C140.425579,22.7117922 139.779726,21.3443306 140.196806,20.0279909 C140.161748,19.7844217 140.030535,19.5187457 139.772514,19.4241998 C138.99745,19.6969815 138.652288,20.6444145 137.948941,21.0133212 C137.532061,21.035428 137.166666,20.9391057 136.784843,20.8716011 C136.410232,20.5332885 135.745749,20.3736066 135.664617,19.8499525 C135.539212,19.6752695 135.225501,19.6969815 135.349102,19.3880789 C135.299421,19.2771503 135.15158,19.3225481 135.136956,19.2116195 C135.269773,19.0063424 135.576072,18.8954138 135.767985,18.6824387 C136.308667,18.6751356 136.646417,18.1662851 137.174078,18.1224663 C137.679902,18.1078601 137.838561,17.4981475 138.299713,17.3809027 C138.689148,16.9172526 139.318373,16.7998104 139.569383,16.2116125 C139.860858,15.9027098 140.233666,15.6236119 140.233666,15.1897665 C140.344446,15.0135045 140.608477,14.8443482 140.514323,14.5571576 C140.161748,14.4026076 140.154336,13.9326414 139.772514,13.8880331 C139.517698,14.1091008 139.30375,14.4472159 139.004862,14.5571576 C138.893881,14.9761993 138.417905,14.7334196 138.264656,15.0500201 C138.08937,15.1161431 137.860797,15.0717321 137.665078,15.086141 C137.59857,14.8589545 137.33474,14.9471842 137.174078,14.8735607 C136.996789,14.6380842 136.587321,14.4399128 136.683277,14.0644925 L136.469128,13.8517148 L136.432469,12.2270646 C136.886208,11.9471771 137.369797,11.7782182 137.838561,11.5579401 C137.993413,11.0435629 138.454966,11.4252995 138.718796,11.2042318 C139.222417,10.7125535 139.912542,10.4478644 140.270526,9.82986179 C140.672782,9.60247787 140.805798,9.08099497 141.178406,8.83722836 C141.370319,8.56523614 141.362907,8.20521161 141.602898,7.95532616 C141.602898,7.18336566 142.388779,6.74261194 142.584498,6.05078848 C142.900213,5.70537021 143.230552,5.40436285 143.67708,5.38265085 C143.772836,5.30073737 143.911261,5.1544774 144.027651,5.30883003 C144.093959,5.50700143 144.293284,5.77169052 144.518451,5.77169052 L144.518451,5.77169052 Z M155.665825,7.32251988 C155.774803,7.46996414 155.747157,7.71984959 155.702885,7.88900585 C155.695473,8.93335333 155.424231,9.86716696 155.5276,10.9553332 C155.175025,11.197126 155.35031,11.660776 155.102907,11.9471771 C154.82265,12.1899568 154.354086,12.0654089 154.010727,12.0498157 C152.861253,11.7343995 151.622834,12.0498157 150.428887,12.0498157 C149.002562,11.9917854 147.72568,12.3006881 146.276918,12.1899568 C146.21061,12.2779891 146.131281,12.3224001 146.035324,12.3299006 C145.894895,12.072712 146.013288,11.6970943 145.924744,11.4179963 C145.872859,10.5799129 145.75667,9.76452839 145.749458,8.9108518 C145.684552,8.7343924 145.610632,8.55813039 145.544524,8.381671 C145.573972,8.25633351 145.470604,8.1834996 145.507464,8.06546524 C145.704986,7.85268759 146.0205,8.00704021 146.24747,8.06546524 C147.133114,7.88900585 147.902969,8.41088352 148.70728,8.02914698 C149.917854,7.92631102 150.993608,8.44088556 152.253862,8.20521161 C153.014102,7.86729384 153.813405,7.64602877 154.508738,7.14625787 C154.772969,7.14625787 154.955467,6.83814477 155.241333,7.00730103 C155.424231,7.05802817 155.586496,7.12454586 155.665825,7.32251988 L155.665825,7.32251988 Z M115.488123,10.3227243 C115.641373,10.4253629 115.575065,10.6243238 115.589688,10.7780843 C115.251737,10.9699395 115.288998,11.5281354 114.849682,11.5579401 C114.593064,11.3962843 114.307198,11.2934484 114.00811,11.2417343 C113.772125,11.0060604 113.846046,10.6898546 113.97145,10.4253629 C114.19842,10.1900837 114.292373,9.61708413 114.783174,9.79334614 C114.990111,9.99901805 115.165196,10.0872478 115.377543,10.2864061 L115.488123,10.3227243 Z M59.8692469,10.2489035 C60.045334,10.6099149 60.272304,11.0281671 60.0821941,11.4479984 C59.6567004,12.2852923 59.1226297,13.0799517 58.6021812,13.8880331 C58.609393,14.321681 58.4120713,14.6753893 58.1853016,15.0135045 C57.9795662,15.2043728 57.7746321,14.9544873 57.547662,14.9761993 C57.3355162,14.3953045 56.6978766,14.0725851 56.2513486,13.6752554 C56.2142882,13.3880648 56.4200236,13.2262116 56.6397819,13.1089668 C57.1886768,13.1898934 57.5696979,13.0497523 57.8705885,12.579786 C58.3022923,11.8226292 58.2728443,10.8671035 58.7121605,10.1099467 C59.1005938,10.1606738 59.481615,10.3081181 59.8692469,10.2489035 L59.8692469,10.2489035 Z M65.6041967,10.3588452 C65.6845276,10.4918806 65.7287998,10.6389301 65.7065635,10.8153895 C65.6262326,10.918028 65.5747486,11.0354703 65.5673366,11.1681109 C65.1863154,11.9035557 64.6005604,12.5507709 64.475757,13.3880648 C64.0366411,13.910732 63.670444,14.7263139 62.8945791,14.7334196 C62.6379608,14.6088717 62.2863876,14.3370768 62.2643517,14.0281742 C62.4478508,13.3444434 63.1287609,12.858884 63.2828121,12.1536386 C63.3705551,11.5798495 63.2090919,10.8961187 63.5606651,10.4253629 C64.0440531,10.1971895 64.7766475,10.4478644 65.2814705,10.2127826 C65.4353213,10.1606738 65.4944177,10.3081181 65.6041967,10.3588452 L65.6041967,10.3588452 Z M122.972725,10.918028 C123.039033,11.0281671 122.994961,11.1825198 123.009585,11.308252 C122.612938,11.660776 122.2826,12.3299006 121.668198,12.1234391 C121.507536,12.0208006 121.29519,12.0279063 121.112492,11.9771792 L121.075833,12.0134974 L120.16034,11.9471771 C120.175364,11.6970943 120.08662,11.2861452 120.372686,11.1317926 C120.738082,11.0652749 121.265942,11.1608077 121.566633,10.8153895 C122.057433,11.0060604 122.548233,10.565504 122.972725,10.918028 L122.972725,10.918028 Z M89.3993902,11.3816781 C89.5175829,11.5281354 89.4733107,11.7782182 89.4360499,11.9471771 C89.0708545,12.373522 89.5025584,13.3154283 88.6593837,13.3588523 C88.3364573,13.2343043 87.8454568,13.3588523 87.7146435,12.9327048 C87.4876735,12.6463037 87.1443137,12.4106298 87.2532914,11.9771792 L87.8178117,11.3816781 C88.1685836,11.3589791 88.5211584,11.1161994 88.8715296,11.308252 C89.0265824,11.3816781 89.2441371,11.308252 89.3993902,11.3816781 L89.3993902,11.3816781 Z M117.420273,12.1536386 C117.442309,12.9842215 117.516029,13.8225023 117.486781,14.6234779 C117.846568,15.9398176 117.516029,17.5352553 117.772647,18.8954138 C117.772647,19.7334972 117.610182,20.6825092 117.772647,21.5407256 C117.824131,21.8352193 117.669479,22.0497734 117.662067,22.3205814 C117.602971,22.4824345 117.493993,22.6298788 117.486781,22.8136413 C117.025429,23.2624877 117.348155,24.5188233 116.329695,24.2606478 C116.102525,24.1005711 116.073076,23.7916685 115.868543,23.5917206 C115.934851,23.0499074 116.62117,22.7842314 116.608349,22.2098501 C116.805671,21.4388765 116.519805,20.59349 116.717327,19.8136342 C116.805671,19.7408003 116.805671,19.5862503 116.746575,19.4970337 C116.433063,19.1952368 116.475332,18.6534236 116.571289,18.2626075 C116.593725,18.0861481 116.519805,17.8662647 116.643406,17.7334267 C116.702503,17.4981475 116.813083,17.2851724 116.820495,17.0281813 C116.936885,16.5426219 116.894416,15.9471207 116.857355,15.4398493 C116.761399,15.2408884 116.687478,15.0135045 116.469923,14.909879 C115.956887,14.7999373 115.436439,14.6972987 114.923602,14.5944628 C114.820234,14.4991273 114.65216,14.5062331 114.608088,14.3443799 C114.585652,14.1462086 114.622912,13.9689596 114.709453,13.8142122 C115.047204,13.8225023 115.29641,13.5135997 115.661606,13.6752554 C115.875755,13.6898617 116.174642,13.9024419 116.329695,13.6752554 C116.211502,12.9919194 116.768811,12.5943923 116.995781,12.0498157 C117.112171,11.9252677 117.407252,11.9627703 117.420273,12.1536386 L117.420273,12.1536386 Z M112.528498,13.8142122 C112.550534,14.0208711 112.543122,14.1535117 112.498649,14.3443799 C112.249643,14.299969 112.029885,14.4253065 111.825151,14.3806982 C111.817939,14.1016002 112.126042,13.9543534 112.111217,13.6752554 C112.235019,13.7490762 112.432341,13.6608465 112.528498,13.8142122 L112.528498,13.8142122 Z M122.869557,14.8370451 C122.847321,15.167265 122.803048,15.5353822 122.518785,15.6824317 C121.843484,15.837179 121.179001,15.9761359 120.437191,15.9688328 C120.131092,15.8444822 120.167952,15.4544556 120.12368,15.1526587 C120.197601,14.9988982 120.298766,14.8589545 120.437191,14.7334196 C121.29519,14.9761993 122.232719,13.9024419 122.869557,14.8370451 L122.869557,14.8370451 Z M61.9125782,15.4398493 C62.0522058,15.8290864 62.2715634,16.2479307 62.7182917,16.3590567 C63.1139368,16.4763015 63.5680772,16.6160479 63.670444,17.0933173 C63.6484081,17.2044433 63.5901131,17.2999761 63.4951583,17.3809027 C62.8142482,17.5425584 62.0373817,17.4981475 61.3121994,17.5569673 C61.0123105,17.468935 60.5794047,17.6161818 60.3967068,17.3070818 C60.411531,16.4243901 61.0123105,15.7479624 61.5612053,15.1234462 C61.8102113,15.0135045 61.8322472,15.3143145 61.9125782,15.4398493 L61.9125782,15.4398493 Z M92.6653146,16.3880718 C92.7760952,16.8880401 92.3664273,17.1671381 92.2117752,17.5569673 C92.0216653,17.7261236 91.801907,17.9242949 91.5456893,17.8360653 C91.2668347,17.4245241 90.6081608,17.5498615 90.6652539,16.9172526 C90.6724657,16.6671698 90.6301968,16.3515562 90.8423426,16.2116125 C91.1340181,16.1899004 91.4292995,15.9544239 91.7207747,16.1452921 C91.9992287,16.314251 92.3960757,16.2116125 92.6653146,16.3880718 L92.6653146,16.3880718 Z M85.3561985,16.3880718 C85.6128169,16.6089422 85.4447429,17.005285 85.5685447,17.2697767 C85.5022366,17.5861798 85.4523553,17.8808709 85.1809127,18.0498298 C84.808105,18.3007022 84.3912253,18.4390669 83.9152493,18.4751878 C83.7748204,18.4100517 83.6936881,18.2553043 83.6345918,18.1224663 C83.4889543,17.5498615 84.1844883,17.3362944 83.9871666,16.7407932 C84.1179798,16.6744729 84.0166146,16.5197256 84.1624523,16.4616953 C84.3966341,16.4907104 84.6754887,16.4243901 84.8674016,16.2479307 C85.0701321,16.2043093 85.203149,16.314251 85.3561985,16.3880718 L85.3561985,16.3880718 Z M89.2960216,16.5351213 C89.266774,17.2117464 89.3402938,17.8508689 89.3623297,18.5045977 C89.443462,18.6972424 89.7942339,18.8135003 89.611536,19.0716758 C89.4733107,19.3225481 89.1427718,19.1952368 88.9454501,19.1808279 L87.8530692,19.1443123 C87.6723746,18.8425154 88.1409385,18.6297378 88.1685836,18.3299147 C88.0523941,17.8143532 87.9932978,17.2697767 87.8178117,16.7780984 C87.7735395,16.6160479 87.8899293,16.5197256 87.9267894,16.3880718 C88.3584932,16.3880718 89.0045464,16.0570624 89.2960216,16.5351213 L89.2960216,16.5351213 Z M115.838895,17.9096887 C115.82387,17.9535075 115.919827,18.0133142 115.838895,18.0498298 C115.927239,18.3007022 115.560441,18.3516267 115.488123,18.5788132 C115.480911,18.6607267 115.502947,18.7479695 115.414403,18.7917883 C115.091677,18.7406664 114.46225,18.9461409 114.49911,18.4751878 C114.565619,18.2553043 114.491698,17.9464017 114.746313,17.8360653 C115.047204,17.5934829 115.611724,17.5125564 115.838895,17.9096887 L115.838895,17.9096887 Z M124.480383,18.4025512 C124.472971,18.6153289 124.305097,18.6680298 124.129811,18.7189544 C123.601951,19.1808279 122.906217,19.2406346 122.408004,19.7771186 C122.232719,19.7988306 122.138565,20.0279909 121.917405,19.953578 C121.633141,19.6152654 121.360096,19.2335289 121.179001,18.8279092 C121.112492,18.7189544 121.156965,18.5644044 121.142141,18.4390669 C121.25853,18.1007543 121.610905,18.3516267 121.813635,18.2262892 C122.297424,18.2843195 122.634974,17.9771933 123.148011,18.0861481 C123.463726,17.9096887 123.799473,18.1007543 124.100163,18.1879971 C124.246001,18.2114856 124.379018,18.2770164 124.480383,18.4025512 L124.480383,18.4025512 Z M92.3886636,19.3880789 C92.6653146,20.4243337 92.3075313,21.4607859 92.425724,22.5625715 C92.2852951,22.7190954 92.248435,22.9679939 92.3223555,23.1661653 C92.1306429,23.7987742 92.614031,24.6952827 91.8610034,24.9680644 C91.6618787,24.9897764 91.4587475,24.9607613 91.3704035,24.791605 L91.4070633,22.6752766 C91.4938047,22.5625715 91.5232527,22.4317074 91.5084285,22.2844605 C91.4715685,21.4025583 91.4292995,20.4243337 91.5456893,19.5643409 C91.624618,19.4463066 91.7504231,19.2844534 91.8976631,19.2481352 C92.1007943,19.2045138 92.2338111,19.315245 92.3886636,19.3880789 L92.3886636,19.3880789 Z M120.584832,19.9172597 C120.547972,20.3516972 120.898744,20.6607972 121.142141,20.9462114 C121.25853,21.1299739 121.389344,21.4171645 121.287978,21.6826432 C121.075833,21.915159 121.024148,22.3444646 120.65134,22.3878886 C120.547972,22.7262011 120.16034,22.6371819 119.909331,22.5988898 C119.793141,21.9970725 119.837614,21.2843265 119.881886,20.6607972 C120.16034,20.4026217 119.7066,19.4753217 120.407944,19.7408003 L120.584832,19.9172597 Z M115.764974,20.9096958 C115.727914,21.3208422 116.396003,21.3733458 116.255774,21.791598 C116.123158,22.0933948 115.772386,22.0278641 115.488123,22.0351672 C115.29641,21.6153359 115.061828,22.2625511 114.849682,21.8936444 C114.585652,21.8642345 114.35147,21.697052 114.255714,21.4388765 C114.220456,21.2172167 114.284961,21.0133212 114.46225,20.9096958 C114.608088,20.8716011 114.761138,20.8425859 114.886742,20.7699494 C115.200454,20.7626463 115.517771,20.7553431 115.764974,20.9096958 L115.764974,20.9096958 Z M64.8283318,20.9752265 C64.9232866,21.05714 65.0330655,21.0861551 65.1428445,21.1226708 L65.0765364,23.6225122 C64.4030384,23.9825367 63.670444,23.5479018 62.996946,23.5917206 L61.3488591,23.6971225 C61.085029,22.975297 61.1000535,22.0497734 61.2096322,21.2626145 L61.5241449,20.9462114 L64.8283318,20.9752265 Z M89.4733107,21.2987354 C89.3699422,21.8790381 89.9048142,22.9389788 89.0119585,23.2024836 C88.8715296,23.3207153 88.7479281,23.5115836 88.5211584,23.4825684 C88.3070092,23.4389471 88.1261143,23.3207153 87.9564377,23.1661653 C87.7735395,23.1154382 87.561594,23.129847 87.3989288,23.027998 C87.4652369,22.4824345 87.421165,21.8498256 87.4285771,21.3299218 C87.62049,21.2097162 87.9267894,21.2553114 88.1335264,21.2987354 C88.2793642,21.2245198 88.5726423,21.3064333 88.7333042,21.1516859 C89.0265824,21.1007614 89.2241044,21.2480083 89.4733107,21.2987354 L89.4733107,21.2987354 Z" id="Fill-4" fill="#231815"></path>
                <path d="M53.3437055,38.8631707 L56.201422,38.8631707 L56.201422,38.6785051 C55.7039669,38.6625597 55.5187464,38.6250663 55.5187464,38.0038399 L55.5187464,36.3006928 L57.5895757,36.3006928 L57.5895757,38.0038399 C57.5895757,38.6250663 57.4055553,38.6625597 56.9079002,38.6785051 L56.9079002,38.8631707 L59.7646166,38.8631707 L59.7646166,38.6785051 C59.2671615,38.6625597 59.082141,38.6250663 59.082141,38.0038399 L59.082141,34.4271018 C59.082141,33.8037206 59.2671615,33.7679511 59.7646166,33.7520056 L59.7646166,33.5656162 L56.9079002,33.5656162 L56.9079002,33.7520056 C57.4055553,33.7679511 57.5895757,33.8037206 57.5895757,34.4271018 L57.5895757,35.9475225 L55.5187464,35.9475225 L55.5187464,34.4271018 C55.5187464,33.8037206 55.7039669,33.7679511 56.201422,33.7520056 L56.201422,33.5656162 L53.3437055,33.5656162 L53.3437055,33.7520056 C53.8411606,33.7679511 54.0263811,33.8037206 54.0263811,34.4271018 L54.0263811,38.0038399 C54.0263811,38.6250663 53.8411606,38.6625597 53.3437055,38.6785051 L53.3437055,38.8631707 Z M59.8558267,38.8631707 L62.712743,38.8631707 L62.712743,38.6785051 C62.2152879,38.6625597 62.0308675,38.6250663 62.0308675,38.0038399 L62.0308675,34.4271018 C62.0308675,33.8037206 62.2152879,33.7679511 62.712743,33.7520056 L62.712743,33.5656162 L59.8558267,33.5656162 L59.8558267,33.7520056 C60.3534818,33.7679511 60.5377022,33.8037206 60.5377022,34.4271018 L60.5377022,38.0038399 C60.5377022,38.6250663 60.3534818,38.6625597 59.8558267,38.6785051 L59.8558267,38.8631707 Z M62.793752,38.8631707 L64.7679706,38.8631707 L64.7679706,38.6785051 C64.238312,38.6864779 63.8844728,38.5951147 63.8844728,37.9480309 L63.8844728,34.6809362 L67.9619243,39 L68.1545457,39 L68.1545457,34.4805406 C68.1545457,34.0123044 68.3231643,33.7739845 68.7644132,33.7520056 L68.7644132,33.5656162 L66.9348106,33.5656162 L66.9348106,33.7520056 C67.4238647,33.7520056 67.769503,33.835396 67.769503,34.4805406 L67.769503,36.7294963 L64.807775,33.5656162 L62.793752,33.5656162 L62.793752,33.7520056 C63.0497804,33.7599783 63.1299892,33.7599783 63.4994302,34.2344634 L63.4994302,37.9185102 C63.4994302,38.4026918 63.3236107,38.6548024 62.793752,38.6785051 L62.793752,38.8631707 Z M68.7580125,38.8631707 L70.6518222,38.8631707 L70.6518222,38.6785051 C70.3149849,38.6785051 69.9299423,38.633039 69.9299423,38.2259989 C69.9299423,38.0195699 70.1223636,37.5431456 70.2273752,37.34275 L72.2411982,37.34275 L72.3452097,37.5649089 C72.4180178,37.7120812 72.6668453,38.1943235 72.6668453,38.3708009 C72.6668453,38.5100004 72.5700346,38.6091208 72.4658231,38.638857 C72.3700125,38.6705324 72.2089946,38.6785051 72.0247742,38.6785051 L72.0247742,38.8631707 L75.075112,38.8631707 L75.075112,38.6785051 C74.7772791,38.6785051 74.5608551,38.5237911 74.4080382,38.2874105 C74.2558213,38.049306 74.1196062,37.7495746 73.918784,37.3505072 L71.9279635,33.4285714 L71.6553333,33.4285714 L69.6413103,37.7814655 C69.3918827,38.3093894 69.3354764,38.6091208 68.7580125,38.6785051 L68.7580125,38.8631707 Z M70.3709911,37.0350457 L71.1900818,35.2489392 L72.0641786,37.0350457 L70.3709911,37.0350457 Z M77.0585317,38.8631707 L78.8163263,38.8631707 L78.8163263,38.6785051 C78.1260499,38.6785051 78.0616428,38.4087252 78.0616428,37.8191743 L78.0616428,34.2264907 L79.9482517,38.8631707 L80.2136811,38.8631707 L82.2035014,34.2264907 L82.2183031,38.0038399 C82.2183031,38.6250663 82.0340827,38.6625597 81.5364276,38.6785051 L81.5364276,38.8631707 L84.3151353,38.8631707 L84.3151353,38.6785051 C83.8176802,38.6625597 83.6314596,38.6250663 83.6314596,38.0038399 L83.6314596,34.4271018 C83.6314596,33.8037206 83.8176802,33.7679511 84.3151353,33.7520056 L84.3151353,33.5656162 L82.0984898,33.5656162 L80.6539298,36.9678163 L79.2885786,33.5656162 L77.0585317,33.5656162 L77.0585317,33.7520056 C77.4599761,33.7679511 77.6764001,33.8116933 77.6764001,34.341772 L77.6764001,37.6961357 C77.6764001,38.5951147 77.4515752,38.6785051 77.0585317,38.6785051 L77.0585317,38.8631707 Z M84.5491612,38.8631707 L89.4299017,38.8631707 L89.7431364,37.2572047 L89.5477147,37.213678 C89.5163112,37.3287438 89.3726953,37.6823451 89.1386694,37.9419974 C88.6008099,38.5474938 88.1915645,38.5554665 87.3662732,38.5554665 C86.7562056,38.5554665 86.7250021,38.4561307 86.7250021,37.8967468 L86.7250021,36.2134238 C87.6056997,36.2134238 87.9041327,36.6062423 88.0073441,37.3884315 L88.2007656,37.3884315 L88.2007656,34.7722993 L88.0073441,34.7722993 C87.9041327,35.5544886 87.6056997,35.9475225 86.7250021,35.9475225 L86.7250021,34.2721723 C86.7250021,33.8888349 86.8282136,33.8752597 87.2224572,33.8752597 L87.734714,33.8752597 C88.7150225,33.8752597 89.0908641,34.2799295 89.1792739,35.0621188 L89.3726953,35.0621188 L89.3726953,33.5656162 L84.5491612,33.5656162 L84.5491612,33.7520056 C85.0464163,33.7679511 85.2306367,33.8037206 85.2306367,34.4271018 L85.2306367,38.0038399 C85.2306367,38.6250663 85.0464163,38.6625597 84.5491612,38.6785051 L84.5491612,38.8631707 Z M90.1593825,38.8631707 L93.0188991,38.8631707 L93.0188991,38.6785051 C92.5196438,38.6625597 92.3352234,38.6250663 92.3352234,38.0038399 L92.3352234,36.3761105 L92.5768502,36.3761105 L94.1172207,38.8631707 L95.9780268,38.8631707 L95.9780268,38.6785051 C95.8674146,38.6785051 95.7864056,38.6548024 95.6573913,38.5177577 C95.528377,38.3787736 95.3607585,38.1348513 95.0567248,37.6823451 L94.0840171,36.2291538 C94.7176872,36.0625884 95.3607585,35.6079274 95.3607585,34.9171013 C95.3607585,34.2344634 94.8244991,33.8037206 94.1724269,33.6589186 C93.7965852,33.5733734 92.873483,33.5656162 91.9833844,33.5656162 L90.1593825,33.5656162 L90.1593825,33.7520056 C90.6568375,33.7679511 90.8410579,33.8037206 90.8410579,34.4271018 L90.8410579,38.0038399 C90.8410579,38.6250663 90.6568375,38.6625597 90.1593825,38.6785051 L90.1593825,38.8631707 Z M92.3352234,34.2504089 C92.3352234,33.9664074 92.3666269,33.835396 92.7758722,33.835396 C93.4593479,33.835396 93.8039861,34.3197931 93.8039861,34.9550256 C93.8039861,35.792593 93.2329228,36.1061152 92.503042,36.1061152 L92.3352234,36.1061152 L92.3352234,34.2504089 Z M101.382225,33.4365442 L101.188604,33.4365442 C101.100194,33.6884393 100.948977,33.7599783 100.786959,33.7599783 C100.683748,33.7599783 100.562134,33.7203302 100.466324,33.680682 C100.025875,33.5061439 99.7218414,33.4365442 99.2391879,33.4285714 C97.5293986,33.4285714 96.3336662,34.625558 96.3336662,36.2134238 C96.3336662,37.8032289 97.5293986,39 99.2391879,39 C100.042677,39 100.908573,38.638857 101.391426,38.0038399 L101.177803,37.7297505 C100.735554,38.2141476 100.112485,38.5951147 99.3109959,38.5951147 C98.2518786,38.5951147 97.9456447,37.5948605 97.9456447,36.1619243 C97.9456447,34.7246784 98.2518786,33.7362756 99.3109959,33.7362756 C100.241699,33.7362756 100.901372,34.5341949 101.188604,35.2566964 L101.382225,35.2566964 L101.382225,33.4365442 Z M101.711862,38.8631707 L104.569578,38.8631707 L104.569578,38.6785051 C104.072123,38.6625597 103.887703,38.6250663 103.887703,38.0038399 L103.887703,36.3006928 L105.956932,36.3006928 L105.956932,38.0038399 C105.956932,38.6250663 105.772711,38.6625597 105.275256,38.6785051 L105.275256,38.8631707 L108.132973,38.8631707 L108.132973,38.6785051 C107.635718,38.6625597 107.451297,38.6250663 107.451297,38.0038399 L107.451297,34.4271018 C107.451297,33.8037206 107.635718,33.7679511 108.132973,33.7520056 L108.132973,33.5656162 L105.275256,33.5656162 L105.275256,33.7520056 C105.772711,33.7679511 105.956932,33.8037206 105.956932,34.4271018 L105.956932,35.9475225 L103.887703,35.9475225 L103.887703,34.4271018 C103.887703,33.8037206 104.072123,33.7679511 104.569578,33.7520056 L104.569578,33.5656162 L101.711862,33.5656162 L101.711862,33.7520056 C102.209317,33.7679511 102.393537,33.8037206 102.393537,34.4271018 L102.393537,38.0038399 C102.393537,38.6250663 102.209317,38.6625597 101.711862,38.6785051 L101.711862,38.8631707 Z M108.271188,38.8631707 L110.165198,38.8631707 L110.165198,38.6785051 C109.829961,38.6785051 109.443118,38.633039 109.443118,38.2259989 C109.443118,38.0195699 109.636539,37.5431456 109.741551,37.34275 L111.755174,37.34275 L111.860386,37.5649089 C111.932194,37.7120812 112.181021,38.1943235 112.181021,38.3708009 C112.181021,38.5100004 112.085211,38.6091208 111.980199,38.638857 C111.884188,38.6705324 111.723971,38.6785051 111.53975,38.6785051 L111.53975,38.8631707 L114.588888,38.8631707 L114.588888,38.6785051 C114.292455,38.6785051 114.075031,38.5237911 113.923814,38.2874105 C113.769197,38.049306 113.632782,37.7495746 113.43396,37.3505072 L111.443939,33.4285714 L111.171309,33.4285714 L109.155486,37.7814655 C108.906859,38.3093894 108.849652,38.6091208 108.271188,38.6785051 L108.271188,38.8631707 Z M109.885167,37.0350457 L110.703257,35.2489392 L111.580155,37.0350457 L109.885167,37.0350457 Z M114.725303,38.8631707 L116.698521,38.8631707 L116.698521,38.6785051 C116.171863,38.6864779 115.818024,38.5951147 115.818024,37.9480309 L115.818024,34.6809362 L119.893675,39 L120.087097,39 L120.087097,34.4805406 C120.087097,34.0123044 120.254915,33.7739845 120.696964,33.7520056 L120.696964,33.5656162 L118.867362,33.5656162 L118.867362,33.7520056 C119.355616,33.7520056 119.702054,33.835396 119.702054,34.4805406 L119.702054,36.7294963 L116.739326,33.5656162 L114.725303,33.5656162 L114.725303,33.7520056 C114.981331,33.7599783 115.06274,33.7599783 115.430981,34.2344634 L115.430981,37.9185102 C115.430981,38.4026918 115.254361,38.6548024 114.725303,38.6785051 L114.725303,38.8631707 Z M121.758282,38.8631707 L124.90523,38.8631707 L124.90523,38.6785051 C124.300963,38.6625597 124.077939,38.5474938 124.077939,38.0118127 L124.077939,34.0420405 C124.077939,33.8752597 124.125944,33.8752597 124.35797,33.8752597 C125.120854,33.8752597 125.586906,34.3197931 125.706519,35.0104038 L125.89994,35.0104038 L125.833933,33.5656162 L120.825978,33.5656162 L120.763372,35.0104038 L120.954993,35.0104038 C121.076606,34.3197931 121.540658,33.8752597 122.303542,33.8752597 C122.535768,33.8752597 122.583573,33.8752597 122.583573,34.0420405 L122.583573,38.0118127 C122.583573,38.5474938 122.358748,38.6625597 121.758282,38.6785051 L121.758282,38.8631707 Z M126.231777,39 L126.4382,39 C126.478604,38.855198 126.543212,38.7698683 126.720031,38.7698683 C126.935455,38.7698683 127.410908,39 127.956168,39 C129.120697,38.9840545 129.938988,38.2796532 129.938988,37.2434141 C129.938988,36.6519238 129.60175,36.0843518 128.927276,35.7469115 L127.908563,35.240751 C127.52172,35.0483281 127.153079,34.8556898 127.153079,34.3792654 C127.153079,33.9743801 127.514319,33.7362756 127.923364,33.7362756 C128.671447,33.7362756 129.24051,34.4508045 129.376925,35.0937942 L129.592349,35.0937942 L129.544544,33.4285714 L129.319719,33.4285714 C129.312318,33.5813461 129.183304,33.6449125 129.047289,33.6449125 C128.951278,33.6449125 128.848067,33.6212098 128.774459,33.5891034 C128.494428,33.474253 128.092783,33.4285714 127.915764,33.4285714 C126.928254,33.4285714 126.231777,34.1114248 126.231777,35.0483281 C126.231777,35.730966 126.552413,36.169897 127.241489,36.536858 L128.125787,37.0053096 C128.525631,37.2216507 128.87947,37.4360524 128.87947,37.9124768 C128.87947,38.416698 128.446422,38.6942351 127.915764,38.6942351 C127.081071,38.6942351 126.535811,37.8805859 126.399396,37.1742453 L126.181772,37.1742453 L126.231777,39 Z M134.362878,36.1916604 L134.707316,36.1916604 C135.252576,36.1916604 135.783235,36.4834192 135.783235,37.4123497 C135.783235,38.0870149 135.582413,38.5951147 134.764522,38.5951147 C134.403282,38.5951147 134.362878,38.5554665 134.362878,38.0572788 L134.362878,36.1916604 Z M134.362878,34.0657432 C134.362878,33.9347319 134.419684,33.835396 134.666711,33.835396 C134.788325,33.835396 135.027951,33.8433688 135.189969,33.9823528 C135.436796,34.1887818 135.510605,34.5341949 135.510605,34.8953379 C135.510605,35.7548842 135.075556,35.9233889 134.675912,35.9233889 L134.362878,35.9233889 L134.362878,34.0657432 Z M132.186837,38.8631707 L134.460488,38.8631707 C134.675912,38.8631707 135.101559,38.8631707 135.366789,38.839468 C136.46511,38.7481049 137.340207,38.3949346 137.340207,37.3505072 C137.340207,36.8764531 136.921961,36.4375221 136.529517,36.2690174 C136.256687,36.1539516 135.974856,36.0625884 135.687624,36.0306975 C135.83124,35.9910493 135.991458,35.953556 136.216083,35.8542201 C136.682534,35.6458518 137.00317,35.292466 137.00317,34.7882448 C137.00317,34.2879022 136.802348,34.0814732 136.579323,33.8970231 C136.199681,33.5813461 135.518005,33.5656162 134.764522,33.5656162 L132.186837,33.5656162 L132.186837,33.7520056 C132.684092,33.7679511 132.868512,33.8037206 132.868512,34.4271018 L132.868512,38.0038399 C132.868512,38.6250663 132.684092,38.6625597 132.186837,38.6785051 L132.186837,38.8631707 Z M137.485823,38.8631707 L139.379833,38.8631707 L139.379833,38.6785051 C139.042596,38.6785051 138.657753,38.633039 138.657753,38.2259989 C138.657753,38.0195699 138.849174,37.5431456 138.955986,37.34275 L140.968209,37.34275 L141.075021,37.5649089 C141.144829,37.7120812 141.395456,38.1943235 141.395456,38.3708009 C141.395456,38.5100004 141.298046,38.6091208 141.192834,38.638857 C141.097223,38.6705324 140.936605,38.6785051 140.752385,38.6785051 L140.752385,38.8631707 L143.801723,38.8631707 L143.801723,38.6785051 C143.50509,38.6785051 143.289666,38.5237911 143.136649,38.2874105 C142.983632,38.049306 142.847417,37.7495746 142.646595,37.3505072 L140.656775,33.4285714 L140.382144,33.4285714 L138.370121,37.7814655 C138.119494,38.3093894 138.064487,38.6091208 137.485823,38.6785051 L137.485823,38.8631707 Z M139.099802,37.0350457 L139.917693,35.2489392 L140.79299,37.0350457 L139.099802,37.0350457 Z M143.938138,38.8631707 L145.913357,38.8631707 L145.913357,38.6785051 C145.382698,38.6864779 145.030659,38.5951147 145.030659,37.9480309 L145.030659,34.6809362 L149.10811,39 L149.299732,39 L149.299732,34.4805406 C149.299732,34.0123044 149.46915,33.7739845 149.911599,33.7520056 L149.911599,33.5656162 L148.079997,33.5656162 L148.079997,33.7520056 C148.570251,33.7520056 148.916489,33.835396 148.916489,34.4805406 L148.916489,36.7294963 L145.953761,33.5656162 L143.938138,33.5656162 L143.938138,33.7520056 C144.196166,33.7599783 144.276975,33.7599783 144.645616,34.2344634 L144.645616,37.9185102 C144.645616,38.4026918 144.468597,38.6548024 143.938138,38.6785051 L143.938138,38.8631707 Z M150.121623,38.8631707 L152.977339,38.8631707 L152.977339,38.6785051 C152.480084,38.6625597 152.295663,38.6250663 152.295663,38.0038399 L152.295663,36.5288853 L152.417077,36.4295494 L153.644213,38.1031758 C153.780828,38.2936594 153.861837,38.4404007 153.861837,38.5020277 C153.861837,38.6625597 153.62041,38.6705324 153.459992,38.6785051 L153.459992,38.8631707 L156.05988,38.8631707 L156.05988,38.6785051 C155.739245,38.6625597 155.579027,38.4026918 155.409608,38.1723446 L153.434389,35.4928616 L154.799941,34.2504089 C155.041167,34.0340678 155.498018,33.7520056 155.932866,33.7520056 L155.932866,33.5656162 L153.756825,33.5656162 L153.756825,33.7520056 C153.972449,33.7520056 154.390695,33.7520056 154.390695,34.0041162 C154.390695,34.1193975 154.16587,34.4029681 153.828633,34.7026996 L152.295663,36.0843518 L152.295663,34.4271018 C152.295663,33.8037206 152.480084,33.7679511 152.977339,33.7520056 L152.977339,33.5656162 L150.121623,33.5656162 L150.121623,33.7520056 C150.618878,33.7679511 150.803298,33.8037206 150.803298,34.4271018 L150.803298,38.0038399 C150.803298,38.6250663 150.618878,38.6625597 150.121623,38.6785051 L150.121623,38.8631707 Z M52.9944668,33.4365442 L52.8020455,33.4365442 C52.7134357,33.6884393 52.5606188,33.7599783 52.4004011,33.7599783 C52.2961895,33.7599783 52.1753761,33.7203302 52.0787654,33.680682 C51.6375166,33.5061439 51.3324828,33.4365442 50.8516295,33.4285714 C49.1418402,33.4285714 47.9461078,34.625558 47.9461078,36.2134238 C47.9461078,37.8032289 49.1418402,39 50.8516295,39 C51.6541184,39 52.5200143,38.638857 53.0018677,38.0038399 L52.7900442,37.7297505 C52.345995,38.2141476 51.7261264,38.5951147 50.9234375,38.5951147 C49.8641202,38.5951147 49.5592864,37.5948605 49.5592864,36.1619243 C49.5592864,34.7246784 49.8641202,33.7362756 50.9234375,33.7362756 C51.8539405,33.7362756 52.5126135,34.5341949 52.8020455,35.2566964 L52.9944668,35.2566964 L52.9944668,33.4365442 Z" id="Fill-6" fill="#231815"></path>
            </g>
        </g>
    </g>
</svg>