<?xml version="1.0" encoding="UTF-8"?>
<svg width="232px" height="60px" viewBox="0 0 232 60" version="1.1" xmlns="http://www.w3.org/2000/svg" xmlns:xlink="http://www.w3.org/1999/xlink">
    <!-- Generator: Sketch 53.2 (72643) - https://sketchapp.com -->
    <title>08.华润怡宝</title>
    <desc>Created with Sketch.</desc>
    <defs>
        <polygon id="path-1" points="0 56.7246919 80.373816 56.7246919 80.373816 0 0 0"></polygon>
    </defs>
    <g id="08.华润怡宝" stroke="none" stroke-width="1" fill="none" fill-rule="evenodd">
        <g id="08" transform="translate(5.000000, -23.000000)">
            <rect id="矩形复制-13" x="0" y="0" width="223" height="106"></rect>
            <g id="Page-1" transform="translate(71.129310, 25.054545)">
                <path d="M1.50705696,43.4488648 C1.05423902,43.679864 0.595945646,43.8694161 0.143675246,44.0097841 L0.000219017143,44.0545471 L0.000219017143,41.8788433 L0.0456650743,41.8445803 C1.16812793,41.0255828 2.06007525,40.0385859 2.69467742,38.9106684 L2.7264349,38.8526422 L5.86057022,38.8526422 L5.78884211,39.0117996 C5.39242108,39.8783232 4.84925856,40.6884786 4.17030542,41.4229237 L4.17030542,50.1953701 L1.50705696,50.1953701 L1.50705696,43.4488648 Z" id="Fill-1" fill="#00844A"></path>
                <path d="M11.5292814,42.2883421 L11.5292814,38.8526422 L8.86603296,38.8526422 L8.86603296,43.3913913 C7.63789433,43.8705214 6.57839891,44.2429939 5.62950713,44.5303614 L5.55066096,44.5546771 L5.55066096,46.6563285 L5.68699913,46.6253812 C6.66381559,46.3921714 7.70633719,46.0987249 8.86603296,45.7312261 L8.86603296,48.2887971 C8.86603296,49.5172932 9.64135365,50.1953701 11.0512765,50.1953701 L16.339993,50.1953701 L16.339993,48.4009809 L12.1129621,48.4009809 C11.7515838,48.4009809 11.5292814,48.1572712 11.5292814,47.7643513 L11.5292814,44.8188342 C13.0886835,44.2440991 14.6842234,43.5953117 16.2737403,42.8896034 L16.339993,42.8597613 L16.339993,40.0181386 L16.1795629,40.0988226 C14.6661545,40.8614518 13.0624014,41.6163442 11.5292814,42.2883421" id="Fill-3" fill="#00844A"></path>
                <path d="M21.2136719,48.3419048 C21.1923178,51.7134996 20.7948017,54.468912 20.0298843,56.5302214 L19.9734874,56.6810894 L22.6465916,56.6810894 L22.6739687,56.6086949 C23.3551121,54.775069 23.7405822,51.8406044 23.7581036,48.3441153 L23.7608413,48.2308262 L21.2136719,48.2308262 L21.2136719,48.3419048 Z" id="Fill-5" fill="#00844A"></path>
                <mask id="mask-2" fill="white">
                    <use xlink:href="#path-1"></use>
                </mask>
                <g id="Clip-8"></g>
                <polygon id="Fill-7" fill="#00844A" mask="url(#mask-2)" points="24.8261407 56.6815867 27.4904842 56.6815867 27.4904842 42.9006559 24.8261407 42.9006559"></polygon>
                <path d="M25.9610875,41.9210643 L25.9906548,41.9862746 L28.5558931,41.9862746 L28.5066143,41.8387224 C28.1633049,40.7865152 27.9486681,40.0498596 27.7373166,38.9440472 L27.7203427,38.8523107 L25.0855665,38.8523107 L25.1085633,38.9838366 C25.2569474,39.8514654 25.4737744,40.8782517 25.9610875,41.9210643" id="Fill-9" fill="#00844A" mask="url(#mask-2)"></path>
                <polygon id="Fill-10" fill="#00844A" mask="url(#mask-2)" points="34.4485494 52.0122513 32.6542514 52.0122513 32.6542514 49.4375488 34.4485494 49.4375488 34.4485494 47.7415277 32.6542514 47.7415277 32.6542514 45.1668252 34.4485494 45.1668252 34.4485494 43.4708042 28.4628108 43.4708042 28.4628108 45.1668252 30.2554662 45.1668252 30.2554662 47.7415277 28.4628108 47.7415277 28.4628108 49.4375488 30.2554662 49.4375488 30.2554662 52.0122513 28.4628108 52.0122513 28.4628108 53.7093776 34.4485494 53.7093776"></polygon>
                <path d="M35.5928044,38.9285736 C35.1728391,38.9285736 34.692644,38.9744419 34.1659077,39.0661784 L29.9465425,39.772992 L29.9465425,41.5076971 L33.2860064,41.2866452 C33.4360331,41.2766978 33.5794893,41.2722768 33.7125423,41.2722768 C34.8935922,41.2722768 35.420876,41.6734861 35.420876,42.5720622 L35.420876,54.5199198 C35.420876,55.1322337 34.9954352,55.1808651 34.86512,55.1808651 L33.7410145,55.1808651 L33.7410145,56.6812552 L36.9282615,56.6812552 C37.5020864,56.6812552 38.0835769,56.2584933 38.0835769,55.4499958 L38.0835769,41.1716982 C38.0835769,39.6619134 37.2688331,38.9285736 35.5928044,38.9285736" id="Fill-11" fill="#00844A" mask="url(#mask-2)"></path>
                <polygon id="Fill-12" fill="#00844A" mask="url(#mask-2)" points="9.5014017 50.5742531 6.83815324 50.5742531 6.83815324 51.6668023 -0.000109508571 51.6668023 -0.000109508571 53.4606389 6.83815324 53.4606389 6.83815324 56.7244708 9.5014017 56.7244708 9.5014017 53.4606389 16.3396644 53.4606389 16.3396644 51.6668023 9.5014017 51.6668023"></polygon>
                <path d="M20.7276181,39.2232358 L20.6033259,39.2088674 L20.6033259,41.4884656 L20.7035263,41.4995182 C21.7548085,41.6045179 22.5711949,41.7084123 23.6268576,41.9233853 L23.7610056,41.9499115 L23.7610056,39.7637078 L23.6733987,39.7438131 C22.775976,39.5338138 21.9305698,39.3647091 20.7276181,39.2232358" id="Fill-13" fill="#00844A" mask="url(#mask-2)"></path>
                <path d="M20.7276181,43.4008412 L20.6033259,43.384815 L20.6033259,45.6644131 L20.7035263,45.6754657 C21.7515233,45.781018 22.5662671,45.8849124 23.6268576,46.0993328 L23.7610056,46.127517 L23.7610056,43.9407606 L23.6733987,43.9203133 C22.7792612,43.7114192 21.9354977,43.5434197 20.7276181,43.4008412" id="Fill-14" fill="#00844A" mask="url(#mask-2)"></path>
                <path d="M57.7963791,51.425082 L57.7794053,55.0116498 L52.9495297,55.0116498 C52.3258784,55.0116498 52.1134318,54.9160449 52.1052186,54.2650469 L52.1178121,50.4496903 C52.6445484,50.2734014 55.1172519,49.909771 55.9456842,49.9390604 C57.8763204,50.0103496 57.7963791,51.425082 57.7963791,51.425082 M57.1119505,48.0253032 C55.7326901,48.0507241 53.2205634,48.4640913 52.0800317,48.7658272 L52.0597726,48.162908 L49.7097186,48.162908 L49.7047908,54.8983607 C49.7047908,56.2412513 50.4603999,56.5518292 51.3244225,56.5518292 L60.1787381,56.5518292 C60.1989972,55.2089387 60.261417,52.6690519 60.2559416,52.2595531 C60.2345874,50.3955326 60.4990506,47.967277 57.1119505,48.0253032" id="Fill-15" fill="#00844A" mask="url(#mask-2)"></path>
                <path d="M47.9826042,38.9720103 L45.4584316,38.9720103 L45.4677399,44.5651771 L44.6037172,44.5651771 L44.5905762,40.4000058 L42.2646141,40.4000058 L42.250378,53.6493067 L44.5757925,53.6493067 L44.5938615,46.3667504 L45.4584316,46.3667504 L45.424484,56.5727187 L47.9513943,56.5727187 L47.9683681,46.3739346 L49.1587263,46.3700662 C49.1587263,46.3700662 49.276448,45.3880429 49.3399629,44.5751244 L47.9716533,44.5762297 L47.9826042,38.9720103 Z" id="Fill-16" fill="#00844A" mask="url(#mask-2)"></path>
                <path d="M56.2248763,40.8433255 C56.8074619,41.8253488 57.4075689,43.0820291 57.887764,44.364683 C56.6771467,44.6194453 54.5778674,45.0035231 52.8903403,44.8708919 C52.3729123,44.8299973 52.0208423,44.6680768 52.2365742,43.9496579 C52.9916358,41.4191658 55.6247694,39.4611982 55.6247694,39.4611982 L53.3847715,38.2304915 C53.3847715,38.2304915 50.2079279,41.2926136 49.6894048,44.5205246 C49.4096104,46.2806507 50.7439723,46.7581229 51.6189458,46.8487542 C53.9361472,47.0902534 57.4333034,46.2215193 58.3542705,45.9242044 C58.6165435,46.8730699 58.698675,47.2184636 58.698675,47.2184636 L60.6200029,46.8957277 C60.6200029,46.8957277 59.9782826,43.10745 58.1735814,40.2934588 C58.1735814,40.2934588 57.2350929,40.5377212 56.2248763,40.8433255" id="Fill-17" fill="#00844A" mask="url(#mask-2)"></path>
                <polygon id="Fill-18" fill="#00844A" mask="url(#mask-2)" points="78.2452979 52.2645268 76.0452707 52.2645268 76.694109 54.6662562 73.2467792 54.6695719 73.2396611 50.7735314 79.1202714 50.7735314 79.1377928 48.8531427 73.2549923 48.8531427 73.2500644 45.8628625 77.0160642 45.860652 77.0160642 43.9386053 66.5985138 43.9386053 66.5985138 45.860652 70.4493827 45.860652 70.4493827 48.8531427 64.3607062 48.8531427 64.3519455 50.7735314 70.4450024 50.7773999 70.4411696 54.6662562 63.4928507 54.6662562 63.490113 56.6380395 77.5603218 56.6380395 80.328151 56.6380395 80.3303411 54.6662562 78.8530705 54.6662562"></polygon>
                <path d="M73.327049,39.9250757 L73.3281441,38.7656583 L70.5488165,38.7656583 L70.5438886,40.3467323 L65.847066,41.0402828 L65.8492562,39.5912873 L63.1602732,39.5912873 L63.1416567,46.4753975 L65.8229741,46.4753975 L65.827902,46.0006884 L65.827902,43.9382738 L65.8207839,43.9382738 L65.8306397,43.003224 C67.0609685,42.883856 71.0240837,42.313542 74.4911251,42.168753 C76.7349557,42.0742533 77.6778245,41.9101222 77.7774773,43.579617 L77.7867855,43.579617 L77.7867855,43.7912742 L77.7867855,43.8067479 L77.7867855,43.9382738 L77.7867855,46.0647935 L77.7807626,46.0647935 L77.7774773,46.7760281 L80.3564042,46.7760281 C80.3564042,46.7760281 80.3832338,45.0932702 80.3700927,43.9659053 C80.2857711,40.2936799 79.2350364,39.0264996 73.327049,39.9250757" id="Fill-19" fill="#00844A" mask="url(#mask-2)"></path>
                <path d="M0,34.208783 C0,34.208783 15.3432459,23.6662632 41.0454552,31.7788695 C64.1304096,39.0652942 80.2018876,27.5296985 80.2018876,27.5296985 L80.1865564,-0.000110525972 C80.1865564,-0.000110525972 62.2402917,9.68528038 40.5548568,2.7155126 C18.2397477,-4.45651771 0,5.32226765 0,5.32226765 L0,34.208783 Z" id="Fill-20" fill="#00844A" mask="url(#mask-2)"></path>
                <path d="M6.67131693,20.540644 C7.82772744,24.1830274 12.9275416,25.3446553 16.5462524,22.8705314 L17.1025559,21.370694 C17.1025559,21.370694 12.6910031,23.6370291 10.4504577,21.0606687 C8.2181255,18.4959135 10.3825624,14.0654799 12.1774079,12.4368797 C14.9983487,9.87544032 18.4631999,11.221094 18.4631999,11.221094 L19.2160713,9.80525632 C19.2160713,9.80525632 14.7514069,8.14681412 10.844141,10.6308853 C7.2330959,12.927615 5.54064093,16.9772866 6.67131693,20.540644 L6.67131693,20.540644 Z M27.0169144,22.8230053 C28.0687443,23.6381343 30.4352245,24.6466838 32.6938388,23.787897 C34.14647,23.2352672 35.3559921,21.5077462 34.6781341,19.3911739 C33.9597579,17.1497071 31.8604785,16.5694458 32.8652197,14.9275825 C33.9553775,13.1497722 36.6219112,14.1798743 36.6219112,14.1798743 L37.2357068,12.6557211 C37.2357068,12.6557211 35.2848116,11.9892495 33.5693598,12.1854331 C32.5903532,12.2987222 30.4735525,12.9861938 29.9429835,14.8513196 C29.004495,18.1538356 32.6719371,19.2027271 31.3611195,21.6044564 C30.3602111,23.3082143 28.2450531,21.9636658 27.6148312,21.4723779 C27.4401651,21.99185 27.0169144,22.8230053 27.0169144,22.8230053 L27.0169144,22.8230053 Z M36.5096649,21.1966156 L39.353055,14.3412422 L37.1913558,14.3412422 L37.8697614,12.7330893 L39.9903949,12.7330893 L41.3411831,9.4438364 L44.0548055,9.4438364 L42.7248239,12.7330893 L45.4559677,12.7330893 L43.8768541,14.3412422 L42.0836512,14.3412422 L39.1137788,21.6077722 C38.7606136,22.4328486 39.2446415,23.1485043 41.6686137,22.2167703 L41.0285361,23.6933973 C37.1032014,25.1705769 35.6078619,23.5099242 36.5096649,21.1966156 L36.5096649,21.1966156 Z M61.5153997,24.2007115 L64.2405205,24.2007115 L67.9468381,15.1392397 C68.7478933,14.5462679 69.6557194,14.2052953 70.43104,14.1411902 C71.7062674,14.0389537 71.2320952,15.1641081 70.6078964,16.6009457 L67.5416564,24.2007115 L70.3226266,24.2007115 L73.4682603,16.1400524 C74.2600072,14.1505849 74.0021146,12.2998275 71.809753,12.2998275 C70.187931,12.2998275 68.6389323,13.4056399 68.6389323,13.4056399 L69.0786092,12.2893275 L66.3731999,12.2893275 L61.5153997,24.2007115 Z M53.4692574,19.8824618 C53.7654781,18.3677034 54.6355237,15.9173426 55.9014428,14.4628208 C57.1657192,13.0066411 58.4283531,12.267775 60.49697,12.267775 C62.5190458,12.267775 64.2947272,13.3735873 63.5905871,16.3837622 C63.0994412,18.4903872 61.7694596,21.5027725 60.868204,22.4975063 C59.9143844,23.5497135 58.2000277,24.4162372 55.8861116,24.2007115 C53.0279379,23.9348966 53.099666,21.7674822 53.4692574,19.8824618 L53.4692574,19.8824618 Z M41.773742,23.8321074 L47.5711257,9.4438364 L50.1653838,9.4438364 L48.87154,12.7623787 C51.279086,11.616777 55.1031253,12.1097228 54.1558761,15.9372372 C53.2562632,19.5718838 50.7025233,23.4723454 46.1776292,24.2007115 C43.9677462,24.5566051 41.773742,23.8321074 41.773742,23.8321074 L41.773742,23.8321074 Z M18.2419926,17.6415477 C17.0237097,20.9191954 18.1691694,23.5231873 20.744811,23.9757912 C24.2808428,24.5974998 26.1999805,23.1871884 26.1999805,23.1871884 L26.8931697,21.5165883 C26.8931697,21.5165883 23.5761551,23.3585036 21.1363041,22.0327446 C19.7953717,21.3038258 20.8313228,18.9706225 20.8313228,18.9706225 L27.8042811,18.9927277 C27.8042811,18.9927277 30.0661806,14.5545573 27.7358382,12.9839833 C27.2260758,12.6330633 26.3226301,12.2235646 25.4109712,12.1854331 C23.2437966,12.1694069 20.0598349,12.7469051 18.2419926,17.6415477 L18.2419926,17.6415477 Z M18.5146689,13.438245 L20.8888148,9.75275649 L24.1445046,9.75275649 L20.534007,12.9403255 L18.5146689,13.438245 Z M21.5250596,17.2486279 L25.7066444,17.2851015 C26.1912198,16.3367886 26.7935169,13.9455592 24.686572,13.9455592 C22.5867452,13.9455592 21.5250596,17.2486279 21.5250596,17.2486279 L21.5250596,17.2486279 Z M48.1444031,14.5423995 L44.9062347,22.5870323 C47.5629126,22.381454 50.2475152,20.2295134 51.3951651,16.9850235 C53.0087739,12.4313534 48.1444031,14.5423995 48.1444031,14.5423995 L48.1444031,14.5423995 Z M60.3863663,13.6410602 C61.8406402,13.6410602 61.6435247,15.3050287 60.1728246,18.7573074 C58.7393574,22.1327706 58.1764833,23.0711361 56.5223564,23.0711361 C54.9728101,23.0711361 55.5586809,21.0579055 56.8946855,17.9692572 C58.1255619,15.1309503 58.8461283,13.6410602 60.3863663,13.6410602 L60.3863663,13.6410602 Z" id="Fill-21" fill="#FEFEFE" mask="url(#mask-2)"></path>
            </g>
        </g>
    </g>
</svg>