<?xml version="1.0" encoding="UTF-8"?>
<svg width="232px" height="60px" viewBox="0 0 232 60" version="1.1" xmlns="http://www.w3.org/2000/svg" xmlns:xlink="http://www.w3.org/1999/xlink">
    <!-- Generator: Sketch 53.2 (72643) - https://sketchapp.com -->
    <title>11.SENSORO</title>
    <desc>Created with Sketch.</desc>
    <defs>
        <polygon id="path-1" points="0.000752688172 0.4845 13.4527957 0.4845 13.4527957 22.49925 0.000752688172 22.49925"></polygon>
        <polygon id="path-3" points="1.31946237 0.4845 14.7715054 0.4845 14.7715054 22.49925 1.31946237 22.49925"></polygon>
        <polygon id="path-5" points="0.181247312 0.4845 22.0980215 0.4845 22.0980215 22.4994 0.181247312 22.4994"></polygon>
        <polygon id="path-7" points="1.06113978 0.4845 22.9780645 0.4845 22.9780645 22.4994 1.06113978 22.4994"></polygon>
    </defs>
    <g id="11.SENSORO" stroke="none" stroke-width="1" fill="none" fill-rule="evenodd">
        <g id="11" transform="translate(0.000000, -25.000000)">
            <rect id="矩形复制-16" x="0" y="0" width="232" height="110"></rect>
            <g id="编组" transform="translate(46.000000, 43.000000)">
                <g transform="translate(0.000000, 1.015800)">
                    <mask id="mask-2" fill="white">
                        <use xlink:href="#path-1"></use>
                    </mask>
                    <g id="Clip-2"></g>
                    <path d="M11.4927957,4.38975 C11.0366667,3.75825 10.454086,3.25125 9.74053763,2.86575 C9.02698925,2.48175 8.16741935,2.28975 7.15731183,2.28975 C6.64096774,2.28975 6.11709677,2.36775 5.58268817,2.52675 C5.04827957,2.68425 4.56354839,2.92425 4.12698925,3.25125 C3.69193548,3.57675 3.3411828,3.98475 3.07322581,4.47975 C2.80526882,4.97325 2.6727957,5.55375 2.6727957,6.22575 C2.6727957,6.89625 2.80075269,7.44825 3.05666667,7.88175 C3.31408602,8.31525 3.65430108,8.68575 4.0788172,8.99175 C4.50333333,9.29625 4.98806452,9.54825 5.53150538,9.74625 C6.07344086,9.94275 6.64096774,10.14075 7.23258065,10.33875 C7.96419355,10.57425 8.6988172,10.83075 9.43946237,11.10825 C10.1801075,11.38425 10.8469892,11.74275 11.4386022,12.18675 C12.0317204,12.63075 12.5149462,13.19325 12.8897849,13.87425 C13.2646237,14.55375 13.4527957,15.41925 13.4527957,16.46325 C13.4527957,17.50875 13.2525806,18.41175 12.8521505,19.17075 C12.4517204,19.92975 11.9323656,20.55675 11.2925806,21.04875 C10.6527957,21.54375 9.92419355,21.90825 9.10225806,22.14525 C8.28032258,22.38075 7.45387097,22.49925 6.62290323,22.49925 C5.98913978,22.49925 5.35537634,22.43475 4.7216129,22.30725 C4.08784946,22.17825 3.48419355,21.98625 2.91064516,21.73125 C2.3355914,21.47475 1.8011828,21.14925 1.30591398,20.75325 C0.810645161,20.35875 0.375591398,19.90725 0.000752688172,19.39275 L1.84182796,18.03225 C2.29645161,18.78225 2.93473118,19.40775 3.75666667,19.91175 C4.57860215,20.41425 5.54354839,20.66625 6.65150538,20.66625 C7.18591398,20.66625 7.73086022,20.58225 8.28483871,20.41425 C8.8388172,20.24625 9.34010753,19.98825 9.78569892,19.64475 C10.2312903,19.29825 10.5970968,18.87525 10.8846237,18.37125 C11.1706452,17.86875 11.3136559,17.28225 11.3136559,16.61025 C11.3136559,15.88125 11.1706452,15.27525 10.8846237,14.79225 C10.5970968,14.30775 10.2162366,13.90425 9.74053763,13.57725 C9.26634409,13.25175 8.72139785,12.98325 8.1072043,12.76425 C7.49301075,12.54675 6.85021505,12.33075 6.17731183,12.11325 C5.48333333,11.89725 4.79989247,11.65125 4.12698925,11.37375 C3.45408602,11.09775 2.85043011,10.73625 2.31602151,10.29375 C1.7816129,9.84975 1.35107527,9.30225 1.0244086,8.65125 C0.697741935,8.00025 0.533655914,7.20075 0.533655914,6.25425 C0.533655914,5.24775 0.73688172,4.38075 1.14333333,3.65025 C1.54978495,2.92125 2.07967742,2.31825 2.73150538,1.84575 C3.38483871,1.37175 4.10741935,1.02675 4.90075269,0.80925 C5.69107527,0.59325 6.47387097,0.48375 7.24612903,0.48375 C8.67172043,0.48375 9.88956989,0.73425 10.898172,1.23825 C11.9082796,1.74225 12.67,2.33925 13.1863441,3.02925 L11.4927957,4.38975 Z" id="Fill-1" fill="#231815" mask="url(#mask-2)"></path>
                </g>
                <polygon id="Fill-3" fill="#231815" points="20.1943226 21.08955 31.4485161 21.08955 31.4485161 22.98405 18.0551828 22.98405 18.0551828 2.03205 31.0932473 2.03205 31.0932473 3.92655 20.1943226 3.92655 20.1943226 11.11755 30.3796989 11.11755 30.3796989 13.01055 20.1943226 13.01055"></polygon>
                <polygon id="Fill-5" fill="#231815" points="50.5443656 19.87665 50.6030753 19.87665 50.6030753 2.03265 52.7407097 2.03265 52.7407097 22.98315 50.0686667 22.98315 37.8344731 4.96215 37.7742581 4.96215 37.7742581 22.98315 35.6366237 22.98315 35.6366237 2.03265 38.3086667 2.03265"></polygon>
                <g transform="translate(55.698925, 1.015800)">
                    <mask id="mask-4" fill="white">
                        <use xlink:href="#path-3"></use>
                    </mask>
                    <g id="Clip-8"></g>
                    <path d="M12.8115054,4.38975 C12.3553763,3.75825 11.7727957,3.25125 11.0592473,2.86575 C10.3472043,2.48175 9.48612903,2.28975 8.47602151,2.28975 C7.9611828,2.28975 7.43731183,2.36775 6.90139785,2.52675 C6.36698925,2.68425 5.88225806,2.92425 5.4472043,3.25125 C5.01064516,3.57675 4.65989247,3.98475 4.39193548,4.47975 C4.12397849,4.97325 3.99150538,5.55375 3.99150538,6.22575 C3.99150538,6.89625 4.11946237,7.44825 4.37537634,7.88175 C4.6327957,8.31525 4.97301075,8.68575 5.39752688,8.99175 C5.82204301,9.29625 6.30677419,9.54825 6.85021505,9.74625 C7.39215054,9.94275 7.95967742,10.14075 8.55129032,10.33875 C9.28290323,10.57425 10.0175269,10.83075 10.758172,11.10825 C11.4988172,11.38425 12.1656989,11.74275 12.7573118,12.18675 C13.3489247,12.63075 13.8336559,13.19325 14.2084946,13.87425 C14.5833333,14.55375 14.7715054,15.41925 14.7715054,16.46325 C14.7715054,17.50875 14.5712903,18.41175 14.1708602,19.17075 C13.7704301,19.92975 13.2510753,20.55675 12.6112903,21.04875 C11.9715054,21.54375 11.2429032,21.90825 10.4209677,22.14525 C9.59903226,22.38075 8.77258065,22.49925 7.9416129,22.49925 C7.30784946,22.49925 6.67408602,22.43475 6.04032258,22.30725 C5.40655914,22.17825 4.80290323,21.98625 4.22935484,21.73125 C3.65430108,21.47475 3.11989247,21.14925 2.62462366,20.75325 C2.12935484,20.35875 1.69430108,19.90725 1.31946237,19.39275 L3.15903226,18.03225 C3.61516129,18.78225 4.25344086,19.40775 5.07537634,19.91175 C5.89580645,20.41425 6.86225806,20.66625 7.97021505,20.66625 C8.50612903,20.66625 9.04956989,20.58225 9.60354839,20.41425 C10.1590323,20.24625 10.6588172,19.98825 11.1044086,19.64475 C11.55,19.29825 11.9158065,18.87525 12.2033333,18.37125 C12.4893548,17.86875 12.6323656,17.28225 12.6323656,16.61025 C12.6323656,15.88125 12.4893548,15.27525 12.2033333,14.79225 C11.9158065,14.30775 11.5349462,13.90425 11.0592473,13.57725 C10.5850538,13.25175 10.0401075,12.98325 9.42591398,12.76425 C8.81172043,12.54675 8.16892473,12.33075 7.49602151,12.11325 C6.80204301,11.89725 6.11860215,11.65125 5.4472043,11.37375 C4.7727957,11.09775 4.16913978,10.73625 3.63473118,10.29375 C3.10032258,9.84975 2.66978495,9.30225 2.34311828,8.65125 C2.01645161,8.00025 1.85387097,7.20075 1.85387097,6.25425 C1.85387097,5.24775 2.0555914,4.38075 2.46204301,3.65025 C2.86849462,2.92125 3.39688172,2.31825 4.05021505,1.84575 C4.70354839,1.37175 5.42612903,1.02675 6.21946237,0.80925 C7.00978495,0.59325 7.79258065,0.48375 8.56483871,0.48375 C9.99043011,0.48375 11.2082796,0.73425 12.2168817,1.23825 C13.2269892,1.74225 13.9887097,2.33925 14.5050538,3.02925 L12.8115054,4.38975 Z" id="Fill-7" fill="#231815" mask="url(#mask-4)"></path>
                </g>
                <g transform="translate(73.763441, 1.015800)">
                    <mask id="mask-6" fill="white">
                        <use xlink:href="#path-5"></use>
                    </mask>
                    <g id="Clip-10"></g>
                    <path d="M19.8414624,11.5074 C19.8414624,10.2864 19.6427527,9.1239 19.2468387,8.0214 C18.8509247,6.9174 18.275871,5.9484 17.5246882,5.1099 C16.772,4.2744 15.8567312,3.6084 14.7773763,3.1164 C13.6980215,2.6244 12.4861935,2.3784 11.1403871,2.3784 C9.79307527,2.3784 8.58124731,2.6244 7.50189247,3.1164 C6.42253763,3.6084 5.50726882,4.2744 4.75458065,5.1099 C4.00339785,5.9484 3.42834409,6.9174 3.03243011,8.0214 C2.63651613,9.1239 2.43780645,10.2864 2.43780645,11.5074 C2.43780645,12.7269 2.63651613,13.8909 3.03243011,14.9919 C3.42834409,16.0959 4.00339785,17.0604 4.75458065,17.8884 C5.50726882,18.7164 6.42253763,19.3749 7.50189247,19.8669 C8.58124731,20.3604 9.79307527,20.6049 11.1403871,20.6049 C12.4861935,20.6049 13.6980215,20.3604 14.7773763,19.8669 C15.8567312,19.3749 16.772,18.7164 17.5246882,17.8884 C18.275871,17.0604 18.8509247,16.0959 19.2468387,14.9919 C19.6427527,13.8909 19.8414624,12.7269 19.8414624,11.5074 M22.0980215,11.4924 C22.0980215,13.0899 21.8210323,14.5599 21.2670538,15.9009 C20.7130753,17.2419 19.9453333,18.4029 18.963828,19.3779 C17.9853333,20.3544 16.8276989,21.1194 15.4909247,21.6714 C14.1541505,22.2234 12.7029677,22.4994 11.1403871,22.4994 C9.57630108,22.4994 8.12511828,22.2234 6.78984946,21.6714 C5.45307527,21.1194 4.29393548,20.3544 3.31393548,19.3779 C2.33544086,18.4029 1.56769892,17.2419 1.01372043,15.9009 C0.459741935,14.5599 0.181247312,13.0899 0.181247312,11.4924 C0.181247312,9.8949 0.459741935,8.4234 1.01372043,7.0839 C1.56769892,5.7414 2.33544086,4.5834 3.31393548,3.6054 C4.29393548,2.6289 5.45307527,1.8654 6.78984946,1.3119 C8.12511828,0.7614 9.57630108,0.4839 11.1403871,0.4839 C12.7029677,0.4839 14.1541505,0.7614 15.4909247,1.3119 C16.8276989,1.8654 17.9853333,2.6289 18.963828,3.6054 C19.9453333,4.5834 20.7130753,5.7414 21.2670538,7.0839 C21.8210323,8.4234 22.0980215,9.8949 22.0980215,11.4924" id="Fill-9" fill="#231815" mask="url(#mask-6)"></path>
                </g>
                <path d="M102.454108,11.35425 L106.166366,11.35425 C107.888516,11.35425 109.214753,11.04225 110.145075,10.42125 C111.076903,9.80025 111.540559,8.86875 111.540559,7.62675 C111.540559,6.93525 111.412602,6.35325 111.155183,5.88075 C110.897763,5.40525 110.540989,5.02125 110.086366,4.72425 C109.630237,4.43025 109.076258,4.21275 108.422925,4.07325 C107.769591,3.93675 107.047011,3.86775 106.255183,3.86775 L102.454108,3.86775 L102.454108,11.35425 Z M102.454108,22.98375 L100.316473,22.98375 L100.316473,2.03175 L106.493032,2.03175 C107.52271,2.03175 108.477118,2.13225 109.357763,2.32725 C110.238409,2.52525 111.001634,2.84625 111.64443,3.29025 C112.288731,3.73425 112.788516,4.31175 113.14529,5.02125 C113.502065,5.73075 113.679699,6.59925 113.679699,7.62675 C113.679699,8.39325 113.539699,9.09525 113.264215,9.72525 C112.98572,10.35825 112.610882,10.90575 112.135183,11.36925 C111.659484,11.83125 111.094968,12.20175 110.44314,12.47775 C109.789806,12.75525 109.076258,12.93225 108.304,13.01025 L114.451957,22.98375 L111.838624,22.98375 L106.017333,13.18875 L102.454108,13.18875 L102.454108,22.98375 Z" id="Fill-11" fill="#231815"></path>
                <g transform="translate(115.913978, 1.015800)">
                    <mask id="mask-8" fill="white">
                        <use xlink:href="#path-7"></use>
                    </mask>
                    <g id="Clip-14"></g>
                    <path d="M20.7213548,11.5074 C20.7213548,10.2864 20.5226452,9.1239 20.1267312,8.0214 C19.7308172,6.9174 19.1572688,5.9484 18.4045806,5.1099 C17.6518925,4.2744 16.7366237,3.6084 15.6572688,3.1164 C14.577914,2.6244 13.366086,2.3784 12.0202796,2.3784 C10.6729677,2.3784 9.46113978,2.6244 8.38178495,3.1164 C7.30243011,3.6084 6.38716129,4.2744 5.63597849,5.1099 C4.88329032,5.9484 4.30823656,6.9174 3.91232258,8.0214 C3.5164086,9.1239 3.3192043,10.2864 3.3192043,11.5074 C3.3192043,12.7269 3.5164086,13.8909 3.91232258,14.9919 C4.30823656,16.0959 4.88329032,17.0604 5.63597849,17.8884 C6.38716129,18.7164 7.30243011,19.3749 8.38178495,19.8669 C9.46113978,20.3604 10.6729677,20.6049 12.0202796,20.6049 C13.366086,20.6049 14.577914,20.3604 15.6572688,19.8669 C16.7366237,19.3749 17.6518925,18.7164 18.4045806,17.8884 C19.1572688,17.0604 19.7308172,16.0959 20.1267312,14.9919 C20.5226452,13.8909 20.7213548,12.7269 20.7213548,11.5074 M22.9794194,11.4924 C22.9794194,13.0899 22.7009247,14.5599 22.1469462,15.9009 C21.5929677,17.2419 20.8252258,18.4029 19.8452258,19.3779 C18.8652258,20.3544 17.7075914,21.1194 16.3708172,21.6714 C15.034043,22.2234 13.5828602,22.4994 12.0202796,22.4994 C10.4561935,22.4994 9.00651613,22.2234 7.66974194,21.6714 C6.33296774,21.1194 5.17533333,20.3544 4.19382796,19.3779 C3.21533333,18.4029 2.4475914,17.2419 1.8936129,15.9009 C1.33963441,14.5599 1.06113978,13.0899 1.06113978,11.4924 C1.06113978,9.8949 1.33963441,8.4234 1.8936129,7.0839 C2.4475914,5.7414 3.21533333,4.5834 4.19382796,3.6054 C5.17533333,2.6289 6.33296774,1.8654 7.66974194,1.3119 C9.00651613,0.7614 10.4561935,0.4839 12.0202796,0.4839 C13.5828602,0.4839 15.034043,0.7614 16.3708172,1.3119 C17.7075914,1.8654 18.8652258,2.6289 19.8452258,3.6054 C20.8252258,4.5834 21.5929677,5.7414 22.1469462,7.0839 C22.7009247,8.4234 22.9794194,9.8949 22.9794194,11.4924" id="Fill-13" fill="#231815" mask="url(#mask-8)"></path>
                </g>
            </g>
        </g>
    </g>
</svg>