<?xml version="1.0" encoding="UTF-8"?>
<svg width="232px" height="60px" viewBox="0 0 232 60" version="1.1" xmlns="http://www.w3.org/2000/svg" xmlns:xlink="http://www.w3.org/1999/xlink">
    <!-- Generator: Sketch 53.2 (72643) - https://sketchapp.com -->
    <title>15.四川航空</title>
    <desc>Created with Sketch.</desc>
    <defs>
        <polygon id="path-1" points="0.000284684685 0.894564091 38.9636541 0.894564091 38.9636541 40.0060606 0.000284684685 40.0060606"></polygon>
    </defs>
    <g id="15.四川航空" stroke="none" stroke-width="1" fill="none" fill-rule="evenodd">
        <g id="15" transform="translate(0.000000, -25.000000)">
            <rect id="矩形复制-20" x="0" y="0" width="232" height="110"></rect>
            <g id="编组" transform="translate(37.000000, 35.000000)">
                <path d="M7.45133694,9.45900439 C9.95656216,10.2105468 10.1131387,13.563912 12.5756613,14.7269453 C14.8275171,15.7856771 16.9996613,16.0071392 17.7213369,16.3914832 C18.306364,16.6943862 18.6237874,17.1358817 18.6849946,17.4473574 C18.407427,17.4387847 17.5491027,17.3816332 16.9640757,17.9345741 C16.8687063,18.0231589 16.3818955,17.9988695 16.3804721,18.1074574 C16.3762018,18.2403347 16.7505622,18.2089014 17.0651387,18.420362 C17.6530126,18.8232802 18.8159495,19.0990362 19.5532829,19.0790332 C20.5325982,19.0547438 21.2628144,18.6275362 21.4564,18.5689559 C21.8250667,18.4575105 22.1595712,18.4389362 22.6321477,18.7947044 C22.6321477,18.7947044 22.6534991,18.8075635 22.6663099,18.8089923 C22.6762739,18.8089923 22.6862378,18.8047059 22.6947784,18.7947044 L23.221445,18.5232347 C23.3908324,17.9760089 20.5397153,17.9345741 21.651409,17.1744589 C22.7958414,16.3914832 24.3943459,13.3967438 27.4888685,12.3908771 C27.4888685,12.3908771 29.3179676,12.0693998 30.6431748,12.9809665 L30.6445982,12.9809665 C30.6559856,12.9923968 30.6659495,12.9995408 30.6816072,12.9995408 C30.6929946,12.9995408 30.7200396,12.9895392 30.7200396,12.9895392 C31.0047243,12.8809514 32.5448685,12.1622711 32.4466523,9.87192409 C32.4466523,9.84477712 32.4281477,9.82477409 32.4039495,9.82477409 C32.395409,9.82191652 32.3769045,9.83334682 32.3769045,9.83334682 C31.894364,10.1062453 30.2104541,11.7379211 26.9536613,11.7379211 L26.7956613,11.7264908 C21.6257874,11.7193468 19.439409,16.3514771 19.439409,16.3514771 C14.3848324,14.4183271 13.2418234,10.3519968 10.7650667,9.21182409 C9.93094054,8.82748015 8.21998559,9.24182864 7.48265225,9.33327106 L7.48122883,9.33041348 C7.47268829,9.33041348 7.46699459,9.33327106 7.45703063,9.33612864 L7.45418378,9.33612864 L7.45418378,9.33755742 C7.43283243,9.34898773 7.4185982,9.37041955 7.4185982,9.39613773 C7.4185982,9.42185591 7.42998559,9.44328773 7.45133694,9.45614682 L7.45133694,9.45900439 Z" id="Fill-1" fill="#D7000F"></path>
                <g transform="translate(0.000000, 0.534795)">
                    <mask id="mask-2" fill="white">
                        <use xlink:href="#path-1"></use>
                    </mask>
                    <g id="Clip-4"></g>
                    <path d="M31.5049153,34.1624611 C30.2323748,33.8695595 27.1535099,33.8324111 24.9315459,33.8281247 C21.1381225,33.8281247 17.8628252,32.6250853 17.2336721,29.764652 C16.9760324,28.5959035 17.4557261,27.3114232 17.1254919,27.2085505 C16.7283568,27.0856747 15.9682486,28.5016035 15.2067171,29.5060414 C12.1890595,33.5066474 9.05041081,34.216755 7.33803243,34.055302 C6.8070955,33.5752292 6.30035676,33.0665808 5.8292036,32.5264989 C7.80064505,32.4707762 11.7421045,31.7992459 14.7241766,28.8087929 C15.3832216,28.1472641 18.2613838,24.6381611 18.5417982,24.9539232 C18.6570955,25.0868005 17.8656721,26.315558 17.6564288,27.6200414 C16.8892036,32.3950505 22.2426991,32.7979686 25.8240324,32.7165277 C29.0950595,32.6422308 31.6970775,31.8964035 33.0521766,32.6207989 C32.5667892,33.1665959 32.0486631,33.6809595 31.5049153,34.1624611 M10.2973297,36.2256308 C11.7876541,35.3569277 13.9128252,33.7438262 15.2152577,31.0034111 C15.7618523,29.8489505 16.1732216,29.0674035 16.6657261,28.1258323 C16.668573,28.1201171 16.6714198,28.1158308 16.6771135,28.107258 C16.7070054,28.0629656 16.7340505,28.0372474 16.752555,28.0429626 C16.769636,28.0486777 16.7767532,28.0801111 16.7724829,28.1244035 C16.7767532,28.1401202 16.7781766,28.1515505 16.7767532,28.161552 C16.7070054,28.767358 16.2728613,31.3691808 18.0649514,33.1737398 C20.6399243,35.7684186 26.1613838,36.1856247 27.6374739,36.7857156 C25.1820685,38.0259035 22.4135099,38.7260095 19.4812577,38.7260095 C16.1347892,38.7260095 12.997564,37.8158717 10.2973297,36.2256308 M19.4812577,2.17475803 C28.666609,2.17475803 36.2847712,9.03579742 37.514609,17.922858 C35.1986991,17.9728656 29.5434378,23.015058 25.6574919,25.7040368 C23.4938883,27.2014065 19.8015279,28.2829989 21.2847351,24.7253171 C21.7786631,23.5451383 22.4049694,22.4035368 21.8341766,21.7105747 C21.1523568,20.8890217 19.6477982,21.4519641 19.5211135,21.4948277 C7.93444685,25.372558 3.60296937,20.7432853 1.76248288,16.2397459 C3.66132973,8.18281106 10.8852036,2.17475803 19.4812577,2.17475803 M30.3049694,26.6941868 C29.1192577,27.3185671 21.593618,31.1205717 19.8399604,27.737202 C18.7368072,25.6040217 21.2235279,23.4765565 20.6726631,22.7464459 C20.2954559,22.2449414 19.1496,22.8664641 18.016555,23.4008308 C14.4878883,25.0667974 9.16997838,28.8030777 1.56035676,23.6923035 C1.4294018,22.9550489 1.34114955,22.2006489 1.30129369,21.4348186 C3.20156396,23.1850838 5.52459099,24.3652626 8.78138378,24.7710383 C14.0679784,25.4282808 20.1673477,20.9104535 21.3559063,22.0277656 C21.8057081,22.4535444 20.7737261,24.1009368 20.4805009,24.8781974 C18.9987171,28.8087929 22.9102847,28.7645005 25.6774198,27.5243126 C31.863618,24.7553217 34.986609,20.8890217 37.6398703,21.8091611 C37.588627,22.5192686 37.4932577,23.2165171 37.3651495,23.8980489 C35.2599063,23.4965595 33.1945189,25.1710989 30.3049694,26.6941868 M35.2954919,29.501755 C33.8250955,28.8302247 29.8779423,30.2432959 25.7258162,31.0005535 C19.976609,32.0464262 17.4756541,29.8003717 18.4791676,26.275552 C18.6770234,25.5840186 19.4086631,24.551005 19.0442667,24.2966808 C18.6770234,24.0409277 17.4528793,25.2668277 17.2294018,25.4554277 C15.3917622,27.0242368 14.9505009,27.3985792 13.0046811,28.5873308 C10.0041045,30.4290383 5.74237477,30.3004474 3.83783423,29.7903702 C3.43927568,29.124555 3.08484324,28.4287353 2.77311351,27.7114838 C7.29532973,28.6016186 11.175582,29.5517626 17.2507532,24.7738959 C17.8343568,24.3109686 19.9566811,22.7364444 20.1673477,23.1879414 C20.2854919,23.4408368 19.6378342,24.1623747 19.1268252,25.5311535 C17.7674559,29.1745626 20.1360324,31.2377323 25.8553477,30.0989883 C29.903564,29.293152 34.4243568,26.8170626 36.344555,27.3471429 C36.0413658,28.0901126 35.6883568,28.8116505 35.2954919,29.501755 M19.4812577,0.894564091 C8.73868108,0.894564091 0.000284684685,9.66589288 0.000284684685,20.4503838 C0.000284684685,31.2348747 8.73868108,40.0062035 19.4812577,40.0062035 C30.2238342,40.0062035 38.9636541,31.2348747 38.9636541,20.4503838 C38.9636541,9.66589288 30.2238342,0.894564091 19.4812577,0.894564091" id="Fill-3" fill="#D7000F" mask="url(#mask-2)"></path>
                </g>
                <path d="M68.9608793,17.2573286 L68.3431135,18.4303635 L67.7950955,19.2562029 L67.3139784,19.6691226 L66.6278883,20.0177468 L65.9403748,20.2234923 L65.0464649,20.7735756 L64.7731676,21.0464741 L64.2920505,21.2536483 L64.0173297,20.9107392 L63.9490054,20.8421574 L63.537636,20.4992483 L63.0579423,20.4306665 L62.5739784,20.2234923 L61.8893117,20.2906453 L61.1334739,20.4992483 L60.3078883,20.8421574 C60.1740865,20.8421574 60.4473838,20.5664014 60.1043387,20.703565 C59.6929694,20.7735756 62.2337802,17.3959211 63.537636,16.291468 C63.6742847,16.1557332 63.7468793,16.0885802 63.8123568,16.0199983 C63.8806811,16.0199983 63.8806811,15.9471302 63.9490054,15.9471302 C64.6350955,15.1212908 64.2237261,13.328162 64.2237261,13.328162 L63.9490054,12.7780786 L63.537636,12.0894029 L62.7817982,10.7106226 L61.8893117,9.95193621 L61.2701225,10.1591105 L60.5171315,10.4362953 L58.8004829,11.5378908 L57.8382486,11.7464938 L57.6332757,10.7106226 L57.7030234,9.3989953 C57.7030234,9.3989953 60.9299243,7.40297864 63.1262667,7.47013167 C63.194591,7.47013167 63.3312396,7.54014227 63.537636,7.6787347 C63.6742847,7.74731652 63.8123568,7.81589833 63.9490054,7.81589833 C64.0870775,7.95449076 64.2237261,7.95449076 64.2237261,7.95449076 L65.1190595,8.43456348 L66.0784468,9.05465742 L66.8300144,9.60759833 L67.7950955,10.3677135 C69.8519423,11.812218 69.6498162,16.0199983 68.9608793,17.2573286 L68.9608793,17.2573286 Z M71.0219964,13.7439392 L70.8853477,12.8480892 L70.6789514,12.0193923 L70.1992577,10.9177968 L69.783618,9.95193621 L69.1686991,9.26468924 L68.5523568,8.64316652 L68.0000685,7.95449076 L67.3794559,7.47013167 L66.4214919,6.98720136 L65.7354018,6.64429227 L64.6350955,6.228515 L63.9490054,6.09278015 L63.537636,6.02419833 L63.4693117,6.02419833 L62.7120505,5.95275894 L61.7512396,5.8870347 L61.2017982,6.09278015 L59.829618,6.09278015 L59.1449514,6.36710742 L58.3207892,6.64429227 L57.4283027,6.77859833 L56.7393658,7.19866197 L55.8483027,7.47013167 L55.1579423,7.6787347 L54.5430234,7.74731652 L53.8583568,7.88305136 L53.240591,7.88305136 L52.4819063,7.88305136 L51.9353117,7.95449076 L51.2463748,8.02164379 L50.5617081,8.09022561 L49.8044468,8.43456348 L49.4642486,9.47186348 L49.1866811,10.1591105 L48.9788613,10.9849498 L48.9119604,12.0193923 L48.7069874,12.708068 L48.7069874,13.328162 L48.7069874,13.9496847 L48.7069874,14.8469635 L48.843636,15.4656286 L49.1866811,16.4300605 L49.2550054,17.3244817 L49.4642486,18.4303635 L49.8741946,19.2562029 L49.9425189,20.0177468 L50.1474919,20.5664014 L50.5617081,21.2536483 L51.0414018,21.7351498 L51.3830234,22.0823453 L51.5879964,22.6324286 L51.5879964,22.9767665 L51.7274919,23.2539514 L52.0022126,23.5968605 L52.413582,24.0140665 L52.8946991,24.1483726 L53.4441405,23.9426271 L53.7188613,23.5311362 L53.9950054,23.1167877 L54.1971315,22.6324286 L54.3380505,22.0151923 L54.1971315,20.9107392 L54.1971315,20.4992483 L53.8583568,19.3933665 L53.5807892,18.7747014 L53.240591,17.9460044 L53.1679964,17.3244817 L52.8263748,16.6358059 L52.5516541,15.8785483 L52.4819063,14.7769529 L52.1402847,14.0182665 L52.1402847,13.328162 L52.1402847,12.5037514 L52.5516541,12.0193923 L53.0982486,11.7464938 L53.6491135,11.3992983 L54.3380505,10.849215 L55.1579423,10.5020195 L55.778555,10.1591105 L55.9152036,10.6391832 L55.778555,11.3307165 L55.7102306,11.8836574 L55.6419063,12.5037514 L55.3671856,12.9180998 L55.0241405,13.328162 L54.8163207,13.7439392 L54.8163207,14.1540014 L54.884645,14.7083711 L55.0241405,15.5327817 L55.2291135,16.0199983 L55.5038342,16.5014998 L56.0532757,16.9844302 L56.5998703,17.2573286 L56.948609,16.9844302 L57.2902306,16.5014998 L57.6332757,16.0199983 L57.8382486,15.5327817 L57.9763207,14.7083711 L58.3207892,14.1540014 L58.5257622,13.7439392 L58.8659604,12.9866817 L59.4168252,12.5037514 L60.0374378,12.4351695 L60.3078883,12.9180998 L60.5883027,13.1224165 L60.9299243,13.469612 L61.0679964,14.0182665 L61.0679964,14.5011968 L61.0679964,14.9141165 L61.0679964,15.3999044 L60.9299243,15.8099665 L60.7904288,16.3629074 L60.5883027,16.7758271 L60.1740865,17.1901756 L59.4168252,17.9460044 C59.4168252,17.9460044 58.5940865,18.7747014 58.1129694,19.0504574 C57.7030234,19.2562029 57.2902306,19.8762968 57.2902306,19.8762968 L56.7393658,20.2906453 L56.464645,20.703565 L56.1899243,21.0464741 L55.9152036,21.4622514 L55.7102306,22.0151923 L55.5038342,22.7710211 L55.8483027,23.5311362 L56.1899243,23.8068923 L56.8802847,24.0140665 L57.2902306,24.2898226 L57.7699243,24.6341605 L58.5257622,24.8399059 L59.0068793,25.0456514 L59.6232216,24.9784983 L60.4473838,24.8399059 L61.1334739,24.5641498 L61.7512396,24.1483726 L62.5070775,23.7354529 L63.3312396,23.2539514 L63.537636,23.391115 L63.9490054,23.6682998 L64.7062667,23.7354529 L65.4592577,23.6682998 L66.1453477,23.2539514 L66.7659604,22.7710211 L67.4492036,22.2880908 L68.0698162,21.7351498 L68.9608793,21.2536483 L69.3067712,20.9107392 L69.9914378,20.4992483 L70.4042306,20.0848998 L70.610627,19.4633771 L70.8156,18.8432832 L71.0903207,18.2931998 L71.2283928,17.5345135 L71.2283928,16.7086741 L71.2283928,16.0885802 L71.2283928,15.3999044 L71.158645,14.6397892 L71.0219964,13.7439392 Z" id="Fill-5" fill="#D7000F"></path>
                <path d="M85.0660613,6.78845697 C85.0005838,6.51698727 84.7998811,6.38125242 84.7998811,6.38125242 C84.7998811,6.38125242 84.8653586,6.38125242 84.4668,6.17979333 C84.1308721,6.04548727 84.1308721,6.04548727 83.7266198,6.31409939 C83.3294847,6.51698727 82.5921514,7.99578273 82.7245297,8.06150697 C82.6618991,8.06150697 82.4583495,9.47314939 82.6618991,10.883363 C82.7900072,12.1578418 82.5921514,13.4323206 82.5921514,13.8380964 C82.6618991,14.5724933 82.3928721,16.2527479 82.2590703,17.0571555 C82.1252685,17.7972676 80.9196288,21.3563782 80.8527279,21.3563782 C80.7886739,21.4206736 80.385845,21.8936024 80.0513405,22.8323161 C79.8492144,24.5111418 81.3210342,25.1841009 81.5217369,25.2498252 C81.6555387,25.2498252 81.790764,25.2498252 81.8576649,25.1841009 C81.9188721,25.1841009 82.7245297,23.3038161 83.0576108,22.2965206 C83.0576108,22.1607858 84.0639712,19.8118585 84.197773,19.0717464 C84.5963315,18.4002161 84.2632505,16.6542373 85.0660613,15.6483706 C85.3336649,15.3111767 85.3336649,13.3651676 85.4034126,13.3008721 C85.2681874,13.1651373 85.1998631,10.5461691 85.4034126,9.94179182 C85.6695928,9.33598576 85.4034126,10.1461085 85.7379171,9.27026152 C86.0681514,8.39727212 86.0055207,8.19581303 85.8674486,7.86004788 C85.6695928,7.59143576 85.1998631,6.98705848 85.0660613,6.78845697" id="Fill-7" fill="#D7000F"></path>
                <path d="M91.4207928,8.25210727 C90.7546306,8.11780121 90.4856036,8.78933152 90.2863243,8.92649515 C90.087045,9.05651485 89.8849189,10.2009739 89.8849189,10.2009739 C89.8849189,10.2009739 89.818018,12.2812891 89.818018,12.6842073 C89.7454234,13.2200027 89.5475676,14.3601755 89.3468649,14.5644921 C89.0806847,14.7659512 89.1475856,14.9659815 89.1475856,14.9659815 L89.3468649,15.9046952 L89.3468649,17.7892664 C89.3468649,17.7892664 89.2159099,18.5908164 89.5475676,18.9308679 C89.8849189,19.3294997 90.4856036,19.0608876 90.4856036,19.0608876 L90.9524865,18.0564497 C90.9524865,18.0564497 91.2200901,17.6521027 91.2884144,17.3163376 C91.2200901,16.7162467 91.5574414,14.8988285 91.5574414,14.8988285 C91.5574414,14.8988285 92.0229009,13.4886148 92.2905045,11.8783709 C92.5595315,10.268127 92.2236036,9.05651485 92.2236036,9.05651485 C92.2236036,8.98936182 92.0912252,8.45642394 91.4207928,8.25210727" id="Fill-9" fill="#D7000F"></path>
                <path d="M97.3751153,15.5802174 C97.1089351,14.1700038 97.5743946,12.1568417 97.5743946,12.1568417 C97.5743946,12.1568417 98.0412775,10.9495159 97.9088991,10.3451386 C97.844845,9.80648561 97.844845,7.25752803 97.844845,7.25752803 C97.9088991,7.25752803 98.3103045,5.78016136 97.4420162,4.7742947 C96.5054036,3.76271288 95.2328631,5.31009015 95.2328631,5.31009015 L95.2328631,6.98605833 L95.3695117,9.47357803 L95.3695117,11.4853114 L94.963836,15.0429932 L94.2962505,20.3495114 C94.2962505,20.3495114 94.3617279,23.032775 94.4983766,24.3744068 C94.6293315,25.7217538 95.299764,26.258978 95.5033135,26.7962023 C95.7025928,27.2634159 96.2392234,27.3319977 96.2392234,27.3319977 C96.2392234,27.3319977 96.7715838,26.6604674 97.4420162,25.5174371 C98.1765027,24.4444174 98.2419802,21.4211023 97.9786468,20.5509705 C97.7081964,19.6751235 97.5743946,16.9890023 97.3751153,15.5802174" id="Fill-11" fill="#D7000F"></path>
                <path d="M116.706059,14.6397892 C116.706059,14.6397892 115.278366,14.9198317 115.093321,15.2527392 C115.02642,15.3098908 114.962366,15.3670423 114.904005,15.3670423 C114.838528,15.4213362 114.717537,15.4213362 114.595123,15.4213362 C114.467014,15.4770589 114.277699,15.4770589 114.155285,15.4770589 C113.71687,15.4770589 113.348204,15.4213362 113.348204,15.4213362 C113.348204,15.4213362 112.851429,15.2527392 112.790222,14.5854953 C112.662114,13.8639574 112.536852,12.9681074 112.536852,12.9681074 L112.599483,10.6834756 C112.599483,10.6834756 112.599483,9.67903773 113.406564,9.623315 C113.657086,9.56902106 113.909032,9.56902106 114.155285,9.56902106 L114.595123,9.56902106 L114.904005,9.56902106 C115.212888,9.623315 115.461987,9.73618924 115.652726,9.8476347 C115.900402,10.236265 116.209285,10.6834756 116.518168,11.7993589 C116.76869,12.9109559 116.706059,14.6397892 116.706059,14.6397892 M128.527591,23.3611105 C128.527591,23.3611105 127.969609,24.0826483 127.037267,23.6368665 C126.104924,23.1367908 125.97824,20.9421726 125.796041,19.7119862 C125.602456,18.4332211 126.476438,15.3799014 126.476438,15.3799014 C126.476438,15.3799014 126.847951,13.2052862 126.847951,12.9252438 C126.847951,12.6452014 125.602456,12.4766044 125.353357,12.4237392 C125.294996,12.3665877 124.796798,12.4237392 124.2986,12.4766044 L123.985447,12.4766044 C123.178366,12.5337559 122.308654,12.5880498 122.120762,12.6452014 C121.931447,12.7009241 121.747825,12.6452014 121.559933,12.6452014 C121.376312,12.5880498 121.124366,12.5337559 120.811213,12.5880498 C120.254654,12.5880498 120.189177,13.0909832 120.189177,13.0909832 L120.56496,14.0954211 L120.56496,15.2655983 C120.56496,15.2655983 120.56496,16.1457317 119.755032,19.4333726 C119.009159,22.7824514 117.76651,23.2268044 117.76651,23.2268044 L117.950132,17.4859347 L119.817663,16.2628923 L119.755032,15.8128241 L118.200654,14.9769832 C118.200654,14.9769832 118.387123,14.1511438 118.636222,11.8650832 C118.946528,9.52187106 118.260438,9.39042258 118.139447,9.05465742 C118.015609,8.77604379 116.643429,8.33169076 116.458384,8.161665 C116.270492,8.05450591 116.02424,7.10436197 115.961609,6.26852106 C115.900402,5.43410894 115.278366,5.04119227 115.093321,4.98546955 L114.904005,4.98546955 C114.838528,4.92974682 114.717537,4.92974682 114.595123,4.92974682 C114.467014,4.87402409 114.277699,4.92974682 114.155285,4.98546955 C113.909032,5.09834379 113.594456,5.43410894 113.473465,6.09992409 C113.03505,8.2202453 110.860059,9.27897712 110.797429,9.27897712 C110.672168,9.27897712 110.487123,10.0605241 110.487123,10.0605241 C110.487123,10.0605241 110.860059,12.7466453 111.046528,13.2467211 C111.232996,13.752512 110.860059,15.0298483 110.860059,15.0298483 C110.860059,15.0298483 109.240204,15.4213362 108.929897,15.7556726 C108.619591,16.0914377 109.177573,16.6500938 109.177573,16.6500938 L110.361861,17.3159089 C110.361861,17.3159089 111.232996,17.6516741 111.107735,18.3760695 C111.295627,22.4452574 108.118546,26.5830271 108.118546,26.5830271 L108.492906,26.9173635 C108.492906,26.9173635 108.245231,27.0831029 109.366888,26.5244468 C110.421645,26.0272286 111.792402,23.6282938 112.350384,22.2352256 C112.851429,20.8421574 113.221519,20.3277938 113.221519,20.3277938 L114.155285,20.7178529 L114.595123,20.9421726 L114.717537,20.9950377 C114.717537,20.9950377 114.778744,20.9421726 114.904005,20.8864498 C115.093321,20.7178529 115.339573,20.3277938 115.093321,19.3805074 C115.02642,19.1576165 114.962366,18.9347256 114.904005,18.7661286 C114.838528,18.6546832 114.717537,18.4860862 114.595123,18.3760695 C114.467014,18.2060438 114.277699,18.1517498 114.155285,18.0974559 C113.71687,17.9302877 113.28415,17.9831529 113.158888,17.8188423 C112.790222,17.4259256 112.973843,16.7586817 112.973843,16.7586817 L114.155285,16.8715559 L114.595123,16.9258498 L114.904005,16.9258498 L115.772294,16.9844302 C115.837771,16.9844302 116.209285,18.043162 116.270492,18.3760695 C116.458384,18.8232802 116.458384,22.1209226 116.02424,22.9596211 C115.772294,23.2925286 115.339573,23.5711423 114.904005,23.7383105 C114.778744,23.7940332 114.717537,23.7940332 114.595123,23.8511847 C114.467014,23.9026211 114.277699,23.9612014 114.155285,24.0197817 C113.97024,24.0726468 113.846402,24.0726468 113.846402,24.0726468 L113.909032,25.5228665 C113.909032,25.5228665 113.846402,25.9700771 114.155285,26.4144302 C114.217915,26.5830271 114.40296,26.7516241 114.595123,26.8616408 C114.717537,26.8616408 114.778744,26.9173635 114.904005,26.9173635 C115.151681,27.0259514 115.40078,27.0259514 115.772294,26.974515 C117.205681,26.3029847 117.826294,23.9526286 117.826294,23.9526286 C117.76651,23.6725862 118.387123,24.3941241 118.883897,24.6755953 C119.13442,24.7298892 120.688798,23.6811589 121.433249,21.8966029 C121.559933,21.6208468 121.685195,20.9421726 121.747825,20.5506847 C122.246023,18.1517498 122.368438,15.9928514 122.368438,14.9326908 C122.431068,13.8696726 124.112132,14.1511438 124.112132,14.1511438 L124.361231,14.3726059 C124.361231,14.3726059 124.361231,14.4883377 124.421014,14.6526483 L124.421014,14.8741105 L124.421014,15.3198923 C124.361231,16.271465 124.235969,18.5432377 124.235969,18.5432377 C124.235969,18.5432377 124.176186,18.7146923 124.112132,18.9904483 C123.925663,19.7119862 123.61251,22.0794877 124.049501,23.694018 C124.049501,23.7511695 124.112132,23.8068923 124.112132,23.9154802 C124.235969,24.0826483 124.2986,24.2541029 124.421014,24.4198423 C125.418834,25.9243559 126.724114,26.3158438 127.472834,26.4815832 C128.40233,26.7059029 129.338942,26.2043983 129.962402,25.9829362 C130.645645,25.8129105 131.140996,24.6970271 130.457753,23.7511695 C129.775933,22.8010256 128.527591,23.3611105 128.527591,23.3611105" id="Fill-13" fill="#D7000F"></path>
                <path d="M128.156647,8.43070576 C128.156647,8.43070576 124.857151,8.59787394 124.67353,8.54215121 C124.485638,7.81775576 124.918359,7.20623455 124.918359,7.20623455 C124.918359,7.20623455 125.544665,6.09035121 125.10625,5.53455273 C124.797368,5.25308152 124.545422,5.03019061 124.299169,4.91874515 C124.172485,4.86302242 124.111277,4.81015727 123.984593,4.75300576 C123.055097,4.3586603 122.309223,4.58440879 122.369007,4.58440879 C122.431638,4.63870273 121.930593,4.69728303 121.559079,5.14020727 C121.432395,5.31023303 121.308557,5.53455273 121.308557,5.80888 C121.187566,6.19893909 121.376881,6.59042697 121.559079,6.98048606 C121.930593,7.65058758 122.494268,8.1549497 122.494268,8.1549497 L122.494268,8.37784061 L121.559079,8.37784061 L119.507926,8.43070576 C119.507926,8.43070576 118.636791,8.70931939 118.884467,9.82520273 C119.19762,10.9396573 121.248773,10.9167967 121.248773,10.9167967 C121.248773,10.8625027 121.376881,10.80678 121.559079,10.7524861 C121.873656,10.6953345 122.309223,10.5824603 122.868629,10.4710148 C123.177512,10.3609982 123.611656,10.3052755 123.984593,10.2466952 C124.111277,10.2466952 124.172485,10.2466952 124.299169,10.1924012 C124.857151,10.1924012 125.544665,10.1924012 126.10407,10.2466952 C127.158827,10.3609982 127.970178,10.6396118 127.970178,10.6396118 L128.903944,10.8625027 C128.963728,10.8625027 129.83771,10.3810012 129.711025,9.59945424 C129.399295,8.76504212 128.156647,8.43070576 128.156647,8.43070576" id="Fill-15" fill="#D7000F"></path>
                <path d="M114.903863,12.5258976 C114.780025,12.4687461 114.717395,12.4115945 114.59498,12.3558718 C114.402818,12.1901324 114.27898,12.078687 114.156566,11.9643839 C114.034151,11.8543673 113.970097,11.7986445 113.970097,11.7986445 C113.970097,11.7986445 113.90889,11.741493 113.782205,12.2472839 C113.595737,12.6902082 113.658368,13.6917885 113.718151,14.0861339 C113.846259,14.3090248 113.970097,14.4176127 114.156566,14.530487 C114.27898,14.5847809 114.402818,14.6390748 114.528079,14.6390748 L114.59498,14.6390748 L114.903863,14.6390748 C115.212746,14.6390748 115.463268,14.5847809 115.463268,14.530487 C115.709521,14.3633188 115.961467,13.0231158 115.837629,12.8602339 C115.527323,12.8016536 115.212746,12.6330567 114.903863,12.5258976" id="Fill-17" fill="#D7000F"></path>
                <path d="M153.486324,5.52140788 C153.551802,5.45568364 153.093459,5.52140788 152.367514,5.52140788 C151.245856,5.52140788 149.73418,5.52140788 148.680847,5.32423515 C147.230378,3.73399424 146.309423,4.59698212 146.309423,4.59698212 C146.309423,4.59698212 145.913712,4.52982909 145.189189,6.2500897 C145.189189,6.2500897 145.189189,6.31438515 145.125135,6.38010939 C144.863225,6.51155788 144.532991,6.5801397 144.272505,6.5801397 C143.808468,6.64443515 143.347279,6.5801397 142.952991,6.51155788 C142.094667,6.2500897 141.503946,5.85002909 141.503946,5.85002909 C141.503946,5.85002909 140.318234,6.04863061 140.51609,6.5801397 C140.585838,6.84160788 140.318234,7.70316697 140.185856,8.49471545 C140.121802,9.61917152 139.727514,10.147823 139.727514,10.2135473 L140.51609,10.8750761 L142.622757,10.0163745 C142.622757,10.0163745 142.820613,8.42899121 143.543712,7.63458515 C143.740144,7.37168818 144.006324,7.2402397 144.272505,7.17308667 C144.665369,7.04020939 144.99418,7.04020939 145.189189,7.10879121 C145.318721,7.10879121 145.391315,7.17308667 145.453946,7.17308667 C145.717279,7.2402397 145.846811,7.5702897 146.706559,8.42899121 C148.811802,8.42899121 148.877279,7.37168818 149.930613,6.77874121 C151.049423,6.71015939 151.773946,6.77874121 152.367514,6.90876091 C153.225838,7.10879121 153.551802,7.44027 153.751081,7.76746242 C154.343225,8.10037 154.079892,9.02336697 154.079892,9.02336697 L153.418,9.48629424 C153.418,9.48629424 153.486324,9.68346697 153.617279,9.74919121 C153.879189,9.88206848 154.142523,9.9506503 154.41155,10.08067 C154.539658,10.147823 155.134649,10.2778427 155.595838,10.2778427 C156.382991,10.2778427 157.439171,9.9506503 157.632757,8.89191848 C156.84418,5.39138818 153.418,5.58570333 153.486324,5.52140788" id="Fill-19" fill="#D7000F"></path>
                <path d="M152.499465,23.6282938 C152.499465,23.5654271 152.433987,23.5654271 152.36851,23.5654271 C152.103753,23.5654271 151.709465,23.5654271 151.048996,23.8926195 C150.196366,24.2898226 148.550888,24.3555468 148.550888,24.3555468 C148.550888,24.3555468 150.525177,19.1361847 150.590654,19.0033074 C150.721609,18.8047059 150.721609,18.2774832 150.258996,17.8802802 C149.799231,17.4830771 149.537321,17.4830771 148.943753,17.6831074 C148.351609,17.8802802 147.693987,17.2173226 146.773032,16.9529968 C146.178041,16.8215483 145.652798,16.9529968 145.190186,17.1530271 C144.862798,17.3487711 144.664942,17.5473726 144.664942,17.5473726 C144.664942,17.5473726 144.465663,17.9445756 144.272077,18.2774832 L144.272077,18.3432074 C144.203753,18.5375226 144.203753,18.6732574 144.272077,18.8047059 C144.272077,18.9361544 144.334708,19.0033074 144.334708,19.0033074 L144.728996,19.2662044 L145.190186,19.2662044 L145.652798,19.2019089 L146.640654,19.2662044 C146.706132,19.2662044 147.231375,19.2019089 147.561609,19.4662347 C147.89042,19.6676938 147.823519,21.3822392 147.759465,21.5151165 C147.693987,21.713718 147.497555,23.1010711 147.497555,23.1010711 C147.497555,23.1010711 147.497555,23.9597726 147.430654,24.0926498 C147.3666,24.2255271 147.10042,24.2898226 146.969465,24.2898226 L145.518996,24.2898226 C145.453519,24.2255271 145.390888,24.2255271 145.190186,24.2255271 C144.993753,24.1569453 144.598041,24.0926498 144.272077,23.9597726 C143.675663,23.8268953 143.083519,23.6954468 143.018041,23.6954468 C142.757555,23.6282938 142.62233,23.5654271 142.162564,24.2898226 C141.704222,24.9513514 141.897807,26.5401635 141.897807,26.6701832 C141.897807,26.7344786 142.887086,27.2659877 143.809465,27.3945786 L144.272077,27.3945786 L145.190186,27.3945786 C146.047086,27.331712 146.902564,27.2659877 147.168744,27.1345392 C147.497555,26.9988044 150.455429,26.8016317 150.455429,26.8016317 C150.455429,26.8016317 151.446132,26.8702135 152.36851,26.6701832 C152.499465,26.6030302 152.631843,26.5401635 152.762798,26.4715817 C153.750654,26.0743786 154.012564,25.5442983 154.080888,24.7527498 C154.080888,23.9597726 152.695897,23.6282938 152.499465,23.6282938" id="Fill-21" fill="#D7000F"></path>
                <path d="M153.155521,11.3328597 C153.155521,11.3328597 152.762656,11.2071264 152.368368,11.0728203 C151.841701,10.8099233 151.184079,10.6113218 151.184079,10.6113218 C151.184079,10.6113218 150.721467,12.3930203 150.525034,13.1874264 C150.327178,13.8489552 151.118602,14.907687 151.24671,15.0377067 C151.445989,15.1034309 151.972656,15.1034309 152.368368,15.1034309 L152.5648,15.1034309 C152.959088,14.9719824 154.277178,14.2447294 154.211701,13.3188748 C154.211701,12.3287248 153.225268,11.3328597 153.155521,11.3328597" id="Fill-23" fill="#D7000F"></path>
                <path d="M146.244088,10.8096376 C145.846953,10.5453118 145.519566,10.409577 145.189332,10.409577 C144.665512,10.2781285 144.335277,10.5453118 144.272647,10.6110361 C144.272647,10.6753315 144.202899,10.6753315 144.202899,10.6753315 C144.202899,10.6110361 143.808611,11.6026148 143.676232,11.864083 C143.543854,11.9955315 143.347422,14.1787194 143.347422,14.1787194 C143.347422,14.1787194 143.150989,14.5773512 143.808611,14.5773512 C143.940989,14.4430452 144.071944,14.2444436 144.272647,14.1129952 C144.533133,13.9115361 144.863368,13.6500679 145.189332,13.4514664 C145.784323,13.0542633 146.309566,12.861377 146.309566,12.861377 C146.309566,12.861377 146.571476,12.9242436 146.772178,12.7927952 C147.099566,12.6599179 147.032665,11.3325739 147.032665,11.3325739 C147.032665,11.3325739 147.626232,11.6697679 146.244088,10.8096376" id="Fill-25" fill="#D7000F"></path>
                <path d="M58.0342541,32.4786345 C58.0427946,31.7713845 58.0641459,30.8798209 58.091191,30.0868436 C57.4321459,30.0954164 57.0563622,30.0982739 56.9638396,30.0982739 C56.7545964,30.0982739 56.343227,30.0954164 55.7297315,30.0868436 L55.7624703,30.912683 C55.8265243,32.4343421 55.8194072,34.7489785 55.7368486,37.5736921 C56.3873532,37.5694058 56.817227,37.5736921 57.0264703,37.5736921 L58.1054252,37.5736921 C58.0783802,36.9707436 58.0584523,36.0977542 58.0427946,35.2433391 C58.0285604,34.3860664 58.0257135,33.4644982 58.0342541,32.4786345" id="Fill-27" fill="#D7000F"></path>
                <path d="M63.6090919,35.9724495 C63.1535964,35.9724495 62.7678486,35.8910086 62.4490018,35.7395571 C62.130155,35.5838192 61.868245,35.3594995 61.6689658,35.073742 C61.4739568,34.7879844 61.3600829,34.4407889 61.3358847,34.0407283 C61.3088396,33.6020905 61.3970919,33.2006011 61.5921009,32.8391177 C61.7885333,32.4762056 62.0689477,32.1961632 62.436191,32.008992 C62.8048577,31.8189632 64.7777225,31.8346798 65.2531459,31.8346798 L65.1364252,30.0772708 L63.2859748,30.0772708 C62.7222991,30.0772708 62.184245,30.1529965 61.6618486,30.2958753 C61.1422991,30.4401829 60.6853802,30.7002223 60.2597766,31.0417026 C59.8370198,31.3788965 59.5238667,31.8046753 59.3146234,32.311895 C59.1039568,32.8234011 59.0228216,33.3949162 59.0598306,34.0321556 C59.0897225,34.5736662 59.2092901,35.0680268 59.4071459,35.5080935 C59.6092721,35.9481602 59.9238486,36.3296465 60.3494523,36.6568389 C60.7779027,36.979745 61.2390919,37.215495 61.7358667,37.3598026 C62.2340649,37.498395 62.7678486,37.5712632 63.3357946,37.5712632 L65.3784072,37.5712632 L65.2844613,35.9824511 L63.6090919,35.9724495 Z" id="Fill-29" fill="#D7000F"></path>
                <path d="M73.0351441,30.0982739 L71.7882252,30.0868436 C71.8038829,30.3254512 71.8152703,30.6340694 71.8181171,30.7269406 C71.8238108,30.9098255 71.8295045,31.2441618 71.8351982,31.7356648 C71.838045,32.2257391 71.838045,32.617227 71.8337748,32.9072709 L68.9712703,32.9072709 C68.9641532,32.1328679 68.9812342,31.0984255 69.0239369,30.0868436 C68.4944234,30.0954164 68.1229099,30.0982739 67.9093964,30.0982739 C67.6346757,30.0982739 67.2233063,30.0954164 66.671018,30.0868436 L66.6980631,30.7355133 C66.7051802,30.9884088 66.7151441,31.2484482 66.717991,31.5199179 L66.7293784,32.4514876 L66.7194144,34.550377 L66.6354324,37.5779785 C67.2261532,37.5694058 67.6047838,37.5708345 67.7585135,37.5708345 L68.9783874,37.5708345 L68.9513423,34.5117997 L71.8152703,34.5117997 C71.8266577,35.6219679 71.8067297,36.7364224 71.7540631,37.5708345 C72.4031441,37.567977 72.8145135,37.5708345 72.9853243,37.5708345 L74.1311802,37.5708345 C74.0827838,36.342077 74.0557387,35.1461815 74.0571622,34.2646194 C74.0557387,33.3859148 74.0827838,31.8956891 74.1326036,30.0868436 C73.5304955,30.0954164 73.1604054,30.0982739 73.0351441,30.0982739" id="Fill-31" fill="#D7000F"></path>
                <path d="M81.4561171,30.0829859 L80.2035045,30.0829859 C80.1864234,30.0829859 80.185,30.5116223 80.194964,31.0745647 C80.2035045,31.6532238 80.2063514,32.2876056 80.2006577,32.9819965 C80.194964,33.7992632 80.185,34.3236283 80.1664955,34.555092 C80.1494144,34.7808405 80.1180991,34.9637253 80.0725495,35.1080329 C80.0241532,35.2580556 79.9672162,35.3837889 79.8988919,35.4852329 C79.8462252,35.5695314 79.7793243,35.6409708 79.701036,35.7038374 C79.6156306,35.7724192 79.515991,35.8238556 79.4035405,35.8624329 C79.2583514,35.9067253 79.1003514,35.9310147 78.9323874,35.9310147 C78.735955,35.9310147 78.5452162,35.8981526 78.3644414,35.8352859 C78.1793964,35.7724192 78.0313604,35.679548 77.9246036,35.5538147 C77.8135766,35.4266526 77.7338649,35.2794874 77.6854685,35.0966026 C77.6356486,34.9194329 77.6057568,34.6936844 77.5900991,34.4265011 C77.5815586,34.2864798 77.5744414,34.0321556 77.5701712,33.6620995 C77.5630541,33.2934723 77.5630541,32.897698 77.5701712,32.4762056 L77.5957928,30.0829859 C77.1289099,30.0915586 76.7588198,30.0944162 76.4784054,30.0944162 C76.2549279,30.0944162 75.8663333,30.0915586 75.3197387,30.0829859 L75.3453604,32.3147526 C75.3496306,32.7448177 75.3524775,33.0720102 75.3439369,33.2934723 L75.3268559,34.1350283 C75.3183153,34.4593632 75.3183153,34.6993995 75.3197387,34.8751405 C75.3225856,35.0451662 75.3297027,35.1708995 75.3325495,35.255198 C75.3467838,35.5052359 75.3923333,35.7395571 75.4691982,35.9581617 C75.5346757,36.1496192 75.6215045,36.3182162 75.7296847,36.4582374 C75.8335946,36.5968298 75.9830541,36.7297071 76.1737928,36.865442 C76.383036,37.0097495 76.6235946,37.1354829 76.9011622,37.242642 C77.1744595,37.3469435 77.4833423,37.4326708 77.8235405,37.4898223 C78.1936306,37.545545 78.5722613,37.5712632 78.9651261,37.5712632 C79.4035405,37.5712632 79.8334144,37.5341147 80.2604414,37.4612465 C80.6803514,37.3869495 81.0532883,37.262645 81.3820991,37.0840465 C81.7066396,36.905448 81.9514685,36.7068465 82.1151622,36.4868132 C82.2788559,36.2639223 82.3856126,36.0024541 82.443973,35.7009798 C82.5023333,35.3980768 82.5165676,34.8822844 82.4880991,34.1536026 C82.4852523,34.1078814 82.4852523,34.0478723 82.4852523,33.9807192 L82.5236847,30.0829859 L81.4561171,30.0829859 Z" id="Fill-33" fill="#D7000F"></path>
                <path d="M99.9794108,31.8048182 L100.01215,30.0774136 C99.4484739,30.0874152 99.1040054,30.0874152 98.9872847,30.0874152 C98.7282216,30.0874152 98.3780595,30.0874152 97.949609,30.0774136 C97.9738072,30.486047 98.0421315,32.9121288 98.1061856,33.9794333 C98.1759333,35.2081909 97.6962396,34.3280576 97.6962396,34.3280576 L95.2137892,30.0774136 C94.6743117,30.0874152 94.2544018,30.0874152 93.9554829,30.0874152 C93.5369964,30.0874152 93.0558793,30.0874152 92.5107081,30.0774136 L92.5591045,31.0547045 L92.5918432,32.5706485 L92.6032306,36.3269318 L92.5619514,37.5742636 C93.0900414,37.5685485 93.4501676,37.5742636 93.6437532,37.5742636 C93.8715009,37.5742636 94.2031586,37.5685485 94.6358793,37.5742636 L94.4963838,34.0994515 C94.4565279,33.3822 94.4323297,32.6463742 95.0885279,33.7665439 C95.3532847,34.2180409 95.6550505,34.6895409 95.9753207,35.1810439 L96.9432486,36.6855576 C97.0400414,36.8412955 97.1909243,37.2313545 97.391627,37.5742636 C97.9738072,37.5685485 98.4321495,37.5742636 98.7581135,37.5742636 C99.1538252,37.5742636 99.5808523,37.5685485 100.034924,37.5742636 L99.9950685,36.1740515 L99.9794108,31.8048182 Z" id="Fill-35" fill="#D7000F"></path>
                <path d="M141.658957,31.8048182 L141.691695,29.9659682 C141.126596,29.9702545 140.784975,29.9759697 140.665407,29.9759697 C140.406344,29.9759697 140.063299,29.9702545 139.630578,29.9659682 C139.653353,30.3703152 139.723101,32.9121288 139.785732,33.9794333 C139.856903,35.2081909 139.374362,34.3280576 139.374362,34.3280576 L136.893335,29.9659682 C136.352434,29.9702545 135.935371,29.9759697 135.635029,29.9759697 C135.219389,29.9759697 134.735425,29.9702545 134.193101,29.9659682 L134.240074,31.0547045 L134.269966,32.5706485 L134.281353,36.3269318 L134.242921,37.5742636 C134.768164,37.5685485 135.13256,37.5742636 135.320452,37.5742636 C135.551047,37.5742636 135.881281,37.5685485 136.316849,37.5742636 L136.17593,34.0994515 C136.13465,33.3822 136.113299,32.6463742 136.769497,33.7665439 C137.032831,34.2180409 137.33602,34.6895409 137.653443,35.1810439 L138.625641,36.6855576 C138.719587,36.8412955 138.869047,37.2327833 139.06975,37.5742636 C139.653353,37.5685485 140.110272,37.5742636 140.439083,37.5742636 C140.836218,37.5742636 141.258975,37.5685485 141.715894,37.5742636 L141.676038,36.1740515 L141.658957,31.8048182 Z" id="Fill-37" fill="#D7000F"></path>
                <path d="M86.7613586,33.9061365 L87.4246739,32.1887335 C87.737827,31.5672108 87.7876468,32.0915759 88.3470523,33.9061365 L86.7613586,33.9061365 Z M87.5840973,30.0941305 C87.3022595,30.0941305 86.9037009,30.0912729 86.2859351,30.0827002 C86.1521333,30.3984623 82.9067279,37.573835 82.9067279,37.573835 C83.4974486,37.5681198 83.8732324,37.573835 84.1379892,37.573835 C84.2874486,37.573835 84.6888541,37.5681198 85.340782,37.573835 L86.1606739,35.4535138 C86.1635207,35.4492274 86.1663676,35.4435123 86.1692144,35.4392259 L88.8993405,35.4392259 L89.5996649,37.573835 C90.1718811,37.5681198 90.601755,37.573835 90.8992505,37.573835 C91.028782,37.573835 91.3960252,37.5681198 92.0052505,37.573835 L88.9534306,30.0827002 C88.5335207,30.0912729 88.0780252,30.0941305 87.5840973,30.0941305 L87.5840973,30.0941305 Z" id="Fill-39" fill="#D7000F"></path>
                <path d="M107.029769,33.8446986 L107.691661,32.1287244 C108.003391,31.5086305 108.056058,32.0329956 108.616886,33.8446986 L107.029769,33.8446986 Z M107.851085,30.0341214 C107.5664,30.0341214 107.170688,30.0312638 106.554346,30.0255486 C106.420544,30.3413108 103.172292,37.5152547 103.172292,37.5152547 C103.763013,37.5081108 104.141643,37.5152547 104.4064,37.5152547 C104.553013,37.5152547 104.954418,37.5081108 105.609193,37.5152547 L106.430508,35.3949335 C106.430508,35.3892183 106.436202,35.384932 106.436202,35.384932 L109.164905,35.3792168 L109.869499,37.5152547 C110.440292,37.5081108 110.874436,37.5152547 111.167661,37.5152547 C111.297193,37.5152547 111.663013,37.5081108 112.270814,37.5152547 L109.218995,30.0255486 C108.800508,30.0312638 108.343589,30.0341214 107.851085,30.0341214 L107.851085,30.0341214 Z" id="Fill-41" fill="#D7000F"></path>
                <path d="M115.116523,32.4786345 C115.122216,31.7728133 115.143568,30.8641042 115.173459,30.071127 C114.515838,30.0782709 114.138631,30.0825573 114.046108,30.0825573 C113.836865,30.0825573 113.428342,30.0782709 112.812,30.071127 L112.846162,30.912683 C112.907369,32.4343421 112.897405,34.7489785 112.812,37.5736921 C113.463928,37.5694058 113.893802,37.5736921 114.103045,37.5736921 L115.182,37.5736921 C115.154955,36.9707436 115.140721,36.0977542 115.122216,35.2433391 C115.110829,34.3860664 115.105135,33.4644982 115.116523,32.4786345" id="Fill-43" fill="#D7000F"></path>
                <path d="M121.720638,34.9218618 C121.418872,34.2989103 121.343431,34.5332315 122.203178,33.8474133 C122.379683,33.7031058 122.541953,33.5616558 122.660097,33.3773421 C122.773971,33.1987436 122.857953,33.0044285 122.907773,32.8001118 C122.953323,32.5929376 122.970404,32.3714755 122.956169,32.1357255 C122.946205,31.9242648 122.907773,31.7285209 122.842295,31.5427785 C122.773971,31.3570361 122.375413,30.488333 121.633809,30.1768573 C121.418872,30.0868436 121.175467,30.0482664 120.907863,30.0225482 C120.557701,29.9882573 120.154872,29.969683 119.706494,29.969683 C119.325016,29.969683 118.932151,29.9782558 118.530746,29.9939724 C118.126494,30.0096891 117.786295,30.0154042 117.505881,30.0154042 C117.238277,30.0154042 116.882422,30.0111179 116.444007,30.0025452 C116.469629,30.4297527 116.498097,31.2384467 116.525142,31.9671285 C116.550764,32.6900952 116.570692,33.3830573 116.580656,34.0360133 C116.59062,34.6889694 116.59062,35.2661997 116.580656,35.7634179 C116.570692,36.2577785 116.549341,36.955027 116.520872,37.5736921 C117.048962,37.5694058 117.416205,37.5736921 117.619755,37.5736921 C117.791989,37.5736921 118.176314,37.5694058 118.761341,37.5736921 C118.712944,36.5763982 118.678782,35.4162224 118.654584,34.3803512 C118.627539,33.3416224 118.611881,32.4629179 118.618998,31.74138 C118.794079,31.7370936 118.943539,31.7342361 119.074494,31.7285209 C119.208295,31.721377 119.337827,31.7185194 119.457395,31.7185194 C119.817521,31.7185194 120.089395,31.7442376 120.263052,31.8042467 C120.438133,31.8585406 120.573359,31.9471255 120.658764,32.0599997 C120.745593,32.1757315 120.795413,32.3086088 120.805377,32.4557739 C120.815341,32.63723 120.771214,32.8086845 120.674422,32.9701376 C120.574782,33.1315906 120.425323,33.2544664 120.221773,33.3330497 C120.018223,33.4059179 119.787629,33.4444952 119.531413,33.4444952 C118.848169,33.4444952 119.115773,33.6645285 119.598314,34.8861421 L120.751286,37.5736921 C121.32635,37.5694058 121.740566,37.5736921 121.993935,37.5736921 C122.191791,37.5736921 122.581809,37.5694058 123.161142,37.5736921 C123.06862,37.3779482 123.003142,37.2493573 122.96898,37.1807755 L121.720638,34.9218618 Z" id="Fill-45" fill="#D7000F"></path>
                <path d="M126.350323,35.1283217 L126.337512,32.1435838 L126.385908,29.9661111 C125.917602,29.9703974 125.563169,29.9761126 125.31407,29.9761126 C124.945404,29.9761126 124.52407,29.9703974 124.047223,29.9661111 C124.082809,30.566202 124.077115,31.6049308 124.09562,32.5507883 C124.111277,33.4966459 124.037259,34.4439323 124.092773,35.4012202 C124.232268,37.8072989 123.556142,37.5744065 126.986593,37.5744065 C127.817872,37.5744065 128.886863,37.5686914 129.806395,37.5744065 L129.806395,35.839858 C129.333818,35.8684338 128.476917,35.8784353 127.553115,35.8784353 C126.142503,35.8784353 126.398719,35.9427308 126.350323,35.1283217" id="Fill-47" fill="#D7000F"></path>
                <path d="M143.017757,29.9656824 L143.051919,30.4300385 C143.071847,30.7600885 143.090351,31.7002309 143.108856,32.7146703 C143.12736,33.7291097 143.133054,34.54209 143.130207,35.1536112 C143.124514,35.7665612 143.103162,36.6681264 143.070423,37.5739779 L143.814874,37.5739779 L146.12509,37.5739779 C147.145685,37.5739779 148.052405,37.5682627 148.905036,37.5739779 C148.902189,37.021037 148.895072,36.4866703 148.905036,35.9637339 C148.529252,35.9865945 148.308622,36.0051688 148.147775,36.0065976 L147.061703,36.030887 C146.500874,36.0451748 146.132207,36.0480324 145.954279,36.0480324 L145.349324,36.0480324 L145.336514,34.6235309 C145.935775,34.5949552 146.473829,34.5849536 146.957793,34.5849536 C147.282333,34.5849536 147.75064,34.5863824 148.355595,34.5949552 C148.351324,33.9734324 148.352748,33.437637 148.364135,32.9875688 C147.518622,33.0118582 146.994802,33.0247173 146.795523,33.0247173 C146.248928,33.0247173 145.762117,33.0161445 145.349324,33.0075718 L145.345054,31.5273476 C145.716568,31.5144885 145.992712,31.5016294 146.169216,31.5016294 C146.348568,31.5002006 146.688766,31.5002006 147.192658,31.5002006 C147.651,31.5002006 148.227486,31.5144885 148.905036,31.5430642 C148.896495,31.4159021 148.905036,31.2915976 148.905036,31.1701506 L148.905036,30.5943491 L148.905036,30.1385658 L148.905036,29.9656824 C148.07945,29.9699688 147.102982,29.9756839 146.019757,29.9756839 C144.848279,29.9756839 143.849036,29.9699688 143.017757,29.9656824" id="Fill-49" fill="#D7000F"></path>
                <path d="M54.4214631,34.7962714 C54.3659495,34.6891123 54.283391,34.5748092 54.1851748,34.4490759 C54.0812649,34.3219138 53.9616973,34.1947517 53.8250486,34.0618744 C53.6912468,33.9332835 53.5617153,33.8189805 53.4435712,33.7303956 L53.0478595,33.4289214 C52.7645982,33.2188895 52.5596252,33.0574365 52.4258234,32.9517062 C52.2948685,32.8445471 52.1866883,32.744532 52.1055532,32.6559471 C52.0215712,32.5673623 51.9660577,32.4887789 51.9318955,32.4216259 C51.9005802,32.3544729 51.8834991,32.2873198 51.8792288,32.2144517 C51.8692649,32.0658577 51.9518234,31.9401244 52.1283279,31.8358229 C52.3019856,31.7358077 52.5240396,31.680085 52.7987604,31.680085 C52.9923459,31.680085 53.2229405,31.7100895 53.4919676,31.7586683 C53.762418,31.8101047 54.5082919,32.0287092 54.5082919,32.0287092 L54.5082919,30.9642623 L54.5082919,30.3013047 C54.5082919,30.3013047 52.7987604,30.0941305 52.2080396,30.0941305 C51.903427,30.0941305 51.6144721,30.1184198 51.3340577,30.1641411 C51.0507964,30.2127198 50.7917333,30.3013047 50.5497514,30.4298956 C50.3106162,30.5613441 50.1170306,30.7156532 49.9775351,30.8956805 C49.8380396,31.0771365 49.7355532,31.2685941 49.6729225,31.4757683 C49.6102919,31.6786562 49.5832468,31.8901168 49.5960577,32.104435 C49.6031748,32.2844623 49.6373369,32.4516305 49.6985441,32.6159411 C49.7526342,32.7759653 49.8380396,32.9317032 49.9519135,33.0874411 C50.0629405,33.2403214 50.2180937,33.4074895 50.4159495,33.586088 C50.5098955,33.6746729 50.6807063,33.8189805 50.9241117,34.0118668 L51.9632108,34.8819986 C52.0585802,34.9620108 52.135445,35.0377365 52.1895351,35.1048895 C52.2422018,35.1734714 52.276364,35.2377668 52.2991387,35.290632 C52.3176432,35.3449259 52.3333009,35.3977911 52.3361477,35.4606577 C52.3461117,35.6378274 52.2621297,35.7692759 52.0856252,35.8578608 C51.9105441,35.9493032 51.671409,35.9935956 51.3639495,35.9935956 C51.1305081,35.9935956 50.8614811,35.9593047 50.5497514,35.8921517 C50.2408685,35.8235698 49.5818234,35.5249532 49.5818234,35.5249532 L49.5818234,37.3237971 C49.5818234,37.3237971 51.3369045,37.5709774 51.903427,37.5709774 C52.2735171,37.5709774 52.619409,37.5338289 52.9482198,37.4609608 C53.2756072,37.3866638 53.5731027,37.2580729 53.836436,37.0723305 C54.1026162,36.8908744 54.3047423,36.6536956 54.4399676,36.367938 C54.5709225,36.0764653 54.6278595,35.7764198 54.6107784,35.4606577 C54.6036613,35.3392108 54.5851568,35.2220502 54.5552649,35.1163198 C54.5225261,35.007732 54.4784,34.9005729 54.4214631,34.7962714" id="Fill-51" fill="#D7000F"></path>
                <path d="M132.985753,32.4633465 C132.99287,31.7560965 133.015645,30.7573738 133.045537,29.9658253 C132.389339,29.9701117 132.010708,29.9758268 131.913915,29.9758268 C131.707519,29.9758268 131.298996,29.9701117 130.684077,29.9658253 L130.713969,30.8945374 C130.78087,32.4204829 130.768059,34.7494071 130.684077,37.5741208 C131.334582,37.5684056 131.764456,37.5741208 131.976546,37.5741208 L133.052654,37.5741208 C133.029879,36.9697435 133.011375,36.083895 132.99287,35.2266223 C132.980059,34.3679208 132.975789,33.4463526 132.985753,32.4633465" id="Fill-53" fill="#D7000F"></path>
                <path d="M155.249661,35.0627403 C155.216923,34.9541524 155.172796,34.8484221 155.118706,34.7384055 C155.060346,34.6312464 154.982058,34.5112282 154.879571,34.3854948 C154.778508,34.2554752 154.65467,34.1297418 154.518022,33.994007 C154.381373,33.8582721 154.256112,33.7482555 154.136544,33.6539555 L153.739409,33.3510524 C153.457571,33.1338767 153.254022,32.9738524 153.123067,32.8666933 C152.989265,32.7566767 152.881085,32.6566615 152.801373,32.5652191 C152.715968,32.4752055 152.660454,32.3951933 152.626292,32.3294691 C152.597823,32.2594585 152.576472,32.1908767 152.573625,32.1194373 C152.565085,31.966557 152.647643,31.8365373 152.822724,31.7336645 C152.997805,31.629363 153.218436,31.5779267 153.493157,31.5779267 C153.686742,31.5779267 153.915914,31.6022161 154.187787,31.6536524 C154.459661,31.7065176 155.205535,31.9322661 155.205535,31.9322661 L155.205535,30.8521024 L155.205535,30.1762858 C155.205535,30.1762858 153.493157,29.9662539 152.902436,29.9662539 C152.60067,29.9662539 152.311715,29.9891145 152.029877,30.0376933 C151.746616,30.0877009 151.483283,30.1762858 151.244148,30.3077342 C151.002166,30.4406115 150.81285,30.5963494 150.671932,30.7778055 C150.531013,30.9606903 150.42995,31.157863 150.365895,31.3650373 C150.301841,31.5750691 150.277643,31.7879585 150.290454,32.0037055 C150.300418,32.1880191 150.331733,32.3580448 150.390094,32.5237842 C150.447031,32.6852373 150.531013,32.8438327 150.64631,33.003857 C150.75449,33.1581661 150.91249,33.3324782 151.108923,33.5110767 C151.204292,33.6025191 151.375103,33.7453979 151.618508,33.9454282 L152.660454,34.8255615 C152.7544,34.9055736 152.829841,34.9812994 152.883932,35.0498812 C152.936598,35.1227494 152.973607,35.1841873 152.994959,35.23991 C153.01204,35.2956327 153.030544,35.3527842 153.030544,35.4099358 C153.041932,35.5913918 152.956526,35.7242691 152.782868,35.8171403 C152.606364,35.9071539 152.361535,35.9543039 152.061193,35.9543039 C151.829175,35.9543039 151.557301,35.920013 151.244148,35.8500024 C150.933841,35.7799918 150.270526,35.4785176 150.270526,35.4785176 L150.270526,37.3045085 C150.270526,37.3045085 152.082544,37.6074115 152.647643,37.6074115 C153.019157,37.6074115 153.366472,37.5688342 153.692436,37.4931085 C154.016977,37.4188115 154.266076,37.2359267 154.530832,37.051613 C154.799859,36.8644418 154.996292,36.6229767 155.132941,36.3343615 C155.263895,36.0400312 155.323679,35.7342706 155.306598,35.4099358 C155.299481,35.2899176 155.279553,35.1698994 155.249661,35.0627403" id="Fill-55" fill="#D7000F"></path>
            </g>
        </g>
    </g>
</svg>