<?xml version="1.0" encoding="UTF-8"?>
<svg width="232px" height="60px" viewBox="0 0 232 60" version="1.1" xmlns="http://www.w3.org/2000/svg" xmlns:xlink="http://www.w3.org/1999/xlink">
    <!-- Generator: Sketch 53.2 (72643) - https://sketchapp.com -->
    <title>16.soho中国</title>
    <desc>Created with Sketch.</desc>
    <defs>
        <polygon id="path-1" points="0.741566544 0.644575903 19.2616023 0.644575903 19.2616023 29.3333333 0.741566544 29.3333333"></polygon>
        <polygon id="path-3" points="0 43.0566667 141.218336 43.0566667 141.218336 0.000666666667 0 0.000666666667"></polygon>
    </defs>
    <g id="16.soho中国" stroke="none" stroke-width="1" fill="none" fill-rule="evenodd">
        <g id="16">
            <rect id="矩形复制-21" x="0" y="0" width="232" height="110"></rect>
            <g id="编组" transform="translate(45.000000, 8.000000)">
                <g transform="translate(67.682243, 13.723333)">
                    <mask id="mask-2" fill="white">
                        <use xlink:href="#path-1"></use>
                    </mask>
                    <g id="Clip-2"></g>
                    <path d="M19.0919664,5.03613333 C19.0057047,3.4428 18.2054617,2.21213333 16.7788262,1.4788 C15.6269009,0.8868 14.2613121,0.725466667 13.3137607,0.693466667 C13.0947888,0.6748 11.9043776,0.593466667 8.05710654,0.693466667 C5.91648972,0.749466667 4.22841495,1.1108 3.03534953,1.76413333 C1.50918131,2.6028 1.09777944,3.74946667 1.02213458,4.56413333 C0.885442991,6.0228 0.824396262,12.0641333 0.775293458,16.9174667 C0.763349533,18.0374667 0.754059813,19.0961333 0.743442991,19.9881333 C0.716900935,22.2174667 0.971704673,23.9361333 1.52245234,25.2454667 C2.05860187,26.5241333 2.80443364,27.2774667 3.52770467,27.8988 C4.60663925,28.8294667 6.61056449,29.1601333 8.10222804,29.2734667 C8.63041495,29.3134667 9.17585421,29.3334667 9.73058318,29.3334667 C11.2448075,29.3334667 12.826714,29.1841333 14.3183776,28.8974667 C15.3097234,28.7068 16.1497794,28.3121333 16.8133308,27.7281333 C17.4078729,27.2041333 17.8617421,26.5401333 18.2001533,25.6974667 C18.7880598,24.2348 18.906172,22.5294667 19.0216299,20.8788 C19.0441907,20.5561333 19.0654243,20.2494667 19.0906393,19.9468 C19.371985,16.4988 19.2578542,8.09746667 19.0919664,5.03613333" id="Fill-1" fill="#231815" mask="url(#mask-2)"></path>
                </g>
                <path d="M85.3136,33.5485333 C85.288385,33.8618667 85.2658243,34.1872 85.2432636,34.4992 C85.1370953,36.0352 85.0256187,37.6245333 84.5253009,38.8698667 C84.2758056,39.4952 83.9506654,39.9765333 83.5313009,40.3458667 C83.0588523,40.7618667 82.4669645,41.0325333 81.725114,41.1765333 C79.8393009,41.5405333 77.7132822,41.6698667 75.8951514,41.5298667 C74.9967028,41.4618667 74.2070766,41.3338667 73.5514879,41.1485333 C72.7618617,40.9272 72.3597495,40.6778667 72.1620112,40.5072 C71.4812075,39.9218667 70.9490393,39.3392 70.5522355,38.3978667 C70.081114,37.2778667 69.8647963,35.7498667 69.8886841,33.7285333 C69.8993009,32.8365333 69.9112449,31.7765333 69.9205346,30.6552 C69.9683103,26.0832 70.029357,19.8218667 70.1607402,18.4245333 C70.3027402,16.9018667 72.3491327,15.9752 75.7757121,15.8872 C77.1970393,15.8498667 78.2401421,15.8378667 78.9992449,15.8378667 C80.382086,15.8378667 80.8226841,15.8778667 80.8664785,15.8818667 L80.8930206,15.8858667 L80.9275252,15.8872 C81.7277682,15.9098667 82.874385,16.0378667 83.7940673,16.5112 C84.7575439,17.0058667 85.2538804,17.7672 85.3122729,18.8392 C85.4728523,21.7885333 85.5856561,30.2192 85.3136,33.5485333" id="Fill-3" fill="#E84619"></path>
                <path d="M141.217806,30.4378667 L140.30874,30.4378667 L140.30874,20.2498667 C140.30874,19.2085333 139.905301,18.2285333 139.171413,17.4912 C138.437525,16.7538667 137.462105,16.3498667 136.425637,16.3498667 C135.386516,16.3498667 134.411095,16.7538667 133.677207,17.4912 C132.944647,18.2285333 132.541207,19.2085333 132.541207,20.2498667 L132.541207,30.4378667 L131.630815,30.4378667 L131.630815,20.2498667 C131.630815,18.9658667 132.129806,17.7552 133.03489,16.8458667 C133.941301,15.9365333 135.144983,15.4352 136.425637,15.4352 C137.706292,15.4352 138.908647,15.9365333 139.813731,16.8458667 C140.718815,17.7552 141.217806,18.9658667 141.217806,20.2498667 L141.217806,30.4378667 Z" id="Fill-5" fill="#040000"></path>
                <mask id="mask-4" fill="white">
                    <use xlink:href="#path-3"></use>
                </mask>
                <g id="Clip-8"></g>
                <polygon id="Fill-7" fill="#040000" mask="url(#mask-4)" points="133.59015 23.1993333 140.975477 23.1993333 140.975477 22.286 133.59015 22.286"></polygon>
                <polygon id="Fill-9" fill="#040000" mask="url(#mask-4)" points="114.604617 30.438 115.513682 30.438 115.513682 15.9286667 114.604617 15.9286667"></polygon>
                <polygon id="Fill-10" fill="#040000" mask="url(#mask-4)" points="101.881682 30.438 102.792075 30.438 102.792075 15.9286667 101.881682 15.9286667"></polygon>
                <polygon id="Fill-11" fill="#040000" mask="url(#mask-4)" points="110.513159 30.438 111.423551 30.438 111.423551 15.9286667 110.513159 15.9286667"></polygon>
                <polygon id="Fill-12" fill="#040000" mask="url(#mask-4)" points="102.336879 23.1993333 110.969682 23.1993333 110.969682 22.286 102.336879 22.286"></polygon>
                <polygon id="Fill-13" fill="#040000" mask="url(#mask-4)" points="27.8200561 30.438 28.7291215 30.438 28.7291215 15.9286667 27.8200561 15.9286667"></polygon>
                <polygon id="Fill-14" fill="#040000" mask="url(#mask-4)" points="36.4528598 30.438 37.3619252 30.438 37.3619252 15.9286667 36.4528598 15.9286667"></polygon>
                <polygon id="Fill-15" fill="#040000" mask="url(#mask-4)" points="28.2739252 23.1993333 36.906729 23.1993333 36.906729 22.286 28.2739252 22.286"></polygon>
                <path d="M99.1562112,30.4209333 L97.9631458,30.4209333 C96.9757813,30.4209333 96.0189402,30.2262667 95.1178374,29.8436 C94.2472579,29.4742667 93.4655944,28.9449333 92.7940804,28.2702667 C92.1225664,27.5956 91.5970336,26.8102667 91.226772,25.9356 C90.8458935,25.0302667 90.6534636,24.0676 90.6534636,23.0769333 C90.6534636,22.0849333 90.8458935,21.1236 91.226772,20.2182667 C91.5970336,19.3436 92.1225664,18.5582667 92.7940804,17.8836 C93.4655944,17.2102667 94.2472579,16.6796 95.1178374,16.3102667 C96.0189402,15.9276 96.9757813,15.7316 97.9631458,15.7316 L99.1562112,15.7316 L99.1562112,16.6462667 L97.9631458,16.6462667 C97.0978748,16.6462667 96.2604729,16.8156 95.4721738,17.1516 C94.7090897,17.4756 94.0256318,17.9396 93.4363981,18.5289333 C92.8484916,19.1196 92.3866598,19.8076 92.0655009,20.5729333 C91.731071,21.3662667 91.5612019,22.2089333 91.5612019,23.0769333 C91.5612019,23.9462667 91.731071,24.7862667 92.0655009,25.5796 C92.3866598,26.3449333 92.8484916,27.0329333 93.4363981,27.6236 C94.0256318,28.2156 94.7090897,28.6782667 95.4721738,29.0036 C96.2604729,29.3382667 97.0978748,29.5076 97.9631458,29.5076 L99.1562112,29.5076 L99.1562112,30.4209333 Z" id="Fill-16" fill="#040000" mask="url(#mask-4)"></path>
                <path d="M127.570942,30.7022667 C127.123708,30.7022667 126.721596,30.4502667 126.522531,30.0236 L120.307708,16.7302667 C120.228082,16.5582667 120.075465,16.5716 120.013092,16.5849333 C119.950718,16.5996 119.806064,16.6529333 119.806064,16.8436 L119.806064,30.4382667 L118.898325,30.4382667 L118.898325,16.8436 C118.898325,16.2796 119.265933,15.8169333 119.814026,15.6942667 C120.36212,15.5702667 120.892961,15.8329333 121.130512,16.3422667 L127.345335,29.6356 C127.427615,29.8076 127.580232,29.7942667 127.641279,29.7809333 C127.703652,29.7676 127.846979,29.7142667 127.846979,29.5222667 L127.846979,15.9289333 L128.757372,15.9289333 L128.757372,29.5222667 C128.757372,30.0876 128.38711,30.5489333 127.839017,30.6729333 C127.748774,30.6916 127.658531,30.7022667 127.570942,30.7022667" id="Fill-17" fill="#040000" mask="url(#mask-4)"></path>
                <path d="M47.3992019,16.6514667 C46.5379121,16.6514667 45.7005103,16.8208 44.9122112,17.1554667 C44.1517813,17.4794667 43.4683234,17.9421333 42.8817439,18.5314667 C42.2938374,19.1221333 41.8333327,19.8074667 41.5108467,20.5728 C41.179071,21.3634667 41.0092019,22.2048 41.0092019,23.0714667 C41.0092019,23.9394667 41.179071,24.7794667 41.5108467,25.5701333 C41.8333327,26.3354667 42.2938374,27.0208 42.8817439,27.6128 C43.4683234,28.2008 44.1517813,28.6648 44.9122112,28.9874667 C45.7005103,29.3221333 46.5379121,29.4928 47.3992019,29.4928 C48.2618187,29.4928 49.0992206,29.3221333 49.8875196,28.9874667 C50.6479495,28.6648 51.3314075,28.2008 51.9179869,27.6128 C52.5058935,27.0208 52.9663981,26.3354667 53.287557,25.5701333 C53.6206598,24.7794667 53.7892019,23.9394667 53.7892019,23.0714667 C53.7892019,22.2048 53.6206598,21.3634667 53.287557,20.5728 C52.9663981,19.8074667 52.5058935,19.1221333 51.9179869,18.5314667 C51.3314075,17.9421333 50.6479495,17.4794667 49.8875196,17.1554667 C49.0992206,16.8208 48.2618187,16.6514667 47.3992019,16.6514667 M47.3992019,30.4048 C46.4144916,30.4048 45.4589776,30.2114667 44.5578748,29.8288 C43.6886224,29.4594667 42.908286,28.9314667 42.2380991,28.2568 C41.5679121,27.5834667 41.0410523,26.7994667 40.674772,25.9261333 C40.2938935,25.0221333 40.1001364,24.0621333 40.1001364,23.0714667 C40.1001364,22.0821333 40.2938935,21.1221333 40.674772,20.2168 C41.0410523,19.3448 41.5679121,18.5594667 42.2380991,17.8861333 C42.908286,17.2128 43.6886224,16.6834667 44.5578748,16.3141333 C45.4589776,15.9314667 46.4144916,15.7368 47.3992019,15.7368 C48.3852393,15.7368 49.3407533,15.9314667 50.2418561,16.3141333 C51.1111084,16.6834667 51.8914449,17.2128 52.5616318,17.8861333 C53.2318187,18.5594667 53.7573514,19.3448 54.1249589,20.2168 C54.5058374,21.1221333 54.6995944,22.0821333 54.6995944,23.0714667 C54.6995944,24.0621333 54.5058374,25.0221333 54.1249589,25.9261333 C53.7573514,26.7994667 53.2318187,27.5834667 52.5616318,28.2568 C51.8914449,28.9314667 51.1111084,29.4594667 50.2418561,29.8288 C49.3407533,30.2114667 48.3852393,30.4048 47.3992019,30.4048" id="Fill-18" fill="#040000" mask="url(#mask-4)"></path>
                <path d="M18.5684243,16.6514667 C17.7058075,16.6514667 16.8697327,16.8208 16.0814336,17.1554667 C15.3210037,17.4794667 14.6375458,17.9421333 14.0509664,18.5314667 C13.4630598,19.1221333 13.0025551,19.8074667 12.6800692,20.5728 C12.3482935,21.3634667 12.1784243,22.2048 12.1784243,23.0714667 C12.1784243,23.9394667 12.3482935,24.7794667 12.6800692,25.5701333 C13.0025551,26.3354667 13.4630598,27.0208 14.0509664,27.6128 C14.6375458,28.2008 15.3210037,28.6648 16.0814336,28.9874667 C16.8697327,29.3221333 17.7058075,29.4928 18.5684243,29.4928 C19.4310411,29.4928 20.268443,29.3221333 21.0567421,28.9874667 C21.817172,28.6648 22.5006299,28.2008 23.0872093,27.6128 C23.6751159,27.0208 24.1356206,26.3354667 24.4567794,25.5701333 C24.7898822,24.7794667 24.9584243,23.9394667 24.9584243,23.0714667 C24.9584243,22.2048 24.7898822,21.3634667 24.4567794,20.5728 C24.1356206,19.8074667 23.6751159,19.1221333 23.0872093,18.5314667 C22.5006299,17.9421333 21.817172,17.4794667 21.0567421,17.1554667 C20.268443,16.8208 19.4310411,16.6514667 18.5684243,16.6514667 M18.5684243,30.4048 C17.583714,30.4048 16.6282,30.2114667 15.7270972,29.8288 C14.8578449,29.4594667 14.0775084,28.9314667 13.4073215,28.2568 C12.7371346,27.5834667 12.2116019,26.7994667 11.8439944,25.9261333 C11.4631159,25.0221333 11.2693589,24.0621333 11.2693589,23.0714667 C11.2693589,22.0821333 11.4631159,21.1221333 11.8439944,20.2168 C12.2116019,19.3448 12.7371346,18.5594667 13.4073215,17.8861333 C14.0775084,17.2128 14.8578449,16.6834667 15.7270972,16.3141333 C16.6282,15.9314667 17.583714,15.7368 18.5684243,15.7368 C19.5544617,15.7368 20.5099757,15.9314667 21.4110785,16.3141333 C22.2803308,16.6834667 23.0606673,17.2128 23.7308542,17.8861333 C24.4010411,18.5594667 24.9265738,19.3448 25.2941813,20.2168 C25.6750598,21.1221333 25.8688168,22.0821333 25.8688168,23.0714667 C25.8688168,24.0621333 25.6750598,25.0221333 25.2941813,25.9261333 C24.9265738,26.7994667 24.4010411,27.5834667 23.7308542,28.2568 C23.0606673,28.9314667 22.2803308,29.4594667 21.4110785,29.8288 C20.5099757,30.2114667 19.5544617,30.4048 18.5684243,30.4048" id="Fill-19" fill="#040000" mask="url(#mask-4)"></path>
                <path d="M4.23597944,30.4053333 L0.161773832,30.4053333 L0.161773832,29.492 L4.23597944,29.492 C5.44497009,29.492 6.43498879,29.2266667 7.09588598,28.7253333 C7.75811028,28.224 8.09386729,27.4906667 8.09386729,26.5453333 C8.09386729,26.112 7.97044673,25.7173333 7.71564299,25.3386667 C7.49534393,25.008 7.17418505,24.6946667 6.76145607,24.4066667 C5.95988598,23.8453333 5.00569907,23.5173333 4.64738131,23.3933333 C4.62083925,23.384 4.5942972,23.376 4.56377383,23.3653333 C4.03293271,23.1826667 2.92745607,22.8053333 1.9440729,22.1613333 C1.3774,21.7893333 0.926185047,21.3773333 0.607680374,20.9346667 C0.204241121,20.3813333 0.00119439252,19.776 0.00119439252,19.1373333 C0.00119439252,17.9226667 0.616970093,16.9613333 1.78349346,16.3573333 C2.66468972,15.9 3.6971757,15.7373333 4.36868972,15.7373333 L8.06997944,15.7373333 L8.06997944,16.652 L4.36868972,16.652 C3.82855888,16.652 2.93674579,16.7866667 2.20153084,17.168 C1.8020729,17.376 1.49153084,17.6306667 1.27786729,17.9293333 C1.02969907,18.272 0.90893271,18.668 0.90893271,19.1373333 C0.90893271,19.9693333 1.4251757,20.7293333 2.44173645,21.396 C3.32824112,21.9773333 4.3607271,22.3306667 4.85706355,22.5 C4.88625981,22.5106667 4.91545607,22.52 4.94199813,22.5293333 C5.33349346,22.664 6.37526916,23.024 7.28035327,23.656 C7.78597944,24.0093333 8.18676449,24.404 8.46943738,24.828 C8.82377383,25.356 9.00293271,25.9333333 9.00293271,26.5453333 C9.00293271,27.7746667 8.53313832,28.7813333 7.64397944,29.4546667 C7.22461495,29.772 6.71500748,30.0146667 6.12975514,30.1733333 C5.56440935,30.3266667 4.9274,30.4053333 4.23597944,30.4053333" id="Fill-20" fill="#040000" mask="url(#mask-4)"></path>
                <path d="M84.1395121,32.0056 C82.7725963,31.1029333 81.7586897,30.0562667 81.0420542,28.8069333 C81.7215308,27.1869333 83.401643,26.2709333 83.4202224,26.2616 L83.4175682,26.2629333 L82.7354374,24.9616 C82.6611196,25.0016 81.2782785,25.7469333 80.2895869,27.1629333 C80.0626523,26.5482667 79.8808393,25.9296 79.7030075,25.3229333 C79.6379794,25.1016 79.5729514,24.8736 79.5039421,24.6496 C79.3831757,24.2496 79.2770075,23.7522667 79.1907458,23.1709333 C80.910671,23.1762667 82.4235682,23.1949333 82.4527645,23.1949333 L82.4607271,23.1949333 C82.8615121,23.1949333 83.1879794,22.8696 83.1919607,22.4682667 C83.1972692,22.0616 82.8734561,21.7296 82.4686897,21.7242667 C82.3465963,21.7229333 80.7726523,21.7042667 79.0235308,21.7002667 C78.9930075,21.3482667 78.9691196,20.9776 78.9492131,20.5882667 C81.7069327,20.4536 83.4242037,18.9789333 83.5038299,18.9109333 C83.8077364,18.6442667 83.8382598,18.1789333 83.5728393,17.8722667 C83.3074187,17.5669333 82.8455869,17.5349333 82.5416804,17.8029333 C82.5376991,17.8056 82.1302785,18.1522667 81.4070075,18.4909333 C80.8336991,18.7589333 79.968428,19.0602667 78.9001103,19.1176 C78.8828579,18.1376 78.9014374,17.4469333 78.9014374,17.4349333 C78.9133813,17.0296 78.5948766,16.6909333 78.1914374,16.6802667 C77.786671,16.6669333 77.450914,16.9882667 77.4389701,17.3936 C77.4349888,17.5256 77.3819047,19.5616 77.5531009,21.7002667 C76.4529327,21.7016 75.4231009,21.7136 74.7794561,21.7402667 C72.8379047,21.8216 71.6766897,21.9136 71.6275869,21.9176 C71.2254748,21.9482667 70.9242224,22.3029333 70.9560729,22.7069333 C70.9865963,23.0922667 71.306428,23.3842667 71.6846523,23.3842667 C71.7045589,23.3842667 71.7244654,23.3842667 71.7430449,23.3816 C71.7549888,23.3816 72.9294748,23.2896 74.8405028,23.2082667 C75.488129,23.1829333 76.5670636,23.1709333 77.7110262,23.1696 C77.8079047,23.8629333 77.9353065,24.5202667 78.1038486,25.0789333 C78.1702037,25.2962667 78.2325776,25.5109333 78.3002598,25.7389333 C78.5988579,26.7642667 78.9160355,27.8482667 79.4508579,28.9336 C78.7952692,31.0816 78.805886,32.6509333 78.9001103,34.7562667 C78.9797364,36.5389333 79.8290822,39.1482667 80.2683533,40.2802667 C80.3798299,40.5722667 80.6571944,40.7496 80.9504841,40.7496 C81.0380729,40.7496 81.1269888,40.7336 81.2145776,40.7002667 C81.5914748,40.5522667 81.7785963,40.1256 81.6312879,39.7482667 C81.1575121,38.5242667 80.4276056,36.1669333 80.3612505,34.6922667 C80.2948953,33.1616 80.2710075,31.9909333 80.523157,30.6696 C81.2026336,31.5549333 82.1037364,32.4202667 83.3379421,33.2336 C83.4600355,33.3149333 83.6007084,33.3549333 83.7374,33.3549333 C83.9762785,33.3549333 84.2098486,33.2376 84.3505215,33.0229333 C84.5721477,32.6842667 84.4779234,32.2282667 84.1395121,32.0056" id="Fill-21" fill="#231815" mask="url(#mask-4)"></path>
                <path d="M77.6647103,34.7648 C74.3801308,34.6821333 71.581271,34.9234667 71.4631589,34.9341333 C71.0597196,34.9688 70.7637757,35.3261333 70.7982804,35.7301333 C70.8314579,36.1128 71.1512897,36.4021333 71.5255327,36.4021333 C71.5480935,36.4021333 71.568,36.4008 71.5905607,36.3994667 C71.6184299,36.3968 74.4292336,36.1541333 77.6288785,36.2354667 C78.0309907,36.2448 78.3667477,35.9248 78.3773645,35.5181333 C78.3879813,35.1128 78.0694766,34.7754667 77.6647103,34.7648" id="Fill-22" fill="#231815" mask="url(#mask-4)"></path>
                <path d="M72.4172131,29.3064 C72.4238486,28.8757333 72.4955121,28.5104 72.6295495,28.2237333 C72.7370449,27.9930667 72.8883346,27.8064 73.0900542,27.6570667 C73.5333065,27.3250667 74.171643,27.2090667 74.6772692,27.1450667 C74.7794561,27.1317333 74.8909327,27.1237333 75.0063907,27.1237333 C75.4469888,27.1237333 75.9459794,27.2317333 76.2751009,27.5397333 C76.5843159,27.8277333 76.7249888,28.2837333 76.6957925,28.8997333 C76.6427084,30.0077333 76.3374748,30.3717333 76.1131944,30.5490667 C75.7800916,30.8117333 75.2651757,30.9250667 74.4874935,31.0330667 C73.7045028,31.1410667 73.1511009,31.0570667 72.8432131,30.7824 C72.5499234,30.5224 72.4065963,30.0264 72.4172131,29.3064 M71.874428,31.8850667 C72.2314187,32.2037333 72.6852879,32.4090667 73.2227645,32.4984 C73.4297925,32.5317333 73.6487645,32.5490667 73.8810075,32.5490667 C74.1318299,32.5490667 74.3985776,32.5290667 74.6865589,32.4890667 C75.5412131,32.3704 76.3626897,32.2224 77.0169514,31.7064 C77.372615,31.4237333 77.6486523,31.0517333 77.8371009,30.5970667 C78.0215682,30.1504 78.1264093,29.6170667 78.1569327,28.9717333 C78.1834748,28.4304 78.1171196,27.9397333 77.9605215,27.5117333 C77.8092318,27.1024 77.5783159,26.7477333 77.270428,26.4610667 C76.8908766,26.1090667 76.4131196,25.8677333 75.8491009,25.7437333 C75.3010075,25.6250667 74.8113065,25.6464 74.4954561,25.6864 C73.8119981,25.7730667 72.9347832,25.9397333 72.2168206,26.4770667 C71.396671,27.0890667 70.9733252,28.0344 70.9534187,29.2837333 C70.9374935,30.4517333 71.2453813,31.3277333 71.874428,31.8850667" id="Fill-23" fill="#231815" mask="url(#mask-4)"></path>
                <path d="M69.8808542,14.2178667 C70.4170037,13.5898667 70.7421439,12.7778667 70.8761813,11.7325333 C70.9650972,11.0378667 70.9650972,10.2885333 70.9478449,9.54453333 C70.9544804,9.5072 70.9571346,9.4672 70.9571346,9.4272 C70.9571346,9.3752 70.9518262,9.3232 70.9412093,9.27386667 L70.9332467,9.00453333 C70.9279383,8.8072 70.9213028,8.6032 70.9173215,8.4032 C70.8960879,7.4192 70.8323869,6.37253333 70.7381626,5.45786667 C70.5882,3.99653333 70.4488542,3.6792 70.4024056,3.57386667 C70.2378449,3.20186667 69.8052093,3.0352 69.4362748,3.20053333 C69.0686673,3.36453333 68.9027794,3.79653333 69.0633589,4.16586667 C69.1748355,4.46853333 69.4084056,6.30986667 69.4548542,8.4352 C69.4561813,8.52186667 69.4588355,8.6072 69.4614897,8.69253333 L63.3116953,8.69253333 L63.3116953,0.7352 C63.3116953,0.328533333 62.9839009,0.000533333333 62.5791346,0.000533333333 C62.1743682,0.000533333333 61.8479009,0.328533333 61.8479009,0.7352 L61.8479009,8.69253333 L55.6490037,8.69253333 C55.6516579,6.32453333 55.8759383,4.98186667 55.8799196,4.95386667 C55.9502561,4.55386667 55.6835084,4.17386667 55.2867047,4.1032 C54.8872467,4.03253333 54.5090224,4.30186667 54.438686,4.70053333 C54.425415,4.77786667 54.1108916,6.6312 54.2024617,9.8952 C54.2489103,11.5578667 54.4094897,12.6778667 54.722686,13.5232 C55.0173028,14.3178667 55.4379944,14.8725333 56.1333963,15.3805333 C57.0092841,16.0218667 58.6429477,16.3365333 61.1033963,16.3365333 C61.3422748,16.3365333 61.5917701,16.3325333 61.8479009,16.3272 L61.8479009,30.7418667 C61.8479009,31.1472 62.1743682,31.4752 62.5791346,31.4752 C62.9839009,31.4752 63.3116953,31.1472 63.3116953,30.7418667 L63.3116953,16.2645333 C64.7555832,16.1778667 65.9260879,16.0218667 66.8776206,15.7898667 C68.2883308,15.4485333 69.2703869,14.9338667 69.8808542,14.2178667" id="Fill-24" fill="#231815" mask="url(#mask-4)"></path>
                <path d="M59.047714,14.766 C57.8095271,14.6273333 57.2481626,14.3766667 56.9933589,14.19 C56.3178636,13.698 55.7910037,13.0793333 55.6755458,10.1633333 L61.8479009,10.1633333 L61.8479009,14.8553333 C60.7623308,14.882 59.8227421,14.8513333 59.047714,14.766" id="Fill-25" fill="#E84619" mask="url(#mask-4)"></path>
                <path d="M63.3114299,14.7921333 L63.3114299,10.1628 L69.4930748,10.1628 C69.495729,10.6508 69.4798037,11.1134667 69.4240654,11.5441333 C69.3271869,12.3068 69.1201589,12.8521333 68.7698037,13.2614667 C68.3716729,13.7281333 67.6205327,14.0974667 66.5349626,14.3614667 C65.6842897,14.5668 64.6252617,14.7094667 63.3114299,14.7921333" id="Fill-26" fill="#E84619" mask="url(#mask-4)"></path>
            </g>
        </g>
    </g>
</svg>