<?xml version="1.0" encoding="UTF-8"?>
<svg width="232px" height="60px" viewBox="0 0 232 60" version="1.1" xmlns="http://www.w3.org/2000/svg" xmlns:xlink="http://www.w3.org/1999/xlink">
    <!-- Generator: Sketch 53.2 (72643) - https://sketchapp.com -->
    <title>17.本钢</title>
    <desc>Created with Sketch.</desc>
    <defs>
        <polygon id="path-1" points="0 42.2769857 168.607189 42.2769857 168.607189 0.000307142857 0 0.000307142857"></polygon>
    </defs>
    <g id="17.本钢" stroke="none" stroke-width="1" fill="none" fill-rule="evenodd">
        <g id="17" transform="translate(0.000000, -25.000000)">
            <rect id="矩形复制-22" x="0" y="0" width="232" height="110"></rect>
            <g id="编组" transform="translate(32.000000, 34.000000)">
                <path d="M54.1127342,24.5890893 C56.262536,23.0595179 57.9738514,20.9433036 59.2421126,18.2404464 L54.6425721,18.2404464 L54.6425721,17.2790893 L59.9820586,17.2790893 L59.9820586,14.9325179 L60.9351577,14.9325179 L60.9351577,17.2790893 L66.329455,17.2790893 L66.329455,18.2404464 L61.6751036,18.2404464 C62.9448874,20.8004821 64.6546802,22.8107321 66.8060045,24.268125 C66.5593559,24.5169107 66.2761667,24.8194464 65.9579595,25.1757321 C63.6330676,23.2545536 61.9567703,21.032375 60.9351577,18.506125 L60.9351577,24.1621607 L63.896464,24.1621607 L63.896464,25.0682321 L60.9351577,25.0682321 L60.9351577,27.6282679 L59.9820586,27.6282679 L59.9820586,25.0682321 L56.9156982,25.0682321 L56.9156982,24.1621607 L59.9820586,24.1621607 L59.9820586,18.506125 C58.9254279,21.1030179 57.2506532,23.4142679 54.9592568,25.4429464 C54.7476261,25.1573036 54.4629144,24.8731964 54.1127342,24.5890893" id="Fill-1" fill="#231815"></path>
                <path d="M79.3056099,18.0802714 C78.8838712,19.0063071 78.3022676,20.1596286 77.5607991,21.5479143 C78.230709,22.6152357 78.8305829,23.6457 79.3588982,24.6408429 L78.5123757,25.1752714 C78.3357631,24.8911643 78.0540964,24.4104857 77.6673757,23.7347714 C77.3491685,23.2018786 77.1192676,22.7918429 76.9791955,22.5077357 C76.237727,23.7885214 75.6211054,24.73145 75.1278081,25.3365214 C75.0912676,25.2996643 74.9694658,25.1937 74.7578351,25.0155571 C74.5462045,24.8374143 74.4046099,24.73145 74.3345739,24.6961286 C74.9344477,23.9482357 75.6393757,22.9162357 76.4508802,21.6016643 C75.5312766,19.9999143 74.8446189,18.8803786 74.3878622,18.2399857 L75.1810964,17.7593071 C75.7444297,18.6131643 76.3458261,19.5745214 76.9791955,20.6403071 C77.7191414,19.2182357 78.195691,18.2046643 78.4073216,17.6011286 L79.3056099,18.0802714 Z M74.2279973,27.5218429 L73.2764207,27.5218429 L73.2764207,15.8396643 L80.6271595,15.8396643 L80.6271595,25.8156643 C80.6637,26.8461286 80.153655,27.3805571 79.0939793,27.4158786 L77.0324838,27.4158786 C76.9959432,27.2008786 76.942655,26.9367357 76.8726189,26.6157714 C76.8376009,26.5435929 76.8208532,26.4913786 76.8208532,26.4545214 L77.5607991,26.4545214 C78.0540964,26.4913786 78.4423396,26.5082714 78.7240063,26.5082714 C79.3939162,26.5435929 79.7121234,26.2963429 79.6771054,25.7619143 L79.6771054,16.7457357 L74.2279973,16.7457357 L74.2279973,27.5218429 Z M68.4119613,19.4654857 C69.1519072,18.1862357 69.7670063,16.6935214 70.2633486,14.9842714 L71.2149252,15.1992714 C71.0367901,15.8058786 70.8434297,16.3725571 70.6333216,16.90545 L72.7481054,16.90545 L72.7481054,17.8130571 L70.2633486,17.8130571 C70.1552495,18.0618429 69.9984297,18.3997 69.7867991,18.8266286 C69.681745,19.0754143 69.6101865,19.2535571 69.5751685,19.3595214 L72.484709,19.3595214 L72.484709,20.2671286 L71.1083486,20.2671286 L71.1083486,21.9733071 L72.854682,21.9733071 L72.854682,22.8809143 L71.1083486,22.8809143 L71.1083486,25.6022 C71.2484207,25.4947 71.7432405,25.03245 72.5897631,24.2139143 C72.6232586,24.6408429 72.6948171,24.9802357 72.8013937,25.2274857 C72.2730784,25.6912714 71.6381865,26.2779143 70.896718,26.98895 C70.7901414,27.0949143 70.6668171,27.2561643 70.5252225,27.4680929 L69.7867991,26.6695214 C70.0684658,26.4207357 70.1917901,26.06445 70.1552495,25.6022 L70.1552495,22.8809143 L68.5170153,22.8809143 L68.5170153,21.9733071 L70.1552495,21.9733071 L70.1552495,20.2671286 L69.5218802,20.2671286 L69.5218802,19.4654857 C69.3117721,19.78645 69.1168892,20.1243071 68.9402766,20.4790571 C68.6570874,19.9108429 68.4819973,19.5745214 68.4119613,19.4654857 L68.4119613,19.4654857 Z" id="Fill-3" fill="#231815"></path>
                <mask id="mask-2" fill="white">
                    <use xlink:href="#path-1"></use>
                </mask>
                <g id="Clip-6"></g>
                <path d="M85.6190541,21.6538786 L89.161964,21.6538786 L89.161964,20.7462714 L85.6190541,20.7462714 L85.6190541,21.6538786 Z M85.6190541,19.9999143 L89.161964,19.9999143 L89.161964,19.0400929 L85.6190541,19.0400929 L85.6190541,19.9999143 Z M85.6190541,18.2937357 L89.161964,18.2937357 L89.161964,17.3861286 L85.6190541,17.3861286 L85.6190541,18.2937357 Z M88.8452793,15.3589857 L89.5852252,14.8783071 C89.9384505,15.3052357 90.2718829,15.7505929 90.5900901,16.2128429 L90.010009,16.5860214 L94.9277568,16.5860214 L94.9277568,17.3861286 L90.0617748,17.3861286 L90.0617748,18.2937357 L94.3461532,18.2937357 L94.3461532,19.0400929 L90.0617748,19.0400929 L90.0617748,19.9999143 L94.3461532,19.9999143 L94.3461532,20.7462714 L90.0617748,20.7462714 L90.0617748,21.6538786 L94.9795225,21.6538786 L94.9795225,22.4539857 L85.6190541,22.4539857 L85.6190541,22.9868786 L84.7192432,22.9868786 L84.7192432,18.3474857 C84.331,18.8097357 83.890991,19.2888786 83.3976937,19.78645 C83.2210811,19.4654857 83.0277207,19.1829143 82.8160901,18.9341286 C84.0858739,17.8668071 85.1257568,16.5691286 85.9372613,15.0395571 L86.7822613,15.4664857 C86.7122252,15.6446286 86.5706306,15.8749857 86.359,16.1590929 C86.2539459,16.3372357 86.1656396,16.4800571 86.0940811,16.5860214 L89.6918018,16.5860214 C89.4451532,16.1590929 89.161964,15.7505929 88.8452793,15.3589857 L88.8452793,15.3589857 Z M88.7402252,22.77495 L89.5852252,22.77495 L89.5852252,23.6272714 L95.0860991,23.6272714 L95.0860991,24.4289143 L90.485036,24.4289143 C91.7548198,25.4240571 93.4463423,26.1166643 95.5626486,26.5082714 C95.351018,26.8277 95.1728829,27.1486643 95.0328108,27.4680929 C92.7764324,26.8277 90.9615856,25.9047357 89.5852252,24.6961286 L89.5852252,27.6293429 L88.7402252,27.6293429 L88.7402252,24.6961286 C87.2923063,25.8678786 85.4774595,26.8108071 83.2926396,27.5218429 C83.2210811,27.3805571 83.0977568,27.1486643 82.9211441,26.8277 C82.8495856,26.7217357 82.7978198,26.6510929 82.7628018,26.6157714 C84.8791081,26.1166643 86.5706306,25.3887357 87.8404144,24.4289143 L83.1860631,24.4289143 L83.1860631,23.6272714 L88.7402252,23.6272714 L88.7402252,22.77495 Z" id="Fill-5" fill="#231815" mask="url(#mask-2)"></path>
                <path d="M99.4954766,18.8270893 L104.306648,18.8270893 L104.306648,16.9596607 L105.259747,16.9596607 L105.259747,18.8270893 L107.692738,18.8270893 L107.692738,19.7331607 L105.259747,19.7331607 L105.259747,23.5755179 C105.329783,24.8900893 104.713161,25.5304821 103.408359,25.4951607 L102.033522,25.4951607 C101.928468,25.0329107 101.840161,24.6950536 101.768603,24.4815893 C101.945215,24.5169107 102.440035,24.5353393 103.250017,24.5353393 C104.026504,24.6075179 104.378206,24.2343393 104.306648,23.4142679 L104.306648,20.3735536 C103.391612,21.8662679 101.856909,23.3083036 99.7071072,24.6950536 C99.5655126,24.3740893 99.3523595,24.0915179 99.0722153,23.8411964 C100.976891,22.773875 102.508549,21.4055536 103.673278,19.7331607 L99.4954766,19.7331607 L99.4954766,18.8270893 Z M98.8605847,26.0818036 L108.167765,26.0818036 L108.167765,16.5327321 L98.8605847,16.5327321 L98.8605847,26.0818036 Z M97.9074856,15.678875 L109.120864,15.678875 L109.120864,27.5745179 L108.167765,27.5745179 L108.167765,26.987875 L98.8605847,26.987875 L98.8605847,27.6282679 L97.9074856,27.6282679 L97.9074856,15.678875 Z" id="Fill-7" fill="#231815" mask="url(#mask-2)"></path>
                <path d="M115.116405,23.8944857 L121.568856,23.8944857 L121.568856,22.3464857 L115.116405,22.3464857 L115.116405,23.8944857 Z M115.116405,21.4941643 L121.568856,21.4941643 L121.568856,19.89395 L115.116405,19.89395 L115.116405,21.4941643 Z M115.116405,27.5755929 L114.111541,27.5755929 L114.111541,21.0672357 C113.478171,21.7782714 112.789991,22.4539857 112.048523,23.0943786 C111.87191,22.8102714 111.67855,22.4893071 111.466919,22.1345571 C113.23,20.6403071 114.58809,19.0923071 115.539667,17.4936286 L111.783604,17.4936286 L111.783604,16.5860214 L116.069505,16.5860214 C116.349649,16.0531286 116.59782,15.5018071 116.80945,14.9320571 L117.866081,15.1455214 C117.796045,15.3589857 117.672721,15.6446286 117.496108,15.9993786 C117.356036,16.2481643 117.249459,16.4447357 117.179423,16.5860214 L124.160189,16.5860214 L124.160189,17.4936286 L116.651108,17.4936286 C116.509514,17.8130571 116.244595,18.2584143 115.856351,18.8266286 C115.786315,18.9341286 115.733027,19.0063071 115.699532,19.0400929 L122.573721,19.0400929 L122.573721,25.9216286 C122.608739,26.88145 122.098694,27.3805571 121.039018,27.4158786 C120.617279,27.4512 119.929099,27.4512 118.977523,27.4158786 C118.942505,27.1317714 118.872468,26.7754857 118.765892,26.3485571 C119.612414,26.4207357 120.265577,26.4545214 120.722333,26.4545214 C121.322207,26.4545214 121.603874,26.2057357 121.568856,25.7097 L121.568856,24.7483429 L115.116405,24.7483429 L115.116405,27.5755929 Z" id="Fill-8" fill="#231815" mask="url(#mask-2)"></path>
                <path d="M132.113847,20.8553071 L136.291649,20.8553071 L136.291649,19.0938429 L132.113847,19.0938429 L132.113847,20.8553071 Z M132.113847,18.2399857 L136.291649,18.2399857 L136.291649,16.5322714 L132.113847,16.5322714 L132.113847,18.2399857 Z M134.333685,24.9080571 C134.333685,25.3365214 134.351955,25.6912714 134.386973,25.9753786 C133.647027,26.2594857 132.888811,26.6326643 132.113847,27.0949143 C132.042288,27.1317714 131.900694,27.2193071 131.690586,27.3621286 C131.548991,27.4680929 131.442414,27.5402714 131.373901,27.5755929 L130.739009,26.7754857 C131.019153,26.4545214 131.160748,26.1535214 131.160748,25.8678786 L131.160748,15.6246643 L137.189937,15.6246643 L137.189937,21.7076286 L134.122054,21.7076286 C134.405243,22.4893071 134.756946,23.2018786 135.18173,23.8407357 C136.061748,23.2740571 136.873252,22.66745 137.613198,22.0270571 L138.299856,22.8287 C138.26636,22.8640214 138.213072,22.9008786 138.143036,22.9346643 C137.153396,23.6457 136.361685,24.1801286 135.761811,24.5348786 C136.466739,25.2812357 137.40309,25.8678786 138.564775,26.2963429 C138.318126,26.6157714 138.089748,26.9167714 137.878117,27.2008786 C135.408586,25.9216286 133.840387,24.0910571 133.170477,21.7076286 L132.113847,21.7076286 L132.113847,26.0813429 C132.464027,25.9047357 133.047153,25.6022 133.857135,25.1752714 C134.070288,25.03245 134.228631,24.9449143 134.333685,24.9080571 L134.333685,24.9080571 Z M130.367514,23.4675571 C130.367514,24.6070571 129.944252,25.24745 129.09773,25.3887357 C128.781045,25.4240571 128.339514,25.4424857 127.77618,25.4424857 C127.77618,25.3365214 127.741162,25.1937 127.671126,25.0155571 C127.636108,24.73145 127.599568,24.51645 127.56455,24.3751643 C127.987811,24.4104857 128.374532,24.4289143 128.727757,24.4289143 C129.186036,24.3920571 129.414414,24.0373071 129.414414,23.3600571 C129.450955,22.4370929 129.027694,21.4050929 128.146153,20.2671286 L129.362649,16.5322714 L127.457973,16.5322714 L127.457973,27.6293429 L126.506396,27.6293429 L126.506396,15.6246643 L130.367514,15.6246643 L130.367514,16.5322714 L129.152541,20.1058786 C129.997541,21.2100571 130.402532,22.3311286 130.367514,23.4675571 L130.367514,23.4675571 Z" id="Fill-9" fill="#231815" mask="url(#mask-2)"></path>
                <path d="M147.575368,15.7317036 L148.526944,15.358525 C149.445025,17.7434893 150.924917,19.5387393 152.969665,20.7473464 C152.723016,20.9961321 152.458097,21.3170964 152.176431,21.7087036 C149.990088,20.142275 148.456908,18.1519893 147.575368,15.7317036 L147.575368,15.7317036 Z M148.315314,22.453525 C148.703557,22.9173107 149.233395,23.5577036 149.901782,24.3747036 C150.854881,25.5126679 151.594827,26.366525 152.123142,26.936275 L151.224854,27.6288821 C151.1198,27.5229179 150.976683,27.344775 150.801593,27.0944536 C150.554944,26.775025 150.360061,26.5431321 150.219989,26.4018464 C148.915187,26.4371679 147.047052,26.5262393 144.614061,26.6690607 C143.979169,26.7043821 143.50262,26.7397036 143.185935,26.775025 C142.83271,26.775025 142.340935,26.8456679 141.706043,26.9884893 L141.227971,25.9749179 C141.651232,25.7983107 142.004458,25.5664179 142.286124,25.2823107 C143.52089,23.894025 144.684097,22.206275 145.777268,20.2144536 L146.88871,20.6935964 C146.112223,22.045025 144.895728,23.754275 143.237701,25.8152036 C145.002305,25.7445607 147.08207,25.6554893 149.480043,25.549525 C148.878647,24.7663107 148.210259,23.9493107 147.470314,23.0939179 L148.315314,22.453525 Z M140.171341,21.174275 C142.146052,19.7168821 143.609196,17.8494536 144.560773,15.5719893 L145.565638,15.9989179 C144.402431,18.4529893 142.867728,20.4448107 140.964575,21.9728464 C140.754467,21.7255964 140.488025,21.4583821 140.171341,21.174275 L140.171341,21.174275 Z" id="Fill-10" fill="#231815" mask="url(#mask-2)"></path>
                <path d="M157.008613,24.3214143 L161.716252,24.3214143 L161.716252,21.6016643 L157.008613,21.6016643 L157.008613,24.3214143 Z M156.003748,20.6940571 L162.719595,20.6940571 L162.719595,25.2274857 L157.008613,25.2274857 L157.008613,26.0813429 L156.003748,26.0813429 L156.003748,20.6940571 Z M155.475432,16.6397714 L155.475432,15.67995 L166.527423,15.67995 L166.527423,25.6022 C166.598982,26.8461286 166.034126,27.4680929 164.835901,27.4680929 L162.40291,27.4680929 C162.367892,27.1839857 162.278063,26.8108071 162.139514,26.3485571 C162.667829,26.3838786 163.479333,26.4023071 164.570982,26.4023071 C165.205874,26.4360929 165.524081,26.1535214 165.524081,25.54845 L165.524081,16.6397714 L155.475432,16.6397714 Z M154.733964,19.1460571 L164.465928,19.1460571 L164.465928,18.1862357 L154.733964,18.1862357 L154.733964,19.1460571 Z" id="Fill-11" fill="#231815" mask="url(#mask-2)"></path>
                <path d="M54.7489964,31.9227393 L53.474645,31.9227393 L53.474645,33.676525 L54.8418703,33.676525 C55.566591,33.676525 55.9304739,33.3709179 55.9304739,32.7643107 C55.8832757,32.2344893 55.4904649,31.9549893 54.7489964,31.9227393 M54.6789604,29.8909893 L53.474645,29.8909893 L53.474645,31.4543464 L54.6789604,31.4543464 C55.3123297,31.4251679 55.6609874,31.1441321 55.7234108,30.6143107 C55.6914378,30.1474536 55.3443027,29.9063464 54.6789604,29.8909893 M54.9103838,34.095775 L52.9889604,34.095775 L52.9889604,29.4225964 L54.7946721,29.4225964 C55.7234108,29.4686679 56.2167081,29.8587393 56.277609,30.591275 C56.2319333,31.1671679 55.9228613,31.5096321 55.3519153,31.6186679 L55.3519153,31.6417036 C56.0477081,31.752275 56.4176811,32.1484893 56.4633568,32.8349536 C56.4176811,33.644275 55.9000234,34.0650607 54.9103838,34.095775" id="Fill-12" fill="#231815" mask="url(#mask-2)"></path>
                <polygon id="Fill-13" fill="#231815" mask="url(#mask-2)" points="57.8535721 33.6759107 60.7950856 33.6759107 60.7950856 34.0951607 57.3191667 34.0951607 57.3191667 29.4219821 60.656536 29.4219821 60.656536 29.8673393 57.8535721 29.8673393 57.8535721 31.4552679 60.4936261 31.4552679 60.4936261 31.922125 57.8535721 31.922125"></polygon>
                <path d="M64.6871099,34.095775 L62.2784793,30.3563107 C62.2008306,30.2319179 62.1307946,30.0768107 62.0698937,29.8909893 L62.0470559,29.8909893 C62.0927315,30.0768107 62.1170919,30.3348107 62.1170919,30.6619179 L62.1170919,34.095775 L61.6070468,34.095775 L61.6070468,29.4225964 L62.2084432,29.4225964 L64.594236,33.1835607 C64.6871099,33.3402036 64.7480108,33.4661321 64.7799838,33.558275 L64.8028216,33.558275 C64.7723712,33.3248464 64.7571459,33.0837393 64.7571459,32.8349536 L64.7571459,29.4225964 L65.267191,29.4225964 L65.267191,34.095775 L64.6871099,34.095775 Z" id="Fill-14" fill="#231815" mask="url(#mask-2)"></path>
                <path d="M69.4122586,34.095775 L68.1150694,32.2728821 C68.0526459,32.1638464 67.9993577,32.0717036 67.953682,31.9933821 C67.9369342,32.0087393 67.9156189,32.0548107 67.8836459,32.1331321 C67.8379703,32.1960964 67.8059973,32.2421679 67.7922946,32.2728821 L66.4479072,34.095775 L65.7993126,34.095775 L67.6293847,31.7123464 L66.030736,29.4225964 L66.633655,29.4225964 L67.7679342,31.0811679 C67.7983847,31.1441321 67.8455829,31.2378107 67.9080063,31.3622036 C67.921709,31.408275 67.9369342,31.440525 67.953682,31.4543464 C68.0145829,31.3468464 68.0922315,31.2209179 68.1851054,31.0811679 L69.2965468,29.4225964 L69.9223036,29.4225964 L68.2779793,31.7123464 L70.083691,34.095775 L69.4122586,34.095775 Z" id="Fill-15" fill="#231815" mask="url(#mask-2)"></path>
                <polygon id="Fill-16" fill="#231815" mask="url(#mask-2)" points="70.7318288 34.0962357 71.2418739 34.0962357 71.2418739 29.4230571 70.7318288 29.4230571"></polygon>
                <path d="M75.5975063,29.7960821 C74.8712631,29.812975 74.4936775,30.0771179 74.463227,30.5915821 C74.4464793,30.9801179 74.8408126,31.2611536 75.643182,31.4316179 C76.9099207,31.6665821 77.5128396,32.1487964 77.4519387,32.8813321 C77.3742901,33.6906536 76.8033441,34.1191179 75.7375784,34.166725 C74.594164,34.1959036 73.9303441,33.7305821 73.7445964,32.7646179 L74.2774793,32.5772607 C74.3855784,33.3881179 74.865173,33.7766536 75.713218,33.7444036 C76.4699117,33.7305821 76.864245,33.4341893 76.896218,32.8567607 C76.9723441,32.4221536 76.5399477,32.1104036 75.5975063,31.9230464 C74.4236414,31.6880821 73.8679207,31.2442607 73.9303441,30.5915821 C73.991245,29.7960821 74.5332631,29.3768321 75.5518306,29.3276893 C76.555173,29.3276893 77.1504793,29.7576893 77.336227,30.6146179 L76.7789838,30.7789393 C76.6099838,30.124725 76.2156505,29.7960821 75.5975063,29.7960821" id="Fill-17" fill="#231815" mask="url(#mask-2)"></path>
                <polygon id="Fill-18" fill="#231815" mask="url(#mask-2)" points="81.6207577 29.4225964 81.6207577 29.8664179 80.0464694 29.8664179 80.0464694 34.095775 79.512064 34.095775 79.512064 29.8664179 77.9377757 29.8664179 77.9377757 29.4225964"></polygon>
                <polygon id="Fill-19" fill="#231815" mask="url(#mask-2)" points="82.7789405 33.6759107 85.7219766 33.6759107 85.7219766 34.0951607 82.2460577 34.0951607 82.2460577 29.4219821 85.5819045 29.4219821 85.5819045 29.8673393 82.7789405 29.8673393 82.7789405 31.4552679 85.4189946 31.4552679 85.4189946 31.922125 82.7789405 31.922125"></polygon>
                <polygon id="Fill-20" fill="#231815" mask="url(#mask-2)" points="87.0878315 33.6759107 90.0308676 33.6759107 90.0308676 34.0951607 86.5549486 34.0951607 86.5549486 29.4219821 89.8907955 29.4219821 89.8907955 29.8673393 87.0878315 29.8673393 87.0878315 31.4552679 89.7278856 31.4552679 89.7278856 31.922125 87.0878315 31.922125"></polygon>
                <polygon id="Fill-21" fill="#231815" mask="url(#mask-2)" points="90.8183162 34.095775 90.8183162 29.4225964 91.3511991 29.4225964 91.3511991 33.676525 93.7369919 33.676525 93.7369919 34.095775"></polygon>
                <path d="M98.2540117,31.6886964 L100.246994,31.6886964 L100.246994,33.394875 C99.860273,33.9078036 99.1949306,34.1658036 98.2540117,34.1658036 C96.8015252,34.0874821 96.0372189,33.3104107 95.9595703,31.8299821 C96.0204712,30.2405179 96.7558495,29.4158393 98.1596153,29.352875 C99.1949306,29.3682321 99.8815883,29.8274107 100.222633,30.7319464 L99.6440748,30.8716964 C99.3959036,30.1852321 98.8949937,29.836625 98.1383,29.8197321 C97.1486604,29.9134107 96.6096874,30.5753036 96.515291,31.8054107 C96.5929396,33.0048036 97.1638856,33.6513393 98.2296514,33.7450179 C98.9254441,33.7450179 99.4278766,33.5591964 99.7369486,33.1844821 L99.7369486,32.1325179 L98.2540117,32.1325179 L98.2540117,31.6886964 Z" id="Fill-22" fill="#231815" mask="url(#mask-2)"></path>
                <path d="M101.658829,29.8905286 L101.658829,31.5245286 L103.164604,31.5245286 C103.921297,31.5107071 104.298883,31.2204571 104.298883,30.6614571 C104.28518,30.1638857 103.906072,29.9058857 103.164604,29.8905286 L101.658829,29.8905286 Z M105.203261,34.0953143 L104.484631,34.0953143 L102.887505,31.9929214 L101.658829,31.9929214 L101.658829,34.0953143 L101.125946,34.0953143 L101.125946,29.4221357 L103.280315,29.4221357 C104.268432,29.4697429 104.795225,29.8905286 104.856126,30.6844929 C104.856126,31.49535 104.393279,31.9314929 103.466063,31.9929214 L105.203261,34.0953143 Z" id="Fill-23" fill="#231815" mask="url(#mask-2)"></path>
                <path d="M107.820325,29.8200393 C106.801758,29.9137179 106.238424,30.5756107 106.130325,31.8057179 C106.191226,33.0051107 106.739334,33.6516464 107.77465,33.745325 C108.855641,33.6838964 109.426586,33.0373607 109.48901,31.8057179 C109.396136,30.5756107 108.840415,29.9137179 107.820325,29.8200393 M107.797487,34.1661107 C106.393722,34.0877893 105.658343,33.3168607 105.597442,31.8517893 C105.658343,30.2638607 106.415037,29.4299679 107.867523,29.3516464 C109.242361,29.445325 109.974695,30.2638607 110.069091,31.8057179 C110.006668,33.3168607 109.248451,34.1031464 107.797487,34.1661107" id="Fill-24" fill="#231815" mask="url(#mask-2)"></path>
                <path d="M114.493237,29.4225964 L114.493237,32.1561679 C114.508462,33.5106679 113.890318,34.181775 112.638805,34.1664179 C111.417741,34.181775 110.816345,33.5106679 110.833093,32.1561679 L110.833093,29.4225964 L111.364453,29.4225964 L111.364453,32.1331321 C111.35075,33.2388464 111.774012,33.7763464 112.638805,33.7440964 C113.566021,33.7763464 114.013642,33.2388464 113.983192,32.1331321 L113.983192,29.4225964 L114.493237,29.4225964 Z" id="Fill-25" fill="#231815" mask="url(#mask-2)"></path>
                <path d="M117.388009,29.8905286 L116.043622,29.8905286 L116.043622,31.7349214 L117.388009,31.7349214 C118.129477,31.7195643 118.507063,31.4001357 118.522288,30.7781714 C118.491838,30.2022786 118.114252,29.9058857 117.388009,29.8905286 M117.480883,32.2033143 L116.043622,32.2033143 L116.043622,34.0953143 L115.535099,34.0953143 L115.535099,29.4221357 L117.528081,29.4221357 C118.469,29.4697429 118.986658,29.9289214 119.079532,30.8012071 C119.064306,31.7195643 118.531423,32.1879571 117.480883,32.2033143" id="Fill-26" fill="#231815" mask="url(#mask-2)"></path>
                <path d="M124.823705,32.4835821 L125.426623,32.6248679 C125.132777,33.6369036 124.461344,34.1498321 123.410804,34.166725 C122.083164,34.0884036 121.379759,33.317475 121.30211,31.8524036 C121.364533,30.264475 122.083164,29.4305821 123.458002,29.3522607 C124.33802,29.382975 124.963777,29.8360107 125.33375,30.7082964 L124.755191,30.8495821 C124.475047,30.178475 124.028948,29.8360107 123.410804,29.8206536 C122.468362,29.9127964 121.950705,30.576225 121.859353,31.8063321 C121.920254,33.005725 122.430299,33.6522607 123.387966,33.7444036 C124.144659,33.715225 124.622732,33.2929036 124.823705,32.4835821" id="Fill-27" fill="#231815" mask="url(#mask-2)"></path>
                <path d="M128.228674,29.8200393 C127.210106,29.9137179 126.646773,30.5756107 126.538674,31.8057179 C126.601097,33.0051107 127.147683,33.6516464 128.182998,33.745325 C129.263989,33.6838964 129.836458,33.0373607 129.897359,31.8057179 C129.804485,30.5756107 129.248764,29.9137179 128.228674,29.8200393 M128.205836,34.1661107 C126.80207,34.0877893 126.066692,33.3168607 126.005791,31.8517893 C126.066692,30.2638607 126.823386,29.4299679 128.275872,29.3516464 C129.65071,29.445325 130.383043,30.2638607 130.47744,31.8057179 C130.415016,33.3168607 129.6568,34.1031464 128.205836,34.1661107" id="Fill-28" fill="#231815" mask="url(#mask-2)"></path>
                <path d="M131.773259,29.8905286 L131.773259,31.5245286 L133.279033,31.5245286 C134.035727,31.5107071 134.414835,31.2204571 134.414835,30.6614571 C134.39961,30.1638857 134.022024,29.9058857 133.279033,29.8905286 L131.773259,29.8905286 Z M135.317691,34.0953143 L134.59906,34.0953143 L133.001934,31.9929214 L131.773259,31.9929214 L131.773259,34.0953143 L131.240376,34.0953143 L131.240376,29.4221357 L133.394745,29.4221357 C134.384385,29.4697429 134.909655,29.8905286 134.970556,30.6844929 C134.970556,31.49535 134.507709,31.9314929 133.580493,31.9929214 L135.317691,34.0953143 Z" id="Fill-29" fill="#231815" mask="url(#mask-2)"></path>
                <path d="M137.750377,29.8905286 L136.40599,29.8905286 L136.40599,31.7349214 L137.750377,31.7349214 C138.491846,31.7195643 138.869432,31.4001357 138.886179,30.7781714 C138.855729,30.2022786 138.476621,29.9058857 137.750377,29.8905286 M137.843251,32.2033143 L136.40599,32.2033143 L136.40599,34.0953143 L135.897468,34.0953143 L135.897468,29.4221357 L137.89045,29.4221357 C138.831368,29.4697429 139.349026,29.9289214 139.4419,30.8012071 C139.426675,31.7195643 138.893792,32.1879571 137.843251,32.2033143" id="Fill-30" fill="#231815" mask="url(#mask-2)"></path>
                <path d="M142.245016,29.8200393 C141.224926,29.9137179 140.661593,30.5756107 140.553494,31.8057179 C140.615917,33.0051107 141.164025,33.6516464 142.199341,33.745325 C143.278809,33.6838964 143.851277,33.0373607 143.912178,31.8057179 C143.819305,30.5756107 143.263584,29.9137179 142.245016,29.8200393 M142.220656,34.1661107 C140.81689,34.0877893 140.081512,33.3168607 140.020611,31.8517893 C140.081512,30.2638607 140.839728,29.4299679 142.290692,29.3516464 C143.66553,29.445325 144.399386,30.2638607 144.492259,31.8057179 C144.429836,33.3168607 143.67162,34.1031464 142.220656,34.1661107" id="Fill-31" fill="#231815" mask="url(#mask-2)"></path>
                <path d="M145.788231,29.8905286 L145.788231,31.5245286 L147.294005,31.5245286 C148.050699,31.5107071 148.429807,31.2204571 148.429807,30.6614571 C148.414582,30.1638857 148.036996,29.9058857 147.294005,29.8905286 L145.788231,29.8905286 Z M149.332663,34.0953143 L148.614032,34.0953143 L147.016906,31.9929214 L145.788231,31.9929214 L145.788231,34.0953143 L145.255348,34.0953143 L145.255348,29.4221357 L147.409717,29.4221357 C148.399357,29.4697429 148.924627,29.8905286 148.98705,30.6844929 C148.98705,31.49535 148.522681,31.9314929 147.595465,31.9929214 L149.332663,34.0953143 Z" id="Fill-32" fill="#231815" mask="url(#mask-2)"></path>
                <path d="M150.70065,32.2271179 L152.437848,32.2271179 L151.673541,30.2399036 C151.656794,30.1631179 151.626343,30.0540821 151.580668,29.9127964 C151.534992,30.0540821 151.495406,30.1631179 151.464956,30.2399036 L150.70065,32.2271179 Z M153.203677,34.0960821 L152.623595,32.6709393 L150.514902,32.6709393 L149.959181,34.0960821 L149.401938,34.0960821 L151.279208,29.4229036 L151.834929,29.4229036 L153.757875,34.0960821 L153.203677,34.0960821 Z" id="Fill-33" fill="#231815" mask="url(#mask-2)"></path>
                <polygon id="Fill-34" fill="#231815" mask="url(#mask-2)" points="157.604071 29.4225964 157.604071 29.8664179 156.02826 29.8664179 156.02826 34.095775 155.495377 34.095775 155.495377 29.8664179 153.921089 29.8664179 153.921089 29.4225964"></polygon>
                <polygon id="Fill-35" fill="#231815" mask="url(#mask-2)" points="158.32255 34.0962357 158.831072 34.0962357 158.831072 29.4230571 158.32255 29.4230571"></polygon>
                <path d="M161.959095,29.8200393 C160.939005,29.9137179 160.375671,30.5756107 160.269095,31.8057179 C160.329995,33.0051107 160.878104,33.6516464 161.913419,33.745325 C162.992887,33.6838964 163.565356,33.0373607 163.626257,31.8057179 C163.533383,30.5756107 162.977662,29.9137179 161.959095,29.8200393 M161.934734,34.1661107 C160.530968,34.0877893 159.797113,33.3168607 159.734689,31.8517893 C159.797113,30.2638607 160.553806,29.4299679 162.00477,29.3516464 C163.379608,29.445325 164.113464,30.2638607 164.206338,31.8057179 C164.143914,33.3168607 163.385698,34.1031464 161.934734,34.1661107" id="Fill-36" fill="#231815" mask="url(#mask-2)"></path>
                <path d="M168.028326,34.095775 L165.618173,30.3563107 C165.540524,30.2319179 165.472011,30.0768107 165.409587,29.8909893 L165.388272,29.8909893 C165.433948,30.0768107 165.458308,30.3348107 165.458308,30.6619179 L165.458308,34.095775 L164.948263,34.095775 L164.948263,29.4225964 L165.549659,29.4225964 L167.93393,33.1835607 C168.028326,33.3402036 168.089227,33.4661321 168.1212,33.558275 L168.144038,33.558275 C168.113587,33.3248464 168.098362,33.0837393 168.098362,32.8349536 L168.098362,29.4225964 L168.606885,29.4225964 L168.606885,34.095775 L168.028326,34.095775 Z" id="Fill-37" fill="#231815" mask="url(#mask-2)"></path>
                <polygon id="Fill-38" fill="#102D55" mask="url(#mask-2)" points="6.27522883 22.91685 2.96526486 22.91685 0.000913513514 29.4620643 9.83336396 29.4620643"></polygon>
                <polygon id="Fill-39" fill="#102D55" mask="url(#mask-2)" points="10.8070171 22.91685 14.1169811 22.91685 17.0813324 29.4620643 7.24888198 29.4620643"></polygon>
                <polygon id="Fill-40" fill="#102D55" mask="url(#mask-2)" points="34.2500577 22.91685 30.9400937 22.91685 27.9742198 29.4620643 37.8081928 29.4620643"></polygon>
                <polygon id="Fill-41" fill="#102D55" mask="url(#mask-2)" points="38.7818459 22.91685 42.0918099 22.91685 45.0561613 29.4620643 35.2221883 29.4620643"></polygon>
                <path d="M20.5115757,40.3241714 C20.5115757,41.4022429 21.377891,42.2760643 22.4482243,42.2760643 C23.5185577,42.2760643 24.384873,41.4022429 24.384873,40.3241714 L25.7658009,3.34724286 C25.7658009,1.49824286 24.2813414,-0.000614285714 22.4482243,-0.000614285714 C20.6151072,-0.000614285714 19.1306477,1.49824286 19.1306477,3.34724286 L20.5115757,40.3241714 Z" id="Fill-42" fill="#102D55" mask="url(#mask-2)"></path>
                <path d="M36.5635306,21.2057571 C35.4901523,21.2057571 34.5263955,20.4532571 34.291927,19.35215 C33.1028369,13.7652214 28.1211432,9.71093571 22.4482243,9.71093571 C16.7753054,9.71093571 11.7936117,13.7652214 10.6045216,19.35215 C10.3350351,20.6191143 9.09874685,21.4238286 7.84418829,21.1535429 C6.58810721,20.8817214 5.78726036,19.6347214 6.05826937,18.3662214 C7.70411622,10.6323643 14.5965757,5.01932857 22.4482243,5.01932857 C30.299873,5.01932857 37.1923324,10.6323643 38.8381793,18.3662214 C39.1091883,19.6347214 38.3083414,20.8817214 37.0537829,21.1535429 C36.8893505,21.1888643 36.7233955,21.2057571 36.5635306,21.2057571" id="Fill-43" fill="#102D55" mask="url(#mask-2)"></path>
                <path d="M22.4489856,38.8423607 C15.917364,38.8423607 9.93537297,34.9646821 7.21005766,28.9600393 L11.4396252,27.0081464 C13.4097694,31.348075 17.7306883,34.1507536 22.4489856,34.1507536 C27.1657604,34.1507536 31.4882018,31.3465393 33.4568234,27.0081464 L37.686391,28.961575 C34.9610757,34.9646821 28.9790847,38.8423607 22.4489856,38.8423607" id="Fill-44" fill="#102D55" mask="url(#mask-2)"></path>
            </g>
        </g>
    </g>
</svg>