<?xml version="1.0" encoding="UTF-8"?>
<svg width="232px" height="60px" viewBox="0 0 232 60" version="1.1" xmlns="http://www.w3.org/2000/svg" xmlns:xlink="http://www.w3.org/1999/xlink">
    <!-- Generator: Sketch 53.2 (72643) - https://sketchapp.com -->
    <title>19.国药</title>
    <desc>Created with Sketch.</desc>
    <defs>
        <polygon id="path-1" points="0 0.293922549 2.22352523 0.293922549 2.22352523 3.03742255 0 3.03742255"></polygon>
        <polygon id="path-3" points="0 30.8386176 196.873357 30.8386176 196.873357 -1.42108547e-14 0 -1.42108547e-14"></polygon>
    </defs>
    <g id="19.国药" stroke="none" stroke-width="1" fill="none" fill-rule="evenodd">
        <g id="19" transform="translate(0.000000, -25.000000)">
            <rect id="矩形复制-24" x="0" y="0" width="232" height="110"></rect>
            <g id="编组" transform="translate(18.000000, 40.000000)">
                <g transform="translate(0.000000, 27.799402)">
                    <mask id="mask-2" fill="white">
                        <use xlink:href="#path-1"></use>
                    </mask>
                    <g id="Clip-2"></g>
                    <path d="M1.10140365,3.03742255 C0.93045076,3.03742255 0.781054103,3.01797157 0.652315502,2.98210882 C0.522678723,2.94381471 0.413101216,2.89336373 0.323283587,2.82771667 C0.234364134,2.76328529 0.162210638,2.68426569 0.108320061,2.59369706 C0.0547288754,2.50373627 0.0188018237,2.40344216 -5.98784195e-05,2.29676569 L0.485254711,2.29676569 C0.502020669,2.36271667 0.527468997,2.42319706 0.559204559,2.48215784 C0.590341337,2.5392951 0.633453799,2.58761863 0.681955319,2.63107941 C0.732552584,2.67302059 0.790335258,2.70675588 0.858297264,2.72894216 C0.927456839,2.75477549 1.00499939,2.76662843 1.09511641,2.76662843 C1.15499483,2.76662843 1.21487325,2.75963824 1.27415289,2.74900098 C1.33223495,2.73745196 1.38402979,2.71800098 1.43013617,2.69216765 C1.47654195,2.66451078 1.51276839,2.63107941 1.54121064,2.58853039 C1.56995228,2.54537353 1.58402371,2.49370686 1.58402371,2.43109902 C1.58402371,2.35177549 1.56186869,2.28400098 1.51725927,2.22108922 C1.47504498,2.16152059 1.41726231,2.1052951 1.34510881,2.05666765 C1.27415289,2.00682451 1.19241884,1.95789314 1.10140365,1.9150402 C1.00889149,1.87127549 0.916379331,1.82781471 0.819975076,1.78465784 C0.72626535,1.74058922 0.633453799,1.6953049 0.540342857,1.64728529 C0.448130091,1.60048137 0.367893009,1.54699118 0.295140729,1.48620686 C0.223286626,1.42785392 0.166102736,1.35977549 0.122391489,1.28592255 C0.0789796353,1.21176569 0.0583215805,1.1260598 0.0583215805,1.02941275 C0.0583215805,0.924559804 0.0819735562,0.826393137 0.131972036,0.737344118 C0.180174164,0.647079412 0.252926444,0.568363725 0.347534347,0.503628431 C0.441842857,0.438893137 0.558006991,0.387226471 0.693032827,0.348932353 C0.830753191,0.31155 0.985239514,0.293922549 1.15948571,0.293922549 C1.30379271,0.293922549 1.43402827,0.31155 1.55049179,0.348932353 C1.66905106,0.387226471 1.76964681,0.435853922 1.85886565,0.500285294 C1.9480845,0.564716667 2.02353131,0.639177451 2.08520608,0.726402941 C2.1450845,0.813020588 2.19208906,0.906628431 2.22352523,1.00661863 L1.78192188,1.00661863 C1.75647356,0.943706863 1.72623495,0.884442157 1.69390061,0.827912745 C1.66036869,0.769863725 1.6184538,0.719412745 1.56995228,0.676255882 C1.51875623,0.634618627 1.4591772,0.599059804 1.39031702,0.574442157 C1.32115745,0.547393137 1.23762705,0.535844118 1.13912705,0.535844118 C1.04811185,0.535844118 0.972665046,0.547393137 0.907996353,0.568363725 C0.845124012,0.590853922 0.795424924,0.619422549 0.755306383,0.651942157 C0.718481155,0.687804902 0.689739514,0.72427549 0.672374772,0.768344118 C0.654710638,0.810285294 0.646627052,0.850402941 0.646627052,0.892040196 C0.646627052,0.961942157 0.670877812,1.02606961 0.715187842,1.08381471 C0.758599696,1.14216765 0.818178723,1.19565784 0.893924924,1.24428529 C0.96757538,1.29200098 1.05110578,1.33910882 1.14571368,1.3853049 C1.23912401,1.43089314 1.33552827,1.47617745 1.43402827,1.52115784 C1.5313307,1.56796176 1.62773495,1.61446176 1.72234286,1.66491275 C1.81784894,1.71414804 1.90227751,1.76946176 1.97652675,1.82933431 C2.0501772,1.88890294 2.11005562,1.95515784 2.15346748,2.02931471 C2.19897508,2.10195196 2.22142948,2.18401078 2.22142948,2.2757951 C2.22142948,2.38399118 2.1980769,2.48428529 2.14927599,2.57606961 C2.10017568,2.66815784 2.02981854,2.74900098 1.93521064,2.81616765 C1.84150091,2.88728529 1.72354043,2.93864804 1.58402371,2.97906961 C1.4442076,3.01797157 1.28373343,3.03742255 1.10140365,3.03742255" id="Fill-1" fill="#717071" mask="url(#mask-2)"></path>
                </g>
                <mask id="mask-4" fill="white">
                    <use xlink:href="#path-3"></use>
                </mask>
                <g id="Clip-4"></g>
                <polygon id="Fill-3" fill="#717071" mask="url(#mask-4)" points="2.75560486 30.8367941 3.48103191 30.8367941 3.48103191 28.0932941 2.75560486 28.0932941"></polygon>
                <path d="M8.88703526,30.6142324 C9.02475562,30.6142324 9.14571003,30.584752 9.25229362,30.5257912 C9.35738024,30.4677422 9.4460003,30.386899 9.51725562,30.2814382 C9.5900079,30.1781049 9.64359909,30.0544088 9.68012492,29.9124775 C9.71635137,29.7690265 9.73461429,29.6146343 9.73461429,29.4444382 C9.73461429,29.278801 9.71635137,29.127448 9.68012492,28.987948 C9.64359909,28.8511833 9.5900079,28.7317422 9.51725562,28.6323598 C9.4460003,28.5320657 9.35738024,28.4545657 9.25229362,28.3983402 C9.14571003,28.3427225 9.02475562,28.3174971 8.88703526,28.3174971 C8.74632097,28.3174971 8.62207325,28.3427225 8.51728602,28.3983402 C8.41010365,28.4545657 8.32178298,28.5320657 8.24962948,28.6323598 C8.18017052,28.7317422 8.12598055,28.8511833 8.08825714,28.987948 C8.0520307,29.127448 8.03406717,29.278801 8.03406717,29.4444382 C8.03406717,29.6146343 8.0520307,29.7690265 8.08825714,29.9124775 C8.12598055,30.0544088 8.18017052,30.1781049 8.24962948,30.2814382 C8.32178298,30.386899 8.41010365,30.4677422 8.51728602,30.5257912 C8.62207325,30.584752 8.74632097,30.6142324 8.88703526,30.6142324 M8.88703526,30.8367029 C8.73284833,30.8367029 8.58554742,30.820899 8.44812644,30.7902029 C8.30711277,30.7573794 8.17747599,30.7139186 8.05801854,30.6558696 C7.93915988,30.5981245 7.82868419,30.5285265 7.73168116,30.4464676 C7.63258237,30.3644088 7.54905198,30.270801 7.48049119,30.1668598 C7.41073283,30.0638304 7.35774043,29.9507716 7.32031641,29.8307225 C7.28019787,29.7091539 7.26223435,29.5802912 7.26223435,29.4444382 C7.26223435,29.3128402 7.28019787,29.1873206 7.32031641,29.0678794 C7.35774043,28.9496539 7.41073283,28.8402422 7.48049119,28.739948 C7.54905198,28.6402618 7.63258237,28.5512127 7.73168116,28.4694578 C7.82868419,28.3904382 7.93915988,28.3205363 8.05801854,28.2658304 C8.17747599,28.2108206 8.30711277,28.1688794 8.44812644,28.1384873 C8.58554742,28.1077912 8.73284833,28.0932029 8.88703526,28.0932029 C9.03912644,28.0932029 9.184631,28.1077912 9.32444711,28.1384873 C9.46426322,28.1688794 9.5939,28.2108206 9.71305805,28.26735 C9.8325155,28.3226637 9.9423924,28.3919578 10.0393954,28.4718892 C10.1387936,28.5512127 10.2232222,28.6402618 10.2908848,28.739948 C10.3621401,28.8402422 10.413935,28.9496539 10.4516584,29.0678794 C10.4908787,29.1848892 10.5097404,29.3094971 10.5097404,29.4417029 C10.5097404,29.5802912 10.4908787,29.712801 10.4516584,29.8352814 C10.413935,29.9577618 10.3621401,30.0726441 10.2908848,30.17385 C10.2232222,30.2771833 10.1387936,30.3701833 10.0393954,30.4516343 C9.9423924,30.5336931 9.8325155,30.6029873 9.71305805,30.6607324 C9.5939,30.7190853 9.46426322,30.7607225 9.32444711,30.7917225 C9.184631,30.8224186 9.03912644,30.8367029 8.88703526,30.8367029" id="Fill-5" fill="#717071" mask="url(#mask-4)"></path>
                <path d="M11.8179641,29.3905225 L12.0559809,29.3905225 C12.1374155,29.3905225 12.2098684,29.3753265 12.270645,29.3482775 C12.3335173,29.3206206 12.3838152,29.2832382 12.4245325,29.2352186 C12.4658486,29.1887186 12.4972848,29.1337088 12.5170447,29.0707971 C12.5362058,29.0078853 12.5472833,28.9434539 12.5472833,28.8759833 C12.5472833,28.7930127 12.5329125,28.7191598 12.5077635,28.656248 C12.4811176,28.5912088 12.4448912,28.5365029 12.3978866,28.4933461 C12.3526784,28.4495814 12.2969915,28.4164539 12.2347179,28.3933559 C12.1715462,28.3708657 12.1053805,28.3599245 12.034724,28.3599245 L11.8179641,28.3599245 L11.8179641,29.3905225 Z M11.0874474,28.0930814 L12.1200508,28.0930814 C12.2865128,28.0930814 12.4415979,28.1094931 12.5877012,28.1432284 C12.732607,28.1742284 12.8577529,28.2237676 12.9649353,28.2891108 C13.072417,28.3514147 13.1568456,28.4319539 13.2185204,28.5289049 C13.2801951,28.6240324 13.3107331,28.7383069 13.3107331,28.8662578 C13.3107331,28.9951206 13.2801951,29.1093951 13.2200173,29.2048265 C13.1583426,29.3014735 13.0778061,29.3820127 12.9790067,29.4446206 C12.8802073,29.5096598 12.7673365,29.5579833 12.6385979,29.5914147 C12.5116556,29.6227186 12.3808213,29.6403461 12.2463942,29.6403461 L11.8179641,29.6403461 L11.8179641,30.8368853 L11.0874474,30.8368853 L11.0874474,28.0930814 Z" id="Fill-6" fill="#717071" mask="url(#mask-4)"></path>
                <polygon id="Fill-7" fill="#717071" mask="url(#mask-4)" points="14.6412915 29.5323931 14.6412915 30.838648 13.9152657 30.838648 13.9152657 28.0933245 14.6412915 28.0933245 14.6412915 29.2950304 15.8355666 29.2950304 15.8355666 28.0933245 16.5547064 28.0933245 16.5547064 30.838648 15.8355666 30.838648 15.8355666 29.5323931"></polygon>
                <path d="M21.3109391,29.3561186 L21.4693175,29.3561186 C21.5594345,29.3561186 21.6405698,29.3463931 21.716316,29.3223833 C21.7929603,29.2992853 21.8582278,29.2658539 21.9124178,29.2223931 C21.9690029,29.180148 22.0133129,29.1275696 22.0447491,29.0655696 C22.0755865,29.0026578 22.0917536,28.9318441 22.0917536,28.854952 C22.0917536,28.7820108 22.0812749,28.7160598 22.0558266,28.6561873 C22.0318752,28.595099 21.9992415,28.5434324 21.9555302,28.498148 C21.9124178,28.4543833 21.8600242,28.4188245 21.8034391,28.3948147 C21.7426625,28.3723245 21.6785926,28.3601676 21.607936,28.3601676 L21.3109391,28.3601676 L21.3109391,29.3561186 Z M20.5846138,28.0933245 L21.6989512,28.0933245 C21.8908616,28.0933245 22.0588205,28.110952 22.2034269,28.1483343 C22.3462369,28.1866284 22.4674907,28.2382951 22.5632962,28.30455 C22.6588023,28.3723245 22.7309558,28.4513441 22.7782597,28.5419127 C22.82736,28.6333931 22.8504132,28.7315598 22.8504132,28.8403637 C22.8504132,28.9175598 22.8348448,28.9914127 22.8016123,29.0607069 C22.7695774,29.1309127 22.7222734,29.1962559 22.6632932,29.2549127 C22.6040135,29.3126578 22.533357,29.3643245 22.4480302,29.4114324 C22.3656974,29.4561088 22.2728859,29.4928833 22.1716913,29.5238833 L23.2276473,30.8368245 L22.4399467,30.8368245 L21.4420728,29.5931775 L21.3109391,29.5931775 L21.3109391,30.8368245 L20.5846138,30.8368245 L20.5846138,28.0933245 Z" id="Fill-8" fill="#717071" mask="url(#mask-4)"></path>
                <polygon id="Fill-9" fill="#717071" mask="url(#mask-4)" points="23.6062286 28.0932333 24.3151891 28.0932333 25.33911 29.9675176 26.3510553 28.0932333 27.0462438 28.0932333 27.0462438 30.8367333 26.3184216 30.8367333 26.3184216 29.047851 25.3507863 30.8367333 25.0690584 30.8367333 24.066993 29.0271843 24.066993 30.8367333 23.6062286 30.8367333"></polygon>
                <polygon id="Fill-10" fill="#717071" mask="url(#mask-4)" points="6.70856854 30.8368245 6.70856854 28.0933245 6.25199559 28.0933245 6.25199559 29.8387461 4.56132842 28.0933245 4.09547432 28.0933245 4.09547432 30.8368245 4.55743632 30.8368245 4.55743632 28.9509912 6.35319012 30.8368245"></polygon>
                <path d="M18.0337033,29.8306922 L18.4875818,28.9435451 L18.9255924,29.8306922 L18.0337033,29.8306922 Z M18.8055362,28.0931725 L18.4297991,28.0931725 L17.0121775,30.8369765 L17.508869,30.8369765 L17.8980787,30.0884176 L19.0507383,30.0884176 L19.4210863,30.8369765 L20.1644769,30.8369765 L18.8055362,28.0931725 Z" id="Fill-11" fill="#717071" mask="url(#mask-4)"></path>
                <path d="M15.1234924,23.5259608 L16.6821277,23.5259608 L16.6821277,23.1080686 L15.1234924,23.1080686 L15.1234924,23.5259608 Z M15.1234924,22.6901765 L16.6821277,22.6901765 L16.6821277,22.2987255 L15.1234924,22.2987255 L15.1234924,22.6901765 Z M15.4013283,21.5130882 C15.3642036,21.5778235 15.2902538,21.6762941 15.1806763,21.8069804 C15.1600182,21.8249118 15.1426535,21.8407157 15.1234924,21.8568235 L15.1234924,21.9048431 L16.6821277,21.9048431 L16.6821277,21.5130882 L15.4013283,21.5130882 Z M14.2331003,23.9198431 L14.2331003,22.3467451 C14.1217264,22.3631569 14.0097538,22.3886863 13.8983799,22.4218137 L13.8983799,21.8215686 C14.3807006,21.5601961 14.707038,21.316451 14.8737994,20.7766863 L15.7632933,20.7766863 C15.7267675,20.9067647 15.6803617,21.0210392 15.6246748,21.1179902 L16.6821277,21.1179902 L16.6821277,20.7678725 L17.6297036,20.7678725 L17.6297036,21.1179902 L20.1344179,21.1179902 L20.1344179,21.5130882 L17.6297036,21.5130882 L17.6297036,21.9048431 L20.1344179,21.9048431 L20.1344179,22.2987255 L17.6297036,22.2987255 L17.6297036,22.6901765 L20.1344179,22.6901765 L20.1344179,23.1098922 L17.6297036,23.1098922 L17.6297036,23.5259608 L20.1344179,23.5259608 L20.1344179,23.9198431 L17.6297036,23.9198431 L17.6297036,24.3851471 L20.2739347,24.3851471 L20.2739347,24.8279608 L19.335041,24.8279608 C19.6170684,25.3470588 19.7886201,25.629098 20.1215441,26.233902 L19.0260684,26.2323824 C18.7407477,25.7002157 18.6709894,25.551598 18.329383,24.8279608 L17.6297036,24.8279608 L17.6297036,26.2776667 L16.6821277,26.2776667 L16.6821277,24.8279608 L15.9869392,24.8279608 C15.624076,25.5467353 15.653117,25.4841275 15.2339681,26.2272157 L14.1510669,26.2272157 C14.4417766,25.7485392 14.6468602,25.4157451 14.9809818,24.8279608 L13.954965,24.8279608 L13.954965,24.3851471 L16.6821277,24.3851471 L16.6821277,23.9198431 L14.2331003,23.9198431 Z" id="Fill-12" fill="#264993" mask="url(#mask-4)"></path>
                <path d="M22.257078,22.8131735 L22.257078,22.3208206 L24.4276707,22.3208206 L24.4276707,21.733948 L25.2911175,21.733948 L25.2911175,22.3208206 L26.1264214,22.3208206 L26.1264214,21.3230461 L21.9502011,21.3230461 L21.9502011,25.8110559 L25.7081707,25.8110559 C26.005467,25.8110559 26.1437862,25.6794578 26.1264214,25.4156539 L26.1264214,22.8131735 L25.2911175,22.8131735 L25.2911175,24.6257618 C25.3099792,25.1819382 25.0126828,25.4533402 24.400426,25.4369284 L23.7866722,25.4369284 L23.7866722,24.8564382 L24.0651068,24.8564382 C24.3067163,24.8564382 24.4276707,24.7497618 24.4276707,24.5376245 L24.4276707,22.8131735 L24.2046236,22.8131735 C24.0387603,24.0258206 23.3881813,24.9014186 22.257078,25.4417912 L22.257078,24.8564382 C22.9058606,24.2981343 23.2771068,23.6665853 23.3699184,22.8131735 L22.257078,22.8131735 Z M21.0328637,26.2775755 L21.0328637,20.7826735 L27.0437588,20.7826735 L27.0437588,25.3934676 C27.0629199,25.9982716 26.7189184,26.2936833 26.0150476,26.2775755 L21.0328637,26.2775755 Z" id="Fill-13" fill="#264993" mask="url(#mask-4)"></path>
                <path d="M10.8972736,26.2776971 L10.8972736,25.6692461 L11.6394666,25.6692461 C11.9355653,25.6692461 12.0762796,25.5370402 12.0574179,25.2756676 L12.0574179,23.108099 L10.6643465,23.108099 C10.4436945,23.4679422 10.0065821,23.7806775 9.35630243,24.0417461 L9.35630243,23.550001 C9.83982067,23.2229814 10.1182553,22.7646676 10.1919058,22.174452 L11.0275091,22.174452 C11.008348,22.224599 10.9900851,22.3066578 10.970924,22.4215402 C10.9337994,22.5017755 10.9164347,22.5598245 10.9164347,22.5935598 L12.9211641,22.5935598 L12.9211641,25.4419127 C12.9379301,26.014501 12.6229696,26.2938049 11.9735881,26.2776971 L10.8972736,26.2776971 Z M6.99110486,25.1227951 L6.99110486,24.5827265 C7.34318997,24.3374618 7.64048632,24.100099 7.88089818,23.8694225 C7.58390122,23.8855304 7.24169605,23.8955598 6.85128875,23.8955598 L6.85128875,23.4032069 C7.27732371,22.9613049 7.57432067,22.5355108 7.74317781,22.1261284 L8.5769848,22.1261284 C8.29884954,22.6500892 7.96532675,23.0761873 7.57432067,23.4032069 C7.85425228,23.4032069 8.0883769,23.4098931 8.30932827,23.3934814 C8.45842553,23.212952 8.61410942,23.0017265 8.74464438,22.7889814 L9.5506079,22.7889814 C9.14223708,23.5259912 8.58536778,24.1241088 7.88089818,24.5827265 C8.47459271,24.5827265 9.0012234,24.5784716 9.44582067,24.5784716 L9.44282675,25.1206676 C8.72817781,25.1206676 7.89975988,25.1227951 6.99110486,25.1227951 L6.99110486,25.1227951 Z M6.76805775,21.6824029 L6.76805775,21.1438539 L8.38178116,21.1438539 L8.38178116,20.7694225 L9.27247264,20.7694225 L9.27247264,21.1438539 L10.6936869,21.1438539 L10.6936869,20.7694225 L11.5556368,20.7694225 L11.5556368,21.1438539 L13.1421155,21.1438539 L13.1421155,21.6824029 L11.5556368,21.6824029 L11.5556368,22.0781088 L10.6936869,22.0781088 L10.6936869,21.6824029 L9.27247264,21.6824029 L9.27247264,22.0781088 L8.38178116,22.0781088 L8.38178116,21.6824029 L6.76805775,21.6824029 Z" id="Fill-14" fill="#264993" mask="url(#mask-4)"></path>
                <polygon id="Fill-15" fill="#264993" mask="url(#mask-4)" points="6.88541945 26.2737157 9.45570061 26.2737157 9.45570061 25.6643529 6.88541945 25.6643529"></polygon>
                <polygon id="Fill-16" fill="#264993" mask="url(#mask-4)" points="11.084693 25.0694569 10.2547781 24.3376137 10.6664422 23.9741235 11.4960578 24.7050549"></polygon>
                <polygon id="Fill-17" fill="#264993" mask="url(#mask-4)" points="1.19568222 22.4326941 1.19568222 21.9406451 4.70365942 21.9406451 4.70365942 22.4326941 3.33873085 22.4326941 3.33873085 23.1678804 4.56384331 23.1678804 4.56384331 23.6602333 3.33873085 23.6602333 3.33873085 24.7403706 4.78629164 24.7403706 4.78629164 25.2324196 1.11215182 25.2324196 1.11215182 24.7403706 2.44773997 24.7403706 2.44773997 23.6602333 1.30675669 23.6602333 1.30675669 23.1678804 2.44773997 23.1678804 2.44773997 22.4326941"></polygon>
                <path d="M3.85847553,24.5936676 C3.80368678,24.3322951 3.75219134,24.1131676 3.68123541,23.8323441 L4.32702416,23.8323441 C4.41504544,24.1131676 4.46055304,24.297952 4.53629924,24.5936676 L3.85847553,24.5936676 Z" id="Fill-18" fill="#264993" mask="url(#mask-4)"></path>
                <path d="M5.09346793,25.4158059 C5.11143146,25.6793059 4.97281292,25.8112078 4.67611535,25.8112078 L0.91754696,25.8112078 L0.91754696,21.3228941 L5.09346793,21.3228941 L5.09346793,25.4158059 Z M-8.98176292e-05,20.7828255 L-8.98176292e-05,26.2777275 L4.98269286,26.2777275 C5.68596489,26.2920118 6.02906824,25.9984235 6.01260167,25.3936196 L6.01260167,20.7828255 L-8.98176292e-05,20.7828255 Z" id="Fill-19" fill="#264993" mask="url(#mask-4)"></path>
                <path d="M12.6966799,6.07843137e-05 L12.6966799,3.2581 C11.0419398,3.89420784 9.18960091,4.0245902 8.15609939,4.0245902 C6.80763739,4.0245902 5.5340234,3.65745294 4.43675137,3.0015902 C4.1930462,2.85813922 4.02838055,2.59038431 4.02838055,2.28403137 C4.02838055,1.99530588 4.17448389,1.74183529 4.39333951,1.59382549 C5.38792006,0.932796078 7.51031064,6.07843137e-05 12.6966799,6.07843137e-05" id="Fill-20" fill="#47539D" mask="url(#mask-4)"></path>
                <path d="M22.1168726,1.67105196 C20.9453514,1.21152255 19.2103742,1.72180686 18.0163985,2.14061078 C16.7601492,2.58068922 14.0524471,4.01246373 11.5450383,4.76436569 C10.7465596,5.00324804 9.90287264,5.13606176 9.03373739,5.1773951 C8.37896687,5.20809118 7.2035535,5.14669902 6.46345623,4.94823824 C5.64671459,4.74369902 4.89074954,4.37565 4.23418267,3.88147353 L5.98143495,6.94773824 C6.74248967,7.55375784 7.67838936,7.94581667 8.69752006,8.03486569 C9.11996231,8.07133627 9.54779362,8.08197353 9.98281033,8.06616961 C12.0824471,7.9914049 14.7937419,6.90123824 15.7009,6.46146373 C16.9511614,5.85331667 18.9352328,5.16463039 19.8708331,5.0661598 C20.4076432,5.00932647 20.9636143,5.02877745 21.5150945,5.1859049 C21.7746675,5.25823824 22.0192708,5.40503235 22.2234562,5.61291471 C22.5414106,5.93324804 22.7015854,6.35296373 22.7063757,6.77571863 C23.1857024,5.84723824 23.4572511,4.79141471 23.4572511,3.67055196 C23.4572511,2.81470882 22.950979,1.99807157 22.1168726,1.67105196" id="Fill-21" fill="#5AB546" mask="url(#mask-4)"></path>
                <path d="M19.6520074,7.91183824 C19.5023114,7.85591667 19.3505196,7.82643627 19.1993266,7.82157353 C19.1948357,7.82157353 19.1619026,7.82066176 19.152322,7.82066176 C17.8481701,7.82066176 16.5293479,8.34705392 15.1192111,8.96340686 C13.547702,9.64935784 11.7741032,10.1866912 10.7235363,10.2754363 C10.4229467,10.3015735 10.1274467,10.3061324 9.83494058,10.2945833 C8.91910015,10.2641912 8.07541322,9.94507353 7.39010471,9.42202451 L8.89724453,12.0655343 C9.36279924,12.4396618 9.92625517,12.6925245 10.5439011,12.7578676 C10.8552688,12.7879559 11.1723251,12.7897794 11.4932734,12.7751912 C13.0566989,12.7055931 14.8015561,11.8932108 15.8509254,11.4476618 C16.5595865,11.1495147 17.829009,10.6574657 18.8394573,10.7346618 C19.3520166,10.7948382 19.7723631,11.1027108 20.0040926,11.5269853 C20.3780333,10.869299 20.5947932,10.1073676 20.5974877,9.29316176 C20.5989847,8.69352451 20.2385166,8.13096569 19.6520074,7.91183824" id="Fill-22" fill="#2CB5A9" mask="url(#mask-4)"></path>
                <path d="M17.5489576,13.407348 C16.9869986,13.1590441 16.2115731,13.3751324 15.6343451,13.6039853 C14.7810777,13.9455931 13.524529,14.6540343 12.1560078,14.7506814 C12.0125989,14.7622304 11.872184,14.7634461 11.7299728,14.7634461 C11.1081354,14.7634461 10.5374941,14.5382402 10.0925974,14.1653284 L11.5656065,16.7471422 C11.8021263,16.9343578 12.0883451,17.0583578 12.4024074,17.0875343 C12.5649774,17.10425 12.7308406,17.1024265 12.8970032,17.092701 C13.7149424,17.0440735 14.4466567,16.708848 15.1502281,16.418299 C15.58764,16.1991716 16.131336,16.0052696 16.6429971,16.1116422 C16.8633497,16.1557108 17.0298117,16.31375 17.1070549,16.5106912 C17.6872767,15.9381029 18.0552296,15.1427402 18.0731932,14.2558971 C18.0869652,13.9009167 17.8896658,13.5571814 17.5489576,13.407348" id="Fill-23" fill="#3396CD" mask="url(#mask-4)"></path>
                <path d="M51.8628248,12.7831843 L52.4996318,12.3522235 L51.6505558,12.3522235 L51.6505558,13.7745765 L52.4996318,13.7745765 C52.2451485,13.315351 52.0325801,12.9846843 51.8628248,12.7831843 L51.8628248,12.7831843 Z M48.5509494,11.2748216 L50.2919144,11.2748216 L50.2919144,10.3265863 L48.3811941,10.3265863 L48.3811941,9.24888039 L53.7310315,9.24888039 L53.7310315,10.3265863 L51.6505558,10.3265863 L51.6505558,11.2748216 L53.5612761,11.2748216 L53.5612761,12.3522235 L53.0517108,12.3522235 C53.3064935,12.7549196 53.5040922,13.0849784 53.6463035,13.3436157 L53.0094965,13.7745765 L53.8160588,13.7745765 L53.8160588,14.8951353 L48.2961667,14.8951353 L48.2961667,13.7745765 L50.2919144,13.7745765 L50.2919144,12.3522235 L48.5509494,12.3522235 L48.5509494,11.2748216 Z M47.9991698,15.5418804 L54.1133552,15.5418804 L54.1133552,8.60243922 L47.9991698,8.60243922 L47.9991698,15.5418804 Z M46.640229,17.1797137 L46.640229,7.43872353 L55.5145102,7.43872353 L55.5145102,17.0934 L54.1133552,17.0934 L54.1133552,16.6192824 L47.9991698,16.6192824 L47.9991698,17.1797137 L46.640229,17.1797137 Z" id="Fill-24" fill="#231815" mask="url(#mask-4)"></path>
                <path d="M61.7986006,14.8951961 C61.769859,15.4413431 61.769859,15.8434314 61.7986006,16.1020686 C60.3827754,16.3607059 59.1798179,16.6047549 58.1894289,16.8351275 C57.8774623,16.9211373 57.7223772,16.949402 57.7223772,16.9211373 C57.5526219,16.6047549 57.4250809,16.1734902 57.3400535,15.627951 L57.4675945,15.627951 C58.2882283,15.5416373 59.731897,15.2978922 61.7986006,14.8951961 L61.7986006,14.8951961 Z M61.6288453,11.7486961 C61.5716614,11.8638824 61.2890353,12.1796569 60.7794699,12.6972353 C60.4112176,13.0996275 60.1142207,13.4296863 59.8878802,13.6883235 L61.5863316,13.4728431 C61.55759,13.6743431 61.5438179,13.9186961 61.5438179,14.205598 C61.5153757,14.3779216 61.5013043,14.5073922 61.5013043,14.593402 C59.8878802,14.794902 58.7127663,14.996402 57.9771599,15.1969902 L57.8499182,15.2401471 C57.7927343,15.2118824 57.7223772,14.996402 57.6376492,14.593402 C57.5526219,14.1916176 57.5241796,13.9469608 57.5526219,13.860951 C57.6089076,13.8035098 57.7364486,13.7603529 57.9346462,13.7314804 C58.0196736,13.7032157 58.0900307,13.6883235 58.1469152,13.6883235 C58.344514,13.6023137 58.6280383,13.372549 58.9962906,12.9987255 C58.7977936,13.027598 58.5292389,13.0567745 58.1894289,13.0850392 C57.6514213,13.1427843 57.3966386,13.1570686 57.4250809,13.1281961 C57.2553255,12.5534804 57.1981416,12.1796569 57.2553255,12.0073333 C57.283169,11.9501961 57.3256827,11.9210196 57.3825672,11.9210196 C57.6651933,11.8638824 57.9487176,11.6195294 58.2319426,11.1885686 C58.4579836,10.8724902 58.6564805,10.4846863 58.8262359,10.0248529 C58.882821,9.82396078 58.9391067,9.72305882 58.9962906,9.72305882 C59.6468696,9.89538235 60.1426629,10.1257549 60.4824729,10.4126569 C60.4824729,10.4989706 60.1279927,10.9156471 59.4208286,11.6626863 C59.307359,11.7778725 59.222631,11.8638824 59.1660459,11.9210196 L59.8453666,11.9210196 C59.87321,11.8638824 59.9157237,11.7918529 59.9726082,11.7055392 C60.283976,11.1885686 60.4678027,10.9445196 60.5246872,10.9730882 C60.9770687,11.2034608 61.345321,11.4617941 61.6288453,11.7486961 L61.6288453,11.7486961 Z M57.0430565,8.12807843 L59.7603392,8.12807843 L59.7603392,7.17984314 L60.5246872,7.17984314 C60.9495246,7.17984314 61.1617936,7.19473529 61.1617936,7.223 C61.2180793,7.28104902 61.2180793,7.35247059 61.1617936,7.43848039 C61.133052,7.55366667 61.1189805,7.66885294 61.1189805,7.78343137 L61.1189805,8.12807843 L62.732704,8.12807843 L62.732704,7.17984314 L63.5817799,7.17984314 C63.92159,7.15157843 64.133859,7.17984314 64.2185869,7.26615686 C64.2467298,7.29502941 64.2326584,7.36705882 64.1763726,7.48163725 C64.1479304,7.62569608 64.133859,7.7120098 64.133859,7.74027451 L64.133859,8.12807843 L66.8511416,8.12807843 L66.8511416,9.29179412 L64.133859,9.29179412 L64.133859,10.0248529 L62.9874866,10.0248529 C63.0153301,10.0248529 63.0722146,10.0394412 63.1572419,10.0677059 C63.7515353,10.2403333 64.0203894,10.3552157 63.9641036,10.4126569 C63.9641036,10.4415294 63.9069198,10.5418235 63.7943483,10.714451 C63.7371644,10.8004608 63.6946508,10.8724902 63.6668073,10.9299314 L66.299362,10.9299314 L66.299362,15.7571176 C66.5257024,16.7339216 65.6763271,17.1937549 63.7515353,17.1366176 C63.6096234,16.5041569 63.4398681,16.0306471 63.2422693,15.7142647 C64.5724684,15.829451 65.124248,15.5996863 64.898207,15.0246667 L64.898207,12.0504902 L63.1997556,12.0504902 C62.9449729,12.6537745 62.732704,13.0850392 62.5629486,13.3436765 C62.6192343,13.2862353 62.7180337,13.2142059 62.8599456,13.1281961 C62.9728164,13.0136176 63.0578438,12.9415882 63.1147283,12.9127157 C63.7371644,13.5737451 64.2042161,14.1341765 64.5158833,14.593402 C64.1479304,14.8520392 63.7656067,15.0966961 63.3695109,15.3261569 C63.0578438,14.8669314 62.6755201,14.407098 62.2231386,13.9469608 C62.0812267,13.8323824 62.0108696,13.7603529 62.0108696,13.7314804 L62.4354076,13.4296863 C62.095897,13.2002255 61.7135733,13.0136176 61.2890353,12.8692549 C61.883628,11.8638824 62.2656523,10.8724902 62.4354076,9.89538235 C62.4354076,9.8382451 62.520435,9.8382451 62.6901903,9.89538235 C62.520435,9.80906863 62.5345064,9.82396078 62.732704,9.93853922 L62.732704,9.29179412 L61.1189805,9.29179412 L61.1189805,9.98169608 L59.7603392,9.98169608 L59.7603392,9.29179412 L57.0430565,9.29179412 L57.0430565,8.12807843 Z" id="Fill-25" fill="#231815" mask="url(#mask-4)"></path>
                <path d="M76.7019799,12.6971137 C76.1076866,12.0652608 75.45591,11.4188196 74.7490453,10.7574863 L75.5556076,9.89526078 C76.0364313,10.2979569 76.7444936,10.9298098 77.678597,11.7917314 C77.395372,11.9643588 77.0696334,12.2661529 76.7019799,12.6971137 L76.7019799,12.6971137 Z M71.6066258,8.38689804 L73.8571562,8.38689804 L73.6023736,7.26603529 L75.2583112,7.13686863 L75.428366,8.38689804 L77.593869,8.38689804 L77.593869,10.4125353 L76.2774419,10.4125353 L76.2774419,9.55061373 L72.8805392,9.55061373 L72.8805392,10.5420059 L71.6066258,10.5420059 L71.6066258,8.38689804 Z M77.3387869,12.8262804 L77.3387869,13.9899961 L75.216097,13.9899961 L75.216097,15.7573 L77.806138,15.7573 L77.806138,16.8778588 L71.3521426,16.8778588 L71.3521426,15.7573 L73.7721289,15.7573 L73.7721289,13.9899961 L71.7766805,13.9899961 L71.7766805,12.7831235 L72.0736775,12.7831235 C72.0736775,12.7548588 72.0593067,12.7402706 72.0314632,12.7402706 C71.8895514,12.5393784 71.7057246,12.3521627 71.4793842,12.1798392 L71.4793842,12.4816333 C71.5072277,12.5676431 71.5072277,12.6108 71.4793842,12.6108 L70.5452809,12.9989078 L70.5452809,16.1454078 C70.6015666,16.6335059 70.3755255,16.9064275 69.8659602,16.9641725 C69.6674632,17.0216137 69.214483,17.0504863 68.5073188,17.0504863 C68.4222915,16.446898 68.3088219,16.0451137 68.1675088,15.8436137 C69.0447277,15.9013588 69.3989085,15.7864765 69.2291532,15.4986627 L69.2291532,13.4730255 C69.1156836,13.5307706 68.9318568,13.6170843 68.6770742,13.7313588 C68.4785772,13.8465451 68.3375635,13.9188784 68.2525362,13.9471431 L68.1675088,13.9471431 C68.025597,13.4587412 67.8842839,13.0277804 67.7429708,12.6539569 C67.7429708,12.5965157 67.7708143,12.5676431 67.8276988,12.5676431 C67.9693112,12.5393784 68.2663082,12.4533686 68.7195878,12.3090059 C68.9456289,12.2518686 69.1156836,12.2087118 69.2291532,12.1798392 L69.2291532,10.3693784 L67.9127261,10.3693784 L67.9127261,9.20566275 L69.2291532,9.20566275 L69.2291532,7.26603529 L70.1207429,7.26603529 C70.4883964,7.26603529 70.6581517,7.29521176 70.6303082,7.35234902 C70.6303082,7.38122157 70.615638,7.43866275 70.5877945,7.52467255 C70.5590529,7.69699608 70.5452809,7.89849608 70.5452809,8.12826078 L70.5452809,9.20566275 L71.2671152,9.20566275 L71.2671152,10.3693784 L70.5452809,10.3693784 L70.5452809,11.7917314 C70.7150362,11.7345941 71.0123325,11.6194078 71.4371699,11.4470843 L71.4371699,11.8780451 C72.229062,11.4188196 72.9083827,10.8006431 73.4751319,10.0247314 C74.1544526,10.4556922 74.5080347,10.700349 74.5364769,10.7574863 C74.593062,10.7863588 74.5505483,10.8583882 74.4092353,10.9729667 C73.5029754,11.8066235 72.8095833,12.4244961 72.3287596,12.8262804 L77.3387869,12.8262804 Z" id="Fill-26" fill="#231815" mask="url(#mask-4)"></path>
                <path d="M85.6611088,13.9901176 C85.943735,13.5880294 86.1134903,13.1281961 86.1706742,12.6109216 L84.9817881,12.6109216 C85.1515435,13.2430784 85.3778839,13.7032157 85.6611088,13.9901176 L85.6611088,13.9901176 Z M82.9860404,16.1020686 C83.7219462,15.8434314 84.3303109,15.4705196 84.8120328,14.9815098 C84.3874948,14.4931078 84.0476848,13.7175 83.7929021,12.6540784 L83.1983094,12.6540784 L83.1983094,11.4900588 L83.7929021,11.4900588 C83.6231468,11.2314216 83.3399219,10.9299314 82.9435267,10.5849804 C83.5381195,10.0394412 83.8491878,9.50727451 83.8776301,8.99030392 L83.8776301,7.56795098 L87.2323185,7.56795098 L87.2323185,9.42126471 C87.1188489,9.85222549 87.5859006,9.99628431 88.6334736,9.85222549 C88.6334736,9.91027451 88.6188033,9.98169608 88.5909599,10.0677059 C88.5059325,10.470402 88.4349766,10.8153529 88.3786909,11.1022549 L86.8074812,11.1022549 C86.156004,11.16 85.8449356,10.8436176 85.8733778,10.1540196 L85.8733778,8.77482353 L85.1090298,8.77482353 C85.1371726,9.89538235 84.7548489,10.8004608 83.9626574,11.4900588 L87.6993702,11.4900588 C87.5859006,12.7832451 87.2460906,13.9186961 86.6802395,14.8951961 C87.3311179,15.2978922 88.0242106,15.5708137 88.7607152,15.7142647 C88.4209052,16.0880882 88.1239082,16.5330294 87.8691255,17.0506078 C87.2460906,16.8491078 86.5242562,16.4901765 85.7036225,15.972902 C85.1656149,16.4321275 84.5569508,16.8491078 83.8776301,17.2226275 C83.8491878,17.1648824 83.7929021,17.0785686 83.7078748,16.9642941 C83.3962076,16.5330294 83.1560951,16.2455196 82.9860404,16.1020686 L82.9860404,16.1020686 Z M80.6507821,12.3951373 L81.5423717,12.3951373 L81.5423717,11.1451078 L80.6507821,11.1451078 L80.6507821,12.3951373 Z M80.6082684,10.0248529 L81.5423717,10.0248529 L81.5423717,8.77482353 L80.6082684,8.77482353 L80.6082684,10.0248529 Z M82.8162851,16.1020686 C82.8441286,16.5904706 82.2782775,16.8630882 81.1178337,16.9211373 C81.0609492,16.461 80.9196362,16.0449314 80.6932957,15.6711078 C81.2878884,15.6999804 81.5702152,15.5416373 81.5423717,15.1969902 L81.5423717,13.4728431 L80.6085678,13.4728431 C80.6085678,14.794902 80.3534857,16.0017745 79.8442198,17.0931569 C79.5609948,16.8630882 79.1786711,16.6193431 78.697548,16.3607059 C79.1499295,15.3261569 79.3771681,14.3779216 79.3771681,13.516 L79.3771681,7.65396078 L82.8162851,7.65396078 L82.8162851,16.1020686 Z" id="Fill-27" fill="#231815" mask="url(#mask-4)"></path>
                <path d="M89.7372424,16.662348 L89.7372424,15.4986324 L93.4733564,15.4986324 L93.4733564,7.39547549 L94.2377044,7.39547549 C94.7751132,7.39547549 95.0586375,7.43863235 95.0873792,7.52494608 C95.0873792,7.58269118 95.072709,7.65411275 95.0448655,7.74042647 C94.987981,7.94162255 94.9598381,8.18597549 94.9598381,8.47287745 L94.9598381,10.1538676 L98.3989552,10.1538676 L98.3989552,11.4470539 L94.9598381,11.4470539 L94.9598381,15.4986324 L99.3758716,15.4986324 L99.3758716,16.662348 L89.7372424,16.662348 Z" id="Fill-28" fill="#231815" mask="url(#mask-4)"></path>
                <path d="M107.485595,11.9211412 C107.428711,11.9503176 107.343384,11.9791902 107.230812,12.0074549 C107.004173,12.0655039 106.848788,12.1226412 106.763761,12.1797784 L108.079888,12.1797784 L108.079888,10.8868961 L107.188299,10.8868961 C107.358054,11.3467294 107.456853,11.6916804 107.485595,11.9211412 L107.485595,11.9211412 Z M107.400867,14.3348863 C107.31584,14.3640627 107.159857,14.4069157 106.933516,14.4643569 C106.508978,14.5795431 106.310481,14.6366804 106.339223,14.6366804 L108.037674,14.6366804 L108.037674,13.2571804 L107.145785,13.2571804 C107.31584,13.6601804 107.400867,14.0191118 107.400867,14.3348863 L107.400867,14.3348863 Z M105.787144,11.1883863 L106.551492,10.8868961 L105.447334,10.8868961 L105.277578,12.1797784 L106.126954,12.1797784 C106.06977,11.8068667 105.957198,11.4762 105.787144,11.1883863 L105.787144,11.1883863 Z M104.980581,14.6366804 L106.08444,14.6366804 C106.055998,14.3780431 105.942528,13.9902392 105.744929,13.4729647 C105.829657,13.4447 105.984743,13.4015431 106.211682,13.3434941 C106.466764,13.3152294 106.593706,13.2863569 106.593706,13.2571804 L105.19285,13.2571804 C105.164109,13.4015431 105.121595,13.6452882 105.065309,13.9902392 C105.036867,14.277749 105.008425,14.4932294 104.980581,14.6366804 L104.980581,14.6366804 Z M102.772565,9.76603333 C102.743823,9.73776863 102.715381,9.70889608 102.687837,9.67971961 C102.03606,9.07643529 101.512723,8.64547451 101.116627,8.38683725 L102.092945,7.26627843 C102.687837,7.64010196 103.239616,8.08504314 103.749182,8.60231765 L102.772565,9.76603333 Z M102.687837,10.4127784 C103.593198,9.60860196 104.258747,8.54518039 104.683285,7.22312157 L104.725499,7.09365098 C105.262908,7.1517 105.829657,7.26627843 106.423951,7.43860196 L106.381437,7.52491569 C106.239825,7.69723922 106.112284,7.8844549 105.999413,8.08504314 L109.990609,8.08504314 L109.990609,9.20560196 L105.277578,9.20560196 C105.249136,9.26365098 105.19285,9.33507255 105.107823,9.42108235 C104.994353,9.5937098 104.909626,9.72318039 104.85304,9.8091902 L109.481343,9.8091902 C109.481343,10.585102 109.452601,11.3610137 109.396316,12.1366216 L110.372933,12.1366216 L110.372933,13.2571804 L109.353802,13.2571804 L109.353802,14.5935235 L110.11815,14.5935235 L110.11815,15.7572392 L109.396316,15.7572392 C109.367873,16.1304549 109.311588,16.3890922 109.226261,16.5328471 C108.999621,17.0504255 108.249943,17.2798863 106.97603,17.222749 C106.947588,16.7626118 106.848788,16.3751118 106.679033,16.0593373 L107.613136,16.0593373 C107.839177,16.0307686 107.938276,15.9298667 107.910133,15.7572392 L103.536913,15.7572392 C103.564457,15.5849157 103.60727,15.312298 103.664154,14.9384745 C103.805467,14.2203078 103.890495,13.6744647 103.918937,13.3006412 L103.069861,13.3006412 C102.645024,14.6798373 102.305513,15.9298667 102.05073,17.0504255 L100.607062,16.1018863 C101.0316,15.2117 101.470209,13.9902392 101.923489,12.4384157 L102.772565,12.9556902 L102.772565,12.1366216 L104.046478,12.1366216 C104.131206,11.6485235 104.187492,11.174102 104.216233,10.7142686 C104.187492,10.7723176 104.116536,10.8437392 104.003964,10.929749 C103.890495,11.0449353 103.805467,11.1452294 103.749182,11.2315431 C103.522243,10.9729059 103.16866,10.7002882 102.687837,10.4127784 L102.687837,10.4127784 Z M100.437306,10.8868961 L101.243869,9.76603333 C101.753434,10.0827196 102.319285,10.4987882 102.94232,11.0160627 L102.05073,12.0506118 C101.37141,11.4762 100.833103,11.0880922 100.437306,10.8868961 L100.437306,10.8868961 Z" id="Fill-29" fill="#231815" mask="url(#mask-4)"></path>
                <path d="M114.746422,8.17123529 C114.859293,8.20010784 114.901807,8.25754902 114.873963,8.34355882 L114.83115,8.38671569 C114.689538,8.70340196 114.519483,9.16262745 114.321884,9.76621569 L115.808067,9.76621569 L115.808067,7.26615686 L116.274819,7.26615686 C117.039167,7.26615686 117.421491,7.32390196 117.421491,7.43848039 C117.421491,7.46765686 117.406821,7.49652941 117.378977,7.52479412 C117.322093,7.69711765 117.29395,7.9274902 117.29395,8.21439216 L117.29395,9.76621569 L120.43607,9.76621569 L120.43607,10.9730882 L117.29395,10.9730882 L117.29395,12.481451 L119.883991,12.481451 L119.883991,13.6883235 L117.29395,13.6883235 L117.29395,15.7142647 L121.030363,15.7142647 L121.030363,16.8776765 L111.816571,16.8776765 L111.816571,15.7142647 L115.808067,15.7142647 L115.808067,13.6883235 L113.218026,13.6883235 L113.218026,12.481451 L115.808067,12.481451 L115.808067,10.9730882 L113.854533,10.9730882 C113.571308,11.6915588 113.189284,12.3951373 112.708161,13.0850392 C112.424936,12.8552745 112.014469,12.6397941 111.477061,12.438598 C112.439007,11.0308333 113.019229,9.50727451 113.218026,7.86944118 C113.444067,7.86944118 113.953632,7.97064706 114.746422,8.17123529" id="Fill-30" fill="#231815" mask="url(#mask-4)"></path>
                <path d="M125.530975,14.5072706 C126.776446,13.6742216 127.526722,12.265849 127.781505,10.2833686 L127.696478,10.2833686 C127.27194,11.2033392 126.974643,11.777751 126.804888,12.0072118 C126.493221,11.8066235 126.125567,11.6343 125.70073,11.4902412 C125.728873,11.4328 125.771387,11.3607706 125.828271,11.2747608 C126.054612,10.9298098 126.195925,10.6571922 126.252809,10.4556922 L125.530975,10.4556922 L125.530975,12.3521627 L126.337836,12.0935255 L126.337836,12.2229961 C126.394422,12.6828294 126.450408,12.9846235 126.507891,13.1280745 L125.530975,13.4730255 L125.530975,14.5072706 Z M126.422864,9.33482941 L126.422864,10.1110451 C126.932429,8.7315451 127.215055,7.7550451 127.27194,7.18002549 C127.894376,7.29521176 128.375798,7.39550588 128.715609,7.48151569 C128.743452,7.48151569 128.758122,7.49640784 128.758122,7.52467255 C128.673095,7.72617255 128.573697,7.9848098 128.460826,8.30058431 C128.318914,8.67440784 128.219815,8.94702549 128.163529,9.11934902 L131.942457,9.11934902 C131.885572,10.6711725 131.815215,12.2518686 131.730188,13.8608294 C131.730188,14.2635255 131.701745,14.8810941 131.64546,15.7141431 C131.701745,15.1108588 131.701745,15.1537118 131.64546,15.8433098 C131.815215,16.7338 131.064639,17.0933392 129.394929,16.9210157 C129.309902,16.3751725 129.196432,15.9584961 129.055119,15.6712902 C130.07425,15.9013588 130.526931,15.4555059 130.41406,14.3349471 C130.499087,13.1280745 130.569145,11.777751 130.626329,10.2833686 L130.329033,10.2833686 C130.329033,13.4444569 129.239245,15.6858784 127.059671,17.0073294 C126.635133,16.5763686 126.266881,16.2745745 125.955812,16.1019471 C128.05006,15.1537118 129.125776,13.2143882 129.18266,10.2833686 L128.84315,10.2833686 C128.700938,12.3810353 127.922818,14.0623294 126.507891,15.3263392 C126.13934,15.0102608 125.813601,14.7947804 125.530975,14.6795941 L125.530975,17.2659667 L124.299874,17.2659667 L124.299874,13.9899961 C124.12982,14.0763098 123.860666,14.1914961 123.493013,14.3349471 C123.181046,14.4501333 122.926563,14.5504275 122.728964,14.6367412 C122.643637,14.2635255 122.502025,13.7745157 122.304127,13.1712314 L124.299874,12.7402706 L124.299874,10.498849 L123.705282,10.498849 C123.620254,11.0161235 123.605584,11.0881529 123.663067,10.7143294 C123.605584,11.0881529 123.520856,11.5622706 123.407985,12.1366824 C123.266373,12.0795451 122.997519,12.0072118 122.601423,11.921202 C122.431368,11.8929373 122.304127,11.8640647 122.219099,11.8351922 C122.473882,10.8295157 122.657709,9.56550588 122.771178,8.04194706 C123.450499,8.12826078 123.889109,8.2002902 124.087605,8.25742745 L124.087605,8.30058431 C124.002578,8.53095686 123.917551,8.88988824 123.832523,9.3782902 L124.257361,9.3782902 L124.257361,7.22287843 C125.361519,7.22287843 125.813601,7.23777059 125.616002,7.26603529 L125.616002,7.43866275 C125.559118,7.66903529 125.530975,7.97052549 125.530975,8.34374118 L125.530975,9.33482941 L126.422864,9.33482941 Z" id="Fill-31" fill="#231815" mask="url(#mask-4)"></path>
                <path d="M138.693988,13.9901176 C138.127239,14.6225784 137.391333,15.1687255 136.485971,15.627951 L140.774464,15.627951 C140.660994,15.5416373 140.434653,15.3553333 140.095143,15.0675196 C139.443666,14.550549 138.976315,14.1916176 138.693988,13.9901176 L138.693988,13.9901176 Z M135.381813,10.9730882 C135.976406,10.226049 136.386573,9.49329412 136.613512,8.77482353 L135.084517,8.77482353 L135.084517,15.627951 L136.103947,15.627951 C135.961736,15.283 135.721623,14.9532451 135.381813,14.6365588 C136.513815,14.2636471 137.306605,13.7463725 137.759884,13.0850392 L135.339599,13.0850392 L135.339599,11.9641765 L137.972153,11.9641765 L137.972153,10.8867745 L137.122778,10.8867745 C137.009309,11.0308333 136.825781,11.2745784 136.570699,11.6195294 C136.542257,11.648402 136.513815,11.6775784 136.485971,11.7055392 C136.259032,11.504951 135.891678,11.260598 135.381813,10.9730882 L135.381813,10.9730882 Z M142.600157,16.7916667 L133.683661,16.7916667 L133.683661,7.56795098 L142.30316,7.56795098 L142.30316,8.77482353 L137.37786,8.77482353 C137.462588,8.80369608 137.58983,8.84685294 137.759884,8.9039902 C138.070953,9.04804902 138.212266,9.13436275 138.184422,9.16262745 C138.184422,9.22067647 138.127239,9.30668627 138.014368,9.42126471 C137.901198,9.56532353 137.802099,9.69479412 137.717071,9.80906863 L141.666053,9.80906863 L141.666053,10.8867745 L139.373309,10.8867745 L139.373309,11.9641765 L142.133105,11.9641765 L142.133105,13.0850392 L139.415523,13.0850392 C139.698149,13.2573627 140.095143,13.5020196 140.604708,13.8177941 C141.226845,14.1916176 141.680125,14.4642353 141.96335,14.6365588 C141.62354,15.0103824 141.340315,15.341049 141.113974,15.627951 L142.600157,15.627951 L142.600157,16.7916667 Z" id="Fill-32" fill="#231815" mask="url(#mask-4)"></path>
                <path d="M148.756676,14.8951961 C148.728234,15.4413431 148.728234,15.8434314 148.756676,16.1020686 C147.340851,16.3607059 146.138193,16.6047549 145.147504,16.8351275 C144.835837,16.9211373 144.680752,16.949402 144.680752,16.9211373 C144.510697,16.6047549 144.383456,16.1734902 144.298428,15.627951 L144.42567,15.627951 C145.246304,15.5416373 146.690272,15.2978922 148.756676,14.8951961 L148.756676,14.8951961 Z M148.586921,11.7486961 C148.529737,11.8638824 148.24741,12.1796569 147.737845,12.6972353 C147.369592,13.0996275 147.072296,13.4296863 146.845956,13.6883235 L148.544407,13.4728431 C148.515965,13.6743431 148.501893,13.9186961 148.501893,14.205598 C148.473451,14.3779216 148.459679,14.5073922 148.459679,14.593402 C146.845956,14.794902 145.671141,14.996402 144.935235,15.1969902 L144.807994,15.2401471 C144.75081,15.2118824 144.680752,14.996402 144.595725,14.593402 C144.510697,14.1916176 144.482255,13.9469608 144.510697,13.860951 C144.567282,13.8035098 144.694524,13.7603529 144.893021,13.7314804 C144.977749,13.7032157 145.048106,13.6883235 145.10529,13.6883235 C145.302889,13.6023137 145.586114,13.372549 145.954366,12.9987255 C145.756168,13.027598 145.487314,13.0567745 145.147504,13.0850392 C144.609497,13.1427843 144.355013,13.1570686 144.383456,13.1281961 C144.213401,12.5534804 144.156516,12.1796569 144.213401,12.0073333 C144.241544,11.9501961 144.284057,11.9210196 144.340942,11.9210196 C144.623568,11.8638824 144.907092,11.6195294 145.190018,11.1885686 C145.416358,10.8724902 145.614855,10.4846863 145.784611,10.0248529 C145.840896,9.82396078 145.897182,9.72305882 145.954366,9.72305882 C146.605244,9.89538235 147.101038,10.1257549 147.440548,10.4126569 C147.440548,10.4989706 147.086367,10.9156471 146.379203,11.6626863 C146.265734,11.7778725 146.180706,11.8638824 146.124121,11.9210196 L146.803741,11.9210196 C146.831285,11.8638824 146.873799,11.7918529 146.930983,11.7055392 C147.242051,11.1885686 147.425878,10.9445196 147.483062,10.9730882 C147.935443,11.2034608 148.303396,11.4617941 148.586921,11.7486961 L148.586921,11.7486961 Z M144.001132,8.12807843 L146.718714,8.12807843 L146.718714,7.17984314 L147.483062,7.17984314 C147.9076,7.17984314 148.119869,7.19473529 148.119869,7.223 C148.176454,7.28104902 148.176454,7.35247059 148.119869,7.43848039 C148.091127,7.55366667 148.077355,7.66885294 148.077355,7.78343137 L148.077355,8.12807843 L149.690779,8.12807843 L149.690779,7.17984314 L150.540155,7.17984314 C150.879965,7.15157843 151.092234,7.17984314 151.176962,7.26615686 C151.204805,7.29502941 151.191033,7.36705882 151.134448,7.48163725 C151.106006,7.62569608 151.092234,7.7120098 151.092234,7.74027451 L151.092234,8.12807843 L153.809516,8.12807843 L153.809516,9.29179412 L151.092234,9.29179412 L151.092234,10.0248529 L149.945861,10.0248529 C149.973405,10.0248529 150.030589,10.0394412 150.115317,10.0677059 C150.70991,10.2403333 150.978764,10.3552157 150.922179,10.4126569 C150.922179,10.4415294 150.865295,10.5418235 150.752424,10.714451 C150.695539,10.8004608 150.652726,10.8724902 150.624883,10.9299314 L153.257437,10.9299314 L153.257437,15.7571176 C153.483778,16.7339216 152.634402,17.1937549 150.70991,17.1366176 C150.567998,16.5041569 150.397943,16.0306471 150.200345,15.7142647 C151.530843,15.829451 152.082323,15.5996863 151.856582,15.0246667 L151.856582,12.0504902 L150.15813,12.0504902 C149.903048,12.6537745 149.690779,13.0850392 149.521024,13.3436765 C149.57731,13.2862353 149.676109,13.2142059 149.81832,13.1281961 C149.931191,13.0136176 150.015919,12.9415882 150.072804,12.9127157 C150.695539,13.5737451 151.162291,14.1341765 151.474258,14.593402 C151.106006,14.8520392 150.723682,15.0966961 150.327886,15.3261569 C150.015919,14.8669314 149.633895,14.407098 149.181513,13.9469608 C149.039302,13.8323824 148.968945,13.7603529 148.968945,13.7314804 L149.393782,13.4296863 C149.053972,13.2002255 148.671948,13.0136176 148.24741,12.8692549 C148.841703,11.8638824 149.224027,10.8724902 149.393782,9.89538235 C149.393782,9.8382451 149.47851,9.8382451 149.648565,9.89538235 C149.47851,9.80906863 149.492582,9.82396078 149.690779,9.93853922 L149.690779,9.29179412 L148.077355,9.29179412 L148.077355,9.98169608 L146.718714,9.98169608 L146.718714,9.29179412 L144.001132,9.29179412 L144.001132,8.12807843 Z" id="Fill-33" fill="#231815" mask="url(#mask-4)"></path>
                <path d="M158.692482,13.9038039 L161.749874,13.9038039 L161.749874,13.171049 L158.692482,13.171049 L158.692482,13.9038039 Z M158.692482,12.1368039 L161.749874,12.1368039 L161.749874,11.446902 L158.692482,11.446902 L158.692482,12.1368039 Z M154.998582,8.34355882 L158.352971,8.34355882 C158.465543,8.11409804 158.56524,7.74027451 158.649968,7.223 C158.677812,7.19473529 158.692482,7.16586275 158.692482,7.1369902 C159.117319,7.1369902 159.598143,7.17984314 160.13615,7.26615686 C160.47596,7.32390196 160.57476,7.45337255 160.433447,7.65396078 C160.405005,7.7120098 160.376263,7.75516667 160.348419,7.78343137 C160.263691,7.98462745 160.163994,8.17123529 160.051422,8.34355882 L164.636912,8.34355882 L164.636912,9.55073529 L159.499343,9.55073529 C159.329588,9.78080392 159.159533,10.0248529 158.989778,10.2831863 L163.235757,10.2831863 L163.235757,16.0160588 C163.433655,16.8202353 162.697749,17.2226275 161.02804,17.2226275 C160.8011,16.4752843 160.645716,16.0017745 160.560688,15.8005784 C161.494792,15.8865882 161.890888,15.7720098 161.749874,15.4556275 L161.749874,14.9815098 L158.692482,14.9815098 L158.692482,17.0506078 L157.33384,17.0506078 L157.33384,12.5246078 C157.276657,12.5826569 157.206299,12.6537745 157.121571,12.7400882 C156.724877,13.1427843 156.328482,13.5020196 155.932685,13.8177941 C155.76293,13.616902 155.42312,13.2862353 154.913555,12.826402 C155.30965,13.1427843 155.267137,13.0996275 154.786313,12.6972353 C156.144954,11.8350098 157.149415,10.7861765 157.800892,9.55073529 L154.998582,9.55073529 L154.998582,8.34355882 Z" id="Fill-34" fill="#231815" mask="url(#mask-4)"></path>
                <path d="M174.105307,12.3090363 L172.831693,12.3090363 C172.831693,12.3382127 172.845465,12.3810657 172.874206,12.4385069 C172.90175,12.7831539 172.973006,13.0417912 173.086475,13.2144186 C173.511013,12.9275167 173.850524,12.6257225 174.105307,12.3090363 L174.105307,12.3090363 Z M171.217969,11.1884775 L173.256231,11.1884775 L173.256231,10.3694088 L171.217969,10.3694088 L171.217969,11.1884775 Z M171.217969,9.37801667 L173.256231,9.37801667 L173.256231,8.68841863 L171.217969,8.68841863 L171.217969,9.37801667 Z M169.307548,15.8864971 C169.307548,15.8582324 169.335092,15.8293598 169.392276,15.8004873 C169.703644,15.54185 169.859328,15.2400559 169.859328,14.8951049 L169.859328,7.5678598 L174.699899,7.5678598 L174.699899,12.3090363 L174.402603,12.3090363 C175.02474,12.8551833 175.336706,13.1569775 175.336706,13.2144186 C175.336706,13.2432912 175.152281,13.3584775 174.784927,13.5590657 C174.303205,13.8177029 173.907109,14.0480755 173.596041,14.2486637 C174.076864,14.8811245 174.798699,15.3692225 175.761244,15.7141735 C175.279822,16.0591245 174.912168,16.4900853 174.657386,17.0070559 C172.704152,15.9445461 171.67065,14.3781343 171.557779,12.3090363 L171.175755,12.3090363 L171.175755,15.1537422 L171.897589,14.7227814 C171.982317,15.0966049 172.137702,15.4844088 172.364641,15.8864971 C171.68532,16.173399 171.0057,16.5472225 170.32638,17.0070559 C170.184468,17.1216343 170.09944,17.1796833 170.071597,17.1796833 C170.043155,17.1508108 169.788372,16.71985 169.307548,15.8864971 L169.307548,15.8864971 Z M167.396828,8.64526176 L167.396828,13.7745461 C168.472244,13.8034186 168.52853,12.8983402 167.566583,11.0590069 C167.877652,10.3122716 168.075849,9.50748725 168.161176,8.64526176 L167.396828,8.64526176 Z M166.165129,16.9642029 L166.165129,7.52470294 L169.604845,7.52470294 C169.519817,8.58812451 169.278807,9.7378598 168.88301,10.9729971 C169.363834,11.8929676 169.590174,12.6688794 169.562032,13.3004284 C169.703644,14.4209873 169.137494,15.053448 167.86358,15.196899 C167.750111,14.7659382 167.594427,14.4209873 167.396828,14.1626539 L167.396828,16.9642029 L166.165129,16.9642029 Z" id="Fill-35" fill="#231815" mask="url(#mask-4)"></path>
                <path d="M185.400023,13.3435245 C183.871627,12.2518382 182.710584,10.5848284 181.918093,8.34371078 C181.833365,8.02793627 181.762409,7.82643627 181.705824,7.74012255 C182.045634,7.56779902 182.526458,7.45352451 183.149493,7.39547549 C183.404276,8.91873039 184.535978,10.3985245 186.546396,11.8351618 C186.149701,12.2375539 185.767677,12.7402402 185.400023,13.3435245 M177.969411,15.3694657 L178.054438,15.3263088 C178.988541,15.0394069 179.822947,13.6170539 180.559452,11.0589461 C180.729207,11.0589461 181.266616,11.2033088 182.173175,11.4902108 C182.229162,11.5479559 182.243233,11.6053971 182.21539,11.6625343 C181.592355,12.5825049 180.913034,13.7462206 180.177428,15.1539853 C180.262155,15.1828578 180.842078,15.1539853 181.918093,15.0676716 C182.399216,15.0394069 182.738727,15.0245147 182.937224,15.0245147 C182.625257,14.5652892 182.271975,14.1343284 181.875879,13.7313284 L183.107279,12.9557206 C184.12611,14.2489069 184.918301,15.3983382 185.484751,16.4037108 L183.913841,17.0933088 C183.856956,16.8061029 183.701572,16.4754363 183.446789,16.1019167 C181.578283,16.1882304 180.021444,16.3751422 178.776272,16.662348 C178.577776,16.6909167 178.464306,16.7058088 178.436462,16.7058088 C178.379578,16.6766324 178.237966,16.2885245 178.011924,15.5417892 C177.983482,15.4554755 177.969411,15.3983382 177.969411,15.3694657 M176.3985,12.3521324 C178.06821,10.772348 179.002314,9.29194608 179.20081,7.91275 C179.992703,8.14312255 180.544782,8.30055392 180.856748,8.38686765 C180.96932,8.44461275 180.98399,8.51603431 180.899262,8.60234804 C179.710376,10.5568676 178.648731,12.136652 177.714628,13.3435245 C177.374818,12.9703088 176.935909,12.6399461 176.3985,12.3521324" id="Fill-36" fill="#231815" mask="url(#mask-4)"></path>
                <path d="M190.197812,14.1195882 L192.53307,14.1195882 L192.53307,12.9127157 L190.197812,12.9127157 L190.197812,14.1195882 Z M192.53307,15.8865882 L192.53307,15.2401471 L190.197812,15.2401471 L190.197812,16.0592157 L188.838871,16.0592157 L188.838871,11.7486961 L193.976739,11.7486961 L193.976739,15.8865882 L192.53307,15.8865882 Z M195.080597,9.07631373 L188.541874,9.07631373 L188.541874,7.78343137 L196.56678,7.78343137 L196.56678,15.627951 C196.821562,16.8351275 196.014701,17.3663824 194.146494,17.2226275 C194.08931,16.7339216 194.004582,16.3026569 193.891711,15.9297451 C194.76893,15.9874902 195.165625,15.7862941 195.080597,15.3261569 L195.080597,9.07631373 Z M188.032309,11.0159412 L194.571331,11.0159412 L194.571331,9.85222549 L188.032309,9.85222549 L188.032309,11.0159412 Z" id="Fill-37" fill="#231815" mask="url(#mask-4)"></path>
                <path d="M46.1948533,25.2172539 C46.5708898,25.4521853 47.1205737,25.6482147 47.6992986,25.6482147 C48.5576558,25.6482147 49.0591375,25.1880775 49.0591375,24.5224892 C49.0591375,23.9058324 48.7118427,23.5532833 47.8343245,23.2104598 C46.7735783,22.8287343 46.1176102,22.2707343 46.1176102,21.3407343 C46.1176102,20.3128716 46.9568062,19.5491167 48.2199415,19.5491167 C48.8854901,19.5491167 49.3678108,19.7056363 49.6570236,19.8721853 L49.4255935,20.5672539 C49.2133245,20.4499402 48.7795053,20.2542147 48.1911998,20.2542147 C47.3038017,20.2542147 46.9663868,20.7924598 46.9663868,21.2428716 C46.9663868,21.8595284 47.3615843,22.1631461 48.2585631,22.5153912 C49.3579309,22.946048 49.9174947,23.4845971 49.9174947,24.4538029 C49.9174947,25.4719402 49.1747029,26.3530088 47.641516,26.3530088 C47.0145889,26.3530088 46.3298792,26.1670088 45.9828837,25.9323814 L46.1948533,25.2172539 Z" id="Fill-38" fill="#231815" mask="url(#mask-4)"></path>
                <path d="M50.8633753,26.2551765 L51.8692084,26.2551765 L51.8692084,21.5167353 L50.8633753,21.5167353 L50.8633753,26.2551765 Z M51.9838464,20.1852549 C51.9952037,20.4791471 51.743568,20.7140784 51.3432223,20.7140784 C50.9890157,20.7140784 50.7373799,20.4791471 50.7373799,20.1852549 C50.7373799,19.8819412 51.000373,19.6470098 51.3662918,19.6470098 C51.743568,19.6470098 51.9838464,19.8819412 51.9838464,20.1852549 L51.9838464,20.1852549 Z" id="Fill-39" fill="#231815" mask="url(#mask-4)"></path>
                <path d="M52.9076134,22.7995275 C52.9076134,22.3099098 52.8980328,21.9084294 52.8689918,21.5166745 L53.6210647,21.5166745 L53.6692669,22.3001843 L53.6887274,22.3001843 C53.9201574,21.8497725 54.4602608,21.4093902 55.2317942,21.4093902 C55.8778824,21.4093902 56.8808459,21.8008412 56.8808459,23.4259098 L56.8808459,26.2551157 L56.0323687,26.2551157 L56.0323687,23.5237725 C56.0323687,22.7603216 55.7524371,22.1239098 54.952162,22.1239098 C54.3925982,22.1239098 53.958779,22.5253902 53.8141726,23.0049784 C53.7755511,23.1125667 53.7560906,23.2596647 53.7560906,23.4061549 L53.7560906,26.2551157 L52.9076134,26.2551157 L52.9076134,22.7995275 Z" id="Fill-40" fill="#231815" mask="url(#mask-4)"></path>
                <path d="M58.5881892,23.8958941 C58.5881892,24.9334824 59.1764947,25.7166882 60.0058108,25.7166882 C60.8159658,25.7166882 61.4234324,24.9432078 61.4234324,23.8764431 C61.4234324,23.0734824 61.0279354,22.0550412 60.0249719,22.0550412 C59.0223078,22.0550412 58.5881892,22.9950706 58.5881892,23.8958941 M62.2913701,23.8469627 C62.2913701,25.5990706 61.095598,26.3628255 59.9671892,26.3628255 C58.704054,26.3628255 57.7298321,25.4231 57.7298321,23.9250706 C57.7298321,22.3392078 58.7522561,21.4092078 60.0444324,21.4092078 C61.3848108,21.4092078 62.2913701,22.3978647 62.2913701,23.8469627" id="Fill-41" fill="#231815" mask="url(#mask-4)"></path>
                <path d="M64.0085334,24.326551 C64.0085334,24.4538941 64.0276945,24.5715118 64.047155,24.6787961 C64.2013419,25.276002 64.7127036,25.6875118 65.3201702,25.6875118 C66.2168495,25.6875118 66.7377918,24.9432078 66.7377918,23.8566882 C66.7377918,22.9069333 66.2458906,22.0942471 65.3492112,22.0942471 C64.7704863,22.0942471 64.230383,22.5154824 64.0663161,23.1616196 C64.0375745,23.2692078 64.0085334,23.396551 64.0085334,23.5141686 L64.0085334,24.326551 Z M63.1696368,23.0637569 C63.1696368,22.4568255 63.1501763,21.9672078 63.1310152,21.5167961 L63.8926687,21.5167961 L63.9312903,22.3294824 L63.9507508,22.3294824 C64.2977462,21.7517275 64.8474301,21.4092078 65.609383,21.4092078 C66.7377918,21.4092078 67.586269,22.3784137 67.586269,23.8174824 C67.586269,25.5209627 66.5641444,26.3628255 65.4647766,26.3628255 C64.8474301,26.3628255 64.3076261,26.0886882 64.0276945,25.6188255 L64.0085334,25.6188255 L64.0085334,28.193649 L63.1696368,28.193649 L63.1696368,23.0637569 Z" id="Fill-42" fill="#231815" mask="url(#mask-4)"></path>
                <path d="M68.4644758,19.3044294 L69.312953,19.3044294 L69.312953,22.2612824 L69.3324135,22.2612824 C69.4674394,22.0163216 69.6797084,21.8008412 69.9398801,21.6537431 C70.1907707,21.5072529 70.489564,21.4093902 70.8078178,21.4093902 C71.4347448,21.4093902 72.4377084,21.8008412 72.4377084,23.4359392 L72.4377084,26.2551157 L71.5892312,26.2551157 L71.5892312,23.533802 C71.5892312,22.7697431 71.3092995,22.1239098 70.5090245,22.1239098 C69.9593406,22.1239098 69.525222,22.5153608 69.3710351,22.9852235 C69.322833,23.1028412 69.312953,23.2301843 69.312953,23.3967333 L69.312953,26.2551157 L68.4644758,26.2551157 L68.4644758,19.3044294 Z" id="Fill-43" fill="#231815" mask="url(#mask-4)"></path>
                <path d="M76.0836155,23.8371461 C75.1578951,23.8176951 74.1064301,23.9836363 74.1064301,24.9042147 C74.1064301,25.4625186 74.4731854,25.7266265 74.9070046,25.7266265 C75.5147705,25.7266265 75.9003875,25.3348716 76.0354134,24.9333912 C76.0644544,24.8452539 76.0836155,24.7476951 76.0836155,24.6592539 L76.0836155,23.8371461 Z M76.2087614,26.2551461 L76.1413982,25.6579402 L76.1126565,25.6579402 C75.8521854,26.0299402 75.3507036,26.3630382 74.685155,26.3630382 C73.7399742,26.3630382 73.2579529,25.6874206 73.2579529,25.0020775 C73.2579529,23.8565971 74.2609164,23.2302147 76.0644544,23.2399402 L76.0644544,23.1420775 C76.0644544,22.7503225 75.9581702,22.0455284 75.0034088,22.0455284 C74.5695897,22.0455284 74.11631,22.182901 73.7881763,22.3980775 L73.5953678,21.830048 C73.9812842,21.5756657 74.5405486,21.4094206 75.1288541,21.4094206 C76.5560562,21.4094206 76.9033511,22.3980775 76.9033511,23.3475284 L76.9033511,25.1196951 C76.9033511,25.5305971 76.9225122,25.9323814 76.9805942,26.2551461 L76.2087614,26.2551461 Z" id="Fill-44" fill="#231815" mask="url(#mask-4)"></path>
                <path d="M78.0802614,22.9951314 C78.0802614,22.4371314 78.0706809,21.9575431 78.0416398,21.5168569 L78.7841322,21.5168569 L78.8131733,22.4468569 L78.8517948,22.4468569 C79.0640638,21.810749 79.5751261,21.4092686 80.1439711,21.4092686 C80.2403754,21.4092686 80.3077386,21.4186902 80.3849818,21.4384451 L80.3849818,22.2511314 C80.2984574,22.2313765 80.2116337,22.2219549 80.095769,22.2219549 C79.497883,22.2219549 79.073345,22.6820922 78.9577796,23.3279255 C78.9386185,23.4452392 78.9191581,23.5826118 78.9191581,23.7294059 L78.9191581,26.255298 L78.0802614,26.255298 L78.0802614,22.9951314 Z" id="Fill-45" fill="#231815" mask="url(#mask-4)"></path>
                <path d="M81.0411295,22.7995275 C81.0411295,22.3099098 81.0315489,21.9084294 81.0025079,21.5166745 L81.7450003,21.5166745 L81.7836219,22.2807333 L81.8126629,22.2807333 C82.0728347,21.8303216 82.5069532,21.4093902 83.2784866,21.4093902 C83.9149942,21.4093902 84.3970155,21.8008412 84.599704,22.3588412 L84.618865,22.3588412 C84.7637708,22.0944294 84.9466994,21.8889784 85.1395079,21.7421843 C85.4194395,21.5270078 85.7281128,21.4093902 86.1715125,21.4093902 C86.788859,21.4093902 87.7049988,21.8202922 87.7049988,23.4648118 L87.7049988,26.2551157 L86.8756827,26.2551157 L86.8756827,23.5730078 C86.8756827,22.6624588 86.5478483,22.1138804 85.8628392,22.1138804 C85.3808179,22.1138804 85.0047815,22.4764588 84.8598757,22.8973902 C84.8212541,23.0147039 84.7925125,23.1715275 84.7925125,23.3277431 L84.7925125,26.2551157 L83.9631964,26.2551157 L83.9631964,23.4161843 C83.9631964,22.6624588 83.635362,22.1138804 82.9889745,22.1138804 C82.4587511,22.1138804 82.0728347,22.5448412 81.9381082,22.975498 C81.8896067,23.1028412 81.8704456,23.2496353 81.8704456,23.3967333 L81.8704456,26.2551157 L81.0411295,26.2551157 L81.0411295,22.7995275 Z" id="Fill-46" fill="#231815" mask="url(#mask-4)"></path>
                <path d="M91.6116465,25.6090392 C91.7757134,25.6385196 92.0170234,25.6482451 92.3158167,25.6482451 C93.1837544,25.6482451 93.9843289,25.3251765 93.9843289,24.3656961 C93.9843289,23.4648725 93.222376,23.0931765 92.3059368,23.0931765 L91.6116465,23.0931765 L91.6116465,25.6090392 Z M91.6116465,22.4470392 L92.3735994,22.4470392 C93.2609976,22.4470392 93.7816404,21.9771765 93.7816404,21.3407647 C93.7816404,20.5672843 93.2029155,20.2636667 92.3541389,20.2636667 C91.9685219,20.2636667 91.7466723,20.293451 91.6116465,20.3223235 L91.6116465,22.4470392 Z M90.7727498,19.7448725 C91.1392058,19.6664608 91.7176313,19.6078039 92.3059368,19.6078039 C93.1451328,19.6078039 93.6852362,19.754902 94.0900143,20.0876961 C94.4277286,20.3420784 94.630417,20.7338333 94.630417,21.2526275 C94.630417,21.8890392 94.2154596,22.4470392 93.5307498,22.7017255 L93.5307498,22.7211765 C94.1480964,22.878 94.8714277,23.3967941 94.8714277,24.3754216 C94.8714277,24.943451 94.6495781,25.3741078 94.3217438,25.6971765 C93.8684641,26.1181078 93.1355523,26.3138333 92.0748061,26.3138333 C91.4960812,26.3138333 91.0523821,26.2746275 90.7727498,26.2357255 L90.7727498,19.7448725 Z" id="Fill-47" fill="#231815" mask="url(#mask-4)"></path>
                <path d="M95.7979513,26.2551765 L96.8043384,26.2551765 L96.8043384,21.5167353 L95.7979513,21.5167353 L95.7979513,26.2551765 Z M96.9186844,20.1852549 C96.9304031,20.4791471 96.6789839,20.7140784 96.2784177,20.7140784 C95.924016,20.7140784 95.6722416,20.4791471 95.6722416,20.1852549 C95.6722416,19.8819412 95.9353796,19.6470098 96.3011448,19.6470098 C96.6789839,19.6470098 96.9186844,19.8819412 96.9186844,20.1852549 L96.9186844,20.1852549 Z" id="Fill-48" fill="#231815" mask="url(#mask-4)"></path>
                <path d="M98.3629084,23.8958941 C98.3629084,24.9334824 98.9512138,25.7166882 99.7805299,25.7166882 C100.590386,25.7166882 101.198152,24.9432078 101.198152,23.8764431 C101.198152,23.0734824 100.802655,22.0550412 99.7999904,22.0550412 C98.7967275,22.0550412 98.3629084,22.9950706 98.3629084,23.8958941 M102.066089,23.8469627 C102.066089,25.5990706 100.870317,26.3628255 99.7419084,26.3628255 C98.4787731,26.3628255 97.5045512,25.4231 97.5045512,23.9250706 C97.5045512,22.3392078 98.5269752,21.4092078 99.8191515,21.4092078 C101.15953,21.4092078 102.066089,22.3978647 102.066089,23.8469627" id="Fill-49" fill="#231815" mask="url(#mask-4)"></path>
                <polygon id="Fill-50" fill="#231815" mask="url(#mask-4)" points="102.529818 23.9250098 104.911781 23.9250098 104.911781 23.288598 102.529818 23.288598"></polygon>
                <path d="M106.551432,24.326551 C106.551432,24.4538941 106.570294,24.5715118 106.589754,24.6787961 C106.74424,25.276002 107.255303,25.6875118 107.862769,25.6875118 C108.759748,25.6875118 109.280391,24.9432078 109.280391,23.8566882 C109.280391,22.9069333 108.788789,22.0942471 107.89181,22.0942471 C107.313085,22.0942471 106.772982,22.5154824 106.608915,23.1616196 C106.580174,23.2692078 106.551432,23.396551 106.551432,23.5141686 L106.551432,24.326551 Z M105.712236,23.0637569 C105.712236,22.4568255 105.693075,21.9672078 105.673614,21.5167961 L106.435567,21.5167961 L106.474189,22.3294824 L106.493649,22.3294824 C106.840645,21.7517275 107.390329,21.4092078 108.152281,21.4092078 C109.280391,21.4092078 110.129167,22.3784137 110.129167,23.8174824 C110.129167,25.5209627 109.106743,26.3628255 108.007376,26.3628255 C107.390329,26.3628255 106.850225,26.0886882 106.570294,25.6188255 L106.551432,25.6188255 L106.551432,28.193649 L105.712236,28.193649 L105.712236,23.0637569 Z" id="Fill-51" fill="#231815" mask="url(#mask-4)"></path>
                <path d="M111.007255,19.3044294 L111.855732,19.3044294 L111.855732,22.2612824 L111.874893,22.2612824 C112.010218,22.0163216 112.222487,21.8008412 112.482659,21.6537431 C112.733549,21.5072529 113.032642,21.4093902 113.350597,21.4093902 C113.977524,21.4093902 114.980487,21.8008412 114.980487,23.4359392 L114.980487,26.2551157 L114.13201,26.2551157 L114.13201,23.533802 C114.13201,22.7697431 113.852078,22.1239098 113.051803,22.1239098 C112.50182,22.1239098 112.068001,22.5153608 111.913514,22.9852235 C111.865312,23.1028412 111.855732,23.2301843 111.855732,23.3967333 L111.855732,26.2551157 L111.007255,26.2551157 L111.007255,19.3044294 Z" id="Fill-52" fill="#231815" mask="url(#mask-4)"></path>
                <path d="M118.626245,23.8371461 C117.700225,23.8176951 116.649059,23.9836363 116.649059,24.9042147 C116.649059,25.4625186 117.015515,25.7266265 117.449634,25.7266265 C118.0574,25.7266265 118.443017,25.3348716 118.578042,24.9333912 C118.607083,24.8452539 118.626245,24.7476951 118.626245,24.6592539 L118.626245,23.8371461 Z M118.75169,26.2551461 L118.684027,25.6579402 L118.655286,25.6579402 C118.394814,26.0299402 117.893333,26.3630382 117.227784,26.3630382 C116.282903,26.3630382 115.800582,25.6874206 115.800582,25.0020775 C115.800582,23.8565971 116.803545,23.2302147 118.607083,23.2399402 L118.607083,23.1420775 C118.607083,22.7503225 118.500799,22.0455284 117.546337,22.0455284 C117.111919,22.0455284 116.658939,22.182901 116.331105,22.3980775 L116.137997,21.830048 C116.523913,21.5756657 117.083178,21.4094206 117.671483,21.4094206 C119.098685,21.4094206 119.44598,22.3980775 119.44598,23.3475284 L119.44598,25.1196951 C119.44598,25.5305971 119.465441,25.9323814 119.522924,26.2551461 L118.75169,26.2551461 Z" id="Fill-53" fill="#231815" mask="url(#mask-4)"></path>
                <path d="M120.62316,22.9951314 C120.62316,22.4371314 120.613579,21.9575431 120.584538,21.5168569 L121.32733,21.5168569 L121.356072,22.4468569 L121.394693,22.4468569 C121.606663,21.810749 122.117725,21.4092686 122.687169,21.4092686 C122.783274,21.4092686 122.850637,21.4186902 122.92788,21.4384451 L122.92788,22.2511314 C122.841057,22.2313765 122.754233,22.2219549 122.638667,22.2219549 C122.040781,22.2219549 121.616243,22.6820922 121.500678,23.3279255 C121.481218,23.4452392 121.462057,23.5826118 121.462057,23.7294059 L121.462057,26.255298 L120.62316,26.255298 L120.62316,22.9951314 Z" id="Fill-54" fill="#231815" mask="url(#mask-4)"></path>
                <path d="M123.584058,22.7995275 C123.584058,22.3099098 123.574477,21.9084294 123.545436,21.5166745 L124.288228,21.5166745 L124.32655,22.2807333 L124.355591,22.2807333 C124.615763,21.8303216 125.049882,21.4093902 125.821415,21.4093902 C126.457923,21.4093902 126.939944,21.8008412 127.142632,22.3588412 L127.161793,22.3588412 C127.306699,22.0944294 127.489927,21.8889784 127.682436,21.7421843 C127.962368,21.5270078 128.270742,21.4093902 128.71474,21.4093902 C129.331787,21.4093902 130.247927,21.8202922 130.247927,23.4648118 L130.247927,26.2551157 L129.418312,26.2551157 L129.418312,23.5730078 C129.418312,22.6624588 129.090777,22.1138804 128.405768,22.1138804 C127.923746,22.1138804 127.54741,22.4764588 127.403103,22.8973902 C127.364482,23.0147039 127.335441,23.1715275 127.335441,23.3277431 L127.335441,26.2551157 L126.506125,26.2551157 L126.506125,23.4161843 C126.506125,22.6624588 126.17829,22.1138804 125.532202,22.1138804 C125.001679,22.1138804 124.615763,22.5448412 124.480737,22.975498 C124.432535,23.1028412 124.413673,23.2496353 124.413673,23.3967333 L124.413673,26.2551157 L123.584058,26.2551157 L123.584058,22.7995275 Z" id="Fill-55" fill="#231815" mask="url(#mask-4)"></path>
                <path d="M133.894074,23.8371461 C132.968054,23.8176951 131.916888,23.9836363 131.916888,24.9042147 C131.916888,25.4625186 132.283344,25.7266265 132.717463,25.7266265 C133.325229,25.7266265 133.710846,25.3348716 133.845872,24.9333912 C133.874913,24.8452539 133.894074,24.7476951 133.894074,24.6592539 L133.894074,23.8371461 Z M134.019519,26.2551461 L133.951857,25.6579402 L133.923115,25.6579402 C133.662644,26.0299402 133.161162,26.3630382 132.495613,26.3630382 C131.550732,26.3630382 131.068411,25.6874206 131.068411,25.0020775 C131.068411,23.8565971 132.071375,23.2302147 133.874913,23.2399402 L133.874913,23.1420775 C133.874913,22.7503225 133.768629,22.0455284 132.814167,22.0455284 C132.379749,22.0455284 131.926768,22.182901 131.598934,22.3980775 L131.405826,21.830048 C131.791743,21.5756657 132.351007,21.4094206 132.939312,21.4094206 C134.366515,21.4094206 134.713809,22.3980775 134.713809,23.3475284 L134.713809,25.1196951 C134.713809,25.5305971 134.73327,25.9323814 134.790753,26.2551461 L134.019519,26.2551461 Z" id="Fill-56" fill="#231815" mask="url(#mask-4)"></path>
                <path d="M139.217625,26.0788716 C138.996074,26.1964892 138.504173,26.3530088 137.877246,26.3530088 C136.469205,26.3530088 135.553065,25.3841069 135.553065,23.9350088 C135.553065,22.4761853 136.536868,21.4188422 138.060474,21.4188422 C138.562255,21.4188422 139.005655,21.5464892 139.236786,21.6641069 L139.044277,22.3293912 C138.841588,22.2117735 138.523634,22.1044892 138.060474,22.1044892 C136.990147,22.1044892 136.411422,22.9068422 136.411422,23.8958029 C136.411422,24.992352 137.105713,25.6676657 138.031433,25.6676657 C138.513754,25.6676657 138.832008,25.5406265 139.073318,25.4327343 L139.217625,26.0788716 Z" id="Fill-57" fill="#231815" mask="url(#mask-4)"></path>
                <path d="M142.979337,23.4257882 C142.988917,22.8778176 142.757487,22.0262294 141.802726,22.0262294 C140.944369,22.0262294 140.568332,22.8285824 140.500969,23.4257882 L142.979337,23.4257882 Z M140.491089,24.0424451 C140.510549,25.2076804 141.243461,25.6872686 142.091938,25.6872686 C142.699704,25.6872686 143.06616,25.5796804 143.384414,25.4429157 L143.529021,26.0592686 C143.230227,26.1963373 142.718866,26.3531608 141.976373,26.3531608 C140.53959,26.3531608 139.680934,25.3936804 139.680934,23.9640333 C139.680934,22.5349941 140.510549,21.4092686 141.870388,21.4092686 C143.393995,21.4092686 143.799072,22.7699255 143.799072,23.6412686 C143.799072,23.8175431 143.779911,23.9546118 143.770331,24.0424451 L140.491089,24.0424451 Z" id="Fill-58" fill="#231815" mask="url(#mask-4)"></path>
                <path d="M148.563688,24.962902 C148.563688,25.4522157 148.573268,25.8831765 148.60201,26.2551765 L147.849937,26.2551765 L147.801735,25.4816961 L147.782574,25.4816961 C147.560425,25.8637255 147.068823,26.3627647 146.239208,26.3627647 C145.506296,26.3627647 144.628778,25.9515588 144.628778,24.2872843 L144.628778,21.5167353 L145.477554,21.5167353 L145.477554,24.1404902 C145.477554,25.0413137 145.747606,25.6482451 146.519139,25.6482451 C147.087984,25.6482451 147.483481,25.2470686 147.637668,24.8650392 C147.68587,24.7376961 147.714911,24.5808725 147.714911,24.4246569 L147.714911,21.5167353 L148.563688,21.5167353 L148.563688,24.962902 Z" id="Fill-59" fill="#231815" mask="url(#mask-4)"></path>
                <path d="M150.801255,20.1562304 L150.801255,21.5168873 L152.016487,21.5168873 L152.016487,22.17275 L150.801255,22.17275 L150.801255,24.7281225 C150.801255,25.315299 150.965321,25.6480931 151.437762,25.6480931 C151.659612,25.6480931 151.823679,25.6189167 151.929663,25.5894363 L151.967986,26.2355735 C151.804517,26.3042598 151.543747,26.3531912 151.216212,26.3531912 C150.820416,26.3531912 150.502461,26.225848 150.299773,25.9906127 C150.058762,25.7362304 149.971938,25.315299 149.971938,24.757299 L149.971938,22.17275 L149.248607,22.17275 L149.248607,21.5168873 L149.971938,21.5168873 L149.971938,20.3811324 L150.801255,20.1562304 Z" id="Fill-60" fill="#231815" mask="url(#mask-4)"></path>
                <path d="M152.798337,26.2551765 L153.804456,26.2551765 L153.804456,21.5167353 L152.798337,21.5167353 L152.798337,26.2551765 Z M153.918771,20.1852549 C153.930132,20.4791471 153.67878,20.7140784 153.27832,20.7140784 C152.924013,20.7140784 152.672305,20.4791471 152.672305,20.1852549 C152.672305,19.8819412 152.935728,19.6470098 153.301396,19.6470098 C153.67878,19.6470098 153.918771,19.8819412 153.918771,20.1852549 L153.918771,20.1852549 Z" id="Fill-61" fill="#231815" mask="url(#mask-4)"></path>
                <path d="M158.169384,26.0788716 C157.947834,26.1964892 157.455933,26.3530088 156.829005,26.3530088 C155.420964,26.3530088 154.504825,25.3841069 154.504825,23.9350088 C154.504825,22.4761853 155.488627,21.4188422 157.012233,21.4188422 C157.514015,21.4188422 157.957414,21.5464892 158.188545,21.6641069 L157.996036,22.3293912 C157.793347,22.2117735 157.475393,22.1044892 157.012233,22.1044892 C155.941907,22.1044892 155.363182,22.9068422 155.363182,23.8958029 C155.363182,24.992352 156.057472,25.6676657 156.983192,25.6676657 C157.465513,25.6676657 157.783767,25.5406265 158.025077,25.4327343 L158.169384,26.0788716 Z" id="Fill-62" fill="#231815" mask="url(#mask-4)"></path>
                <path d="M161.429674,23.8371461 C160.503654,23.8176951 159.452489,23.9836363 159.452489,24.9042147 C159.452489,25.4625186 159.818945,25.7266265 160.253063,25.7266265 C160.860829,25.7266265 161.246446,25.3348716 161.381472,24.9333912 C161.410513,24.8452539 161.429674,24.7476951 161.429674,24.6592539 L161.429674,23.8371461 Z M161.555119,26.2551461 L161.487457,25.6579402 L161.458715,25.6579402 C161.198244,26.0299402 160.696762,26.3630382 160.031214,26.3630382 C159.086332,26.3630382 158.604011,25.6874206 158.604011,25.0020775 C158.604011,23.8565971 159.606975,23.2302147 161.410513,23.2399402 L161.410513,23.1420775 C161.410513,22.7503225 161.304229,22.0455284 160.349767,22.0455284 C159.915349,22.0455284 159.462369,22.182901 159.134534,22.3980775 L158.941426,21.830048 C159.327343,21.5756657 159.886607,21.4094206 160.474913,21.4094206 C161.902115,21.4094206 162.24941,22.3980775 162.24941,23.3475284 L162.24941,25.1196951 C162.24941,25.5305971 162.26887,25.9323814 162.326353,26.2551461 L161.555119,26.2551461 Z" id="Fill-63" fill="#231815" mask="url(#mask-4)"></path>
                <polygon id="Fill-64" fill="#231815" mask="url(#mask-4)" points="163.42617 26.2551765 164.274647 26.2551765 164.274647 19.3044902 163.42617 19.3044902"></polygon>
                <path d="M171.932349,26.0396657 C171.623975,26.1964892 171.006628,26.3530088 170.215934,26.3530088 C168.383355,26.3530088 167.004355,25.178048 167.004355,23.0147343 C167.004355,20.9492833 168.383355,19.5491167 170.399162,19.5491167 C171.209317,19.5491167 171.720379,19.7253912 171.941929,19.8427049 L171.73954,20.5377735 C171.421286,20.3812539 170.968007,20.2636363 170.428203,20.2636363 C168.904297,20.2636363 167.891753,21.2525971 167.891753,22.9852539 C167.891753,24.6005971 168.807893,25.6384892 170.389581,25.6384892 C170.900644,25.6384892 171.421286,25.5305971 171.759001,25.364352 L171.932349,26.0396657 Z" id="Fill-65" fill="#231815" mask="url(#mask-4)"></path>
                <path d="M173.283146,23.8958941 C173.283146,24.9334824 173.871452,25.7166882 174.700768,25.7166882 C175.510623,25.7166882 176.118389,24.9432078 176.118389,23.8764431 C176.118389,23.0734824 175.722892,22.0550412 174.720228,22.0550412 C173.716965,22.0550412 173.283146,22.9950706 173.283146,23.8958941 M176.986327,23.8469627 C176.986327,25.5990706 175.790555,26.3628255 174.662146,26.3628255 C173.399011,26.3628255 172.424789,25.4231 172.424789,23.9250706 C172.424789,22.3392078 173.447213,21.4092078 174.739389,21.4092078 C176.079768,21.4092078 176.986327,22.3978647 176.986327,23.8469627" id="Fill-66" fill="#231815" mask="url(#mask-4)"></path>
                <path d="M177.661755,25.7461382 C177.661755,25.3841676 177.903066,25.1294814 178.24048,25.1294814 C178.578195,25.1294814 178.809325,25.3841676 178.809325,25.7461382 C178.809325,26.0983833 178.587775,26.3627951 178.2306,26.3627951 C177.893186,26.3627951 177.661755,26.0983833 177.661755,25.7461382" id="Fill-67" fill="#231815" mask="url(#mask-4)"></path>
                <path d="M179.118358,27.4592529 C179.330328,26.881802 179.590799,25.8341843 179.697083,25.1196647 L180.641964,25.021498 C180.420414,25.8539392 179.995876,26.9404588 179.725824,27.4005961 L179.118358,27.4592529 Z" id="Fill-68" fill="#231815" mask="url(#mask-4)"></path>
                <polygon id="Fill-69" fill="#231815" mask="url(#mask-4)" points="183.351942 19.6570392 184.190838 19.6570392 184.190838 25.5403529 186.968299 25.5403529 186.968299 26.2551765 183.351942 26.2551765"></polygon>
                <path d="M188.704474,20.1562304 L188.704474,21.5168873 L189.919706,21.5168873 L189.919706,22.17275 L188.704474,22.17275 L188.704474,24.7281225 C188.704474,25.315299 188.868541,25.6480931 189.340981,25.6480931 C189.562831,25.6480931 189.726898,25.6189167 189.832883,25.5894363 L189.871205,26.2355735 C189.707737,26.3042598 189.446966,26.3531912 189.119431,26.3531912 C188.723635,26.3531912 188.40568,26.225848 188.202992,25.9906127 C187.961981,25.7362304 187.875158,25.315299 187.875158,24.757299 L187.875158,22.17275 L187.151826,22.17275 L187.151826,21.5168873 L187.875158,21.5168873 L187.875158,20.3811324 L188.704474,20.1562304 Z" id="Fill-70" fill="#231815" mask="url(#mask-4)"></path>
                <path d="M193.864287,23.4453608 C193.864287,23.3377725 193.854706,23.1909784 193.825665,23.0833902 C193.70022,22.5351157 193.23736,22.0847039 192.600852,22.0847039 C191.723334,22.0847039 191.202392,22.8679098 191.202392,23.9155275 C191.202392,24.8747039 191.665252,25.6676353 192.581691,25.6676353 C193.150536,25.6676353 193.671179,25.2862137 193.825665,24.6397725 C193.854706,24.5224588 193.864287,24.4048412 193.864287,24.2677725 L193.864287,23.4453608 Z M194.712764,19.3044294 L194.712764,25.0315275 C194.712764,25.4524588 194.722345,25.932351 194.751386,26.2551157 L193.989732,26.2551157 L193.951111,25.4327039 L193.93195,25.4327039 C193.671179,25.9612235 193.102334,26.3630078 192.340381,26.3630078 C191.212272,26.3630078 190.344035,25.393498 190.344035,23.9547333 C190.334454,22.3782922 191.299095,21.4093902 192.436785,21.4093902 C193.150536,21.4093902 193.632857,21.7519098 193.845126,22.1336353 L193.864287,22.1336353 L193.864287,19.3044294 L194.712764,19.3044294 Z" id="Fill-71" fill="#231815" mask="url(#mask-4)"></path>
                <path d="M195.725847,25.7461382 C195.725847,25.3841676 195.967157,25.1294814 196.304572,25.1294814 C196.642286,25.1294814 196.873417,25.3841676 196.873417,25.7461382 C196.873417,26.0983833 196.651867,26.3627951 196.294692,26.3627951 C195.957277,26.3627951 195.725847,26.0983833 195.725847,25.7461382" id="Fill-72" fill="#231815" mask="url(#mask-4)"></path>
                <path d="M35.1353093,1.6918098 L35.1353093,30.0255059" id="Stroke-73" stroke="#231815" stroke-width="0.622725" mask="url(#mask-4)"></path>
            </g>
        </g>
    </g>
</svg>