<?xml version="1.0" standalone="no"?><!DOCTYPE svg PUBLIC "-//W3C//DTD SVG 1.1//EN" "http://www.w3.org/Graphics/SVG/1.1/DTD/svg11.dtd"><svg t="1663236604998" class="icon" viewBox="0 0 1024 1024" version="1.1" xmlns="http://www.w3.org/2000/svg" p-id="1958" width="64" height="64" xmlns:xlink="http://www.w3.org/1999/xlink"><path d="M946.214914 279.967366c-17.304108-17.304108-45.336558-17.304108-62.640666 0L511.986185 651.555429l-371.562481-371.588063c-17.304108-17.304108-45.336558-17.304108-62.639642 0-17.304108 17.303085-17.304108 45.336558 0 62.640666l401.399019 401.424602c8.652054 8.651031 19.974937 12.977569 31.320333 12.977569 0.494257 0 0.988514-0.12382 1.481747-0.149403 0.51984 0.024559 1.013073 0.149403 1.509377 0.149403 11.345396 0 22.666232-4.326539 31.31931-12.977569l401.400043-401.424602C963.517999 325.303924 963.517999 297.270451 946.214914 279.967366z" p-id="1959" fill="#374567"></path></svg>