<?xml version="1.0" encoding="UTF-8"?>
<svg width="22px" height="22px" viewBox="0 0 22 22" version="1.1" xmlns="http://www.w3.org/2000/svg" xmlns:xlink="http://www.w3.org/1999/xlink">
    <title>规则引擎</title>
    <defs>
        <filter id="filter-1">
            <feColorMatrix in="SourceGraphic" type="matrix" values="0 0 0 0 0.254902 0 0 0 0 0.384314 0 0 0 0 0.921569 0 0 0 1.000000 0"></feColorMatrix>
        </filter>
    </defs>
    <g id="页面-1" stroke="none" stroke-width="1" fill="none" fill-rule="evenodd">
        <g id="东云官网-合作伙伴" transform="translate(-768.000000, -941.000000)">
            <g id="金融行业" transform="translate(360.000000, 524.000000)">
                <g id="中国银行" transform="translate(0.000000, 75.000000)">
                    <g id="规则引擎" transform="translate(397.000000, 331.000000)" filter="url(#filter-1)">
                        <g transform="translate(11.000000, 11.000000)">
                            <rect id="矩形" fill="#000000" fill-rule="nonzero" opacity="0" x="0" y="0" width="22" height="22"></rect>
                            <path d="M19.9375069,11 C19.7008683,11.0024169 19.466424,11.0456774 19.2445069,11.127875 L16.1211944,6.4425625 C16.3678501,6.05882778 16.499315,5.61241984 16.499999,5.15625 C16.499999,3.82731482 15.4226921,2.75 14.0937569,2.75 C12.7648217,2.75 11.6875069,3.82731482 11.6875069,5.15625 C11.6875069,5.764 11.9205694,6.3133125 12.2925069,6.7368125 L9.14444438,12.508375 C8.85363553,12.4239761 8.55278736,12.3791148 8.25000688,12.375 C7.56663188,12.375 6.93206938,12.58125 6.39650688,12.926375 L3.87544437,9.901375 C4.02944438,9.612625 4.12500687,9.288125 4.12500687,8.9375 C4.1247918,8.02769342 3.52846282,7.2254959 2.65731111,6.96311687 C1.78615939,6.70073783 0.845989274,7.04016272 0.343347279,7.7985156 C-0.159294715,8.55686848 -0.105662459,9.55499307 0.475347965,10.255118 C1.05635839,10.955243 2.02748679,11.191968 2.86550687,10.83775 L5.40513187,13.8854375 C5.01861197,14.4537322 4.81211147,15.1252182 4.81250688,15.8125 C4.81250688,17.7079375 6.35456938,19.25 8.25000688,19.25 C10.1454444,19.25 11.6875069,17.7079375 11.6875069,15.8125 C11.6875069,14.7214375 11.1670694,13.7589375 10.3716319,13.1291875 L13.4598819,7.467625 C13.6633819,7.5233125 13.8730694,7.5625 14.0937569,7.5625 C14.4436944,7.5625 14.7736944,7.484125 15.0734444,7.3500625 L18.1761319,12.00375 C17.9807302,12.3224473 17.8765702,12.6886721 17.8750069,13.0625 C17.8750069,14.2015873 18.7984196,15.125 19.9375069,15.125 C21.0765942,15.125 21.999999,14.2015873 21.999999,13.0625 C21.999999,11.9234127 21.0765942,11 19.9375069,11 Z M8.25000688,17.875 C7.11288188,17.875 6.18750688,16.949625 6.18750688,15.8125 C6.18750688,14.675375 7.11288188,13.75 8.25000688,13.75 C9.38713187,13.75 10.3125069,14.675375 10.3125069,15.8125 C10.3125069,16.949625 9.38713187,17.875 8.25000688,17.875 Z" id="形状" fill="#000000" fill-rule="nonzero"></path>
                        </g>
                    </g>
                </g>
            </g>
        </g>
    </g>
</svg>