<?xml version="1.0" encoding="UTF-8"?>
<svg width="85px" height="64px" viewBox="0 0 85 64" version="1.1" xmlns="http://www.w3.org/2000/svg" xmlns:xlink="http://www.w3.org/1999/xlink">
    <title>编组 9备份</title>
    <defs>
        <linearGradient x1="82.3832049%" y1="23.6640138%" x2="0%" y2="64.8661332%" id="linearGradient-1">
            <stop stop-color="#A1AFE9" offset="0%"></stop>
            <stop stop-color="#4162EB" offset="100%"></stop>
        </linearGradient>
        <filter id="filter-2">
            <feColorMatrix in="SourceGraphic" type="matrix" values="0 0 0 0 1.000000 0 0 0 0 1.000000 0 0 0 0 1.000000 0 0 0 1.000000 0"></feColorMatrix>
        </filter>
    </defs>
    <g id="页面-1" stroke="none" stroke-width="1" fill="none" fill-rule="evenodd">
        <g id="东云官网-解决方案-混合云" transform="translate(-765.000000, -1698.000000)">
            <g id="需求备份" transform="translate(360.000000, 1586.000000)">
                <g id="编组-19备份" transform="translate(305.333333, 75.000000)">
                    <g id="编组-9备份" transform="translate(99.666667, 37.000000)">
                        <path d="M42.5,0 C54.2360509,0 63.75,9.55125867 63.75,21.3333333 C63.75,21.3336671 63.75,21.3340009 63.75,21.3343346 L63.6666667,21.3333333 C75.4487413,21.3333333 85,30.884592 85,42.6666667 C85,54.4487413 75.4487413,64 63.6666667,64 L21.3333333,64 C9.55125867,64 1.442888e-15,54.4487413 0,42.6666667 C-1.43949538e-15,30.9122949 9.50639621,21.3782609 21.2502617,21.3334917 C21.25,9.55125867 30.7639491,0 42.5,0 Z" id="形状结合备份" fill="url(#linearGradient-1)"></path>
                        <g filter="url(#filter-2)" id="架构融合">
                            <g transform="translate(23.000000, 17.000000)">
                                <rect id="矩形" fill="#000000" fill-rule="nonzero" opacity="0" x="0" y="0" width="40" height="40"></rect>
                                <path d="M31.1380145,21.4951076 C31.1380145,27.8825832 25.8498789,33.1428571 19.4285714,33.1428571 C13.0072639,33.1428571 7.71912833,27.8825832 7.71912833,21.4951076 C7.71912833,15.1076321 13.0072639,9.84735812 19.4285714,9.84735812 C25.8498789,9.97260274 31.1380145,15.1076321 31.1380145,21.4951076 Z M19.4285714,12.6027397 C14.5181598,12.6027397 10.4891041,16.6105675 10.4891041,21.4951076 C10.4891041,26.3796477 14.5181598,30.3874755 19.4285714,30.3874755 C24.3389831,30.3874755 28.3680387,26.3796477 28.3680387,21.4951076 C28.3680387,16.6105675 24.3389831,12.6027397 19.4285714,12.6027397 Z M9.85956416,22.6223092 C12.7554479,22.6223092 15.1476998,25.0019569 15.1476998,27.8825832 C15.1476998,30.7632094 12.7554479,33.1428571 9.85956416,33.1428571 C6.96368039,33.1428571 4.57142857,30.7632094 4.57142857,27.8825832 C4.57142857,25.0019569 6.96368039,22.6223092 9.85956416,22.6223092 L9.85956416,22.6223092 Z M28.9975787,22.6223092 C31.8934625,22.6223092 34.2857143,25.0019569 34.2857143,27.8825832 C34.2857143,30.7632094 31.8934625,33.1428571 28.9975787,33.1428571 C26.1016949,33.1428571 23.7094431,30.7632094 23.7094431,27.8825832 C23.7094431,25.0019569 26.1016949,22.6223092 28.9975787,22.6223092 Z M19.4285714,5.71428571 C22.3244552,5.71428571 24.716707,8.09393346 24.716707,10.9745597 C24.716707,13.8551859 22.3244552,16.2348337 19.4285714,16.2348337 C16.5326877,16.2348337 14.1404358,13.8551859 14.1404358,10.9745597 C14.1404358,8.09393346 16.5326877,5.71428571 19.4285714,5.71428571 Z" id="形状" fill="#000000" fill-rule="nonzero"></path>
                            </g>
                        </g>
                    </g>
                </g>
            </g>
        </g>
    </g>
</svg>