<?xml version="1.0" encoding="UTF-8"?>
<svg width="20px" height="20px" viewBox="0 0 20 20" version="1.1" xmlns="http://www.w3.org/2000/svg" xmlns:xlink="http://www.w3.org/1999/xlink">
    <title>服务器,任务管理器</title>
    <defs>
        <filter id="filter-1">
            <feColorMatrix in="SourceGraphic" type="matrix" values="0 0 0 0 0.254902 0 0 0 0 0.384314 0 0 0 0 0.921569 0 0 0 1.000000 0"></feColorMatrix>
        </filter>
    </defs>
    <g id="页面-1" stroke="none" stroke-width="1" fill="none" fill-rule="evenodd">
        <g id="东云官网-合作伙伴" transform="translate(-564.000000, -1972.000000)">
            <g id="教育行业" transform="translate(359.000000, 1505.000000)">
                <g id="中国银行" transform="translate(0.000000, 123.000000)">
                    <g id="服务器,任务管理器" transform="translate(192.000000, 331.000000)" filter="url(#filter-1)">
                        <g transform="translate(13.000000, 13.000000)">
                            <rect id="矩形" fill="#000000" fill-rule="nonzero" opacity="0" x="0" y="0" width="20" height="20"></rect>
                            <path d="M0,5 L0,7.34375 C0,7.4296875 0.0703125,7.5 0.15625,7.5 L19.84375,7.5 C19.9296875,7.5 20,7.4296875 20,7.34375 L20,5 C20,4.31054688 19.4394531,3.75 18.75,3.75 L1.25,3.75 C0.560546875,3.75 0,4.31054688 0,5 Z M1.25,6.09375 L1.25,5.3125 C1.25,5.140625 1.390625,5 1.5625,5 L9.53125,5 C9.6171875,5 9.6875,5.0703125 9.6875,5.15625 L9.6875,6.09375 C9.6875,6.1796875 9.6171875,6.25 9.53125,6.25 L1.40625,6.25 C1.3203125,6.25 1.25,6.1796875 1.25,6.09375 Z M18.59375,6.25 L16.8359375,6.25 C16.75,6.25 16.6796875,6.1796875 16.6796875,6.09375 L16.6796875,5.15625 C16.6796875,5.0703125 16.75,5 16.8359375,5 L18.4375,5 C18.609375,5 18.75,5.140625 18.75,5.3125 L18.75,6.09375 C18.75,6.1796875 18.6796875,6.25 18.59375,6.25 Z M0,8.59375 L0,12.03125 C0,12.1171875 0.0703125,12.1875 0.15625,12.1875 L19.84375,12.1875 C19.9296875,12.1875 20,12.1171875 20,12.03125 L20,8.59375 C20,8.5078125 19.9296875,8.4375 19.84375,8.4375 L0.15625,8.4375 C0.0703125,8.4375 0,8.5078125 0,8.59375 Z M1.25,10.78125 L1.25,9.84375 C1.25,9.7578125 1.3203125,9.6875 1.40625,9.6875 L9.53125,9.6875 C9.6171875,9.6875 9.6875,9.7578125 9.6875,9.84375 L9.6875,10.78125 C9.6875,10.8671875 9.6171875,10.9375 9.53125,10.9375 L1.40625,10.9375 C1.3203125,10.9375 1.25,10.8671875 1.25,10.78125 Z M18.59375,10.9375 L16.8359375,10.9375 C16.75,10.9375 16.6796875,10.8671875 16.6796875,10.78125 L16.6796875,9.84375 C16.6796875,9.7578125 16.75,9.6875 16.8359375,9.6875 L18.59375,9.6875 C18.6796875,9.6875 18.75,9.7578125 18.75,9.84375 L18.75,10.78125 C18.75,10.8671875 18.6796875,10.9375 18.59375,10.9375 Z M0,13.28125 L0,15.625 C0,16.3144531 0.560546875,16.875 1.25,16.875 L18.75,16.875 C19.4394531,16.875 20,16.3144531 20,15.625 L20,13.28125 C20,13.1953125 19.9296875,13.125 19.84375,13.125 L0.15625,13.125 C0.0703125,13.125 0,13.1953125 0,13.28125 Z M1.25,15.3125 L1.25,14.53125 C1.25,14.4453125 1.3203125,14.375 1.40625,14.375 L9.53125,14.375 C9.6171875,14.375 9.6875,14.4453125 9.6875,14.53125 L9.6875,15.46875 C9.6875,15.5546875 9.6171875,15.625 9.53125,15.625 L1.5625,15.625 C1.390625,15.625 1.25,15.484375 1.25,15.3125 Z M18.4375,15.625 L16.8359375,15.625 C16.75,15.625 16.6796875,15.5546875 16.6796875,15.46875 L16.6796875,14.53125 C16.6796875,14.4453125 16.75,14.375 16.8359375,14.375 L18.59375,14.375 C18.6796875,14.375 18.75,14.4453125 18.75,14.53125 L18.75,15.3125 C18.75,15.484375 18.609375,15.625 18.4375,15.625 Z" id="形状" fill="#000000" fill-rule="nonzero"></path>
                        </g>
                    </g>
                </g>
            </g>
        </g>
    </g>
</svg>