<?xml version="1.0" encoding="UTF-8"?>
<svg width="232px" height="60px" viewBox="0 0 232 60" version="1.1" xmlns="http://www.w3.org/2000/svg" xmlns:xlink="http://www.w3.org/1999/xlink">
    <!-- Generator: Sketch 53.2 (72643) - https://sketchapp.com -->
    <title>01.阳光保险</title>
    <desc>Created with Sketch.</desc>
    <defs>
        <path d="M16.3437647,0.243333333 C7.90423529,0.315 1.11505882,7.30166667 1.18917647,15.85 L1.18917647,15.85 C1.26,24.3866667 8.16117647,31.2616667 16.604,31.1866667 L16.604,31.1866667 C25.0435294,31.1116667 31.8277647,24.1266667 31.752,15.5883333 L31.752,15.5883333 C31.6828235,7.08666667 24.8557647,0.243333333 16.4771765,0.243333333 L16.4771765,0.243333333 C16.4327059,0.243333333 16.3882353,0.243333333 16.3437647,0.243333333" id="path-1"></path>
        <linearGradient x1="50.0011166%" y1="99.9977421%" x2="50.0011166%" y2="-0.00194760798%" id="linearGradient-3">
            <stop stop-color="#EDB818" offset="0%"></stop>
            <stop stop-color="#E1740D" offset="100%"></stop>
        </linearGradient>
        <polygon id="path-4" points="0 38.3333333 167.161647 38.3333333 167.161647 0.243333333 0 0.243333333"></polygon>
    </defs>
    <g id="01.阳光保险" stroke="none" stroke-width="1" fill="none" fill-rule="evenodd">
        <g transform="translate(0.000000, -25.000000)">
            <rect id="矩形" x="0" y="0" width="232" height="110"></rect>
            <g id="编组" transform="translate(25.000000, 35.000000)">
                <g transform="translate(8.235294, 1.424000)">
                    <mask id="mask-2" fill="white">
                        <use xlink:href="#path-1"></use>
                    </mask>
                    <g id="Clip-2"></g>
                    <path d="M16.3437647,0.243333333 C7.90423529,0.315 1.11505882,7.30166667 1.18917647,15.85 L1.18917647,15.85 C1.26,24.3866667 8.16117647,31.2616667 16.604,31.1866667 L16.604,31.1866667 C25.0435294,31.1116667 31.8277647,24.1266667 31.752,15.5883333 L31.752,15.5883333 C31.6828235,7.08666667 24.8557647,0.243333333 16.4771765,0.243333333 L16.4771765,0.243333333 C16.4327059,0.243333333 16.3882353,0.243333333 16.3437647,0.243333333" id="Fill-1" fill="url(#linearGradient-3)" mask="url(#mask-2)"></path>
                </g>
                <g transform="translate(0.000000, 1.424000)">
                    <path d="M49.4201647,36.5468333 C43.4084,34.5935 34.5653412,33.3535 24.7060471,33.3535 C14.8484,33.3535 6.01028235,34.5935 0.000164705882,36.5468333 L49.4201647,36.5468333 Z" id="Fill-3" fill="#E89112"></path>
                    <path d="M53.8553647,34.4603333 L55.1120706,34.332 C55.1878353,34.7603333 55.3393647,35.0736667 55.5699529,35.2736667 C55.8005412,35.4736667 56.1118353,35.5736667 56.5038353,35.5736667 C56.9172471,35.5736667 57.2301882,35.4853333 57.4393647,35.307 C57.6501882,35.127 57.7572471,34.9203333 57.7572471,34.682 C57.7572471,34.5303333 57.7111294,34.3986667 57.6238353,34.2903333 C57.5332471,34.1853333 57.3784235,34.092 57.1610118,34.0103333 C57.0094824,33.9603333 56.6652471,33.867 56.1283059,33.7303333 C55.4381882,33.5553333 54.9539529,33.3436667 54.6739529,33.092 C54.2836,32.7336667 54.0892471,32.3003333 54.0892471,31.7886667 C54.0892471,31.4586667 54.1814824,31.1536667 54.3643059,30.8636667 C54.5471294,30.5753333 54.8139529,30.3603333 55.1614824,30.2103333 C55.5073647,30.0586667 55.9240706,29.9836667 56.4165412,29.9836667 C57.2170118,29.9836667 57.8181882,30.1636667 58.2233647,30.5203333 C58.6285412,30.877 58.8393647,31.3486667 58.8607765,31.9453333 L57.5727765,32.0003333 C57.5184235,31.667 57.3998353,31.4303333 57.2186588,31.2836667 C57.0358353,31.1403333 56.7657176,31.0653333 56.4050118,31.0653333 C56.0311294,31.0653333 55.7379529,31.1436667 55.5271294,31.3003333 C55.3904235,31.3986667 55.3212471,31.5336667 55.3212471,31.7003333 C55.3212471,31.852 55.3854824,31.9853333 55.5123059,32.0936667 C55.6737176,32.232 56.0690118,32.3753333 56.6965412,32.5253333 C57.3207765,32.6753333 57.7852471,32.8286667 58.0850118,32.9886667 C58.3864235,33.152 58.6203059,33.3703333 58.7899529,33.647 C58.9579529,33.9236667 59.0436,34.2686667 59.0436,34.6786667 C59.0436,35.0486667 58.9414824,35.3936667 58.7388941,35.7186667 C58.5363059,36.0403333 58.2480706,36.282 57.8774824,36.4386667 C57.5052471,36.5936667 57.0424235,36.6736667 56.4890118,36.6736667 C55.6819529,36.6736667 55.0626588,36.4836667 54.6311294,36.107 C54.1979529,35.7303333 53.9393647,35.1836667 53.8553647,34.4603333" id="Fill-5" fill="#221714"></path>
                    <path d="M63.1571294,36.5533333 L63.1571294,35.8533333 C62.9891294,36.1016667 62.7684235,36.2983333 62.4933647,36.4433333 C62.2216,36.5883333 61.9317176,36.66 61.6253647,36.66 C61.3140706,36.66 61.0357176,36.5883333 60.7903059,36.4516667 C60.5432471,36.3116667 60.3653647,36.12 60.2533647,35.87 C60.1446588,35.6183333 60.0886588,35.2733333 60.0886588,34.835 L60.0886588,31.87 L61.3124235,31.87 L61.3124235,34.0183333 C61.3124235,34.6783333 61.3371294,35.08 61.3799529,35.23 C61.4260706,35.3783333 61.5084235,35.495 61.6270118,35.5816667 C61.7456,35.67 61.8954824,35.7116667 62.0799529,35.7116667 C62.2891294,35.7116667 62.4752471,35.655 62.6416,35.5383333 C62.8079529,35.4216667 62.9199529,35.2766667 62.9808941,35.1066667 C63.0401882,34.9333333 63.0731294,34.5133333 63.0731294,33.845 L63.0731294,31.87 L64.2952471,31.87 L64.2952471,36.5533333 L63.1571294,36.5533333 Z" id="Fill-7" fill="#221714"></path>
                    <path d="M69.7646353,36.5533333 L68.5392235,36.5533333 L68.5392235,34.165 C68.5392235,33.66 68.5128706,33.335 68.4618118,33.185 C68.4091059,33.0383333 68.3267529,32.9216667 68.2081647,32.84 C68.0879294,32.7583333 67.9479294,32.715 67.7815765,32.715 C67.5724,32.715 67.3813412,32.775 67.2133412,32.8933333 C67.0436941,33.0083333 66.9300471,33.1633333 66.8674588,33.36 C66.8032235,33.5533333 66.7735765,33.91 66.7735765,34.435 L66.7735765,36.5533333 L65.5498118,36.5533333 L65.5498118,31.87 L66.6862824,31.87 L66.6862824,32.5583333 C67.0898118,32.0333333 67.5987529,31.7683333 68.2098118,31.7683333 C68.4815765,31.7683333 68.7269882,31.82 68.9493412,31.9183333 C69.1749882,32.015 69.3446353,32.14 69.4582824,32.2933333 C69.5719294,32.4466667 69.6526353,32.62 69.6971059,32.81 C69.7415765,33.005 69.7646353,33.2833333 69.7646353,33.645 L69.7646353,36.5533333 Z" id="Fill-9" fill="#221714"></path>
                    <path d="M70.5784471,35.222 L71.8088,35.0336667 C71.8598588,35.2736667 71.9652706,35.4586667 72.1233882,35.582 C72.2831529,35.7053333 72.5055059,35.7686667 72.7937412,35.7686667 C73.1083294,35.7686667 73.3471529,35.7086667 73.5052706,35.592 C73.6139765,35.507 73.6650353,35.3986667 73.6650353,35.2586667 C73.6650353,35.1686667 73.6353882,35.0886667 73.5777412,35.027 C73.5184471,34.9686667 73.3817412,34.9136667 73.1709176,34.862 C72.1843294,34.6453333 71.5600941,34.442 71.2965647,34.2603333 C70.9292706,34.007 70.7480941,33.657 70.7480941,33.2053333 C70.7480941,32.802 70.9062118,32.4586667 71.2224471,32.1836667 C71.5386824,31.907 72.0278588,31.7686667 72.6949176,31.7686667 C73.3273882,31.7686667 73.7968,31.872 74.1015059,32.0803333 C74.4111529,32.2903333 74.6236235,32.5986667 74.7405647,33.007 L73.5843294,33.2253333 C73.5349176,33.042 73.4410353,32.902 73.3043294,32.8053333 C73.1659765,32.7086667 72.9699765,32.6586667 72.7163294,32.6586667 C72.3935059,32.6586667 72.1612706,32.7053333 72.0229176,32.797 C71.9306824,32.8603333 71.8829176,32.9453333 71.8829176,33.0486667 C71.8829176,33.1386667 71.9240941,33.2103333 72.0064471,33.2736667 C72.1184471,33.357 72.4989176,33.4703333 73.1495059,33.6203333 C73.7984471,33.772 74.2530353,33.952 74.5116235,34.172 C74.7669176,34.3936667 74.8937412,34.6986667 74.8937412,35.0936667 C74.8937412,35.522 74.7175059,35.8886667 74.3633882,36.1953333 C74.0092706,36.5053333 73.4855059,36.6603333 72.7937412,36.6603333 C72.1629176,36.6603333 71.6671529,36.532 71.2982118,36.2736667 C70.9292706,36.0153333 70.6920941,35.6653333 70.5784471,35.222" id="Fill-11" fill="#221714"></path>
                    <path d="M77.1852941,30.0901667 L77.1852941,32.4685 C77.5805882,32.0018333 78.05,31.7685 78.5984706,31.7685 C78.8784706,31.7685 79.1337647,31.8235 79.3577647,31.9251667 C79.5850588,32.0335 79.7563529,32.1685 79.87,32.3335 C79.9869412,32.4968333 80.0627059,32.6801667 80.1038824,32.8785 C80.1467059,33.0801667 80.1681176,33.3885 80.1681176,33.8051667 L80.1681176,36.5535 L78.9427059,36.5535 L78.9427059,34.0818333 C78.9427059,33.5918333 78.9196471,33.2785 78.8751765,33.1468333 C78.8290588,33.0168333 78.7467059,32.9101667 78.6297647,32.8335 C78.5128235,32.7568333 78.3645882,32.7151667 78.1883529,32.7151667 C77.9874118,32.7151667 77.8045882,32.7668333 77.6464706,32.8651667 C77.4867059,32.9668333 77.3714118,33.1151667 77.2956471,33.3185 C77.2231765,33.5185 77.1852941,33.8135 77.1852941,34.2085 L77.1852941,36.5535 L75.9615294,36.5535 L75.9615294,30.0901667 L77.1852941,30.0901667 Z" id="Fill-13" fill="#221714"></path>
                    <mask id="mask-5" fill="white">
                        <use xlink:href="#path-4"></use>
                    </mask>
                    <g id="Clip-16"></g>
                    <path d="M81.4108235,36.5533333 L82.6345882,36.5533333 L82.6345882,31.87 L81.4108235,31.87 L81.4108235,36.5533333 Z M81.4108235,31.235 L82.6345882,31.235 L82.6345882,30.09 L81.4108235,30.09 L81.4108235,31.235 Z" id="Fill-15" fill="#221714" mask="url(#mask-5)"></path>
                    <path d="M88.0929412,36.5533333 L86.8675294,36.5533333 L86.8675294,34.165 C86.8675294,33.66 86.8428235,33.335 86.7884706,33.185 C86.7357647,33.0383333 86.6534118,32.9216667 86.5348235,32.84 C86.4162353,32.7583333 86.2762353,32.715 86.1098824,32.715 C85.8990588,32.715 85.708,32.775 85.5383529,32.8933333 C85.372,33.0083333 85.2550588,33.1633333 85.1924706,33.36 C85.1298824,33.5533333 85.1018824,33.91 85.1018824,34.435 L85.1018824,36.5533333 L83.8748235,36.5533333 L83.8748235,31.87 L85.0145882,31.87 L85.0145882,32.5583333 C85.4164706,32.0333333 85.9270588,31.7683333 86.5364706,31.7683333 C86.8098824,31.7683333 87.0536471,31.82 87.2776471,31.9183333 C87.5016471,32.015 87.6712941,32.14 87.7849412,32.2933333 C87.9002353,32.4466667 87.9809412,32.62 88.0254118,32.81 C88.0698824,33.005 88.0929412,33.2833333 88.0929412,33.645 L88.0929412,36.5533333 Z" id="Fill-17" fill="#221714" mask="url(#mask-5)"></path>
                    <path d="M92.0875529,33.8125 C92.0793176,33.4541667 91.9870824,33.1825 91.8124941,32.9975 C91.6395529,32.8091667 91.4287294,32.7158333 91.1767294,32.7158333 C90.9099059,32.7158333 90.6908471,32.8141667 90.5162588,33.0108333 C90.3416706,33.2091667 90.2560235,33.4741667 90.2593176,33.8125 L92.0875529,33.8125 Z M92.0183765,35.0641667 L93.2372,35.2741667 C93.0823765,35.7241667 92.8353176,36.0691667 92.4976706,36.3041667 C92.1567294,36.5425 91.7334353,36.6608333 91.2244941,36.6608333 C90.4190824,36.6608333 89.8244941,36.3941667 89.4374353,35.8608333 C89.1343765,35.4375 88.9795529,34.8975 88.9795529,34.2491667 C88.9795529,33.4741667 89.1821412,32.8658333 89.5807294,32.4258333 C89.9826118,31.9875 90.4882588,31.7675 91.1009647,31.7675 C91.7894353,31.7675 92.3313176,31.9991667 92.7315529,32.4575 C93.1301412,32.9191667 93.3195529,33.6208333 93.3030824,34.5691667 L90.2362588,34.5691667 C90.2444941,34.9391667 90.3449647,35.2241667 90.5327294,35.4291667 C90.7204941,35.6325 90.9576706,35.7358333 91.2376706,35.7358333 C91.4303765,35.7358333 91.5917882,35.6808333 91.7235529,35.5791667 C91.8520235,35.4708333 91.9508471,35.2991667 92.0183765,35.0641667 L92.0183765,35.0641667 Z" id="Fill-18" fill="#221714" mask="url(#mask-5)"></path>
                    <polygon id="Fill-19" fill="#221714" mask="url(#mask-5)" points="96.7416471 36.5533333 98.0312941 36.5533333 98.0312941 30.09 96.7416471 30.09"></polygon>
                    <path d="M103.454565,36.5533333 L102.2308,36.5533333 L102.2308,34.165 C102.2308,33.66 102.2028,33.335 102.151741,33.185 C102.100682,33.0383333 102.015035,32.9216667 101.899741,32.84 C101.779506,32.7583333 101.637859,32.715 101.471506,32.715 C101.260682,32.715 101.069624,32.775 100.901624,32.8933333 C100.733624,33.0083333 100.618329,33.1633333 100.555741,33.36 C100.493153,33.5533333 100.463506,33.91 100.463506,34.435 L100.463506,36.5533333 L99.2380941,36.5533333 L99.2380941,31.87 L100.376212,31.87 L100.376212,32.5583333 C100.779741,32.0333333 101.287035,31.7683333 101.901388,31.7683333 C102.169859,31.7683333 102.416918,31.82 102.640918,31.9183333 C102.863271,32.015 103.032918,32.14 103.146565,32.2933333 C103.263506,32.4466667 103.342565,32.62 103.387035,32.81 C103.433153,33.005 103.454565,33.2833333 103.454565,33.645 L103.454565,36.5533333 Z" id="Fill-20" fill="#221714" mask="url(#mask-5)"></path>
                    <path d="M104.270024,35.222 L105.500376,35.0336667 C105.551435,35.2736667 105.658494,35.4586667 105.814965,35.582 C105.974729,35.7053333 106.200376,35.7686667 106.485318,35.7686667 C106.801553,35.7686667 107.038729,35.7086667 107.198494,35.592 C107.303906,35.507 107.358259,35.3986667 107.358259,35.2586667 C107.358259,35.1686667 107.330259,35.0886667 107.272612,35.027 C107.210024,34.9686667 107.074965,34.9136667 106.864141,34.862 C105.8792,34.6453333 105.251671,34.442 104.988141,34.2603333 C104.622494,34.007 104.439671,33.657 104.439671,33.2053333 C104.439671,32.802 104.597788,32.4586667 104.912376,32.1836667 C105.230259,31.907 105.722729,31.7686667 106.386494,31.7686667 C107.018965,31.7686667 107.490024,31.872 107.798024,32.0803333 C108.106024,32.2903333 108.3152,32.5986667 108.433788,33.007 L107.277553,33.2253333 C107.226494,33.042 107.132612,32.902 106.994259,32.8053333 C106.857553,32.7086667 106.6632,32.6586667 106.406259,32.6586667 C106.086729,32.6586667 105.854494,32.7053333 105.716141,32.797 C105.623906,32.8603333 105.576141,32.9453333 105.576141,33.0486667 C105.576141,33.1386667 105.617318,33.2103333 105.699671,33.2736667 C105.810024,33.357 106.190494,33.4703333 106.839435,33.6203333 C107.491671,33.772 107.944612,33.952 108.204847,34.172 C108.460141,34.3936667 108.588612,34.6986667 108.588612,35.0936667 C108.588612,35.522 108.410729,35.8886667 108.056612,36.1953333 C107.702494,36.5053333 107.178729,36.6603333 106.485318,36.6603333 C105.857788,36.6603333 105.357082,36.532 104.991435,36.2736667 C104.622494,36.0153333 104.385318,35.6653333 104.270024,35.222" id="Fill-21" fill="#221714" mask="url(#mask-5)"></path>
                    <path d="M112.703129,36.5533333 L112.703129,35.8533333 C112.533482,36.1016667 112.312776,36.2983333 112.037718,36.4433333 C111.764306,36.5883333 111.474424,36.66 111.169718,36.66 C110.860071,36.66 110.580071,36.5883333 110.334659,36.4516667 C110.085953,36.3116667 109.906424,36.12 109.797718,35.87 C109.689012,35.6183333 109.631365,35.2733333 109.631365,34.835 L109.631365,31.87 L110.855129,31.87 L110.855129,34.0183333 C110.855129,34.6783333 110.879835,35.08 110.925953,35.23 C110.968776,35.3783333 111.051129,35.495 111.169718,35.5816667 C111.288306,35.67 111.441482,35.7116667 111.622659,35.7116667 C111.831835,35.7116667 112.017953,35.655 112.1876,35.5383333 C112.349012,35.4216667 112.462659,35.2766667 112.5236,35.1066667 C112.584541,34.9333333 112.615835,34.5133333 112.615835,33.845 L112.615835,31.87 L113.841247,31.87 L113.841247,36.5533333 L112.703129,36.5533333 Z" id="Fill-22" fill="#221714" mask="url(#mask-5)"></path>
                    <path d="M116.282024,36.5533333 L115.056612,36.5533333 L115.056612,31.87 L116.193082,31.87 L116.193082,32.5366667 C116.389082,32.2233333 116.563671,32.015 116.720141,31.9183333 C116.874965,31.82 117.0512,31.7683333 117.2472,31.7683333 C117.5272,31.7683333 117.795671,31.8466667 118.055906,32.0033333 L117.677082,33.0816667 C117.469553,32.945 117.278494,32.8783333 117.102259,32.8783333 C116.929318,32.8783333 116.784376,32.925 116.664141,33.0216667 C116.5472,33.115 116.453318,33.29 116.384141,33.5366667 C116.314965,33.7883333 116.282024,34.31 116.282024,35.1083333 L116.282024,36.5533333 Z" id="Fill-23" fill="#221714" mask="url(#mask-5)"></path>
                    <path d="M121.132282,34.3073333 C120.975812,34.359 120.725459,34.4223333 120.387812,34.4956667 C120.046871,34.569 119.826165,34.6406667 119.7224,34.7106667 C119.562635,34.8256667 119.483576,34.969 119.483576,35.1456667 C119.483576,35.319 119.546165,35.4706667 119.672988,35.5956667 C119.801459,35.724 119.962871,35.7873333 120.160518,35.7873333 C120.381224,35.7873333 120.592047,35.7156667 120.791341,35.5656667 C120.941224,35.454 121.0384,35.3173333 121.084518,35.154 C121.115812,35.049 121.132282,34.8473333 121.132282,34.5523333 L121.132282,34.3073333 Z M119.496753,33.304 L118.386635,33.099 C118.510165,32.6473333 118.725929,32.314 119.030635,32.0956667 C119.333694,31.8756667 119.788282,31.769 120.391106,31.769 C120.937929,31.769 121.341459,31.834 121.611576,31.964 C121.875106,32.0973333 122.064518,32.2606667 122.173224,32.4606667 C122.281929,32.6656667 122.337929,33.0306667 122.337929,33.5706667 L122.318165,35.0156667 C122.318165,35.429 122.341224,35.7306667 122.375812,35.9273333 C122.415341,36.1206667 122.489459,36.3306667 122.598165,36.554 L121.389224,36.554 C121.356282,36.4706667 121.316753,36.3473333 121.268988,36.1873333 C121.249224,36.114 121.236047,36.0656667 121.227812,36.0423333 C121.018635,36.2473333 120.792988,36.4006667 120.555812,36.504 C120.316988,36.609 120.063341,36.6606667 119.794871,36.6606667 C119.317224,36.6606667 118.943341,36.5306667 118.668282,36.2706667 C118.393224,36.0073333 118.256518,35.6756667 118.256518,35.2773333 C118.256518,35.0106667 118.319106,34.779 118.445929,34.569 C118.569459,34.364 118.745694,34.204 118.971341,34.094 C119.193694,33.984 119.518165,33.889 119.943106,33.8056667 C120.514635,33.699 120.909929,33.594 121.132282,33.5023333 L121.132282,33.3773333 C121.132282,33.1406667 121.071341,32.969 120.957694,32.869 C120.8424,32.7673333 120.621694,32.7156667 120.300518,32.7156667 C120.083106,32.7156667 119.913459,32.759 119.793224,32.8456667 C119.669694,32.9356667 119.572518,33.0856667 119.496753,33.304 L119.496753,33.304 Z" id="Fill-24" fill="#221714" mask="url(#mask-5)"></path>
                    <path d="M127.740612,36.5533333 L126.516847,36.5533333 L126.516847,34.165 C126.516847,33.66 126.490494,33.335 126.437788,33.185 C126.385082,33.0383333 126.299435,32.9216667 126.184141,32.84 C126.063906,32.7583333 125.922259,32.715 125.757553,32.715 C125.546729,32.715 125.357318,32.775 125.187671,32.8933333 C125.019671,33.0083333 124.902729,33.1633333 124.841788,33.36 C124.7792,33.5533333 124.747906,33.91 124.747906,34.435 L124.747906,36.5533333 L123.522494,36.5533333 L123.522494,31.87 L124.662259,31.87 L124.662259,32.5583333 C125.064141,32.0333333 125.573082,31.7683333 126.187435,31.7683333 C126.455906,31.7683333 126.702965,31.82 126.926965,31.9183333 C127.149318,32.015 127.318965,32.14 127.432612,32.2933333 C127.549553,32.4466667 127.626965,32.62 127.673082,32.81 C127.7192,33.005 127.740612,33.2833333 127.740612,33.645 L127.740612,36.5533333 Z" id="Fill-25" fill="#221714" mask="url(#mask-5)"></path>
                    <path d="M133.0196,33.2575 L131.812306,33.4775 C131.772776,33.2341667 131.678894,33.0525 131.5356,32.9291667 C131.390659,32.8058333 131.204541,32.7425 130.9756,32.7425 C130.6676,32.7425 130.427129,32.8508333 130.244306,33.0658333 C130.063129,33.2758333 129.972541,33.6325 129.972541,34.1325 C129.972541,34.6858333 130.064776,35.0808333 130.249247,35.3075 C130.433718,35.5358333 130.682424,35.6525 130.993718,35.6525 C131.224306,35.6525 131.415365,35.5858333 131.560306,35.4508333 C131.711835,35.3175 131.8156,35.0875 131.878188,34.7591667 L133.078894,34.9675 C132.952071,35.5258333 132.714894,35.9458333 132.360776,36.2308333 C132.006659,36.5158333 131.530659,36.6608333 130.936071,36.6608333 C130.260776,36.6608333 129.722188,36.4425 129.318659,36.0108333 C128.916776,35.5825 128.715835,34.9808333 128.715835,34.2191667 C128.715835,33.4458333 128.916776,32.8441667 129.321953,32.4125 C129.725482,31.9841667 130.270659,31.7675 130.959129,31.7675 C131.522424,31.7675 131.970424,31.8925 132.303129,32.1341667 C132.634188,32.3808333 132.874659,32.7558333 133.0196,33.2575" id="Fill-26" fill="#221714" mask="url(#mask-5)"></path>
                    <path d="M136.694847,33.8125 C136.686612,33.4541667 136.594376,33.1825 136.423082,32.9975 C136.246847,32.8091667 136.034376,32.7158333 135.785671,32.7158333 C135.5172,32.7158333 135.298141,32.8141667 135.121906,33.0108333 C134.948965,33.2091667 134.863318,33.4741667 134.864965,33.8125 L136.694847,33.8125 Z M136.625671,35.0641667 L137.846141,35.2741667 C137.689671,35.7241667 137.442612,36.0691667 137.103318,36.3041667 C136.764024,36.5425 136.340729,36.6608333 135.833435,36.6608333 C135.029671,36.6608333 134.433435,36.3941667 134.046376,35.8608333 C133.741671,35.4375 133.586847,34.8975 133.586847,34.2491667 C133.586847,33.4741667 133.789435,32.8658333 134.189671,32.4258333 C134.591553,31.9875 135.0972,31.7675 135.709906,31.7675 C136.400024,31.7675 136.941906,31.9991667 137.338847,32.4575 C137.737435,32.9191667 137.930141,33.6208333 137.908729,34.5691667 L134.843553,34.5691667 C134.851788,34.9391667 134.952259,35.2241667 135.140024,35.4291667 C135.329435,35.6325 135.563318,35.7358333 135.846612,35.7358333 C136.039318,35.7358333 136.200729,35.6808333 136.330847,35.5791667 C136.460965,35.4708333 136.559788,35.2991667 136.625671,35.0641667 L136.625671,35.0641667 Z" id="Fill-27" fill="#221714" mask="url(#mask-5)"></path>
                    <path d="M144.361576,34.182 L144.361576,33.092 L147.138518,33.092 L147.138518,35.6653333 C146.8684,35.9286667 146.478047,36.1603333 145.967459,36.362 C145.453576,36.5636667 144.934753,36.662 144.407694,36.662 C143.740635,36.662 143.157576,36.5236667 142.661812,36.2386667 C142.166047,35.9553333 141.790518,35.5486667 141.543459,35.022 C141.294753,34.4953333 141.167929,33.9236667 141.167929,33.3036667 C141.167929,32.6286667 141.306282,32.0336667 141.584635,31.5086667 C141.862988,30.9853333 142.273106,30.5853333 142.810047,30.307 C143.220165,30.092 143.727459,29.9836667 144.338518,29.9836667 C145.130753,29.9836667 145.750047,30.152 146.198047,30.4886667 C146.642753,30.8236667 146.927694,31.292 147.056165,31.8836667 L145.7764,32.1253333 C145.687459,31.8086667 145.517812,31.5586667 145.270753,31.372 C145.0204,31.192 144.7124,31.0986667 144.338518,31.0986667 C143.776871,31.0986667 143.328871,31.2786667 142.996165,31.642 C142.663459,32.002 142.498753,32.537 142.498753,33.2486667 C142.498753,34.0153333 142.666753,34.592 143.002753,34.9753333 C143.338753,35.3603333 143.780165,35.5486667 144.326988,35.5486667 C144.595459,35.5486667 144.867224,35.4953333 145.137341,35.3886667 C145.410753,35.2803333 145.642988,35.1536667 145.835694,35.0003333 L145.835694,34.182 L144.361576,34.182 Z" id="Fill-28" fill="#221714" mask="url(#mask-5)"></path>
                    <path d="M149.492659,36.5533333 L148.268894,36.5533333 L148.268894,31.87 L149.407012,31.87 L149.407012,32.5366667 C149.599718,32.2233333 149.775953,32.015 149.930776,31.9183333 C150.0856,31.82 150.263482,31.7683333 150.461129,31.7683333 C150.737835,31.7683333 151.006306,31.8466667 151.266541,32.0033333 L150.889365,33.0816667 C150.683482,32.945 150.489129,32.8783333 150.316188,32.8783333 C150.143247,32.8783333 149.996659,32.925 149.876424,33.0216667 C149.757835,33.115 149.6656,33.29 149.594776,33.5366667 C149.527247,33.7883333 149.492659,34.31 149.492659,35.1083333 L149.492659,36.5533333 Z" id="Fill-29" fill="#221714" mask="url(#mask-5)"></path>
                    <path d="M152.762565,34.2145 C152.762565,34.6778333 152.871271,35.0345 153.088682,35.2811667 C153.307741,35.5278333 153.574565,35.6511667 153.892447,35.6511667 C154.211976,35.6511667 154.477153,35.5278333 154.694565,35.2811667 C154.910329,35.0345 155.020682,34.6745 155.020682,34.2061667 C155.020682,33.7461667 154.910329,33.3928333 154.694565,33.1445 C154.477153,32.8995 154.211976,32.7778333 153.892447,32.7778333 C153.574565,32.7778333 153.307741,32.8995 153.088682,33.1445 C152.871271,33.3928333 152.762565,33.7495 152.762565,34.2145 M151.505859,34.1495 C151.505859,33.7361667 151.607976,33.3411667 151.805624,32.9511667 C152.008212,32.5695 152.289859,32.2745 152.6588,32.0745 C153.024447,31.8711667 153.434565,31.7678333 153.887506,31.7678333 C154.585859,31.7678333 155.160682,31.9995 155.607035,32.4561667 C156.053388,32.9195 156.275741,33.4961667 156.275741,34.1995 C156.275741,34.9078333 156.051741,35.4961667 155.597153,35.9595 C155.147506,36.4261667 154.579271,36.6611667 153.894094,36.6611667 C153.472447,36.6611667 153.067271,36.5611667 152.685153,36.3678333 C152.298094,36.1745 152.008212,35.8911667 151.805624,35.5161667 C151.607976,35.1411667 151.505859,34.6861667 151.505859,34.1495" id="Fill-30" fill="#221714" mask="url(#mask-5)"></path>
                    <path d="M160.279741,36.5533333 L160.279741,35.8533333 C160.110094,36.1016667 159.887741,36.2983333 159.617624,36.4433333 C159.342565,36.5883333 159.051035,36.66 158.747976,36.66 C158.435035,36.66 158.155035,36.5883333 157.911271,36.4516667 C157.662565,36.3116667 157.484682,36.12 157.375976,35.87 C157.265624,35.6183333 157.209624,35.2733333 157.209624,34.835 L157.209624,31.87 L158.433388,31.87 L158.433388,34.0183333 C158.433388,34.6783333 158.456447,35.08 158.502565,35.23 C158.548682,35.3783333 158.629388,35.495 158.747976,35.5816667 C158.868212,35.67 159.018094,35.7116667 159.202565,35.7116667 C159.410094,35.7116667 159.597859,35.655 159.762565,35.5383333 C159.928918,35.4216667 160.040918,35.2766667 160.103506,35.1066667 C160.1628,34.9333333 160.194094,34.5133333 160.194094,33.845 L160.194094,31.87 L161.416212,31.87 L161.416212,36.5533333 L160.279741,36.5533333 Z" id="Fill-31" fill="#221714" mask="url(#mask-5)"></path>
                    <path d="M163.852047,34.1348333 C163.852047,34.6598333 163.957459,35.0481667 164.163341,35.2981667 C164.369224,35.5498333 164.619576,35.6731667 164.920988,35.6731667 C165.205929,35.6731667 165.441459,35.5581667 165.632518,35.3298333 C165.820282,35.0998333 165.912518,34.7231667 165.912518,34.1948333 C165.912518,33.7065 165.818635,33.3431667 165.622635,33.1065 C165.429929,32.8681667 165.186165,32.7498333 164.897929,32.7498333 C164.598165,32.7498333 164.347812,32.8648333 164.151812,33.0998333 C163.952518,33.3348333 163.852047,33.6781667 163.852047,34.1348333 L163.852047,34.1348333 Z M162.649694,31.8715 L163.787812,31.8715 L163.787812,32.5581667 C163.936047,32.3215 164.138635,32.1348333 164.392282,31.9881667 C164.642635,31.8415 164.924282,31.7681667 165.230635,31.7681667 C165.769224,31.7681667 166.225459,31.9848333 166.599341,32.4081667 C166.974871,32.8348333 167.160988,33.4265 167.160988,34.1865 C167.160988,34.9681667 166.973224,35.5781667 166.596047,36.0098333 C166.217224,36.4431667 165.760988,36.6615 165.224047,36.6615 C164.968753,36.6615 164.736518,36.6081667 164.527341,36.5048333 C164.318165,36.3998333 164.1024,36.2248333 163.871812,35.9765 L163.871812,38.3348333 L162.649694,38.3348333 L162.649694,31.8715 Z" id="Fill-32" fill="#221714" mask="url(#mask-5)"></path>
                    <path d="M100.072,9.76333333 L105.360706,9.76333333 L105.360706,6.95666667 L100.072,6.95666667 L100.072,9.76333333 Z M109.382824,19.615 C107.477176,18.5616667 105.686824,16.5516667 104.906118,15.115 L104.850118,15.015 L108.579059,15.015 L108.579059,14.87 L108.579059,13.2766667 L108.579059,13.1366667 C108.519765,13.1366667 108.444,13.1333333 108.444,13.1333333 L103.499529,13.1333333 L103.499529,11.3983333 L107.332235,11.3983333 L107.332235,5.08 L98.1070588,5.08 L98.1070588,11.3983333 L101.687765,11.3983333 L101.687765,13.1333333 L96.5374118,13.1333333 L96.5374118,15.015 L99.9435294,15.015 L99.8809412,15.1183333 C99.3176471,16.105 97.7727059,18.5266667 95.6611765,19.6633333 L95.5623529,19.7166667 L95.5623529,8.81166667 L95.5705882,8.79333333 C95.8802353,8.17 96.1437647,7.675 96.376,7.24166667 L96.4369412,7.13 C96.7745882,6.495 97.0545882,5.955 97.3856471,5.24666667 L97.4350588,5.13 C97.3905882,5.10333333 97.3247059,5.065 97.3247059,5.065 C96.9755294,4.85333333 96.3990588,4.52833333 95.4898824,4.06 L95.3515294,3.98833333 L95.2988235,4.13833333 C94.248,7.015 92.5152941,10.32 90.6623529,12.9783333 L90.6063529,13.0616667 C90.6327059,13.0983333 90.6623529,13.14 90.6623529,13.14 C91.0955294,13.7333333 91.4644706,14.3 91.7609412,14.8266667 L91.8745882,15.0216667 C91.9289412,14.9383333 91.9964706,14.8316667 91.9964706,14.8316667 C92.0491765,14.7516667 92.9237647,13.365 93.4705882,12.4616667 L93.5957647,12.2533333 L93.5957647,22.3866667 L93.7341176,22.3866667 L95.4025882,22.4033333 L95.536,22.4033333 C95.5409412,22.3416667 95.5409412,22.2633333 95.5409412,22.2633333 L95.5623529,20.4 L95.6924706,20.38 L95.6727059,20.3483333 L95.6858824,20.36 C96.1075294,20.705 96.3891765,20.9366667 96.9491765,21.3533333 L97.0364706,21.4216667 C97.0710588,21.39 97.1171765,21.3466667 97.1171765,21.3466667 L97.1270588,21.3433333 C98.7164706,19.9633333 100.355294,18.535 101.559294,16.0816667 L101.687765,16.1116667 L101.687765,22.56 L101.821176,22.56 L102.521176,22.56 L103.364471,22.5583333 L103.499529,22.5583333 L103.499529,16.425 L103.631294,16.4 C104.596471,18.75 105.815294,20.005 107.732471,21.5083333 L107.824706,21.585 C107.862588,21.5433333 107.912,21.4966667 107.912,21.4966667 C108.084941,21.3116667 108.239765,21.13 108.389647,20.9566667 L108.460471,20.875 C108.740471,20.5566667 109.045176,20.2083333 109.417412,19.8383333 L109.544235,19.7083333 L109.382824,19.615 Z" id="Fill-33" fill="#221714" mask="url(#mask-5)"></path>
                    <path d="M88.9084,7.13116667 L88.9775765,7.04116667 L87.1213412,5.6345 C87.0900471,5.68116667 87.0554588,5.74616667 87.0554588,5.74616667 C86.0771059,7.31783333 84.9867529,8.69116667 83.8008706,9.82616667 L83.6839294,9.9395 L85.3622824,11.0061667 C85.3952235,10.9795 85.4298118,10.9478333 85.4314588,10.9445 C86.4971059,10.0861667 88.0371059,8.33116667 88.9084,7.13116667" id="Fill-34" fill="#221714" mask="url(#mask-5)"></path>
                    <path d="M82.2478588,20.2643333 C82.2478588,20.5893333 82.2923294,20.9243333 82.3779765,21.266 C82.4652706,21.5943333 82.6365647,21.891 82.8704471,22.1176667 C83.1092706,22.356 83.4518588,22.4976667 83.8866824,22.536 C84.2836235,22.5743333 84.8189176,22.5876667 85.4728,22.5743333 C87.1956235,22.5743333 88.2151529,22.4826667 88.6746824,22.2893333 C89.5410353,21.921 90.0104471,20.8326667 90.3513882,18.3943333 L90.3678588,18.2826667 L88.2777412,17.8026667 C88.2695059,17.8676667 88.2645647,17.941 88.2645647,17.941 C88.1789176,19.0493333 88.0142118,20.1243333 87.4393882,20.511 C87.3224471,20.5893333 86.9469176,20.7676667 85.9998588,20.761 C84.9523294,20.7526667 84.6723294,20.686 84.5982118,20.6526667 C84.4680941,20.581 84.3610353,20.4893333 84.2753882,20.356 C84.1963294,20.226 84.1633882,19.9943333 84.1765647,19.6793333 L84.1765647,13.7093333 L89.4800941,13.7093333 L89.4800941,11.7926667 L82.3895059,11.7926667 L82.3895059,4.53266667 L80.3998588,4.53266667 L80.3998588,11.7926667 L73.2763294,11.7926667 L73.2763294,13.7093333 L77.8205647,13.7093333 L77.8205647,13.7793333 C77.8205647,15.1643333 77.8205647,16.7376667 77.0612706,17.946 C76.3382118,19.1076667 75.4010353,20.2726667 72.6570353,20.6793333 L72.4923294,20.7026667 L73.3949176,22.831 C73.4393882,22.8226667 73.4904471,22.8143333 73.4904471,22.8143333 C75.9511529,22.2993333 77.8073882,21.0176667 78.8450353,19.111 C79.6356235,17.6843333 79.7822118,16.1993333 79.7953882,13.7793333 L79.7953882,13.7093333 L82.2478588,13.7093333 L82.2478588,20.2643333 Z" id="Fill-35" fill="#221714" mask="url(#mask-5)"></path>
                    <path d="M79.0117176,9.76466667 C78.2705412,8.51966667 76.9281882,6.638 75.9597176,5.65133333 L75.8856,5.57466667 L74.0705412,6.918 L74.1677176,7.018 C75.1987765,8.02966667 76.2693647,9.393 77.1670118,10.858 L77.2296,10.9613333 L79.0726588,9.87133333 L79.0117176,9.76466667 Z" id="Fill-36" fill="#221714" mask="url(#mask-5)"></path>
                    <path d="M59.0289412,11.6591667 L58.996,11.6258333 L59.0141176,11.5858333 C59.4752941,10.3341667 60.3647059,7.4325 60.7896471,4.95916667 L60.8110588,4.8075 L54.1108235,4.8075 L54.1108235,22.8758333 L55.9357647,22.8758333 L55.9357647,6.72583333 L58.0687059,6.72583333 C58.2004706,6.72583333 58.2334118,6.75083333 58.2531765,6.7825 C58.2712941,6.82416667 58.2712941,6.90083333 58.2416471,7.00083333 C58.1527059,7.29083333 58.0291765,7.7725 57.8957647,8.31083333 L57.8924706,8.32416667 C57.5992941,9.47416667 57.2007059,11.0491667 56.8564706,11.9025 L56.8235294,11.9858333 C56.8548235,12.0108333 56.8894118,12.0441667 56.8894118,12.0441667 L56.8976471,12.0525 C57.1348235,12.2808333 57.9270588,13.1158333 58.2992941,14.3225 C58.6171765,15.3641667 58.4887059,16.6225 58.1658824,17.0058333 C57.8035294,17.4275 57.2665882,17.4075 56.6423529,17.3858333 L56.5962353,17.3858333 L56.3870588,17.3691667 L56.2371765,17.3608333 L56.2602353,17.5108333 L56.3343529,18.0108333 C56.4051765,18.5158333 56.4512941,18.8441667 56.504,19.3275 L56.5155294,19.4325 L56.6242353,19.4325 C57.9665882,19.4691667 58.9927059,19.2091667 59.5098824,18.7025 C60.1588235,18.0741667 60.4503529,17.3725 60.5145882,16.2808333 C60.5376471,15.9858333 60.6578824,13.3375 59.0289412,11.6591667" id="Fill-37" fill="#221714" mask="url(#mask-5)"></path>
                    <path d="M63.3047059,12.285 L68.1289412,12.285 L68.1289412,6.90333333 L63.3047059,6.90333333 L63.3047059,12.285 Z M63.3047059,19.54 L68.1289412,19.54 L68.1289412,14.205 L63.3047059,14.205 L63.3047059,19.54 Z M61.3529412,5.04166667 L61.3529412,5.16333333 L61.3595294,22.7683333 L63.2964706,22.7683333 L63.2997647,21.5666667 L63.2997647,21.4966667 L68.1618824,21.4966667 L68.1618824,22.77 L70.0922353,22.77 L70.0922353,5.16333333 L70.0922353,5.04166667 L61.3529412,5.04166667 Z" id="Fill-38" fill="#221714" mask="url(#mask-5)"></path>
                    <path d="M120.540329,18.5635 L120.627624,18.5401667 C120.624329,18.4985 120.619388,18.4451667 120.619388,18.4451667 C120.4728,17.3685 120.107153,15.5985 119.540565,14.1618333 C119.540565,14.1618333 119.522447,14.1135 119.507624,14.0751667 C119.463153,14.0835 119.413741,14.0968333 119.413741,14.0968333 C118.891624,14.2385 118.086212,14.4718333 117.8688,14.5368333 L117.751859,14.5735 C117.774918,14.6235 117.804565,14.6818333 117.804565,14.6818333 C118.336565,15.8085 118.855388,17.6968333 119.033271,18.8035 L119.051388,18.9168333 C119.1008,18.9018333 119.163388,18.8901667 119.163388,18.8901667 C119.459859,18.8335 119.693741,18.7735 119.919388,18.7151667 C120.126918,18.6618333 120.316329,18.6151667 120.540329,18.5635" id="Fill-39" fill="#221714" mask="url(#mask-5)"></path>
                    <path d="M122.563741,17.6861667 C122.680682,17.6628333 122.815741,17.6378333 122.975506,17.6095 L123.067741,17.5945 C123.061153,17.5511667 123.057859,17.4995 123.057859,17.4995 C122.980447,16.6145 122.548918,14.4028333 122.254094,13.3445 L122.2228,13.2495 C122.179976,13.2595 122.127271,13.2728333 122.127271,13.2728333 C121.568918,13.3845 121.249388,13.4528333 120.575741,13.5761667 L120.445624,13.6011667 C120.470329,13.6578333 120.493388,13.7245 120.493388,13.7245 C120.949624,14.8145 121.404212,16.5511667 121.549153,17.7628333 C121.549153,17.7628333 121.557388,17.8178333 121.559035,17.8695 C121.610094,17.8645 121.669388,17.8578333 121.669388,17.8578333 C121.965859,17.8045 122.1668,17.7661667 122.397388,17.7228333 L122.563741,17.6861667 Z" id="Fill-40" fill="#221714" mask="url(#mask-5)"></path>
                    <path d="M127.853271,20.0543333 L127.853271,19.9276667 L124.501506,19.9276667 L124.559153,19.8243333 C125.007153,19.021 126.133741,16.8743333 126.850212,14.3226667 L126.883153,14.2026667 C126.832094,14.1876667 126.769506,14.1693333 126.769506,14.1693333 L125.544094,13.8076667 L125.329976,13.7393333 L125.068094,13.6576667 L124.942918,13.6193333 L124.913271,13.7443333 C124.333506,16.026 123.564329,17.9843333 122.495388,19.8926667 L122.475624,19.9276667 L116.416094,19.9276667 L116.416094,20.0543333 L116.394682,21.5926667 L116.394682,21.711 L127.861506,21.711 L127.858212,21.5926667 L127.853271,20.0543333 Z" id="Fill-41" fill="#221714" mask="url(#mask-5)"></path>
                    <path d="M119.597059,10.725 L119.697529,10.61 C120.768118,9.35666667 121.568588,8.225 122.016588,7.33833333 L122.074235,7.22833333 L122.136824,7.33333333 C122.747882,8.33833333 124.060588,9.815 124.925294,10.6066667 L125.055412,10.725 L119.597059,10.725 Z M128.846941,10.4616667 C126.294,9.475 123.754235,7.27666667 122.937294,5.34833333 L122.925765,5.325 L122.935647,5.3 L123.037765,4.995 L123.080588,4.87666667 C123.024588,4.85833333 122.958706,4.84166667 122.958706,4.84166667 C122.584824,4.72666667 122.273529,4.64 121.916118,4.54166667 L121.100824,4.32166667 L120.985529,4.28833333 C120.972353,4.34 120.949294,4.4 120.949294,4.4 C120.110941,7.02 118.404588,9.32333333 115.864824,11.2466667 L115.680353,11.39 L115.751176,11.4616667 C115.767647,11.48 115.784118,11.4916667 115.784118,11.4916667 L115.784118,11.495 L115.787412,11.495 C115.787412,11.495 117.027647,12.6166667 117.027647,12.6133333 L117.231882,12.8033333 L117.310941,12.8716667 C117.348824,12.8416667 117.394941,12.8033333 117.394941,12.8033333 C117.492118,12.7133333 117.614,12.6133333 117.763882,12.4966667 L117.772118,12.4866667 C118.09,12.23 118.485294,11.9083333 118.819647,11.5716667 L118.933294,11.4516667 L118.933294,12.2866667 L125.762,12.2866667 L125.762,11.2016667 L125.870706,11.2833333 C126.325294,11.6216667 127.109294,12.1683333 127.815882,12.5916667 L127.922941,12.6566667 C127.950941,12.605 127.982235,12.5366667 127.982235,12.5366667 C128.199647,12.115 128.398941,11.7 128.591647,11.2983333 L128.657529,11.17 L128.917765,10.6283333 L128.973765,10.5083333 L128.846941,10.4616667 Z M115.486,11.9583333 L115.451412,11.9233333 L115.474471,11.8783333 C115.520588,11.775 115.571647,11.6533333 115.622706,11.525 L115.637529,11.485 L115.680353,11.39 L115.678706,11.39 L115.757765,11.17 C116.388588,9.51333333 117.065529,6.89166667 117.521765,5.06333333 L117.564588,4.91666667 L111.435882,4.91666667 L111.435882,22.205 L113.331647,22.205 L113.331647,6.85333333 L115.197765,6.85333333 L115.173059,6.94 L114.922706,7.865 L114.916118,7.89833333 C114.515882,9.365 114.107412,10.8833333 113.624824,11.9666667 L113.596824,12.03 L113.634706,12.0816667 L113.868588,12.425 L113.880118,12.4416667 C114.532353,13.3833333 115.210941,14.3566667 115.382235,15.2466667 C115.474471,15.7383333 115.342706,16.3933333 115.100588,16.6716667 C114.842,16.97 114.366,17.0966667 113.722,17.045 L113.562235,17.0266667 L113.591882,17.1883333 C113.707176,17.7783333 113.781294,18.23 113.871882,18.8466667 L113.888353,18.955 C113.937765,18.9533333 113.997059,18.95 113.997059,18.95 C115.441529,18.8766667 116.080588,18.5233333 116.602706,18.0133333 C117.332353,17.3066667 117.334,16.13 117.203882,15.2666667 C117.075412,14.3783333 116.480824,12.965 115.486,11.9583333 L115.486,11.9583333 Z" id="Fill-42" fill="#221714" mask="url(#mask-5)"></path>
                    <path d="M135.936706,8.94666667 L139.789176,8.94666667 L139.789176,7.93666667 L135.936706,7.93666667 L135.936706,8.94666667 Z M135.936706,11.2283333 L139.789176,11.2283333 L139.789176,10.215 L135.936706,10.215 L135.936706,11.2283333 Z M135.936706,13.5066667 L139.789176,13.5066667 L139.789176,12.4216667 L135.936706,12.4216667 L135.936706,13.5066667 Z M147.955294,16.1716667 L140.971765,16.1716667 L140.971765,14.855 L147.128471,14.855 L147.128471,13.5066667 L141.719529,13.5066667 L141.719529,12.4216667 L146.377412,12.4216667 L146.377412,11.2283333 L141.719529,11.2283333 L141.719529,10.2133333 L146.377412,10.2133333 L146.377412,8.94666667 L141.719529,8.94666667 L141.719529,7.935 L147.052706,7.935 L147.052706,6.515 L141.479059,6.515 C141.683294,6.38166667 141.897412,6.245 142.123059,6.12 L140.540235,3.96 L138.909647,5.03833333 L139.904471,6.515 L135.882353,6.515 C135.882353,6.515 136.995765,5.18 137.010588,5.15166667 C136.742118,5.04166667 136.333647,4.88166667 135.091765,4.405 C135.045647,4.47333333 133.994824,6.38166667 131.035059,10.2033333 C131.550588,10.6016667 131.947529,10.9983333 132.216,11.39 C132.421882,11.19 132.832,10.74 133.642353,9.74333333 L133.928941,9.39333333 L133.928941,15.3066667 L135.936706,15.3066667 L135.936706,14.855 L138.964,14.855 L138.964,16.1716667 L131.675765,16.1716667 L131.675765,17.665 L137.221412,17.665 C137.221412,17.665 135.276235,19.2316667 131.616471,20.3716667 C132.094118,21.0283333 132.583294,21.4933333 133.041176,22.055 C135.310824,21.1116667 137.214824,20.06 138.705412,18.9166667 L138.964,18.7183333 L138.964,22.505 L140.971765,22.505 L140.971765,18.4483333 L141.238588,18.6983333 C142.495294,19.8566667 143.923294,20.7866667 145.476471,21.4616667 L145.586824,21.51 L145.674118,21.5483333 C146.225882,21.79 146.660706,21.9433333 146.975294,22.025 C147.441412,21.2866667 147.584706,20.9883333 147.948706,20.295 C145.156941,19.455 142.837882,17.665 142.837882,17.665 L147.955294,17.665 L147.955294,16.1716667 Z" id="Fill-43" fill="#221714" mask="url(#mask-5)"></path>
                    <path d="M153.841882,19.5483333 L165.336706,19.5483333 L165.336706,6.55166667 L153.841882,6.55166667 L153.841882,19.5483333 Z M152.013647,4.815 L152.013647,22.145 L153.840235,22.145 L153.840235,21.265 L165.259294,21.265 L165.259294,22.2266667 L167.158353,22.2266667 L167.158353,4.815 L152.013647,4.815 Z M162.230353,7.04666667 L160.334588,7.04666667 L160.334588,9.05333333 L154.734588,9.05333333 L154.734588,10.8766667 L158.944471,10.8766667 C158.944471,10.8766667 157.588941,13.8633333 154.627529,16.185 C155.090353,16.76 155.543294,17.25 155.941882,17.75 C158.944471,15.2766667 160.334588,12.335 160.334588,12.335 L160.334588,16.4816667 C160.360941,17.0083333 159.122353,17.23 158.544235,17.33 C158.694118,17.9933333 158.913176,19.0233333 158.970824,19.2566667 C158.970824,19.2566667 162.230353,18.8133333 162.230353,16.7483333 L162.230353,10.8766667 L164.722353,10.8766667 L164.722353,9.05333333 L162.230353,9.05333333 L162.230353,7.04666667 Z" id="Fill-44" fill="#221714" mask="url(#mask-5)"></path>
                    <polygon id="Fill-45" fill="#E1740D" mask="url(#mask-5)" points="54.2195294 27.795 167.16 27.795 167.16 26.26 54.2195294 26.26"></polygon>
                </g>
            </g>
        </g>
    </g>
</svg>