<?xml version="1.0" encoding="UTF-8"?>
<svg width="232px" height="60px" viewBox="0 0 232 60" version="1.1" xmlns="http://www.w3.org/2000/svg" xmlns:xlink="http://www.w3.org/1999/xlink">
    <!-- Generator: Sketch 53.2 (72643) - https://sketchapp.com -->
    <title>03.vipkid</title>
    <desc>Created with Sketch.</desc>
    <defs>
        <polygon id="path-1" points="0.979388235 0.0954545455 9.66918235 0.0954545455 9.66918235 8.841 0.979388235 8.841"></polygon>
        <polygon id="path-3" points="0.527888235 0.496602598 27.1797941 0.496602598 27.1797941 30.5417636 0.527888235 30.5417636"></polygon>
        <polygon id="path-5" points="2.09035768e-05 1.20425455 53.9017263 1.20425455 53.9017263 33.0909091 2.09035768e-05 33.0909091"></polygon>
    </defs>
    <g id="03.vipkid" stroke="none" stroke-width="1" fill="none" fill-rule="evenodd">
        <g id="04" transform="translate(0.000000, -25.000000)">
            <rect id="矩形复制-3" x="0" y="0" width="232" height="110"></rect>
            <g id="编组" transform="translate(52.000000, 34.000000)">
                <g transform="translate(67.029412, 1.177018)">
                    <mask id="mask-2" fill="white">
                        <use xlink:href="#path-1"></use>
                    </mask>
                    <g id="Clip-2"></g>
                    <path d="M9.66918235,4.46790909 C9.66918235,2.05354545 7.72406471,0.0948181818 5.32365294,0.0948181818 C2.92450588,0.0948181818 0.979388235,2.05354545 0.979388235,4.46790909 C0.979388235,6.88227273 2.92450588,8.841 5.32365294,8.841 C7.72406471,8.841 9.66918235,6.88227273 9.66918235,4.46790909" id="Fill-1" fill="#EB641A" mask="url(#mask-2)"></path>
                </g>
                <g transform="translate(101.176471, 11.358836)">
                    <mask id="mask-4" fill="white">
                        <use xlink:href="#path-3"></use>
                    </mask>
                    <g id="Clip-4"></g>
                    <path d="M7.29659412,7.40612727 L7.29659412,23.5468545 C11.0211529,23.1586727 16.1735647,22.0692182 18.7889765,19.4614 C19.8968588,18.3566727 20.4115941,17.1068545 20.4115941,15.5261273 C20.4115941,13.7519455 19.8500647,12.3824909 18.6435353,11.2141273 C15.9788,8.63812727 10.9288294,7.6874 7.29659412,7.40612727 M4.09309412,30.5417636 L3.8743,30.5417636 C2.02024118,30.5214 0.527888235,29.0030364 0.527888235,27.1359455 L0.527888235,3.91630909 C0.527888235,2.0874 1.96206471,0.586854545 3.77818235,0.513036364 C5.11877059,0.464672727 16.9981529,0.175763636 23.3330647,6.30394545 C25.8485647,8.73867273 27.1803,11.9281273 27.1803,15.5261273 C27.1803,18.9039455 25.9219176,21.9419455 23.5430059,24.3092182 C17.5660059,30.2566727 6.20768235,30.5417636 4.09309412,30.5417636" id="Fill-3" fill="#72B02D" mask="url(#mask-4)"></path>
                </g>
                <path d="M95.2553706,41.9027636 C93.3861353,41.9027636 91.8710176,40.3767636 91.8710176,38.4969455 L91.8710176,15.2633091 C91.8710176,13.3847636 93.3861353,11.8600364 95.2553706,11.8600364 C97.1233412,11.8600364 98.6384588,13.3847636 98.6384588,15.2633091 L98.6384588,38.4969455 C98.6384588,40.3767636 97.1233412,41.9027636 95.2553706,41.9027636" id="Fill-5" fill="#72B02D"></path>
                <path d="M88.2180412,15.8963636 C88.2231,15.8887273 88.2180412,15.8785455 88.2231,15.8721818 C88.5367471,15.5285455 88.7391,15.078 88.7391,14.574 C88.7391,13.5049091 87.8765706,12.6381818 86.8167471,12.6381818 C86.4208941,12.6381818 86.0756294,12.7870909 85.7683059,12.992 C85.7645118,12.9881818 85.7366882,12.9703636 85.7366882,12.9703636 C83.0909235,14.3869091 74.7780118,20.0021818 73.2818647,21.07 C71.7869824,22.1378182 72.0753353,21.1196364 72.1246588,20.6334545 C72.1600706,20.2809091 72.4914235,18.4965455 72.6899824,17.3078182 C72.7759824,16.9909091 72.8354235,16.6650909 72.8354235,16.3201818 C72.8404824,16.2412727 72.8278353,16.1318182 72.8038059,16.0032727 C72.6937765,14.6694545 71.9071294,13.5405455 70.7828059,12.9538182 C70.7360118,12.9283636 70.6930118,12.8914545 70.6436882,12.8685455 C70.6297765,12.8609091 70.5981588,12.852 70.5804529,12.8456364 C70.5134235,12.8138182 70.4426,12.7934545 70.3743059,12.7667273 C70.2794529,12.7361818 70.1681588,12.7005455 70.0467471,12.6649091 C69.9620118,12.642 69.8836,12.6089091 69.7963353,12.5910909 C67.0493941,11.8389091 59.4915118,10.458 57.8410706,10.2518182 C57.8410706,10.2518182 57.8334824,10.2658182 57.8322176,10.2670909 C57.7108059,10.2378182 57.5931882,10.1932727 57.4629235,10.1932727 C56.5953353,10.1932727 55.8908941,10.8996364 55.8908941,11.7727273 C55.8908941,12.3034545 56.1691294,12.7489091 56.5687765,13.0365455 C56.5713059,13.0416364 56.5649824,13.0594545 56.5700412,13.0607273 C56.7761882,13.2261818 58.7592471,14.5638182 61.1242471,16.1661818 C63.4879824,17.7698182 64.1898941,18.6556364 64.3821294,21.8858182 C64.5756294,25.116 64.6451882,36.8505455 64.8816882,39.326 C64.8854824,39.368 64.9069824,39.3934545 64.9133059,39.4341818 C64.9082471,39.4914545 64.8816882,39.5398182 64.8816882,39.5970909 C64.8816882,40.8189091 65.8656294,41.8090909 67.0797471,41.8090909 C68.2622471,41.8090909 69.2095118,40.8647273 69.2601,39.6874545 C69.2638941,39.6696364 69.2664235,39.6543636 69.2702176,39.6365455 C69.2714824,39.6225455 69.2778059,39.6110909 69.2778059,39.5970909 C69.2778059,39.5958182 69.2765412,39.5945455 69.2765412,39.592 C69.5952471,37.8661818 69.9721294,33.5032727 70.0986,32.2865455 C70.2440412,30.8776364 71.4480412,31.9938182 72.8354235,33.4027273 C74.2228059,34.8103636 81.6580118,40.9372727 82.3991294,41.314 C82.4269529,41.328 82.4661588,41.3305455 82.4990412,41.342 C82.7595706,41.496 83.0453941,41.608 83.3691588,41.608 C84.3442471,41.608 85.1334235,40.8138182 85.1334235,39.8338182 C85.1334235,39.8058182 85.1182471,39.7829091 85.1169824,39.7549091 C85.1195118,39.7396364 85.1271,39.7281818 85.1283647,39.7116364 C85.2168941,38.3676364 80.3262765,31.2658182 79.1690706,29.5183636 C78.0118647,27.7709091 78.6859529,26.4116364 79.4574235,25.3438182 C80.2314235,24.2747273 87.5148647,16.8458182 88.2180412,15.8963636" id="Fill-7" fill="#72B02D"></path>
                <path d="M37.3382912,19.8264182 C35.3274088,19.9053273 34.3788794,20.4207818 34.3788794,21.1678727 L34.3510559,24.9338727 C34.3510559,25.4429636 34.6786147,25.8986 35.1743794,26.0042364 C36.1279676,26.2027818 37.2472324,26.2689636 40.1370853,26.1556909 C43.0813206,26.0411455 46.5377618,24.9236909 46.4403794,22.4253273 C46.4239382,21.9544182 46.2494088,21.5827818 45.8952912,21.2518727 C45.0593206,20.4767818 42.89035,19.6075091 37.3382912,19.8264182" id="Fill-9" fill="#EB641A"></path>
                <g transform="translate(0.000000, 8.813382)">
                    <mask id="mask-6" fill="white">
                        <use xlink:href="#path-5"></use>
                    </mask>
                    <g id="Clip-12"></g>
                    <path d="M40.3826912,19.5989818 C38.7373088,19.7822545 37.3183088,19.8700727 35.4768971,19.8000727 C34.8824853,19.7784364 34.3791324,20.2149818 34.3791324,20.8144364 L34.3791324,26.2413455 C34.3791324,26.8688 33.8745147,27.3753455 33.2510147,27.3753455 C32.21775,27.3753455 31.8218971,26.8688 31.8218971,26.2413455 L31.8218971,17.1668 L31.8218971,17.1235273 L31.8218971,12.3546182 C31.8218971,11.3351636 32.3505441,8.94243636 37.2474853,8.74389091 C42.4188676,8.54916364 45.7336618,9.19698182 47.4233088,10.7700727 C48.21375,11.5057091 48.6551324,12.4564364 48.6968676,13.5229818 C48.7702206,15.4422545 47.7862794,18.7806182 40.3826912,19.5989818 L40.3826912,19.5989818 Z M27.7583971,26.2413455 C27.7583971,26.8688 27.2537794,27.3753455 26.6302794,27.3753455 C26.0067794,27.3753455 25.5021618,26.8688 25.5021618,26.2413455 L25.5021618,9.58643636 C25.5021618,8.95898182 26.0067794,8.44989091 26.6302794,8.44989091 C27.2537794,8.44989091 27.7583971,8.95898182 27.7583971,9.58643636 L27.7583971,26.2413455 Z M21.61825,9.82698182 L14.0919853,25.9460727 C13.9086029,26.3355273 13.5241324,26.5888 13.0941324,26.5977091 L13.0713676,26.5977091 C12.6502206,26.5977091 12.2644853,26.3597091 12.0684559,25.9842545 L4.83307353,11.9040727 C4.54598529,11.3478909 4.76477941,10.6631636 5.31745588,10.3742545 C5.86760294,10.0853455 6.54927941,10.3029818 6.83763235,10.8629818 L13.0233088,22.8978909 L19.5795441,8.85970909 C19.8438676,8.29334545 20.5128971,8.05407273 21.0782206,8.31752727 C21.6435441,8.58352727 21.8851029,9.25934545 21.61825,9.82698182 L21.61825,9.82698182 Z M48.4527794,4.22952727 C44.3133971,3.24952727 33.4419853,1.20425455 26.95025,1.20425455 C20.4597794,1.20425455 9.58583824,3.24952727 5.44772059,4.22952727 C1.30960294,5.20952727 -0.149867647,7.25098182 0.0120147059,11.0068 C0.173897059,14.7626182 0.416720588,21.4584364 0.903632353,24.3169818 C1.39054412,27.1742545 1.63336765,29.4613455 8.28825,31.0929818 C14.9418676,32.7258909 24.43475,33.1242545 26.95025,33.0898909 C29.46575,33.1242545 38.9586324,32.7258909 45.6135147,31.0929818 C52.2658676,29.4613455 52.5086912,27.1742545 52.9968676,24.3169818 C53.4825147,21.4584364 53.7266029,14.7626182 53.88975,11.0068 C54.0516324,7.25098182 52.5896324,5.20952727 48.4527794,4.22952727 L48.4527794,4.22952727 Z" id="Fill-11" fill="#EB641A" mask="url(#mask-6)"></path>
                </g>
            </g>
        </g>
    </g>
</svg>