<?xml version="1.0" encoding="UTF-8"?>
<svg width="232px" height="60px" viewBox="0 0 232 60" version="1.1" xmlns="http://www.w3.org/2000/svg" xmlns:xlink="http://www.w3.org/1999/xlink">
    <!-- Generator: Sketch 53.2 (72643) - https://sketchapp.com -->
    <title>04.Electrolux</title>
    <desc>Created with Sketch.</desc>
    <g id="04.Electrolux" stroke="none" stroke-width="1" fill="none" fill-rule="evenodd">
        <g transform="translate(0.000000, -25.000000)">
            <rect id="矩形复制-4" x="0" y="0" width="232" height="110"></rect>
            <g id="Group" transform="translate(23.000000, 33.000000)" fill="#000D43">
                <g id="Group-3">
                    <path d="M6.40180173,22.798501 C16.1216854,22.798501 25.5376573,30.81363 25.5376573,40.5536493 C24.3211273,40.8022078 22.7865636,40.9865652 21.4864799,40.9865652 C11.2576247,40.9730181 2.71720147,32.7490881 2.33061852,22.798501 L6.40180173,22.798501 Z M21.4864799,2.56984192 C22.859526,2.56984192 24.3211273,2.75302131 25.5394225,2.99598433 C25.5394225,12.7451331 16.1202144,20.7682136 6.3985655,20.7682136 L2.33356056,20.7626181 C2.99993069,10.7681504 11.2614494,2.56984192 21.4864799,2.56984192 L21.4864799,2.56984192 Z M27.5523605,3.54493349 C35.1507453,6.0372923 40.6411645,13.2481401 40.6620529,21.7668653 C40.6829413,30.1468806 35.3025541,37.3406474 27.5523605,39.9979266 L27.5523605,3.54493349 Z M-5.88406303e-05,43.2916216 L42.9874346,43.2916216 L42.9874346,0.257422998 L-5.88406303e-05,0.257422998 L-5.88406303e-05,43.2916216 Z" id="Fill-1"></path>
                </g>
                <path d="M57.5449886,26.4566923 L57.5449886,23.7810334 L66.2018793,23.7810334 L66.2018793,20.3692052 L57.5435649,20.3692052 L57.5435649,15.4025316 L66.7537016,15.4025316 L66.7537016,12 L54,12 L54,19.3134675 L54,26.3021374 C54,29.9170367 55.5093964,32.3902054 59.0518223,32.8983192 C59.1230068,32.9163312 59.1924829,32.929695 59.2571185,32.930857 L59.3220387,32.930857 C59.6845103,32.9718199 60.0558087,33 60.4433371,33 L67,33 L67,29.6009546 L60.4729499,29.6009546 C59.3465262,29.6009546 57.5449886,29.0338659 57.5449886,26.4566923" id="Fill-4"></path>
                <polygon id="Fill-6" points="70 21.9234662 70 33 74 33 74 21.8511636 74 12 70 12"></polygon>
                <path d="M79.5672203,22.3999421 C79.7133879,20.5583113 81.5263158,19.0793294 83.7191112,19.0793294 C85.765739,19.0793294 87.4324992,20.5887252 87.4324992,22.3999421 L79.5672203,22.3999421 Z M83.7191112,16 C79.3040624,16 76,19.1395778 76,24.0298345 L76,24.1509106 C76,28.9206706 79.1870722,32 83.806924,32 C86.0291774,32 88.1049826,31.3662334 90.0057233,29.2830298 L87.9007407,27.169702 C86.7891931,28.3167385 85.7076647,28.9206706 83.9236337,28.9206706 C81.3217933,28.9206706 79.5963977,27.3507368 79.479688,24.9355878 L90.9413646,24.9355878 C91,24.3319454 91,23.6680546 91,23.6680546 C91,19.4112748 88.1049826,16 83.7191112,16 L83.7191112,16 Z" id="Fill-8"></path>
                <path d="M102.058699,19.266063 C103.647241,19.266063 104.82348,19.8654592 105.823339,20.9138997 L108,18.6068708 C106.294342,16.7491735 104.26471,16 102.058699,16 C97.587978,16 94,19.3856547 94,24 C94,28.6143453 97.587978,32 102.058699,32 C104.26471,32 106.294342,31.2508265 108,29.3931292 L105.823339,27.0861003 C104.82348,28.1348282 103.647241,28.733937 102.058699,28.733937 C99.4705799,28.733937 97.4996472,26.7264626 97.4996472,24 C97.4996472,21.2735374 99.4705799,19.266063 102.058699,19.266063" id="Fill-10"></path>
                <path d="M114.632309,26.459859 L114.627933,26.4595686 L114.627933,21.0983545 L117.932022,21.0983545 L117.932022,17.8139104 L114.632601,17.8139104 L114.632601,12 L111,12 L111,19.5323562 L111,26.672995 L111.010211,26.6724143 C111.114075,30.0837528 112.672029,32.4082135 116.17626,32.8983684 C116.249198,32.9163717 116.320385,32.929729 116.386613,32.9308905 L116.453132,32.9308905 C116.824532,32.9718335 117.204976,33 117.602051,33 L117.986579,33 L118,29.6025996 L117.632393,29.6025996 C116.478223,29.6025996 114.632309,29.0360758 114.632309,26.459859" id="Fill-12"></path>
                <path d="M123.902108,18.4788112 L123.902108,16.2913932 L120,16.2913932 L120,23.4997187 L120,31 L123.902108,31 L123.902108,23.2659854 C123.902108,20.843709 125.639713,19.3259891 128.36035,19.3259891 C128.983158,19.3259891 129.541189,19.3839302 130,19.4722483 L130,16.0866304 C129.835687,16.0579411 129.24669,16 128.820741,16 C126.458432,16 124.68828,16.9630602 123.902108,18.4788112" id="Fill-14"></path>
                <path d="M138.500596,28.7345053 C135.749676,28.7345053 133.679709,26.6665704 133.679709,24 C133.679709,21.3322745 135.749676,19.2654947 138.500596,19.2654947 C141.221132,19.2654947 143.321482,21.3322745 143.321482,24 C143.321482,26.6665704 141.221132,28.7345053 138.500596,28.7345053 M138.500596,16 C133.771158,16 130,19.4745695 130,24 C130,28.5228315 133.771158,32 138.500596,32 C143.197267,32 147,28.5228315 147,24 C147,19.4745695 143.197267,16 138.500596,16" id="Fill-16"></path>
                <polygon id="Fill-18" points="149 21.561214 149 33 153 33 153 21.7061117 153 12 149 12"></polygon>
                <path d="M166.334467,25.5000466 C166.334467,27.8205797 164.910604,28.8081834 163.000146,28.8081834 C161.090856,28.8081834 159.667286,27.8205797 159.667286,25.5302451 L159.667286,17 L156,17 L156,21.2353435 L156,25.8202069 C156,29.9982291 159.181566,32 162.970647,32 C166.788935,32 170,29.9697083 170,25.7326871 L170,21.2353435 L170,17 L166.334467,17 L166.334467,25.5000466 Z" id="Fill-20"></path>
                <polygon id="Fill-22" points="183.635603 27.2026962 181.426892 24.0535424 184.161835 20.2541352 186.503863 17 182.68158 17 179.499437 21.4938331 176.289732 17 172.496137 17 174.671942 20.034707 177.574233 24.0827995 174.532438 28.4033846 172 32 175.764625 32 179.499437 26.7015967 183.235093 32 187 32"></polygon>
            </g>
        </g>
    </g>
</svg>