<?xml version="1.0" encoding="UTF-8"?>
<svg width="232px" height="60px" viewBox="0 0 232 60" version="1.1" xmlns="http://www.w3.org/2000/svg" xmlns:xlink="http://www.w3.org/1999/xlink">
    <!-- Generator: Sketch 53.2 (72643) - https://sketchapp.com -->
    <title>06。泰康人寿</title>
    <desc>Created with Sketch.</desc>
    <defs>
        <polygon id="path-1" points="0.0987849398 11.5136986 8.41353795 11.5136986 8.41353795 0.0857630137 0.0987849398 0.0857630137"></polygon>
        <polygon id="path-3" points="0 40.9441164 140.933464 40.9441164 140.933464 -2.84e-14 0 -2.84e-14"></polygon>
    </defs>
    <g id="06。泰康人寿" stroke="none" stroke-width="1" fill="none" fill-rule="evenodd">
        <g id="06" transform="translate(0.000000, -25.000000)">
            <rect id="矩形复制-11" x="0" y="0" width="232" height="110"></rect>
            <g id="Page-1" transform="translate(46.000000, 35.000000)">
                <path d="M19.6807687,14.6066993 C19.6807687,14.5432336 23.2485217,10.9610692 23.5710096,10.7468021 L33.3543711,20.4155007 L29.3874012,24.3885692 C28.4977988,23.0796582 19.6807687,15.0812884 19.6807687,14.6066993 Z" id="Fill-1" fill="#027E78"></path>
                <polygon id="Fill-3" fill="#142B5D" points="45.0826831 40.9441164 47.447406 40.9441164 47.447406 31.7865137 50.8801048 31.7865137 50.8801048 29.5160685 41.6499843 29.5160685 41.6499843 31.7865137 45.0826831 31.7865137"></polygon>
                <polygon id="Fill-5" fill="#027E78" points="0 20.4342315 0 20.5100534 3.94771687 24.3508548 20.6151627 7.77646438 16.6869819 3.91656712"></polygon>
                <g id="Group-9" transform="translate(124.012048, 29.430418)">
                    <mask id="mask-2" fill="white">
                        <use xlink:href="#path-1"></use>
                    </mask>
                    <g id="Clip-8"></g>
                    <polygon id="Fill-7" fill="#027E78" mask="url(#mask-2)" points="2.38734518 9.16754384 2.38734518 6.89709863 7.19323675 6.89709863 7.19323675 4.62665342 2.38734518 4.62665342 2.38734518 2.35620822 8.3373753 2.35620822 8.3373753 0.0857630137 0.0987849398 0.0857630137 0.0987849398 11.437989 0.0987849398 11.513811 8.41353795 11.513811 8.41353795 9.16754384"></polygon>
                </g>
                <polygon id="Fill-10" fill="#027E78" points="114.651942 40.9441164 117.016664 40.9441164 117.016664 36.403226 122.051327 36.403226 122.051327 34.0569589 116.940502 34.0569589 116.940502 31.7865137 122.966695 31.7865137 122.966695 29.5160685 114.651942 29.5160685"></polygon>
                <path d="M16.6867837,37.0274932 C17.5763861,35.7185822 26.3936994,27.7202123 26.3936994,27.2456233 C26.3936994,27.2298973 17.3719645,18.1273356 16.629591,17.6339315 L6.9226753,27.3402603 L16.6867837,37.0274932 Z" id="Fill-12" fill="#027E78"></path>
                <polygon id="Fill-14" fill="#027E78" points="102.90449 40.8684349 109.998658 40.8684349 109.998658 38.6735308 105.19305 38.6735308 105.19305 29.5162089 102.90449 29.5162089"></polygon>
                <mask id="mask-4" fill="white">
                    <use xlink:href="#path-3"></use>
                </mask>
                <g id="Clip-17"></g>
                <polygon id="Fill-16" fill="#027E78" mask="url(#mask-4)" points="111.219271 40.9441164 113.507831 40.9441164 113.507831 29.5160685 111.219271 29.5160685"></polygon>
                <path d="M138.059895,1.5218863 C139.460835,1.5218863 140.597046,2.64882466 140.597046,4.03833151 C140.597046,5.42811918 139.460835,6.55505753 138.059895,6.55505753 C136.658955,6.55505753 135.522745,5.42811918 135.522745,4.03833151 C135.522745,2.64882466 136.658955,1.5218863 138.059895,1.5218863 L138.059895,1.5218863 Z M138.059895,1.18826986 C139.64657,1.18826986 140.933407,2.46460548 140.933407,4.03833151 C140.933407,5.61233836 139.64657,6.88867397 138.059895,6.88867397 C136.47322,6.88867397 135.186383,5.61233836 135.186383,4.03833151 C135.186383,2.46460548 136.47322,1.18826986 138.059895,1.18826986 Z" id="Fill-18" fill="#142B5D" mask="url(#mask-4)"></path>
                <path d="M78.1128392,2.80821918e-05 L76.8922548,2.80821918e-05 C76.6617849,0.19885 75.9768873,0.393740411 75.9768873,0.756843151 L75.9768873,1.28675411 C75.9768873,1.48080205 75.995291,1.46956918 76.0703211,1.60099384 L74.9089114,3.4058363 C75.5581343,3.06491849 78.6468271,1.86131575 78.6468271,1.21093219 L78.6468271,1.13511027 C78.6468271,0.52544589 78.341044,0.338137671 78.1128392,2.80821918e-05 Z" id="Fill-19" fill="#142B5D" mask="url(#mask-4)"></path>
                <path d="M136.697461,5.44915274 L137.384058,5.44915274 L137.384058,4.16242671 L137.765437,4.16242671 C138.211088,4.16242671 138.737431,5.44915274 139.062184,5.44915274 L139.800877,5.40787192 L138.680805,4.08688562 C138.920618,3.9725911 139.443564,3.8290911 139.443564,3.48143356 L139.443564,3.10288562 C139.443564,2.54039932 138.878714,2.34607055 138.299425,2.34607055 L136.697461,2.34607055 L136.697461,5.44915274 Z M137.384058,2.87598151 L137.994208,2.87598151 L138.679389,2.96078973 C138.720727,3.12141986 138.756967,3.12563219 138.756967,3.33007055 C138.756967,3.5625911 138.533576,3.63279658 138.299425,3.63279658 L137.384058,3.63279658 L137.384058,2.87598151 Z" id="Fill-20" fill="#142B5D" mask="url(#mask-4)"></path>
                <path d="M71.4762976,18.4664842 C71.4762976,19.2174021 72.1453398,19.1264158 72.4440446,19.3227103 C72.6929181,19.4867103 73.0397554,20.2828404 73.3070325,20.2828404 C73.5915807,20.2828404 73.8670687,19.5729226 73.9101048,19.2918199 C73.9984422,18.7172582 74.3750084,18.4364363 74.3750084,18.1637582 C74.3750084,16.6428267 71.4762976,17.246313 71.4762976,18.4664842 Z" id="Fill-21" fill="#142B5D" mask="url(#mask-4)"></path>
                <path d="M80.0961542,19.8287795 C80.7705759,19.474663 84.1390036,17.6282589 84.1390036,16.9528822 C84.1390036,16.5338959 83.3000819,16.4914918 83.3000819,16.0447041 L83.3000819,15.5906151 C82.2187988,15.6799164 80.0961542,18.5625534 80.0961542,19.8287795 Z" id="Fill-22" fill="#142B5D" mask="url(#mask-4)"></path>
                <path d="M98.7852795,15.2878329 C98.7852795,15.9960658 103.140707,18.0536479 104.037954,18.4015863 C104.925575,18.7455932 109.493352,20.5099973 110.30396,20.5099973 C110.315852,20.5099973 111.374201,20.1084219 111.589099,20.0443945 C112.129599,19.8832027 112.652261,20.0311959 112.668683,19.2990932 C112.612906,19.2842096 110.38352,18.0146137 109.972978,17.810737 C108.979749,17.3178945 108.110249,16.9809082 107.04737,16.5509699 C106.021581,16.1359151 104.968328,15.8907575 103.926683,15.484689 C103.548135,15.3372575 101.000508,14.2282918 100.997394,14.2282918 L100.539852,14.2282918 C99.9498036,14.2282918 98.7852795,15.0036411 98.7852795,15.2878329 Z" id="Fill-23" fill="#142B5D" mask="url(#mask-4)"></path>
                <path d="M89.9365386,20.2828685 L90.4504241,20.017211 L90.495159,20.0826425 L89.4025506,21.1155055 C90.2055145,20.9296014 93.1693458,18.4774644 93.8080928,17.8422452 C95.1756229,16.4819438 96.2478458,15.341526 97.425394,13.7871767 C98.5389542,12.3173548 99.5123639,10.8006356 100.74852,9.44033425 C101.251364,8.88655342 102.140117,8.11990959 102.731298,7.62341644 C103.196767,7.23279315 103.704141,7.5883137 104.218593,7.20695753 C104.397533,7.07412877 105.040527,6.27238219 105.040527,6.05446438 C105.040527,5.52904658 103.966888,4.23810822 103.438563,4.23810822 L103.285954,4.23810822 C101.523454,4.23810822 100.231237,6.55685479 99.4565867,7.70457397 C98.4585446,9.18282055 97.5649783,10.6894301 96.6190325,12.2303 C95.8189,13.5333137 94.537159,15.4634027 93.5028759,16.4799781 C92.7664482,17.203937 92.3375024,17.5308137 91.5580386,18.183163 C91.0750145,18.5875466 90.0894301,19.6322041 89.9365386,20.2828685 Z" id="Fill-24" fill="#142B5D" mask="url(#mask-4)"></path>
                <path d="M128.53526,15.2121514 C127.386025,15.8153568 122.041616,17.1214596 121.5937,17.7853226 C122.146658,18.0756925 123.211802,18.1638705 124.034586,18.1638705 C123.900098,18.4157678 123.729369,18.6937815 123.729369,19.0720486 L123.729369,19.3747747 C123.729369,20.1829801 124.513929,21.0397678 125.25517,21.0397678 L125.483941,21.0397678 C125.907507,21.0397678 126.551917,20.5943842 126.551917,20.1315897 L126.551917,19.8288637 C126.551917,19.2346445 125.66826,18.3691514 125.178724,18.2394116 C125.364176,17.9886377 127.076278,17.6305897 127.543447,17.5581377 C128.449754,17.4180075 129.603236,17.1871719 129.603236,18.3152336 L129.603236,19.4503158 C129.603236,20.8451582 128.570935,22.856124 127.238513,22.856124 L127.085905,22.856124 C126.253778,22.856124 125.887122,22.5298089 125.237049,22.4955486 L125.941766,23.15885 C125.735363,23.4643842 125.407778,23.8010897 125.407778,24.2939322 C125.407778,24.5525692 125.837573,25.1265692 126.2467,25.1265692 L126.399308,25.1265692 C127.23908,25.1265692 130.090224,22.0962199 130.467357,21.2158432 C130.917537,20.1655692 131.058537,19.2792952 131.387254,18.1172541 C131.560814,17.5036582 131.363471,16.7552678 131.965694,16.7235349 C132.520917,16.6943295 132.959489,16.1602062 132.959489,15.6662404 L132.959489,15.5148774 C132.959489,15.1357678 132.542152,14.6066993 132.120567,14.6066993 C131.847061,14.6066993 131.871977,14.8979116 131.357808,14.9094253 C131.283911,14.6350623 130.211688,13.5471582 129.908453,13.5471582 L129.755845,13.5471582 C128.9727,13.5471582 128.53526,14.3149253 128.53526,15.2121514 Z" id="Fill-25" fill="#142B5D" mask="url(#mask-4)"></path>
                <path d="M49.5833295,1.58936781 C49.5833295,1.80054589 49.8885464,2.18555274 49.8885464,2.49754589 L49.8885464,3.02745685 C49.8885464,3.25829247 49.8152151,3.33271027 49.735938,3.48154589 C48.5184681,3.48154589 44.6251127,4.66184041 44.6251127,5.67616918 C44.6251127,5.95839521 45.401462,6.56525137 45.775197,6.54727877 L49.2486669,6.07409384 L48.8205705,7.0384363 C48.3120645,7.0384363 47.3930163,7.38160068 47.0665645,7.56862808 C46.8162753,7.71184726 45.9218596,8.54813493 45.9218596,8.77925137 C45.9218596,9.41755959 47.0945946,9.53606644 47.8287572,9.53606644 L48.2101367,9.53606644 C47.9032211,10.8435733 46.0385102,11.4703678 44.5781127,11.7598952 C42.5333295,12.1654021 41.5950283,12.1221555 40.5819801,13.6228678 C40.8373657,13.7568199 42.1077813,14.303861 42.4127151,14.303861 C43.0843054,14.303861 45.2049681,13.7127308 45.9218596,13.5470459 C45.8581548,13.7834979 43.3062813,17.0705185 42.9164078,17.6037993 C42.4430102,18.250813 40.1063175,21.2963267 39.9718295,21.7964705 C42.4384801,20.5016007 46.9244319,15.4504568 48.526962,13.1485596 L51.3379018,12.5633267 C51.4981548,13.1586692 58.9476548,17.8610322 60.1866428,17.8610322 L60.4154139,17.8610322 C60.9975343,17.8610322 61.4635705,17.4069432 61.8647693,17.4069432 L62.1728175,17.3881281 L62.7801367,17.4827651 C62.8987693,17.4038541 63.0089078,17.3822308 63.0089078,17.180039 L63.0089078,17.028676 C63.0089078,16.6967445 62.1929199,16.5706555 61.8647693,16.423224 C61.4293114,16.2272103 61.1062572,16.0792171 60.6710825,15.8666349 C59.838956,15.4602856 59.1229139,15.1373404 58.3052271,14.732676 C57.6251428,14.3959705 54.025962,12.5195185 53.7719922,12.1398473 L56.3725645,11.8065116 L57.2114861,11.8065116 C57.7369801,11.8065116 58.0045404,12.0334158 58.3556247,12.0334158 C58.5716548,12.0334158 58.8896127,11.793313 58.8896127,11.5793267 C58.8896127,10.8309363 57.527462,9.53606644 56.753944,9.53606644 C55.8702873,9.53606644 53.7550042,9.95084041 52.9690283,10.1704432 C52.3965343,10.3305116 49.7820886,10.9738747 49.3545584,10.9738747 C49.4392151,9.96207329 50.9803054,9.10921712 51.8993536,8.8064911 C53.1465524,8.39592945 54.84195,8.6604637 55.1519801,7.34116233 C54.6899078,6.47482671 53.8501367,6.58434726 52.558203,6.58434726 C52.8353898,6.34536781 54.457456,5.64471712 54.9484078,5.39871712 C55.5599741,5.09262123 55.5653536,5.08953219 56.3561428,4.97888836 C56.988944,4.89042945 57.2876488,4.84634041 57.2876488,4.08699795 C57.2876488,2.97213493 53.5010343,3.25436096 52.1768235,3.25436096 C52.0848054,3.11788151 52.0242151,3.12125137 52.0242151,2.95163493 L52.0242151,2.72473082 C52.0242151,2.14005959 52.558203,1.36414863 52.558203,0.983915753 C52.558203,0.0805116438 51.57545,0.0479363014 50.955956,0.302360959 C50.6142151,0.442771918 49.5833295,1.24816918 49.5833295,1.58936781 Z M50.8800765,6.73571027 C51.184444,6.16536096 51.1564139,5.84410068 51.8045042,5.60933356 C52.3404741,5.41500479 52.7512994,5.29790205 53.4738536,5.29790205 C53.1881729,5.68459384 51.4613476,6.6014774 50.8800765,6.73571027 L50.8800765,6.73571027 Z" id="Fill-26" fill="#142B5D" mask="url(#mask-4)"></path>
                <path d="M119.152588,7.11414589 L119.152588,7.18996781 C119.152588,7.56177603 120.266714,8.09814589 120.678106,8.09814589 C121.015034,8.09814589 123.122955,7.33009795 123.729425,7.18996781 C123.718949,7.66511849 123.297648,8.34189932 123.064913,8.64968014 C122.606522,9.25625548 122.212967,9.01474863 121.473425,9.2655226 C120.740112,9.51433082 118.6186,10.0591253 118.6186,10.8226801 C118.6186,10.8392486 119.156552,11.3966801 119.229034,11.5047966 L122.127461,11.2009473 C121.063449,13.196187 121.145841,12.585961 118.846239,13.167824 C118.420124,13.2756596 117.170943,13.6154541 117.010973,13.9198651 C116.79098,14.3382897 117.137251,14.3321116 116.699245,14.8971253 C116.472172,15.1903034 116.210841,15.343913 116.177431,15.7418377 L116.406486,15.7418377 C117.72107,15.7418377 119.189678,15.0608445 120.144118,15.0608445 C119.481588,16.3032007 118.642383,17.4778788 117.933419,18.6946801 C117.512401,19.4169541 116.035865,21.8575774 115.872498,22.5534541 C116.594486,22.3619336 121.176419,16.635413 122.183522,15.6460774 C123.383437,14.4677486 124.839871,14.0661733 126.82548,13.6671253 C127.712534,13.4890842 128.688775,13.3079541 129.525148,13.0911596 C130.753094,12.7732692 131.071335,12.7903993 132.425558,12.7903993 C132.828739,12.7903993 134.027522,11.7797212 134.027522,11.5036733 L134.027522,11.4281322 C134.027522,11.0639062 133.265612,10.5954952 132.883383,10.5954952 C129.347624,10.5954952 126.89598,11.936139 123.882034,12.1849473 C124.514552,10.9987555 125.852919,10.3332075 127.238287,9.91422123 C127.997931,9.68478973 128.670371,9.56347466 129.557425,9.41491986 C130.600202,9.24024863 131.095401,9.35117329 131.662799,8.70359795 C131.463757,8.33010479 130.887016,7.79541986 130.366052,7.79541986 L129.526847,7.79541986 C127.913841,7.79541986 126.692407,8.17958425 125.407552,8.47641301 C125.758636,7.17199521 128.461419,6.2815089 130.289606,6.2815089 C131.100214,6.2815089 132.654329,6.57524863 132.654329,5.60051575 L132.654329,4.91924178 C132.231612,4.80747466 131.827865,4.31378973 131.357582,4.31378973 L130.282528,4.26015274 L126.933353,4.69233767 C127.148251,3.89424178 128.992859,1.98914589 128.992859,1.96780342 C128.992859,1.55218699 127.944986,0.226988356 127.543504,0.226988356 C126.350949,0.226988356 126.140582,1.41430342 125.799973,2.28120068 C125.558461,2.89620068 124.914618,4.39635137 124.54966,4.82488562 C123.910913,5.57580342 119.152588,6.38709795 119.152588,7.11414589 Z" id="Fill-27" fill="#142B5D" mask="url(#mask-4)"></path>
                <path d="M80.1724584,21.2667281 C80.1724584,21.3501322 84.0270247,23.4616322 84.5966873,23.4616322 C85.2920608,23.4616322 85.4358922,22.2976253 85.4358922,21.5694541 C85.4358922,20.866276 83.1187355,20.055824 82.1558018,20.055824 L81.7744223,20.055824 C81.1404886,20.055824 80.1724584,20.7758514 80.1724584,21.2667281" id="Fill-28" fill="#142B5D" mask="url(#mask-4)"></path>
                <path d="M49.0493699,15.7419219 C49.0493699,16.3114288 49.3545867,16.9278329 49.3545867,17.7096411 L49.3545867,18.4664562 C49.3545867,19.1202096 48.0578398,20.0559082 47.6761771,20.0559082 C47.255159,20.0559082 47.1659723,19.904826 46.8372554,19.8287233 C46.9609843,19.3692986 48.2101651,18.9427301 48.2101651,18.7691822 C48.2101651,18.0727438 47.4765687,16.801463 46.8372554,16.801463 C46.2268217,16.801463 45.1962193,17.8174767 45.0826831,18.2395521 C45.4130988,18.3159356 46.3032675,18.5756959 46.3032675,18.9205452 L46.3032675,19.6773603 C46.3032675,19.8452918 45.2437855,21.049737 45.063147,21.2471548 C44.1956289,22.1949288 44.3960867,21.8846205 44.3960867,23.3100726 L44.3960867,23.6886205 C46.2288036,23.6481822 47.7478096,20.788011 49.4307494,19.9045452 C49.4307494,20.6290658 49.4293337,21.2609151 49.3608157,21.8784425 C49.2554904,22.8245315 49.3475084,22.9318055 48.2866108,22.9318055 C48.5264241,23.2564356 49.0493699,23.2755315 49.0493699,23.8399836 L49.0493699,24.1427096 C49.0493699,24.4055589 48.8967614,24.2581274 48.8967614,24.5209767 L48.8967614,24.6723397 C48.8967614,24.9276068 49.0315325,25.2022507 49.278141,25.2022507 L49.5071952,25.2022507 C50.6128277,25.2022507 50.9316349,23.4063945 51.0927373,22.3858877 C51.1570084,21.9784151 51.1875867,20.7029219 51.1853217,20.2828123 C51.1807916,19.5285247 51.3379301,18.9769904 51.3379301,18.2395521 C51.4908217,18.0129288 51.5590566,17.785463 51.9480807,17.785463 L53.4735988,17.785463 C53.6797193,17.785463 53.6839663,17.8214082 53.8552614,17.8610041 C53.7465386,18.264826 52.405906,18.7200384 52.405906,19.4504562 C52.405906,20.6481616 56.0625627,23.3858945 57.2879602,23.3858945 L57.4402855,23.3858945 C57.6189422,23.3858945 57.7455024,23.2603671 57.7455024,23.0831685 L57.7455024,22.9318055 C57.7455024,22.4580589 56.6271289,20.6700658 56.3125687,20.4181685 C55.7797133,19.9913192 53.6443277,19.6332712 53.3974361,19.2990932 C53.5758096,19.0575863 54.1163096,18.7916479 54.4532373,18.6815658 C54.6706831,18.6105178 55.6859964,18.5257096 55.6859964,18.2395521 L55.6859964,18.1637301 C55.6859964,17.1120521 54.8080024,15.8932849 53.8552614,15.8932849 C53.5245627,15.8932849 52.0851169,17.2695932 51.3379301,17.331374 L51.3379301,15.4391959 C51.3379301,15.0159973 51.1875867,14.3796548 50.8039422,14.3796548 L50.574888,14.3796548 C50.0703458,14.3796548 49.0493699,15.3209699 49.0493699,15.7419219 Z" id="Fill-29" fill="#142B5D" mask="url(#mask-4)"></path>
                <path d="M69.7980861,6.73573836 C69.7980861,7.16006027 70.5333813,7.34119041 71.0186705,7.34119041 C70.9863934,8.77282055 69.0642066,14.8057178 68.5316343,16.150574 C68.0370018,17.3999507 65.6026283,23.5207452 65.6026283,24.5210329 C65.6026283,24.8229164 65.7682608,25.0085397 65.8313994,25.2778479 C67.2799054,24.8942452 70.5163934,13.7742589 71.1712789,13.7742589 C71.6245741,13.7742589 71.361544,13.9910534 71.951309,13.8711425 C72.2975801,13.8006562 72.4603813,13.755163 72.8191102,13.668389 C73.3494175,13.5403342 73.8797247,13.3002315 74.4366464,13.1542041 C74.9012669,13.0323274 75.587297,12.807389 76.0629596,12.6487247 C76.249544,12.5863822 77.6550139,12.0550671 77.6550139,12.4119918 C77.6550139,14.1766767 73.0020139,15.0949644 73.0020139,15.7419781 L73.0020139,15.9688822 C73.0020139,16.2805945 73.3010018,16.7256973 73.6121645,16.7256973 C74.7817849,16.7256973 76.0587127,15.9688822 77.3693331,15.9671973 L77.5026886,17.7852384 C77.5663934,18.4971219 74.7795199,20.0657932 74.1617247,20.4496767 C73.5263753,20.8439507 72.8329837,21.0868616 72.1622428,21.417389 C71.7661404,21.6128411 70.5608452,22.4173959 70.5608452,22.8560397 L70.5608452,22.9318616 C70.5608452,23.3258548 71.2978392,23.9914027 71.5526584,23.9914027 C72.1033512,23.9914027 76.5683512,19.9953068 77.5026886,19.3746904 C77.5026886,20.2685466 77.480038,21.0907932 77.4259596,21.8717589 C77.3430018,23.0697452 76.8160922,23.3943753 76.8160922,23.8400397 L76.8160922,24.0669438 C76.8160922,24.3938205 77.198038,25.3536699 77.4262428,25.3536699 C78.084809,25.3536699 78.5409355,23.346074 78.7071343,22.6889507 C78.883809,21.9894233 78.9574235,19.8492795 78.9526102,18.9969849 C78.9472307,18.0087726 78.9772428,16.0986219 79.5027367,15.6071836 C79.9246042,15.2123479 81.5302488,14.3729712 82.1556886,14.2283479 C82.1556886,12.8467041 81.853303,13.1134849 80.7827789,12.8660808 L80.7827789,12.7147178 C81.0373151,12.6470397 82.6460741,11.612211 83.0257548,11.3830603 C83.5101946,11.0907247 85.1308452,10.4302315 85.1308452,9.91436164 L85.1308452,9.83882055 C85.1308452,9.07498493 84.7007669,8.84330685 83.9088452,8.85622466 C83.0942729,8.86970411 83.389297,8.22409452 82.9345861,7.62790959 C81.992038,6.39201233 81.0234416,7.11400548 79.4860319,7.11400548 L79.1043693,7.11400548 C79.08455,6.8772726 79.0282066,6.8452589 79.0282066,6.58437534 L79.0282066,6.1302863 C79.0282066,4.34229315 83.1027669,5.30158082 83.2236645,3.8598411 C82.7406404,3.74807397 82.2327006,3.25438904 81.8507548,3.25438904 L81.6217006,3.25438904 C80.65905,3.25438904 79.3181343,3.6792726 78.3438753,3.78626575 C77.4154837,3.88848493 76.0652247,4.2353 75.1988392,4.45012877 C74.1738994,4.7042726 73.2149295,4.97666986 72.2103753,5.2692863 C71.6492066,5.43272466 69.7980861,6.2558137 69.7980861,6.73573836 Z M71.7052669,11.8065397 C72.3519416,10.4689849 72.7129355,8.9118274 73.4088753,7.5178274 C73.8335741,6.66721781 74.1554958,6.4928274 75.1096524,6.17802603 C75.6753512,5.99127945 76.8517669,5.60065616 77.5026886,5.60065616 L77.8076223,5.60065616 L77.1867127,7.84779315 L77.2736343,7.87110137 C76.5649536,8.03482055 74.6824054,9.11261507 74.1328452,9.52289589 C73.5178813,9.98203973 73.4085922,10.0744301 72.9071645,10.6526425 C72.6189355,10.9851356 72.1342127,11.6928068 71.7052669,11.8065397 Z M79.1808151,9.38473151 C79.1808151,8.97950548 79.7799235,8.62791644 80.1723452,8.62791644 L80.7063331,8.62791644 C80.9404837,8.62791644 81.1641584,8.6978411 81.1641584,8.93064247 L81.1641584,9.4602726 C80.7247367,9.56193014 79.8659958,9.99018356 79.4095861,9.99018356 L79.1808151,9.99018356 L79.1808151,9.38473151 Z M72.696797,11.9579027 C73.2404114,11.1525055 75.9601825,9.4602726 77.4262428,9.4602726 C77.3407367,10.4810603 76.2147187,10.7315534 75.3766464,11.0595534 C74.7894295,11.2898274 73.401797,11.9579027 72.696797,11.9579027 Z M81.0013572,11.2465808 C80.671791,11.7801425 79.6683693,12.8068274 78.952044,12.8660808 L79.0451946,12.1873342 L79.0313211,11.8916288 L81.0013572,11.2465808 Z" id="Fill-30" fill="#142B5D" mask="url(#mask-4)"></path>
                <path d="M61.864741,40.9441164 L64.2294639,40.9441164 L64.2110602,35.7795205 L65.2212771,34.813774 C65.3393434,35.3170068 66.3835361,37.4262603 66.6700663,37.9929589 C66.9019518,38.4518219 67.2436928,39.1339384 67.4229157,39.5919589 C67.784759,40.5161438 67.7802289,40.388089 68.4249217,40.9441164 L70.7134819,40.9441164 L70.7134819,40.8685753 C70.3966566,40.6380205 67.1281747,33.8373562 67.1281747,33.2246027 C67.1281747,32.6014589 70.2276265,30.1743151 70.7134819,29.5160569 C69.925241,29.5160685 69.137,29.5166301 68.348759,29.5160685 C67.0398373,29.5149452 67.3875241,29.594137 66.6907349,30.2172808 C66.2750964,30.589089 64.5508193,32.3826986 64.2294639,32.4677877 L64.2294639,29.5160685 L61.864741,29.5160569 L61.864741,40.9441164 Z" id="Fill-31" fill="#142B5D" mask="url(#mask-4)"></path>
                <path d="M70.7134819,40.8684349 L70.7134819,40.9442568 L72.772988,40.9442568 C73.7115723,40.1349281 73.4369337,40.2270377 73.9935723,39.1276199 C74.3426747,38.4382021 74.6515723,37.7462568 75.0108675,37.0340925 C75.3155181,36.4303253 76.7878072,33.1087637 77.0448916,32.9217363 L77.0448916,40.943976 L79.4096145,40.943976 L79.4096145,29.5162089 L76.5870663,29.5162089 C75.7390843,29.5162089 75.1603614,31.4418048 74.8327771,32.0893801 C74.405247,32.9335308 73.7894337,34.1615651 73.4493916,35.0307089 C73.1260542,35.8566062 72.4952349,37.1141267 72.0611928,37.9672637 C71.7783434,38.5227295 70.8264518,40.3879486 70.7134819,40.8684349 Z" id="Fill-32" fill="#142B5D" mask="url(#mask-4)"></path>
                <path d="M80.5538663,40.9441164 L82.8424265,40.9441164 L82.8424265,34.1327808 C83.5261916,34.9134658 84.582559,36.6469795 85.2224386,37.5989658 C85.6315651,38.2077877 86.0033181,38.7610068 86.4124446,39.3698288 C86.9481313,40.1676438 87.011553,40.4001644 87.8006434,40.9441164 L89.7839867,40.9441164 L89.7839867,38.0682192 C89.9309325,38.1749315 90.310047,38.7817877 90.5657157,39.0334041 C90.9190651,39.3805 91.1319807,39.6034726 91.5374265,39.8856986 C91.8672759,40.1151301 92.2885771,40.3706781 92.7121434,40.5366438 C93.0023542,40.6503767 94.0321072,40.8812123 94.132053,40.9441164 L95.3526373,40.9441164 C95.3970892,40.9160342 97.0760651,40.4889041 97.4127096,40.339226 C97.9506614,40.1005274 98.5135289,39.6624452 98.9189747,39.2603082 C99.6947578,38.4905753 100.539908,37.1533014 100.539908,35.646411 L100.539908,34.813774 C100.539908,34.0622945 100.163059,32.9499589 99.8796434,32.4416712 C99.4328602,31.6402055 98.941059,31.3723014 98.5565651,30.8027945 L94.4944627,34.7952397 L95.9443843,36.2703973 L98.122806,34.1563699 C98.1950048,34.4450548 98.2513482,34.4773493 98.2513482,34.7382329 L98.2513482,35.7219521 C98.2513482,37.2445685 96.4628,38.6736712 94.7422036,38.6736712 L94.5134325,38.6736712 C93.1277819,38.6736712 91.3859506,36.9982877 91.3859506,35.570589 L91.3859506,34.8895959 C91.3859506,33.4107877 93.2008301,31.6359932 94.7422036,31.7865137 L95.8084807,31.8817123 L97.5072759,30.2158767 C97.2620831,29.8906849 95.8857759,29.5160685 95.2761916,29.5160685 L94.8186494,29.5160685 C93.4375289,29.5160685 92.5162157,29.8758014 91.6908843,30.4239658 C91.2333422,30.7278151 90.9493602,30.9493836 90.5640169,31.3498356 C90.3287337,31.5944315 89.8525048,32.3624795 89.7078241,32.4677877 L89.7078241,29.5160685 L87.4192639,29.5160685 L87.4192639,36.630411 C86.7864627,35.9078562 82.7761735,29.5160685 82.461047,29.5160685 L80.5538663,29.5160685 L80.5538663,40.9441164 Z" id="Fill-33" fill="#142B5D" mask="url(#mask-4)"></path>
                <path d="M48.5916861,40.9441164 L50.727638,40.9441164 C51.539662,40.2437466 51.4601018,40.0204932 51.9479392,39.0522192 C52.2673127,38.4181233 52.6860657,37.6079521 52.9643849,36.9572877 C53.2446861,36.3015685 54.712162,33.0982329 54.9992584,32.7705137 L54.9992584,40.9441164 L57.2878187,40.9441164 L57.2878187,29.5160685 L54.4652705,29.5160685 C53.7500777,29.5160685 52.9561741,31.4995137 52.7211741,32.0996301 C52.3811319,32.968774 51.7653187,34.1965274 51.3377886,35.0409589 C51.0144512,35.6792671 48.6183006,40.6256644 48.5916861,40.9441164" id="Fill-34" fill="#142B5D" mask="url(#mask-4)"></path>
                <polygon id="Fill-35" fill="#142B5D" mask="url(#mask-4)" points="58.4320422 40.9441164 60.7206024 40.9441164 60.7206024 29.5160685 58.4320422 29.5160685"></polygon>
            </g>
        </g>
    </g>
</svg>