<?xml version="1.0" encoding="UTF-8"?>
<svg width="232px" height="60px" viewBox="0 0 232 60" version="1.1" xmlns="http://www.w3.org/2000/svg" xmlns:xlink="http://www.w3.org/1999/xlink">
    <!-- Generator: Sketch 53.2 (72643) - https://sketchapp.com -->
    <title>10.人民网</title>
    <desc>Created with Sketch.</desc>
    <defs>
        <linearGradient x1="50.8874913%" y1="-67.89933%" x2="49.3424556%" y2="143.32558%" id="linearGradient-1">
            <stop stop-color="#E50012" offset="0%"></stop>
            <stop stop-color="#D9000F" offset="47%"></stop>
            <stop stop-color="#C6000B" offset="100%"></stop>
        </linearGradient>
        <linearGradient x1="49.8759571%" y1="-60.4428568%" x2="49.8759571%" y2="182.205312%" id="linearGradient-2">
            <stop stop-color="#E50012" offset="0%"></stop>
            <stop stop-color="#D9000F" offset="47%"></stop>
            <stop stop-color="#C6000B" offset="100%"></stop>
        </linearGradient>
        <linearGradient x1="49.8067485%" y1="-5.10103447%" x2="49.8067485%" y2="110.934078%" id="linearGradient-3">
            <stop stop-color="#E50012" offset="0%"></stop>
            <stop stop-color="#D9000F" offset="47%"></stop>
            <stop stop-color="#C6000B" offset="100%"></stop>
        </linearGradient>
        <linearGradient x1="50.0203591%" y1="8.84694987%" x2="50.0203591%" y2="111.716447%" id="linearGradient-4">
            <stop stop-color="#E50012" offset="0%"></stop>
            <stop stop-color="#D9000F" offset="47%"></stop>
            <stop stop-color="#C6000B" offset="100%"></stop>
        </linearGradient>
        <linearGradient x1="50.0737939%" y1="-138.302003%" x2="50.0737939%" y2="121.03133%" id="linearGradient-5">
            <stop stop-color="#E50012" offset="0%"></stop>
            <stop stop-color="#D9000F" offset="47%"></stop>
            <stop stop-color="#C6000B" offset="100%"></stop>
        </linearGradient>
        <linearGradient x1="49.9349792%" y1="-116.003829%" x2="49.9349792%" y2="146.319292%" id="linearGradient-6">
            <stop stop-color="#E50012" offset="0%"></stop>
            <stop stop-color="#D9000F" offset="47%"></stop>
            <stop stop-color="#C6000B" offset="100%"></stop>
        </linearGradient>
        <linearGradient x1="50.0551306%" y1="-101.755883%" x2="50.0551306%" y2="146.416153%" id="linearGradient-7">
            <stop stop-color="#E50012" offset="0%"></stop>
            <stop stop-color="#D9000F" offset="47%"></stop>
            <stop stop-color="#C6000B" offset="100%"></stop>
        </linearGradient>
        <linearGradient x1="50.2282428%" y1="-272.546617%" x2="50.2282428%" y2="330.254053%" id="linearGradient-8">
            <stop stop-color="#E50012" offset="0%"></stop>
            <stop stop-color="#D9000F" offset="47%"></stop>
            <stop stop-color="#C6000B" offset="100%"></stop>
        </linearGradient>
        <linearGradient x1="49.9920574%" y1="-53.7338465%" x2="49.9920574%" y2="296.353917%" id="linearGradient-9">
            <stop stop-color="#E50012" offset="0%"></stop>
            <stop stop-color="#D9000F" offset="47%"></stop>
            <stop stop-color="#C6000B" offset="100%"></stop>
        </linearGradient>
        <linearGradient x1="49.540395%" y1="-64.1752554%" x2="49.540395%" y2="242.238012%" id="linearGradient-10">
            <stop stop-color="#E50012" offset="0%"></stop>
            <stop stop-color="#D9000F" offset="47%"></stop>
            <stop stop-color="#C6000B" offset="100%"></stop>
        </linearGradient>
        <linearGradient x1="48.5575738%" y1="-64.1542842%" x2="48.5575738%" y2="242.227317%" id="linearGradient-11">
            <stop stop-color="#E50012" offset="0%"></stop>
            <stop stop-color="#D9000F" offset="47%"></stop>
            <stop stop-color="#C6000B" offset="100%"></stop>
        </linearGradient>
        <linearGradient x1="50.0051646%" y1="-62.9660001%" x2="50.0051646%" y2="239.199632%" id="linearGradient-12">
            <stop stop-color="#E50012" offset="0%"></stop>
            <stop stop-color="#D9000F" offset="47%"></stop>
            <stop stop-color="#C6000B" offset="100%"></stop>
        </linearGradient>
        <linearGradient x1="50.3176404%" y1="-65.9150664%" x2="50.3176404%" y2="247.340927%" id="linearGradient-13">
            <stop stop-color="#E50012" offset="0%"></stop>
            <stop stop-color="#D9000F" offset="47%"></stop>
            <stop stop-color="#C6000B" offset="100%"></stop>
        </linearGradient>
        <linearGradient x1="50.3937008%" y1="-14.3884892%" x2="50.3937008%" y2="201.726619%" id="linearGradient-14">
            <stop stop-color="#E50012" offset="0%"></stop>
            <stop stop-color="#D9000F" offset="47%"></stop>
            <stop stop-color="#C6000B" offset="100%"></stop>
        </linearGradient>
        <linearGradient x1="49.6350365%" y1="-480.291971%" x2="49.6350365%" y2="616.788321%" id="linearGradient-15">
            <stop stop-color="#E50012" offset="0%"></stop>
            <stop stop-color="#D9000F" offset="47%"></stop>
            <stop stop-color="#C6000B" offset="100%"></stop>
        </linearGradient>
        <linearGradient x1="46.3551781%" y1="-63.5489576%" x2="46.3551781%" y2="240.34433%" id="linearGradient-16">
            <stop stop-color="#E50012" offset="0%"></stop>
            <stop stop-color="#D9000F" offset="47%"></stop>
            <stop stop-color="#C6000B" offset="100%"></stop>
        </linearGradient>
        <linearGradient x1="50.5391922%" y1="-48.6461335%" x2="50.5391922%" y2="183.681122%" id="linearGradient-17">
            <stop stop-color="#E50012" offset="0%"></stop>
            <stop stop-color="#D9000F" offset="47%"></stop>
            <stop stop-color="#C6000B" offset="100%"></stop>
        </linearGradient>
        <linearGradient x1="50.6423949%" y1="-48.6461335%" x2="50.6423949%" y2="183.681122%" id="linearGradient-18">
            <stop stop-color="#E50012" offset="0%"></stop>
            <stop stop-color="#D9000F" offset="47%"></stop>
            <stop stop-color="#C6000B" offset="100%"></stop>
        </linearGradient>
        <linearGradient x1="43.1834463%" y1="3.39703639%" x2="53.4315587%" y2="96.8758489%" id="linearGradient-19">
            <stop stop-color="#F08D38" offset="0%"></stop>
            <stop stop-color="#F29B4A" offset="28%"></stop>
            <stop stop-color="#F7BE78" offset="85%"></stop>
            <stop stop-color="#F9C886" offset="100%"></stop>
        </linearGradient>
        <radialGradient cx="63.2005904%" cy="22.0216294%" fx="63.2005904%" fy="22.0216294%" r="55.5706049%" gradientTransform="translate(0.632006,0.220216),scale(0.985578,1.000000),rotate(146.478333),translate(-0.632006,-0.220216)" id="radialGradient-20">
            <stop stop-color="#E8440A" offset="0%"></stop>
            <stop stop-color="#E7370C" offset="17%"></stop>
            <stop stop-color="#E61510" offset="49%"></stop>
            <stop stop-color="#E50012" offset="66%"></stop>
            <stop stop-color="#A90001" offset="100%"></stop>
        </radialGradient>
        <radialGradient cx="-32.7173913%" cy="-106.998969%" fx="-32.7173913%" fy="-106.998969%" r="252.283772%" gradientTransform="translate(-0.327174,-1.069990),scale(1.000000,0.720421),rotate(146.478333),translate(0.327174,1.069990)" id="radialGradient-21">
            <stop stop-color="#E50012" offset="0%"></stop>
            <stop stop-color="#A30000" offset="100%"></stop>
        </radialGradient>
        <radialGradient cx="72.5901546%" cy="-800.454545%" fx="72.5901546%" fy="-800.454545%" r="641.781775%" gradientTransform="translate(0.725902,-8.004545),scale(0.155429,1.000000),rotate(146.478333),translate(-0.725902,8.004545)" id="radialGradient-22">
            <stop stop-color="#E50012" offset="0%"></stop>
            <stop stop-color="#900000" offset="100%"></stop>
        </radialGradient>
        <radialGradient cx="-439.661651%" cy="-53.1559724%" fx="-439.661651%" fy="-53.1559724%" r="924.290004%" gradientTransform="translate(-4.396617,-0.531560),scale(1.000000,0.186241),rotate(146.478333),translate(4.396617,0.531560)" id="radialGradient-23">
            <stop stop-color="#E50012" offset="0%"></stop>
            <stop stop-color="#9A0000" offset="100%"></stop>
        </radialGradient>
    </defs>
    <g id="10.人民网" stroke="none" stroke-width="1" fill="none" fill-rule="evenodd">
        <g id="10" transform="translate(-1.000000, -25.000000)">
            <rect id="矩形复制-15" x="0" y="0" width="232" height="110"></rect>
            <g id="资源-4" transform="translate(53.000000, 32.000000)">
                <path d="M105.392,16.5882353 C105.392,16.5882353 105.98,18.9658824 104.398,23.5 C104.011061,24.5254337 103.542948,25.5191912 102.998,26.4720588 C102.676,27.2185294 102.284,27.1355882 102.48,28.1447059 C102.676,29.1538235 103.236,30.4532353 104.706,29.5270588 C107.128,28.0064706 107.506,24.6335294 107.506,21.7997059 C107.616553,20.2644033 107.489085,18.7214332 107.128,17.2241176 C106.82,17.0305882 105.644,15.3026471 105.392,16.5882353 Z" id="路径" fill="url(#linearGradient-1)"></path>
                <path d="M112.378,17.4176471 C112.869495,19.0330481 112.541031,20.7833667 111.496,22.1176471 C111.496,22.1176471 110.558,22.1176471 110.096,22.1176471 C109.634,22.1176471 107.296,22.4355882 108.346,22.9470588 C108.346,22.9470588 110.348,22.7535294 110.978,23.3341176 C110.77819,23.694423 110.553666,24.0408188 110.306,24.3708824 C110.054,24.6335294 109.41,25.2002941 109.662,25.4629412 C109.936226,25.835617 110.422124,25.9918224 110.866,25.85 C111.496,25.6426471 112,24.4676471 112,24.4676471 C112.156439,24.660145 112.346004,24.8239229 112.56,24.9514706 C112.756,25.0482353 112.854,24.9514706 113.176,24.8408824 C113.382068,24.709642 113.518427,24.4947817 113.548176,24.2544458 C113.577925,24.01411 113.497989,23.7731469 113.33,23.5967647 C113.161974,23.3806225 113.007678,23.1544045 112.868,22.9194118 C112.868,22.9194118 113.246,22.2282353 113.33,22.0347059 C113.414,21.8411765 114.422,22.0347059 115.08,22.2144118 C115.679054,22.3262518 116.244184,22.5721532 116.732,22.9332353 C116.732,22.9332353 116.396,23.3202941 116.102,23.7488235 C115.416,24.7855882 114.422,25.4214706 114.842,25.6011765 C115.71894,25.917118 116.702363,25.6702468 117.32,24.9791176 C117.470759,24.7142133 117.659361,24.4721218 117.88,24.2602941 C118.12438,24.605175 118.433252,24.9007699 118.79,25.1311765 C119.084,25.2694118 119.504,25.3385294 119.644,24.6335294 C119.817275,23.9194554 119.738242,23.1683569 119.42,22.5047059 C119,22.1176471 118.846,22.1176471 118.846,22.1176471 C118.846,22.1176471 119.056,21.6752941 119.532,20.8458824 C120.187084,19.6055153 120.658554,18.2787638 120.932,16.9061765 C121.338,14.9294118 121.212,14.7911765 120.526,13.9479412 C120.064,13.3811765 119.21,14.4870588 119.378,14.9570588 C119.392551,16.7703022 119.015507,18.5657813 118.272,20.2238235 L117.712,21.4541176 C117.712,21.4541176 116.984,21.15 116.214,20.915 C115.364712,20.841908 114.509116,20.9310825 113.694,21.1776471 C113.904718,20.5435894 114.017977,19.8819224 114.03,19.2147059 C113.918,18.3023529 113.918,17.8323529 113.4,17.3070588 C112.882,16.7817647 111.832,15.98 112.378,17.4176471 Z" id="路径" fill="url(#linearGradient-2)"></path>
                <path d="M108.794,14.7635294 C108.794,14.7635294 110.88,16.3670588 111.594,16.1458824 C112.308,15.9247059 112.994,15.4270588 114.73,13.9202941 C115.906,12.8835294 116.886,11.4597059 118.3,10.3952941 C118.899157,9.88424142 119.623003,9.53641028 120.4,9.38617647 C121.06722,9.13442271 121.816726,9.21849527 122.409752,9.6116116 C123.002778,10.0047279 123.365363,10.6578593 123.382,11.3629412 C123.695625,14.5428844 123.723734,17.7439887 123.466,20.9288235 C123.046,27.5779412 122.934,30.4532353 121.128,30.785 C119.924,30.9923529 120.232,31.4347059 121.002,31.6282353 C121.765333,31.8652576 122.460977,32.2773829 123.032,32.8308824 C123.203089,32.9506822 123.399254,33.0309935 123.606,33.0658824 C124.278,33.0658824 125.216,32.5544118 125.706,30.5085294 C126.084,28.9326471 125.972,26.4858824 125.944,20.2514706 C125.86,16.5882353 125.496,12.4411765 125.342,11.0588235 C124.900621,9.34190411 123.282238,8.17973469 121.492,8.29411765 C119.740986,8.44149623 118.051186,9.0008228 116.564,9.92529412 C113.666,11.5841176 111.104,13.6023529 109.942,13.8097059 C108.178,14.1829412 107.982,14.1829412 108.794,14.7635294 Z" id="路径" fill="url(#linearGradient-3)"></path>
                <path d="M70.476,1.79705882 C70.0988488,4.21802286 69.441202,6.58817656 68.516,8.86088235 C66.6943907,13.7121904 64.6243904,18.4690053 62.314,23.1129412 C60.06,27.8682353 57.764,30.6605882 54.726,30.8955882 C53.018,31.02 49.994,30.9785294 49.994,30.9785294 C49.994,30.9785294 49.098,31.7941176 49.994,31.8632353 C50.624,31.8632353 53.41,32.0152941 54.726,32.0429412 C58.016,32.0429412 60.592,31.0338235 63.126,26.8314706 C65.66,22.6291176 67.886,18.2608824 70.644,12.4411765 C72.982,7.50617647 73.808,5.52941176 73.808,5.52941176 C73.808,5.52941176 74.326,4.64470588 73.906,4.14705882 C73.724,3.93970588 73.332,3.58029412 72.94,3.16558824 C71.736,1.88 70.518,0.981470588 70.476,1.79705882 Z" id="路径" fill="url(#linearGradient-4)" fill-rule="nonzero"></path>
                <path d="M67.536,21.0947059 C67.382,21.2882353 68.04,21.6891176 69.748,26.0020588 C71.456,30.315 72.716,33.5082353 74.9,33.2732353 C76.9761782,32.7232261 78.9413658,31.8254913 80.71,30.6191176 C82.11,29.6929412 82.53,28.4902941 81.228,28.9464706 C79.5118846,29.4669672 77.7118929,29.6639243 75.922,29.5270588 C74.3315106,28.4793181 72.9621738,27.1366313 71.89,25.5735294 C71.036,24.3847059 67.97,20.6108824 67.536,21.0947059 Z" id="路径" fill="url(#linearGradient-5)" fill-rule="nonzero"></path>
                <path d="M86.674,19.3529412 C86.5714828,20.6918301 86.3750111,22.0220829 86.086,23.3341176 C85.582,25.6011765 84.378,28.8635294 85.008,29.5547059 C85.638,30.2458824 85.708,30.9370588 86.478,30.9370588 C87.248,30.9370588 87.22,30.6744118 88.214,29.7344118 C89.208,28.7944118 90.454,27.6055882 90.916,27.2185294 C91.602,26.6655882 91.35,25.4491176 91.056,25.4352941 C90.762,25.4214706 90.524,25.7394118 89.656,26.2232353 C88.788,26.7070588 88.256,27.0388235 88.256,27.0388235 C88.256,27.0388235 88.396,26.2508824 88.55,25.6564706 C88.9980114,24.2177369 89.0607169,22.6889111 88.732,21.2191176 C88.284,19.9335294 87.094,17.9705882 86.674,19.3529412 Z" id="路径" fill="url(#linearGradient-6)" fill-rule="nonzero"></path>
                <path d="M90.482,18.3852941 C91.3587352,21.0646494 92.3822434,23.694996 93.548,26.2647059 C95.452,30.0108824 96.698,30.9785294 97.748,30.8264706 C98.28,30.7435294 98.574,30.0108824 98.644,29.2091176 C98.8940204,28.0631162 99.0392708,26.8972542 99.078,25.7255882 C99.162,22.5876471 98.322,21.6891176 98.196,22.0485294 C98.07,22.4079412 98.196,23.8455882 97.846,25.1864706 C97.7533709,25.9848615 97.3762397,26.7247166 96.782,27.2738235 C96.614,27.2738235 96.53,27.2738235 95.872,26.4444118 C94.36,24.3847059 91.084,18.1502941 91.084,18.1502941 C91.0219822,18.0588992 90.9267413,17.9945558 90.818,17.9705882 C90.272,17.8323529 90.342,17.9705882 90.482,18.3852941 Z" id="路径" fill="url(#linearGradient-7)" fill-rule="nonzero"></path>
                <path d="M90.454,23.6658824 C91.7609802,22.8486827 92.8660214,21.7528472 93.688,20.4588235 C93.688,19.2008824 94.542,19.1732353 95.088,19.3944118 C96.656,20.0026471 95.774,20.8873529 94.822,21.6614706 C93.5645501,22.7784559 92.1498604,23.7096942 90.622,24.4261765 C88.984,25.1311765 89.81,24.0667647 90.454,23.6658824 Z" id="路径" fill="url(#linearGradient-8)" fill-rule="nonzero"></path>
                <path d="M99.246,9.81470588 C98.0739933,9.65916446 96.8811703,9.8117523 95.788,10.2570588 C95.172,10.5611765 92.428,12.0541176 90.188,12.925 C89.1362951,13.3101053 88.0547696,13.6105947 86.954,13.8235294 C86.758,14.1 88.116,15.6758824 89.866,15.6205882 C90.972,15.6205882 92.89,14.2382353 95.466,11.9573529 C95.9853167,11.4142535 96.6982908,11.0920059 97.454,11.0588235 C97.454,11.0588235 97.636,10.9758824 97.454,11.3491176 C96.5105357,12.7588454 95.4014969,14.0534283 94.15,15.2058824 C92.148,15.8279412 91.182,16.7817647 91.49,17.8047059 C91.49,17.8047059 91.49,17.6526471 91.49,17.8047059 C91.5584676,18.0595914 91.6993412,18.2898224 91.896,18.4682353 C92.7318026,18.8526293 93.7056883,18.8060998 94.5,18.3438235 C94.9960386,18.1244174 95.4656317,17.8508498 95.9,17.5282353 C96.208,17.2932353 96.502,17.0305882 96.46,16.6711765 C96.4882744,16.1693247 96.3232285,15.6754898 95.998,15.2888235 C96.732531,14.3114683 97.5372719,13.3875181 98.406,12.5241176 C99.764,11.28 99.848,9.95294118 99.246,9.81470588 Z" id="路径" fill="url(#linearGradient-9)" fill-rule="nonzero"></path>
                <path d="M64.652,40.5305882 C64.6410196,40.0179309 64.7412637,39.5088882 64.946,39.0376471 C65.1315814,38.6267296 65.4092263,38.2627782 65.758,37.9732353 C66.089257,37.6781635 66.4807147,37.4566197 66.906,37.3235294 C67.3570486,37.1737874 67.8301508,37.0990452 68.306,37.1023529 C69.212272,37.0499674 70.1028388,37.3530172 70.784,37.9455882 C71.4246645,38.6019124 71.7507117,39.4973007 71.68,40.4061765 C71.6866277,40.4982172 71.6866277,40.5906064 71.68,40.6826471 C71.6893568,40.7745724 71.6893568,40.8671923 71.68,40.9591176 L66.486,40.9591176 C66.5077487,41.4453111 66.7557823,41.8943074 67.158,42.1755882 C67.6579168,42.4904781 68.246172,42.6405285 68.838,42.6041176 C69.2412446,42.6022128 69.6437514,42.5698636 70.042,42.5073529 L71.12,42.2723529 L71.12,43.5164706 L70.714,43.6547059 C70.520458,43.7033322 70.3240938,43.7402634 70.126,43.7652941 L69.412,43.8620588 C69.1461926,43.8761925 68.8798074,43.8761925 68.614,43.8620588 C68.0163188,43.8726123 67.4207812,43.7886079 66.85,43.6132353 C66.3909072,43.4632959 65.9671343,43.2235207 65.604,42.9082353 C65.2883358,42.6078374 65.0402857,42.2451625 64.876,41.8438235 C64.7250538,41.4221444 64.6492656,40.9778241 64.652,40.5305882 L64.652,40.5305882 Z M69.832,39.8670588 C69.8358935,39.6692167 69.8026672,39.4723718 69.734,39.2864706 C69.6702842,39.1040007 69.5648985,38.9384549 69.426,38.8026471 C69.2862578,38.6614283 69.1197695,38.5487039 68.936,38.4708824 C68.7155425,38.3950808 68.4834265,38.357662 68.25,38.3602941 C67.3551967,38.3200811 66.5883451,38.9856716 66.514,39.8670588 L69.832,39.8670588 Z" id="形状" fill="url(#linearGradient-10)" fill-rule="nonzero"></path>
                <path d="M95.2,40.5305882 C95.1864956,40.0163022 95.2918274,39.5057368 95.508,39.0376471 C95.6882613,38.627369 95.9612304,38.2632695 96.306,37.9732353 C96.6392267,37.6808572 97.0300731,37.4596593 97.454,37.3235294 C97.9056474,37.1762014 98.3783448,37.1015231 98.854,37.1023529 C99.7609078,37.0453599 100.653213,37.3490011 101.332,37.9455882 C101.979017,38.5979968 102.306135,39.4963255 102.228,40.4061765 C102.234628,40.4982172 102.234628,40.5906064 102.228,40.6826471 L102.228,40.9591176 L96.978,40.9591176 C97.0062933,41.4401976 97.2468015,41.8848347 97.636,42.1755882 C98.1421422,42.4880973 98.7340253,42.6378254 99.33,42.6041176 C99.7286029,42.6022692 100.126461,42.5699174 100.52,42.5073529 L101.612,42.2723529 L101.612,43.5164706 L101.192,43.6547059 C100.998753,43.7046337 100.802304,43.741581 100.604,43.7652941 L99.89,43.8620588 C99.6288528,43.8758307 99.3671472,43.8758307 99.106,43.8620588 C98.5083188,43.8726123 97.9127812,43.7886079 97.342,43.6132353 C96.8800647,43.4696441 96.4550246,43.2291519 96.096,42.9082353 C95.7720731,42.61478 95.5226769,42.2501368 95.368,41.8438235 C95.2360471,41.4188507 95.1792163,40.9746109 95.2,40.5305882 L95.2,40.5305882 Z M100.394,39.8670588 C100.393422,39.668349 100.355444,39.4714762 100.282,39.2864706 C100.21873,39.1069532 100.118646,38.9422483 99.988,38.8026471 C99.8457363,38.6644197 99.6798521,38.5521044 99.498,38.4708824 C99.2775425,38.3950808 99.0454265,38.357662 98.812,38.3602941 C98.5619732,38.352735 98.3133538,38.3999437 98.084,38.4985294 C97.8875356,38.575917 97.7071921,38.6883824 97.552,38.8302941 C97.4135152,38.9719848 97.2999547,39.1355062 97.216,39.3141176 C97.1434906,39.4920334 97.0918217,39.677552 97.062,39.8670588 L100.394,39.8670588 Z" id="形状" fill="url(#linearGradient-11)" fill-rule="nonzero"></path>
                <path d="M107.436,40.5167647 C107.426914,40.0427768 107.517488,39.5720796 107.702,39.1344118 C107.877827,38.7283637 108.134978,38.3616054 108.458,38.0561765 C108.811209,37.7455788 109.219356,37.5019027 109.662,37.3373529 C110.179492,37.1594842 110.724066,37.0706452 111.272,37.0747059 C111.971362,37.0782055 112.665826,37.1901583 113.33,37.4064706 L113.33,38.7888235 C112.975359,38.6834638 112.61557,38.5958038 112.252,38.5261765 C111.975664,38.4698824 111.694153,38.4420862 111.412,38.4432353 C110.826155,38.4068172 110.25036,38.606304 109.816,38.9961765 C109.432509,39.4253999 109.236267,39.9868293 109.27,40.5582353 C109.240281,41.1159363 109.425333,41.6640928 109.788,42.0926471 C110.265344,42.5043003 110.893014,42.7042223 111.524,42.6455882 C111.828603,42.6437358 112.132693,42.6206391 112.434,42.5764706 L113.456,42.3552941 L113.456,43.6270588 C113.163202,43.7222827 112.863734,43.7962059 112.56,43.8482353 C112.152078,43.9084506 111.740433,43.9407824 111.328,43.945 C110.739471,43.955968 110.15308,43.8719198 109.592,43.6961765 C109.145512,43.5461243 108.735501,43.3060429 108.388,42.9911765 C108.067331,42.692294 107.82269,42.3228535 107.674,41.9129412 C107.50963,41.4656365 107.428985,40.9925527 107.436,40.5167647 Z" id="路径" fill="url(#linearGradient-12)" fill-rule="nonzero"></path>
                <path d="M114.8,37.4755882 C115.261364,37.3690776 115.728908,37.2905971 116.2,37.2405882 C116.808348,37.1654523 117.420913,37.1285153 118.034,37.13 C118.570279,37.113562 119.105423,37.1883794 119.616,37.3511765 C120.381025,37.5490926 120.976426,38.1422853 121.17,38.8994118 C121.269713,39.2972241 121.316772,39.7061221 121.31,40.1158824 L121.31,43.7514706 L119.518,43.7514706 L119.518,40.3370588 C119.51556,40.0403334 119.487458,39.7443558 119.434,39.4523529 C119.391509,39.2370546 119.300607,39.0339224 119.168,38.8579412 C119.036102,38.7014732 118.861006,38.5862135 118.664,38.5261765 C118.414833,38.4495062 118.154963,38.4121834 117.894,38.4155882 L117.166,38.4155882 L116.634,38.4155882 L116.634,43.6547059 L114.8,43.6547059 L114.8,37.4755882 Z" id="路径" fill="url(#linearGradient-13)" fill-rule="nonzero"></path>
                <polygon id="路径" fill="url(#linearGradient-14)" fill-rule="nonzero" points="92.918 43.7376471 92.918 34.1302941 91.14 34.3791176 91.14 43.7376471"></polygon>
                <rect id="矩形" fill="url(#linearGradient-15)" fill-rule="nonzero" x="103.796" y="41.8438235" width="1.918" height="1.89382353"></rect>
                <path d="M76.804,37.1023529 C74.931321,37.2374643 73.5100313,38.823462 73.6021691,40.675232 C73.6943069,42.527002 75.2661997,43.9677999 77.1432733,43.9210102 C79.0203468,43.8742205 80.5166093,42.3569428 80.514,40.5029412 C80.5254871,39.550943 80.12897,38.6384897 79.422301,37.9907565 C78.715632,37.3430233 77.7646361,37.0203453 76.804,37.1023529 L76.804,37.1023529 Z M76.804,42.6317647 C75.502,42.6317647 74.914,41.6917647 74.914,40.5167647 C74.914,39.3417647 75.488,38.4155882 76.804,38.4155882 C77.3456671,38.4112643 77.8627883,38.6383345 78.2223309,39.0383838 C78.5818735,39.438433 78.7487389,39.9724082 78.68,40.5029412 C78.68,41.6779412 78.078,42.6179412 76.804,42.6179412 L76.804,42.6317647 Z" id="形状" fill="url(#linearGradient-16)" fill-rule="nonzero"></path>
                <path d="M59.514,37.1023529 C58.4242476,37.0735763 57.3346869,37.16632 56.266,37.3788235 L56.266,46.0323529 L58.058,46.0323529 L58.058,43.7929412 C58.5189787,43.8826226 58.9882118,43.9243213 59.458,43.9173529 C60.7433828,43.9982318 61.9677732,43.3670327 62.6352833,42.2793964 C63.3027934,41.19176 63.3027934,39.8279459 62.6352833,38.7403095 C61.9677732,37.6526732 60.7433828,37.0214741 59.458,37.1023529 L59.514,37.1023529 Z M59.514,42.6317647 C59.0419375,42.6382151 58.5711145,42.5824285 58.114,42.4658824 L58.114,38.5261765 C58.5739696,38.4297115 59.0439779,38.3879439 59.514,38.4017647 C60.054904,38.4106135 60.5672726,38.6429803 60.9265138,39.0423608 C61.285755,39.4417413 61.4589561,39.9715454 61.404,40.5029412 C61.404,41.6779412 60.802,42.6179412 59.514,42.6179412 L59.514,42.6317647 Z" id="形状" fill="url(#linearGradient-17)" fill-rule="nonzero"></path>
                <path d="M85.596,37.1023529 C84.5108866,37.0736738 83.4259741,37.1664216 82.362,37.3788235 L82.362,46.0323529 L84.14,46.0323529 L84.14,43.7929412 C84.6011351,43.8815393 85.0702538,43.9232278 85.54,43.9173529 C86.8253828,43.9982318 88.0497732,43.3670327 88.7172833,42.2793964 C89.3847934,41.19176 89.3847934,39.8279459 88.7172833,38.7403095 C88.0497732,37.6526732 86.8253828,37.0214741 85.54,37.1023529 L85.596,37.1023529 Z M85.596,42.6317647 C85.1239375,42.6382151 84.6531145,42.5824285 84.196,42.4658824 L84.196,38.5261765 C84.6560683,38.4303598 85.1259981,38.3885992 85.596,38.4017647 C86.1383699,38.4063611 86.6534117,38.6374863 87.0135903,39.0379089 C87.3737689,39.4383316 87.5454057,39.97061 87.486,40.5029412 C87.486,41.6779412 86.898,42.6179412 85.596,42.6179412 L85.596,42.6317647 Z" id="形状" fill="url(#linearGradient-18)" fill-rule="nonzero"></path>
                <path d="M35,41.4705882 C35.98629,40.5872041 36.7939015,39.5270893 37.38,38.3464706 C39.3989963,34.6791585 40.471296,30.5769665 40.502,26.4029412 C40.502,17.1273529 36.932,12.6485294 36.932,12.6485294 C40.698,14.8464706 43.456,24.0944118 42.364,30.6191176 C45.2739473,25.1840587 45.1948848,18.6629532 42.154,13.2982353 C40.011424,9.64149663 36.3900518,7.06154347 32.2,6.20676471 C30.1200444,5.74448649 27.9571046,5.79194595 25.9,6.345 C25.5859089,6.40759656 25.3236936,6.61990288 25.2,6.91176471 C27.9290035,7.69852376 30.3199721,9.35013341 32.004,11.6117647 C37.114,17.8461765 36.54,28.6285294 32.97,34.4897059 C27.762,43.0741176 17.682,44.1661765 10.402,41.8023529 C13.9965487,44.0385023 18.1516378,45.240114 22.4,45.2720588 C26.8862992,45.2499387 31.2673646,43.9281537 35,41.4705882 Z" id="路径" fill="url(#linearGradient-19)" fill-rule="nonzero"></path>
                <path d="M27.146,2.61264706 C24.2161435,2.76561669 21.498164,4.16801137 19.698,6.45558824 C18.452,8.01764706 14.952,13.5055882 21.238,21.4817647 C24.192,25.2279412 31.682,29.1676471 38.598,25.2832353 C41.7797676,23.3953061 43.6682506,19.9467102 43.526,16.2841176 C44.9130459,20.1327318 44.8882732,24.3399236 43.456,28.1723529 C42.1693311,31.7379709 39.4417115,34.6164315 35.924,36.1208824 C31.5982413,37.8590266 26.7613136,37.8887217 22.414,36.2038235 C15.7023758,33.7038285 10.7808908,27.9499055 9.408,20.9979412 C8.80905541,18.0391055 9.1261491,14.9707577 10.318,12.1923529 C5.712,19.1732353 7.182,29.9141176 14.336,36.4526471 C19.8095861,41.6731047 27.7152106,43.561135 35,41.3876471 C26.278,47.7326471 13.538,45.2167647 9.212,41.5811765 C-9.352,26.0020588 2.716,0.829411765 22.708,1.38235294 C24.416,1.38235294 27.132,1.60352941 27.146,2.61264706 Z" id="路径" fill="url(#radialGradient-20)" fill-rule="nonzero"></path>
                <path d="M44.59,23.3202941 C44.5899929,32.1958775 39.1737164,40.1969904 30.8679807,43.5909405 C22.562245,46.9848907 13.0036942,45.1029007 6.65159892,38.8229597 C0.299503694,32.5430187 -1.5944565,23.102588 1.85329176,14.9058329 C5.30104002,6.70907777 13.4111185,1.37116758 22.4,1.38235294 C28.2888673,1.38601801 33.9350673,3.69938947 38.0964998,7.81355176 C42.2579322,11.9277141 44.5937142,17.5056562 44.59,23.3202941 Z" id="路径"></path>
                <path d="M40.362,23.9838235 C39.8279295,24.4841031 39.2358182,24.9202688 38.598,25.2832353 C37.6748188,25.7980794 36.692483,26.2018399 35.672,26.4858824 C35.3429817,29.3316592 34.4231603,32.0798696 32.97,34.5588235 C32.3427839,35.5715786 31.6159322,36.5207811 30.8,37.3926471 C32.5837795,37.2971621 34.3325692,36.8654756 35.952,36.1208824 C37.0937427,35.6214525 38.1663808,34.9804077 39.144,34.2132353 C39.9998648,31.6857872 40.4440566,29.0402332 40.46,26.3752941 C40.432,25.5320588 40.404,24.7441176 40.362,23.9838235 Z" id="路径" fill="url(#radialGradient-21)" fill-rule="nonzero"></path>
                <path d="M24.108,41.7332353 C19.6621305,43.2123771 14.8478695,43.2123771 10.402,41.7332353 C13.9892285,43.9937193 18.1448326,45.2194194 22.4,45.2720588 L22.918,45.2720588 C23.9636106,45.2370419 25.0061509,45.140103 26.04,44.9817647 L26.138,44.9817647 L26.348,44.9817647 C29.3501233,44.4219362 32.2070734,43.2700531 34.748,41.595 L34.86,41.4705882 C31.3701872,42.5419883 27.6471995,42.6329325 24.108,41.7332353 L24.108,41.7332353 Z" id="路径" fill="url(#radialGradient-22)" fill-rule="nonzero"></path>
                <path d="M42,22.1176471 C42.6282244,24.8989531 42.7467633,27.7688894 42.35,30.5914706 C43.8912648,27.9607803 44.6709704,24.9625624 44.604,21.9241176 C44.604,21.6752941 44.604,21.4264706 44.534,21.1776471 C44.3696083,19.6171824 44.0363734,18.0785987 43.54,16.5882353 C43.5618894,18.537488 43.028248,20.4535419 42,22.1176471 Z" id="路径" fill="url(#radialGradient-23)" fill-rule="nonzero"></path>
            </g>
        </g>
    </g>
</svg>