<?xml version="1.0" encoding="UTF-8"?>
<svg width="232px" height="60px" viewBox="0 0 232 60" version="1.1" xmlns="http://www.w3.org/2000/svg" xmlns:xlink="http://www.w3.org/1999/xlink">
    <!-- Generator: Sketch 53.2 (72643) - https://sketchapp.com -->
    <title>18.广东交通</title>
    <desc>Created with Sketch.</desc>
    <g id="18.广东交通" stroke="none" stroke-width="1" fill="none" fill-rule="evenodd">
        <g id="18" transform="translate(5.000000, -23.000000)">
            <rect id="矩形复制-23" x="0" y="0" width="223" height="106"></rect>
            <g id="编组" transform="translate(74.974138, 24.090909)">
                <path d="M0.575021429,56.1980007 C0.944918254,55.9493825 1.21857233,55.6938262 1.39598366,55.4359571 C1.57455454,55.1734625 1.70442427,54.9086553 1.78443331,54.6380662 C1.86444234,54.3721025 1.91894124,54.0286625 1.95140868,53.6146844 C1.9792379,53.1983935 1.99547162,52.7971353 1.99547162,52.4074407 L1.99547162,48.8874698 L6.26030085,48.8874698 C6.05737939,48.6932007 5.87648941,48.5324662 5.71879045,48.4041098 C5.55993194,48.2757535 5.30251158,48.1034553 4.94189116,47.8872153 C5.35817003,47.5946553 5.73850282,47.2674044 6.08288952,46.9089316 C6.5606246,47.1945535 6.88645848,47.3969171 7.05923161,47.5160225 C7.23316429,47.6328153 7.5416049,47.8652444 7.985713,48.2121535 C7.75148366,48.4202989 7.51377567,48.6481025 7.27374858,48.8874698 L9.77490047,48.8874698 L11.1083843,48.8574044 L11.1083843,50.5676662 L9.77490047,50.5329753 L3.67450172,50.5329753 L3.67450172,52.9914044 C3.67450172,53.5892444 3.64319384,54.1026698 3.58057808,54.5316807 C3.51796232,54.9595353 3.38461393,55.4116735 3.17937337,55.8846262 C2.97529236,56.3598916 2.75613719,56.7033316 2.52422696,56.9114771 L1.80066702,57.6249535 C1.59426691,57.3104225 1.41221738,57.0664298 1.25335887,56.8929753 C1.09565991,56.7183644 0.868387876,56.4859353 0.575021429,56.1980007 L0.575021429,56.1980007 Z M12.868583,55.6938262 C13.3753069,55.3550116 13.8866689,54.9826625 14.4038288,54.5756225 C14.9186695,54.1662698 15.2329079,53.9037753 15.348863,53.7846698 L15.9100857,53.219208 C16.3147691,53.6886916 16.6939423,54.0795425 17.0452863,54.3917607 C16.800621,54.6507862 16.4759467,54.9780371 16.0701038,55.3769825 C15.6654204,55.7747716 14.963892,56.3171062 13.9608802,57.0028298 C13.6524396,56.6038844 13.4761878,56.3772371 13.4309653,56.3263571 C13.3880619,56.2731644 13.1990551,56.0638625 12.868583,55.6938262 L12.868583,55.6938262 Z M13.3254462,49.8241244 L13.3254462,48.1682116 L14.4432535,48.2063716 L16.0016903,48.2063716 C16.1663466,47.851368 16.3541938,47.4454844 16.5640726,46.9887207 C16.7090165,47.0199425 16.9409267,47.0708225 17.2586438,47.1413607 C17.5752012,47.2118989 17.9311834,47.2731862 18.330069,47.3321607 C18.1503386,47.6721316 17.9937992,47.9623789 17.8592913,48.2063716 L22.0823767,48.2063716 L23.1839503,48.1682116 L23.1839503,49.8241244 L22.0823767,49.7905898 L16.9768728,49.7905898 C16.7751109,50.1363425 16.5942209,50.4474044 16.4411602,50.726088 C16.2857803,51.0001462 16.1327196,51.2591716 15.984297,51.5031644 L17.6470934,51.5031644 L17.6470934,51.2811425 L17.6123069,50.2866698 L19.36091,50.2866698 L19.3203258,51.2811425 L19.3203258,51.5031644 L21.4469426,51.5031644 L22.5125701,51.4707862 L22.5125701,53.1278553 L21.4469426,53.0885389 L19.3203258,53.0885389 L19.3203258,55.8545607 C19.3203258,56.3217316 19.1417549,56.6975498 18.7846131,56.9785462 C18.4274713,57.2572298 17.7839204,57.4364662 16.8574391,57.5174116 C16.8261312,57.3878989 16.7983019,57.2792007 16.77743,57.1901607 C16.7530794,57.1045898 16.7020592,56.946168 16.6243693,56.7218335 C16.5455198,56.4986553 16.4875422,56.3460153 16.4504366,56.2662262 L16.2544724,55.8545607 C16.7785896,55.8915644 17.1090617,55.8973462 17.2482078,55.8684371 C17.3885135,55.8406844 17.4882349,55.7851789 17.5531698,55.699608 C17.6157855,55.6163498 17.6470934,55.4764298 17.6470934,55.2763789 L17.6470934,53.0885389 L14.1846736,53.0885389 C14.1765567,52.9694335 14.1730781,52.8815498 14.1695994,52.8179498 L14.1162601,52.4247862 L14.0652398,51.9946189 L13.979433,51.5505753 C14.3887546,50.9862698 14.6658873,50.5711353 14.816629,50.3028589 L15.1076763,49.7905898 L14.4432535,49.7905898 L13.3254462,49.8241244 Z M19.8073372,54.4079498 C19.8989418,54.3165971 19.9719935,54.2483716 20.0264924,54.2009607 L20.4218994,53.8760225 C20.5053871,53.804328 20.6990321,53.6146844 21.0063132,53.3105607 C21.2359043,53.5094553 21.4075179,53.6574698 21.5211539,53.7580735 L22.4093701,54.580248 C23.0703143,55.1977462 23.528337,55.6244444 23.7811191,55.8603425 C23.5364538,56.0800516 23.1375682,56.4824662 22.5821432,57.0664298 C22.3908173,56.8871935 22.0035272,56.5102189 21.4249111,55.9355062 C20.843976,55.3619498 20.3047847,54.8531498 19.8073372,54.4079498 L19.8073372,54.4079498 Z M25.4578301,55.9632589 C25.659592,55.9482262 25.8938214,55.9193171 26.1605181,55.8788444 C26.4248958,55.8349025 26.8782803,55.7042335 27.5183526,55.4856807 C28.1584248,55.267128 28.5967352,55.0774844 28.8332836,54.9213753 L29.3434861,54.6022189 C29.090704,54.3050335 28.9109735,54.0772298 28.7996566,53.9164953 L28.3926542,53.333688 L27.8372291,52.6537462 C28.0853731,52.5311716 28.3033687,52.417848 28.4923756,52.316088 C28.682542,52.214328 28.9422814,52.0397171 29.2750726,51.7957244 C29.511621,52.2490189 29.7087447,52.5982407 29.8664437,52.8399207 C30.0229831,53.0827571 30.1296618,53.2249898 30.1864798,53.2712444 L30.5076755,53.5730553 C30.8323498,53.2377098 31.074696,52.9451498 31.2370332,52.6942189 C31.3993704,52.4421316 31.5072086,52.2571135 31.5559098,52.1391644 L31.7634694,51.6592735 C31.9571145,51.8119135 32.105537,51.9194553 32.2098966,51.985368 L32.7711194,52.3114625 L33.2187062,52.5670189 C33.0470926,52.7936662 32.9207015,52.9624953 32.8395329,53.0758189 L32.1739505,54.020568 L31.6834604,54.6253462 C32.025528,54.8381171 32.3015012,54.9965389 32.5067417,55.0971425 C32.7143014,55.1989025 33.0041892,55.3156953 33.3798838,55.4486771 C33.7532593,55.5816589 34.0350302,55.6730116 34.2205584,55.7238916 C34.4084057,55.7724589 34.9128104,55.8707498 35.7349322,56.0141389 C35.3372062,56.6432007 35.0994982,57.0375207 35.0194891,57.1959425 L34.8293227,57.5636662 C34.2681,57.4237462 33.8239919,57.2977025 33.4993175,57.1901607 C33.1734837,57.086088 32.8105441,56.9403862 32.4070203,56.7530553 C32.0034965,56.5703498 31.7576717,56.4443062 31.6660671,56.3749244 L30.6178329,55.6938262 C30.2085113,55.9701971 29.8699224,56.1818116 29.6032256,56.3379207 C29.3400075,56.4928735 28.9782275,56.666328 28.5225239,56.8617535 C28.0645012,57.0537098 27.3792064,57.2734189 26.4654801,57.5127862 C26.3402486,57.2734189 26.1895069,57.0132371 26.0132551,56.7380225 C25.8381629,56.4616516 25.7280056,56.2951353 25.680464,56.2361607 L25.4578301,55.9632589 Z M25.5030526,49.9663571 L25.5030526,48.3277898 L26.7588466,48.3775135 L29.8246999,48.3960153 C29.749329,48.1601171 29.7041065,48.0213535 29.6878728,47.9843498 L29.4466862,47.457048 C30.043855,47.3367862 30.4276665,47.2384953 30.59928,47.1668007 L31.1605028,46.9447789 C31.2254377,47.1529244 31.2764579,47.3078771 31.3158827,47.406168 L31.4874963,47.8814335 L31.6475143,48.3775135 L34.3133225,48.3775135 L35.6885502,48.3277898 L35.6885502,49.9663571 L34.3307157,49.9154771 L32.8059059,49.9154771 C33.8019604,50.6058262 34.438554,51.0637462 34.7087294,51.2869244 L35.5691164,52.0015571 C35.0716689,52.4444444 34.6472732,52.8480153 34.2959292,53.2134262 C34.0779336,52.9994989 33.895884,52.8260444 33.7509401,52.6942189 C33.6059963,52.5600807 33.2175466,52.2432371 32.5821126,51.743688 C31.9478381,51.2464516 31.617366,50.9839571 31.5918559,50.9619862 L31.0236758,50.5491644 C31.3413928,50.3560516 31.6463548,50.1444371 31.9397212,49.9154771 L28.9990994,49.9154771 C29.2634771,50.0484589 29.5336525,50.1687207 29.8084661,50.2762625 C29.658884,50.4578116 29.3910277,50.7746553 29.0037376,51.2244807 C28.6164475,51.6731498 28.3219215,52.0073389 28.1271169,52.2247353 C27.9288337,52.4421316 27.5137144,52.7832589 26.8782803,53.2481171 C26.5965094,52.9463062 26.3819924,52.7312225 26.2300912,52.6028662 L25.8358438,52.2941171 L25.5274032,52.0535935 C25.7871427,51.9159862 26.0294889,51.7795353 26.2544418,51.6384589 C26.4793947,51.5008516 26.7588466,51.2869244 27.0939568,50.9978335 C27.4279076,50.7122116 27.6540201,50.4878771 27.7688156,50.3271425 L28.0772562,49.9154771 L26.7588466,49.9154771 L25.5030526,49.9663571 Z M41.791268,55.6533535 C42.3837987,55.8094625 42.9195113,55.9008153 43.4030441,55.928568 C43.8842579,55.9563207 44.4489593,55.9621025 45.0994675,55.9459135 C45.5493734,55.9378189 45.9308657,55.9274116 46.2393063,55.9089098 C46.5489065,55.8915644 47.26319,55.8349025 48.3821569,55.7400807 C48.2453299,56.0904589 48.1525658,56.3726116 48.1038646,56.5876953 C48.0574826,56.8039353 48.0319724,56.9565753 48.0273342,57.047928 L48.0041432,57.3347062 C46.8202415,57.3566771 45.8033151,57.3647716 44.9545236,57.3566771 C43.4424689,57.3508953 42.4185852,57.3057971 41.8863512,57.2248516 C41.3529577,57.1415935 40.9494339,57.0317389 40.6746202,56.895288 L40.0612177,56.5680371 C39.9383052,56.5194698 39.8385838,56.4963425 39.7620534,56.500968 C39.5533342,56.5148444 39.0906733,56.8247498 38.381028,57.4260589 C38.0227267,56.8120298 37.791976,56.4477753 37.6945737,56.3286698 L37.3942499,55.9701971 C37.9195266,55.6383207 38.2499987,55.4417389 38.3868258,55.3804516 L38.8355721,55.1734625 L38.8413698,51.9055789 L38.461037,51.9055789 L37.7838591,51.921768 L37.7838591,50.4820953 L38.461037,50.5040662 L39.5962376,50.5040662 L40.3534245,50.4820953 L40.329074,51.3054262 L40.3232762,54.9687862 C40.3882111,55.0104153 40.6038876,55.1306771 40.9656676,55.3272589 L40.9888586,54.8415862 L40.9888586,50.5618844 L40.9656676,49.5836007 L42.0196996,49.6136662 L42.9485001,49.6136662 C42.8163112,49.5408153 42.6632505,49.4552444 42.4927965,49.3557971 C42.3223424,49.2563498 42.1820368,49.174248 42.0672412,49.1094916 C42.2921941,48.9152225 42.5159875,48.7429244 42.7432595,48.5949098 L42.4162661,48.5949098 L41.2706295,48.6353825 L41.2706295,47.2061171 L42.4162661,47.2523716 L46.7947313,47.2523716 L47.4255272,48.0525753 C46.7680617,48.6006916 46.1071175,49.1210553 45.4438542,49.6136662 L46.5547042,49.6136662 L47.648161,49.5836007 L47.6330868,50.4820953 L47.648161,54.3859789 C47.648161,54.7698916 47.5971407,55.0659207 47.4939407,55.2705971 C47.3919002,55.4775862 47.1843405,55.5932225 46.8758999,55.6198189 L45.8833241,55.7863353 C45.8230274,55.5064953 45.7604117,55.2763789 45.6977959,55.0936735 C45.6351802,54.9121244 45.5389374,54.6958844 45.4137059,54.4472662 C45.5516925,54.4588298 45.6641689,54.4715498 45.7546139,54.4831135 C45.8450589,54.4946771 45.9134724,54.4958335 45.9586949,54.4877389 C46.0224703,54.4808007 46.0676927,54.4611425 46.0908838,54.4299207 C46.1129152,54.4010116 46.1245108,54.3293171 46.1245108,54.2136807 L46.1245108,54.109608 L45.0751169,54.109608 L45.0751169,54.7791425 L45.1168608,55.6776371 L43.5282757,55.6776371 L43.56886,54.7791425 L43.56886,54.109608 L42.4916369,54.109608 L42.4916369,54.8415862 L42.5125088,55.6533535 L41.791268,55.6533535 Z M42.4916369,52.8006044 L43.56886,52.8006044 L43.56886,52.4872298 L42.4916369,52.4872298 L42.4916369,52.8006044 Z M42.4916369,51.3054262 L43.56886,51.3054262 L43.56886,50.9920516 L42.4916369,50.9920516 L42.4916369,51.3054262 Z M43.4308734,48.5949098 C43.6871342,48.7625825 43.9317995,48.9059716 44.1637097,49.0297025 C44.3480784,48.8735935 44.532447,48.729048 44.713337,48.5949098 L43.4308734,48.5949098 Z M45.0751169,52.8006044 L46.1233512,52.8006044 L46.1233512,52.4872298 L45.0751169,52.4872298 L45.0751169,52.8006044 Z M45.0751169,51.3054262 L46.1233512,51.3054262 L46.1233512,50.9920516 L45.0751169,50.9920516 L45.0751169,51.3054262 Z M38.0714278,48.1150189 C38.2476796,47.9589098 38.3984213,47.8143644 38.5271314,47.6802262 C38.6546821,47.5472444 38.8309339,47.3159716 39.0524081,46.9887207 C39.6171096,47.3090335 40.2026829,47.7068225 40.80449,48.1832444 C40.636355,48.3671062 40.4960493,48.5266844 40.3789347,48.6619789 C40.2629796,48.8018989 40.0728132,49.0562989 39.8153928,49.428648 C39.1660441,48.881688 38.7172978,48.5278407 38.4726325,48.3717316 L38.0714278,48.1150189 Z M49.8478296,49.6402625 C50.1956949,49.3754553 50.4681895,49.1522771 50.6664727,48.9753535 C50.8612773,48.7984298 51.0792729,48.5706262 51.3158214,48.2942553 C51.5523698,48.0190407 51.7181856,47.787768 51.8144284,47.5992807 L52.1704106,46.948248 C52.6400288,47.0789171 53.1548695,47.1945535 53.7126137,47.2974698 L53.3612696,47.8872153 L54.8698457,47.8872153 C54.8547716,47.7311062 54.8443356,47.6385971 54.840857,47.6108444 L54.7782412,47.2465898 C55.2432212,47.2084298 55.5157157,47.1841462 55.5945652,47.1737389 C55.6722551,47.164488 55.9482283,47.1147644 56.4236443,47.0234116 C56.4723455,47.3240662 56.5233657,47.6131571 56.5778646,47.8918407 L58.4795285,47.8918407 L59.6437179,47.8571498 L59.6437179,49.0921462 L58.4795285,49.0528298 L56.4329207,49.0528298 L56.4329207,49.3731425 L58.0342609,49.3731425 L58.9792951,49.3430771 L58.9792951,50.3560516 L58.0342609,50.3213607 L56.4387185,50.3213607 L56.4329207,50.624328 L58.0841216,50.624328 L58.9792951,50.5965753 L58.9792951,51.6002989 L58.0841216,51.5737025 L56.4387185,51.5679207 L56.4329207,51.8766698 L58.9282748,51.8766698 L59.883745,51.8408225 L59.883745,53.0885389 L58.9282748,53.0526916 L55.974898,53.0526916 L55.974898,53.3787862 L59.2135244,53.3787862 L60.2466845,53.3452516 L60.2466845,54.8149898 L59.2135244,54.7745171 L57.413901,54.7745171 C57.8765619,55.0173535 58.2719689,55.2104662 58.602441,55.3550116 C58.9340726,55.4984007 59.2019289,55.5874407 59.4025313,55.6267571 L60.4751161,55.8661244 C60.1921856,56.2350044 60.0054979,56.488248 59.9162125,56.6246989 C59.8257675,56.7634625 59.7283652,56.9669825 59.6205269,57.2375716 C59.1856952,57.1265607 58.8320321,57.0271135 58.5595376,56.9357607 C58.2893622,56.844408 57.9403372,56.6894553 57.5089842,56.4709025 C57.0787907,56.2546625 56.7622333,56.0534553 56.5604713,55.8661244 L55.974898,55.3619498 L55.974898,56.3460153 L56.0108441,57.4260589 L54.4164612,57.4260589 L54.4512478,56.3460153 L54.4512478,55.407048 C53.6256473,55.9655716 52.9507885,56.3749244 52.4289905,56.640888 C51.9048734,56.9056953 51.3622034,57.1346553 50.8009807,57.3300807 C50.6084952,56.9542625 50.4647108,56.6975498 50.366149,56.5553171 C50.2710658,56.4130844 50.1261219,56.2176589 49.9336364,55.9736662 C50.3742658,55.8557171 50.7534391,55.7423935 51.0746347,55.6348516 C51.3958304,55.5249971 51.6613676,55.4093607 51.8712464,55.2890989 L52.8116424,54.7745171 L51.2648011,54.7791425 L50.1690253,54.8149898 L50.1690253,53.3452516 L51.2972686,53.3787862 L54.4512478,53.3787862 L54.4512478,53.0584735 L52.6168378,53.0526916 L51.4190214,53.0885389 L51.4596057,51.9275498 L51.4596057,50.2924516 C51.2648011,50.4878771 51.0456459,50.675208 50.8009807,50.8521316 C50.6084952,50.5711353 50.4890614,50.4011498 50.4449984,50.3410189 C50.3997759,50.2820444 50.2768635,50.1363425 50.0774207,49.9039135 L49.8478296,49.6402625 Z M52.9484694,51.8766698 L54.8466547,51.8766698 L54.8466547,51.5679207 L53.0876156,51.5737025 L52.9484694,51.5737025 L52.9484694,51.8766698 Z M52.9484694,50.624328 L54.8524525,50.624328 L54.8524525,50.3109535 L52.9484694,50.3109535 L52.9484694,50.624328 Z M52.9426717,49.3800807 L54.8524525,49.3731425 L54.8524525,49.047048 L52.9484694,49.047048 L52.9426717,49.3800807 Z M64.3294642,53.5059862 C64.7213925,53.270088 65.0089612,53.0642553 65.1933299,52.8908007 C65.378858,52.7173462 65.5980132,52.4883862 65.8519549,52.2039207 C66.1070562,51.921768 66.2705529,51.7228735 66.3436046,51.6072371 L66.5302924,51.3158335 L65.8322426,51.3158335 L64.6808082,51.3435862 L64.6808082,49.9386044 L65.7812223,49.9663571 L67.7872458,49.9663571 L67.745502,49.1846553 L69.2598758,49.1846553 L69.2366848,49.9663571 L69.5010625,49.9663571 L70.3892787,49.9386044 L70.3892787,51.3435862 L69.5010625,51.3158335 L69.2598758,51.3158335 L69.2598758,53.9003062 C69.2598758,54.3940735 69.0917409,54.7606407 68.7554711,54.9965389 C68.4192012,55.2335935 67.8730526,55.356168 67.1158657,55.368888 C67.1007915,55.2278116 67.0845578,55.0902044 67.0671646,54.9549098 C67.0520904,54.8184589 67.0242612,54.6877898 66.9906342,54.5629025 C66.9558476,54.4368589 66.8630836,54.2078989 66.714661,53.8760225 C67.1007915,53.9303716 67.3234254,53.9546553 67.3802434,53.9511862 C67.6527379,53.9511862 67.7872458,53.855208 67.7872458,53.6597825 L67.7872458,51.8651062 C67.4312636,52.4964807 67.1448545,52.9509316 66.9280184,53.2249898 C66.7088632,53.499048 66.5013036,53.7291644 66.3018608,53.9130262 C66.1047371,54.0992007 65.7835414,54.3616953 65.3394333,54.7051353 C65.2142018,54.5143353 65.094768,54.3455062 64.9834511,54.1963353 C64.8744533,54.0483207 64.6552981,53.817048 64.3294642,53.5059862 L64.3294642,53.5059862 Z M62.5414363,47.3321607 L63.8899943,47.3714771 L71.1395083,47.3714771 L72.3373247,47.3321607 L72.2921022,48.6006916 L72.2921022,55.8985025 L72.3373247,57.3566771 L70.5840833,57.3566771 L70.5840833,56.9565753 L64.1926372,56.9565753 L64.1926372,57.3242989 L62.5715846,57.3242989 L62.6063712,55.7342989 L62.5947757,48.6238189 L62.5414363,47.3321607 Z M64.2401788,55.4371135 L70.5852428,55.4371135 L70.5852428,48.9383498 L64.2401788,48.9383498 L64.2401788,55.4371135 Z" id="Fill-1" fill="#004E8F"></path>
                <path d="M29.8996069,6.66412364 L34.2745935,6.66412364 L32.1816036,23.5100291 L40.2857068,23.5100291 L38.1915573,6.66412364 L42.5630653,6.66412364 L51.5692993,31.6924582 C40.698507,29.6075345 30.6138904,30.0793309 20.8864156,31.7167418 L29.8996069,6.66412364 Z M52.5143335,34.3150909 L56.277077,44.7686182 L43.1671914,44.7686182 L43.1671914,42.7785164 L43.168351,42.7750473 L43.1671914,42.7704218 L43.1671914,41.7401018 L43.0906611,41.7401018 C42.5897349,38.4120873 39.7094098,35.8588364 36.2330754,35.8588364 C32.7555814,35.8588364 29.8764158,38.4120873 29.3754897,41.7401018 L29.2977998,41.7401018 L29.2977998,42.7750473 L29.2977998,44.7686182 L16.1902333,44.7686182 L19.9506578,34.3150909 C30.5315623,32.7250909 41.3977163,32.7933164 52.5143335,34.3150909 L52.5143335,34.3150909 Z" id="Fill-3" fill="#004E8F"></path>
                <path d="M42.8210654,0.000346909091 C59.6844182,2.178936 72.4661508,12.5653942 72.4661508,25.0483396 C72.4661508,33.8760196 66.0723856,41.6548778 56.3646232,46.2259833 C59.3713394,43.0933942 61.651017,39.2612051 62.932321,35.0000051 C55.930951,32.1021578 46.5467033,30.3294524 36.2324956,30.3294524 C25.9194475,30.3294524 16.5351998,32.1021578 9.53267022,35.0000051 C10.8151338,39.2612051 13.0936519,43.0933942 16.1015276,46.2259833 C6.39260564,41.6548778 0,33.8760196 0,25.0483396 C0,12.5653942 12.7817326,2.178936 29.6450854,0.000346909091 C18.5400638,2.68542327 10.0335963,12.0045578 8.58299781,23.510376 L63.883153,23.510376 C62.4325545,12.0045578 53.926087,2.68542327 42.8210654,0.000346909091" id="Fill-5" fill="#D3161B"></path>
            </g>
        </g>
    </g>
</svg>