<?xml version="1.0" encoding="UTF-8"?>
<svg width="185px" height="86px" viewBox="0 0 185 86" version="1.1" xmlns="http://www.w3.org/2000/svg" xmlns:xlink="http://www.w3.org/1999/xlink">
    <!-- Generator: Sketch 61 (89581) - https://sketch.com -->
    <title>logo/木棉说</title>
    <desc>Created with Sketch.</desc>
    <defs>
        <polygon id="path-1" points="0.203220112 0.161540289 14.71708 0.161540289 14.71708 10.0243535 0.203220112 10.0243535"></polygon>
    </defs>
    <g id="logo/木棉说" stroke="none" stroke-width="1" fill="none" fill-rule="evenodd">
        <g id="编组-84">
            <rect id="矩形" x="0" y="0" width="185" height="86"></rect>
        </g>
        <g id="编组" transform="translate(36.000000, 15.000000)">
            <path d="M79.550772,44.069452 C82.880812,45.866772 85.658132,44.139732 87.419892,41.607692 C88.898012,39.483612 90.341132,37.168572 91.152292,34.394892 C91.481292,33.355812 92.025892,31.121972 91.247772,30.150652 C91.036092,29.885772 90.708492,29.713292 90.214572,29.686692 C90.358772,30.521932 89.249132,33.277692 86.569812,37.177812 C84.199332,40.629092 80.910172,43.987692 79.550772,44.069452" id="Fill-1" fill="#46BCCB"></path>
            <path d="M73.20922,17.935932 C72.7909,19.187812 73.13782,20.723332 74.84162,21.003052 C77.69286,21.470932 82.56346,21.316652 82.94202,18.458412 C80.68802,18.432092 73.20922,17.935932 73.20922,17.935932" id="Fill-3" fill="#46BCCB"></path>
            <path d="M73.067568,23.23132 C72.517088,24.30288 72.715048,25.56792 73.894688,25.98764 C75.629848,26.60588 79.260608,26.28808 81.232088,25.64716 C82.430208,25.25796 82.897808,24.3068 82.902008,23.48248 C80.308368,23.52308 74.728528,23.29964 73.067568,23.23132" id="Fill-5" fill="#46BCCB"></path>
            <path d="M80.201268,35.129948 C79.975588,36.838788 79.517788,38.269028 77.848428,38.342388 C77.239708,38.361428 76.610548,37.974748 76.306188,37.258508 C75.895428,36.290828 75.778108,34.647228 75.909148,33.410188 C76.011908,32.438308 76.193628,31.735508 76.690068,31.324188 C77.339668,30.786028 78.594908,30.871988 79.234148,31.113628 C80.644788,31.647308 80.384948,33.739188 80.201268,35.129948 M73.248868,30.923788 C72.514148,33.258988 72.518908,37.832508 74.317908,40.232388 C75.285868,41.523468 76.936188,41.937308 78.414588,41.721988 C82.446308,41.133988 83.744948,36.899828 83.542508,32.972548 C83.362188,29.480668 81.407508,27.817748 78.307628,27.762868 C75.915868,27.720868 73.980788,28.595588 73.248868,30.923788" id="Fill-7" fill="#46BCCB"></path>
            <path d="M94.771656,18.574136 C95.045776,18.968376 95.762296,19.184536 96.836096,19.731096 C97.989696,20.317976 98.621936,21.027776 98.650776,22.076096 C98.690256,23.482816 97.908776,24.504816 96.793816,25.022536 C94.872176,25.915456 91.958496,25.507776 90.535256,24.405976 C89.523616,23.622536 88.953536,22.372336 89.225416,20.932856 C89.445216,19.768616 90.356056,19.049016 91.742056,18.777136 C92.810536,18.567416 94.145016,18.821376 94.771656,18.574136 M95.512256,16.021656 C93.166696,16.155496 90.879936,15.302056 88.594296,16.362136 C84.692216,18.172336 84.664496,24.118976 87.770816,26.746216 C89.454736,28.170576 92.417416,28.828856 95.107936,28.724416 C99.157856,28.567056 102.515616,26.512416 102.287136,21.832216 C102.198936,20.030136 101.119536,18.603536 99.298976,17.721816 C98.058856,17.120936 95.880456,16.536576 95.512256,16.021656" id="Fill-9" fill="#46BCCB"></path>
            <path d="M98.814996,8.551004 C98.814996,8.551004 97.823516,10.128524 97.504036,11.722284 C96.958316,14.447244 98.667716,15.315244 100.941316,15.839684 C102.689636,16.243444 105.928396,16.291044 106.727516,15.451044 C105.744996,14.130004 104.055196,13.904044 102.500636,13.275444 C101.735116,12.966324 100.766596,12.758844 100.356396,12.079564 C99.659756,10.925684 99.684116,8.890924 98.814996,8.551004" id="Fill-11" fill="#46BCCB"></path>
            <path d="M74.849824,6.158572 C74.176424,6.543012 73.711904,8.741012 75.795664,9.441572 C77.350784,9.964332 80.248504,10.219692 81.994864,9.683492 C83.236664,9.302412 83.661984,8.643292 83.833064,7.617372 C79.527784,7.112812 75.692904,6.456772 74.849824,6.158572" id="Fill-13" fill="#46BCCB"></path>
            <path d="M72.69542,11.621568 C71.98086,12.144608 71.48778,14.137648 72.63214,14.944048 C74.1041,15.981168 79.15418,16.048928 80.9095,15.933568 C83.60198,15.756608 84.8659,14.912408 85.13414,13.413568 C81.7775,13.120408 73.9081,12.038208 72.69542,11.621568" id="Fill-15" fill="#46BCCB"></path>
            <path d="M93.769256,8.137696 C93.769256,8.137696 93.355696,10.239376 91.347256,10.318896 C89.065256,10.409056 86.886856,10.572016 84.651896,10.919496 C84.651896,10.919496 83.736296,12.021016 87.756256,12.858216 C91.776496,13.695136 94.454416,13.644456 94.953936,12.670056 C95.453736,11.695936 93.937256,8.310736 93.769256,8.137696" id="Fill-17" fill="#46BCCB"></path>
            <path d="M36.72732,10.5791 C35.82264,10.81542 32.2588,11.12622 31.10324,11.38046 C30.8938,13.55718 31.115,14.72758 34.18688,14.35994 C36.52292,14.08078 38.66856,13.9041 38.87352,16.79034 C39.34364,23.41234 39.43408,42.72114 44.56816,43.99962 C43.66908,34.3063 42.51772,25.68174 42.74396,16.0111 C42.77588,14.63798 43.2334,13.36118 44.82072,12.98822 C46.71688,12.54218 47.7932,12.06954 47.90212,9.76514 C47.00668,9.80882 45.61396,9.85978 44.89688,9.88582 C43.47952,9.93734 42.76888,9.89394 42.6314,7.85358 C42.49784,5.87566 42.52752,4.1097 42.00868,3.08154 C41.1866,1.45306 39.63092,2.11946 38.9116,2.2575 C38.79596,3.63398 38.8108,5.93614 38.829,7.7973 C38.84804,9.73854 38.63888,10.08014 36.72732,10.5791" id="Fill-19" fill="#46BCCB"></path>
            <path d="M35.137284,17.223612 C36.903244,17.707172 37.635164,20.568492 37.504404,23.205532 C37.244844,28.433132 33.870004,36.848812 30.630404,38.789492 C32.671604,33.667172 34.769644,21.509572 35.137284,17.223612" id="Fill-21" fill="#46BCCB"></path>
            <path d="M45.368624,31.197908 C46.829384,30.983148 47.869864,29.585668 47.778584,27.326628 C47.617864,23.331028 46.618544,18.797548 45.729544,14.829108 C43.612184,15.209068 45.209584,28.535388 45.368624,31.197908" id="Fill-23" fill="#46BCCB"></path>
            <path d="M34.77278,39.468324 C33.05526,39.252444 29.95006,37.164204 27.92454,35.021084 C22.32426,29.095164 19.19554,23.110444 17.81598,20.279364 C18.04306,24.736964 20.00894,29.988924 22.42954,34.195084 C24.04514,37.002364 26.04518,39.339804 27.6325,40.552204 C29.58998,42.048244 33.52314,42.963844 34.77278,39.468324" id="Fill-25" fill="#46BCCB"></path>
            <path d="M0,40.261816 C3.33256,37.449216 7.2352,26.010936 7.87472,22.213296 C9.94448,23.014656 10.0926,25.467176 10.02988,27.250776 C9.8728,31.725456 4.795,40.922896 0,40.261816" id="Fill-27" fill="#46BCCB"></path>
            <path d="M12.311936,7.915124 C12.365696,8.443764 12.070576,10.077844 11.903976,12.534844 C11.762296,14.624484 11.065376,15.152004 8.967616,15.686524 C6.776616,16.244564 1.661296,17.714564 0.741216,18.218564 C0.100856,18.951884 0.076216,20.456604 1.364776,20.743044 C2.737616,21.048244 7.187936,19.490324 9.311736,19.281444 C11.662336,19.050444 11.650576,20.189204 11.924696,22.187004 C12.280016,26.015444 12.344696,28.553364 12.729696,32.457124 C13.040496,35.607124 14.014896,44.789724 18.425736,45.367364 C17.973816,44.855524 15.464176,29.481284 15.578976,20.679484 C15.626576,18.704644 16.840936,17.392004 18.496296,16.899204 C20.886656,16.187724 25.868136,15.741124 27.335896,14.100604 C28.175896,13.161484 27.702136,12.115124 27.727616,11.815804 C24.270176,12.253444 20.036296,13.031844 17.660776,13.379044 C15.744456,13.659044 16.112656,12.005084 16.105936,10.467884 C16.100336,9.098404 15.753416,7.249004 13.773816,7.473004 C12.803896,7.582764 13.163976,7.560924 12.311936,7.915124" id="Fill-29" fill="#46BCCB"></path>
            <path d="M62.380276,14.14294 C60.487756,15.0969 56.887236,15.03502 54.991636,13.9153 C53.463116,13.0123 52.877356,11.17298 53.026876,9.33534 C53.304636,5.92718 56.014476,5.50886 58.899876,5.62366 C61.870396,5.74238 64.847636,6.43874 64.493436,10.3831 C64.329916,12.2045 63.693196,13.4813 62.380276,14.14294 M50.018276,28.8715 C49.678916,31.65834 49.303996,37.72314 47.260276,39.61118 C47.479236,39.8937 49.122836,39.82314 50.274756,39.08114 C53.532836,36.98226 52.927756,29.41498 53.897676,26.2255 C54.471956,24.33662 56.984676,23.56466 57.150436,26.03398 C57.572116,32.31438 56.803516,44.5711 56.804076,45.2035594 C61.804316,45.26522 60.920916,32.22198 60.902996,25.77722 C60.900756,24.9711 61.190836,24.22042 61.930596,24.09834 C63.207956,23.8875 64.038436,24.81318 64.471316,25.63862 C66.047156,28.64386 65.734956,40.4411 64.695036,41.34858 C66.244556,41.60338 66.982636,41.28334 67.875276,39.98722 C69.256516,37.98242 69.114556,28.20174 67.433716,24.58274 C66.369436,22.2915 64.360436,21.45542 62.324276,20.8285 C61.095636,20.45022 60.824036,19.94734 60.859596,19.28122 C60.886756,18.77162 61.104596,18.43478 61.678596,18.05342 C62.379716,17.58806 63.460796,17.31926 64.226316,16.93398 C66.415076,15.83218 68.019196,13.8061 68.177676,10.50546 C68.289676,8.17754 67.669476,5.96582 66.000116,4.4583 C63.910756,2.57222 60.951436,2.41206 58.252236,2.44286 C56.037436,2.46806 57.014636,0.63994 57.861356,0.00014 C54.487916,0.75026 51.685396,3.06222 50.527036,5.53322 C49.150276,8.46958 49.061236,13.07866 51.434796,15.5953 C52.512516,16.73798 53.413276,17.2137 54.975676,17.73394 C55.830796,18.0187 56.908796,18.24298 56.807156,19.38342 C56.692636,20.66638 54.611396,21.06874 53.595556,21.5593 C50.968316,22.82854 50.408596,25.66438 50.018276,28.8715" id="Fill-31" fill="#46BCCB"></path>
            <path d="M56.32718,9.357908 C55.97662,10.165148 56.34874,11.187148 57.15962,11.606028 C57.72214,11.896948 58.91746,11.976188 59.66646,11.785788 C60.4765,11.580268 60.99254,11.071788 61.07318,10.342948 C61.24846,8.766548 59.9389,8.280468 58.56718,8.246588 C57.64626,8.223628 56.69286,8.515388 56.32718,9.357908" id="Fill-33" fill="#46BCCB"></path>
            <path d="M96.457676,33.513648 C96.383196,34.114808 96.249636,34.978888 96.154156,35.884688 C95.917276,38.124968 96.319356,39.939088 98.487676,41.041728 C99.853516,41.736128 101.289076,41.718208 102.756836,41.270768 C104.384476,40.774888 105.362796,39.205208 105.802396,37.731008 C105.946876,37.246048 107.036636,38.113208 107.218636,37.630208 C106.606836,39.662168 106.236956,40.853848 105.266756,42.258328 C104.480236,43.397088 103.398876,44.274328 101.855796,44.649808 C100.146676,45.065888 97.860196,44.836848 96.335876,44.102408 C94.755836,43.341928 93.473996,42.007168 93.159276,39.818968 C92.916796,38.135328 93.077516,37.043328 93.525796,35.109088 C93.777236,34.024648 94.310636,30.794288 93.896236,30.685368 C94.269476,30.318008 94.921876,30.181368 95.507636,30.349088 C96.863956,30.737168 96.580036,32.520208 96.457676,33.513648" id="Fill-35" fill="#46BCCB"></path>
            <path d="M95.412072,56.075264 C95.559632,56.075264 95.654272,56.022904 95.686192,55.906704 C95.306512,55.558944 94.652992,55.073984 94.652992,55.073984 L94.094392,55.769504 L91.005712,55.769504 C91.058352,55.493984 91.089992,55.207264 91.121632,54.912704 C91.353752,54.880224 91.459032,54.773824 91.480032,54.625984 L90.193992,54.511744 C90.172992,54.968984 90.141352,55.390664 90.057072,55.769504 L86.030112,55.769504 L86.125032,56.075264 L89.983152,56.075264 C89.624752,57.245664 88.676112,58.088744 85.935192,58.816184 L86.009112,59.016384 C89.582752,58.373784 90.573672,57.424864 90.931792,56.075264 L91.089992,56.075264 C91.764792,57.783264 93.050832,58.542344 95.106312,58.963744 C95.190592,58.563624 95.422432,58.278584 95.770472,58.183944 L95.780832,58.068024 C93.725352,57.877624 92.133552,57.371944 91.332472,56.075264 L95.412072,56.075264 Z M86.262232,54.062344 L90.341832,54.062344 L90.341832,52.807664 L87.347792,52.807664 L87.263512,52.501904 L90.341832,52.501904 L90.341832,51.310224 L86.799832,51.310224 L86.715272,51.005304 L91.595952,51.005304 C91.870352,50.478064 92.175832,49.771904 92.355032,49.244384 L93.556792,49.645064 C93.514512,49.771904 93.387952,49.845824 93.166472,49.824544 C92.860992,50.182664 92.376032,50.625624 91.912352,51.005304 L93.641072,51.005304 L94.189312,50.319864 C94.189312,50.319864 94.800552,50.794184 95.190592,51.142504 C95.169592,51.258424 95.064312,51.310224 94.905832,51.310224 L91.216552,51.310224 L91.216552,52.501904 L93.156112,52.501904 L93.672712,51.858744 C93.672712,51.858744 94.273592,52.312344 94.631992,52.639384 C94.600352,52.755304 94.495072,52.807664 94.357872,52.807664 L91.216552,52.807664 L91.216552,54.062344 L93.946832,54.062344 L94.495072,53.376904 C94.495072,53.376904 95.127312,53.851224 95.506992,54.198984 C95.475352,54.314904 95.369792,54.367264 95.222232,54.367264 L86.356872,54.367264 L86.262232,54.062344 Z M88.328352,49.402864 C88.686472,49.760984 89.076512,50.362144 89.150432,50.878184 C89.951512,51.458624 90.678952,49.824544 88.433632,49.328944 L88.328352,49.402864 Z M82.401872,55.242264 L82.401872,55.790784 L82.538792,55.790784 C82.823552,55.790784 83.245232,55.611584 83.255872,55.548584 L83.255872,52.143784 C83.466712,52.101784 83.624632,52.006584 83.687912,51.922304 L82.739272,51.205224 L82.306952,51.680104 L80.219832,51.680104 L80.219832,50.457344 L84.194152,50.457344 C84.341432,50.457344 84.457352,50.404144 84.467992,50.288224 C84.067312,49.940464 83.392792,49.434504 83.392792,49.434504 L82.802552,50.161944 L75.086312,50.161944 L75.181232,50.457344 L79.365832,50.457344 L79.365832,51.680104 L77.299712,51.680104 L76.403992,51.300424 L76.403992,55.854344 L76.541192,55.854344 C76.888952,55.854344 77.236712,55.664504 77.236712,55.579664 L77.236712,55.242264 L79.249912,55.242264 C79.144632,55.801144 78.955072,56.296744 78.628312,56.729344 C78.174712,56.433944 77.784952,56.075264 77.489552,55.643224 L77.342272,55.769504 C77.616112,56.276024 77.964152,56.697704 78.353912,57.055824 C77.690032,57.772624 76.614832,58.352504 74.928112,58.879744 L75.001752,59.048024 C76.857032,58.679544 78.080072,58.141384 78.860152,57.467144 C80.124912,58.362864 81.853912,58.784544 83.951392,58.995664 C84.025312,58.594704 84.257152,58.320864 84.626192,58.215304 L84.626192,58.088744 C82.549432,58.025464 80.652152,57.761704 79.249912,57.087464 C79.714152,56.549864 79.977352,55.928264 80.103912,55.242264 L82.401872,55.242264 Z M80.156832,54.937344 C80.198832,54.578384 80.219832,54.198984 80.219832,53.808944 L80.219832,53.587464 L82.401872,53.587464 L82.401872,54.937344 L80.156832,54.937344 Z M80.219832,53.292624 L82.401872,53.292624 L82.401872,51.985584 L80.219832,51.985584 L80.219832,53.292624 Z M77.236712,53.292624 L79.365832,53.292624 L79.365832,51.985584 L77.236712,51.985584 L77.236712,53.292624 Z M77.236712,54.937344 L77.236712,53.587464 L79.365832,53.587464 L79.365832,53.840864 C79.365832,54.230624 79.344832,54.599384 79.302832,54.937344 L77.236712,54.937344 Z M72.195872,58.331224 L70.635712,58.331224 L70.635712,55.200824 L72.881032,55.200824 C73.028592,55.200824 73.134152,55.147624 73.165792,55.031704 C72.807392,54.673584 72.216872,54.198984 72.216872,54.198984 L71.689632,54.895064 L70.635712,54.895064 L70.635712,52.333624 L73.155152,52.333624 C73.302712,52.333624 73.397632,52.280424 73.428992,52.164504 C73.070872,51.816744 72.459352,51.321144 72.459352,51.321144 L71.932392,52.027864 L70.635712,52.027864 L70.635712,49.760984 C70.878192,49.729904 70.952112,49.634704 70.973112,49.487144 L69.792352,49.360864 L69.792352,52.027864 L68.432952,52.027864 C68.611872,51.542904 68.770072,51.036944 68.896352,50.509704 C69.128472,50.509704 69.233752,50.415064 69.275752,50.277864 L68.094992,49.993384 C67.916072,51.563624 67.473392,53.187344 66.935792,54.272904 L67.093712,54.367264 C67.578952,53.829664 67.979072,53.123784 68.306112,52.333624 L69.792352,52.333624 L69.792352,54.895064 L67.673872,54.895064 L67.757872,55.200824 L69.792352,55.200824 L69.792352,58.331224 L66.872512,58.331224 L66.956792,58.636704 L73.450272,58.636704 C73.597832,58.636704 73.703392,58.584344 73.724392,58.468424 C73.365992,58.110304 72.743832,57.614704 72.743832,57.614704 L72.195872,58.331224 Z M66.271632,51.142504 L66.408552,51.078944 C68.116552,52.016944 67.368112,53.292624 66.777592,52.713024 C66.777592,52.206784 66.524472,51.542904 66.271632,51.142504 L66.271632,51.142504 Z M65.322992,49.270984 L65.322992,59.006024 L65.491832,59.006024 C65.807952,59.006024 66.145352,58.826544 66.145352,58.721544 L66.145352,49.708624 C66.419192,49.666344 66.493112,49.559384 66.524472,49.409864 L65.322992,49.270984 Z M64.563912,51.405424 C64.595552,52.164504 64.279432,52.997504 63.994672,53.334904 C63.804832,53.514384 63.699552,53.777304 63.847392,53.978064 C64.015672,54.209904 64.416352,54.104344 64.606192,53.829664 C64.890672,53.429544 65.059512,52.554544 64.753752,51.416344 L64.563912,51.405424 Z M60.777472,52.069864 L56.676872,52.069864 C57.056552,51.205224 57.404312,50.393784 57.615152,49.814184 C57.920912,49.824544 58.015552,49.729904 58.057832,49.603064 L56.824712,49.265664 C56.624232,49.908824 56.213192,50.973384 55.738872,52.069864 L52.681832,52.069864 L52.776472,52.375624 L55.612312,52.375624 C55.127352,53.503184 54.600392,54.620664 54.210352,55.316744 C55.169352,55.632864 56.308112,56.075264 57.393672,56.592144 C56.339752,57.635424 54.842592,58.342144 52.692192,58.858184 L52.745112,59.027304 C55.274912,58.636704 56.940632,57.983184 58.100112,56.950264 C59.280592,57.551144 60.345432,58.226224 60.988312,58.890104 C61.915952,59.227504 62.474552,57.877624 58.648072,56.381584 C59.512712,55.358184 60.029032,54.040784 60.450712,52.375624 L62.190072,52.375624 C62.337632,52.375624 62.453552,52.322704 62.474552,52.206784 C62.052872,51.827104 61.367712,51.300424 61.367712,51.300424 L60.777472,52.069864 Z M59.470432,52.375624 C59.133032,53.924864 58.648072,55.126904 57.857352,56.086184 C57.098552,55.833064 56.202552,55.569304 55.137992,55.305824 C55.580672,54.473384 56.086632,53.397624 56.539952,52.375624 L59.470432,52.375624 Z M49.865312,58.099384 L50.413272,57.371944 C50.413272,57.371944 51.035152,57.877624 51.414832,58.246944 C51.382912,58.362864 51.277632,58.415224 51.130072,58.415224 L44.415392,58.415224 L44.330832,58.099384 L47.018832,58.099384 L47.018832,49.386904 L48.262872,49.525784 C48.231232,49.675304 48.146952,49.781704 47.883472,49.824544 L47.883472,52.860304 L49.538552,52.860304 L50.075872,52.154144 C50.075872,52.154144 50.676752,52.649744 51.045792,52.997504 C51.014152,53.113424 50.908872,53.165784 50.750672,53.165784 L47.883472,53.165784 L47.883472,58.099384 L49.865312,58.099384 Z M45.406312,55.780424 L45.490312,55.896344 C45.111192,56.328384 44.383752,57.151024 43.519112,58.004744 C43.456112,58.226224 43.329552,58.362864 43.224272,58.426144 L42.644392,57.445864 C42.992152,57.245664 43.055432,57.171744 43.055432,56.971544 L43.055432,52.459904 L41.822032,52.459904 L41.727392,52.154144 L43.055432,52.154144 L43.055432,52.143784 L43.066072,52.143784 L43.466472,51.722104 L44.257192,52.375624 C44.204552,52.449544 44.077992,52.533824 43.867152,52.575824 L43.867152,56.792344 C44.330832,56.507864 44.868432,56.138824 45.406312,55.780424 L45.406312,55.780424 Z M42.422912,49.397264 C42.918232,49.877464 43.572032,50.656704 43.793232,51.268784 C44.678872,51.785104 45.216472,50.024744 42.528472,49.313264 L42.422912,49.397264 Z M37.487352,55.527304 C38.246432,56.370664 39.163712,57.709344 39.406192,58.752904 C40.407472,59.511704 41.039992,57.235304 37.614192,55.453384 L37.487352,55.527304 Z M33.439672,59.027304 L33.313112,58.921744 C34.082832,58.099384 34.978832,56.718424 35.558432,55.305824 L36.749832,55.864704 C36.686552,55.980624 36.549352,56.064904 36.317512,56.022904 C35.537432,57.298024 34.483232,58.362864 33.439672,59.027304 L33.439672,59.027304 Z M34.293672,55.632864 L34.388592,55.748784 C34.008912,56.212464 33.281472,57.097824 32.417392,58.025464 C32.353832,58.257304 32.216912,58.404864 32.111352,58.468424 L31.521112,57.477504 C31.890152,57.266944 31.953432,57.203384 31.953432,57.002904 L31.953432,52.438624 L30.614752,52.438624 L30.519832,52.122504 L31.963792,52.122504 L32.364472,51.711184 L33.165552,52.364704 C33.123552,52.438624 32.986352,52.522624 32.765152,52.565464 L32.765152,56.760424 C33.228832,56.433944 33.755792,56.044184 34.293672,55.632864 L34.293672,55.632864 Z M31.088792,49.434504 C31.542392,49.919744 32.132632,50.709904 32.311832,51.321144 C33.133912,51.869384 33.745432,50.193584 31.215632,49.360864 L31.088792,49.434504 Z M35.315952,54.620664 L38.467912,54.620664 L38.467912,55.221544 L38.604832,55.221544 C39.026792,55.221544 39.332272,55.053264 39.332272,54.989704 L39.332272,50.635984 C39.564112,50.593984 39.680312,50.520064 39.753952,50.435784 L38.857952,49.740264 L38.425912,50.256584 L35.442512,50.256584 L34.483232,49.866544 L34.483232,55.358184 L34.620432,55.358184 C35.052472,55.358184 35.315952,55.189904 35.315952,55.126904 L35.315952,54.620664 Z M35.315952,54.314904 L38.467912,54.314904 L38.467912,50.562344 L35.315952,50.562344 L35.315952,54.314904 Z M28.230272,50.172304 L29.168552,50.921024 C29.104992,51.005304 28.947072,51.089304 28.736232,51.142504 L28.736232,58.215304 C28.725592,58.299864 28.314552,58.510424 28.008792,58.510424 L27.892872,58.510424 L27.892872,57.646344 L25.731832,57.646344 L25.731832,58.352504 C25.731832,58.458064 25.426072,58.658264 25.046672,58.658264 L24.899112,58.658264 L24.899112,50.277864 L25.784752,50.678264 L27.787312,50.678264 L28.230272,50.172304 Z M25.731832,57.340024 L27.892872,57.340024 L27.892872,50.983744 L25.731832,50.983744 L25.731832,57.340024 Z M23.265312,53.777304 L22.506232,53.777304 C22.516872,53.587464 22.516872,53.397624 22.516872,53.218984 L22.516872,51.479344 L24.182312,51.479344 C24.329872,51.479344 24.435432,51.426144 24.456432,51.321144 C24.076752,50.963024 23.486512,50.520064 23.486512,50.520064 L22.948912,51.184504 L21.135912,51.184504 C21.346752,50.772904 21.525952,50.330224 21.673512,49.866544 C21.905352,49.866544 22.021552,49.771904 22.063552,49.634704 L20.798512,49.308224 C20.577032,50.751904 20.071072,52.175424 19.502112,53.103064 L19.649672,53.208064 C20.155632,52.755304 20.608952,52.164504 20.988352,51.479344 L21.694512,51.479344 L21.694512,53.229344 C21.694512,53.408824 21.694512,53.587464 21.684152,53.777304 L19.523112,53.777304 L19.607392,54.093984 L21.673512,54.093984 C21.567952,55.717144 21.114912,57.435224 19.470472,58.868824 L19.596752,58.995664 C21.188552,58.068024 21.926352,56.813624 22.253112,55.548584 C22.780352,56.170464 23.370592,56.992264 23.549792,57.656144 C24.414432,58.288944 25.025672,56.539504 22.316392,55.274184 C22.411312,54.873784 22.453592,54.473384 22.485232,54.093984 L24.477432,54.093984 C24.614352,54.093984 24.719912,54.040784 24.751552,53.924864 C24.393152,53.577104 23.792272,53.103064 23.792272,53.103064 L23.265312,53.777304 Z" id="Fill-37" fill="#46BCCB"></path>
            <path d="M102.942812,23.9253 C103.301492,23.78278 103.671932,23.63522 103.695732,23.46134 L103.696012,23.46134 C103.697132,23.45294 103.698532,23.44482 103.700212,23.43642 C103.744452,23.22082 103.955292,23.08166 104.171172,23.1259 C104.606852,23.21634 105.148372,23.36194 105.698852,23.54982 C106.172052,23.71138 106.650292,23.90262 107.071692,24.11542 C109.724972,25.45354 109.042332,28.4725 108.410652,31.2669 C108.106012,32.6137 107.814252,33.90422 107.954252,34.82962 C108.013612,35.22246 107.245012,36.11146 106.343132,36.60062 C106.062852,36.75266 105.765212,36.87502 105.472892,36.94222 C105.154252,37.0153 104.841212,37.02202 104.558412,36.93242 C104.038452,36.76722 103.656532,36.3181 103.572812,35.43218 C103.530252,34.97942 103.510652,34.75794 103.492452,34.5485 C103.317172,32.54258 103.185012,31.03142 102.241132,29.28338 C101.796212,28.45906 101.378732,27.60534 101.249372,26.78494 C101.107692,25.88838 101.296972,25.04922 102.115412,24.3551 C102.339132,24.16526 102.638172,24.04654 102.942812,23.9253 M104.332732,23.98018 C104.102852,24.32234 103.664932,24.4965 103.237652,24.66618 C102.993772,24.76334 102.754372,24.85854 102.630612,24.96354 C102.068092,25.44038 101.939852,26.0281 102.039532,26.6609 C102.151532,27.36958 102.534012,28.14798 102.942812,28.90538 C103.967612,30.80294 104.105652,32.38298 104.289052,34.47962 C104.320132,34.83746 104.352052,35.20258 104.366892,35.35938 C104.414492,35.8631 104.579412,36.10166 104.796972,36.1711 C104.936132,36.21562 105.108612,36.20778 105.295652,36.16466 C105.508725,36.11538 105.737772,36.01962 105.961772,35.89838 C106.608572,35.54782 107.185092,35.07854 107.165212,34.94778 C107.003092,33.8737 107.310812,32.51234 107.631972,31.09162 C108.197572,28.58954 108.808532,25.8867 106.714132,24.82998 C106.317092,24.63006 105.874972,24.45254 105.441812,24.30442 C105.053732,24.17226 104.671532,24.0625 104.332732,23.98018" id="Fill-39" fill="#FEFEFE"></path>
            <path d="M104.090952,23.51664 C104.001632,24.1584 102.841312,24.262 102.372872,24.65932 C100.992192,25.83028 101.738112,27.51252 102.591832,29.09424 C103.712392,31.1696 103.732552,32.88488 103.969712,35.39564 C104.226192,38.10912 107.647792,35.46928 107.560152,34.88884 C107.119152,31.97488 110.507152,26.29592 106.892912,24.47284 C106.001952,24.02344 104.870752,23.67876 104.090952,23.51664" id="Fill-41" fill="#D16C96"></path>
            <path d="M113.577604,26.489596 C113.234044,26.183836 112.882364,25.870516 112.782964,25.470116 C112.436884,25.431756 112.039844,25.404036 111.630204,25.395636 C111.172684,25.386676 110.696404,25.402076 110.254844,25.454436 C107.925244,25.731076 107.574964,28.479556 107.250724,31.023916 C107.066484,32.469276 106.890084,33.853876 106.370124,34.807836 C106.306844,34.923756 106.688204,35.561876 107.175964,36.112076 C107.345084,36.303036 107.527644,36.471316 107.711044,36.590596 C107.872044,36.695036 108.031084,36.761396 108.177244,36.767276 C108.405444,36.776516 108.642044,36.608796 108.859044,36.151556 C108.921204,36.020236 109.081364,35.677236 109.233124,35.351316 C110.122404,33.443956 110.792444,32.006716 112.404684,30.573676 C113.047844,30.001916 113.673644,29.401316 114.021124,28.773556 C114.331084,28.212996 114.411724,27.616876 114.046324,26.976516 C113.965964,26.835396 113.773604,26.664036 113.577604,26.489596 L113.577604,26.489596 Z M113.559124,25.200476 C113.522164,25.372116 113.819804,25.637276 114.108204,25.894036 C114.352924,26.111876 114.593164,26.326076 114.738484,26.580876 C115.270204,27.512996 115.160724,28.366156 114.721404,29.160516 C114.319044,29.887116 113.634724,30.546516 112.934724,31.168956 C111.449604,32.488876 110.808684,33.863956 109.958044,35.688716 C109.869284,35.879116 109.780804,36.068956 109.580604,36.491476 C109.198404,37.295356 108.686004,37.586836 108.141404,37.564156 C107.844324,37.551836 107.552564,37.438436 107.278444,37.260636 C107.026724,37.097396 106.789004,36.880396 106.577604,36.642116 C105.896924,35.874076 105.478884,34.775356 105.669004,34.427036 C106.116724,33.604676 106.284444,32.292596 106.458884,30.922836 C106.820924,28.080836 107.212364,25.010636 110.163004,24.660356 C110.631724,24.604916 111.146644,24.588396 111.646724,24.598476 C112.228284,24.610516 112.786884,24.658676 113.227324,24.722516 C113.444884,24.754996 113.595524,24.957716 113.563324,25.175836 C113.561924,25.183956 113.560244,25.192356 113.558844,25.200476 L113.559124,25.200476 Z" id="Fill-43" fill="#FEFEFE"></path>
            <path d="M113.168804,25.117204 C113.033564,25.750844 114.088044,26.245044 114.392404,26.778724 C115.289524,28.351204 114.013284,29.677004 112.669844,30.871484 C110.906964,32.438084 110.301604,34.043044 109.219684,36.321684 C108.050964,38.783724 105.738444,35.132804 106.019564,34.617324 C107.430204,32.029564 106.188964,25.534404 110.208924,25.057564 C111.199844,24.939684 112.380884,25.002684 113.168804,25.117204" id="Fill-45" fill="#D16C96"></path>
            <path d="M95.7432,26.245828 C95.4926,26.337108 95.26748,26.419428 95.05132,26.476548 C95.3638,27.146588 95.87424,27.569108 96.48772,27.826988 C97.26864,28.155708 98.224,28.232428 99.16732,28.210588 C102.87816,28.123228 103.59244,31.291148 103.65544,33.969348 C103.67112,34.639948 103.64732,35.258468 103.61988,35.782628 L104.6108,35.953988 C104.56152,33.428388 104.12612,30.686628 103.10356,28.656628 C102.25292,26.967388 100.99012,25.783548 99.19812,25.683308 C97.5408,25.590628 96.50816,25.966948 95.7432,26.245828 L95.7432,26.245828 Z M94.5,25.760308 C94.75928,25.754708 95.07764,25.638508 95.46908,25.495708 C96.30124,25.192468 97.42432,24.782828 99.24348,24.884748 C101.36896,25.003748 102.84316,26.361468 103.81812,28.296828 C104.91908,30.481948 105.37492,33.420548 105.4116,36.092588 L105.41552,36.092868 C105.50064,36.108268 105.58184,36.150828 105.64372,36.220548 C105.79016,36.384908 105.7756,36.636908 105.61124,36.783068 L105.294,37.065308 C105.22064,37.138388 105.11872,37.182908 105.00728,37.1812739 C104.78692,37.178428 104.61052,36.997268 104.61332,36.776908 L104.6136,36.763468 L103.1324,36.507548 C102.93164,36.472268 102.79248,36.291948 102.8034,36.093428 L102.802,36.093428 L102.802,36.092868 L102.80284,36.080828 C102.83532,35.491988 102.87648,34.746628 102.85856,33.987548 C102.80424,31.673628 102.2168,28.936068 99.18524,29.007468 C98.14532,29.031828 97.08048,28.942228 96.18028,28.563388 C95.23472,28.165788 94.479,27.463828 94.12508,26.273548 C94.06236,26.062708 94.18248,25.840668 94.3936,25.777948 C94.42888,25.767588 94.46472,25.761988 94.5,25.761428 L94.5,25.760308 Z" id="Fill-47" fill="#FEFEFE"></path>
            <path d="M94.506972,26.16012 C95.441612,26.1394 96.553772,25.13476 99.220772,25.284 C103.681732,25.53376 105.079772,31.8038 105.012572,36.78276 L105.346052,36.48568 L103.201532,36.11496 C103.336492,33.67504 103.623212,28.50428 99.176252,28.609 C97.193292,28.65548 95.136412,28.2758 94.506972,26.16012" id="Fill-49" fill="#D16C96"></path>
            <path d="M104.004824,37.760408 C103.958904,37.509528 103.930064,37.081688 103.901504,36.364888 C103.892264,36.134728 103.881624,35.826728 103.870704,35.522648 C103.814144,33.869528 103.762624,32.367048 103.344024,30.753408 C103.182184,30.132088 103.217744,29.656368 103.389104,29.295448 C103.573904,28.904848 103.899824,28.665448 104.302744,28.533008 C105.211904,28.235088 106.109584,28.498288 106.964424,28.748608 C107.292024,28.844648 107.612904,28.939008 107.896544,28.989408 C108.141264,29.033088 108.431624,29.054928 108.731224,29.077608 C109.611264,29.144528 110.566344,29.216208 111.236104,29.861328 C111.690824,30.298408 111.773144,30.816128 111.599544,31.472448 C111.453944,32.022648 111.117664,32.670848 110.673584,33.476968 C110.585664,33.637128 110.527704,33.818008 110.466944,34.008408 C110.377624,34.288968 110.282704,34.586328 110.086424,34.912808 L110.085024,34.911968 L110.084744,34.912528 C109.732224,35.499688 109.425064,36.096928 109.192944,36.686328 C108.990224,37.201528 108.845464,37.708888 108.779944,38.196368 C108.767624,38.350088 108.665704,38.489808 108.510304,38.542448 C108.301424,38.613568 108.074344,38.501848 108.003224,38.292968 C107.578464,37.054528 107.322824,36.736728 106.975904,36.855448 C106.714104,36.945608 106.362704,37.186408 105.911064,37.496368 C105.592424,37.715048 105.226464,37.965648 104.786304,38.235008 C104.374424,38.487288 104.127744,38.431848 104.004824,37.760408 M104.700344,36.334088 C104.717984,36.768928 104.733944,37.087848 104.753264,37.312688 C105.009744,37.146368 105.244944,36.985088 105.458304,36.838368 C105.962584,36.492848 106.355144,36.223768 106.718584,36.098888 C107.376584,35.873768 107.832704,36.040368 108.277344,36.872248 C108.329704,36.713208 108.387664,36.553328 108.450944,36.393448 C108.698464,35.764848 109.025504,35.128968 109.400704,34.503448 L109.399864,34.502608 C109.552184,34.248368 109.631704,34.000288 109.706464,33.766208 C109.779824,33.536328 109.849824,33.316528 109.972744,33.093368 C110.388544,32.338768 110.701864,31.737888 110.825624,31.269448 C110.921384,30.907408 110.892264,30.637768 110.683944,30.436728 C110.219984,29.990408 109.413584,29.929648 108.670184,29.873368 C108.354344,29.849848 108.048304,29.826328 107.758224,29.774528 C107.414944,29.713768 107.080904,29.615768 106.740424,29.515808 C105.999824,29.298808 105.222264,29.070888 104.550264,29.290968 C104.348384,29.357328 104.189904,29.466248 104.110104,29.635088 C104.016304,29.833328 104.005944,30.129288 104.115704,30.553208 C104.558384,32.258968 104.611304,33.799528 104.669544,35.494928 C104.677944,35.741888 104.686904,35.993608 104.700344,36.334088" id="Fill-51" fill="#FEFEFE"></path>
            <path d="M104.300952,36.349488 C104.357512,37.755368 104.408192,37.999248 104.577872,37.895368 C106.911672,36.467088 107.415112,35.346528 108.381392,38.164168 C108.525872,37.057328 109.048632,35.863408 109.743312,34.707848 C110.059712,34.180048 110.087992,33.711888 110.323472,33.285448 C111.183072,31.724168 111.622952,30.787288 110.959912,30.148888 C110.178152,29.396808 108.800272,29.555008 107.827832,29.381968 C106.764952,29.192688 105.548352,28.544488 104.426672,28.912128 C103.821312,29.110648 103.458712,29.608208 103.729752,30.653448 C104.231232,32.586568 104.219752,34.331528 104.300952,36.349488" id="Fill-53" fill="#D16C96"></path>
            <path d="M103.85144,29.841112 C104.02112,29.766352 104.17988,29.822072 104.3182,29.906352 C104.54808,30.047472 104.67128,30.230032 104.93392,30.308712 C105.45612,30.465512 105.75432,30.301152 106.32804,30.464672 C106.60608,30.543912 106.8522,30.714432 107.04904,30.900632 C107.15936,31.005072 107.25428,31.119312 107.32876,31.236632 C107.43852,31.152072 107.56732,31.077032 107.70648,31.016552 C107.95484,30.908752 108.24436,30.833152 108.53304,30.853312 C109.19216,30.900072 109.39572,31.210592 110.08396,31.185392 C110.4096,31.173352 110.59944,31.032232 110.70388,30.904272 C110.67504,31.022432 110.51124,31.389232 110.1674,31.470712 C109.67656,31.587192 108.97208,31.249792 108.52016,31.236072 C108.29056,31.229072 108.059,31.281152 107.85908,31.367672 C107.67288,31.448032 107.51776,31.556112 107.41948,31.672592 C107.38056,31.718512 107.32372,31.814832 107.22964,31.797752 C107.13556,31.781512 107.11512,31.673152 107.09468,31.616312 C107.04232,31.473232 106.93312,31.317832 106.78556,31.178112 C106.62708,31.028312 106.42744,30.900632 106.20904,30.828392 C105.83748,30.705752 105.20496,30.746352 104.76844,30.580032 C104.48676,30.472232 104.36188,30.252992 104.16504,30.042992 C104.07152,29.942752 103.98836,29.883392 103.85032,29.852032 C103.8422,29.850352 103.84528,29.843912 103.85144,29.841112" id="Fill-55" fill="#FEFEFE"></path>
            <path d="M104.859608,26.891284 C105.103208,26.934124 105.266168,27.166524 105.223048,27.410404 C105.180208,27.654004 104.947528,27.816684 104.703928,27.773564 C104.460328,27.731004 104.297648,27.498324 104.340488,27.254724 C104.383608,27.011124 104.616008,26.848444 104.859608,26.891284" id="Fill-57" fill="#FEFEFE"></path>
            <path d="M106.38264,26.73706 C106.62624,26.7799 106.78892,27.0123 106.74608,27.25618 C106.70324,27.49978 106.47056,27.66246 106.22696,27.61934 C105.98336,27.5765 105.82068,27.3441 105.86352,27.1005 C105.90664,26.85662 106.13904,26.69394 106.38264,26.73706" id="Fill-59" fill="#FEFEFE"></path>
            <path d="M108.421936,26.822656 C108.665536,26.865776 108.828216,27.098176 108.785376,27.341776 C108.742536,27.585376 108.509856,27.748336 108.266256,27.705216 C108.022656,27.662376 107.859976,27.429696 107.902816,27.186096 C107.945936,26.942496 108.178336,26.779816 108.421936,26.822656" id="Fill-61" fill="#FEFEFE"></path>
            <path d="M109.881268,27.37854 C110.124868,27.42138 110.287548,27.65378 110.244708,27.89766 C110.201868,28.14126 109.968908,28.30394 109.725588,28.26082 C109.481988,28.21798 109.319308,27.98558 109.362148,27.74198 C109.405268,27.4981 109.637668,27.33542 109.881268,27.37854" id="Fill-63" fill="#FEFEFE"></path>
            <path d="M111.209084,28.013188 C111.452684,28.056028 111.615644,28.288428 111.572524,28.532308 C111.529684,28.775908 111.296724,28.938588 111.053404,28.895468 C110.809804,28.852628 110.647124,28.620228 110.689964,28.376628 C110.733084,28.133028 110.965484,27.970068 111.209084,28.013188" id="Fill-65" fill="#FEFEFE"></path>
            <path d="M108.137288,27.378008 C108.156328,27.269088 108.259928,27.196568 108.369128,27.215608 C108.478048,27.234928 108.550848,27.338528 108.531528,27.447448 L108.233048,29.140328 C108.213448,29.249528 108.109848,29.322048 108.001208,29.303008 C107.892288,29.283688 107.819488,29.179808 107.839088,29.070888 L108.137288,27.378008 Z" id="Fill-67" fill="#FEFEFE"></path>
            <path d="M106.116864,27.283788 C106.115744,27.173468 106.204224,27.083308 106.314544,27.0821716 C106.424864,27.080788 106.515024,27.169268 106.516144,27.279588 C106.516144,27.281268 106.526224,27.854428 106.442224,28.601188 C106.429344,28.710388 106.330224,28.789068 106.220744,28.776188 C106.111264,28.763588 106.032864,28.664468 106.045464,28.554988 C106.126664,27.834548 106.116864,27.285188 106.116864,27.283788" id="Fill-69" fill="#FEFEFE"></path>
            <path d="M109.511304,27.916812 C109.550224,27.813772 109.665304,27.761412 109.768344,27.800052 C109.871664,27.838972 109.924024,27.954052 109.885104,28.057372 C109.884544,28.058772 109.687704,28.571732 109.517184,29.275932 C109.491984,29.383452 109.384464,29.449812 109.276944,29.424332 C109.169704,29.398572 109.103344,29.291052 109.129104,29.183812 C109.305504,28.453572 109.510744,27.918212 109.511304,27.916812" id="Fill-71" fill="#FEFEFE"></path>
            <path d="M104.608588,27.329596 C104.585908,27.221796 104.655068,27.115956 104.763148,27.093276 C104.870948,27.070876 104.976508,27.139756 104.999468,27.247836 C104.999468,27.249236 105.121548,27.809516 105.185108,28.557676 C105.194068,28.667436 105.112308,28.764036 105.002548,28.772996 C104.892788,28.782236 104.796188,28.700476 104.786948,28.590436 C104.725628,27.867756 104.608868,27.330996 104.608588,27.329596" id="Fill-73" fill="#FEFEFE"></path>
            <path d="M110.864824,28.418012 C110.923064,28.324492 111.045704,28.295652 111.139224,28.353892 C111.233304,28.411852 111.262144,28.534772 111.203904,28.628572 C111.203344,28.629692 110.957784,29.018332 110.702424,29.569932 C110.656224,29.669892 110.537504,29.713572 110.437544,29.667652 C110.337304,29.621452 110.293624,29.503012 110.339824,29.402772 C110.605824,28.828212 110.863984,28.419132 110.864824,28.418012" id="Fill-75" fill="#FEFEFE"></path>
            <g transform="translate(106.960000, 27.688080)">
                <mask id="mask-2" fill="white">
                    <use xlink:href="#path-1"></use>
                </mask>
                <g id="Clip-78"></g>
                <path d="M13.641936,2.23944 C13.961136,2.5074 14.219856,2.72496 14.462336,2.81904 L14.462056,2.82072 C14.494816,2.83332 14.526456,2.85068 14.556136,2.87224 C14.732816,3.00356 14.769776,3.25332 14.639016,3.43 C14.044016,4.23192 13.309576,4.64884 12.508216,4.80816 C11.730936,4.96272 10.904656,4.8692 10.090416,4.65024 C9.771496,4.56484 9.448936,4.45872 9.128616,4.35372 C8.335936,4.09332 7.554456,3.83684 6.711656,3.89592 C6.091176,3.9396 5.251736,4.82216 4.537176,5.9374 C3.754296,7.15988 3.157616,8.63464 3.159296,9.62612 L3.158456,9.62612 C3.158176,9.65216 3.155656,9.67792 3.150336,9.70424 C3.107216,9.9204 2.896936,10.05984 2.681056,10.01644 L1.190056,9.71432 C1.116696,9.92152 0.889896,10.03016 0.682416,9.95764 C0.576856,9.92124 0.496496,9.8448 0.452816,9.75072 L0.250936,9.3772 C0.146496,9.18372 0.219296,8.9418 0.412776,8.83708 C0.496216,8.79228 0.588336,8.78024 0.674296,8.79648 C1.622656,6.29832 3.056536,3.69292 4.838456,2.01628 C6.416256,0.5306 8.266216,-0.2408 10.304056,0.37408 C12.048456,0.90048 12.963776,1.66936 13.641936,2.23944 M13.699336,3.30428 C13.515936,3.17632 13.332256,3.02204 13.127856,2.8504 C12.504576,2.3268 11.662896,1.6198 10.073616,1.13988 C8.355256,0.62132 6.764016,1.30172 5.386696,2.5984 C3.727416,4.15968 2.377816,6.5954 1.467816,8.95692 L2.392376,9.14424 C2.534616,8.05224 3.123176,6.66484 3.863776,5.5076 C4.700696,4.20056 5.761336,3.16148 6.655376,3.09848 C7.654136,3.02848 8.509256,3.30932 9.376976,3.59408 C9.676296,3.69236 9.977296,3.79148 10.296776,3.87744 C11.007416,4.06784 11.714696,4.1524 12.353936,4.025 C12.842536,3.92812 13.299776,3.7044 13.699336,3.30428" id="Fill-77" fill="#FEFEFE" mask="url(#mask-2)"></path>
            </g>
            <path d="M121.278696,30.880724 C120.407896,30.541644 119.706216,29.216964 117.148976,28.445004 C112.871976,27.153924 109.413416,32.568004 107.774016,37.268924 L107.561776,36.876084 L109.719456,37.313724 C109.715536,35.237244 112.087416,31.294844 113.643376,31.185364 C114.908136,31.096604 115.978856,31.636444 117.153736,31.951724 C118.678336,32.361364 120.220576,32.307044 121.278696,30.880724" id="Fill-79" fill="#D16C96"></path>
            <path d="M104.001268,38.557764 C104.411468,39.021724 105.022428,39.365004 105.890428,39.518164 C106.757868,39.671324 107.449468,39.557364 107.993788,39.261684 C108.619028,38.921484 109.068428,38.330404 109.373908,37.621444 C109.661468,36.956164 109.808748,36.241324 109.857468,35.769244 C109.750788,35.815164 109.622268,35.872284 109.474708,35.940044 C109.170068,36.080604 108.809988,36.266524 108.436188,36.497244 C108.409028,36.513484 108.379908,36.527204 108.348268,36.537284 C108.138268,36.604484 107.913428,36.488844 107.845948,36.278844 C107.747388,35.971124 107.543268,35.652204 107.323748,35.384244 C107.048508,35.047964 106.795388,34.811644 106.722588,34.798484 C106.649228,34.785604 106.330868,34.921124 105.957068,35.143164 C105.664468,35.317044 105.369348,35.541604 105.171108,35.791364 C105.149548,35.821884 105.123508,35.850164 105.092148,35.874244 C104.919388,36.011164 104.667948,35.982044 104.531028,35.808724 C104.240388,35.441644 103.960948,35.135604 103.722668,34.899564 C103.619908,34.797364 103.526948,34.709444 103.446028,34.636084 C103.330108,35.100044 103.223148,35.825524 103.265148,36.544564 C103.309948,37.315404 103.529748,38.024084 104.001268,38.557764 M105.751268,40.306364 C104.691748,40.119604 103.929308,39.683084 103.403188,39.087244 C102.800348,38.405164 102.521188,37.529324 102.466308,36.590764 C102.418988,35.780164 102.540508,34.960604 102.671268,34.437844 C102.717188,34.254444 102.765628,34.102404 102.809308,33.995724 C102.917388,33.731684 103.089588,33.592244 103.303228,33.608484 L103.309388,33.609044 L103.309388,33.608204 C103.353628,33.612404 103.397588,33.624444 103.441828,33.644604 L103.444628,33.645724 L103.444908,33.645164 C103.577348,33.707044 103.898788,33.950364 104.283228,34.331164 C104.462148,34.509244 104.660388,34.719244 104.864788,34.957244 C105.076188,34.765164 105.315588,34.595764 105.551068,34.455764 C106.078588,34.142444 106.639708,33.971084 106.861468,34.010564 C107.083228,34.049484 107.551948,34.402284 107.940308,34.876884 C108.113908,35.089124 108.281348,35.330764 108.414628,35.583884 C108.671108,35.441084 108.918628,35.317604 109.142068,35.215124 C109.697588,34.958924 110.154268,34.829564 110.252548,34.834604 C110.302668,34.837404 110.349988,34.849444 110.393388,34.868764 L110.393668,34.867644 C110.553548,34.936524 110.647068,35.088844 110.668628,35.305004 C110.676748,35.390124 110.678148,35.500724 110.671148,35.629244 C110.642868,36.146124 110.478228,37.082724 110.108628,37.938684 C109.736508,38.801364 109.174548,39.529084 108.374868,39.963644 C107.676548,40.343324 106.810788,40.493124 105.751268,40.306364" id="Fill-81" fill="#FEFEFE"></path>
            <path d="M110.912676,32.392304 C111.774236,31.280424 112.567196,30.769704 114.764916,31.266424 C114.864316,31.302544 114.586836,31.328584 114.550716,31.428264 C114.514596,31.527664 114.475676,31.617544 114.375996,31.581424 C113.601796,31.406424 112.902916,31.342864 112.156716,31.652824 C111.524756,31.916024 111.167476,32.241944 110.959156,32.424504 C110.904836,32.472664 110.888036,32.423944 110.912676,32.392304" id="Fill-83" fill="#FEFEFE"></path>
            <path d="M99.314292,27.656776 C100.749012,28.111496 102.106172,29.230656 102.539892,30.695616 C102.539612,30.801456 102.369372,30.474976 102.263252,30.474976 C102.157412,30.474696 102.059972,30.468536 102.059972,30.362976 C102.100012,30.116856 101.288572,29.131536 100.693292,28.669536 C100.043412,28.164976 99.407252,27.873216 99.283772,27.691216 C99.265292,27.664056 99.288252,27.648656 99.314292,27.656776" id="Fill-85" fill="#FEFEFE"></path>
            <path d="M105.820736,39.912376 C103.751816,39.547256 102.959136,38.167976 102.865616,36.567776 C102.790016,35.273336 103.169696,33.957616 103.277776,34.008296 C103.453056,34.089216 104.130936,34.657896 104.844656,35.560896 C105.387856,34.859776 106.534456,34.358856 106.792056,34.404776 C107.049656,34.449856 107.955736,35.312536 108.226496,36.157016 C109.205936,35.552776 110.130216,35.228256 110.229896,35.233856 C110.348896,35.240296 110.255376,36.589616 109.741576,37.780176 C109.106256,39.251856 107.889936,40.277216 105.820736,39.912376" id="Fill-87" fill="#46BCCB"></path>
        </g>
    </g>
</svg>