<?xml version="1.0" encoding="UTF-8"?>
<svg width="2142px" height="392px" viewBox="0 0 2142 392" version="1.1" xmlns="http://www.w3.org/2000/svg" xmlns:xlink="http://www.w3.org/1999/xlink">
    <title>图</title>
    <defs>
        <linearGradient x1="46.4305942%" y1="49.9046564%" x2="65.4204864%" y2="50.137852%" id="linearGradient-1">
            <stop stop-color="#E1B5E1" stop-opacity="0.680071637" offset="0%"></stop>
            <stop stop-color="#6276EA" stop-opacity="0.752762374" offset="100%"></stop>
        </linearGradient>
        <filter x="-0.1%" y="-5.1%" width="100.3%" height="110.2%" filterUnits="objectBoundingBox" id="filter-2">
            <feGaussianBlur stdDeviation="1 0" in="SourceGraphic"></feGaussianBlur>
        </filter>
        <linearGradient x1="46.4305942%" y1="49.9073466%" x2="65.4204864%" y2="50.1339624%" id="linearGradient-3">
            <stop stop-color="#E1B5E1" stop-opacity="0.680071637" offset="0%"></stop>
            <stop stop-color="#6276EA" stop-opacity="0.752762374" offset="100%"></stop>
        </linearGradient>
        <filter x="-0.1%" y="-5.2%" width="100.3%" height="110.4%" filterUnits="objectBoundingBox" id="filter-4">
            <feGaussianBlur stdDeviation="1 0" in="SourceGraphic"></feGaussianBlur>
        </filter>
        <linearGradient x1="46.6649008%" y1="49.9233855%" x2="65.4204864%" y2="50.1142196%" id="linearGradient-5">
            <stop stop-color="#E1B5E1" stop-opacity="0.920751612" offset="0%"></stop>
            <stop stop-color="#6276EA" stop-opacity="0.712692581" offset="100%"></stop>
        </linearGradient>
        <filter x="-0.1%" y="-5.6%" width="100.3%" height="111.3%" filterUnits="objectBoundingBox" id="filter-6">
            <feGaussianBlur stdDeviation="1 0" in="SourceGraphic"></feGaussianBlur>
        </filter>
        <linearGradient x1="46.4305942%" y1="49.9506991%" x2="65.4204864%" y2="50.0712814%" id="linearGradient-7">
            <stop stop-color="#E1B5E1" stop-opacity="0.533322634" offset="0%"></stop>
            <stop stop-color="#6276EA" offset="100%"></stop>
        </linearGradient>
        <filter x="-0.2%" y="-7.1%" width="100.3%" height="114.3%" filterUnits="objectBoundingBox" id="filter-8">
            <feGaussianBlur stdDeviation="1 0" in="SourceGraphic"></feGaussianBlur>
        </filter>
    </defs>
    <g id="页面-1" stroke="none" stroke-width="1" fill="none" fill-rule="evenodd">
        <g id="东云官网-解决方案-Tiktok" transform="translate(22.000000, -1076.000000)">
            <g id="发展" transform="translate(0.000000, 925.000000)">
                <g id="图" transform="translate(-18.000000, 151.000000)">
                    <g id="编组-6" transform="translate(0.000000, 131.642726)" opacity="0.80217198" stroke-width="2">
                        <path d="M0,69.3502233 C243.84241,38.6884567 465.38242,38.6884567 664.62003,69.3502233 C963.476446,115.342873 1254.82763,105.635034 1416.71712,69.7927768 C1697.99698,3.87663307 2080.33146,21.2492445 2130,36.2162779" id="路径-2" stroke="url(#linearGradient-1)" filter="url(#filter-2)"></path>
                        <path d="M0,42.416796 C251.148024,22.6368943 473.840736,29.3891872 668.078136,62.6736745 C959.434237,112.600405 1250.91947,117.826948 1417.03991,96.478672 C1706.16799,56.4864056 2084.56778,87.3298187 2131.9901,101.460514 C2163.60498,110.880978 1452.94162,91.1997383 0,42.416796 Z" id="路径-2备份-3" stroke="url(#linearGradient-3)" filter="url(#filter-4)"></path>
                        <path d="M0,97.1329073 C243.84241,69.2228378 465.38242,69.2228378 664.62003,97.1329073 C963.476446,138.998012 1254.82763,130.161389 1416.71712,97.5357445 C1697.99698,37.5351521 2080.33146,53.348683 2130,66.9725212" id="路径-2备份" stroke="url(#linearGradient-5)" filter="url(#filter-6)" transform="translate(1065.000000, 89.857274) scale(-1, -1) translate(-1065.000000, -89.857274) "></path>
                        <path d="M2131.26587,80.6386209 C1885.89719,101.737545 1664.55013,98.2372491 1467.22469,70.1377319 C1171.23653,27.9884562 879.588627,31.2850933 715.80773,57.8945831 C431.035145,107.090921 50.0187565,86.9128058 1.24216759,73.948343" id="路径-2备份-2" stroke="url(#linearGradient-7)" filter="url(#filter-8)" transform="translate(1066.254017, 66.166429) rotate(2.000000) translate(-1066.254017, -66.166429) "></path>
                    </g>
                    <g id="编组-20" transform="translate(153.000000, 104.000000)">
                        <circle id="椭圆形" fill="#EAEEFF" opacity="0.946382068" cx="25.5" cy="154.5" r="25.5"></circle>
                        <circle id="椭圆形备份-11" fill="#EAEEFF" opacity="0.430789039" cx="877.5" cy="221.5" r="14.5"></circle>
                        <circle id="椭圆形备份-7" fill="#C7D0F8" opacity="0.583253406" cx="629.5" cy="76.5" r="17.5"></circle>
                        <circle id="椭圆形备份-8" fill="#F3E4F1" cx="1381.5" cy="136.5" r="42.5"></circle>
                        <circle id="椭圆形备份-12" fill="#FFE581" opacity="0.0686427525" cx="1300.5" cy="36.5" r="36.5"></circle>
                        <circle id="椭圆形备份-10" fill="#F3E4F1" opacity="0.357533773" cx="176.5" cy="50.5" r="25.5"></circle>
                        <circle id="椭圆形备份-9" fill="#D3D1FA" opacity="0.245884487" cx="1669.5" cy="58.5" r="14.5"></circle>
                    </g>
                    <g id="编组-26" transform="translate(436.000000, 0.000000)">
                        <g id="编组-21" transform="translate(0.000000, 81.000000)">
                            <path d="M55.5,8 C70.968861,8 84.9464473,14.3279219 94.9400592,24.5146275 C104.569609,34.3302367 110.5,47.7287443 110.5,62.5 C110.5,77.5492456 104.344284,91.1735718 94.3924764,101.035723 C84.4390237,110.899505 70.6883519,117 55.5,117 C40.3116481,117 26.5609763,110.899505 16.6075236,101.035723 C6.65571607,91.1735718 0.5,77.5492456 0.5,62.5 C0.5,47.4507544 6.65571607,33.8264282 16.6075236,23.9642766 C26.5609763,14.1004946 40.3116481,8 55.5,8 Z" id="椭圆形" stroke-opacity="0.503933566" stroke="#4162EB" transform="translate(55.500000, 62.500000) rotate(-360.000000) translate(-55.500000, -62.500000) "></path>
                            <circle id="椭圆形" fill="#E2C0FE" cx="63" cy="55" r="55"></circle>
                        </g>
                        <g id="编组-25" transform="translate(346.000000, 262.000000)">
                            <path d="M48.5,2.5 C61.999658,2.5 74.1976908,8.07289407 82.9190401,17.0435716 C91.3240625,25.6888791 96.5,37.4899899 96.5,50.5 C96.5,63.754834 91.127417,75.754834 82.4411255,84.4411255 C73.754834,93.127417 61.754834,98.5 48.5,98.5 C35.245166,98.5 23.245166,93.127417 14.5588745,84.4411255 C5.872583,75.754834 0.5,63.754834 0.5,50.5 C0.5,37.245166 5.872583,25.245166 14.5588745,16.5588745 C23.245166,7.872583 35.245166,2.5 48.5,2.5 L48.5,2.5 Z" id="椭圆形备份-4" stroke-opacity="0.503933566" stroke="#4162EB"></path>
                            <circle id="椭圆形备份-2" fill="#70DAD4" cx="57" cy="50" r="50"></circle>
                        </g>
                        <g id="编组-23" transform="translate(541.000000, 0.000000)">
                            <path d="M78.5,0.5 C95.9370532,0.5 111.692844,7.69831469 122.957918,19.2854375 C133.814407,30.4522954 140.5,45.6953986 140.5,62.5 C140.5,79.6208272 133.560414,95.1208272 122.34062,106.34062 C111.120827,117.560414 95.6208272,124.5 78.5,124.5 C61.3791728,124.5 45.8791728,117.560414 34.6593796,106.34062 C23.4395864,95.1208272 16.5,79.6208272 16.5,62.5 C16.5,45.3791728 23.4395864,29.8791728 34.6593796,18.6593796 C45.8791728,7.43958638 61.3791728,0.5 78.5,0.5 Z" id="椭圆形备份-5" stroke-opacity="0.503933566" stroke="#4162EB"></path>
                            <circle id="椭圆形备份-3" fill="#FFE581" cx="64" cy="68" r="64"></circle>
                        </g>
                        <g id="编组-24" transform="translate(884.000000, 191.000000)">
                            <path d="M100.5,0.5 C128.624269,0.5 154.036831,12.1101707 172.2063,30.7990734 C189.716772,48.8101395 200.5,73.3957936 200.5,100.5 C200.5,128.114237 189.307119,153.114237 171.210678,171.210678 C153.114237,189.307119 128.114237,200.5 100.5,200.5 C72.8857625,200.5 47.8857625,189.307119 29.7893219,171.210678 C11.6928813,153.114237 0.5,128.114237 0.5,100.5 C0.5,72.8857625 11.6928813,47.8857625 29.7893219,29.7893219 C47.8857625,11.6928813 72.8857625,0.5 100.5,0.5 Z" id="椭圆形备份-6" stroke-opacity="0.503933566" stroke="#4162EB"></path>
                            <circle id="椭圆形备份" fill="#A7B6F3" cx="117" cy="101" r="100"></circle>
                        </g>
                    </g>
                </g>
            </g>
        </g>
    </g>
</svg>