<?xml version="1.0" encoding="UTF-8"?>
<svg width="20px" height="20px" viewBox="0 0 20 20" version="1.1" xmlns="http://www.w3.org/2000/svg" xmlns:xlink="http://www.w3.org/1999/xlink">
    <title>抖音</title>
    <defs>
        <filter id="filter-1">
            <feColorMatrix in="SourceGraphic" type="matrix" values="0 0 0 0 0.254902 0 0 0 0 0.384314 0 0 0 0 0.921569 0 0 0 1.000000 0"></feColorMatrix>
        </filter>
    </defs>
    <g id="页面-1" stroke="none" stroke-width="1" fill="none" fill-rule="evenodd">
        <g id="东云官网-合作伙伴" transform="translate(-787.000000, -1971.000000)">
            <g id="教育行业" transform="translate(359.000000, 1505.000000)">
                <g id="中国银行" transform="translate(0.000000, 123.000000)">
                    <g id="抖音" transform="translate(416.000000, 331.000000)" filter="url(#filter-1)">
                        <g transform="translate(12.000000, 12.000000)">
                            <rect id="矩形" fill="#000000" fill-rule="nonzero" opacity="0" x="0" y="0" width="20" height="20"></rect>
                            <path d="M18.3085938,8.27929688 C16.6679688,8.27929688 15.0722656,7.74609375 13.7597656,6.75976562 L13.7597656,13.640625 C13.7597656,17.1542969 11.0527344,20 7.71289062,20 C4.37304687,20 1.66601562,17.1542969 1.66601562,13.640625 C1.66601562,10.1269531 4.37304687,7.28125 7.71289062,7.28125 C8.046875,7.28125 8.37109375,7.31054687 8.6875,7.36523437 L8.6875,11.0097656 C8.38476562,10.890625 8.0625,10.8300781 7.73828125,10.8300781 C6.24804687,10.8300781 5.0390625,12.0996094 5.0390625,13.6679688 C5.0390625,15.234375 6.24804687,16.5058594 7.73828125,16.5058594 C9.2265625,16.5058594 10.4355469,15.234375 10.4355469,13.6679688 L10.4355469,0 L13.8085937,0 C13.8085937,2.62695312 15.8339844,4.75585938 18.3320312,4.75585938 L18.3320312,8.27734375 L18.3085938,8.27929688" id="路径" fill="#000000" fill-rule="nonzero"></path>
                        </g>
                    </g>
                </g>
            </g>
        </g>
    </g>
</svg>